<?xml version="1.0" encoding="utf-8" standalone="no"?>
<!DOCTYPE svg PUBLIC "-//W3C//DTD SVG 1.1//EN"
  "http://www.w3.org/Graphics/SVG/1.1/DTD/svg11.dtd">
<svg xmlns:xlink="http://www.w3.org/1999/xlink" width="620.981026pt" height="397.963996pt" viewBox="0 0 620.981026 397.963996" xmlns="http://www.w3.org/2000/svg" version="1.1">
 <metadata>
  <rdf:RDF xmlns:dc="http://purl.org/dc/elements/1.1/" xmlns:cc="http://creativecommons.org/ns#" xmlns:rdf="http://www.w3.org/1999/02/22-rdf-syntax-ns#">
   <cc:Work>
    <dc:type rdf:resource="http://purl.org/dc/dcmitype/StillImage"/>
    <dc:date>2022-05-26T17:27:05.765602</dc:date>
    <dc:format>image/svg+xml</dc:format>
    <dc:creator>
     <cc:Agent>
      <dc:title>Matplotlib v3.5.1, https://matplotlib.org/</dc:title>
     </cc:Agent>
    </dc:creator>
   </cc:Work>
  </rdf:RDF>
 </metadata>
 <defs>
  <style type="text/css">*{stroke-linejoin: round; stroke-linecap: butt}</style>
 </defs>
 <g id="figure_1">
  <g id="patch_1">
   <path d="M 0 397.963996 
L 620.981026 397.963996 
L 620.981026 0 
L 0 0 
z
" style="fill: #ffffff; opacity: 0.4"/>
  </g>
  <g id="axes_1">
   <g id="patch_2">
    <path d="M 49.928035 353.196997 
L 607.928035 353.196997 
L 607.928035 27.036997 
L 49.928035 27.036997 
z
" style="fill: #ffffff"/>
   </g>
   <g id="matplotlib.axis_1">
    <g id="xtick_1">
     <g id="line2d_1">
      <defs>
       <path id="mb65c886b62" d="M 0 0 
L 0 3.5 
" style="stroke: #000000; stroke-width: 0.8"/>
      </defs>
      <g>
       <use xlink:href="#mb65c886b62" x="49.928035" y="353.196997" style="stroke: #000000; stroke-width: 0.8"/>
      </g>
     </g>
     <g id="text_1">
      <!-- $\mathdefault{0}$ -->
      <g transform="translate(47.00154 368.499177)scale(0.12 -0.12)">
       <defs>
        <path id="CMR17-30" d="M 2688 2038 
C 2688 2430 2682 3099 2413 3613 
C 2176 4063 1798 4224 1466 4224 
C 1158 4224 768 4082 525 3620 
C 269 3137 243 2539 243 2038 
C 243 1671 250 1112 448 623 
C 723 -39 1216 -128 1466 -128 
C 1760 -128 2208 -7 2470 604 
C 2662 1048 2688 1568 2688 2038 
z
M 1466 -26 
C 1056 -26 813 328 723 816 
C 653 1196 653 1749 653 2109 
C 653 2604 653 3015 736 3407 
C 858 3954 1216 4121 1466 4121 
C 1728 4121 2067 3947 2189 3420 
C 2272 3054 2278 2623 2278 2109 
C 2278 1691 2278 1176 2202 797 
C 2067 96 1690 -26 1466 -26 
z
" transform="scale(0.015625)"/>
       </defs>
       <use xlink:href="#CMR17-30" transform="scale(0.996264)"/>
      </g>
     </g>
    </g>
    <g id="xtick_2">
     <g id="line2d_2">
      <g>
       <use xlink:href="#mb65c886b62" x="129.642321" y="353.196997" style="stroke: #000000; stroke-width: 0.8"/>
      </g>
     </g>
     <g id="text_2">
      <!-- $\mathdefault{10}$ -->
      <g transform="translate(123.789331 368.499177)scale(0.12 -0.12)">
       <defs>
        <path id="CMR17-31" d="M 1702 4083 
C 1702 4217 1696 4224 1606 4224 
C 1357 3927 979 3833 621 3820 
C 602 3820 570 3820 563 3808 
C 557 3795 557 3782 557 3648 
C 755 3648 1088 3686 1344 3839 
L 1344 467 
C 1344 243 1331 166 781 166 
L 589 166 
L 589 0 
C 896 6 1216 12 1523 12 
C 1830 12 2150 6 2458 0 
L 2458 166 
L 2266 166 
C 1715 166 1702 236 1702 467 
L 1702 4083 
z
" transform="scale(0.015625)"/>
       </defs>
       <use xlink:href="#CMR17-31" transform="scale(0.996264)"/>
       <use xlink:href="#CMR17-30" transform="translate(45.690477 0)scale(0.996264)"/>
      </g>
     </g>
    </g>
    <g id="xtick_3">
     <g id="line2d_3">
      <g>
       <use xlink:href="#mb65c886b62" x="209.356607" y="353.196997" style="stroke: #000000; stroke-width: 0.8"/>
      </g>
     </g>
     <g id="text_3">
      <!-- $\mathdefault{20}$ -->
      <g transform="translate(203.503616 368.499177)scale(0.12 -0.12)">
       <defs>
        <path id="CMR17-32" d="M 2669 990 
L 2554 990 
C 2490 537 2438 460 2413 422 
C 2381 371 1920 371 1830 371 
L 602 371 
C 832 620 1280 1073 1824 1596 
C 2214 1966 2669 2400 2669 3033 
C 2669 3788 2067 4224 1395 4224 
C 691 4224 262 3603 262 3027 
C 262 2777 448 2745 525 2745 
C 589 2745 781 2783 781 3007 
C 781 3206 614 3264 525 3264 
C 486 3264 448 3257 422 3244 
C 544 3788 915 4057 1306 4057 
C 1862 4057 2227 3616 2227 3033 
C 2227 2477 1901 1998 1536 1583 
L 262 147 
L 262 0 
L 2515 0 
L 2669 990 
z
" transform="scale(0.015625)"/>
       </defs>
       <use xlink:href="#CMR17-32" transform="scale(0.996264)"/>
       <use xlink:href="#CMR17-30" transform="translate(45.690477 0)scale(0.996264)"/>
      </g>
     </g>
    </g>
    <g id="xtick_4">
     <g id="line2d_4">
      <g>
       <use xlink:href="#mb65c886b62" x="289.070892" y="353.196997" style="stroke: #000000; stroke-width: 0.8"/>
      </g>
     </g>
     <g id="text_4">
      <!-- $\mathdefault{30}$ -->
      <g transform="translate(283.217902 368.499177)scale(0.12 -0.12)">
       <defs>
        <path id="CMR17-33" d="M 1414 2176 
C 1984 2176 2234 1673 2234 1094 
C 2234 322 1824 25 1453 25 
C 1114 25 563 193 390 691 
C 422 678 454 678 486 678 
C 640 678 755 780 755 947 
C 755 1132 614 1216 486 1216 
C 378 1216 211 1164 211 927 
C 211 335 787 -128 1466 -128 
C 2176 -128 2720 432 2720 1087 
C 2720 1718 2208 2176 1600 2246 
C 2086 2347 2554 2776 2554 3353 
C 2554 3856 2048 4224 1472 4224 
C 890 4224 378 3862 378 3347 
C 378 3123 544 3084 627 3084 
C 762 3084 877 3167 877 3334 
C 877 3500 762 3584 627 3584 
C 602 3584 570 3584 544 3571 
C 730 3999 1235 4076 1459 4076 
C 1683 4076 2106 3966 2106 3347 
C 2106 3167 2080 2851 1862 2574 
C 1670 2329 1453 2316 1242 2297 
C 1210 2297 1062 2284 1037 2284 
C 992 2278 966 2272 966 2227 
C 966 2182 973 2176 1101 2176 
L 1414 2176 
z
" transform="scale(0.015625)"/>
       </defs>
       <use xlink:href="#CMR17-33" transform="scale(0.996264)"/>
       <use xlink:href="#CMR17-30" transform="translate(45.690477 0)scale(0.996264)"/>
      </g>
     </g>
    </g>
    <g id="xtick_5">
     <g id="line2d_5">
      <g>
       <use xlink:href="#mb65c886b62" x="368.785178" y="353.196997" style="stroke: #000000; stroke-width: 0.8"/>
      </g>
     </g>
     <g id="text_5">
      <!-- $\mathdefault{40}$ -->
      <g transform="translate(362.932188 368.499177)scale(0.12 -0.12)">
       <defs>
        <path id="CMR17-34" d="M 2150 4147 
C 2150 4281 2144 4288 2029 4288 
L 128 1254 
L 128 1088 
L 1779 1088 
L 1779 460 
C 1779 230 1766 166 1318 166 
L 1197 166 
L 1197 0 
C 1402 12 1747 12 1965 12 
C 2182 12 2528 12 2733 0 
L 2733 166 
L 2611 166 
C 2163 166 2150 230 2150 460 
L 2150 1088 
L 2803 1088 
L 2803 1254 
L 2150 1254 
L 2150 4147 
z
M 1798 3723 
L 1798 1254 
L 256 1254 
L 1798 3723 
z
" transform="scale(0.015625)"/>
       </defs>
       <use xlink:href="#CMR17-34" transform="scale(0.996264)"/>
       <use xlink:href="#CMR17-30" transform="translate(45.690477 0)scale(0.996264)"/>
      </g>
     </g>
    </g>
    <g id="xtick_6">
     <g id="line2d_6">
      <g>
       <use xlink:href="#mb65c886b62" x="448.499464" y="353.196997" style="stroke: #000000; stroke-width: 0.8"/>
      </g>
     </g>
     <g id="text_6">
      <!-- $\mathdefault{50}$ -->
      <g transform="translate(442.646474 368.499177)scale(0.12 -0.12)">
       <defs>
        <path id="CMR17-35" d="M 730 3750 
C 794 3724 1056 3641 1325 3641 
C 1920 3641 2246 3961 2432 4140 
C 2432 4191 2432 4224 2394 4224 
C 2387 4224 2374 4224 2323 4198 
C 2099 4102 1837 4032 1517 4032 
C 1325 4032 1037 4055 723 4191 
C 653 4224 640 4224 634 4224 
C 602 4224 595 4217 595 4090 
L 595 2231 
C 595 2113 595 2080 659 2080 
C 691 2080 704 2093 736 2139 
C 941 2435 1222 2560 1542 2560 
C 1766 2560 2246 2415 2246 1293 
C 2246 1087 2246 716 2054 422 
C 1894 159 1645 25 1370 25 
C 947 25 518 319 403 812 
C 429 806 480 793 506 793 
C 589 793 749 838 749 1036 
C 749 1209 627 1280 506 1280 
C 358 1280 262 1190 262 1011 
C 262 454 704 -128 1382 -128 
C 2042 -128 2669 441 2669 1267 
C 2669 2054 2170 2662 1549 2662 
C 1222 2662 947 2540 730 2304 
L 730 3750 
z
" transform="scale(0.015625)"/>
       </defs>
       <use xlink:href="#CMR17-35" transform="scale(0.996264)"/>
       <use xlink:href="#CMR17-30" transform="translate(45.690477 0)scale(0.996264)"/>
      </g>
     </g>
    </g>
    <g id="xtick_7">
     <g id="line2d_7">
      <g>
       <use xlink:href="#mb65c886b62" x="528.21375" y="353.196997" style="stroke: #000000; stroke-width: 0.8"/>
      </g>
     </g>
     <g id="text_7">
      <!-- $\mathdefault{60}$ -->
      <g transform="translate(522.360759 368.499177)scale(0.12 -0.12)">
       <defs>
        <path id="CMR17-36" d="M 678 2198 
C 678 3712 1395 4076 1811 4076 
C 1946 4076 2272 4049 2400 3782 
C 2298 3782 2106 3782 2106 3558 
C 2106 3385 2246 3328 2336 3328 
C 2394 3328 2566 3353 2566 3571 
C 2566 3987 2246 4224 1805 4224 
C 1043 4224 243 3411 243 2011 
C 243 257 966 -128 1478 -128 
C 2099 -128 2688 431 2688 1295 
C 2688 2101 2170 2688 1517 2688 
C 1126 2688 838 2430 678 1979 
L 678 2198 
z
M 1478 25 
C 691 25 691 1212 691 1450 
C 691 1914 909 2585 1504 2585 
C 1613 2585 1926 2585 2138 2140 
C 2253 1889 2253 1624 2253 1302 
C 2253 954 2253 696 2118 438 
C 1978 173 1773 25 1478 25 
z
" transform="scale(0.015625)"/>
       </defs>
       <use xlink:href="#CMR17-36" transform="scale(0.996264)"/>
       <use xlink:href="#CMR17-30" transform="translate(45.690477 0)scale(0.996264)"/>
      </g>
     </g>
    </g>
    <g id="xtick_8">
     <g id="line2d_8">
      <g>
       <use xlink:href="#mb65c886b62" x="607.928035" y="353.196997" style="stroke: #000000; stroke-width: 0.8"/>
      </g>
     </g>
     <g id="text_8">
      <!-- $\mathdefault{70}$ -->
      <g transform="translate(602.075045 368.499177)scale(0.12 -0.12)">
       <defs>
        <path id="CMR17-37" d="M 2886 3955 
L 2886 4096 
L 1382 4096 
C 634 4096 621 4166 595 4288 
L 480 4288 
L 294 3104 
L 410 3104 
C 429 3226 474 3552 550 3673 
C 589 3724 1062 3724 1171 3724 
L 2579 3724 
L 1869 2670 
C 1395 1961 1069 1003 1069 166 
C 1069 89 1069 -128 1299 -128 
C 1530 -128 1530 89 1530 172 
L 1530 466 
C 1530 1514 1709 2204 2003 2644 
L 2886 3955 
z
" transform="scale(0.015625)"/>
       </defs>
       <use xlink:href="#CMR17-37" transform="scale(0.996264)"/>
       <use xlink:href="#CMR17-30" transform="translate(45.690477 0)scale(0.996264)"/>
      </g>
     </g>
    </g>
    <g id="text_9">
     <!-- Energia do neutrino [MeV] -->
     <g transform="translate(237.346471 386.77894)scale(0.16 -0.16)">
      <defs>
       <path id="CMR17-45" d="M 3885 1614 
L 3770 1614 
C 3629 676 3546 166 2419 166 
L 1530 166 
C 1274 166 1261 198 1261 415 
L 1261 2176 
L 1862 2176 
C 2464 2176 2522 1959 2522 1429 
L 2637 1429 
L 2637 3086 
L 2522 3086 
C 2522 2558 2464 2342 1862 2342 
L 1261 2342 
L 1261 3924 
C 1261 4141 1274 4172 1530 4172 
L 2406 4172 
C 3398 4172 3514 3778 3603 2933 
L 3718 2933 
L 3565 4339 
L 326 4339 
L 326 4172 
C 768 4172 838 4172 838 3886 
L 838 453 
C 838 166 768 166 326 166 
L 326 0 
L 3654 0 
L 3885 1614 
z
" transform="scale(0.015625)"/>
       <path id="CMR17-6e" d="M 2656 1954 
C 2656 2282 2592 2816 1837 2816 
C 1331 2816 1069 2424 973 2166 
L 966 2166 
L 966 2816 
L 211 2745 
L 211 2578 
C 589 2578 646 2540 646 2231 
L 646 443 
C 646 198 621 166 211 166 
L 211 0 
C 365 12 646 12 813 12 
C 979 12 1267 12 1421 0 
L 1421 166 
C 1011 166 986 192 986 443 
L 986 1678 
C 986 2269 1344 2713 1792 2713 
C 2266 2713 2317 2289 2317 1980 
L 2317 443 
C 2317 198 2291 166 1882 166 
L 1882 0 
C 2035 12 2317 12 2483 12 
C 2650 12 2938 12 3091 0 
L 3091 166 
C 2682 166 2656 192 2656 443 
L 2656 1954 
z
" transform="scale(0.015625)"/>
       <path id="CMR17-65" d="M 2438 1503 
C 2464 1529 2464 1542 2464 1606 
C 2464 2251 2118 2816 1389 2816 
C 710 2816 173 2175 173 1394 
C 173 554 781 -64 1459 -64 
C 2176 -64 2458 619 2458 755 
C 2458 800 2419 800 2406 800 
C 2362 800 2355 787 2330 709 
C 2189 270 1837 51 1504 51 
C 1229 51 954 206 781 490 
C 582 819 582 1200 582 1503 
L 2438 1503 
z
M 589 1600 
C 634 2511 1126 2713 1382 2713 
C 1818 2713 2112 2308 2118 1600 
L 589 1600 
z
" transform="scale(0.015625)"/>
       <path id="CMR17-72" d="M 960 1517 
C 960 2134 1222 2713 1702 2713 
C 1747 2713 1792 2707 1837 2687 
C 1837 2687 1696 2642 1696 2475 
C 1696 2321 1818 2257 1914 2257 
C 1990 2257 2131 2302 2131 2482 
C 2131 2687 1926 2816 1709 2816 
C 1222 2816 1011 2340 947 2115 
L 941 2115 
L 941 2816 
L 198 2745 
L 198 2578 
C 576 2578 634 2540 634 2231 
L 634 443 
C 634 198 608 166 198 166 
L 198 0 
C 352 12 646 12 813 12 
C 998 12 1325 12 1498 0 
L 1498 166 
C 1037 166 960 166 960 455 
L 960 1517 
z
" transform="scale(0.015625)"/>
       <path id="CMR17-67" d="M 710 1165 
C 832 1068 1043 960 1299 960 
C 1805 960 2240 1359 2240 1895 
C 2240 2063 2189 2321 1997 2521 
C 2176 2713 2438 2777 2586 2777 
C 2611 2777 2650 2777 2682 2758 
C 2656 2751 2598 2726 2598 2623 
C 2598 2540 2656 2483 2739 2483 
C 2835 2483 2886 2547 2886 2630 
C 2886 2751 2790 2880 2586 2880 
C 2330 2880 2106 2758 1926 2591 
C 1734 2764 1504 2828 1299 2828 
C 794 2828 358 2431 358 1895 
C 358 1527 570 1294 634 1230 
C 442 1004 442 742 442 710 
C 442 544 506 300 723 166 
C 390 82 128 -184 128 -517 
C 128 -996 736 -1344 1466 -1344 
C 2170 -1344 2803 -1009 2803 -510 
C 2803 384 1856 384 1363 384 
C 1216 384 954 384 922 390 
C 723 422 589 601 589 825 
C 589 883 589 1024 710 1165 
z
M 1299 1068 
C 736 1068 736 1766 736 1895 
C 736 2024 736 2719 1299 2719 
C 1862 2719 1862 2024 1862 1895 
C 1862 1766 1862 1068 1299 1068 
z
M 1466 -1236 
C 826 -1236 384 -883 384 -517 
C 384 -311 493 -118 634 -11 
C 794 102 858 102 1293 102 
C 1818 102 2547 102 2547 -517 
C 2547 -883 2106 -1236 1466 -1236 
z
" transform="scale(0.015625)"/>
       <path id="CMR17-69" d="M 992 3961 
C 992 4102 877 4224 730 4224 
C 589 4224 467 4108 467 3961 
C 467 3820 582 3699 730 3699 
C 870 3699 992 3814 992 3961 
z
M 243 2745 
L 243 2579 
C 602 2579 653 2540 653 2231 
L 653 443 
C 653 198 627 166 218 166 
L 218 0 
C 371 12 646 12 806 12 
C 960 12 1222 12 1370 0 
L 1370 166 
C 992 166 979 205 979 436 
L 979 2816 
L 243 2745 
z
" transform="scale(0.015625)"/>
       <path id="CMR17-61" d="M 2304 1656 
C 2304 2048 2304 2275 2035 2534 
C 1798 2751 1523 2816 1306 2816 
C 800 2816 435 2408 435 1977 
C 435 1740 627 1728 666 1728 
C 749 1728 896 1779 896 1958 
C 896 2118 774 2188 666 2188 
C 640 2188 608 2182 589 2176 
C 723 2594 1069 2713 1293 2713 
C 1613 2713 1965 2421 1965 1875 
L 1965 1632 
C 1587 1619 1133 1568 774 1373 
C 371 1147 256 822 256 576 
C 256 77 832 -64 1171 -64 
C 1523 -64 1850 135 1990 505 
C 2003 219 2182 -39 2464 -39 
C 2598 -39 2938 51 2938 563 
L 2938 926 
L 2822 926 
L 2822 557 
C 2822 161 2650 109 2566 109 
C 2304 109 2304 446 2304 732 
L 2304 1656 
z
M 1965 887 
C 1965 323 1568 38 1216 38 
C 896 38 646 278 646 576 
C 646 771 730 1114 1101 1322 
C 1408 1497 1760 1523 1965 1536 
L 1965 887 
z
" transform="scale(0.015625)"/>
       <path id="CMR17-64" d="M 1869 4345 
L 1869 4179 
C 2246 4179 2304 4141 2304 3843 
L 2304 2371 
C 2278 2403 2016 2816 1498 2816 
C 845 2816 211 2228 211 1376 
C 211 529 806 -64 1434 -64 
C 1978 -64 2259 361 2291 406 
L 2291 -64 
L 3066 -13 
L 3066 154 
C 2688 154 2630 193 2630 503 
L 2630 4416 
L 1869 4345 
z
M 2291 762 
C 2291 568 2176 393 2029 264 
C 1811 70 1594 38 1472 38 
C 1286 38 621 135 621 1369 
C 621 2636 1363 2713 1530 2713 
C 1824 2713 2061 2545 2208 2313 
C 2291 2177 2291 2157 2291 2041 
L 2291 762 
z
" transform="scale(0.015625)"/>
       <path id="CMR17-6f" d="M 2758 1356 
C 2758 2176 2163 2816 1466 2816 
C 768 2816 173 2176 173 1356 
C 173 550 768 -64 1466 -64 
C 2163 -64 2758 550 2758 1356 
z
M 1466 51 
C 1165 51 909 230 762 480 
C 602 768 582 1126 582 1408 
C 582 1676 595 2009 762 2297 
C 890 2508 1139 2713 1466 2713 
C 1754 2713 1997 2553 2150 2329 
C 2349 2028 2349 1606 2349 1408 
C 2349 1158 2336 774 2163 467 
C 1984 172 1709 51 1466 51 
z
" transform="scale(0.015625)"/>
       <path id="CMR17-75" d="M 1882 2745 
L 1882 2579 
C 2259 2579 2317 2540 2317 2229 
L 2317 1053 
C 2317 510 2029 38 1555 38 
C 1030 38 986 355 986 691 
L 986 2816 
L 211 2745 
L 211 2579 
C 467 2579 640 2579 646 2320 
L 646 1079 
C 646 646 646 368 813 187 
C 896 103 1056 -64 1517 -64 
C 2061 -64 2272 400 2323 536 
L 2330 536 
L 2330 -64 
L 3091 -13 
L 3091 154 
C 2714 154 2656 193 2656 503 
L 2656 2816 
L 1882 2745 
z
" transform="scale(0.015625)"/>
       <path id="CMR17-74" d="M 966 2585 
L 1862 2585 
L 1862 2752 
L 966 2752 
L 966 3968 
L 851 3968 
C 838 3292 614 2700 70 2687 
L 70 2585 
L 627 2585 
L 627 778 
C 627 655 627 -64 1370 -64 
C 1747 -64 1965 308 1965 784 
L 1965 1151 
L 1850 1151 
L 1850 790 
C 1850 347 1677 51 1408 51 
C 1222 51 966 179 966 765 
L 966 2585 
z
" transform="scale(0.015625)"/>
       <path id="CMR17-5b" d="M 1504 -1600 
L 1504 -1376 
L 902 -1376 
L 902 4575 
L 1504 4575 
L 1504 4800 
L 678 4800 
L 678 -1600 
L 1504 -1600 
z
" transform="scale(0.015625)"/>
       <path id="CMR17-4d" d="M 1338 4249 
C 1299 4345 1293 4352 1158 4352 
L 339 4352 
L 339 4185 
C 781 4185 851 4185 851 3898 
L 851 624 
C 851 465 851 166 339 166 
L 339 0 
C 486 12 755 12 915 12 
C 1075 12 1344 12 1491 0 
L 1491 166 
C 979 166 979 465 979 624 
L 979 4159 
L 986 4159 
L 2490 102 
C 2515 38 2528 0 2579 0 
C 2630 0 2643 38 2669 102 
L 4186 4191 
L 4192 4191 
L 4192 453 
C 4192 166 4122 166 3680 166 
L 3680 0 
C 3853 12 4198 12 4384 12 
C 4570 12 4922 12 5094 0 
L 5094 166 
C 4653 166 4582 166 4582 453 
L 4582 3898 
C 4582 4185 4653 4185 5094 4185 
L 5094 4352 
L 4282 4352 
C 4147 4352 4141 4345 4102 4249 
L 2720 516 
L 1338 4249 
z
" transform="scale(0.015625)"/>
       <path id="CMR17-56" d="M 3776 3762 
C 3834 3903 3936 4179 4365 4185 
L 4365 4352 
C 4218 4339 4051 4339 3891 4339 
C 3738 4339 3475 4339 3328 4352 
L 3328 4185 
C 3648 4166 3661 3942 3661 3903 
C 3661 3833 3642 3788 3622 3737 
L 2362 448 
L 1043 3903 
C 1024 3948 1011 3980 1011 4012 
C 1011 4185 1267 4185 1402 4185 
L 1402 4352 
C 1197 4339 896 4339 685 4339 
C 518 4339 218 4339 64 4352 
L 64 4185 
C 435 4185 506 4160 582 3955 
L 2106 -26 
C 2138 -116 2144 -128 2214 -128 
C 2285 -128 2291 -116 2323 -26 
L 3776 3762 
z
" transform="scale(0.015625)"/>
       <path id="CMR17-5d" d="M 915 4800 
L 90 4800 
L 90 4575 
L 691 4575 
L 691 -1376 
L 90 -1376 
L 90 -1600 
L 915 -1600 
L 915 4800 
z
" transform="scale(0.015625)"/>
      </defs>
      <use xlink:href="#CMR17-45" transform="scale(0.996264)"/>
      <use xlink:href="#CMR17-6e" transform="translate(62.586301 0)scale(0.996264)"/>
      <use xlink:href="#CMR17-65" transform="translate(113.48167 0)scale(0.996264)"/>
      <use xlink:href="#CMR17-72" transform="translate(153.967331 0)scale(0.996264)"/>
      <use xlink:href="#CMR17-67" transform="translate(189.248099 0)scale(0.996264)"/>
      <use xlink:href="#CMR17-69" transform="translate(234.938576 0)scale(0.996264)"/>
      <use xlink:href="#CMR17-61" transform="translate(259.809634 0)scale(0.996264)"/>
      <use xlink:href="#CMR17-64" transform="translate(335.576078 0)scale(0.996264)"/>
      <use xlink:href="#CMR17-6f" transform="translate(386.471447 0)scale(0.996264)"/>
      <use xlink:href="#CMR17-6e" transform="translate(462.237891 0)scale(0.996264)"/>
      <use xlink:href="#CMR17-65" transform="translate(513.133261 0)scale(0.996264)"/>
      <use xlink:href="#CMR17-75" transform="translate(553.618921 0)scale(0.996264)"/>
      <use xlink:href="#CMR17-74" transform="translate(604.514291 0)scale(0.996264)"/>
      <use xlink:href="#CMR17-72" transform="translate(639.795059 0)scale(0.996264)"/>
      <use xlink:href="#CMR17-69" transform="translate(675.075826 0)scale(0.996264)"/>
      <use xlink:href="#CMR17-6e" transform="translate(699.946885 0)scale(0.996264)"/>
      <use xlink:href="#CMR17-6f" transform="translate(750.842255 0)scale(0.996264)"/>
      <use xlink:href="#CMR17-5b" transform="translate(826.608698 0)scale(0.996264)"/>
      <use xlink:href="#CMR17-4d" transform="translate(851.479757 0)scale(0.996264)"/>
      <use xlink:href="#CMR17-65" transform="translate(936.166697 0)scale(0.996264)"/>
      <use xlink:href="#CMR17-56" transform="translate(976.652358 0)scale(0.996264)"/>
      <use xlink:href="#CMR17-5d" transform="translate(1045.724788 0)scale(0.996264)"/>
     </g>
    </g>
   </g>
   <g id="matplotlib.axis_2">
    <g id="ytick_1">
     <g id="line2d_9">
      <defs>
       <path id="m53e647ffa3" d="M 0 0 
L -3.5 0 
" style="stroke: #000000; stroke-width: 0.8"/>
      </defs>
      <g>
       <use xlink:href="#m53e647ffa3" x="49.928035" y="353.196997" style="stroke: #000000; stroke-width: 0.8"/>
      </g>
     </g>
     <g id="text_10">
      <!-- $\mathdefault{0}$ -->
      <g transform="translate(37.075045 357.348087)scale(0.12 -0.12)">
       <use xlink:href="#CMR17-30" transform="scale(0.996264)"/>
      </g>
     </g>
    </g>
    <g id="ytick_2">
     <g id="line2d_10">
      <g>
       <use xlink:href="#m53e647ffa3" x="49.928035" y="285.521927" style="stroke: #000000; stroke-width: 0.8"/>
      </g>
     </g>
     <g id="text_11">
      <!-- $\mathdefault{200}$ -->
      <g transform="translate(25.369064 289.673017)scale(0.12 -0.12)">
       <use xlink:href="#CMR17-32" transform="scale(0.996264)"/>
       <use xlink:href="#CMR17-30" transform="translate(45.690477 0)scale(0.996264)"/>
       <use xlink:href="#CMR17-30" transform="translate(91.380954 0)scale(0.996264)"/>
      </g>
     </g>
    </g>
    <g id="ytick_3">
     <g id="line2d_11">
      <g>
       <use xlink:href="#m53e647ffa3" x="49.928035" y="217.846857" style="stroke: #000000; stroke-width: 0.8"/>
      </g>
     </g>
     <g id="text_12">
      <!-- $\mathdefault{400}$ -->
      <g transform="translate(25.369064 221.997947)scale(0.12 -0.12)">
       <use xlink:href="#CMR17-34" transform="scale(0.996264)"/>
       <use xlink:href="#CMR17-30" transform="translate(45.690477 0)scale(0.996264)"/>
       <use xlink:href="#CMR17-30" transform="translate(91.380954 0)scale(0.996264)"/>
      </g>
     </g>
    </g>
    <g id="ytick_4">
     <g id="line2d_12">
      <g>
       <use xlink:href="#m53e647ffa3" x="49.928035" y="150.171787" style="stroke: #000000; stroke-width: 0.8"/>
      </g>
     </g>
     <g id="text_13">
      <!-- $\mathdefault{600}$ -->
      <g transform="translate(25.369064 154.322877)scale(0.12 -0.12)">
       <use xlink:href="#CMR17-36" transform="scale(0.996264)"/>
       <use xlink:href="#CMR17-30" transform="translate(45.690477 0)scale(0.996264)"/>
       <use xlink:href="#CMR17-30" transform="translate(91.380954 0)scale(0.996264)"/>
      </g>
     </g>
    </g>
    <g id="ytick_5">
     <g id="line2d_13">
      <g>
       <use xlink:href="#m53e647ffa3" x="49.928035" y="82.496717" style="stroke: #000000; stroke-width: 0.8"/>
      </g>
     </g>
     <g id="text_14">
      <!-- $\mathdefault{800}$ -->
      <g transform="translate(25.369064 86.647807)scale(0.12 -0.12)">
       <defs>
        <path id="CMR17-38" d="M 1741 2289 
C 2144 2494 2554 2803 2554 3298 
C 2554 3884 1990 4224 1472 4224 
C 890 4224 378 3800 378 3215 
C 378 3054 416 2777 666 2533 
C 730 2469 998 2276 1171 2154 
C 883 2006 211 1652 211 945 
C 211 282 838 -128 1459 -128 
C 2144 -128 2720 366 2720 1022 
C 2720 1607 2330 1877 2074 2051 
L 1741 2289 
z
M 902 2855 
C 851 2887 595 3086 595 3388 
C 595 3781 998 4076 1459 4076 
C 1965 4076 2336 3716 2336 3298 
C 2336 2700 1670 2359 1638 2359 
C 1632 2359 1626 2359 1574 2398 
L 902 2855 
z
M 2080 1536 
C 2176 1466 2483 1253 2483 861 
C 2483 385 2010 25 1472 25 
C 890 25 448 443 448 951 
C 448 1459 838 1884 1280 2083 
L 2080 1536 
z
" transform="scale(0.015625)"/>
       </defs>
       <use xlink:href="#CMR17-38" transform="scale(0.996264)"/>
       <use xlink:href="#CMR17-30" transform="translate(45.690477 0)scale(0.996264)"/>
       <use xlink:href="#CMR17-30" transform="translate(91.380954 0)scale(0.996264)"/>
      </g>
     </g>
    </g>
    <g id="text_15">
     <!-- Eventos -->
     <g transform="translate(18.269588 216.930987)rotate(-90)scale(0.16 -0.16)">
      <defs>
       <path id="CMR17-76" d="M 2502 2173 
C 2560 2315 2662 2572 3034 2585 
L 3034 2752 
C 2912 2745 2752 2739 2630 2739 
C 2496 2739 2285 2739 2157 2752 
L 2157 2585 
C 2317 2572 2406 2495 2406 2328 
C 2406 2270 2406 2257 2368 2167 
L 1664 379 
L 902 2308 
C 864 2392 864 2405 864 2431 
C 864 2585 1075 2585 1171 2585 
L 1171 2752 
C 1018 2739 736 2739 576 2739 
C 403 2739 205 2739 64 2752 
L 64 2585 
C 307 2585 442 2585 518 2386 
L 1446 44 
C 1485 -52 1491 -64 1549 -64 
C 1606 -64 1613 -52 1651 44 
L 2502 2173 
z
" transform="scale(0.015625)"/>
       <path id="CMR17-73" d="M 1978 2688 
C 1978 2803 1971 2809 1933 2809 
C 1907 2809 1901 2803 1824 2707 
C 1805 2681 1747 2617 1728 2592 
C 1523 2809 1235 2816 1126 2816 
C 416 2816 160 2444 160 2073 
C 160 1497 813 1363 998 1324 
C 1402 1241 1542 1216 1677 1100 
C 1760 1024 1901 883 1901 652 
C 1901 384 1747 38 1158 38 
C 602 38 403 460 288 1024 
C 269 1113 269 1120 218 1120 
C 166 1120 160 1113 160 985 
L 160 64 
C 160 -52 166 -58 205 -58 
C 237 -58 243 -52 275 0 
C 314 57 410 211 448 275 
C 576 102 800 -64 1158 -64 
C 1792 -64 2131 281 2131 780 
C 2131 1107 1958 1280 1875 1356 
C 1683 1555 1459 1600 1190 1651 
C 838 1728 390 1817 390 2208 
C 390 2374 480 2726 1126 2726 
C 1811 2726 1850 2086 1862 1881 
C 1869 1849 1901 1843 1920 1843 
C 1978 1843 1978 1862 1978 1971 
L 1978 2688 
z
" transform="scale(0.015625)"/>
      </defs>
      <use xlink:href="#CMR17-45" transform="scale(0.996264)"/>
      <use xlink:href="#CMR17-76" transform="translate(62.586301 0)scale(0.996264)"/>
      <use xlink:href="#CMR17-65" transform="translate(108.276762 0)scale(0.996264)"/>
      <use xlink:href="#CMR17-6e" transform="translate(148.762423 0)scale(0.996264)"/>
      <use xlink:href="#CMR17-74" transform="translate(197.055339 0)scale(0.996264)"/>
      <use xlink:href="#CMR17-6f" transform="translate(232.336107 0)scale(0.996264)"/>
      <use xlink:href="#CMR17-73" transform="translate(278.026584 0)scale(0.996264)"/>
     </g>
    </g>
   </g>
   <g id="patch_3">
    <path d="M 49.928035 353.196997 
L 49.928035 353.196997 
L 65.870892 353.196997 
L 65.870892 352.520246 
L 81.81375 352.520246 
L 81.81375 336.616605 
L 97.756607 336.616605 
L 97.756607 302.102319 
L 113.699464 302.102319 
L 113.699464 253.714644 
L 129.642321 253.714644 
L 129.642321 199.912963 
L 145.585178 199.912963 
L 145.585178 128.177389 
L 161.528035 128.177389 
L 161.528035 99.75386 
L 177.470892 99.75386 
L 177.470892 88.249098 
L 193.41375 88.249098 
L 193.41375 76.40596 
L 209.356607 76.40596 
L 209.356607 42.568425 
L 225.299464 42.568425 
L 225.299464 57.795316 
L 241.242321 57.795316 
L 241.242321 82.835092 
L 257.185178 82.835092 
L 257.185178 106.859742 
L 273.128035 106.859742 
L 273.128035 125.470386 
L 289.070892 125.470386 
L 289.070892 156.600918 
L 305.01375 156.600918 
L 305.01375 188.069826 
L 320.956607 188.069826 
L 320.956607 222.584112 
L 336.899464 222.584112 
L 336.899464 230.366745 
L 352.842321 230.366745 
L 352.842321 267.588033 
L 368.785178 267.588033 
L 368.785178 274.017165 
L 384.728035 274.017165 
L 384.728035 296.011563 
L 400.670892 296.011563 
L 400.670892 300.072067 
L 416.61375 300.072067 
L 416.61375 314.283831 
L 432.556607 314.283831 
L 432.556607 325.450218 
L 448.499464 325.450218 
L 448.499464 329.849098 
L 464.442321 329.849098 
L 464.442321 340.000358 
L 480.385178 340.000358 
L 480.385178 340.000358 
L 496.328035 340.000358 
L 496.328035 343.722487 
L 512.270892 343.722487 
L 512.270892 346.42949 
L 528.21375 346.42949 
L 528.21375 345.752739 
L 544.156607 345.752739 
L 544.156607 349.136493 
L 560.099464 349.136493 
L 560.099464 350.828369 
L 576.042321 350.828369 
L 576.042321 350.151619 
L 591.985178 350.151619 
L 591.985178 352.520246 
L 607.928035 352.520246 
L 607.928035 351.166745 
L 621.981026 351.166745 
" clip-path="url(#p902e7c6aca)" style="fill: none; stroke: #000000; stroke-width: 2; stroke-linejoin: miter"/>
   </g>
   <g id="line2d_14">
    <path clip-path="url(#p902e7c6aca)" style="fill: none; stroke: #000000; stroke-width: 2; stroke-linecap: square"/>
   </g>
   <g id="patch_4">
    <path d="M 49.928035 353.196997 
L 49.928035 353.196997 
L 65.870892 353.196997 
L 65.870892 353.196997 
L 81.81375 353.196997 
L 81.81375 352.858621 
L 97.756607 352.858621 
L 97.756607 350.489994 
L 113.699464 350.489994 
L 113.699464 347.444616 
L 129.642321 347.444616 
L 129.642321 337.631731 
L 145.585178 337.631731 
L 145.585178 325.788593 
L 161.528035 325.788593 
L 161.528035 320.036212 
L 177.470892 320.036212 
L 177.470892 304.809322 
L 193.41375 304.809322 
L 193.41375 296.349938 
L 209.356607 296.349938 
L 209.356607 275.370666 
L 225.299464 275.370666 
L 225.299464 281.461423 
L 241.242321 281.461423 
L 241.242321 272.663663 
L 257.185178 272.663663 
L 257.185178 275.370666 
L 273.128035 275.370666 
L 273.128035 273.678789 
L 289.070892 273.678789 
L 289.070892 286.198677 
L 305.01375 286.198677 
L 305.01375 301.763944 
L 320.956607 301.763944 
L 320.956607 299.733691 
L 336.899464 299.733691 
L 336.899464 311.915204 
L 352.842321 311.915204 
L 352.842321 315.975708 
L 368.785178 315.975708 
L 368.785178 316.652459 
L 384.728035 316.652459 
L 384.728035 332.5561 
L 400.670892 332.5561 
L 400.670892 332.5561 
L 416.61375 332.5561 
L 416.61375 334.586353 
L 432.556607 334.586353 
L 432.556607 342.03061 
L 448.499464 342.03061 
L 448.499464 343.722487 
L 464.442321 343.722487 
L 464.442321 348.798117 
L 480.385178 348.798117 
L 480.385178 345.752739 
L 496.328035 345.752739 
L 496.328035 347.782991 
L 512.270892 347.782991 
L 512.270892 349.136493 
L 528.21375 349.136493 
L 528.21375 348.121367 
L 544.156607 348.121367 
L 544.156607 350.489994 
L 560.099464 350.489994 
L 560.099464 351.843495 
L 576.042321 351.843495 
L 576.042321 351.843495 
L 591.985178 351.843495 
L 591.985178 352.858621 
L 607.928035 352.858621 
L 607.928035 352.520246 
L 621.981026 352.520246 
" clip-path="url(#p902e7c6aca)" style="fill: none; stroke: #dc143c; stroke-width: 2; stroke-linejoin: miter"/>
   </g>
   <g id="line2d_15">
    <path clip-path="url(#p902e7c6aca)" style="fill: none; stroke: #dc143c; stroke-width: 2; stroke-linecap: square"/>
   </g>
   <g id="patch_5">
    <path d="M 49.928035 353.196997 
L 49.928035 353.196997 
L 65.870892 353.196997 
L 65.870892 352.520246 
L 81.81375 352.520246 
L 81.81375 336.95498 
L 97.756607 336.95498 
L 97.756607 305.147697 
L 113.699464 305.147697 
L 113.699464 260.143775 
L 129.642321 260.143775 
L 129.642321 215.816605 
L 145.585178 215.816605 
L 145.585178 157.277669 
L 161.528035 157.277669 
L 161.528035 133.253019 
L 177.470892 133.253019 
L 177.470892 136.975148 
L 193.41375 136.975148 
L 193.41375 133.253019 
L 209.356607 133.253019 
L 209.356607 120.733131 
L 225.299464 120.733131 
L 225.299464 129.53089 
L 241.242321 129.53089 
L 241.242321 163.706801 
L 257.185178 163.706801 
L 257.185178 184.686072 
L 273.128035 184.686072 
L 273.128035 204.988593 
L 289.070892 204.988593 
L 289.070892 223.599238 
L 305.01375 223.599238 
L 305.01375 239.502879 
L 320.956607 239.502879 
L 320.956607 276.047417 
L 336.899464 276.047417 
L 336.899464 271.648537 
L 352.842321 271.648537 
L 352.842321 304.809322 
L 368.785178 304.809322 
L 368.785178 310.561703 
L 384.728035 310.561703 
L 384.728035 316.652459 
L 400.670892 316.652459 
L 400.670892 320.712963 
L 416.61375 320.712963 
L 416.61375 332.894476 
L 432.556607 332.894476 
L 432.556607 336.616605 
L 448.499464 336.616605 
L 448.499464 339.323607 
L 464.442321 339.323607 
L 464.442321 344.399238 
L 480.385178 344.399238 
L 480.385178 347.444616 
L 496.328035 347.444616 
L 496.328035 349.136493 
L 512.270892 349.136493 
L 512.270892 350.489994 
L 528.21375 350.489994 
L 528.21375 350.828369 
L 544.156607 350.828369 
L 544.156607 351.843495 
L 560.099464 351.843495 
L 560.099464 352.181871 
L 576.042321 352.181871 
L 576.042321 351.50512 
L 591.985178 351.50512 
L 591.985178 352.858621 
L 607.928035 352.858621 
L 607.928035 351.843495 
L 621.981026 351.843495 
" clip-path="url(#p902e7c6aca)" style="fill: none; stroke: #008080; stroke-width: 2; stroke-linejoin: miter"/>
   </g>
   <g id="line2d_16">
    <path clip-path="url(#p902e7c6aca)" style="fill: none; stroke: #008080; stroke-width: 2; stroke-linecap: square"/>
   </g>
   <g id="patch_6">
    <path d="M 49.928035 353.196997 
L 49.928035 353.196997 
L 65.870892 353.196997 
L 65.870892 353.196997 
L 81.81375 353.196997 
L 81.81375 353.196997 
L 97.756607 353.196997 
L 97.756607 352.858621 
L 113.699464 352.858621 
L 113.699464 352.520246 
L 129.642321 352.520246 
L 129.642321 352.858621 
L 145.585178 352.858621 
L 145.585178 351.50512 
L 161.528035 351.50512 
L 161.528035 352.858621 
L 177.470892 352.858621 
L 177.470892 352.858621 
L 193.41375 352.858621 
L 193.41375 353.196997 
L 209.356607 353.196997 
L 209.356607 352.858621 
L 225.299464 352.858621 
L 225.299464 353.196997 
L 241.242321 353.196997 
L 241.242321 352.858621 
L 257.185178 352.858621 
L 257.185178 353.196997 
L 273.128035 353.196997 
L 273.128035 353.196997 
L 289.070892 353.196997 
L 289.070892 353.196997 
L 305.01375 353.196997 
L 305.01375 353.196997 
L 320.956607 353.196997 
L 320.956607 353.196997 
L 336.899464 353.196997 
L 336.899464 353.196997 
L 352.842321 353.196997 
L 352.842321 353.196997 
L 368.785178 353.196997 
L 368.785178 353.196997 
L 384.728035 353.196997 
L 384.728035 353.196997 
L 400.670892 353.196997 
L 400.670892 353.196997 
L 416.61375 353.196997 
L 416.61375 353.196997 
L 432.556607 353.196997 
L 432.556607 353.196997 
L 448.499464 353.196997 
L 448.499464 353.196997 
L 464.442321 353.196997 
L 464.442321 353.196997 
L 480.385178 353.196997 
L 480.385178 353.196997 
L 496.328035 353.196997 
L 496.328035 353.196997 
L 512.270892 353.196997 
L 512.270892 353.196997 
L 528.21375 353.196997 
L 528.21375 353.196997 
L 544.156607 353.196997 
L 544.156607 353.196997 
L 560.099464 353.196997 
L 560.099464 353.196997 
L 576.042321 353.196997 
L 576.042321 353.196997 
L 591.985178 353.196997 
L 591.985178 353.196997 
L 607.928035 353.196997 
L 607.928035 353.196997 
L 621.981026 353.196997 
" clip-path="url(#p902e7c6aca)" style="fill: none; stroke: #ffa500; stroke-width: 2; stroke-linejoin: miter"/>
   </g>
   <g id="line2d_17">
    <path clip-path="url(#p902e7c6aca)" style="fill: none; stroke: #ffa500; stroke-width: 2; stroke-linecap: square"/>
   </g>
   <g id="patch_7">
    <path d="M 49.928035 353.196997 
L 49.928035 27.036997 
" style="fill: none; stroke: #000000; stroke-width: 0.8; stroke-linejoin: miter; stroke-linecap: square"/>
   </g>
   <g id="patch_8">
    <path d="M 607.928035 353.196997 
L 607.928035 27.036997 
" style="fill: none; stroke: #000000; stroke-width: 0.8; stroke-linejoin: miter; stroke-linecap: square"/>
   </g>
   <g id="patch_9">
    <path d="M 49.928035 353.196997 
L 607.928035 353.196997 
" style="fill: none; stroke: #000000; stroke-width: 0.8; stroke-linejoin: miter; stroke-linecap: square"/>
   </g>
   <g id="patch_10">
    <path d="M 49.928035 27.036997 
L 607.928035 27.036997 
" style="fill: none; stroke: #000000; stroke-width: 0.8; stroke-linejoin: miter; stroke-linecap: square"/>
   </g>
   <g id="text_16">
    <!-- Espectro de detecção Super-k para supernova a 0 Kpc -->
    <g transform="translate(112.594131 21.036997)scale(0.2 -0.2)">
     <defs>
      <path id="CMR17-70" d="M 1408 -1114 
C 998 -1114 973 -1088 973 -834 
L 973 380 
C 1158 109 1427 -64 1766 -64 
C 2406 -64 3053 503 3053 1382 
C 3053 2196 2496 2816 1837 2816 
C 1453 2816 1139 2603 960 2345 
L 960 2816 
L 198 2745 
L 198 2577 
C 576 2577 634 2539 634 2228 
L 634 -834 
C 634 -1081 608 -1114 198 -1114 
L 198 -1280 
C 352 -1268 634 -1268 800 -1268 
C 966 -1268 1254 -1268 1408 -1280 
L 1408 -1114 
z
M 973 2015 
C 973 2106 973 2241 1222 2481 
C 1254 2506 1472 2700 1792 2700 
C 2259 2700 2643 2112 2643 1376 
C 2643 639 2234 38 1728 38 
C 1498 38 1248 148 1056 451 
C 973 594 973 632 973 736 
L 973 2015 
z
" transform="scale(0.015625)"/>
      <path id="CMR17-63" d="M 2234 2240 
C 2112 2240 1933 2240 1933 2015 
C 1933 1836 2080 1785 2163 1785 
C 2208 1785 2394 1804 2394 2028 
C 2394 2476 1958 2816 1466 2816 
C 787 2816 211 2201 211 1379 
C 211 521 813 -64 1466 -64 
C 2259 -64 2458 676 2458 747 
C 2458 773 2451 792 2406 792 
C 2362 792 2355 786 2330 702 
C 2163 180 1798 51 1523 51 
C 1114 51 621 431 621 1385 
C 621 2358 1094 2700 1472 2700 
C 1722 2700 2093 2582 2234 2240 
z
" transform="scale(0.015625)"/>
      <path id="CMR17-18" d="M 1632 -128 
L 1293 -128 
L 1293 -442 
C 1574 -448 1792 -567 1792 -781 
C 1792 -1090 1357 -1114 966 -1114 
L 794 -1114 
L 794 -1216 
L 1037 -1216 
C 1056 -1216 1472 -1216 1734 -1146 
C 2042 -1072 2131 -936 2131 -775 
C 2131 -556 1939 -423 1632 -372 
L 1632 -128 
z
" transform="scale(0.015625)"/>
      <path id="CMR17-7e" d="M 2400 4198 
C 2182 3987 2061 3865 1862 3865 
C 1722 3865 1626 3936 1491 4032 
C 1363 4121 1261 4198 1120 4198 
C 890 4198 730 4012 461 3718 
L 531 3648 
C 749 3859 870 3980 1069 3980 
C 1210 3980 1306 3910 1440 3814 
C 1568 3724 1670 3648 1811 3648 
C 2042 3648 2202 3833 2470 4128 
L 2400 4198 
z
" transform="scale(0.015625)"/>
      <path id="CMR17-53" d="M 2803 4351 
C 2803 4467 2797 4473 2758 4473 
C 2720 4473 2707 4447 2682 4390 
L 2490 3965 
C 2246 4320 1875 4480 1472 4480 
C 819 4480 294 3958 294 3301 
C 294 3101 339 2817 557 2546 
C 794 2250 1018 2198 1530 2063 
C 1722 2011 2042 1927 2106 1901 
C 2470 1747 2662 1360 2662 999 
C 2662 534 2336 38 1779 38 
C 1094 38 454 425 410 1328 
C 403 1431 397 1437 352 1437 
C 301 1437 294 1431 294 1302 
L 294 0 
C 294 -116 301 -122 339 -122 
C 384 -122 397 -90 486 109 
C 493 128 493 141 614 386 
C 934 -39 1472 -128 1779 -128 
C 2477 -128 2970 457 2970 1141 
C 2970 1476 2848 1734 2778 1850 
C 2509 2263 2221 2340 1914 2417 
C 1869 2437 1856 2437 1498 2527 
C 1152 2617 1005 2662 845 2836 
C 666 3036 602 3243 602 3449 
C 602 3868 934 4326 1478 4326 
C 2157 4326 2579 3842 2675 3036 
C 2694 2920 2701 2914 2746 2914 
C 2803 2914 2803 2933 2803 3043 
L 2803 4351 
z
" transform="scale(0.015625)"/>
      <path id="CMR17-2d" d="M 1632 1254 
L 1632 1536 
L 26 1536 
L 26 1254 
L 1632 1254 
z
" transform="scale(0.015625)"/>
      <path id="CMR17-6b" d="M 1670 1679 
C 1664 1692 1632 1730 1632 1749 
C 1632 1762 2086 2175 2144 2226 
C 2509 2532 2739 2563 2906 2570 
L 2906 2735 
C 2867 2735 2854 2735 2848 2729 
L 2534 2722 
C 2355 2722 2080 2722 1907 2735 
L 1907 2570 
C 1997 2563 2061 2513 2061 2423 
C 2061 2296 1933 2175 1926 2175 
L 960 1298 
L 960 4416 
L 198 4345 
L 198 4179 
C 576 4179 634 4141 634 3835 
L 634 439 
C 634 198 608 166 198 166 
L 198 0 
C 352 12 634 12 794 12 
C 954 12 1235 12 1389 0 
L 1389 166 
C 979 166 954 191 954 439 
L 954 1139 
L 1395 1540 
L 2042 586 
C 2118 471 2182 382 2182 299 
C 2182 185 2067 166 1990 166 
L 1990 0 
C 2144 12 2419 12 2579 12 
C 2694 12 2931 6 3040 0 
L 3040 166 
C 2739 166 2669 223 2477 503 
L 1670 1679 
z
" transform="scale(0.015625)"/>
      <path id="CMR17-4b" d="M 2362 2669 
L 3469 3771 
C 3699 3994 3942 4172 4301 4185 
L 4301 4352 
C 4173 4345 4013 4339 3885 4339 
C 3712 4339 3411 4339 3245 4352 
L 3245 4185 
C 3411 4172 3437 4057 3437 4013 
C 3437 3968 3411 3898 3386 3860 
L 1261 1739 
L 1261 3898 
C 1261 4185 1331 4185 1773 4185 
L 1773 4352 
C 1587 4339 1248 4339 1050 4339 
C 851 4339 512 4339 326 4352 
L 326 4185 
C 768 4185 838 4185 838 3898 
L 838 453 
C 838 166 768 166 326 166 
L 326 0 
C 512 12 851 12 1050 12 
C 1248 12 1587 12 1773 0 
L 1773 166 
C 1331 166 1261 166 1261 453 
L 1261 1580 
L 2080 2389 
L 3290 542 
C 3328 478 3373 395 3373 332 
C 3373 166 3194 166 3110 166 
L 3110 0 
C 3315 12 3610 12 3821 12 
C 3974 12 4237 12 4384 0 
L 4384 166 
C 4077 166 3981 204 3789 497 
L 2362 2669 
z
" transform="scale(0.015625)"/>
     </defs>
     <use xlink:href="#CMR17-45" transform="scale(0.996264)"/>
     <use xlink:href="#CMR17-73" transform="translate(62.586301 0)scale(0.996264)"/>
     <use xlink:href="#CMR17-70" transform="translate(98.387638 0)scale(0.996264)"/>
     <use xlink:href="#CMR17-65" transform="translate(151.885447 0)scale(0.996264)"/>
     <use xlink:href="#CMR17-63" transform="translate(192.371107 0)scale(0.996264)"/>
     <use xlink:href="#CMR17-74" transform="translate(232.856768 0)scale(0.996264)"/>
     <use xlink:href="#CMR17-72" transform="translate(268.137535 0)scale(0.996264)"/>
     <use xlink:href="#CMR17-6f" transform="translate(303.418303 0)scale(0.996264)"/>
     <use xlink:href="#CMR17-64" transform="translate(379.184747 0)scale(0.996264)"/>
     <use xlink:href="#CMR17-65" transform="translate(430.080116 0)scale(0.996264)"/>
     <use xlink:href="#CMR17-64" transform="translate(500.641743 0)scale(0.996264)"/>
     <use xlink:href="#CMR17-65" transform="translate(551.537113 0)scale(0.996264)"/>
     <use xlink:href="#CMR17-74" transform="translate(592.022773 0)scale(0.996264)"/>
     <use xlink:href="#CMR17-65" transform="translate(627.303541 0)scale(0.996264)"/>
     <use xlink:href="#CMR17-63" transform="translate(667.789202 0)scale(0.996264)"/>
     <use xlink:href="#CMR17-18" transform="translate(708.274862 0)scale(0.996264)"/>
     <use xlink:href="#CMR17-63" transform="translate(708.274862 0)scale(0.996264)"/>
     <use xlink:href="#CMR17-7e" transform="translate(748.760523 0)scale(0.996264)"/>
     <use xlink:href="#CMR17-61" transform="translate(748.760523 0)scale(0.996264)"/>
     <use xlink:href="#CMR17-6f" transform="translate(794.451 0)scale(0.996264)"/>
     <use xlink:href="#CMR17-53" transform="translate(870.217443 0)scale(0.996264)"/>
     <use xlink:href="#CMR17-75" transform="translate(921.112813 0)scale(0.996264)"/>
     <use xlink:href="#CMR17-70" transform="translate(972.008183 0)scale(0.996264)"/>
     <use xlink:href="#CMR17-65" transform="translate(1025.505991 0)scale(0.996264)"/>
     <use xlink:href="#CMR17-72" transform="translate(1065.991652 0)scale(0.996264)"/>
     <use xlink:href="#CMR17-2d" transform="translate(1101.27242 0)scale(0.996264)"/>
     <use xlink:href="#CMR17-6b" transform="translate(1131.348386 0)scale(0.996264)"/>
     <use xlink:href="#CMR17-70" transform="translate(1209.717268 0)scale(0.996264)"/>
     <use xlink:href="#CMR17-61" transform="translate(1260.612638 0)scale(0.996264)"/>
     <use xlink:href="#CMR17-72" transform="translate(1306.303115 0)scale(0.996264)"/>
     <use xlink:href="#CMR17-61" transform="translate(1341.583883 0)scale(0.996264)"/>
     <use xlink:href="#CMR17-73" transform="translate(1417.350326 0)scale(0.996264)"/>
     <use xlink:href="#CMR17-75" transform="translate(1453.151664 0)scale(0.996264)"/>
     <use xlink:href="#CMR17-70" transform="translate(1504.047034 0)scale(0.996264)"/>
     <use xlink:href="#CMR17-65" transform="translate(1557.544842 0)scale(0.996264)"/>
     <use xlink:href="#CMR17-72" transform="translate(1598.030503 0)scale(0.996264)"/>
     <use xlink:href="#CMR17-6e" transform="translate(1633.31127 0)scale(0.996264)"/>
     <use xlink:href="#CMR17-6f" transform="translate(1684.20664 0)scale(0.996264)"/>
     <use xlink:href="#CMR17-76" transform="translate(1727.294663 0)scale(0.996264)"/>
     <use xlink:href="#CMR17-61" transform="translate(1770.382763 0)scale(0.996264)"/>
     <use xlink:href="#CMR17-61" transform="translate(1846.149206 0)scale(0.996264)"/>
     <use xlink:href="#CMR17-30" transform="translate(1921.91565 0)scale(0.996264)"/>
     <use xlink:href="#CMR17-4b" transform="translate(1997.682093 0)scale(0.996264)"/>
     <use xlink:href="#CMR17-70" transform="translate(2069.35687 0)scale(0.996264)"/>
     <use xlink:href="#CMR17-63" transform="translate(2122.854679 0)scale(0.996264)"/>
    </g>
   </g>
   <g id="legend_1">
    <g id="patch_11">
     <path d="M 432.357222 138.889843 
L 598.128035 138.889843 
Q 600.928035 138.889843 600.928035 136.089843 
L 600.928035 36.836997 
Q 600.928035 34.036997 598.128035 34.036997 
L 432.357222 34.036997 
Q 429.557222 34.036997 429.557222 36.836997 
L 429.557222 136.089843 
Q 429.557222 138.889843 432.357222 138.889843 
z
" style="fill: #ffffff; opacity: 0.8; stroke: #cccccc; stroke-linejoin: miter"/>
    </g>
    <g id="text_17">
     <!-- Tipo de neutrino -->
     <g transform="translate(457.363058 50.706585)scale(0.16 -0.16)">
      <defs>
       <path id="CMR17-54" d="M 3981 4332 
L 288 4332 
L 179 2924 
L 294 2924 
C 378 3981 467 4166 1453 4166 
C 1568 4166 1754 4166 1805 4159 
C 1926 4140 1926 4064 1926 3917 
L 1926 465 
C 1926 236 1907 166 1376 166 
L 1197 166 
L 1197 0 
C 1504 6 1824 12 2138 12 
C 2451 12 2771 6 3078 0 
L 3078 166 
L 2899 166 
C 2368 166 2349 236 2349 465 
L 2349 3917 
C 2349 4057 2349 4134 2464 4159 
C 2515 4166 2701 4166 2816 4166 
C 3795 4166 3891 3981 3974 2924 
L 4090 2924 
L 3981 4332 
z
" transform="scale(0.015625)"/>
      </defs>
      <use xlink:href="#CMR17-54" transform="scale(0.996264)"/>
      <use xlink:href="#CMR17-69" transform="translate(66.509881 0)scale(0.996264)"/>
      <use xlink:href="#CMR17-70" transform="translate(91.380939 0)scale(0.996264)"/>
      <use xlink:href="#CMR17-6f" transform="translate(144.878748 0)scale(0.996264)"/>
      <use xlink:href="#CMR17-64" transform="translate(220.645191 0)scale(0.996264)"/>
      <use xlink:href="#CMR17-65" transform="translate(271.540561 0)scale(0.996264)"/>
      <use xlink:href="#CMR17-6e" transform="translate(342.102188 0)scale(0.996264)"/>
      <use xlink:href="#CMR17-65" transform="translate(392.997557 0)scale(0.996264)"/>
      <use xlink:href="#CMR17-75" transform="translate(433.483218 0)scale(0.996264)"/>
      <use xlink:href="#CMR17-74" transform="translate(484.378588 0)scale(0.996264)"/>
      <use xlink:href="#CMR17-72" transform="translate(519.659355 0)scale(0.996264)"/>
      <use xlink:href="#CMR17-69" transform="translate(554.940123 0)scale(0.996264)"/>
      <use xlink:href="#CMR17-6e" transform="translate(579.811182 0)scale(0.996264)"/>
      <use xlink:href="#CMR17-6f" transform="translate(630.706551 0)scale(0.996264)"/>
     </g>
    </g>
    <g id="line2d_18">
     <path d="M 435.157222 66.366833 
L 449.157222 66.366833 
L 463.157222 66.366833 
" style="fill: none; stroke: #000000; stroke-width: 2; stroke-linecap: square"/>
    </g>
    <g id="text_18">
     <!-- Eventos totais (NO) -->
     <g transform="translate(474.357222 71.266833)scale(0.14 -0.14)">
      <defs>
       <path id="CMR17-28" d="M 1958 -1562 
C 1958 -1556 1958 -1543 1939 -1524 
C 1645 -1223 858 -403 858 1596 
C 858 3595 1632 4408 1946 4729 
C 1946 4735 1958 4748 1958 4767 
C 1958 4787 1939 4800 1914 4800 
C 1843 4800 1299 4325 986 3620 
C 666 2909 576 2218 576 1603 
C 576 1141 621 360 1005 -467 
C 1312 -1133 1837 -1600 1914 -1600 
C 1946 -1600 1958 -1588 1958 -1562 
z
" transform="scale(0.015625)"/>
       <path id="CMR17-4e" d="M 1312 4275 
C 1267 4345 1261 4352 1139 4352 
L 326 4352 
L 326 4185 
L 448 4185 
C 704 4185 819 4153 838 4147 
L 838 624 
C 838 465 838 166 326 166 
L 326 0 
C 474 12 742 12 902 12 
C 1062 12 1331 12 1478 0 
L 1478 166 
C 966 166 966 465 966 624 
L 966 4057 
C 1011 4019 1011 4007 1056 3943 
L 3430 76 
C 3475 0 3494 0 3526 0 
C 3590 0 3590 19 3590 140 
L 3590 3726 
C 3590 3885 3590 4185 4102 4185 
L 4102 4352 
C 3955 4339 3686 4339 3526 4339 
C 3366 4339 3098 4339 2950 4352 
L 2950 4185 
C 3462 4185 3462 3885 3462 3726 
L 3462 777 
L 1312 4275 
z
" transform="scale(0.015625)"/>
       <path id="CMR17-4f" d="M 4307 2166 
C 4307 3488 3366 4480 2304 4480 
C 1216 4480 294 3475 294 2166 
C 294 857 1229 -128 2298 -128 
C 3392 -128 4307 876 4307 2166 
z
M 2304 -13 
C 1574 -13 781 722 781 2250 
C 781 3771 1651 4364 2298 4364 
C 2976 4364 3821 3752 3821 2250 
C 3821 696 3008 -13 2304 -13 
z
" transform="scale(0.015625)"/>
       <path id="CMR17-29" d="M 1683 1596 
C 1683 2057 1638 2839 1254 3665 
C 947 4332 422 4800 346 4800 
C 326 4800 301 4793 301 4761 
C 301 4748 307 4742 314 4729 
C 621 4408 1402 3595 1402 1603 
C 1402 -396 627 -1210 314 -1530 
C 307 -1543 301 -1549 301 -1562 
C 301 -1594 326 -1600 346 -1600 
C 416 -1600 960 -1127 1274 -422 
C 1594 289 1683 981 1683 1596 
z
" transform="scale(0.015625)"/>
      </defs>
      <use xlink:href="#CMR17-45" transform="scale(0.996264)"/>
      <use xlink:href="#CMR17-76" transform="translate(62.586301 0)scale(0.996264)"/>
      <use xlink:href="#CMR17-65" transform="translate(108.276762 0)scale(0.996264)"/>
      <use xlink:href="#CMR17-6e" transform="translate(148.762423 0)scale(0.996264)"/>
      <use xlink:href="#CMR17-74" transform="translate(197.055339 0)scale(0.996264)"/>
      <use xlink:href="#CMR17-6f" transform="translate(232.336107 0)scale(0.996264)"/>
      <use xlink:href="#CMR17-73" transform="translate(278.026584 0)scale(0.996264)"/>
      <use xlink:href="#CMR17-74" transform="translate(343.903888 0)scale(0.996264)"/>
      <use xlink:href="#CMR17-6f" transform="translate(379.184655 0)scale(0.996264)"/>
      <use xlink:href="#CMR17-74" transform="translate(424.875133 0)scale(0.996264)"/>
      <use xlink:href="#CMR17-61" transform="translate(460.1559 0)scale(0.996264)"/>
      <use xlink:href="#CMR17-69" transform="translate(505.846377 0)scale(0.996264)"/>
      <use xlink:href="#CMR17-73" transform="translate(530.717436 0)scale(0.996264)"/>
      <use xlink:href="#CMR17-28" transform="translate(596.59474 0)scale(0.996264)"/>
      <use xlink:href="#CMR17-4e" transform="translate(631.875508 0)scale(0.996264)"/>
      <use xlink:href="#CMR17-4f" transform="translate(700.947938 0)scale(0.996264)"/>
      <use xlink:href="#CMR17-29" transform="translate(772.662726 0)scale(0.996264)"/>
     </g>
    </g>
    <g id="line2d_19">
     <path d="M 435.157222 86.653757 
L 449.157222 86.653757 
L 463.157222 86.653757 
" style="fill: none; stroke: #dc143c; stroke-width: 2; stroke-linecap: square"/>
    </g>
    <g id="text_19">
     <!-- $\nu_e$ -->
     <g transform="translate(474.357222 91.553757)scale(0.14 -0.14)">
      <defs>
       <path id="CMMI12-17" d="M 1408 2751 
C 1408 2777 1389 2816 1338 2816 
C 1293 2816 691 2758 595 2751 
C 525 2745 461 2739 461 2623 
C 461 2559 512 2559 602 2559 
C 902 2559 922 2515 922 2445 
C 922 2419 909 2343 902 2317 
L 339 64 
C 339 38 358 0 403 0 
L 538 0 
C 627 0 1600 230 2349 996 
C 3174 1845 3290 2630 3290 2655 
C 3290 2758 3206 2816 3123 2816 
C 2938 2816 2893 2643 2880 2598 
C 2502 1264 1626 472 774 192 
L 1408 2751 
z
" transform="scale(0.015625)"/>
       <path id="CMMI12-65" d="M 1146 1472 
C 1318 1472 1754 1484 2061 1600 
C 2547 1786 2592 2160 2592 2275 
C 2592 2559 2349 2816 1926 2816 
C 1254 2816 288 2205 288 1066 
C 288 400 672 -64 1254 -64 
C 2125 -64 2675 609 2675 691 
C 2675 729 2637 761 2611 761 
C 2592 761 2586 755 2528 698 
C 2118 159 1510 64 1267 64 
C 902 64 710 349 710 818 
C 710 907 710 1066 806 1472 
L 1146 1472 
z
M 838 1600 
C 1114 2591 1722 2687 1926 2687 
C 2208 2687 2400 2520 2400 2275 
C 2400 1600 1376 1600 1107 1600 
L 838 1600 
z
" transform="scale(0.015625)"/>
      </defs>
      <use xlink:href="#CMMI12-17" transform="scale(0.996264)"/>
      <use xlink:href="#CMMI12-65" transform="translate(48.198482 -14.943915)scale(0.697382)"/>
     </g>
    </g>
    <g id="line2d_20">
     <path d="M 435.157222 106.165786 
L 449.157222 106.165786 
L 463.157222 106.165786 
" style="fill: none; stroke: #008080; stroke-width: 2; stroke-linecap: square"/>
    </g>
    <g id="text_20">
     <!-- $\overline{\nu}_e$ -->
     <g transform="translate(474.357222 111.065786)scale(0.14 -0.14)">
      <use xlink:href="#CMMI12-17" transform="scale(0.996264)"/>
      <use xlink:href="#CMMI12-65" transform="translate(54.482793 -14.943915)scale(0.697382)"/>
      <path d="M 0 54.849612 
L 54.482793 54.849612 
L 54.482793 58.834561 
L 0 58.834561 
L 0 54.849612 
z
"/>
     </g>
    </g>
    <g id="line2d_21">
     <path d="M 435.157222 125.677814 
L 449.157222 125.677814 
L 463.157222 125.677814 
" style="fill: none; stroke: #ffa500; stroke-width: 2; stroke-linecap: square"/>
    </g>
    <g id="text_21">
     <!-- $\nu_x$ -->
     <g transform="translate(474.357222 130.577814)scale(0.14 -0.14)">
      <defs>
       <path id="CMMI12-78" d="M 3034 2624 
C 2829 2585 2752 2431 2752 2310 
C 2752 2156 2874 2105 2963 2105 
C 3155 2105 3290 2271 3290 2444 
C 3290 2694 2982 2816 2714 2816 
C 2323 2816 2106 2451 2048 2329 
C 1901 2790 1504 2816 1389 2816 
C 736 2816 390 1993 390 1849 
C 390 1823 416 1790 461 1790 
C 512 1790 525 1829 538 1855 
C 755 2572 1184 2687 1370 2687 
C 1658 2687 1715 2438 1715 2284 
C 1715 2143 1677 1993 1600 1678 
L 1382 778 
C 1286 390 1101 64 762 64 
C 730 64 570 64 435 126 
C 666 166 717 358 717 435 
C 717 563 621 640 499 640 
C 346 640 179 505 179 300 
C 179 57 480 -64 755 -64 
C 1062 -64 1280 153 1414 415 
C 1517 64 1837 -64 2074 -64 
C 2726 -64 3072 751 3072 896 
C 3072 929 3046 955 3008 955 
C 2950 955 2944 922 2925 870 
C 2752 300 2381 64 2093 64 
C 1869 64 1747 204 1747 467 
C 1747 607 1773 712 1875 1146 
L 2099 2039 
C 2195 2425 2413 2687 2707 2687 
C 2720 2687 2899 2687 3034 2624 
z
" transform="scale(0.015625)"/>
      </defs>
      <use xlink:href="#CMMI12-17" transform="scale(0.996264)"/>
      <use xlink:href="#CMMI12-78" transform="translate(48.198482 -14.943915)scale(0.697382)"/>
     </g>
    </g>
   </g>
  </g>
 </g>
 <defs>
  <clipPath id="p902e7c6aca">
   <rect x="49.928035" y="27.036997" width="558" height="326.16"/>
  </clipPath>
 </defs>
</svg>
