<?xml version="1.0" encoding="utf-8" standalone="no"?>
<!DOCTYPE svg PUBLIC "-//W3C//DTD SVG 1.1//EN"
  "http://www.w3.org/Graphics/SVG/1.1/DTD/svg11.dtd">
<svg xmlns:xlink="http://www.w3.org/1999/xlink" width="430.188996pt" height="341.195812pt" viewBox="0 0 430.188996 341.195812" xmlns="http://www.w3.org/2000/svg" version="1.1">
 <metadata>
  <rdf:RDF xmlns:dc="http://purl.org/dc/elements/1.1/" xmlns:cc="http://creativecommons.org/ns#" xmlns:rdf="http://www.w3.org/1999/02/22-rdf-syntax-ns#">
   <cc:Work>
    <dc:type rdf:resource="http://purl.org/dc/dcmitype/StillImage"/>
    <dc:date>2023-07-28T08:07:50.811830</dc:date>
    <dc:format>image/svg+xml</dc:format>
    <dc:creator>
     <cc:Agent>
      <dc:title>Matplotlib v3.5.2, https://matplotlib.org/</dc:title>
     </cc:Agent>
    </dc:creator>
   </cc:Work>
  </rdf:RDF>
 </metadata>
 <defs>
  <style type="text/css">*{stroke-linejoin: round; stroke-linecap: butt}</style>
 </defs>
 <g id="figure_1">
  <g id="patch_1">
   <path d="M 0 341.195812 
L 430.188996 341.195812 
L 430.188996 0 
L 0 0 
z
" style="fill: #ffffff"/>
  </g>
  <g id="axes_1">
   <g id="patch_2">
    <path d="M 49.706667 297.148997 
L 406.826667 297.148997 
L 406.826667 31.036997 
L 49.706667 31.036997 
z
" style="fill: #ffffff"/>
   </g>
   <g id="PolyCollection_1">
    <path d="M 53.277867 279.715269 
L 53.277867 318.240372 
L 56.849067 288.521345 
L 63.991467 258.505777 
L 71.133867 241.325158 
L 78.276267 228.83685 
L 85.418667 220.157958 
L 92.561067 211.898526 
L 99.703467 207.030585 
L 106.845867 201.737607 
L 113.988267 198.407773 
L 121.130667 189.700538 
L 128.273067 186.776883 
L 135.415467 187.854649 
L 142.557867 186.42396 
L 149.700267 179.380729 
L 156.842667 179.336223 
L 163.985067 173.185649 
L 171.127467 179.037066 
L 178.269867 177.69752 
L 185.412267 170.512627 
L 192.554667 172.42908 
L 199.697067 169.244304 
L 206.839467 179.945063 
L 213.981867 161.745436 
L 221.124267 193.414136 
L 228.266667 167.722735 
L 235.409067 165.43106 
L 242.551467 181.374205 
L 249.693867 188.168712 
L 256.836267 151.52468 
L 263.978667 164.652949 
L 271.121067 165.171136 
L 278.263467 243.748863 
L 285.405867 160.794089 
L 292.548267 157.088931 
L 299.690667 154.050201 
L 306.833067 187.451934 
L 313.975467 246.276023 
L 321.117867 256.213988 
L 328.260267 227.274461 
L 335.402667 405.666028 
L 342.545067 324.910549 
L 349.687467 251.604756 
L 356.829867 207.448569 
L 363.972267 431.483528 
L 371.114667 404.969503 
L 378.257067 172.658436 
L 385.399467 295.189685 
L 392.541867 570.479859 
L 399.684267 309.389799 
L 406.826667 404.236113 
L 406.826667 -149.136139 
L 406.826667 -149.136139 
L 399.684267 -54.011289 
L 392.541867 -379.520648 
L 385.399467 -35.202017 
L 378.257067 53.152317 
L 371.114667 -120.910202 
L 363.972267 -150.442102 
L 356.829867 51.772182 
L 349.687467 58.606347 
L 342.545067 -0.210514 
L 335.402667 -183.47123 
L 328.260267 62.861542 
L 321.117867 52.708054 
L 313.975467 29.996409 
L 306.833067 64.169368 
L 299.690667 75.853638 
L 292.548267 84.212049 
L 285.405867 78.29029 
L 278.263467 -2.343091 
L 271.121067 82.800003 
L 263.978667 86.751216 
L 256.836267 97.870463 
L 249.693867 80.190667 
L 242.551467 89.755192 
L 235.409067 94.914498 
L 228.266667 97.484933 
L 221.124267 91.775098 
L 213.981867 105.335808 
L 206.839467 104.472468 
L 199.697067 112.805095 
L 192.554667 112.635366 
L 185.412267 115.005246 
L 178.269867 118.364293 
L 171.127467 122.186139 
L 163.985067 126.039886 
L 156.842667 130.003429 
L 149.700267 134.269998 
L 142.557867 134.459242 
L 135.415467 140.839908 
L 128.273067 145.283917 
L 121.130667 149.835761 
L 113.988267 155.543281 
L 106.845867 161.140929 
L 99.703467 165.882411 
L 92.561067 172.856798 
L 85.418667 180.827721 
L 78.276267 191.738592 
L 71.133867 202.413819 
L 63.991467 220.719371 
L 56.849067 250.325399 
L 53.277867 279.715269 
z
" clip-path="url(#p4676171218)" style="fill: #f57d15; fill-opacity: 0.5; stroke: #f57d15; stroke-opacity: 0.5"/>
   </g>
   <g id="PolyCollection_2">
    <defs>
     <path id="m82d4cad831" d="M 53.277867 -55.830716 
L 53.277867 -29.339882 
L 56.849067 -59.266583 
L 63.991467 -88.428547 
L 71.133867 -106.206601 
L 78.276267 -118.108533 
L 85.418667 -127.41313 
L 92.561067 -135.711081 
L 99.703467 -141.573241 
L 106.845867 -147.166733 
L 113.988267 -150.924243 
L 121.130667 -158.195005 
L 128.273067 -160.839164 
L 135.415467 -162.997036 
L 142.557867 -164.558091 
L 149.700267 -170.416999 
L 156.842667 -172.31034 
L 163.985067 -175.308413 
L 171.127467 -175.219995 
L 178.269867 -175.725238 
L 185.412267 -180.303671 
L 192.554667 -180.388333 
L 199.697067 -182.606528 
L 206.839467 -179.907201 
L 213.981867 -189.810697 
L 221.124267 -181.501928 
L 228.266667 -188.514142 
L 235.409067 -192.445376 
L 242.551467 -183.103816 
L 249.693867 -184.900107 
L 256.836267 -201.153576 
L 263.978667 -194.324731 
L 271.121067 -194.983034 
L 278.263467 -189.326319 
L 285.405867 -198.040463 
L 292.548267 -201.883298 
L 299.690667 -203.658035 
L 306.833067 -190.841515 
L 313.975467 -188.517747 
L 321.117867 -181.137545 
L 328.260267 -193.713001 
L 335.402667 -181.377991 
L 342.545067 -187.964565 
L 349.687467 -197.250805 
L 356.829867 -204.378092 
L 363.972267 -179.108572 
L 371.114667 -174.669703 
L 378.257067 -205.695367 
L 385.399467 -190.509726 
L 392.541867 -141.054048 
L 399.684267 -189.014715 
L 406.826667 -159.132317 
L 406.826667 -285.643403 
L 406.826667 -285.643403 
L 399.684267 -275.047363 
L 392.541867 -288.238383 
L 385.399467 -270.220092 
L 378.257067 -264.156555 
L 371.114667 -273.554196 
L 363.972267 -278.14513 
L 356.829867 -268.82685 
L 349.687467 -260.228071 
L 342.545067 -261.417367 
L 335.402667 -269.188707 
L 328.260267 -257.84985 
L 321.117867 -265.985126 
L 313.975467 -257.307362 
L 306.833067 -256.168027 
L 299.690667 -248.608058 
L 292.548267 -244.962565 
L 285.405867 -246.157222 
L 278.263467 -248.840407 
L 271.121067 -241.086146 
L 263.978667 -238.464863 
L 256.836267 -235.042433 
L 249.693867 -238.477672 
L 242.551467 -234.695717 
L 235.409067 -232.931409 
L 228.266667 -230.243515 
L 221.124267 -229.618497 
L 213.981867 -224.860366 
L 206.839467 -224.52238 
L 199.697067 -219.424729 
L 192.554667 -217.728166 
L 185.412267 -214.428909 
L 178.269867 -212.323791 
L 171.127467 -211.226957 
L 163.985067 -207.47633 
L 156.842667 -202.823039 
L 149.700267 -200.670038 
L 142.557867 -197.818469 
L 135.415467 -193.142947 
L 128.273067 -189.784304 
L 121.130667 -186.237769 
L 113.988267 -180.216999 
L 106.845867 -174.666722 
L 99.703467 -169.024979 
L 92.561067 -162.30754 
L 85.418667 -154.795386 
L 78.276267 -144.868265 
L 71.133867 -132.566093 
L 63.991467 -115.124075 
L 56.849067 -85.110927 
L 53.277867 -55.830716 
z
" style="stroke: #9f2a63; stroke-opacity: 0.5"/>
    </defs>
    <g clip-path="url(#p4676171218)">
     <use xlink:href="#m82d4cad831" x="0" y="341.195812" style="fill: #9f2a63; fill-opacity: 0.5; stroke: #9f2a63; stroke-opacity: 0.5"/>
    </g>
   </g>
   <g id="PolyCollection_3">
    <defs>
     <path id="mce223b1add" d="M 53.277867 -49.393587 
L 53.277867 -34.874846 
L 56.849067 -64.895445 
L 63.991467 -94.16196 
L 71.133867 -111.742415 
L 78.276267 -123.481633 
L 85.418667 -133.484077 
L 92.561067 -141.516656 
L 99.703467 -147.662449 
L 106.845867 -153.223665 
L 113.988267 -157.681663 
L 121.130667 -163.943012 
L 128.273067 -167.203692 
L 135.415467 -169.691818 
L 142.557867 -172.840741 
L 149.700267 -177.808221 
L 156.842667 -179.271965 
L 163.985067 -182.886744 
L 171.127467 -184.601646 
L 178.269867 -185.126609 
L 185.412267 -188.307484 
L 192.554667 -189.685313 
L 199.697067 -192.529936 
L 206.839467 -194.339583 
L 213.981867 -198.851209 
L 221.124267 -195.398958 
L 228.266667 -200.107974 
L 235.409067 -203.761985 
L 242.551467 -199.661423 
L 249.693867 -205.07607 
L 256.836267 -209.251863 
L 263.978667 -207.121222 
L 271.121067 -206.039824 
L 278.263467 -210.542791 
L 285.405867 -210.504602 
L 292.548267 -213.832281 
L 299.690667 -215.237066 
L 306.833067 -210.821192 
L 313.975467 -210.338011 
L 321.117867 -211.621562 
L 328.260267 -214.934442 
L 335.402667 -215.212753 
L 342.545067 -217.31609 
L 349.687467 -216.258822 
L 356.829867 -222.051528 
L 363.972267 -215.858602 
L 371.114667 -217.159881 
L 378.257067 -222.200172 
L 385.399467 -219.370007 
L 392.541867 -214.353521 
L 399.684267 -225.355499 
L 406.826667 -219.538397 
L 406.826667 -257.208237 
L 406.826667 -257.208237 
L 399.684267 -254.884244 
L 392.541867 -258.635725 
L 385.399467 -251.046454 
L 378.257067 -248.986486 
L 371.114667 -252.365383 
L 363.972267 -252.404583 
L 356.829867 -252.425372 
L 349.687467 -245.059086 
L 342.545067 -243.303145 
L 335.402667 -245.693016 
L 328.260267 -242.123418 
L 321.117867 -244.634935 
L 313.975467 -239.046907 
L 306.833067 -238.974735 
L 299.690667 -237.379577 
L 292.548267 -234.701953 
L 285.405867 -233.974744 
L 278.263467 -234.041674 
L 271.121067 -229.324444 
L 263.978667 -227.825038 
L 256.836267 -226.621059 
L 249.693867 -226.477876 
L 242.551467 -223.574683 
L 235.409067 -223.703129 
L 228.266667 -221.071404 
L 221.124267 -218.179338 
L 213.981867 -216.582905 
L 206.839467 -215.361902 
L 199.697067 -211.265118 
L 192.554667 -208.994829 
L 185.412267 -205.995757 
L 178.269867 -203.439154 
L 171.127467 -203.01769 
L 163.985067 -199.660662 
L 156.842667 -195.590082 
L 149.700267 -193.826016 
L 142.557867 -190.19457 
L 135.415467 -185.761266 
L 128.273067 -182.593032 
L 121.130667 -179.171471 
L 113.988267 -173.333483 
L 106.845867 -168.243244 
L 99.703467 -162.687421 
L 92.561067 -156.176728 
L 85.418667 -148.450865 
L 78.276267 -138.500201 
L 71.133867 -126.556028 
L 63.991467 -109.062204 
L 56.849067 -79.126049 
L 53.277867 -49.393587 
z
" style="stroke: #280b53; stroke-opacity: 0.6"/>
    </defs>
    <g clip-path="url(#p4676171218)">
     <use xlink:href="#mce223b1add" x="0" y="341.195812" style="fill: #280b53; fill-opacity: 0.6; stroke: #280b53; stroke-opacity: 0.6"/>
    </g>
   </g>
   <g id="matplotlib.axis_1">
    <g id="xtick_1">
     <g id="line2d_1">
      <defs>
       <path id="m54fd81d31b" d="M 0 0 
L 0 3.5 
" style="stroke: #000000; stroke-width: 0.8"/>
      </defs>
      <g>
       <use xlink:href="#m54fd81d31b" x="49.706667" y="297.148997" style="stroke: #000000; stroke-width: 0.8"/>
      </g>
     </g>
     <g id="text_1">
      <!-- $\mathdefault{0}$ -->
      <g transform="translate(46.780172 312.451177)scale(0.12 -0.12)">
       <defs>
        <path id="CMR17-30" d="M 2688 2038 
C 2688 2430 2682 3099 2413 3613 
C 2176 4063 1798 4224 1466 4224 
C 1158 4224 768 4082 525 3620 
C 269 3137 243 2539 243 2038 
C 243 1671 250 1112 448 623 
C 723 -39 1216 -128 1466 -128 
C 1760 -128 2208 -7 2470 604 
C 2662 1048 2688 1568 2688 2038 
z
M 1466 -26 
C 1056 -26 813 328 723 816 
C 653 1196 653 1749 653 2109 
C 653 2604 653 3015 736 3407 
C 858 3954 1216 4121 1466 4121 
C 1728 4121 2067 3947 2189 3420 
C 2272 3054 2278 2623 2278 2109 
C 2278 1691 2278 1176 2202 797 
C 2067 96 1690 -26 1466 -26 
z
" transform="scale(0.015625)"/>
       </defs>
       <use xlink:href="#CMR17-30" transform="scale(0.996264)"/>
      </g>
     </g>
    </g>
    <g id="xtick_2">
     <g id="line2d_2">
      <g>
       <use xlink:href="#m54fd81d31b" x="121.130667" y="297.148997" style="stroke: #000000; stroke-width: 0.8"/>
      </g>
     </g>
     <g id="text_2">
      <!-- $\mathdefault{20}$ -->
      <g transform="translate(115.277677 312.451177)scale(0.12 -0.12)">
       <defs>
        <path id="CMR17-32" d="M 2669 990 
L 2554 990 
C 2490 537 2438 460 2413 422 
C 2381 371 1920 371 1830 371 
L 602 371 
C 832 620 1280 1073 1824 1596 
C 2214 1966 2669 2400 2669 3033 
C 2669 3788 2067 4224 1395 4224 
C 691 4224 262 3603 262 3027 
C 262 2777 448 2745 525 2745 
C 589 2745 781 2783 781 3007 
C 781 3206 614 3264 525 3264 
C 486 3264 448 3257 422 3244 
C 544 3788 915 4057 1306 4057 
C 1862 4057 2227 3616 2227 3033 
C 2227 2477 1901 1998 1536 1583 
L 262 147 
L 262 0 
L 2515 0 
L 2669 990 
z
" transform="scale(0.015625)"/>
       </defs>
       <use xlink:href="#CMR17-32" transform="scale(0.996264)"/>
       <use xlink:href="#CMR17-30" transform="translate(45.690477 0)scale(0.996264)"/>
      </g>
     </g>
    </g>
    <g id="xtick_3">
     <g id="line2d_3">
      <g>
       <use xlink:href="#m54fd81d31b" x="192.554667" y="297.148997" style="stroke: #000000; stroke-width: 0.8"/>
      </g>
     </g>
     <g id="text_3">
      <!-- $\mathdefault{40}$ -->
      <g transform="translate(186.701677 312.451177)scale(0.12 -0.12)">
       <defs>
        <path id="CMR17-34" d="M 2150 4147 
C 2150 4281 2144 4288 2029 4288 
L 128 1254 
L 128 1088 
L 1779 1088 
L 1779 460 
C 1779 230 1766 166 1318 166 
L 1197 166 
L 1197 0 
C 1402 12 1747 12 1965 12 
C 2182 12 2528 12 2733 0 
L 2733 166 
L 2611 166 
C 2163 166 2150 230 2150 460 
L 2150 1088 
L 2803 1088 
L 2803 1254 
L 2150 1254 
L 2150 4147 
z
M 1798 3723 
L 1798 1254 
L 256 1254 
L 1798 3723 
z
" transform="scale(0.015625)"/>
       </defs>
       <use xlink:href="#CMR17-34" transform="scale(0.996264)"/>
       <use xlink:href="#CMR17-30" transform="translate(45.690477 0)scale(0.996264)"/>
      </g>
     </g>
    </g>
    <g id="xtick_4">
     <g id="line2d_4">
      <g>
       <use xlink:href="#m54fd81d31b" x="263.978667" y="297.148997" style="stroke: #000000; stroke-width: 0.8"/>
      </g>
     </g>
     <g id="text_4">
      <!-- $\mathdefault{60}$ -->
      <g transform="translate(258.125677 312.451177)scale(0.12 -0.12)">
       <defs>
        <path id="CMR17-36" d="M 678 2198 
C 678 3712 1395 4076 1811 4076 
C 1946 4076 2272 4049 2400 3782 
C 2298 3782 2106 3782 2106 3558 
C 2106 3385 2246 3328 2336 3328 
C 2394 3328 2566 3353 2566 3571 
C 2566 3987 2246 4224 1805 4224 
C 1043 4224 243 3411 243 2011 
C 243 257 966 -128 1478 -128 
C 2099 -128 2688 431 2688 1295 
C 2688 2101 2170 2688 1517 2688 
C 1126 2688 838 2430 678 1979 
L 678 2198 
z
M 1478 25 
C 691 25 691 1212 691 1450 
C 691 1914 909 2585 1504 2585 
C 1613 2585 1926 2585 2138 2140 
C 2253 1889 2253 1624 2253 1302 
C 2253 954 2253 696 2118 438 
C 1978 173 1773 25 1478 25 
z
" transform="scale(0.015625)"/>
       </defs>
       <use xlink:href="#CMR17-36" transform="scale(0.996264)"/>
       <use xlink:href="#CMR17-30" transform="translate(45.690477 0)scale(0.996264)"/>
      </g>
     </g>
    </g>
    <g id="xtick_5">
     <g id="line2d_5">
      <g>
       <use xlink:href="#m54fd81d31b" x="335.402667" y="297.148997" style="stroke: #000000; stroke-width: 0.8"/>
      </g>
     </g>
     <g id="text_5">
      <!-- $\mathdefault{80}$ -->
      <g transform="translate(329.549677 312.451177)scale(0.12 -0.12)">
       <defs>
        <path id="CMR17-38" d="M 1741 2289 
C 2144 2494 2554 2803 2554 3298 
C 2554 3884 1990 4224 1472 4224 
C 890 4224 378 3800 378 3215 
C 378 3054 416 2777 666 2533 
C 730 2469 998 2276 1171 2154 
C 883 2006 211 1652 211 945 
C 211 282 838 -128 1459 -128 
C 2144 -128 2720 366 2720 1022 
C 2720 1607 2330 1877 2074 2051 
L 1741 2289 
z
M 902 2855 
C 851 2887 595 3086 595 3388 
C 595 3781 998 4076 1459 4076 
C 1965 4076 2336 3716 2336 3298 
C 2336 2700 1670 2359 1638 2359 
C 1632 2359 1626 2359 1574 2398 
L 902 2855 
z
M 2080 1536 
C 2176 1466 2483 1253 2483 861 
C 2483 385 2010 25 1472 25 
C 890 25 448 443 448 951 
C 448 1459 838 1884 1280 2083 
L 2080 1536 
z
" transform="scale(0.015625)"/>
       </defs>
       <use xlink:href="#CMR17-38" transform="scale(0.996264)"/>
       <use xlink:href="#CMR17-30" transform="translate(45.690477 0)scale(0.996264)"/>
      </g>
     </g>
    </g>
    <g id="xtick_6">
     <g id="line2d_6">
      <g>
       <use xlink:href="#m54fd81d31b" x="406.826667" y="297.148997" style="stroke: #000000; stroke-width: 0.8"/>
      </g>
     </g>
     <g id="text_6">
      <!-- $\mathdefault{100}$ -->
      <g transform="translate(398.047182 312.451177)scale(0.12 -0.12)">
       <defs>
        <path id="CMR17-31" d="M 1702 4083 
C 1702 4217 1696 4224 1606 4224 
C 1357 3927 979 3833 621 3820 
C 602 3820 570 3820 563 3808 
C 557 3795 557 3782 557 3648 
C 755 3648 1088 3686 1344 3839 
L 1344 467 
C 1344 243 1331 166 781 166 
L 589 166 
L 589 0 
C 896 6 1216 12 1523 12 
C 1830 12 2150 6 2458 0 
L 2458 166 
L 2266 166 
C 1715 166 1702 236 1702 467 
L 1702 4083 
z
" transform="scale(0.015625)"/>
       </defs>
       <use xlink:href="#CMR17-31" transform="scale(0.996264)"/>
       <use xlink:href="#CMR17-30" transform="translate(45.690477 0)scale(0.996264)"/>
       <use xlink:href="#CMR17-30" transform="translate(91.380954 0)scale(0.996264)"/>
      </g>
     </g>
    </g>
    <g id="text_7">
     <!-- True Distance ($D^{\mathrm{True}}$) [kpc] -->
     <g transform="translate(145.831011 330.508888)scale(0.14 -0.14)">
      <defs>
       <path id="CMR17-54" d="M 3981 4332 
L 288 4332 
L 179 2924 
L 294 2924 
C 378 3981 467 4166 1453 4166 
C 1568 4166 1754 4166 1805 4159 
C 1926 4140 1926 4064 1926 3917 
L 1926 465 
C 1926 236 1907 166 1376 166 
L 1197 166 
L 1197 0 
C 1504 6 1824 12 2138 12 
C 2451 12 2771 6 3078 0 
L 3078 166 
L 2899 166 
C 2368 166 2349 236 2349 465 
L 2349 3917 
C 2349 4057 2349 4134 2464 4159 
C 2515 4166 2701 4166 2816 4166 
C 3795 4166 3891 3981 3974 2924 
L 4090 2924 
L 3981 4332 
z
" transform="scale(0.015625)"/>
       <path id="CMR17-72" d="M 960 1517 
C 960 2134 1222 2713 1702 2713 
C 1747 2713 1792 2707 1837 2687 
C 1837 2687 1696 2642 1696 2475 
C 1696 2321 1818 2257 1914 2257 
C 1990 2257 2131 2302 2131 2482 
C 2131 2687 1926 2816 1709 2816 
C 1222 2816 1011 2340 947 2115 
L 941 2115 
L 941 2816 
L 198 2745 
L 198 2578 
C 576 2578 634 2540 634 2231 
L 634 443 
C 634 198 608 166 198 166 
L 198 0 
C 352 12 646 12 813 12 
C 998 12 1325 12 1498 0 
L 1498 166 
C 1037 166 960 166 960 455 
L 960 1517 
z
" transform="scale(0.015625)"/>
       <path id="CMR17-75" d="M 1882 2745 
L 1882 2579 
C 2259 2579 2317 2540 2317 2229 
L 2317 1053 
C 2317 510 2029 38 1555 38 
C 1030 38 986 355 986 691 
L 986 2816 
L 211 2745 
L 211 2579 
C 467 2579 640 2579 646 2320 
L 646 1079 
C 646 646 646 368 813 187 
C 896 103 1056 -64 1517 -64 
C 2061 -64 2272 400 2323 536 
L 2330 536 
L 2330 -64 
L 3091 -13 
L 3091 154 
C 2714 154 2656 193 2656 503 
L 2656 2816 
L 1882 2745 
z
" transform="scale(0.015625)"/>
       <path id="CMR17-65" d="M 2438 1503 
C 2464 1529 2464 1542 2464 1606 
C 2464 2251 2118 2816 1389 2816 
C 710 2816 173 2175 173 1394 
C 173 554 781 -64 1459 -64 
C 2176 -64 2458 619 2458 755 
C 2458 800 2419 800 2406 800 
C 2362 800 2355 787 2330 709 
C 2189 270 1837 51 1504 51 
C 1229 51 954 206 781 490 
C 582 819 582 1200 582 1503 
L 2438 1503 
z
M 589 1600 
C 634 2511 1126 2713 1382 2713 
C 1818 2713 2112 2308 2118 1600 
L 589 1600 
z
" transform="scale(0.015625)"/>
       <path id="CMR17-44" d="M 333 4352 
L 333 4185 
C 774 4185 845 4185 845 3898 
L 845 453 
C 845 166 774 166 333 166 
L 333 0 
L 2368 0 
C 3398 0 4224 943 4224 2140 
C 4224 3344 3411 4352 2368 4352 
L 333 4352 
z
M 1523 166 
C 1267 166 1254 198 1254 414 
L 1254 3936 
C 1254 4153 1267 4185 1523 4185 
L 2240 4185 
C 2771 4185 3750 3873 3750 2140 
C 3750 1242 3488 879 3366 707 
C 3213 510 2848 166 2240 166 
L 1523 166 
z
" transform="scale(0.015625)"/>
       <path id="CMR17-69" d="M 992 3961 
C 992 4102 877 4224 730 4224 
C 589 4224 467 4108 467 3961 
C 467 3820 582 3699 730 3699 
C 870 3699 992 3814 992 3961 
z
M 243 2745 
L 243 2579 
C 602 2579 653 2540 653 2231 
L 653 443 
C 653 198 627 166 218 166 
L 218 0 
C 371 12 646 12 806 12 
C 960 12 1222 12 1370 0 
L 1370 166 
C 992 166 979 205 979 436 
L 979 2816 
L 243 2745 
z
" transform="scale(0.015625)"/>
       <path id="CMR17-73" d="M 1978 2688 
C 1978 2803 1971 2809 1933 2809 
C 1907 2809 1901 2803 1824 2707 
C 1805 2681 1747 2617 1728 2592 
C 1523 2809 1235 2816 1126 2816 
C 416 2816 160 2444 160 2073 
C 160 1497 813 1363 998 1324 
C 1402 1241 1542 1216 1677 1100 
C 1760 1024 1901 883 1901 652 
C 1901 384 1747 38 1158 38 
C 602 38 403 460 288 1024 
C 269 1113 269 1120 218 1120 
C 166 1120 160 1113 160 985 
L 160 64 
C 160 -52 166 -58 205 -58 
C 237 -58 243 -52 275 0 
C 314 57 410 211 448 275 
C 576 102 800 -64 1158 -64 
C 1792 -64 2131 281 2131 780 
C 2131 1107 1958 1280 1875 1356 
C 1683 1555 1459 1600 1190 1651 
C 838 1728 390 1817 390 2208 
C 390 2374 480 2726 1126 2726 
C 1811 2726 1850 2086 1862 1881 
C 1869 1849 1901 1843 1920 1843 
C 1978 1843 1978 1862 1978 1971 
L 1978 2688 
z
" transform="scale(0.015625)"/>
       <path id="CMR17-74" d="M 966 2585 
L 1862 2585 
L 1862 2752 
L 966 2752 
L 966 3968 
L 851 3968 
C 838 3292 614 2700 70 2687 
L 70 2585 
L 627 2585 
L 627 778 
C 627 655 627 -64 1370 -64 
C 1747 -64 1965 308 1965 784 
L 1965 1151 
L 1850 1151 
L 1850 790 
C 1850 347 1677 51 1408 51 
C 1222 51 966 179 966 765 
L 966 2585 
z
" transform="scale(0.015625)"/>
       <path id="CMR17-61" d="M 2304 1656 
C 2304 2048 2304 2275 2035 2534 
C 1798 2751 1523 2816 1306 2816 
C 800 2816 435 2408 435 1977 
C 435 1740 627 1728 666 1728 
C 749 1728 896 1779 896 1958 
C 896 2118 774 2188 666 2188 
C 640 2188 608 2182 589 2176 
C 723 2594 1069 2713 1293 2713 
C 1613 2713 1965 2421 1965 1875 
L 1965 1632 
C 1587 1619 1133 1568 774 1373 
C 371 1147 256 822 256 576 
C 256 77 832 -64 1171 -64 
C 1523 -64 1850 135 1990 505 
C 2003 219 2182 -39 2464 -39 
C 2598 -39 2938 51 2938 563 
L 2938 926 
L 2822 926 
L 2822 557 
C 2822 161 2650 109 2566 109 
C 2304 109 2304 446 2304 732 
L 2304 1656 
z
M 1965 887 
C 1965 323 1568 38 1216 38 
C 896 38 646 278 646 576 
C 646 771 730 1114 1101 1322 
C 1408 1497 1760 1523 1965 1536 
L 1965 887 
z
" transform="scale(0.015625)"/>
       <path id="CMR17-6e" d="M 2656 1954 
C 2656 2282 2592 2816 1837 2816 
C 1331 2816 1069 2424 973 2166 
L 966 2166 
L 966 2816 
L 211 2745 
L 211 2578 
C 589 2578 646 2540 646 2231 
L 646 443 
C 646 198 621 166 211 166 
L 211 0 
C 365 12 646 12 813 12 
C 979 12 1267 12 1421 0 
L 1421 166 
C 1011 166 986 192 986 443 
L 986 1678 
C 986 2269 1344 2713 1792 2713 
C 2266 2713 2317 2289 2317 1980 
L 2317 443 
C 2317 198 2291 166 1882 166 
L 1882 0 
C 2035 12 2317 12 2483 12 
C 2650 12 2938 12 3091 0 
L 3091 166 
C 2682 166 2656 192 2656 443 
L 2656 1954 
z
" transform="scale(0.015625)"/>
       <path id="CMR17-63" d="M 2234 2240 
C 2112 2240 1933 2240 1933 2015 
C 1933 1836 2080 1785 2163 1785 
C 2208 1785 2394 1804 2394 2028 
C 2394 2476 1958 2816 1466 2816 
C 787 2816 211 2201 211 1379 
C 211 521 813 -64 1466 -64 
C 2259 -64 2458 676 2458 747 
C 2458 773 2451 792 2406 792 
C 2362 792 2355 786 2330 702 
C 2163 180 1798 51 1523 51 
C 1114 51 621 431 621 1385 
C 621 2358 1094 2700 1472 2700 
C 1722 2700 2093 2582 2234 2240 
z
" transform="scale(0.015625)"/>
       <path id="CMR17-28" d="M 1958 -1562 
C 1958 -1556 1958 -1543 1939 -1524 
C 1645 -1223 858 -403 858 1596 
C 858 3595 1632 4408 1946 4729 
C 1946 4735 1958 4748 1958 4767 
C 1958 4787 1939 4800 1914 4800 
C 1843 4800 1299 4325 986 3620 
C 666 2909 576 2218 576 1603 
C 576 1141 621 360 1005 -467 
C 1312 -1133 1837 -1600 1914 -1600 
C 1946 -1600 1958 -1588 1958 -1562 
z
" transform="scale(0.015625)"/>
       <path id="CMMI12-44" d="M 1005 472 
C 947 249 934 185 486 185 
C 365 185 301 185 301 70 
C 301 0 339 0 467 0 
L 2496 0 
C 3789 0 5050 1332 5050 2752 
C 5050 3669 4499 4352 3584 4352 
L 1530 4352 
C 1408 4352 1350 4352 1350 4230 
C 1350 4166 1408 4166 1504 4166 
C 1894 4166 1894 4115 1894 4045 
C 1894 4032 1894 3994 1869 3898 
L 1005 472 
z
M 2355 3917 
C 2413 4153 2438 4166 2688 4166 
L 3392 4166 
C 3994 4166 4544 3841 4544 2962 
C 4544 2644 4416 1535 3795 835 
C 3616 625 3130 185 2394 185 
L 1664 185 
C 1574 185 1562 185 1523 191 
C 1453 198 1446 211 1446 262 
C 1446 306 1459 344 1472 402 
L 2355 3917 
z
" transform="scale(0.015625)"/>
       <path id="CMR17-29" d="M 1683 1596 
C 1683 2057 1638 2839 1254 3665 
C 947 4332 422 4800 346 4800 
C 326 4800 301 4793 301 4761 
C 301 4748 307 4742 314 4729 
C 621 4408 1402 3595 1402 1603 
C 1402 -396 627 -1210 314 -1530 
C 307 -1543 301 -1549 301 -1562 
C 301 -1594 326 -1600 346 -1600 
C 416 -1600 960 -1127 1274 -422 
C 1594 289 1683 981 1683 1596 
z
" transform="scale(0.015625)"/>
       <path id="CMR17-5b" d="M 1504 -1600 
L 1504 -1376 
L 902 -1376 
L 902 4575 
L 1504 4575 
L 1504 4800 
L 678 4800 
L 678 -1600 
L 1504 -1600 
z
" transform="scale(0.015625)"/>
       <path id="CMR17-6b" d="M 1670 1679 
C 1664 1692 1632 1730 1632 1749 
C 1632 1762 2086 2175 2144 2226 
C 2509 2532 2739 2563 2906 2570 
L 2906 2735 
C 2867 2735 2854 2735 2848 2729 
L 2534 2722 
C 2355 2722 2080 2722 1907 2735 
L 1907 2570 
C 1997 2563 2061 2513 2061 2423 
C 2061 2296 1933 2175 1926 2175 
L 960 1298 
L 960 4416 
L 198 4345 
L 198 4179 
C 576 4179 634 4141 634 3835 
L 634 439 
C 634 198 608 166 198 166 
L 198 0 
C 352 12 634 12 794 12 
C 954 12 1235 12 1389 0 
L 1389 166 
C 979 166 954 191 954 439 
L 954 1139 
L 1395 1540 
L 2042 586 
C 2118 471 2182 382 2182 299 
C 2182 185 2067 166 1990 166 
L 1990 0 
C 2144 12 2419 12 2579 12 
C 2694 12 2931 6 3040 0 
L 3040 166 
C 2739 166 2669 223 2477 503 
L 1670 1679 
z
" transform="scale(0.015625)"/>
       <path id="CMR17-70" d="M 1408 -1114 
C 998 -1114 973 -1088 973 -834 
L 973 380 
C 1158 109 1427 -64 1766 -64 
C 2406 -64 3053 503 3053 1382 
C 3053 2196 2496 2816 1837 2816 
C 1453 2816 1139 2603 960 2345 
L 960 2816 
L 198 2745 
L 198 2577 
C 576 2577 634 2539 634 2228 
L 634 -834 
C 634 -1081 608 -1114 198 -1114 
L 198 -1280 
C 352 -1268 634 -1268 800 -1268 
C 966 -1268 1254 -1268 1408 -1280 
L 1408 -1114 
z
M 973 2015 
C 973 2106 973 2241 1222 2481 
C 1254 2506 1472 2700 1792 2700 
C 2259 2700 2643 2112 2643 1376 
C 2643 639 2234 38 1728 38 
C 1498 38 1248 148 1056 451 
C 973 594 973 632 973 736 
L 973 2015 
z
" transform="scale(0.015625)"/>
       <path id="CMR17-5d" d="M 915 4800 
L 90 4800 
L 90 4575 
L 691 4575 
L 691 -1376 
L 90 -1376 
L 90 -1600 
L 915 -1600 
L 915 4800 
z
" transform="scale(0.015625)"/>
      </defs>
      <use xlink:href="#CMR17-54" transform="scale(0.996264)"/>
      <use xlink:href="#CMR17-72" transform="translate(58.702625 0)scale(0.996264)"/>
      <use xlink:href="#CMR17-75" transform="translate(93.983393 0)scale(0.996264)"/>
      <use xlink:href="#CMR17-65" transform="translate(144.878763 0)scale(0.996264)"/>
      <use xlink:href="#CMR17-44" transform="translate(215.44039 0)scale(0.996264)"/>
      <use xlink:href="#CMR17-69" transform="translate(285.833945 0)scale(0.996264)"/>
      <use xlink:href="#CMR17-73" transform="translate(310.705004 0)scale(0.996264)"/>
      <use xlink:href="#CMR17-74" transform="translate(346.506342 0)scale(0.996264)"/>
      <use xlink:href="#CMR17-61" transform="translate(381.787109 0)scale(0.996264)"/>
      <use xlink:href="#CMR17-6e" transform="translate(427.477586 0)scale(0.996264)"/>
      <use xlink:href="#CMR17-63" transform="translate(478.372956 0)scale(0.996264)"/>
      <use xlink:href="#CMR17-65" transform="translate(518.858617 0)scale(0.996264)"/>
      <use xlink:href="#CMR17-28" transform="translate(589.420244 0)scale(0.996264)"/>
      <use xlink:href="#CMMI12-44" transform="translate(624.701011 0)scale(0.996264)"/>
      <use xlink:href="#CMR17-54" transform="translate(708.404959 36.153639)scale(0.697382)"/>
      <use xlink:href="#CMR17-72" transform="translate(749.496608 36.153639)scale(0.697382)"/>
      <use xlink:href="#CMR17-75" transform="translate(774.193029 36.153639)scale(0.697382)"/>
      <use xlink:href="#CMR17-65" transform="translate(809.819637 36.153639)scale(0.697382)"/>
      <use xlink:href="#CMR17-29" transform="translate(838.657601 0)scale(0.996264)"/>
      <use xlink:href="#CMR17-5b" transform="translate(904.014335 0)scale(0.996264)"/>
      <use xlink:href="#CMR17-6b" transform="translate(928.885393 0)scale(0.996264)"/>
      <use xlink:href="#CMR17-70" transform="translate(977.178309 0)scale(0.996264)"/>
      <use xlink:href="#CMR17-63" transform="translate(1030.676118 0)scale(0.996264)"/>
      <use xlink:href="#CMR17-5d" transform="translate(1071.161778 0)scale(0.996264)"/>
     </g>
    </g>
   </g>
   <g id="matplotlib.axis_2">
    <g id="ytick_1">
     <g id="line2d_7">
      <defs>
       <path id="m30202364b0" d="M 0 0 
L -3.5 0 
" style="stroke: #000000; stroke-width: 0.8"/>
      </defs>
      <g>
       <use xlink:href="#m30202364b0" x="49.706667" y="297.148997" style="stroke: #000000; stroke-width: 0.8"/>
      </g>
     </g>
     <g id="text_8">
      <!-- 1 -->
      <g transform="translate(36.853677 301.300087)scale(0.12 -0.12)">
       <use xlink:href="#CMR17-31" transform="scale(0.996264)"/>
      </g>
     </g>
    </g>
    <g id="ytick_2">
     <g id="line2d_8">
      <g>
       <use xlink:href="#m30202364b0" x="49.706667" y="198.551384" style="stroke: #000000; stroke-width: 0.8"/>
      </g>
     </g>
     <g id="text_9">
      <!-- 10 -->
      <g transform="translate(31.000686 202.702474)scale(0.12 -0.12)">
       <use xlink:href="#CMR17-31" transform="scale(0.996264)"/>
       <use xlink:href="#CMR17-30" transform="translate(45.690477 0)scale(0.996264)"/>
      </g>
     </g>
    </g>
    <g id="ytick_3">
     <g id="line2d_9">
      <g>
       <use xlink:href="#m30202364b0" x="49.706667" y="99.953771" style="stroke: #000000; stroke-width: 0.8"/>
      </g>
     </g>
     <g id="text_10">
      <!-- 100 -->
      <g transform="translate(25.147696 104.104861)scale(0.12 -0.12)">
       <use xlink:href="#CMR17-31" transform="scale(0.996264)"/>
       <use xlink:href="#CMR17-30" transform="translate(45.690477 0)scale(0.996264)"/>
       <use xlink:href="#CMR17-30" transform="translate(91.380954 0)scale(0.996264)"/>
      </g>
     </g>
    </g>
    <g id="ytick_4">
     <g id="line2d_10">
      <g>
       <use xlink:href="#m30202364b0" x="49.706667" y="31.036997" style="stroke: #000000; stroke-width: 0.8"/>
      </g>
     </g>
     <g id="text_11">
      <!-- 500 -->
      <g transform="translate(25.147696 35.188087)scale(0.12 -0.12)">
       <defs>
        <path id="CMR17-35" d="M 730 3750 
C 794 3724 1056 3641 1325 3641 
C 1920 3641 2246 3961 2432 4140 
C 2432 4191 2432 4224 2394 4224 
C 2387 4224 2374 4224 2323 4198 
C 2099 4102 1837 4032 1517 4032 
C 1325 4032 1037 4055 723 4191 
C 653 4224 640 4224 634 4224 
C 602 4224 595 4217 595 4090 
L 595 2231 
C 595 2113 595 2080 659 2080 
C 691 2080 704 2093 736 2139 
C 941 2435 1222 2560 1542 2560 
C 1766 2560 2246 2415 2246 1293 
C 2246 1087 2246 716 2054 422 
C 1894 159 1645 25 1370 25 
C 947 25 518 319 403 812 
C 429 806 480 793 506 793 
C 589 793 749 838 749 1036 
C 749 1209 627 1280 506 1280 
C 358 1280 262 1190 262 1011 
C 262 454 704 -128 1382 -128 
C 2042 -128 2669 441 2669 1267 
C 2669 2054 2170 2662 1549 2662 
C 1222 2662 947 2540 730 2304 
L 730 3750 
z
" transform="scale(0.015625)"/>
       </defs>
       <use xlink:href="#CMR17-35" transform="scale(0.996264)"/>
       <use xlink:href="#CMR17-30" transform="translate(45.690477 0)scale(0.996264)"/>
       <use xlink:href="#CMR17-30" transform="translate(91.380954 0)scale(0.996264)"/>
      </g>
     </g>
    </g>
    <g id="ytick_5">
     <g id="line2d_11">
      <defs>
       <path id="m265ff80801" d="M 0 0 
L -2 0 
" style="stroke: #000000; stroke-width: 0.6"/>
      </defs>
      <g>
       <use xlink:href="#m265ff80801" x="49.706667" y="267.468158" style="stroke: #000000; stroke-width: 0.6"/>
      </g>
     </g>
    </g>
    <g id="ytick_6">
     <g id="line2d_12">
      <g>
       <use xlink:href="#m265ff80801" x="49.706667" y="250.10598" style="stroke: #000000; stroke-width: 0.6"/>
      </g>
     </g>
    </g>
    <g id="ytick_7">
     <g id="line2d_13">
      <g>
       <use xlink:href="#m265ff80801" x="49.706667" y="237.787319" style="stroke: #000000; stroke-width: 0.6"/>
      </g>
     </g>
    </g>
    <g id="ytick_8">
     <g id="line2d_14">
      <g>
       <use xlink:href="#m265ff80801" x="49.706667" y="228.232223" style="stroke: #000000; stroke-width: 0.6"/>
      </g>
     </g>
    </g>
    <g id="ytick_9">
     <g id="line2d_15">
      <g>
       <use xlink:href="#m265ff80801" x="49.706667" y="220.425141" style="stroke: #000000; stroke-width: 0.6"/>
      </g>
     </g>
    </g>
    <g id="ytick_10">
     <g id="line2d_16">
      <g>
       <use xlink:href="#m265ff80801" x="49.706667" y="213.824347" style="stroke: #000000; stroke-width: 0.6"/>
      </g>
     </g>
    </g>
    <g id="ytick_11">
     <g id="line2d_17">
      <g>
       <use xlink:href="#m265ff80801" x="49.706667" y="208.10648" style="stroke: #000000; stroke-width: 0.6"/>
      </g>
     </g>
    </g>
    <g id="ytick_12">
     <g id="line2d_18">
      <g>
       <use xlink:href="#m265ff80801" x="49.706667" y="203.062963" style="stroke: #000000; stroke-width: 0.6"/>
      </g>
     </g>
    </g>
    <g id="ytick_13">
     <g id="line2d_19">
      <g>
       <use xlink:href="#m265ff80801" x="49.706667" y="168.870545" style="stroke: #000000; stroke-width: 0.6"/>
      </g>
     </g>
    </g>
    <g id="ytick_14">
     <g id="line2d_20">
      <g>
       <use xlink:href="#m265ff80801" x="49.706667" y="151.508367" style="stroke: #000000; stroke-width: 0.6"/>
      </g>
     </g>
    </g>
    <g id="ytick_15">
     <g id="line2d_21">
      <g>
       <use xlink:href="#m265ff80801" x="49.706667" y="139.189706" style="stroke: #000000; stroke-width: 0.6"/>
      </g>
     </g>
    </g>
    <g id="ytick_16">
     <g id="line2d_22">
      <g>
       <use xlink:href="#m265ff80801" x="49.706667" y="129.63461" style="stroke: #000000; stroke-width: 0.6"/>
      </g>
     </g>
    </g>
    <g id="ytick_17">
     <g id="line2d_23">
      <g>
       <use xlink:href="#m265ff80801" x="49.706667" y="121.827528" style="stroke: #000000; stroke-width: 0.6"/>
      </g>
     </g>
    </g>
    <g id="ytick_18">
     <g id="line2d_24">
      <g>
       <use xlink:href="#m265ff80801" x="49.706667" y="115.226734" style="stroke: #000000; stroke-width: 0.6"/>
      </g>
     </g>
    </g>
    <g id="ytick_19">
     <g id="line2d_25">
      <g>
       <use xlink:href="#m265ff80801" x="49.706667" y="109.508867" style="stroke: #000000; stroke-width: 0.6"/>
      </g>
     </g>
    </g>
    <g id="ytick_20">
     <g id="line2d_26">
      <g>
       <use xlink:href="#m265ff80801" x="49.706667" y="104.46535" style="stroke: #000000; stroke-width: 0.6"/>
      </g>
     </g>
    </g>
    <g id="ytick_21">
     <g id="line2d_27">
      <g>
       <use xlink:href="#m265ff80801" x="49.706667" y="70.272932" style="stroke: #000000; stroke-width: 0.6"/>
      </g>
     </g>
    </g>
    <g id="ytick_22">
     <g id="line2d_28">
      <g>
       <use xlink:href="#m265ff80801" x="49.706667" y="52.910754" style="stroke: #000000; stroke-width: 0.6"/>
      </g>
     </g>
    </g>
    <g id="ytick_23">
     <g id="line2d_29">
      <g>
       <use xlink:href="#m265ff80801" x="49.706667" y="40.592093" style="stroke: #000000; stroke-width: 0.6"/>
      </g>
     </g>
    </g>
    <g id="text_12">
     <!-- Reconstructed Distance ($D^{\mathrm{rec}}$) [kpc] -->
     <g transform="translate(17.660772 271.53902)rotate(-90)scale(0.14 -0.14)">
      <defs>
       <path id="CMR17-52" d="M 2509 2156 
C 3117 2278 3629 2689 3629 3203 
C 3629 3806 2950 4352 2054 4352 
L 333 4352 
L 333 4185 
C 774 4185 845 4185 845 3896 
L 845 428 
C 845 140 774 140 333 140 
L 333 -26 
C 518 -13 851 -13 1050 -13 
C 1248 -13 1581 -13 1766 -26 
L 1766 140 
C 1325 140 1254 140 1254 428 
L 1254 2112 
L 2003 2112 
C 2368 2112 2573 1964 2662 1881 
C 2918 1632 2918 1459 2918 1024 
C 2918 595 2918 377 3110 160 
C 3354 -103 3680 -128 3821 -128 
C 4294 -128 4365 403 4365 512 
C 4365 550 4365 595 4307 595 
C 4256 595 4250 556 4250 531 
C 4218 115 4032 -26 3834 -26 
C 3482 -26 3443 377 3405 768 
C 3386 902 3373 998 3360 1139 
C 3322 1459 3270 1926 2509 2156 
z
M 1984 2214 
L 1254 2214 
L 1254 3935 
C 1254 4153 1267 4185 1523 4185 
L 1990 4185 
C 2522 4185 3142 3999 3142 3203 
C 3142 2374 2464 2214 1984 2214 
z
" transform="scale(0.015625)"/>
       <path id="CMR17-6f" d="M 2758 1356 
C 2758 2176 2163 2816 1466 2816 
C 768 2816 173 2176 173 1356 
C 173 550 768 -64 1466 -64 
C 2163 -64 2758 550 2758 1356 
z
M 1466 51 
C 1165 51 909 230 762 480 
C 602 768 582 1126 582 1408 
C 582 1676 595 2009 762 2297 
C 890 2508 1139 2713 1466 2713 
C 1754 2713 1997 2553 2150 2329 
C 2349 2028 2349 1606 2349 1408 
C 2349 1158 2336 774 2163 467 
C 1984 172 1709 51 1466 51 
z
" transform="scale(0.015625)"/>
       <path id="CMR17-64" d="M 1869 4345 
L 1869 4179 
C 2246 4179 2304 4141 2304 3843 
L 2304 2371 
C 2278 2403 2016 2816 1498 2816 
C 845 2816 211 2228 211 1376 
C 211 529 806 -64 1434 -64 
C 1978 -64 2259 361 2291 406 
L 2291 -64 
L 3066 -13 
L 3066 154 
C 2688 154 2630 193 2630 503 
L 2630 4416 
L 1869 4345 
z
M 2291 762 
C 2291 568 2176 393 2029 264 
C 1811 70 1594 38 1472 38 
C 1286 38 621 135 621 1369 
C 621 2636 1363 2713 1530 2713 
C 1824 2713 2061 2545 2208 2313 
C 2291 2177 2291 2157 2291 2041 
L 2291 762 
z
" transform="scale(0.015625)"/>
      </defs>
      <use xlink:href="#CMR17-52" transform="scale(0.996264)"/>
      <use xlink:href="#CMR17-65" transform="translate(67.791102 0)scale(0.996264)"/>
      <use xlink:href="#CMR17-63" transform="translate(108.276762 0)scale(0.996264)"/>
      <use xlink:href="#CMR17-6f" transform="translate(148.762423 0)scale(0.996264)"/>
      <use xlink:href="#CMR17-6e" transform="translate(194.4529 0)scale(0.996264)"/>
      <use xlink:href="#CMR17-73" transform="translate(245.34827 0)scale(0.996264)"/>
      <use xlink:href="#CMR17-74" transform="translate(281.149607 0)scale(0.996264)"/>
      <use xlink:href="#CMR17-72" transform="translate(316.430375 0)scale(0.996264)"/>
      <use xlink:href="#CMR17-75" transform="translate(351.711143 0)scale(0.996264)"/>
      <use xlink:href="#CMR17-63" transform="translate(402.606513 0)scale(0.996264)"/>
      <use xlink:href="#CMR17-74" transform="translate(443.092173 0)scale(0.996264)"/>
      <use xlink:href="#CMR17-65" transform="translate(478.372941 0)scale(0.996264)"/>
      <use xlink:href="#CMR17-64" transform="translate(518.858602 0)scale(0.996264)"/>
      <use xlink:href="#CMR17-44" transform="translate(599.829938 0)scale(0.996264)"/>
      <use xlink:href="#CMR17-69" transform="translate(670.223494 0)scale(0.996264)"/>
      <use xlink:href="#CMR17-73" transform="translate(695.094552 0)scale(0.996264)"/>
      <use xlink:href="#CMR17-74" transform="translate(730.89589 0)scale(0.996264)"/>
      <use xlink:href="#CMR17-61" transform="translate(766.176657 0)scale(0.996264)"/>
      <use xlink:href="#CMR17-6e" transform="translate(811.867135 0)scale(0.996264)"/>
      <use xlink:href="#CMR17-63" transform="translate(862.762504 0)scale(0.996264)"/>
      <use xlink:href="#CMR17-65" transform="translate(903.248165 0)scale(0.996264)"/>
      <use xlink:href="#CMR17-28" transform="translate(973.809792 0)scale(0.996264)"/>
      <use xlink:href="#CMMI12-44" transform="translate(1009.090559 0)scale(0.996264)"/>
      <use xlink:href="#CMR17-72" transform="translate(1092.794507 36.153639)scale(0.697382)"/>
      <use xlink:href="#CMR17-65" transform="translate(1117.490928 36.153639)scale(0.697382)"/>
      <use xlink:href="#CMR17-63" transform="translate(1145.830759 36.153639)scale(0.697382)"/>
      <use xlink:href="#CMR17-29" transform="translate(1174.668723 0)scale(0.996264)"/>
      <use xlink:href="#CMR17-5b" transform="translate(1240.025457 0)scale(0.996264)"/>
      <use xlink:href="#CMR17-6b" transform="translate(1264.896515 0)scale(0.996264)"/>
      <use xlink:href="#CMR17-70" transform="translate(1313.189431 0)scale(0.996264)"/>
      <use xlink:href="#CMR17-63" transform="translate(1366.68724 0)scale(0.996264)"/>
      <use xlink:href="#CMR17-5d" transform="translate(1407.1729 0)scale(0.996264)"/>
     </g>
    </g>
   </g>
   <g id="line2d_30">
    <path d="M 53.277867 299.400239 
L 56.849067 269.682001 
L 63.991467 239.894305 
L 71.133867 222.3911 
L 78.276267 210.460086 
L 85.418667 200.724536 
L 92.561067 192.583694 
L 99.703467 186.367881 
L 106.845867 180.726911 
L 113.988267 176.012362 
L 121.130667 169.855406 
L 128.273067 166.743625 
L 135.415467 163.656047 
L 142.557867 159.838727 
L 149.700267 155.680926 
L 156.842667 153.75293 
L 163.985067 150.080224 
L 171.127467 147.55299 
L 178.269867 146.707607 
L 185.412267 144.111137 
L 192.554667 141.787999 
L 199.697067 139.162185 
L 206.839467 135.930572 
L 213.981867 133.636077 
L 221.124267 134.138618 
L 228.266667 130.398278 
L 235.409067 127.446923 
L 242.551467 129.057862 
L 249.693867 125.117924 
L 256.836267 123.281908 
L 263.978667 123.558745 
L 271.121067 123.704146 
L 278.263467 118.906187 
L 285.405867 118.830466 
L 292.548267 116.545733 
L 299.690667 114.783601 
L 306.833067 115.051434 
L 313.975467 115.560914 
L 321.117867 110.561397 
L 328.260267 112.302654 
L 335.402667 110.350371 
L 342.545067 110.465924 
L 349.687467 109.799345 
L 356.829867 102.798777 
L 363.972267 107.403021 
L 371.114667 103.534992 
L 378.257067 105.495715 
L 385.399467 105.719873 
L 392.541867 101.159135 
L 399.684267 99.560735 
L 406.826667 101.305445 
" clip-path="url(#p4676171218)" style="fill: none; stroke: #ff7f0e; stroke-width: 2; stroke-linecap: square"/>
   </g>
   <g id="line2d_31">
    <path d="M 53.277867 297.148997 
L 56.849067 267.468158 
L 63.991467 237.787319 
L 71.133867 220.425141 
L 78.276267 208.10648 
L 85.418667 198.551384 
L 92.561067 190.744302 
L 99.703467 184.143508 
L 106.845867 178.425641 
L 113.988267 173.382124 
L 121.130667 168.870545 
L 128.273067 164.789325 
L 135.415467 161.063463 
L 142.557867 157.636002 
L 149.700267 154.462669 
L 156.842667 151.508367 
L 163.985067 148.744802 
L 171.127467 146.148831 
L 178.269867 143.701285 
L 185.412267 141.386105 
L 192.554667 139.189706 
L 199.697067 137.100491 
L 206.839467 135.108486 
L 213.981867 133.205044 
L 221.124267 131.382624 
L 228.266667 129.63461 
L 235.409067 127.955163 
L 242.551467 126.339107 
L 249.693867 124.78183 
L 256.836267 123.279206 
L 263.978667 121.827528 
L 271.121067 120.423455 
L 278.263467 119.063963 
L 285.405867 117.746308 
L 292.548267 116.467992 
L 299.690667 115.226734 
L 306.833067 114.020446 
L 313.975467 112.847211 
L 321.117867 111.705266 
L 328.260267 110.592985 
L 335.402667 109.508867 
L 342.545067 108.451519 
L 349.687467 107.419652 
L 356.829867 106.412067 
L 363.972267 105.427647 
L 371.114667 104.46535 
L 378.257067 103.524205 
L 385.399467 102.6033 
L 392.541867 101.701785 
L 399.684267 100.818859 
L 406.826667 99.953771 
" clip-path="url(#p4676171218)" style="fill: none; stroke-dasharray: 3.7,1.6; stroke-dashoffset: 0; stroke: #000000"/>
   </g>
   <g id="line2d_32">
    <path d="M 222.909867 297.148997 
L 222.909867 31.036997 
" clip-path="url(#p4676171218)" style="fill: none; stroke-dasharray: 3.7,1.6; stroke-dashoffset: 0; stroke: #dc143c"/>
   </g>
   <g id="line2d_33">
    <path d="M 78.276267 297.148997 
L 78.276267 31.036997 
" clip-path="url(#p4676171218)" style="fill: none; stroke-dasharray: 3.7,1.6; stroke-dashoffset: 0; stroke: #dc143c"/>
   </g>
   <g id="line2d_34">
    <path d="M 113.988267 297.148997 
L 113.988267 31.036997 
" clip-path="url(#p4676171218)" style="fill: none; stroke-dasharray: 3.7,1.6; stroke-dashoffset: 0; stroke: #dc143c"/>
   </g>
   <g id="patch_3">
    <path d="M 49.706667 297.148997 
L 49.706667 31.036997 
" style="fill: none; stroke: #000000; stroke-width: 0.8; stroke-linejoin: miter; stroke-linecap: square"/>
   </g>
   <g id="patch_4">
    <path d="M 406.826667 297.148997 
L 406.826667 31.036997 
" style="fill: none; stroke: #000000; stroke-width: 0.8; stroke-linejoin: miter; stroke-linecap: square"/>
   </g>
   <g id="patch_5">
    <path d="M 49.706667 297.148997 
L 406.826667 297.148997 
" style="fill: none; stroke: #000000; stroke-width: 0.8; stroke-linejoin: miter; stroke-linecap: square"/>
   </g>
   <g id="patch_6">
    <path d="M 49.706667 31.036997 
L 406.826667 31.036997 
" style="fill: none; stroke: #000000; stroke-width: 0.8; stroke-linejoin: miter; stroke-linecap: square"/>
   </g>
   <g id="text_13">
    <g id="patch_7">
     <path d="M 231.80799 203.982278 
L 346.146144 203.982278 
Q 349.446144 203.982278 349.446144 200.682278 
L 349.446144 179.677726 
Q 349.446144 176.377726 346.146144 176.377726 
L 231.80799 176.377726 
Q 228.50799 176.377726 228.50799 179.677726 
L 228.50799 200.682278 
Q 228.50799 203.982278 231.80799 203.982278 
z
" style="fill: #f5deb3; opacity: 0.7; stroke: #000000; stroke-linejoin: miter"/>
    </g>
    <!-- Large Megallanic Cloud  -->
    <g style="fill: #dc143c" transform="translate(231.80799 187.288073)scale(0.11 -0.11)">
     <defs>
      <path id="CMR17-4c" d="M 3469 1612 
L 3354 1612 
C 3302 981 3219 166 2125 166 
L 1530 166 
C 1274 166 1261 198 1261 414 
L 1261 3892 
C 1261 4121 1274 4185 1760 4185 
L 1901 4185 
L 1901 4352 
C 1638 4339 1331 4339 1069 4339 
C 870 4339 512 4339 326 4352 
L 326 4185 
C 768 4185 838 4185 838 3898 
L 838 453 
C 838 166 768 166 326 166 
L 326 0 
L 3315 0 
L 3469 1612 
z
" transform="scale(0.015625)"/>
      <path id="CMR17-67" d="M 710 1165 
C 832 1068 1043 960 1299 960 
C 1805 960 2240 1359 2240 1895 
C 2240 2063 2189 2321 1997 2521 
C 2176 2713 2438 2777 2586 2777 
C 2611 2777 2650 2777 2682 2758 
C 2656 2751 2598 2726 2598 2623 
C 2598 2540 2656 2483 2739 2483 
C 2835 2483 2886 2547 2886 2630 
C 2886 2751 2790 2880 2586 2880 
C 2330 2880 2106 2758 1926 2591 
C 1734 2764 1504 2828 1299 2828 
C 794 2828 358 2431 358 1895 
C 358 1527 570 1294 634 1230 
C 442 1004 442 742 442 710 
C 442 544 506 300 723 166 
C 390 82 128 -184 128 -517 
C 128 -996 736 -1344 1466 -1344 
C 2170 -1344 2803 -1009 2803 -510 
C 2803 384 1856 384 1363 384 
C 1216 384 954 384 922 390 
C 723 422 589 601 589 825 
C 589 883 589 1024 710 1165 
z
M 1299 1068 
C 736 1068 736 1766 736 1895 
C 736 2024 736 2719 1299 2719 
C 1862 2719 1862 2024 1862 1895 
C 1862 1766 1862 1068 1299 1068 
z
M 1466 -1236 
C 826 -1236 384 -883 384 -517 
C 384 -311 493 -118 634 -11 
C 794 102 858 102 1293 102 
C 1818 102 2547 102 2547 -517 
C 2547 -883 2106 -1236 1466 -1236 
z
" transform="scale(0.015625)"/>
      <path id="CMR17-4d" d="M 1338 4249 
C 1299 4345 1293 4352 1158 4352 
L 339 4352 
L 339 4185 
C 781 4185 851 4185 851 3898 
L 851 624 
C 851 465 851 166 339 166 
L 339 0 
C 486 12 755 12 915 12 
C 1075 12 1344 12 1491 0 
L 1491 166 
C 979 166 979 465 979 624 
L 979 4159 
L 986 4159 
L 2490 102 
C 2515 38 2528 0 2579 0 
C 2630 0 2643 38 2669 102 
L 4186 4191 
L 4192 4191 
L 4192 453 
C 4192 166 4122 166 3680 166 
L 3680 0 
C 3853 12 4198 12 4384 12 
C 4570 12 4922 12 5094 0 
L 5094 166 
C 4653 166 4582 166 4582 453 
L 4582 3898 
C 4582 4185 4653 4185 5094 4185 
L 5094 4352 
L 4282 4352 
C 4147 4352 4141 4345 4102 4249 
L 2720 516 
L 1338 4249 
z
" transform="scale(0.015625)"/>
      <path id="CMR17-6c" d="M 979 4416 
L 218 4345 
L 218 4179 
C 595 4179 653 4141 653 3835 
L 653 439 
C 653 198 627 166 218 166 
L 218 0 
C 371 12 653 12 813 12 
C 979 12 1261 12 1414 0 
L 1414 166 
C 1005 166 979 191 979 439 
L 979 4416 
z
" transform="scale(0.015625)"/>
      <path id="CMR17-43" d="M 3974 4351 
C 3974 4467 3968 4473 3930 4473 
C 3904 4473 3898 4467 3853 4390 
L 3571 3849 
C 3258 4249 2874 4480 2381 4480 
C 1286 4480 294 3507 294 2179 
C 294 837 1286 -128 2387 -128 
C 3366 -128 3974 741 3974 1482 
C 3974 1547 3974 1573 3917 1573 
C 3866 1573 3866 1553 3859 1495 
C 3808 592 3168 38 2477 38 
C 1824 38 781 502 781 2179 
C 781 3862 1843 4313 2464 4313 
C 3187 4313 3712 3681 3834 2785 
C 3846 2707 3846 2695 3904 2695 
C 3974 2695 3974 2707 3974 2824 
L 3974 4351 
z
" transform="scale(0.015625)"/>
     </defs>
     <use xlink:href="#CMR17-4c" transform="scale(0.996264)"/>
     <use xlink:href="#CMR17-61" transform="translate(57.381408 0)scale(0.996264)"/>
     <use xlink:href="#CMR17-72" transform="translate(103.071885 0)scale(0.996264)"/>
     <use xlink:href="#CMR17-67" transform="translate(138.352653 0)scale(0.996264)"/>
     <use xlink:href="#CMR17-65" transform="translate(184.04313 0)scale(0.996264)"/>
     <use xlink:href="#CMR17-4d" transform="translate(254.604757 0)scale(0.996264)"/>
     <use xlink:href="#CMR17-65" transform="translate(339.291697 0)scale(0.996264)"/>
     <use xlink:href="#CMR17-67" transform="translate(379.777358 0)scale(0.996264)"/>
     <use xlink:href="#CMR17-61" transform="translate(425.467835 0)scale(0.996264)"/>
     <use xlink:href="#CMR17-6c" transform="translate(471.158312 0)scale(0.996264)"/>
     <use xlink:href="#CMR17-6c" transform="translate(496.02937 0)scale(0.996264)"/>
     <use xlink:href="#CMR17-61" transform="translate(520.900429 0)scale(0.996264)"/>
     <use xlink:href="#CMR17-6e" transform="translate(566.590906 0)scale(0.996264)"/>
     <use xlink:href="#CMR17-69" transform="translate(617.486276 0)scale(0.996264)"/>
     <use xlink:href="#CMR17-63" transform="translate(642.357334 0)scale(0.996264)"/>
     <use xlink:href="#CMR17-43" transform="translate(712.918961 0)scale(0.996264)"/>
     <use xlink:href="#CMR17-6c" transform="translate(779.428842 0)scale(0.996264)"/>
     <use xlink:href="#CMR17-6f" transform="translate(804.2999 0)scale(0.996264)"/>
     <use xlink:href="#CMR17-75" transform="translate(849.990377 0)scale(0.996264)"/>
     <use xlink:href="#CMR17-64" transform="translate(900.885747 0)scale(0.996264)"/>
    </g>
    <!--  $D = 48.5 \, \mathrm{kpc}$ -->
    <g style="fill: #dc143c" transform="translate(257.80433 198.551384)scale(0.11 -0.11)">
     <defs>
      <path id="CMR17-3d" d="M 4115 2048 
C 4211 2048 4307 2048 4307 2156 
C 4307 2272 4198 2272 4090 2272 
L 512 2272 
C 403 2272 294 2272 294 2156 
C 294 2048 390 2048 486 2048 
L 4115 2048 
z
M 4090 927 
C 4198 927 4307 927 4307 1043 
C 4307 1152 4211 1152 4115 1152 
L 486 1152 
C 390 1152 294 1152 294 1043 
C 294 927 403 927 512 927 
L 4090 927 
z
" transform="scale(0.015625)"/>
      <path id="CMMI12-3a" d="M 1178 307 
C 1178 492 1024 620 870 620 
C 685 620 557 467 557 313 
C 557 128 710 0 864 0 
C 1050 0 1178 153 1178 307 
z
" transform="scale(0.015625)"/>
     </defs>
     <use xlink:href="#CMMI12-44" transform="scale(0.996264)"/>
     <use xlink:href="#CMR17-3d" transform="translate(111.377956 0)scale(0.996264)"/>
     <use xlink:href="#CMR17-34" transform="translate(210.766754 0)scale(0.996264)"/>
     <use xlink:href="#CMR17-38" transform="translate(256.457231 0)scale(0.996264)"/>
     <use xlink:href="#CMMI12-3a" transform="translate(302.147708 0)scale(0.996264)"/>
     <use xlink:href="#CMR17-35" transform="translate(329.244885 0)scale(0.996264)"/>
     <use xlink:href="#CMR17-6b" transform="translate(391.539767 0)scale(0.996264)"/>
     <use xlink:href="#CMR17-70" transform="translate(439.832683 0)scale(0.996264)"/>
     <use xlink:href="#CMR17-63" transform="translate(493.330492 0)scale(0.996264)"/>
    </g>
   </g>
   <g id="text_14">
    <g id="patch_8">
     <path d="M 85.267791 105.384665 
L 160.564743 105.384665 
Q 163.864743 105.384665 163.864743 102.084665 
L 163.864743 81.080113 
Q 163.864743 77.780113 160.564743 77.780113 
L 85.267791 77.780113 
Q 81.967791 77.780113 81.967791 81.080113 
L 81.967791 102.084665 
Q 81.967791 105.384665 85.267791 105.384665 
z
" style="fill: #f5deb3; opacity: 0.7; stroke: #000000; stroke-linejoin: miter"/>
    </g>
    <!-- Galactic Center  -->
    <g style="fill: #dc143c" transform="translate(85.267791 88.69046)scale(0.11 -0.11)">
     <defs>
      <path id="CMR17-47" d="M 3974 1258 
C 3974 1503 3994 1536 4390 1536 
L 4390 1702 
C 4237 1689 3891 1689 3718 1689 
C 3539 1689 3040 1696 2797 1702 
L 2797 1536 
L 2989 1536 
C 3539 1536 3552 1464 3552 1232 
L 3552 806 
C 3552 96 2720 38 2522 38 
C 1862 38 781 496 781 2179 
C 781 3862 1843 4313 2464 4313 
C 3187 4313 3712 3681 3834 2785 
C 3846 2708 3846 2695 3904 2695 
C 3974 2695 3974 2708 3974 2824 
L 3974 4351 
C 3974 4467 3968 4473 3930 4473 
C 3904 4473 3898 4467 3853 4390 
L 3571 3849 
C 3258 4249 2874 4480 2381 4480 
C 1286 4480 294 3507 294 2179 
C 294 858 1267 -128 2394 -128 
C 2912 -128 3418 57 3616 425 
C 3725 161 3904 -20 3936 -20 
C 3968 -20 3974 -13 3974 102 
L 3974 1258 
z
" transform="scale(0.015625)"/>
     </defs>
     <use xlink:href="#CMR17-47" transform="scale(0.996264)"/>
     <use xlink:href="#CMR17-61" transform="translate(72.355346 0)scale(0.996264)"/>
     <use xlink:href="#CMR17-6c" transform="translate(118.045823 0)scale(0.996264)"/>
     <use xlink:href="#CMR17-61" transform="translate(142.916882 0)scale(0.996264)"/>
     <use xlink:href="#CMR17-63" transform="translate(188.607359 0)scale(0.996264)"/>
     <use xlink:href="#CMR17-74" transform="translate(229.093019 0)scale(0.996264)"/>
     <use xlink:href="#CMR17-69" transform="translate(264.373787 0)scale(0.996264)"/>
     <use xlink:href="#CMR17-63" transform="translate(289.244845 0)scale(0.996264)"/>
     <use xlink:href="#CMR17-43" transform="translate(359.806472 0)scale(0.996264)"/>
     <use xlink:href="#CMR17-65" transform="translate(426.316353 0)scale(0.996264)"/>
     <use xlink:href="#CMR17-6e" transform="translate(466.802013 0)scale(0.996264)"/>
     <use xlink:href="#CMR17-74" transform="translate(515.094929 0)scale(0.996264)"/>
     <use xlink:href="#CMR17-65" transform="translate(550.375697 0)scale(0.996264)"/>
     <use xlink:href="#CMR17-72" transform="translate(590.861357 0)scale(0.996264)"/>
    </g>
    <!--  $D = 8 \, \mathrm{kpc}$ -->
    <g style="fill: #dc143c" transform="translate(98.745068 99.953771)scale(0.11 -0.11)">
     <use xlink:href="#CMMI12-44" transform="scale(0.996264)"/>
     <use xlink:href="#CMR17-3d" transform="translate(111.377956 0)scale(0.996264)"/>
     <use xlink:href="#CMR17-38" transform="translate(210.766754 0)scale(0.996264)"/>
     <use xlink:href="#CMR17-6b" transform="translate(273.061636 0)scale(0.996264)"/>
     <use xlink:href="#CMR17-70" transform="translate(321.354552 0)scale(0.996264)"/>
     <use xlink:href="#CMR17-63" transform="translate(374.85236 0)scale(0.996264)"/>
    </g>
   </g>
   <g id="text_15">
    <g id="patch_9">
     <path d="M 120.625823 225.856036 
L 182.345911 225.856036 
Q 185.645911 225.856036 185.645911 222.556036 
L 185.645911 201.551484 
Q 185.645911 198.251484 182.345911 198.251484 
L 120.625823 198.251484 
Q 117.325823 198.251484 117.325823 201.551484 
L 117.325823 222.556036 
Q 117.325823 225.856036 120.625823 225.856036 
z
" style="fill: #f5deb3; opacity: 0.7; stroke: #000000; stroke-linejoin: miter"/>
    </g>
    <!-- Galaxy Edge  -->
    <g style="fill: #dc143c" transform="translate(120.625823 209.16183)scale(0.11 -0.11)">
     <defs>
      <path id="CMR17-78" d="M 1664 1491 
C 1856 1740 2074 2022 2253 2233 
C 2464 2476 2707 2579 2989 2585 
L 2989 2752 
C 2880 2745 2656 2739 2541 2739 
C 2368 2739 2170 2739 2022 2752 
L 2022 2585 
C 2112 2572 2163 2508 2163 2419 
C 2163 2304 2099 2233 2067 2188 
L 1594 1587 
L 1030 2323 
C 973 2393 973 2406 973 2438 
C 973 2515 1037 2579 1146 2585 
L 1146 2752 
C 992 2739 717 2739 557 2739 
C 384 2739 179 2739 38 2752 
L 38 2585 
C 384 2585 461 2560 614 2368 
L 1350 1414 
C 1363 1401 1395 1363 1395 1344 
C 1395 1318 838 633 768 544 
C 480 198 179 172 6 166 
L 6 0 
C 115 6 339 12 454 12 
C 582 12 864 12 979 0 
L 979 166 
C 941 172 838 185 838 332 
C 838 448 890 518 947 595 
L 1478 1248 
L 2035 524 
C 2086 454 2163 358 2163 313 
C 2163 224 2086 172 1984 166 
L 1984 0 
C 2138 12 2413 12 2573 12 
C 2746 12 2950 12 3091 0 
L 3091 166 
C 2771 166 2675 179 2522 377 
L 1664 1491 
z
" transform="scale(0.015625)"/>
      <path id="CMR17-79" d="M 2496 2183 
C 2656 2579 2944 2585 3034 2585 
L 3034 2752 
C 2912 2745 2752 2739 2630 2739 
C 2496 2739 2285 2739 2157 2752 
L 2157 2585 
C 2400 2566 2406 2384 2406 2332 
C 2406 2268 2394 2235 2362 2158 
L 1664 409 
L 902 2300 
C 870 2378 870 2423 870 2430 
C 870 2572 1018 2585 1171 2585 
L 1171 2752 
C 1018 2739 742 2739 582 2739 
C 410 2739 205 2739 64 2752 
L 64 2585 
C 410 2585 448 2553 531 2345 
L 1485 -31 
C 1197 -795 1030 -1242 627 -1242 
C 557 -1242 397 -1223 282 -1106 
C 429 -1093 493 -1002 493 -892 
C 493 -782 416 -685 288 -685 
C 147 -685 77 -782 77 -899 
C 77 -1158 339 -1344 627 -1344 
C 998 -1344 1229 -983 1357 -659 
L 2496 2183 
z
" transform="scale(0.015625)"/>
      <path id="CMR17-45" d="M 3885 1614 
L 3770 1614 
C 3629 676 3546 166 2419 166 
L 1530 166 
C 1274 166 1261 198 1261 415 
L 1261 2176 
L 1862 2176 
C 2464 2176 2522 1959 2522 1429 
L 2637 1429 
L 2637 3086 
L 2522 3086 
C 2522 2558 2464 2342 1862 2342 
L 1261 2342 
L 1261 3924 
C 1261 4141 1274 4172 1530 4172 
L 2406 4172 
C 3398 4172 3514 3778 3603 2933 
L 3718 2933 
L 3565 4339 
L 326 4339 
L 326 4172 
C 768 4172 838 4172 838 3886 
L 838 453 
C 838 166 768 166 326 166 
L 326 0 
L 3654 0 
L 3885 1614 
z
" transform="scale(0.015625)"/>
     </defs>
     <use xlink:href="#CMR17-47" transform="scale(0.996264)"/>
     <use xlink:href="#CMR17-61" transform="translate(72.355346 0)scale(0.996264)"/>
     <use xlink:href="#CMR17-6c" transform="translate(118.045823 0)scale(0.996264)"/>
     <use xlink:href="#CMR17-61" transform="translate(142.916882 0)scale(0.996264)"/>
     <use xlink:href="#CMR17-78" transform="translate(188.607359 0)scale(0.996264)"/>
     <use xlink:href="#CMR17-79" transform="translate(236.900274 0)scale(0.996264)"/>
     <use xlink:href="#CMR17-45" transform="translate(315.269157 0)scale(0.996264)"/>
     <use xlink:href="#CMR17-64" transform="translate(377.855457 0)scale(0.996264)"/>
     <use xlink:href="#CMR17-67" transform="translate(428.750827 0)scale(0.996264)"/>
     <use xlink:href="#CMR17-65" transform="translate(474.441304 0)scale(0.996264)"/>
    </g>
    <!--  $D = 18 \, \mathrm{kpc}$ -->
    <g style="fill: #dc143c" transform="translate(124.574934 220.425141)scale(0.11 -0.11)">
     <use xlink:href="#CMMI12-44" transform="scale(0.996264)"/>
     <use xlink:href="#CMR17-3d" transform="translate(111.377956 0)scale(0.996264)"/>
     <use xlink:href="#CMR17-31" transform="translate(210.766754 0)scale(0.996264)"/>
     <use xlink:href="#CMR17-38" transform="translate(256.457231 0)scale(0.996264)"/>
     <use xlink:href="#CMR17-6b" transform="translate(318.752113 0)scale(0.996264)"/>
     <use xlink:href="#CMR17-70" transform="translate(367.045029 0)scale(0.996264)"/>
     <use xlink:href="#CMR17-63" transform="translate(420.542837 0)scale(0.996264)"/>
    </g>
   </g>
   <g id="text_16">
    <!-- DUNE distance reconstruction for 27 $M_\odot$ CCSN -->
    <g transform="translate(33.544338 21.036997)scale(0.2 -0.2)">
     <defs>
      <path id="CMR17-55" d="M 3456 1442 
C 3456 583 2899 38 2291 38 
C 1965 38 1670 211 1491 480 
C 1286 788 1261 1185 1261 1410 
L 1261 3897 
C 1261 4185 1331 4185 1773 4185 
L 1773 4352 
C 1587 4339 1248 4339 1050 4339 
C 851 4339 512 4339 326 4352 
L 326 4185 
C 768 4185 838 4185 838 3897 
L 838 1442 
C 838 519 1536 -128 2278 -128 
C 3110 -128 3590 724 3590 1352 
L 3590 3788 
C 3590 4147 3917 4185 4102 4185 
L 4102 4352 
C 3955 4339 3686 4339 3526 4339 
C 3366 4339 3091 4339 2944 4352 
L 2944 4185 
C 3456 4185 3456 3884 3456 3724 
L 3456 1442 
z
" transform="scale(0.015625)"/>
      <path id="CMR17-4e" d="M 1312 4275 
C 1267 4345 1261 4352 1139 4352 
L 326 4352 
L 326 4185 
L 448 4185 
C 704 4185 819 4153 838 4147 
L 838 624 
C 838 465 838 166 326 166 
L 326 0 
C 474 12 742 12 902 12 
C 1062 12 1331 12 1478 0 
L 1478 166 
C 966 166 966 465 966 624 
L 966 4057 
C 1011 4019 1011 4007 1056 3943 
L 3430 76 
C 3475 0 3494 0 3526 0 
C 3590 0 3590 19 3590 140 
L 3590 3726 
C 3590 3885 3590 4185 4102 4185 
L 4102 4352 
C 3955 4339 3686 4339 3526 4339 
C 3366 4339 3098 4339 2950 4352 
L 2950 4185 
C 3462 4185 3462 3885 3462 3726 
L 3462 777 
L 1312 4275 
z
" transform="scale(0.015625)"/>
      <path id="CMR17-66" d="M 979 2585 
L 1709 2585 
L 1709 2752 
L 966 2752 
L 966 3539 
C 966 4076 1235 4377 1510 4377 
C 1594 4377 1690 4363 1754 4339 
C 1702 4326 1568 4281 1568 4121 
C 1568 3955 1696 3904 1786 3904 
C 1875 3904 2003 3955 2003 4121 
C 2003 4353 1773 4480 1517 4480 
C 1152 4480 653 4211 653 3526 
L 653 2752 
L 141 2752 
L 141 2585 
L 653 2585 
L 653 441 
C 653 198 627 166 218 166 
L 218 0 
C 371 12 666 12 832 12 
C 1018 12 1344 12 1517 0 
L 1517 166 
C 1056 166 979 166 979 454 
L 979 2585 
z
" transform="scale(0.015625)"/>
      <path id="CMR17-37" d="M 2886 3955 
L 2886 4096 
L 1382 4096 
C 634 4096 621 4166 595 4288 
L 480 4288 
L 294 3104 
L 410 3104 
C 429 3226 474 3552 550 3673 
C 589 3724 1062 3724 1171 3724 
L 2579 3724 
L 1869 2670 
C 1395 1961 1069 1003 1069 166 
C 1069 89 1069 -128 1299 -128 
C 1530 -128 1530 89 1530 172 
L 1530 466 
C 1530 1514 1709 2204 2003 2644 
L 2886 3955 
z
" transform="scale(0.015625)"/>
      <path id="CMMI12-4d" d="M 5811 3886 
C 5869 4102 5882 4166 6336 4166 
C 6458 4166 6515 4166 6515 4287 
C 6515 4352 6470 4352 6349 4352 
L 5581 4352 
C 5421 4352 5414 4345 5344 4243 
L 3008 567 
L 2528 4211 
C 2509 4352 2502 4352 2336 4352 
L 1542 4352 
C 1421 4352 1363 4352 1363 4230 
C 1363 4166 1421 4166 1517 4166 
C 1907 4166 1907 4115 1907 4045 
C 1907 4032 1907 3994 1882 3898 
L 1062 650 
C 986 344 838 204 410 185 
C 390 185 314 179 314 70 
C 314 0 371 0 397 0 
C 525 0 851 12 979 12 
L 1286 12 
C 1376 12 1485 0 1574 0 
C 1619 0 1690 0 1690 121 
C 1690 179 1626 185 1600 185 
C 1389 191 1184 230 1184 459 
C 1184 523 1184 529 1210 618 
L 2093 4128 
L 2099 4128 
L 2630 172 
C 2650 19 2656 0 2714 0 
C 2784 0 2816 51 2848 108 
L 5421 4159 
L 5427 4159 
L 4499 472 
C 4442 249 4429 185 3981 185 
C 3859 185 3795 185 3795 70 
C 3795 0 3853 0 3891 0 
C 4000 0 4128 12 4237 12 
L 4992 12 
C 5101 12 5235 0 5344 0 
C 5395 0 5466 0 5466 121 
C 5466 185 5408 185 5312 185 
C 4922 185 4922 236 4922 300 
C 4922 306 4922 351 4934 402 
L 5811 3886 
z
" transform="scale(0.015625)"/>
      <path id="CMSY10-c" d="M 4621 1606 
C 4621 2787 3661 3744 2490 3744 
C 1299 3744 352 2774 352 1606 
C 352 419 1312 -545 2483 -545 
C 3674 -545 4621 432 4621 1606 
z
M 2490 -384 
C 1389 -384 512 516 512 1606 
C 512 2709 1408 3584 2483 3584 
C 3584 3584 4461 2690 4461 1606 
C 4461 497 3565 -384 2490 -384 
z
M 2925 1606 
C 2925 1849 2726 2048 2490 2048 
C 2234 2048 2048 1836 2048 1606 
C 2048 1363 2246 1164 2483 1164 
C 2739 1164 2925 1375 2925 1606 
z
" transform="scale(0.015625)"/>
      <path id="CMR17-53" d="M 2803 4351 
C 2803 4467 2797 4473 2758 4473 
C 2720 4473 2707 4447 2682 4390 
L 2490 3965 
C 2246 4320 1875 4480 1472 4480 
C 819 4480 294 3958 294 3301 
C 294 3101 339 2817 557 2546 
C 794 2250 1018 2198 1530 2063 
C 1722 2011 2042 1927 2106 1901 
C 2470 1747 2662 1360 2662 999 
C 2662 534 2336 38 1779 38 
C 1094 38 454 425 410 1328 
C 403 1431 397 1437 352 1437 
C 301 1437 294 1431 294 1302 
L 294 0 
C 294 -116 301 -122 339 -122 
C 384 -122 397 -90 486 109 
C 493 128 493 141 614 386 
C 934 -39 1472 -128 1779 -128 
C 2477 -128 2970 457 2970 1141 
C 2970 1476 2848 1734 2778 1850 
C 2509 2263 2221 2340 1914 2417 
C 1869 2437 1856 2437 1498 2527 
C 1152 2617 1005 2662 845 2836 
C 666 3036 602 3243 602 3449 
C 602 3868 934 4326 1478 4326 
C 2157 4326 2579 3842 2675 3036 
C 2694 2920 2701 2914 2746 2914 
C 2803 2914 2803 2933 2803 3043 
L 2803 4351 
z
" transform="scale(0.015625)"/>
     </defs>
     <use xlink:href="#CMR17-44" transform="scale(0.996264)"/>
     <use xlink:href="#CMR17-55" transform="translate(70.393556 0)scale(0.996264)"/>
     <use xlink:href="#CMR17-4e" transform="translate(139.465986 0)scale(0.996264)"/>
     <use xlink:href="#CMR17-45" transform="translate(208.538416 0)scale(0.996264)"/>
     <use xlink:href="#CMR17-64" transform="translate(301.200682 0)scale(0.996264)"/>
     <use xlink:href="#CMR17-69" transform="translate(352.096052 0)scale(0.996264)"/>
     <use xlink:href="#CMR17-73" transform="translate(376.967111 0)scale(0.996264)"/>
     <use xlink:href="#CMR17-74" transform="translate(412.768448 0)scale(0.996264)"/>
     <use xlink:href="#CMR17-61" transform="translate(448.049216 0)scale(0.996264)"/>
     <use xlink:href="#CMR17-6e" transform="translate(493.739693 0)scale(0.996264)"/>
     <use xlink:href="#CMR17-63" transform="translate(544.635063 0)scale(0.996264)"/>
     <use xlink:href="#CMR17-65" transform="translate(585.120723 0)scale(0.996264)"/>
     <use xlink:href="#CMR17-72" transform="translate(655.68235 0)scale(0.996264)"/>
     <use xlink:href="#CMR17-65" transform="translate(690.963118 0)scale(0.996264)"/>
     <use xlink:href="#CMR17-63" transform="translate(731.448779 0)scale(0.996264)"/>
     <use xlink:href="#CMR17-6f" transform="translate(771.934439 0)scale(0.996264)"/>
     <use xlink:href="#CMR17-6e" transform="translate(817.624916 0)scale(0.996264)"/>
     <use xlink:href="#CMR17-73" transform="translate(868.520286 0)scale(0.996264)"/>
     <use xlink:href="#CMR17-74" transform="translate(904.321624 0)scale(0.996264)"/>
     <use xlink:href="#CMR17-72" transform="translate(939.602391 0)scale(0.996264)"/>
     <use xlink:href="#CMR17-75" transform="translate(974.883159 0)scale(0.996264)"/>
     <use xlink:href="#CMR17-63" transform="translate(1025.778529 0)scale(0.996264)"/>
     <use xlink:href="#CMR17-74" transform="translate(1066.264189 0)scale(0.996264)"/>
     <use xlink:href="#CMR17-69" transform="translate(1101.544957 0)scale(0.996264)"/>
     <use xlink:href="#CMR17-6f" transform="translate(1126.416016 0)scale(0.996264)"/>
     <use xlink:href="#CMR17-6e" transform="translate(1172.106493 0)scale(0.996264)"/>
     <use xlink:href="#CMR17-66" transform="translate(1253.077829 0)scale(0.996264)"/>
     <use xlink:href="#CMR17-6f" transform="translate(1280.551341 0)scale(0.996264)"/>
     <use xlink:href="#CMR17-72" transform="translate(1326.241818 0)scale(0.996264)"/>
     <use xlink:href="#CMR17-32" transform="translate(1391.598553 0)scale(0.996264)"/>
     <use xlink:href="#CMR17-37" transform="translate(1437.28903 0)scale(0.996264)"/>
     <use xlink:href="#CMMI12-4d" transform="translate(1513.055473 0)scale(0.996264)"/>
     <use xlink:href="#CMSY10-c" transform="translate(1607.428898 -14.943915)scale(0.697382)"/>
     <use xlink:href="#CMR17-43" transform="translate(1692.24399 0)scale(0.996264)"/>
     <use xlink:href="#CMR17-43" transform="translate(1758.75387 0)scale(0.996264)"/>
     <use xlink:href="#CMR17-53" transform="translate(1825.263751 0)scale(0.996264)"/>
     <use xlink:href="#CMR17-4e" transform="translate(1876.159121 0)scale(0.996264)"/>
    </g>
   </g>
   <g id="legend_1">
    <g id="patch_10">
     <path d="M 247.977941 291.148997 
L 398.426667 291.148997 
Q 400.826667 291.148997 400.826667 288.748997 
L 400.826667 256.499805 
Q 400.826667 254.099805 398.426667 254.099805 
L 247.977941 254.099805 
Q 245.577941 254.099805 245.577941 256.499805 
L 245.577941 288.748997 
Q 245.577941 291.148997 247.977941 291.148997 
z
" style="fill: #ffffff; opacity: 0.8; stroke: #cccccc; stroke-linejoin: miter"/>
    </g>
    <g id="line2d_35">
     <path d="M 250.377941 263.099805 
L 262.377941 263.099805 
L 274.377941 263.099805 
" style="fill: none; stroke: #ff7f0e; stroke-width: 2; stroke-linecap: square"/>
    </g>
    <g id="text_17">
     <!-- Median -->
     <g transform="translate(283.977941 267.299805)scale(0.12 -0.12)">
      <use xlink:href="#CMR17-4d" transform="scale(0.996264)"/>
      <use xlink:href="#CMR17-65" transform="translate(84.686941 0)scale(0.996264)"/>
      <use xlink:href="#CMR17-64" transform="translate(125.172601 0)scale(0.996264)"/>
      <use xlink:href="#CMR17-69" transform="translate(176.067971 0)scale(0.996264)"/>
      <use xlink:href="#CMR17-61" transform="translate(200.939029 0)scale(0.996264)"/>
      <use xlink:href="#CMR17-6e" transform="translate(246.629506 0)scale(0.996264)"/>
     </g>
    </g>
    <g id="patch_11">
     <path d="M 250.377941 284.024401 
L 274.377941 284.024401 
L 274.377941 275.624401 
L 250.377941 275.624401 
z
" style="fill: #f57d15; fill-opacity: 0.5; stroke: #f57d15; stroke-opacity: 0.5; stroke-linejoin: miter"/>
    </g>
    <g id="text_18">
     <!-- 3 $\sigma$ -->
     <g transform="translate(283.977941 284.024401)scale(0.12 -0.12)">
      <defs>
       <path id="CMR17-33" d="M 1414 2176 
C 1984 2176 2234 1673 2234 1094 
C 2234 322 1824 25 1453 25 
C 1114 25 563 193 390 691 
C 422 678 454 678 486 678 
C 640 678 755 780 755 947 
C 755 1132 614 1216 486 1216 
C 378 1216 211 1164 211 927 
C 211 335 787 -128 1466 -128 
C 2176 -128 2720 432 2720 1087 
C 2720 1718 2208 2176 1600 2246 
C 2086 2347 2554 2776 2554 3353 
C 2554 3856 2048 4224 1472 4224 
C 890 4224 378 3862 378 3347 
C 378 3123 544 3084 627 3084 
C 762 3084 877 3167 877 3334 
C 877 3500 762 3584 627 3584 
C 602 3584 570 3584 544 3571 
C 730 3999 1235 4076 1459 4076 
C 1683 4076 2106 3966 2106 3347 
C 2106 3167 2080 2851 1862 2574 
C 1670 2329 1453 2316 1242 2297 
C 1210 2297 1062 2284 1037 2284 
C 992 2278 966 2272 966 2227 
C 966 2182 973 2176 1101 2176 
L 1414 2176 
z
" transform="scale(0.015625)"/>
       <path id="CMMI12-1b" d="M 3251 2406 
C 3334 2406 3546 2406 3546 2611 
C 3546 2752 3424 2752 3309 2752 
L 1894 2752 
C 934 2752 243 1685 243 932 
C 243 389 595 -64 1171 -64 
C 1926 -64 2752 746 2752 1704 
C 2752 1953 2694 2195 2541 2406 
L 3251 2406 
z
M 1178 64 
C 851 64 614 312 614 753 
C 614 1136 845 2406 1786 2406 
C 2061 2406 2368 2272 2368 1780 
C 2368 1557 2266 1021 2042 651 
C 1811 274 1466 64 1178 64 
z
" transform="scale(0.015625)"/>
      </defs>
      <use xlink:href="#CMR17-33" transform="scale(0.996264)"/>
      <use xlink:href="#CMMI12-1b" transform="translate(75.766443 0)scale(0.996264)"/>
     </g>
    </g>
    <g id="patch_12">
     <path d="M 346.018228 267.299805 
L 370.018228 267.299805 
L 370.018228 258.899805 
L 346.018228 258.899805 
z
" style="fill: #9f2a63; fill-opacity: 0.5; stroke: #9f2a63; stroke-opacity: 0.5; stroke-linejoin: miter"/>
    </g>
    <g id="text_19">
     <!-- 2 $\sigma$ -->
     <g transform="translate(379.618228 267.299805)scale(0.12 -0.12)">
      <use xlink:href="#CMR17-32" transform="scale(0.996264)"/>
      <use xlink:href="#CMMI12-1b" transform="translate(75.766443 0)scale(0.996264)"/>
     </g>
    </g>
    <g id="patch_13">
     <path d="M 346.018228 284.024401 
L 370.018228 284.024401 
L 370.018228 275.624401 
L 346.018228 275.624401 
z
" style="fill: #280b53; fill-opacity: 0.6; stroke: #280b53; stroke-opacity: 0.6; stroke-linejoin: miter"/>
    </g>
    <g id="text_20">
     <!-- 1 $\sigma$ -->
     <g transform="translate(379.618228 284.024401)scale(0.12 -0.12)">
      <use xlink:href="#CMR17-31" transform="scale(0.996264)"/>
      <use xlink:href="#CMMI12-1b" transform="translate(75.766443 0)scale(0.996264)"/>
     </g>
    </g>
   </g>
  </g>
 </g>
 <defs>
  <clipPath id="p4676171218">
   <rect x="49.706667" y="31.036997" width="357.12" height="266.112"/>
  </clipPath>
 </defs>
</svg>
