<?xml version="1.0" encoding="utf-8" standalone="no"?>
<!DOCTYPE svg PUBLIC "-//W3C//DTD SVG 1.1//EN"
  "http://www.w3.org/Graphics/SVG/1.1/DTD/svg11.dtd">
<svg xmlns:xlink="http://www.w3.org/1999/xlink" width="505.008537pt" height="426.931498pt" viewBox="0 0 505.008537 426.931498" xmlns="http://www.w3.org/2000/svg" version="1.1">
 <metadata>
  <rdf:RDF xmlns:dc="http://purl.org/dc/elements/1.1/" xmlns:cc="http://creativecommons.org/ns#" xmlns:rdf="http://www.w3.org/1999/02/22-rdf-syntax-ns#">
   <cc:Work>
    <dc:type rdf:resource="http://purl.org/dc/dcmitype/StillImage"/>
    <dc:date>2023-04-23T12:18:44.479891</dc:date>
    <dc:format>image/svg+xml</dc:format>
    <dc:creator>
     <cc:Agent>
      <dc:title>Matplotlib v3.5.1, https://matplotlib.org/</dc:title>
     </cc:Agent>
    </dc:creator>
   </cc:Work>
  </rdf:RDF>
 </metadata>
 <defs>
  <style type="text/css">*{stroke-linejoin: round; stroke-linecap: butt}</style>
 </defs>
 <g id="figure_1">
  <g id="patch_1">
   <path d="M 0 426.931498 
L 505.008537 426.931498 
L 505.008537 0 
L 0 0 
z
" style="fill: #ffffff"/>
  </g>
  <g id="axes_1">
   <g id="patch_2">
    <path d="M 45.555547 384.157026 
L 491.955547 384.157026 
L 491.955547 51.517026 
L 45.555547 51.517026 
z
" style="fill: #ffffff"/>
   </g>
   <g id="PolyCollection_1">
    <defs>
     <path id="mac438a43af" d="M 108.272929 -42.774608 
L 108.272929 -42.774472 
L 110.35696 -42.774472 
L 112.440992 -42.774472 
L 114.525024 -42.774472 
L 116.609056 -42.774472 
L 118.693088 -42.774472 
L 120.77712 -42.774472 
L 122.861152 -42.774472 
L 124.945184 -42.774472 
L 127.029216 -42.774472 
L 129.113248 -42.774472 
L 131.19728 -42.774472 
L 133.281312 -42.774472 
L 135.365344 -42.774472 
L 137.449376 -42.774472 
L 139.533408 -42.774472 
L 141.61744 -42.774472 
L 143.701472 -42.774472 
L 145.785504 -42.774472 
L 147.869536 -42.774472 
L 149.953568 -42.774472 
L 152.0376 -42.774472 
L 154.121632 -42.774472 
L 156.205664 -42.774472 
L 158.289696 -42.774472 
L 160.373728 -42.774472 
L 162.45776 -42.774472 
L 164.541792 -42.774472 
L 166.625824 -42.774472 
L 168.709855 -42.774472 
L 170.793887 -42.774472 
L 172.877919 -42.774472 
L 174.961951 -42.774472 
L 177.045983 -42.774472 
L 179.130015 -42.774472 
L 181.214047 -42.774472 
L 183.298079 -42.774472 
L 185.382111 -42.774472 
L 187.466143 -42.774472 
L 189.550175 -42.774472 
L 191.634207 -42.774472 
L 193.718239 -42.774472 
L 195.802271 -42.774472 
L 197.886303 -42.774472 
L 199.970335 -42.774472 
L 202.054367 -42.774472 
L 204.138399 -42.774472 
L 206.222431 -42.774472 
L 208.306463 -42.774472 
L 210.390495 -42.774472 
L 212.474527 -42.774472 
L 214.558559 -42.774472 
L 216.642591 -42.774472 
L 218.726623 -42.774472 
L 220.810655 -42.774472 
L 222.894687 -42.774472 
L 224.978719 -42.774472 
L 227.06275 -42.774472 
L 229.146782 -42.774472 
L 231.230814 -42.774472 
L 233.314846 -42.774472 
L 235.398878 -42.774472 
L 237.48291 -42.774472 
L 239.566942 -42.774472 
L 241.650974 -42.774472 
L 243.735006 -42.774472 
L 245.819038 -42.774472 
L 247.90307 -42.774472 
L 249.987102 -42.774472 
L 252.071134 -42.774472 
L 254.155166 -42.774472 
L 256.239198 -42.774472 
L 258.32323 -42.774472 
L 260.407262 -42.774472 
L 262.491294 -42.774472 
L 264.575326 -42.774472 
L 266.659358 -42.774472 
L 268.74339 -42.774472 
L 270.827422 -42.774472 
L 272.911454 -42.774472 
L 274.995486 -42.774472 
L 277.079518 -42.774472 
L 279.16355 -42.774472 
L 281.247582 -42.774472 
L 283.331614 -42.774472 
L 285.415645 -42.774472 
L 287.499677 -42.774472 
L 289.583709 -42.774472 
L 291.667741 -42.774472 
L 293.751773 -42.774472 
L 295.835805 -42.774472 
L 297.919837 -42.774472 
L 300.003869 -42.774472 
L 302.087901 -42.774472 
L 304.171933 -42.774472 
L 306.255965 -42.774472 
L 308.339997 -42.774472 
L 310.424029 -42.774472 
L 312.508061 -42.774472 
L 314.592093 -42.774472 
L 316.676125 -42.774472 
L 318.760157 -42.774472 
L 320.844189 -42.774472 
L 322.928221 -42.774472 
L 325.012253 -42.774472 
L 327.096285 -42.774472 
L 329.180317 -42.774472 
L 331.264349 -42.774472 
L 333.348381 -42.774472 
L 335.432413 -42.774472 
L 337.516445 -42.774472 
L 339.600477 -42.774472 
L 341.684509 -42.774472 
L 343.76854 -42.774472 
L 345.852572 -42.774472 
L 347.936604 -42.774472 
L 350.020636 -42.774472 
L 352.104668 -42.774472 
L 354.1887 -42.774472 
L 356.272732 -42.774472 
L 358.356764 -42.774472 
L 360.440796 -42.774472 
L 362.524828 -42.774472 
L 364.60886 -42.774472 
L 366.692892 -42.774472 
L 368.776924 -42.774472 
L 370.860956 -42.774472 
L 372.944988 -42.774472 
L 375.02902 -42.774472 
L 377.113052 -42.774472 
L 379.197084 -42.774472 
L 381.281116 -42.774472 
L 383.365148 -42.774472 
L 385.44918 -42.774472 
L 387.533212 -42.774472 
L 389.617244 -42.774472 
L 391.701276 -42.774472 
L 393.785308 -42.774472 
L 395.86934 -42.774472 
L 397.953372 -42.774472 
L 400.037404 -42.774472 
L 402.121436 -42.774472 
L 404.205467 -42.774472 
L 406.289499 -42.774472 
L 408.373531 -42.774472 
L 410.457563 -42.774472 
L 412.541595 -42.774472 
L 414.625627 -42.774472 
L 416.709659 -42.774472 
L 418.793691 -42.774472 
L 420.877723 -42.774472 
L 422.961755 -42.774472 
L 425.045787 -42.774472 
L 427.129819 -42.774472 
L 429.213851 -42.774472 
L 431.297883 -42.774472 
L 433.381915 -42.774472 
L 435.465947 -42.774472 
L 437.549979 -42.774472 
L 439.634011 -42.774472 
L 441.718043 -42.774472 
L 443.802075 -42.774472 
L 445.886107 -42.774472 
L 447.970139 -42.774472 
L 450.054171 -42.774472 
L 452.138203 -42.774472 
L 454.222235 -42.774472 
L 456.306267 -42.774472 
L 458.390299 -42.774472 
L 460.474331 -42.774472 
L 462.558362 -42.774472 
L 464.642394 -42.774472 
L 466.726426 -42.774472 
L 468.810458 -42.774472 
L 470.89449 -42.774472 
L 472.978522 -42.774472 
L 475.062554 -42.774472 
L 477.146586 -42.774472 
L 479.230618 -42.774472 
L 481.31465 -42.774472 
L 483.398682 -42.774472 
L 485.482714 -42.774472 
L 487.566746 -42.774472 
L 489.650778 -42.774472 
L 491.73481 -42.774472 
L 493.818842 -42.774472 
L 495.902874 -42.774472 
L 497.986906 -42.774472 
L 500.070938 -42.774472 
L 502.15497 -42.774472 
L 504.239002 -42.774472 
L 506.323034 -42.774472 
L 508.407066 -42.774472 
L 510.491098 -42.774472 
L 512.57513 -42.774472 
L 514.659162 -42.774472 
L 516.743194 -42.774472 
L 518.827226 -42.774472 
L 520.911257 -42.774472 
L 522.995289 -42.774472 
L 522.995289 -42.774582 
L 522.995289 -42.774582 
L 520.911257 -42.774754 
L 518.827226 -42.775123 
L 516.743194 -42.77583 
L 514.659162 -42.777033 
L 512.57513 -42.778863 
L 510.491098 -42.781358 
L 508.407066 -42.784434 
L 506.323034 -42.787919 
L 504.239002 -42.791655 
L 502.15497 -42.795648 
L 500.070938 -42.800245 
L 497.986906 -42.806357 
L 495.902874 -42.815725 
L 493.818842 -42.831068 
L 491.73481 -42.855884 
L 489.650778 -42.893765 
L 487.566746 -42.947455 
L 485.482714 -43.018231 
L 483.398682 -43.106126 
L 481.31465 -43.211023 
L 479.230618 -43.333879 
L 477.146586 -43.477194 
L 475.062554 -43.644392 
L 472.978522 -43.83884 
L 470.89449 -44.063638 
L 468.810458 -44.322661 
L 466.726426 -44.62199 
L 464.642394 -44.970184 
L 462.558362 -45.376516 
L 460.474331 -45.847874 
L 458.390299 -46.38617 
L 456.306267 -46.987857 
L 454.222235 -47.645663 
L 452.138203 -48.351295 
L 450.054171 -49.097713 
L 447.970139 -49.880614 
L 445.886107 -50.69972 
L 443.802075 -51.560232 
L 441.718043 -52.473635 
L 439.634011 -53.456353 
L 437.549979 -54.525583 
L 435.465947 -55.693438 
L 433.381915 -56.961887 
L 431.297883 -58.320817 
L 429.213851 -59.749932 
L 427.129819 -61.223093 
L 425.045787 -62.712505 
L 422.961755 -64.190865 
L 420.877723 -65.631662 
L 418.793691 -67.00942 
L 416.709659 -68.3013 
L 414.625627 -69.489886 
L 412.541595 -70.566023 
L 410.457563 -71.530597 
L 408.373531 -72.394332 
L 406.289499 -73.174777 
L 404.205467 -73.890557 
L 402.121436 -74.554936 
L 400.037404 -75.171792 
L 397.953372 -75.735849 
L 395.86934 -76.236445 
L 393.785308 -76.662824 
L 391.701276 -77.009211 
L 389.617244 -77.278433 
L 387.533212 -77.482589 
L 385.44918 -77.639389 
L 383.365148 -77.76482 
L 381.281116 -77.865753 
L 379.197084 -77.937334 
L 377.113052 -77.967496 
L 375.02902 -77.946241 
L 372.944988 -77.874043 
L 370.860956 -77.764351 
L 368.776924 -77.638938 
L 366.692892 -77.518974 
L 364.60886 -77.41661 
L 362.524828 -77.330977 
L 360.440796 -77.24967 
L 358.356764 -77.153917 
L 356.272732 -77.024397 
L 354.1887 -76.845792 
L 352.104668 -76.610144 
L 350.020636 -76.319758 
L 347.936604 -75.988888 
L 345.852572 -75.641986 
L 343.76854 -75.307569 
L 341.684509 -75.010192 
L 339.600477 -74.76505 
L 337.516445 -74.577616 
L 335.432413 -74.446394 
L 333.348381 -74.364801 
L 331.264349 -74.320529 
L 329.180317 -74.294734 
L 327.096285 -74.264466 
L 325.012253 -74.208883 
L 322.928221 -74.116135 
L 320.844189 -73.986979 
L 318.760157 -73.833326 
L 316.676125 -73.672504 
L 314.592093 -73.519628 
L 312.508061 -73.381239 
L 310.424029 -73.253307 
L 308.339997 -73.124802 
L 306.255965 -72.984544 
L 304.171933 -72.826723 
L 302.087901 -72.651702 
L 300.003869 -72.462435 
L 297.919837 -72.259861 
L 295.835805 -72.040697 
L 293.751773 -71.798929 
L 291.667741 -71.529934 
L 289.583709 -71.234848 
L 287.499677 -70.922606 
L 285.415645 -70.608157 
L 283.331614 -70.307359 
L 281.247582 -70.031128 
L 279.16355 -69.782241 
L 277.079518 -69.556995 
L 274.995486 -69.351143 
L 272.911454 -69.166517 
L 270.827422 -69.013567 
L 268.74339 -68.907092 
L 266.659358 -68.857006 
L 264.575326 -68.859725 
L 262.491294 -68.895552 
L 260.407262 -68.933511 
L 258.32323 -68.940888 
L 256.239198 -68.893115 
L 254.155166 -68.780322 
L 252.071134 -68.60808 
L 249.987102 -68.391615 
L 247.90307 -68.145953 
L 245.819038 -67.877885 
L 243.735006 -67.585626 
L 241.650974 -67.266722 
L 239.566942 -66.927934 
L 237.48291 -66.588695 
L 235.398878 -66.274864 
L 233.314846 -66.00749 
L 231.230814 -65.795056 
L 229.146782 -65.634043 
L 227.06275 -65.515395 
L 224.978719 -65.430157 
L 222.894687 -65.369449 
L 220.810655 -65.319852 
L 218.726623 -65.259727 
L 216.642591 -65.161738 
L 214.558559 -65.002406 
L 212.474527 -64.774097 
L 210.390495 -64.491919 
L 208.306463 -64.189933 
L 206.222431 -63.907257 
L 204.138399 -63.671222 
L 202.054367 -63.486937 
L 199.970335 -63.338703 
L 197.886303 -63.201488 
L 195.802271 -63.055116 
L 193.718239 -62.893024 
L 191.634207 -62.721463 
L 189.550175 -62.550935 
L 187.466143 -62.385879 
L 185.382111 -62.218808 
L 183.298079 -62.031768 
L 181.214047 -61.803564 
L 179.130015 -61.518218 
L 177.045983 -61.169706 
L 174.961951 -60.760244 
L 172.877919 -60.293252 
L 170.793887 -59.765426 
L 168.709855 -59.162921 
L 166.625824 -58.464044 
L 164.541792 -57.647133 
L 162.45776 -56.699829 
L 160.373728 -55.62573 
L 158.289696 -54.445862 
L 156.205664 -53.194658 
L 154.121632 -51.912579 
L 152.0376 -50.638959 
L 149.953568 -49.407963 
L 147.869536 -48.248054 
L 145.785504 -47.182993 
L 143.701472 -46.232087 
L 141.61744 -45.409025 
L 139.533408 -44.720265 
L 137.449376 -44.16431 
L 135.365344 -43.732355 
L 133.281312 -43.410027 
L 131.19728 -43.179587 
L 129.113248 -43.022136 
L 127.029216 -42.919539 
L 124.945184 -42.85586 
L 122.861152 -42.818213 
L 120.77712 -42.796989 
L 118.693088 -42.785559 
L 116.609056 -42.779675 
L 114.525024 -42.776786 
L 112.440992 -42.775439 
L 110.35696 -42.774849 
L 108.272929 -42.774608 
z
" style="stroke: #280b53"/>
    </defs>
    <g clip-path="url(#pdb9d561c18)">
     <use xlink:href="#mac438a43af" x="0" y="426.931498" style="fill: #280b53; fill-opacity: 0.25; stroke: #280b53"/>
    </g>
   </g>
   <g id="PolyCollection_2">
    <defs>
     <path id="md421939851" d="M -74.348727 -42.774655 
L -74.348727 -42.774472 
L -71.993676 -42.774472 
L -69.638624 -42.774472 
L -67.283573 -42.774472 
L -64.928521 -42.774472 
L -62.57347 -42.774472 
L -60.218418 -42.774472 
L -57.863366 -42.774472 
L -55.508315 -42.774472 
L -53.153263 -42.774472 
L -50.798212 -42.774472 
L -48.44316 -42.774472 
L -46.088109 -42.774472 
L -43.733057 -42.774472 
L -41.378006 -42.774472 
L -39.022954 -42.774472 
L -36.667903 -42.774472 
L -34.312851 -42.774472 
L -31.957799 -42.774472 
L -29.602748 -42.774472 
L -27.247696 -42.774472 
L -24.892645 -42.774472 
L -22.537593 -42.774472 
L -20.182542 -42.774472 
L -17.82749 -42.774472 
L -15.472439 -42.774472 
L -13.117387 -42.774472 
L -10.762336 -42.774472 
L -8.407284 -42.774472 
L -6.052232 -42.774472 
L -3.697181 -42.774472 
L -1.342129 -42.774472 
L 1.012922 -42.774472 
L 3.367974 -42.774472 
L 5.723025 -42.774472 
L 8.078077 -42.774472 
L 10.433128 -42.774472 
L 12.78818 -42.774472 
L 15.143231 -42.774472 
L 17.498283 -42.774472 
L 19.853335 -42.774472 
L 22.208386 -42.774472 
L 24.563438 -42.774472 
L 26.918489 -42.774472 
L 29.273541 -42.774472 
L 31.628592 -42.774472 
L 33.983644 -42.774472 
L 36.338695 -42.774472 
L 38.693747 -42.774472 
L 41.048798 -42.774472 
L 43.40385 -42.774472 
L 45.758902 -42.774472 
L 48.113953 -42.774472 
L 50.469005 -42.774472 
L 52.824056 -42.774472 
L 55.179108 -42.774472 
L 57.534159 -42.774472 
L 59.889211 -42.774472 
L 62.244262 -42.774472 
L 64.599314 -42.774472 
L 66.954365 -42.774472 
L 69.309417 -42.774472 
L 71.664469 -42.774472 
L 74.01952 -42.774472 
L 76.374572 -42.774472 
L 78.729623 -42.774472 
L 81.084675 -42.774472 
L 83.439726 -42.774472 
L 85.794778 -42.774472 
L 88.149829 -42.774472 
L 90.504881 -42.774472 
L 92.859933 -42.774472 
L 95.214984 -42.774472 
L 97.570036 -42.774472 
L 99.925087 -42.774472 
L 102.280139 -42.774472 
L 104.63519 -42.774472 
L 106.990242 -42.774472 
L 109.345293 -42.774472 
L 111.700345 -42.774472 
L 114.055396 -42.774472 
L 116.410448 -42.774472 
L 118.7655 -42.774472 
L 121.120551 -42.774472 
L 123.475603 -42.774472 
L 125.830654 -42.774472 
L 128.185706 -42.774472 
L 130.540757 -42.774472 
L 132.895809 -42.774472 
L 135.25086 -42.774472 
L 137.605912 -42.774472 
L 139.960963 -42.774472 
L 142.316015 -42.774472 
L 144.671067 -42.774472 
L 147.026118 -42.774472 
L 149.38117 -42.774472 
L 151.736221 -42.774472 
L 154.091273 -42.774472 
L 156.446324 -42.774472 
L 158.801376 -42.774472 
L 161.156427 -42.774472 
L 163.511479 -42.774472 
L 165.86653 -42.774472 
L 168.221582 -42.774472 
L 170.576634 -42.774472 
L 172.931685 -42.774472 
L 175.286737 -42.774472 
L 177.641788 -42.774472 
L 179.99684 -42.774472 
L 182.351891 -42.774472 
L 184.706943 -42.774472 
L 187.061994 -42.774472 
L 189.417046 -42.774472 
L 191.772097 -42.774472 
L 194.127149 -42.774472 
L 196.482201 -42.774472 
L 198.837252 -42.774472 
L 201.192304 -42.774472 
L 203.547355 -42.774472 
L 205.902407 -42.774472 
L 208.257458 -42.774472 
L 210.61251 -42.774472 
L 212.967561 -42.774472 
L 215.322613 -42.774472 
L 217.677664 -42.774472 
L 220.032716 -42.774472 
L 222.387768 -42.774472 
L 224.742819 -42.774472 
L 227.097871 -42.774472 
L 229.452922 -42.774472 
L 231.807974 -42.774472 
L 234.163025 -42.774472 
L 236.518077 -42.774472 
L 238.873128 -42.774472 
L 241.22818 -42.774472 
L 243.583231 -42.774472 
L 245.938283 -42.774472 
L 248.293335 -42.774472 
L 250.648386 -42.774472 
L 253.003438 -42.774472 
L 255.358489 -42.774472 
L 257.713541 -42.774472 
L 260.068592 -42.774472 
L 262.423644 -42.774472 
L 264.778695 -42.774472 
L 267.133747 -42.774472 
L 269.488798 -42.774472 
L 271.84385 -42.774472 
L 274.198902 -42.774472 
L 276.553953 -42.774472 
L 278.909005 -42.774472 
L 281.264056 -42.774472 
L 283.619108 -42.774472 
L 285.974159 -42.774472 
L 288.329211 -42.774472 
L 290.684262 -42.774472 
L 293.039314 -42.774472 
L 295.394366 -42.774472 
L 297.749417 -42.774472 
L 300.104469 -42.774472 
L 302.45952 -42.774472 
L 304.814572 -42.774472 
L 307.169623 -42.774472 
L 309.524675 -42.774472 
L 311.879726 -42.774472 
L 314.234778 -42.774472 
L 316.589829 -42.774472 
L 318.944881 -42.774472 
L 321.299933 -42.774472 
L 323.654984 -42.774472 
L 326.010036 -42.774472 
L 328.365087 -42.774472 
L 330.720139 -42.774472 
L 333.07519 -42.774472 
L 335.430242 -42.774472 
L 337.785293 -42.774472 
L 340.140345 -42.774472 
L 342.495396 -42.774472 
L 344.850448 -42.774472 
L 347.2055 -42.774472 
L 349.560551 -42.774472 
L 351.915603 -42.774472 
L 354.270654 -42.774472 
L 356.625706 -42.774472 
L 358.980757 -42.774472 
L 361.335809 -42.774472 
L 363.69086 -42.774472 
L 366.045912 -42.774472 
L 368.400963 -42.774472 
L 370.756015 -42.774472 
L 373.111067 -42.774472 
L 375.466118 -42.774472 
L 377.82117 -42.774472 
L 380.176221 -42.774472 
L 382.531273 -42.774472 
L 384.886324 -42.774472 
L 387.241376 -42.774472 
L 389.596427 -42.774472 
L 391.951479 -42.774472 
L 394.30653 -42.774472 
L 394.30653 -42.774656 
L 394.30653 -42.774656 
L 391.951479 -42.775478 
L 389.596427 -42.778219 
L 387.241376 -42.784156 
L 384.886324 -42.792539 
L 382.531273 -42.800748 
L 380.176221 -42.807782 
L 377.82117 -42.814819 
L 375.466118 -42.823093 
L 373.111067 -42.835577 
L 370.756015 -42.858513 
L 368.400963 -42.894855 
L 366.045912 -42.935778 
L 363.69086 -42.967971 
L 361.335809 -42.989885 
L 358.980757 -43.00903 
L 356.625706 -43.030275 
L 354.270654 -43.058634 
L 351.915603 -43.100411 
L 349.560551 -43.156104 
L 347.2055 -43.224908 
L 344.850448 -43.309315 
L 342.495396 -43.411275 
L 340.140345 -43.543454 
L 337.785293 -43.729711 
L 335.430242 -43.966406 
L 333.07519 -44.217129 
L 330.720139 -44.47045 
L 328.365087 -44.762735 
L 326.010036 -45.135422 
L 323.654984 -45.593434 
L 321.299933 -46.10851 
L 318.944881 -46.666372 
L 316.589829 -47.290648 
L 314.234778 -48.003181 
L 311.879726 -48.791197 
L 309.524675 -49.644258 
L 307.169623 -50.614696 
L 304.814572 -51.786966 
L 302.45952 -53.172924 
L 300.104469 -54.697501 
L 297.749417 -56.264102 
L 295.394366 -57.788283 
L 293.039314 -59.23169 
L 290.684262 -60.661269 
L 288.329211 -62.238836 
L 285.974159 -64.096307 
L 283.619108 -66.222487 
L 281.264056 -68.457169 
L 278.909005 -70.636681 
L 276.553953 -72.781752 
L 274.198902 -75.076204 
L 271.84385 -77.672033 
L 269.488798 -80.527449 
L 267.133747 -83.401261 
L 264.778695 -86.026183 
L 262.423644 -88.295979 
L 260.068592 -90.286041 
L 257.713541 -92.132226 
L 255.358489 -93.933968 
L 253.003438 -95.808528 
L 250.648386 -97.899559 
L 248.293335 -100.173244 
L 245.938283 -102.367259 
L 243.583231 -104.239618 
L 241.22818 -105.745209 
L 238.873128 -106.991959 
L 236.518077 -108.113848 
L 234.163025 -109.126499 
L 231.807974 -109.914995 
L 229.452922 -110.480345 
L 227.097871 -111.006758 
L 224.742819 -111.494948 
L 222.387768 -111.677961 
L 220.032716 -111.438704 
L 217.677664 -111.021689 
L 215.322613 -110.791946 
L 212.967561 -110.74386 
L 210.61251 -110.310209 
L 208.257458 -108.96126 
L 205.902407 -106.884759 
L 203.547355 -104.812375 
L 201.192304 -103.277258 
L 198.837252 -102.148495 
L 196.482201 -100.871529 
L 194.127149 -99.119809 
L 191.772097 -97.034064 
L 189.417046 -94.91575 
L 187.061994 -92.938336 
L 184.706943 -91.026757 
L 182.351891 -88.994677 
L 179.99684 -86.878544 
L 177.641788 -84.886255 
L 175.286737 -83.001512 
L 172.931685 -80.991671 
L 170.576634 -78.830101 
L 168.221582 -76.795554 
L 165.86653 -75.109858 
L 163.511479 -73.685438 
L 161.156427 -72.238676 
L 158.801376 -70.535588 
L 156.446324 -68.588491 
L 154.091273 -66.655904 
L 151.736221 -64.928394 
L 149.38117 -63.308307 
L 147.026118 -61.675387 
L 144.671067 -60.166217 
L 142.316015 -58.973951 
L 139.960963 -58.05056 
L 137.605912 -57.216607 
L 135.25086 -56.384536 
L 132.895809 -55.499773 
L 130.540757 -54.503721 
L 128.185706 -53.471945 
L 125.830654 -52.540046 
L 123.475603 -51.716606 
L 121.120551 -50.946161 
L 118.7655 -50.231628 
L 116.410448 -49.623472 
L 114.055396 -49.148379 
L 111.700345 -48.756289 
L 109.345293 -48.375602 
L 106.990242 -47.99982 
L 104.63519 -47.654617 
L 102.280139 -47.333445 
L 99.925087 -47.015368 
L 97.570036 -46.693288 
L 95.214984 -46.364205 
L 92.859933 -46.031692 
L 90.504881 -45.720197 
L 88.149829 -45.448093 
L 85.794778 -45.190282 
L 83.439726 -44.909984 
L 81.084675 -44.625526 
L 78.729623 -44.397595 
L 76.374572 -44.249611 
L 74.01952 -44.152025 
L 71.664469 -44.079795 
L 69.309417 -44.030101 
L 66.954365 -43.991676 
L 64.599314 -43.941237 
L 62.244262 -43.861824 
L 59.889211 -43.75185 
L 57.534159 -43.629454 
L 55.179108 -43.517323 
L 52.824056 -43.421311 
L 50.469005 -43.340878 
L 48.113953 -43.282676 
L 45.758902 -43.245554 
L 43.40385 -43.215394 
L 41.048798 -43.185543 
L 38.693747 -43.160483 
L 36.338695 -43.134818 
L 33.983644 -43.093574 
L 31.628592 -43.03885 
L 29.273541 -42.990069 
L 26.918489 -42.956839 
L 24.563438 -42.938174 
L 22.208386 -42.939994 
L 19.853335 -42.963811 
L 17.498283 -42.989251 
L 15.143231 -42.992162 
L 12.78818 -42.971441 
L 10.433128 -42.944804 
L 8.078077 -42.923545 
L 5.723025 -42.904586 
L 3.367974 -42.88785 
L 1.012922 -42.88104 
L -1.342129 -42.883402 
L -3.697181 -42.883782 
L -6.052232 -42.876657 
L -8.407284 -42.867439 
L -10.762336 -42.859364 
L -13.117387 -42.847219 
L -15.472439 -42.829741 
L -17.82749 -42.81479 
L -20.182542 -42.809536 
L -22.537593 -42.816079 
L -24.892645 -42.830955 
L -27.247696 -42.843445 
L -29.602748 -42.843982 
L -31.957799 -42.83382 
L -34.312851 -42.819699 
L -36.667903 -42.805149 
L -39.022954 -42.791742 
L -41.378006 -42.781912 
L -43.733057 -42.77679 
L -46.088109 -42.774978 
L -48.44316 -42.774555 
L -50.798212 -42.774554 
L -53.153263 -42.774955 
L -55.508315 -42.776576 
L -57.863366 -42.780654 
L -60.218418 -42.786708 
L -62.57347 -42.790784 
L -64.928521 -42.789119 
L -67.283573 -42.783331 
L -69.638624 -42.778081 
L -71.993676 -42.775462 
L -74.348727 -42.774655 
z
" style="stroke: #9f2a63"/>
    </defs>
    <g clip-path="url(#pdb9d561c18)">
     <use xlink:href="#md421939851" x="0" y="426.931498" style="fill: #9f2a63; fill-opacity: 0.25; stroke: #9f2a63"/>
    </g>
   </g>
   <g id="PolyCollection_3">
    <defs>
     <path id="mce36555900" d="M 159.485412 -42.775139 
L 159.485412 -42.774472 
L 160.071955 -42.774472 
L 160.658497 -42.774472 
L 161.24504 -42.774472 
L 161.831583 -42.774472 
L 162.418125 -42.774472 
L 163.004668 -42.774472 
L 163.59121 -42.774472 
L 164.177753 -42.774472 
L 164.764295 -42.774472 
L 165.350838 -42.774472 
L 165.93738 -42.774472 
L 166.523923 -42.774472 
L 167.110466 -42.774472 
L 167.697008 -42.774472 
L 168.283551 -42.774472 
L 168.870093 -42.774472 
L 169.456636 -42.774472 
L 170.043178 -42.774472 
L 170.629721 -42.774472 
L 171.216263 -42.774472 
L 171.802806 -42.774472 
L 172.389349 -42.774472 
L 172.975891 -42.774472 
L 173.562434 -42.774472 
L 174.148976 -42.774472 
L 174.735519 -42.774472 
L 175.322061 -42.774472 
L 175.908604 -42.774472 
L 176.495146 -42.774472 
L 177.081689 -42.774472 
L 177.668231 -42.774472 
L 178.254774 -42.774472 
L 178.841317 -42.774472 
L 179.427859 -42.774472 
L 180.014402 -42.774472 
L 180.600944 -42.774472 
L 181.187487 -42.774472 
L 181.774029 -42.774472 
L 182.360572 -42.774472 
L 182.947114 -42.774472 
L 183.533657 -42.774472 
L 184.1202 -42.774472 
L 184.706742 -42.774472 
L 185.293285 -42.774472 
L 185.879827 -42.774472 
L 186.46637 -42.774472 
L 187.052912 -42.774472 
L 187.639455 -42.774472 
L 188.225997 -42.774472 
L 188.81254 -42.774472 
L 189.399083 -42.774472 
L 189.985625 -42.774472 
L 190.572168 -42.774472 
L 191.15871 -42.774472 
L 191.745253 -42.774472 
L 192.331795 -42.774472 
L 192.918338 -42.774472 
L 193.50488 -42.774472 
L 194.091423 -42.774472 
L 194.677966 -42.774472 
L 195.264508 -42.774472 
L 195.851051 -42.774472 
L 196.437593 -42.774472 
L 197.024136 -42.774472 
L 197.610678 -42.774472 
L 198.197221 -42.774472 
L 198.783763 -42.774472 
L 199.370306 -42.774472 
L 199.956849 -42.774472 
L 200.543391 -42.774472 
L 201.129934 -42.774472 
L 201.716476 -42.774472 
L 202.303019 -42.774472 
L 202.889561 -42.774472 
L 203.476104 -42.774472 
L 204.062646 -42.774472 
L 204.649189 -42.774472 
L 205.235732 -42.774472 
L 205.822274 -42.774472 
L 206.408817 -42.774472 
L 206.995359 -42.774472 
L 207.581902 -42.774472 
L 208.168444 -42.774472 
L 208.754987 -42.774472 
L 209.341529 -42.774472 
L 209.928072 -42.774472 
L 210.514615 -42.774472 
L 211.101157 -42.774472 
L 211.6877 -42.774472 
L 212.274242 -42.774472 
L 212.860785 -42.774472 
L 213.447327 -42.774472 
L 214.03387 -42.774472 
L 214.620412 -42.774472 
L 215.206955 -42.774472 
L 215.793497 -42.774472 
L 216.38004 -42.774472 
L 216.966583 -42.774472 
L 217.553125 -42.774472 
L 218.139668 -42.774472 
L 218.72621 -42.774472 
L 219.312753 -42.774472 
L 219.899295 -42.774472 
L 220.485838 -42.774472 
L 221.07238 -42.774472 
L 221.658923 -42.774472 
L 222.245466 -42.774472 
L 222.832008 -42.774472 
L 223.418551 -42.774472 
L 224.005093 -42.774472 
L 224.591636 -42.774472 
L 225.178178 -42.774472 
L 225.764721 -42.774472 
L 226.351263 -42.774472 
L 226.937806 -42.774472 
L 227.524349 -42.774472 
L 228.110891 -42.774472 
L 228.697434 -42.774472 
L 229.283976 -42.774472 
L 229.870519 -42.774472 
L 230.457061 -42.774472 
L 231.043604 -42.774472 
L 231.630146 -42.774472 
L 232.216689 -42.774472 
L 232.803232 -42.774472 
L 233.389774 -42.774472 
L 233.976317 -42.774472 
L 234.562859 -42.774472 
L 235.149402 -42.774472 
L 235.735944 -42.774472 
L 236.322487 -42.774472 
L 236.909029 -42.774472 
L 237.495572 -42.774472 
L 238.082115 -42.774472 
L 238.668657 -42.774472 
L 239.2552 -42.774472 
L 239.841742 -42.774472 
L 240.428285 -42.774472 
L 241.014827 -42.774472 
L 241.60137 -42.774472 
L 242.187912 -42.774472 
L 242.774455 -42.774472 
L 243.360998 -42.774472 
L 243.94754 -42.774472 
L 244.534083 -42.774472 
L 245.120625 -42.774472 
L 245.707168 -42.774472 
L 246.29371 -42.774472 
L 246.880253 -42.774472 
L 247.466795 -42.774472 
L 248.053338 -42.774472 
L 248.63988 -42.774472 
L 249.226423 -42.774472 
L 249.812966 -42.774472 
L 250.399508 -42.774472 
L 250.986051 -42.774472 
L 251.572593 -42.774472 
L 252.159136 -42.774472 
L 252.745678 -42.774472 
L 253.332221 -42.774472 
L 253.918763 -42.774472 
L 254.505306 -42.774472 
L 255.091849 -42.774472 
L 255.678391 -42.774472 
L 256.264934 -42.774472 
L 256.851476 -42.774472 
L 257.438019 -42.774472 
L 258.024561 -42.774472 
L 258.611104 -42.774472 
L 259.197646 -42.774472 
L 259.784189 -42.774472 
L 260.370732 -42.774472 
L 260.957274 -42.774472 
L 261.543817 -42.774472 
L 262.130359 -42.774472 
L 262.716902 -42.774472 
L 263.303444 -42.774472 
L 263.889987 -42.774472 
L 264.476529 -42.774472 
L 265.063072 -42.774472 
L 265.649615 -42.774472 
L 266.236157 -42.774472 
L 266.8227 -42.774472 
L 267.409242 -42.774472 
L 267.995785 -42.774472 
L 268.582327 -42.774472 
L 269.16887 -42.774472 
L 269.755412 -42.774472 
L 270.341955 -42.774472 
L 270.928498 -42.774472 
L 271.51504 -42.774472 
L 272.101583 -42.774472 
L 272.688125 -42.774472 
L 273.274668 -42.774472 
L 273.86121 -42.774472 
L 274.447753 -42.774472 
L 275.034295 -42.774472 
L 275.620838 -42.774472 
L 276.207381 -42.774472 
L 276.207381 -42.775139 
L 276.207381 -42.775139 
L 275.620838 -42.777619 
L 275.034295 -42.785176 
L 274.447753 -42.800745 
L 273.86121 -42.821007 
L 273.274668 -42.833947 
L 272.688125 -42.82933 
L 272.101583 -42.81104 
L 271.51504 -42.79251 
L 270.928498 -42.783456 
L 270.341955 -42.788128 
L 269.755412 -42.811767 
L 269.16887 -42.857469 
L 268.582327 -42.91195 
L 267.995785 -42.944636 
L 267.409242 -42.935661 
L 266.8227 -42.90134 
L 266.236157 -42.878531 
L 265.649615 -42.884148 
L 265.063072 -42.900367 
L 264.476529 -42.906119 
L 263.889987 -42.917239 
L 263.303444 -42.979174 
L 262.716902 -43.111913 
L 262.130359 -43.271951 
L 261.543817 -43.384769 
L 260.957274 -43.414311 
L 260.370732 -43.387074 
L 259.784189 -43.360093 
L 259.197646 -43.383866 
L 258.611104 -43.478585 
L 258.024561 -43.632737 
L 257.438019 -43.832525 
L 256.851476 -44.082584 
L 256.264934 -44.383998 
L 255.678391 -44.701848 
L 255.091849 -44.97908 
L 254.505306 -45.195165 
L 253.918763 -45.393713 
L 253.332221 -45.636237 
L 252.745678 -45.963902 
L 252.159136 -46.425904 
L 251.572593 -47.061688 
L 250.986051 -47.789964 
L 250.399508 -48.393794 
L 249.812966 -48.725009 
L 249.226423 -48.9139 
L 248.63988 -49.260769 
L 248.053338 -49.904059 
L 247.466795 -50.72598 
L 246.880253 -51.592814 
L 246.29371 -52.535614 
L 245.707168 -53.64745 
L 245.120625 -54.940778 
L 244.534083 -56.395551 
L 243.94754 -58.035849 
L 243.360998 -59.881831 
L 242.774455 -61.904051 
L 242.187912 -64.043548 
L 241.60137 -66.270687 
L 241.014827 -68.667647 
L 240.428285 -71.333264 
L 239.841742 -74.11023 
L 239.2552 -76.652746 
L 238.668657 -78.919219 
L 238.082115 -81.36917 
L 237.495572 -84.561123 
L 236.909029 -88.686072 
L 236.322487 -93.456566 
L 235.735944 -98.328378 
L 235.149402 -102.883298 
L 234.562859 -107.066722 
L 233.976317 -111.105945 
L 233.389774 -115.284013 
L 232.803232 -119.740268 
L 232.216689 -124.416819 
L 231.630146 -129.288142 
L 231.043604 -134.587936 
L 230.457061 -140.568863 
L 229.870519 -147.116681 
L 229.283976 -153.848958 
L 228.697434 -160.425758 
L 228.110891 -166.609324 
L 227.524349 -172.352146 
L 226.937806 -178.024952 
L 226.351263 -184.300574 
L 225.764721 -191.486896 
L 225.178178 -198.897086 
L 224.591636 -205.235372 
L 224.005093 -209.96366 
L 223.418551 -213.973199 
L 222.832008 -218.54651 
L 222.245466 -224.088076 
L 221.658923 -230.172719 
L 221.07238 -236.319604 
L 220.485838 -242.38244 
L 219.899295 -248.386179 
L 219.312753 -254.249888 
L 218.72621 -259.84305 
L 218.139668 -265.145845 
L 217.553125 -270.014628 
L 216.966583 -273.898893 
L 216.38004 -276.227244 
L 215.793497 -277.103857 
L 215.206955 -277.223564 
L 214.620412 -277.153283 
L 214.03387 -277.239592 
L 213.447327 -278.11004 
L 212.860785 -280.384804 
L 212.274242 -283.540641 
L 211.6877 -285.811884 
L 211.101157 -285.855541 
L 210.514615 -283.969003 
L 209.928072 -281.179355 
L 209.341529 -277.935939 
L 208.754987 -274.266621 
L 208.168444 -270.404388 
L 207.581902 -266.583559 
L 206.995359 -262.573257 
L 206.408817 -257.845649 
L 205.822274 -252.17517 
L 205.235732 -245.78508 
L 204.649189 -238.847809 
L 204.062646 -231.322317 
L 203.476104 -223.514651 
L 202.889561 -216.272179 
L 202.303019 -210.261795 
L 201.716476 -205.282725 
L 201.129934 -200.407279 
L 200.543391 -194.630396 
L 199.956849 -187.420365 
L 199.370306 -178.932102 
L 198.783763 -169.880289 
L 198.197221 -161.141254 
L 197.610678 -153.296217 
L 197.024136 -146.471499 
L 196.437593 -140.555253 
L 195.851051 -135.375048 
L 195.264508 -130.650914 
L 194.677966 -126.036603 
L 194.091423 -121.31516 
L 193.50488 -116.443771 
L 192.918338 -111.394307 
L 192.331795 -106.133219 
L 191.745253 -100.768586 
L 191.15871 -95.510862 
L 190.572168 -90.546734 
L 189.985625 -86.062616 
L 189.399083 -82.229065 
L 188.81254 -79.063942 
L 188.225997 -76.359126 
L 187.639455 -73.757836 
L 187.052912 -70.936408 
L 186.46637 -67.808794 
L 185.879827 -64.599438 
L 185.293285 -61.65051 
L 184.706742 -59.135194 
L 184.1202 -56.999661 
L 183.533657 -55.136636 
L 182.947114 -53.533348 
L 182.360572 -52.240161 
L 181.774029 -51.231244 
L 181.187487 -50.366524 
L 180.600944 -49.520045 
L 180.014402 -48.681161 
L 179.427859 -47.89873 
L 178.841317 -47.187384 
L 178.254774 -46.537935 
L 177.668231 -45.981321 
L 177.081689 -45.570051 
L 176.495146 -45.296745 
L 175.908604 -45.079712 
L 175.322061 -44.837054 
L 174.735519 -44.558378 
L 174.148976 -44.290658 
L 173.562434 -44.058484 
L 172.975891 -43.839751 
L 172.389349 -43.627871 
L 171.802806 -43.461617 
L 171.216263 -43.371967 
L 170.629721 -43.336905 
L 170.043178 -43.304277 
L 169.456636 -43.241584 
L 168.870093 -43.156265 
L 168.283551 -43.074956 
L 167.697008 -43.012261 
L 167.110466 -42.963503 
L 166.523923 -42.918876 
L 165.93738 -42.874575 
L 165.350838 -42.834697 
L 164.764295 -42.808251 
L 164.177753 -42.802044 
L 163.59121 -42.813694 
L 163.004668 -42.829864 
L 162.418125 -42.834025 
L 161.831583 -42.821015 
L 161.24504 -42.800746 
L 160.658497 -42.785176 
L 160.071955 -42.777619 
L 159.485412 -42.775139 
z
" style="stroke: #f57d15"/>
    </defs>
    <g clip-path="url(#pdb9d561c18)">
     <use xlink:href="#mce36555900" x="0" y="426.931498" style="fill: #f57d15; fill-opacity: 0.25; stroke: #f57d15"/>
    </g>
   </g>
   <g id="matplotlib.axis_1">
    <g id="xtick_1">
     <g id="line2d_1">
      <defs>
       <path id="m60f33240bf" d="M 0 0 
L 0 3.5 
" style="stroke: #000000; stroke-width: 0.8"/>
      </defs>
      <g>
       <use xlink:href="#m60f33240bf" x="45.555547" y="384.157026" style="stroke: #000000; stroke-width: 0.8"/>
      </g>
     </g>
     <g id="text_1">
      <!-- $\mathdefault{4}$ -->
      <g transform="translate(42.629051 399.459206)scale(0.12 -0.12)">
       <defs>
        <path id="CMR17-34" d="M 2150 4147 
C 2150 4281 2144 4288 2029 4288 
L 128 1254 
L 128 1088 
L 1779 1088 
L 1779 460 
C 1779 230 1766 166 1318 166 
L 1197 166 
L 1197 0 
C 1402 12 1747 12 1965 12 
C 2182 12 2528 12 2733 0 
L 2733 166 
L 2611 166 
C 2163 166 2150 230 2150 460 
L 2150 1088 
L 2803 1088 
L 2803 1254 
L 2150 1254 
L 2150 4147 
z
M 1798 3723 
L 1798 1254 
L 256 1254 
L 1798 3723 
z
" transform="scale(0.015625)"/>
       </defs>
       <use xlink:href="#CMR17-34" transform="scale(0.996264)"/>
      </g>
     </g>
    </g>
    <g id="xtick_2">
     <g id="line2d_2">
      <g>
       <use xlink:href="#m60f33240bf" x="101.355547" y="384.157026" style="stroke: #000000; stroke-width: 0.8"/>
      </g>
     </g>
     <g id="text_2">
      <!-- $\mathdefault{6}$ -->
      <g transform="translate(98.429051 399.459206)scale(0.12 -0.12)">
       <defs>
        <path id="CMR17-36" d="M 678 2198 
C 678 3712 1395 4076 1811 4076 
C 1946 4076 2272 4049 2400 3782 
C 2298 3782 2106 3782 2106 3558 
C 2106 3385 2246 3328 2336 3328 
C 2394 3328 2566 3353 2566 3571 
C 2566 3987 2246 4224 1805 4224 
C 1043 4224 243 3411 243 2011 
C 243 257 966 -128 1478 -128 
C 2099 -128 2688 431 2688 1295 
C 2688 2101 2170 2688 1517 2688 
C 1126 2688 838 2430 678 1979 
L 678 2198 
z
M 1478 25 
C 691 25 691 1212 691 1450 
C 691 1914 909 2585 1504 2585 
C 1613 2585 1926 2585 2138 2140 
C 2253 1889 2253 1624 2253 1302 
C 2253 954 2253 696 2118 438 
C 1978 173 1773 25 1478 25 
z
" transform="scale(0.015625)"/>
       </defs>
       <use xlink:href="#CMR17-36" transform="scale(0.996264)"/>
      </g>
     </g>
    </g>
    <g id="xtick_3">
     <g id="line2d_3">
      <g>
       <use xlink:href="#m60f33240bf" x="157.155547" y="384.157026" style="stroke: #000000; stroke-width: 0.8"/>
      </g>
     </g>
     <g id="text_3">
      <!-- $\mathdefault{8}$ -->
      <g transform="translate(154.229051 399.459206)scale(0.12 -0.12)">
       <defs>
        <path id="CMR17-38" d="M 1741 2289 
C 2144 2494 2554 2803 2554 3298 
C 2554 3884 1990 4224 1472 4224 
C 890 4224 378 3800 378 3215 
C 378 3054 416 2777 666 2533 
C 730 2469 998 2276 1171 2154 
C 883 2006 211 1652 211 945 
C 211 282 838 -128 1459 -128 
C 2144 -128 2720 366 2720 1022 
C 2720 1607 2330 1877 2074 2051 
L 1741 2289 
z
M 902 2855 
C 851 2887 595 3086 595 3388 
C 595 3781 998 4076 1459 4076 
C 1965 4076 2336 3716 2336 3298 
C 2336 2700 1670 2359 1638 2359 
C 1632 2359 1626 2359 1574 2398 
L 902 2855 
z
M 2080 1536 
C 2176 1466 2483 1253 2483 861 
C 2483 385 2010 25 1472 25 
C 890 25 448 443 448 951 
C 448 1459 838 1884 1280 2083 
L 2080 1536 
z
" transform="scale(0.015625)"/>
       </defs>
       <use xlink:href="#CMR17-38" transform="scale(0.996264)"/>
      </g>
     </g>
    </g>
    <g id="xtick_4">
     <g id="line2d_4">
      <g>
       <use xlink:href="#m60f33240bf" x="212.955547" y="384.157026" style="stroke: #000000; stroke-width: 0.8"/>
      </g>
     </g>
     <g id="text_4">
      <!-- $\mathdefault{10}$ -->
      <g transform="translate(207.102556 399.459206)scale(0.12 -0.12)">
       <defs>
        <path id="CMR17-31" d="M 1702 4083 
C 1702 4217 1696 4224 1606 4224 
C 1357 3927 979 3833 621 3820 
C 602 3820 570 3820 563 3808 
C 557 3795 557 3782 557 3648 
C 755 3648 1088 3686 1344 3839 
L 1344 467 
C 1344 243 1331 166 781 166 
L 589 166 
L 589 0 
C 896 6 1216 12 1523 12 
C 1830 12 2150 6 2458 0 
L 2458 166 
L 2266 166 
C 1715 166 1702 236 1702 467 
L 1702 4083 
z
" transform="scale(0.015625)"/>
        <path id="CMR17-30" d="M 2688 2038 
C 2688 2430 2682 3099 2413 3613 
C 2176 4063 1798 4224 1466 4224 
C 1158 4224 768 4082 525 3620 
C 269 3137 243 2539 243 2038 
C 243 1671 250 1112 448 623 
C 723 -39 1216 -128 1466 -128 
C 1760 -128 2208 -7 2470 604 
C 2662 1048 2688 1568 2688 2038 
z
M 1466 -26 
C 1056 -26 813 328 723 816 
C 653 1196 653 1749 653 2109 
C 653 2604 653 3015 736 3407 
C 858 3954 1216 4121 1466 4121 
C 1728 4121 2067 3947 2189 3420 
C 2272 3054 2278 2623 2278 2109 
C 2278 1691 2278 1176 2202 797 
C 2067 96 1690 -26 1466 -26 
z
" transform="scale(0.015625)"/>
       </defs>
       <use xlink:href="#CMR17-31" transform="scale(0.996264)"/>
       <use xlink:href="#CMR17-30" transform="translate(45.690477 0)scale(0.996264)"/>
      </g>
     </g>
    </g>
    <g id="xtick_5">
     <g id="line2d_5">
      <g>
       <use xlink:href="#m60f33240bf" x="268.755547" y="384.157026" style="stroke: #000000; stroke-width: 0.8"/>
      </g>
     </g>
     <g id="text_5">
      <!-- $\mathdefault{12}$ -->
      <g transform="translate(262.902556 399.459206)scale(0.12 -0.12)">
       <defs>
        <path id="CMR17-32" d="M 2669 990 
L 2554 990 
C 2490 537 2438 460 2413 422 
C 2381 371 1920 371 1830 371 
L 602 371 
C 832 620 1280 1073 1824 1596 
C 2214 1966 2669 2400 2669 3033 
C 2669 3788 2067 4224 1395 4224 
C 691 4224 262 3603 262 3027 
C 262 2777 448 2745 525 2745 
C 589 2745 781 2783 781 3007 
C 781 3206 614 3264 525 3264 
C 486 3264 448 3257 422 3244 
C 544 3788 915 4057 1306 4057 
C 1862 4057 2227 3616 2227 3033 
C 2227 2477 1901 1998 1536 1583 
L 262 147 
L 262 0 
L 2515 0 
L 2669 990 
z
" transform="scale(0.015625)"/>
       </defs>
       <use xlink:href="#CMR17-31" transform="scale(0.996264)"/>
       <use xlink:href="#CMR17-32" transform="translate(45.690477 0)scale(0.996264)"/>
      </g>
     </g>
    </g>
    <g id="xtick_6">
     <g id="line2d_6">
      <g>
       <use xlink:href="#m60f33240bf" x="324.555547" y="384.157026" style="stroke: #000000; stroke-width: 0.8"/>
      </g>
     </g>
     <g id="text_6">
      <!-- $\mathdefault{14}$ -->
      <g transform="translate(318.702556 399.459206)scale(0.12 -0.12)">
       <use xlink:href="#CMR17-31" transform="scale(0.996264)"/>
       <use xlink:href="#CMR17-34" transform="translate(45.690477 0)scale(0.996264)"/>
      </g>
     </g>
    </g>
    <g id="xtick_7">
     <g id="line2d_7">
      <g>
       <use xlink:href="#m60f33240bf" x="380.355547" y="384.157026" style="stroke: #000000; stroke-width: 0.8"/>
      </g>
     </g>
     <g id="text_7">
      <!-- $\mathdefault{16}$ -->
      <g transform="translate(374.502556 399.459206)scale(0.12 -0.12)">
       <use xlink:href="#CMR17-31" transform="scale(0.996264)"/>
       <use xlink:href="#CMR17-36" transform="translate(45.690477 0)scale(0.996264)"/>
      </g>
     </g>
    </g>
    <g id="xtick_8">
     <g id="line2d_8">
      <g>
       <use xlink:href="#m60f33240bf" x="436.155547" y="384.157026" style="stroke: #000000; stroke-width: 0.8"/>
      </g>
     </g>
     <g id="text_8">
      <!-- $\mathdefault{18}$ -->
      <g transform="translate(430.302556 399.459206)scale(0.12 -0.12)">
       <use xlink:href="#CMR17-31" transform="scale(0.996264)"/>
       <use xlink:href="#CMR17-38" transform="translate(45.690477 0)scale(0.996264)"/>
      </g>
     </g>
    </g>
    <g id="xtick_9">
     <g id="line2d_9">
      <g>
       <use xlink:href="#m60f33240bf" x="491.955547" y="384.157026" style="stroke: #000000; stroke-width: 0.8"/>
      </g>
     </g>
     <g id="text_9">
      <!-- $\mathdefault{20}$ -->
      <g transform="translate(486.102556 399.459206)scale(0.12 -0.12)">
       <use xlink:href="#CMR17-32" transform="scale(0.996264)"/>
       <use xlink:href="#CMR17-30" transform="translate(45.690477 0)scale(0.996264)"/>
      </g>
     </g>
    </g>
    <g id="text_10">
     <!-- Distance [kpc] -->
     <g transform="translate(226.325282 416.244574)scale(0.14 -0.14)">
      <defs>
       <path id="CMR17-44" d="M 333 4352 
L 333 4185 
C 774 4185 845 4185 845 3898 
L 845 453 
C 845 166 774 166 333 166 
L 333 0 
L 2368 0 
C 3398 0 4224 943 4224 2140 
C 4224 3344 3411 4352 2368 4352 
L 333 4352 
z
M 1523 166 
C 1267 166 1254 198 1254 414 
L 1254 3936 
C 1254 4153 1267 4185 1523 4185 
L 2240 4185 
C 2771 4185 3750 3873 3750 2140 
C 3750 1242 3488 879 3366 707 
C 3213 510 2848 166 2240 166 
L 1523 166 
z
" transform="scale(0.015625)"/>
       <path id="CMR17-69" d="M 992 3961 
C 992 4102 877 4224 730 4224 
C 589 4224 467 4108 467 3961 
C 467 3820 582 3699 730 3699 
C 870 3699 992 3814 992 3961 
z
M 243 2745 
L 243 2579 
C 602 2579 653 2540 653 2231 
L 653 443 
C 653 198 627 166 218 166 
L 218 0 
C 371 12 646 12 806 12 
C 960 12 1222 12 1370 0 
L 1370 166 
C 992 166 979 205 979 436 
L 979 2816 
L 243 2745 
z
" transform="scale(0.015625)"/>
       <path id="CMR17-73" d="M 1978 2688 
C 1978 2803 1971 2809 1933 2809 
C 1907 2809 1901 2803 1824 2707 
C 1805 2681 1747 2617 1728 2592 
C 1523 2809 1235 2816 1126 2816 
C 416 2816 160 2444 160 2073 
C 160 1497 813 1363 998 1324 
C 1402 1241 1542 1216 1677 1100 
C 1760 1024 1901 883 1901 652 
C 1901 384 1747 38 1158 38 
C 602 38 403 460 288 1024 
C 269 1113 269 1120 218 1120 
C 166 1120 160 1113 160 985 
L 160 64 
C 160 -52 166 -58 205 -58 
C 237 -58 243 -52 275 0 
C 314 57 410 211 448 275 
C 576 102 800 -64 1158 -64 
C 1792 -64 2131 281 2131 780 
C 2131 1107 1958 1280 1875 1356 
C 1683 1555 1459 1600 1190 1651 
C 838 1728 390 1817 390 2208 
C 390 2374 480 2726 1126 2726 
C 1811 2726 1850 2086 1862 1881 
C 1869 1849 1901 1843 1920 1843 
C 1978 1843 1978 1862 1978 1971 
L 1978 2688 
z
" transform="scale(0.015625)"/>
       <path id="CMR17-74" d="M 966 2585 
L 1862 2585 
L 1862 2752 
L 966 2752 
L 966 3968 
L 851 3968 
C 838 3292 614 2700 70 2687 
L 70 2585 
L 627 2585 
L 627 778 
C 627 655 627 -64 1370 -64 
C 1747 -64 1965 308 1965 784 
L 1965 1151 
L 1850 1151 
L 1850 790 
C 1850 347 1677 51 1408 51 
C 1222 51 966 179 966 765 
L 966 2585 
z
" transform="scale(0.015625)"/>
       <path id="CMR17-61" d="M 2304 1656 
C 2304 2048 2304 2275 2035 2534 
C 1798 2751 1523 2816 1306 2816 
C 800 2816 435 2408 435 1977 
C 435 1740 627 1728 666 1728 
C 749 1728 896 1779 896 1958 
C 896 2118 774 2188 666 2188 
C 640 2188 608 2182 589 2176 
C 723 2594 1069 2713 1293 2713 
C 1613 2713 1965 2421 1965 1875 
L 1965 1632 
C 1587 1619 1133 1568 774 1373 
C 371 1147 256 822 256 576 
C 256 77 832 -64 1171 -64 
C 1523 -64 1850 135 1990 505 
C 2003 219 2182 -39 2464 -39 
C 2598 -39 2938 51 2938 563 
L 2938 926 
L 2822 926 
L 2822 557 
C 2822 161 2650 109 2566 109 
C 2304 109 2304 446 2304 732 
L 2304 1656 
z
M 1965 887 
C 1965 323 1568 38 1216 38 
C 896 38 646 278 646 576 
C 646 771 730 1114 1101 1322 
C 1408 1497 1760 1523 1965 1536 
L 1965 887 
z
" transform="scale(0.015625)"/>
       <path id="CMR17-6e" d="M 2656 1954 
C 2656 2282 2592 2816 1837 2816 
C 1331 2816 1069 2424 973 2166 
L 966 2166 
L 966 2816 
L 211 2745 
L 211 2578 
C 589 2578 646 2540 646 2231 
L 646 443 
C 646 198 621 166 211 166 
L 211 0 
C 365 12 646 12 813 12 
C 979 12 1267 12 1421 0 
L 1421 166 
C 1011 166 986 192 986 443 
L 986 1678 
C 986 2269 1344 2713 1792 2713 
C 2266 2713 2317 2289 2317 1980 
L 2317 443 
C 2317 198 2291 166 1882 166 
L 1882 0 
C 2035 12 2317 12 2483 12 
C 2650 12 2938 12 3091 0 
L 3091 166 
C 2682 166 2656 192 2656 443 
L 2656 1954 
z
" transform="scale(0.015625)"/>
       <path id="CMR17-63" d="M 2234 2240 
C 2112 2240 1933 2240 1933 2015 
C 1933 1836 2080 1785 2163 1785 
C 2208 1785 2394 1804 2394 2028 
C 2394 2476 1958 2816 1466 2816 
C 787 2816 211 2201 211 1379 
C 211 521 813 -64 1466 -64 
C 2259 -64 2458 676 2458 747 
C 2458 773 2451 792 2406 792 
C 2362 792 2355 786 2330 702 
C 2163 180 1798 51 1523 51 
C 1114 51 621 431 621 1385 
C 621 2358 1094 2700 1472 2700 
C 1722 2700 2093 2582 2234 2240 
z
" transform="scale(0.015625)"/>
       <path id="CMR17-65" d="M 2438 1503 
C 2464 1529 2464 1542 2464 1606 
C 2464 2251 2118 2816 1389 2816 
C 710 2816 173 2175 173 1394 
C 173 554 781 -64 1459 -64 
C 2176 -64 2458 619 2458 755 
C 2458 800 2419 800 2406 800 
C 2362 800 2355 787 2330 709 
C 2189 270 1837 51 1504 51 
C 1229 51 954 206 781 490 
C 582 819 582 1200 582 1503 
L 2438 1503 
z
M 589 1600 
C 634 2511 1126 2713 1382 2713 
C 1818 2713 2112 2308 2118 1600 
L 589 1600 
z
" transform="scale(0.015625)"/>
       <path id="CMR17-5b" d="M 1504 -1600 
L 1504 -1376 
L 902 -1376 
L 902 4575 
L 1504 4575 
L 1504 4800 
L 678 4800 
L 678 -1600 
L 1504 -1600 
z
" transform="scale(0.015625)"/>
       <path id="CMR17-6b" d="M 1670 1679 
C 1664 1692 1632 1730 1632 1749 
C 1632 1762 2086 2175 2144 2226 
C 2509 2532 2739 2563 2906 2570 
L 2906 2735 
C 2867 2735 2854 2735 2848 2729 
L 2534 2722 
C 2355 2722 2080 2722 1907 2735 
L 1907 2570 
C 1997 2563 2061 2513 2061 2423 
C 2061 2296 1933 2175 1926 2175 
L 960 1298 
L 960 4416 
L 198 4345 
L 198 4179 
C 576 4179 634 4141 634 3835 
L 634 439 
C 634 198 608 166 198 166 
L 198 0 
C 352 12 634 12 794 12 
C 954 12 1235 12 1389 0 
L 1389 166 
C 979 166 954 191 954 439 
L 954 1139 
L 1395 1540 
L 2042 586 
C 2118 471 2182 382 2182 299 
C 2182 185 2067 166 1990 166 
L 1990 0 
C 2144 12 2419 12 2579 12 
C 2694 12 2931 6 3040 0 
L 3040 166 
C 2739 166 2669 223 2477 503 
L 1670 1679 
z
" transform="scale(0.015625)"/>
       <path id="CMR17-70" d="M 1408 -1114 
C 998 -1114 973 -1088 973 -834 
L 973 380 
C 1158 109 1427 -64 1766 -64 
C 2406 -64 3053 503 3053 1382 
C 3053 2196 2496 2816 1837 2816 
C 1453 2816 1139 2603 960 2345 
L 960 2816 
L 198 2745 
L 198 2577 
C 576 2577 634 2539 634 2228 
L 634 -834 
C 634 -1081 608 -1114 198 -1114 
L 198 -1280 
C 352 -1268 634 -1268 800 -1268 
C 966 -1268 1254 -1268 1408 -1280 
L 1408 -1114 
z
M 973 2015 
C 973 2106 973 2241 1222 2481 
C 1254 2506 1472 2700 1792 2700 
C 2259 2700 2643 2112 2643 1376 
C 2643 639 2234 38 1728 38 
C 1498 38 1248 148 1056 451 
C 973 594 973 632 973 736 
L 973 2015 
z
" transform="scale(0.015625)"/>
       <path id="CMR17-5d" d="M 915 4800 
L 90 4800 
L 90 4575 
L 691 4575 
L 691 -1376 
L 90 -1376 
L 90 -1600 
L 915 -1600 
L 915 4800 
z
" transform="scale(0.015625)"/>
      </defs>
      <use xlink:href="#CMR17-44" transform="scale(0.996264)"/>
      <use xlink:href="#CMR17-69" transform="translate(70.393556 0)scale(0.996264)"/>
      <use xlink:href="#CMR17-73" transform="translate(95.264614 0)scale(0.996264)"/>
      <use xlink:href="#CMR17-74" transform="translate(131.065952 0)scale(0.996264)"/>
      <use xlink:href="#CMR17-61" transform="translate(166.34672 0)scale(0.996264)"/>
      <use xlink:href="#CMR17-6e" transform="translate(212.037197 0)scale(0.996264)"/>
      <use xlink:href="#CMR17-63" transform="translate(262.932567 0)scale(0.996264)"/>
      <use xlink:href="#CMR17-65" transform="translate(303.418227 0)scale(0.996264)"/>
      <use xlink:href="#CMR17-5b" transform="translate(373.979854 0)scale(0.996264)"/>
      <use xlink:href="#CMR17-6b" transform="translate(398.850912 0)scale(0.996264)"/>
      <use xlink:href="#CMR17-70" transform="translate(447.143828 0)scale(0.996264)"/>
      <use xlink:href="#CMR17-63" transform="translate(500.641637 0)scale(0.996264)"/>
      <use xlink:href="#CMR17-5d" transform="translate(541.127297 0)scale(0.996264)"/>
     </g>
    </g>
   </g>
   <g id="matplotlib.axis_2">
    <g id="ytick_1">
     <g id="line2d_10">
      <defs>
       <path id="m4c4a4ca15b" d="M 0 0 
L -3.5 0 
" style="stroke: #000000; stroke-width: 0.8"/>
      </defs>
      <g>
       <use xlink:href="#m4c4a4ca15b" x="45.555547" y="384.157026" style="stroke: #000000; stroke-width: 0.8"/>
      </g>
     </g>
     <g id="text_11">
      <!-- $\mathdefault{0.0}$ -->
      <g transform="translate(23.597905 388.308116)scale(0.12 -0.12)">
       <defs>
        <path id="CMMI12-3a" d="M 1178 307 
C 1178 492 1024 620 870 620 
C 685 620 557 467 557 313 
C 557 128 710 0 864 0 
C 1050 0 1178 153 1178 307 
z
" transform="scale(0.015625)"/>
       </defs>
       <use xlink:href="#CMR17-30" transform="scale(0.996264)"/>
       <use xlink:href="#CMMI12-3a" transform="translate(45.690477 0)scale(0.996264)"/>
       <use xlink:href="#CMR17-30" transform="translate(72.787654 0)scale(0.996264)"/>
      </g>
     </g>
    </g>
    <g id="ytick_2">
     <g id="line2d_11">
      <g>
       <use xlink:href="#m4c4a4ca15b" x="45.555547" y="328.717026" style="stroke: #000000; stroke-width: 0.8"/>
      </g>
     </g>
     <g id="text_12">
      <!-- $\mathdefault{0.2}$ -->
      <g transform="translate(23.597905 332.868116)scale(0.12 -0.12)">
       <use xlink:href="#CMR17-30" transform="scale(0.996264)"/>
       <use xlink:href="#CMMI12-3a" transform="translate(45.690477 0)scale(0.996264)"/>
       <use xlink:href="#CMR17-32" transform="translate(72.787654 0)scale(0.996264)"/>
      </g>
     </g>
    </g>
    <g id="ytick_3">
     <g id="line2d_12">
      <g>
       <use xlink:href="#m4c4a4ca15b" x="45.555547" y="273.277026" style="stroke: #000000; stroke-width: 0.8"/>
      </g>
     </g>
     <g id="text_13">
      <!-- $\mathdefault{0.4}$ -->
      <g transform="translate(23.597905 277.428116)scale(0.12 -0.12)">
       <use xlink:href="#CMR17-30" transform="scale(0.996264)"/>
       <use xlink:href="#CMMI12-3a" transform="translate(45.690477 0)scale(0.996264)"/>
       <use xlink:href="#CMR17-34" transform="translate(72.787654 0)scale(0.996264)"/>
      </g>
     </g>
    </g>
    <g id="ytick_4">
     <g id="line2d_13">
      <g>
       <use xlink:href="#m4c4a4ca15b" x="45.555547" y="217.837026" style="stroke: #000000; stroke-width: 0.8"/>
      </g>
     </g>
     <g id="text_14">
      <!-- $\mathdefault{0.6}$ -->
      <g transform="translate(23.597905 221.988116)scale(0.12 -0.12)">
       <use xlink:href="#CMR17-30" transform="scale(0.996264)"/>
       <use xlink:href="#CMMI12-3a" transform="translate(45.690477 0)scale(0.996264)"/>
       <use xlink:href="#CMR17-36" transform="translate(72.787654 0)scale(0.996264)"/>
      </g>
     </g>
    </g>
    <g id="ytick_5">
     <g id="line2d_14">
      <g>
       <use xlink:href="#m4c4a4ca15b" x="45.555547" y="162.397026" style="stroke: #000000; stroke-width: 0.8"/>
      </g>
     </g>
     <g id="text_15">
      <!-- $\mathdefault{0.8}$ -->
      <g transform="translate(23.597905 166.548116)scale(0.12 -0.12)">
       <use xlink:href="#CMR17-30" transform="scale(0.996264)"/>
       <use xlink:href="#CMMI12-3a" transform="translate(45.690477 0)scale(0.996264)"/>
       <use xlink:href="#CMR17-38" transform="translate(72.787654 0)scale(0.996264)"/>
      </g>
     </g>
    </g>
    <g id="ytick_6">
     <g id="line2d_15">
      <g>
       <use xlink:href="#m4c4a4ca15b" x="45.555547" y="106.957026" style="stroke: #000000; stroke-width: 0.8"/>
      </g>
     </g>
     <g id="text_16">
      <!-- $\mathdefault{1.0}$ -->
      <g transform="translate(23.597905 111.108116)scale(0.12 -0.12)">
       <use xlink:href="#CMR17-31" transform="scale(0.996264)"/>
       <use xlink:href="#CMMI12-3a" transform="translate(45.690477 0)scale(0.996264)"/>
       <use xlink:href="#CMR17-30" transform="translate(72.787654 0)scale(0.996264)"/>
      </g>
     </g>
    </g>
    <g id="ytick_7">
     <g id="line2d_16">
      <g>
       <use xlink:href="#m4c4a4ca15b" x="45.555547" y="51.517026" style="stroke: #000000; stroke-width: 0.8"/>
      </g>
     </g>
     <g id="text_17">
      <!-- $\mathdefault{1.2}$ -->
      <g transform="translate(23.597905 55.668116)scale(0.12 -0.12)">
       <use xlink:href="#CMR17-31" transform="scale(0.996264)"/>
       <use xlink:href="#CMMI12-3a" transform="translate(45.690477 0)scale(0.996264)"/>
       <use xlink:href="#CMR17-32" transform="translate(72.787654 0)scale(0.996264)"/>
      </g>
     </g>
    </g>
    <g id="text_18">
     <!-- Probability density -->
     <g transform="translate(16.885876 274.87267)rotate(-90)scale(0.14 -0.14)">
      <defs>
       <path id="CMR17-50" d="M 1267 2048 
L 2291 2048 
C 3117 2048 3718 2583 3718 3187 
C 3718 3791 3130 4352 2291 4352 
L 333 4352 
L 333 4185 
C 774 4185 845 4185 845 3899 
L 845 453 
C 845 166 774 166 333 166 
L 333 0 
C 518 12 858 12 1056 12 
C 1254 12 1594 12 1779 0 
L 1779 166 
C 1338 166 1267 166 1267 453 
L 1267 2048 
z
M 1254 2182 
L 1254 3937 
C 1254 4153 1267 4185 1523 4185 
L 2170 4185 
C 2995 4185 3232 3715 3232 3187 
C 3232 2608 2950 2182 2170 2182 
L 1254 2182 
z
" transform="scale(0.015625)"/>
       <path id="CMR17-72" d="M 960 1517 
C 960 2134 1222 2713 1702 2713 
C 1747 2713 1792 2707 1837 2687 
C 1837 2687 1696 2642 1696 2475 
C 1696 2321 1818 2257 1914 2257 
C 1990 2257 2131 2302 2131 2482 
C 2131 2687 1926 2816 1709 2816 
C 1222 2816 1011 2340 947 2115 
L 941 2115 
L 941 2816 
L 198 2745 
L 198 2578 
C 576 2578 634 2540 634 2231 
L 634 443 
C 634 198 608 166 198 166 
L 198 0 
C 352 12 646 12 813 12 
C 998 12 1325 12 1498 0 
L 1498 166 
C 1037 166 960 166 960 455 
L 960 1517 
z
" transform="scale(0.015625)"/>
       <path id="CMR17-6f" d="M 2758 1356 
C 2758 2176 2163 2816 1466 2816 
C 768 2816 173 2176 173 1356 
C 173 550 768 -64 1466 -64 
C 2163 -64 2758 550 2758 1356 
z
M 1466 51 
C 1165 51 909 230 762 480 
C 602 768 582 1126 582 1408 
C 582 1676 595 2009 762 2297 
C 890 2508 1139 2713 1466 2713 
C 1754 2713 1997 2553 2150 2329 
C 2349 2028 2349 1606 2349 1408 
C 2349 1158 2336 774 2163 467 
C 1984 172 1709 51 1466 51 
z
" transform="scale(0.015625)"/>
       <path id="CMR17-62" d="M 960 4416 
L 198 4345 
L 198 4179 
C 576 4179 634 4141 634 3843 
L 634 -13 
L 749 -13 
L 934 445 
C 1120 141 1395 -64 1766 -64 
C 2406 -64 3053 503 3053 1382 
C 3053 2209 2477 2816 1830 2816 
C 1434 2816 1152 2603 960 2351 
L 960 4416 
z
M 973 2022 
C 973 2138 973 2157 1062 2293 
C 1312 2681 1670 2713 1792 2713 
C 1984 2713 2643 2610 2643 1388 
C 2643 109 1888 38 1734 38 
C 1536 38 1248 115 1043 490 
C 973 613 973 626 973 742 
L 973 2022 
z
" transform="scale(0.015625)"/>
       <path id="CMR17-6c" d="M 979 4416 
L 218 4345 
L 218 4179 
C 595 4179 653 4141 653 3835 
L 653 439 
C 653 198 627 166 218 166 
L 218 0 
C 371 12 653 12 813 12 
C 979 12 1261 12 1414 0 
L 1414 166 
C 1005 166 979 191 979 439 
L 979 4416 
z
" transform="scale(0.015625)"/>
       <path id="CMR17-79" d="M 2496 2183 
C 2656 2579 2944 2585 3034 2585 
L 3034 2752 
C 2912 2745 2752 2739 2630 2739 
C 2496 2739 2285 2739 2157 2752 
L 2157 2585 
C 2400 2566 2406 2384 2406 2332 
C 2406 2268 2394 2235 2362 2158 
L 1664 409 
L 902 2300 
C 870 2378 870 2423 870 2430 
C 870 2572 1018 2585 1171 2585 
L 1171 2752 
C 1018 2739 742 2739 582 2739 
C 410 2739 205 2739 64 2752 
L 64 2585 
C 410 2585 448 2553 531 2345 
L 1485 -31 
C 1197 -795 1030 -1242 627 -1242 
C 557 -1242 397 -1223 282 -1106 
C 429 -1093 493 -1002 493 -892 
C 493 -782 416 -685 288 -685 
C 147 -685 77 -782 77 -899 
C 77 -1158 339 -1344 627 -1344 
C 998 -1344 1229 -983 1357 -659 
L 2496 2183 
z
" transform="scale(0.015625)"/>
       <path id="CMR17-64" d="M 1869 4345 
L 1869 4179 
C 2246 4179 2304 4141 2304 3843 
L 2304 2371 
C 2278 2403 2016 2816 1498 2816 
C 845 2816 211 2228 211 1376 
C 211 529 806 -64 1434 -64 
C 1978 -64 2259 361 2291 406 
L 2291 -64 
L 3066 -13 
L 3066 154 
C 2688 154 2630 193 2630 503 
L 2630 4416 
L 1869 4345 
z
M 2291 762 
C 2291 568 2176 393 2029 264 
C 1811 70 1594 38 1472 38 
C 1286 38 621 135 621 1369 
C 621 2636 1363 2713 1530 2713 
C 1824 2713 2061 2545 2208 2313 
C 2291 2177 2291 2157 2291 2041 
L 2291 762 
z
" transform="scale(0.015625)"/>
      </defs>
      <use xlink:href="#CMR17-50" transform="scale(0.996264)"/>
      <use xlink:href="#CMR17-72" transform="translate(62.586301 0)scale(0.996264)"/>
      <use xlink:href="#CMR17-6f" transform="translate(97.867068 0)scale(0.996264)"/>
      <use xlink:href="#CMR17-62" transform="translate(143.557545 0)scale(0.996264)"/>
      <use xlink:href="#CMR17-61" transform="translate(194.452915 0)scale(0.996264)"/>
      <use xlink:href="#CMR17-62" transform="translate(240.143392 0)scale(0.996264)"/>
      <use xlink:href="#CMR17-69" transform="translate(291.038762 0)scale(0.996264)"/>
      <use xlink:href="#CMR17-6c" transform="translate(315.909821 0)scale(0.996264)"/>
      <use xlink:href="#CMR17-69" transform="translate(340.780879 0)scale(0.996264)"/>
      <use xlink:href="#CMR17-74" transform="translate(365.651938 0)scale(0.996264)"/>
      <use xlink:href="#CMR17-79" transform="translate(398.330251 0)scale(0.996264)"/>
      <use xlink:href="#CMR17-64" transform="translate(476.699134 0)scale(0.996264)"/>
      <use xlink:href="#CMR17-65" transform="translate(527.594503 0)scale(0.996264)"/>
      <use xlink:href="#CMR17-6e" transform="translate(568.080164 0)scale(0.996264)"/>
      <use xlink:href="#CMR17-73" transform="translate(618.975534 0)scale(0.996264)"/>
      <use xlink:href="#CMR17-69" transform="translate(654.776871 0)scale(0.996264)"/>
      <use xlink:href="#CMR17-74" transform="translate(679.64793 0)scale(0.996264)"/>
      <use xlink:href="#CMR17-79" transform="translate(712.326244 0)scale(0.996264)"/>
     </g>
    </g>
   </g>
   <g id="line2d_17">
    <path d="M 212.955547 384.157026 
L 212.955547 51.517026 
" clip-path="url(#pdb9d561c18)" style="fill: none; stroke-dasharray: 5.55,2.4; stroke-dashoffset: 0; stroke: #000000; stroke-width: 1.5"/>
   </g>
   <g id="LineCollection_1">
    <path d="M 318.975547 126.361026 
L 346.875547 126.361026 
" clip-path="url(#pdb9d561c18)" style="fill: none; stroke-dasharray: 5.55,2.4; stroke-dashoffset: 0; stroke: #000000; stroke-width: 1.5"/>
   </g>
   <g id="patch_3">
    <path d="M 45.555547 384.157026 
L 45.555547 51.517026 
" style="fill: none; stroke: #000000; stroke-width: 0.8; stroke-linejoin: miter; stroke-linecap: square"/>
   </g>
   <g id="patch_4">
    <path d="M 491.955547 384.157026 
L 491.955547 51.517026 
" style="fill: none; stroke: #000000; stroke-width: 0.8; stroke-linejoin: miter; stroke-linecap: square"/>
   </g>
   <g id="patch_5">
    <path d="M 45.555547 384.157026 
L 491.955547 384.157026 
" style="fill: none; stroke: #000000; stroke-width: 0.8; stroke-linejoin: miter; stroke-linecap: square"/>
   </g>
   <g id="patch_6">
    <path d="M 45.555547 51.517026 
L 491.955547 51.517026 
" style="fill: none; stroke: #000000; stroke-width: 0.8; stroke-linejoin: miter; stroke-linecap: square"/>
   </g>
   <g id="text_19">
    <!-- $D^{\mathrm{true}}$ -->
    <g transform="translate(352.455547 129.349819)scale(0.12 -0.12)">
     <defs>
      <path id="CMMI12-44" d="M 1005 472 
C 947 249 934 185 486 185 
C 365 185 301 185 301 70 
C 301 0 339 0 467 0 
L 2496 0 
C 3789 0 5050 1332 5050 2752 
C 5050 3669 4499 4352 3584 4352 
L 1530 4352 
C 1408 4352 1350 4352 1350 4230 
C 1350 4166 1408 4166 1504 4166 
C 1894 4166 1894 4115 1894 4045 
C 1894 4032 1894 3994 1869 3898 
L 1005 472 
z
M 2355 3917 
C 2413 4153 2438 4166 2688 4166 
L 3392 4166 
C 3994 4166 4544 3841 4544 2962 
C 4544 2644 4416 1535 3795 835 
C 3616 625 3130 185 2394 185 
L 1664 185 
C 1574 185 1562 185 1523 191 
C 1453 198 1446 211 1446 262 
C 1446 306 1459 344 1472 402 
L 2355 3917 
z
" transform="scale(0.015625)"/>
      <path id="CMR17-75" d="M 1882 2745 
L 1882 2579 
C 2259 2579 2317 2540 2317 2229 
L 2317 1053 
C 2317 510 2029 38 1555 38 
C 1030 38 986 355 986 691 
L 986 2816 
L 211 2745 
L 211 2579 
C 467 2579 640 2579 646 2320 
L 646 1079 
C 646 646 646 368 813 187 
C 896 103 1056 -64 1517 -64 
C 2061 -64 2272 400 2323 536 
L 2330 536 
L 2330 -64 
L 3091 -13 
L 3091 154 
C 2714 154 2656 193 2656 503 
L 2656 2816 
L 1882 2745 
z
" transform="scale(0.015625)"/>
     </defs>
     <use xlink:href="#CMMI12-44" transform="scale(0.996264)"/>
     <use xlink:href="#CMR17-74" transform="translate(83.703948 36.153639)scale(0.697382)"/>
     <use xlink:href="#CMR17-72" transform="translate(108.400368 36.153639)scale(0.697382)"/>
     <use xlink:href="#CMR17-75" transform="translate(133.096789 36.153639)scale(0.697382)"/>
     <use xlink:href="#CMR17-65" transform="translate(168.723397 36.153639)scale(0.697382)"/>
    </g>
   </g>
   <g id="text_20">
    <!-- $D = $ 10.0 (95\% CI: 9.2 - 10.9) -->
    <g transform="translate(232.485547 276.265819)scale(0.12 -0.12)">
     <defs>
      <path id="CMR17-3d" d="M 4115 2048 
C 4211 2048 4307 2048 4307 2156 
C 4307 2272 4198 2272 4090 2272 
L 512 2272 
C 403 2272 294 2272 294 2156 
C 294 2048 390 2048 486 2048 
L 4115 2048 
z
M 4090 927 
C 4198 927 4307 927 4307 1043 
C 4307 1152 4211 1152 4115 1152 
L 486 1152 
C 390 1152 294 1152 294 1043 
C 294 927 403 927 512 927 
L 4090 927 
z
" transform="scale(0.015625)"/>
      <path id="CMR17-2e" d="M 1062 262 
C 1062 422 934 524 800 524 
C 672 524 538 422 538 262 
C 538 102 666 0 800 0 
C 928 0 1062 102 1062 262 
z
" transform="scale(0.015625)"/>
      <path id="CMR17-28" d="M 1958 -1562 
C 1958 -1556 1958 -1543 1939 -1524 
C 1645 -1223 858 -403 858 1596 
C 858 3595 1632 4408 1946 4729 
C 1946 4735 1958 4748 1958 4767 
C 1958 4787 1939 4800 1914 4800 
C 1843 4800 1299 4325 986 3620 
C 666 2909 576 2218 576 1603 
C 576 1141 621 360 1005 -467 
C 1312 -1133 1837 -1600 1914 -1600 
C 1946 -1600 1958 -1588 1958 -1562 
z
" transform="scale(0.015625)"/>
      <path id="CMR17-39" d="M 2253 1871 
C 2253 448 1670 25 1190 25 
C 1043 25 685 43 538 281 
C 704 256 826 345 826 505 
C 826 678 685 736 595 736 
C 538 736 365 710 365 492 
C 365 68 742 -128 1203 -128 
C 1939 -128 2688 665 2688 2090 
C 2688 3857 1971 4224 1485 4224 
C 851 4224 243 3664 243 2800 
C 243 2000 762 1408 1414 1408 
C 1952 1408 2189 1910 2253 2122 
L 2253 1871 
z
M 1427 1510 
C 1254 1510 1011 1542 813 1929 
C 678 2181 678 2477 678 2793 
C 678 3174 678 3438 858 3722 
C 947 3857 1114 4076 1485 4076 
C 2240 4076 2240 2909 2240 2651 
C 2240 2193 2035 1510 1427 1510 
z
" transform="scale(0.015625)"/>
      <path id="CMR17-35" d="M 730 3750 
C 794 3724 1056 3641 1325 3641 
C 1920 3641 2246 3961 2432 4140 
C 2432 4191 2432 4224 2394 4224 
C 2387 4224 2374 4224 2323 4198 
C 2099 4102 1837 4032 1517 4032 
C 1325 4032 1037 4055 723 4191 
C 653 4224 640 4224 634 4224 
C 602 4224 595 4217 595 4090 
L 595 2231 
C 595 2113 595 2080 659 2080 
C 691 2080 704 2093 736 2139 
C 941 2435 1222 2560 1542 2560 
C 1766 2560 2246 2415 2246 1293 
C 2246 1087 2246 716 2054 422 
C 1894 159 1645 25 1370 25 
C 947 25 518 319 403 812 
C 429 806 480 793 506 793 
C 589 793 749 838 749 1036 
C 749 1209 627 1280 506 1280 
C 358 1280 262 1190 262 1011 
C 262 454 704 -128 1382 -128 
C 2042 -128 2669 441 2669 1267 
C 2669 2054 2170 2662 1549 2662 
C 1222 2662 947 2540 730 2304 
L 730 3750 
z
" transform="scale(0.015625)"/>
      <path id="CMR17-25" d="M 4640 928 
C 4640 1670 4275 2214 3846 2214 
C 3411 2214 2970 1708 2970 928 
C 2970 147 3405 -359 3846 -359 
C 4275 -359 4640 179 4640 928 
z
M 3853 -256 
C 3686 -256 3270 -103 3270 928 
C 3270 1964 3686 2112 3853 2112 
C 4205 2112 4525 1606 4525 928 
C 4525 249 4205 -256 3853 -256 
z
M 4083 4572 
C 4128 4644 4134 4651 4134 4684 
C 4134 4761 4077 4800 4026 4800 
C 3962 4800 3936 4755 3891 4703 
C 3520 4155 3008 4096 2746 4096 
C 2106 4096 1715 4479 1594 4598 
C 1510 4677 1389 4800 1171 4800 
C 736 4800 294 4281 294 3496 
C 294 2718 730 2214 1171 2214 
C 1600 2214 1965 2750 1965 3496 
C 1965 3936 1830 4241 1811 4281 
C 2202 4025 2586 3993 2752 3993 
C 3162 3993 3456 4148 3616 4261 
L 3622 4254 
L 858 -122 
C 800 -212 800 -224 800 -244 
C 800 -314 858 -359 915 -359 
C 973 -359 992 -327 1037 -256 
L 4083 4572 
z
M 1178 2316 
C 1011 2316 595 2469 595 3496 
C 595 4545 1011 4697 1178 4697 
C 1530 4697 1850 4175 1850 3496 
C 1850 2820 1530 2316 1178 2316 
z
" transform="scale(0.015625)"/>
      <path id="CMR17-43" d="M 3974 4351 
C 3974 4467 3968 4473 3930 4473 
C 3904 4473 3898 4467 3853 4390 
L 3571 3849 
C 3258 4249 2874 4480 2381 4480 
C 1286 4480 294 3507 294 2179 
C 294 837 1286 -128 2387 -128 
C 3366 -128 3974 741 3974 1482 
C 3974 1547 3974 1573 3917 1573 
C 3866 1573 3866 1553 3859 1495 
C 3808 592 3168 38 2477 38 
C 1824 38 781 502 781 2179 
C 781 3862 1843 4313 2464 4313 
C 3187 4313 3712 3681 3834 2785 
C 3846 2707 3846 2695 3904 2695 
C 3974 2695 3974 2707 3974 2824 
L 3974 4351 
z
" transform="scale(0.015625)"/>
      <path id="CMR17-49" d="M 1261 3898 
C 1261 4185 1338 4185 1798 4185 
L 1798 4352 
C 1594 4339 1267 4339 1050 4339 
C 832 4339 506 4339 301 4352 
L 301 4185 
C 762 4185 838 4185 838 3898 
L 838 453 
C 838 166 762 166 301 166 
L 301 0 
C 506 12 832 12 1050 12 
C 1267 12 1594 12 1798 0 
L 1798 166 
C 1338 166 1261 166 1261 453 
L 1261 3898 
z
" transform="scale(0.015625)"/>
      <path id="CMR17-3a" d="M 1062 2489 
C 1062 2649 934 2752 800 2752 
C 672 2752 538 2649 538 2489 
C 538 2329 666 2227 800 2227 
C 928 2227 1062 2329 1062 2489 
z
M 1062 262 
C 1062 422 934 524 800 524 
C 672 524 538 422 538 262 
C 538 102 666 0 800 0 
C 928 0 1062 102 1062 262 
z
" transform="scale(0.015625)"/>
      <path id="CMR17-2d" d="M 1632 1254 
L 1632 1536 
L 26 1536 
L 26 1254 
L 1632 1254 
z
" transform="scale(0.015625)"/>
      <path id="CMR17-29" d="M 1683 1596 
C 1683 2057 1638 2839 1254 3665 
C 947 4332 422 4800 346 4800 
C 326 4800 301 4793 301 4761 
C 301 4748 307 4742 314 4729 
C 621 4408 1402 3595 1402 1603 
C 1402 -396 627 -1210 314 -1530 
C 307 -1543 301 -1549 301 -1562 
C 301 -1594 326 -1600 346 -1600 
C 416 -1600 960 -1127 1274 -422 
C 1594 289 1683 981 1683 1596 
z
" transform="scale(0.015625)"/>
     </defs>
     <use xlink:href="#CMMI12-44" transform="scale(0.996264)"/>
     <use xlink:href="#CMR17-3d" transform="translate(111.377956 0)scale(0.996264)"/>
     <use xlink:href="#CMR17-31" transform="translate(213.168711 0)scale(0.996264)"/>
     <use xlink:href="#CMR17-30" transform="translate(258.859188 0)scale(0.996264)"/>
     <use xlink:href="#CMR17-2e" transform="translate(304.549665 0)scale(0.996264)"/>
     <use xlink:href="#CMR17-30" transform="translate(329.420724 0)scale(0.996264)"/>
     <use xlink:href="#CMR17-28" transform="translate(405.187167 0)scale(0.996264)"/>
     <use xlink:href="#CMR17-39" transform="translate(440.467935 0)scale(0.996264)"/>
     <use xlink:href="#CMR17-35" transform="translate(486.158412 0)scale(0.996264)"/>
     <use xlink:href="#CMR17-25" transform="translate(531.848889 0)scale(0.996264)"/>
     <use xlink:href="#CMR17-43" transform="translate(638.844446 0)scale(0.996264)"/>
     <use xlink:href="#CMR17-49" transform="translate(705.354326 0)scale(0.996264)"/>
     <use xlink:href="#CMR17-3a" transform="translate(737.992735 0)scale(0.996264)"/>
     <use xlink:href="#CMR17-39" transform="translate(792.93976 0)scale(0.996264)"/>
     <use xlink:href="#CMR17-2e" transform="translate(838.630237 0)scale(0.996264)"/>
     <use xlink:href="#CMR17-32" transform="translate(863.501296 0)scale(0.996264)"/>
     <use xlink:href="#CMR17-2d" transform="translate(939.267739 0)scale(0.996264)"/>
     <use xlink:href="#CMR17-31" transform="translate(999.419672 0)scale(0.996264)"/>
     <use xlink:href="#CMR17-30" transform="translate(1045.110149 0)scale(0.996264)"/>
     <use xlink:href="#CMR17-2e" transform="translate(1090.800626 0)scale(0.996264)"/>
     <use xlink:href="#CMR17-39" transform="translate(1115.671685 0)scale(0.996264)"/>
     <use xlink:href="#CMR17-29" transform="translate(1161.362162 0)scale(0.996264)"/>
    </g>
   </g>
   <g id="text_21">
    <!-- $D = $ 10.2 (95\% CI: 6.5 - 13.1) -->
    <g transform="translate(249.225547 320.617819)scale(0.12 -0.12)">
     <defs>
      <path id="CMR17-33" d="M 1414 2176 
C 1984 2176 2234 1673 2234 1094 
C 2234 322 1824 25 1453 25 
C 1114 25 563 193 390 691 
C 422 678 454 678 486 678 
C 640 678 755 780 755 947 
C 755 1132 614 1216 486 1216 
C 378 1216 211 1164 211 927 
C 211 335 787 -128 1466 -128 
C 2176 -128 2720 432 2720 1087 
C 2720 1718 2208 2176 1600 2246 
C 2086 2347 2554 2776 2554 3353 
C 2554 3856 2048 4224 1472 4224 
C 890 4224 378 3862 378 3347 
C 378 3123 544 3084 627 3084 
C 762 3084 877 3167 877 3334 
C 877 3500 762 3584 627 3584 
C 602 3584 570 3584 544 3571 
C 730 3999 1235 4076 1459 4076 
C 1683 4076 2106 3966 2106 3347 
C 2106 3167 2080 2851 1862 2574 
C 1670 2329 1453 2316 1242 2297 
C 1210 2297 1062 2284 1037 2284 
C 992 2278 966 2272 966 2227 
C 966 2182 973 2176 1101 2176 
L 1414 2176 
z
" transform="scale(0.015625)"/>
     </defs>
     <use xlink:href="#CMMI12-44" transform="scale(0.996264)"/>
     <use xlink:href="#CMR17-3d" transform="translate(111.377956 0)scale(0.996264)"/>
     <use xlink:href="#CMR17-31" transform="translate(213.168711 0)scale(0.996264)"/>
     <use xlink:href="#CMR17-30" transform="translate(258.859188 0)scale(0.996264)"/>
     <use xlink:href="#CMR17-2e" transform="translate(304.549665 0)scale(0.996264)"/>
     <use xlink:href="#CMR17-32" transform="translate(329.420724 0)scale(0.996264)"/>
     <use xlink:href="#CMR17-28" transform="translate(405.187167 0)scale(0.996264)"/>
     <use xlink:href="#CMR17-39" transform="translate(440.467935 0)scale(0.996264)"/>
     <use xlink:href="#CMR17-35" transform="translate(486.158412 0)scale(0.996264)"/>
     <use xlink:href="#CMR17-25" transform="translate(531.848889 0)scale(0.996264)"/>
     <use xlink:href="#CMR17-43" transform="translate(638.844446 0)scale(0.996264)"/>
     <use xlink:href="#CMR17-49" transform="translate(705.354326 0)scale(0.996264)"/>
     <use xlink:href="#CMR17-3a" transform="translate(737.992735 0)scale(0.996264)"/>
     <use xlink:href="#CMR17-36" transform="translate(792.93976 0)scale(0.996264)"/>
     <use xlink:href="#CMR17-2e" transform="translate(838.630237 0)scale(0.996264)"/>
     <use xlink:href="#CMR17-35" transform="translate(863.501296 0)scale(0.996264)"/>
     <use xlink:href="#CMR17-2d" transform="translate(939.267739 0)scale(0.996264)"/>
     <use xlink:href="#CMR17-31" transform="translate(999.419672 0)scale(0.996264)"/>
     <use xlink:href="#CMR17-33" transform="translate(1045.110149 0)scale(0.996264)"/>
     <use xlink:href="#CMR17-2e" transform="translate(1090.800626 0)scale(0.996264)"/>
     <use xlink:href="#CMR17-31" transform="translate(1115.671685 0)scale(0.996264)"/>
     <use xlink:href="#CMR17-29" transform="translate(1161.362162 0)scale(0.996264)"/>
    </g>
   </g>
   <g id="text_22">
    <!-- $D = $ 13.7 (95\% CI: 8.2 - 18.0) -->
    <g transform="translate(310.605547 345.565819)scale(0.12 -0.12)">
     <defs>
      <path id="CMR17-37" d="M 2886 3955 
L 2886 4096 
L 1382 4096 
C 634 4096 621 4166 595 4288 
L 480 4288 
L 294 3104 
L 410 3104 
C 429 3226 474 3552 550 3673 
C 589 3724 1062 3724 1171 3724 
L 2579 3724 
L 1869 2670 
C 1395 1961 1069 1003 1069 166 
C 1069 89 1069 -128 1299 -128 
C 1530 -128 1530 89 1530 172 
L 1530 466 
C 1530 1514 1709 2204 2003 2644 
L 2886 3955 
z
" transform="scale(0.015625)"/>
     </defs>
     <use xlink:href="#CMMI12-44" transform="scale(0.996264)"/>
     <use xlink:href="#CMR17-3d" transform="translate(111.377956 0)scale(0.996264)"/>
     <use xlink:href="#CMR17-31" transform="translate(213.168711 0)scale(0.996264)"/>
     <use xlink:href="#CMR17-33" transform="translate(258.859188 0)scale(0.996264)"/>
     <use xlink:href="#CMR17-2e" transform="translate(304.549665 0)scale(0.996264)"/>
     <use xlink:href="#CMR17-37" transform="translate(329.420724 0)scale(0.996264)"/>
     <use xlink:href="#CMR17-28" transform="translate(405.187167 0)scale(0.996264)"/>
     <use xlink:href="#CMR17-39" transform="translate(440.467935 0)scale(0.996264)"/>
     <use xlink:href="#CMR17-35" transform="translate(486.158412 0)scale(0.996264)"/>
     <use xlink:href="#CMR17-25" transform="translate(531.848889 0)scale(0.996264)"/>
     <use xlink:href="#CMR17-43" transform="translate(638.844446 0)scale(0.996264)"/>
     <use xlink:href="#CMR17-49" transform="translate(705.354326 0)scale(0.996264)"/>
     <use xlink:href="#CMR17-3a" transform="translate(737.992735 0)scale(0.996264)"/>
     <use xlink:href="#CMR17-38" transform="translate(792.93976 0)scale(0.996264)"/>
     <use xlink:href="#CMR17-2e" transform="translate(838.630237 0)scale(0.996264)"/>
     <use xlink:href="#CMR17-32" transform="translate(863.501296 0)scale(0.996264)"/>
     <use xlink:href="#CMR17-2d" transform="translate(939.267739 0)scale(0.996264)"/>
     <use xlink:href="#CMR17-31" transform="translate(999.419672 0)scale(0.996264)"/>
     <use xlink:href="#CMR17-38" transform="translate(1045.110149 0)scale(0.996264)"/>
     <use xlink:href="#CMR17-2e" transform="translate(1090.800626 0)scale(0.996264)"/>
     <use xlink:href="#CMR17-30" transform="translate(1115.671685 0)scale(0.996264)"/>
     <use xlink:href="#CMR17-29" transform="translate(1161.362162 0)scale(0.996264)"/>
    </g>
   </g>
   <g id="text_23">
    <!-- Distance reconstruction  -->
    <g transform="translate(174.625662 21.036997)scale(0.2 -0.2)">
     <use xlink:href="#CMR17-44" transform="scale(0.996264)"/>
     <use xlink:href="#CMR17-69" transform="translate(70.393556 0)scale(0.996264)"/>
     <use xlink:href="#CMR17-73" transform="translate(95.264614 0)scale(0.996264)"/>
     <use xlink:href="#CMR17-74" transform="translate(131.065952 0)scale(0.996264)"/>
     <use xlink:href="#CMR17-61" transform="translate(166.34672 0)scale(0.996264)"/>
     <use xlink:href="#CMR17-6e" transform="translate(212.037197 0)scale(0.996264)"/>
     <use xlink:href="#CMR17-63" transform="translate(262.932567 0)scale(0.996264)"/>
     <use xlink:href="#CMR17-65" transform="translate(303.418227 0)scale(0.996264)"/>
     <use xlink:href="#CMR17-72" transform="translate(373.979854 0)scale(0.996264)"/>
     <use xlink:href="#CMR17-65" transform="translate(409.260622 0)scale(0.996264)"/>
     <use xlink:href="#CMR17-63" transform="translate(449.746282 0)scale(0.996264)"/>
     <use xlink:href="#CMR17-6f" transform="translate(490.231943 0)scale(0.996264)"/>
     <use xlink:href="#CMR17-6e" transform="translate(535.92242 0)scale(0.996264)"/>
     <use xlink:href="#CMR17-73" transform="translate(586.81779 0)scale(0.996264)"/>
     <use xlink:href="#CMR17-74" transform="translate(622.619127 0)scale(0.996264)"/>
     <use xlink:href="#CMR17-72" transform="translate(657.899895 0)scale(0.996264)"/>
     <use xlink:href="#CMR17-75" transform="translate(693.180663 0)scale(0.996264)"/>
     <use xlink:href="#CMR17-63" transform="translate(744.076033 0)scale(0.996264)"/>
     <use xlink:href="#CMR17-74" transform="translate(784.561693 0)scale(0.996264)"/>
     <use xlink:href="#CMR17-69" transform="translate(819.842461 0)scale(0.996264)"/>
     <use xlink:href="#CMR17-6f" transform="translate(844.713519 0)scale(0.996264)"/>
     <use xlink:href="#CMR17-6e" transform="translate(890.403996 0)scale(0.996264)"/>
    </g>
    <!--  using $L$ distribution and fitted parameters -->
    <g transform="translate(99.614625 41.517026)scale(0.2 -0.2)">
     <defs>
      <path id="CMR17-67" d="M 710 1165 
C 832 1068 1043 960 1299 960 
C 1805 960 2240 1359 2240 1895 
C 2240 2063 2189 2321 1997 2521 
C 2176 2713 2438 2777 2586 2777 
C 2611 2777 2650 2777 2682 2758 
C 2656 2751 2598 2726 2598 2623 
C 2598 2540 2656 2483 2739 2483 
C 2835 2483 2886 2547 2886 2630 
C 2886 2751 2790 2880 2586 2880 
C 2330 2880 2106 2758 1926 2591 
C 1734 2764 1504 2828 1299 2828 
C 794 2828 358 2431 358 1895 
C 358 1527 570 1294 634 1230 
C 442 1004 442 742 442 710 
C 442 544 506 300 723 166 
C 390 82 128 -184 128 -517 
C 128 -996 736 -1344 1466 -1344 
C 2170 -1344 2803 -1009 2803 -510 
C 2803 384 1856 384 1363 384 
C 1216 384 954 384 922 390 
C 723 422 589 601 589 825 
C 589 883 589 1024 710 1165 
z
M 1299 1068 
C 736 1068 736 1766 736 1895 
C 736 2024 736 2719 1299 2719 
C 1862 2719 1862 2024 1862 1895 
C 1862 1766 1862 1068 1299 1068 
z
M 1466 -1236 
C 826 -1236 384 -883 384 -517 
C 384 -311 493 -118 634 -11 
C 794 102 858 102 1293 102 
C 1818 102 2547 102 2547 -517 
C 2547 -883 2106 -1236 1466 -1236 
z
" transform="scale(0.015625)"/>
      <path id="CMMI12-4c" d="M 2349 3860 
C 2406 4102 2426 4166 2989 4166 
C 3162 4166 3206 4166 3206 4287 
C 3206 4352 3136 4352 3110 4352 
C 2982 4352 2835 4339 2707 4339 
L 1850 4339 
C 1728 4339 1587 4352 1466 4352 
C 1414 4352 1344 4352 1344 4230 
C 1344 4166 1402 4166 1498 4166 
C 1888 4166 1888 4115 1888 4045 
C 1888 4032 1888 3994 1862 3898 
L 998 472 
C 941 249 928 185 480 185 
C 358 185 294 185 294 70 
C 294 0 333 0 461 0 
L 3328 0 
C 3469 0 3475 6 3520 121 
L 4013 1478 
C 4026 1510 4038 1548 4038 1567 
C 4038 1605 4006 1631 3974 1631 
C 3968 1631 3936 1631 3923 1605 
C 3910 1599 3910 1586 3859 1465 
C 3654 905 3366 185 2285 185 
L 1670 185 
C 1581 185 1568 185 1530 191 
C 1459 198 1453 211 1453 262 
C 1453 306 1466 344 1478 402 
L 2349 3860 
z
" transform="scale(0.015625)"/>
      <path id="CMR17-c" d="M 2554 2816 
C 2400 2809 1926 2777 1805 2764 
C 1766 2758 1754 2758 1677 2758 
L 947 2758 
L 947 3517 
C 947 4127 1434 4416 1818 4416 
C 1939 4416 2214 4383 2355 4160 
C 2291 4160 2086 4160 2086 3935 
C 2086 3782 2189 3705 2317 3705 
C 2432 3705 2547 3769 2547 3942 
C 2547 4265 2240 4518 1843 4518 
C 1338 4518 634 4225 634 3517 
L 634 2758 
L 122 2758 
L 122 2591 
L 634 2591 
L 634 442 
C 634 198 608 166 198 166 
L 198 0 
C 352 12 634 12 794 12 
C 960 12 1242 12 1395 0 
L 1395 166 
C 986 166 960 192 960 442 
L 960 2591 
L 1901 2591 
C 2176 2591 2227 2534 2227 2251 
L 2227 442 
C 2227 198 2202 166 1792 166 
L 1792 0 
C 1946 12 2227 12 2387 12 
C 2554 12 2835 12 2989 0 
L 2989 166 
C 2579 166 2554 192 2554 442 
L 2554 2816 
z
" transform="scale(0.015625)"/>
      <path id="CMR17-6d" d="M 4326 1954 
C 4326 2276 4269 2816 3507 2816 
C 3072 2816 2771 2520 2656 2173 
L 2650 2173 
C 2573 2700 2195 2816 1837 2816 
C 1331 2816 1069 2424 973 2166 
L 966 2166 
L 966 2816 
L 211 2745 
L 211 2578 
C 589 2578 646 2540 646 2231 
L 646 443 
C 646 198 621 166 211 166 
L 211 0 
C 365 12 646 12 813 12 
C 979 12 1267 12 1421 0 
L 1421 166 
C 1011 166 986 192 986 443 
L 986 1678 
C 986 2269 1344 2713 1792 2713 
C 2266 2713 2317 2289 2317 1980 
L 2317 443 
C 2317 198 2291 166 1882 166 
L 1882 0 
C 2035 12 2317 12 2483 12 
C 2650 12 2938 12 3091 0 
L 3091 166 
C 2682 166 2656 192 2656 443 
L 2656 1678 
C 2656 2269 3014 2713 3462 2713 
C 3936 2713 3987 2289 3987 1980 
L 3987 443 
C 3987 198 3962 166 3552 166 
L 3552 0 
C 3706 12 3987 12 4154 12 
C 4320 12 4608 12 4762 0 
L 4762 166 
C 4352 166 4326 192 4326 443 
L 4326 1954 
z
" transform="scale(0.015625)"/>
     </defs>
     <use xlink:href="#CMR17-75" transform="scale(0.996264)"/>
     <use xlink:href="#CMR17-73" transform="translate(50.89537 0)scale(0.996264)"/>
     <use xlink:href="#CMR17-69" transform="translate(86.696707 0)scale(0.996264)"/>
     <use xlink:href="#CMR17-6e" transform="translate(111.567766 0)scale(0.996264)"/>
     <use xlink:href="#CMR17-67" transform="translate(162.463136 0)scale(0.996264)"/>
     <use xlink:href="#CMMI12-4c" transform="translate(238.229579 0)scale(0.996264)"/>
     <use xlink:href="#CMR17-64" transform="translate(334.676421 0)scale(0.996264)"/>
     <use xlink:href="#CMR17-69" transform="translate(385.571791 0)scale(0.996264)"/>
     <use xlink:href="#CMR17-73" transform="translate(410.442849 0)scale(0.996264)"/>
     <use xlink:href="#CMR17-74" transform="translate(446.244187 0)scale(0.996264)"/>
     <use xlink:href="#CMR17-72" transform="translate(481.524955 0)scale(0.996264)"/>
     <use xlink:href="#CMR17-69" transform="translate(516.805722 0)scale(0.996264)"/>
     <use xlink:href="#CMR17-62" transform="translate(541.676781 0)scale(0.996264)"/>
     <use xlink:href="#CMR17-75" transform="translate(592.572151 0)scale(0.996264)"/>
     <use xlink:href="#CMR17-74" transform="translate(643.46752 0)scale(0.996264)"/>
     <use xlink:href="#CMR17-69" transform="translate(678.748288 0)scale(0.996264)"/>
     <use xlink:href="#CMR17-6f" transform="translate(703.619347 0)scale(0.996264)"/>
     <use xlink:href="#CMR17-6e" transform="translate(749.309824 0)scale(0.996264)"/>
     <use xlink:href="#CMR17-61" transform="translate(830.28116 0)scale(0.996264)"/>
     <use xlink:href="#CMR17-6e" transform="translate(875.971637 0)scale(0.996264)"/>
     <use xlink:href="#CMR17-64" transform="translate(926.867007 0)scale(0.996264)"/>
     <use xlink:href="#CMR17-c" transform="translate(1007.838343 0)scale(0.996264)"/>
     <use xlink:href="#CMR17-74" transform="translate(1057.580566 0)scale(0.996264)"/>
     <use xlink:href="#CMR17-74" transform="translate(1092.861334 0)scale(0.996264)"/>
     <use xlink:href="#CMR17-65" transform="translate(1128.142102 0)scale(0.996264)"/>
     <use xlink:href="#CMR17-64" transform="translate(1168.627762 0)scale(0.996264)"/>
     <use xlink:href="#CMR17-70" transform="translate(1249.599099 0)scale(0.996264)"/>
     <use xlink:href="#CMR17-61" transform="translate(1300.494468 0)scale(0.996264)"/>
     <use xlink:href="#CMR17-72" transform="translate(1346.184945 0)scale(0.996264)"/>
     <use xlink:href="#CMR17-61" transform="translate(1381.465713 0)scale(0.996264)"/>
     <use xlink:href="#CMR17-6d" transform="translate(1427.15619 0)scale(0.996264)"/>
     <use xlink:href="#CMR17-65" transform="translate(1504.07578 0)scale(0.996264)"/>
     <use xlink:href="#CMR17-74" transform="translate(1544.561441 0)scale(0.996264)"/>
     <use xlink:href="#CMR17-65" transform="translate(1579.842209 0)scale(0.996264)"/>
     <use xlink:href="#CMR17-72" transform="translate(1620.327869 0)scale(0.996264)"/>
     <use xlink:href="#CMR17-73" transform="translate(1655.608637 0)scale(0.996264)"/>
    </g>
   </g>
   <g id="legend_1">
    <g id="patch_7">
     <path d="M 315.109026 114.768684 
L 483.555547 114.768684 
Q 485.955547 114.768684 485.955547 112.368684 
L 485.955547 59.917026 
Q 485.955547 57.517026 483.555547 57.517026 
L 315.109026 57.517026 
Q 312.709026 57.517026 312.709026 59.917026 
L 312.709026 112.368684 
Q 312.709026 114.768684 315.109026 114.768684 
z
" style="fill: #ffffff; opacity: 0.8; stroke: #cccccc; stroke-linejoin: miter"/>
    </g>
    <g id="patch_8">
     <path d="M 317.509026 71.791765 
L 341.509026 71.791765 
L 341.509026 63.391765 
L 317.509026 63.391765 
z
" style="fill: #280b53; fill-opacity: 0.25; stroke: #280b53; stroke-linejoin: miter"/>
    </g>
    <g id="text_24">
     <!-- $L \sim \mathcal{U}(0.5, 2) \times 10^{53}$ ergs -->
     <g transform="translate(351.109026 71.791765)scale(0.12 -0.12)">
      <defs>
       <path id="CMSY10-18" d="M 4621 2131 
C 4621 2272 4582 2336 4531 2336 
C 4499 2336 4448 2291 4442 2169 
C 4416 1562 3994 1216 3546 1216 
C 3142 1216 2835 1486 2522 1757 
C 2195 2048 1862 2342 1427 2342 
C 730 2342 352 1644 352 1068 
C 352 863 435 863 442 863 
C 512 863 531 991 531 1011 
C 557 1707 1037 1984 1427 1984 
C 1830 1984 2138 1713 2451 1442 
C 2778 1151 3110 857 3546 857 
C 4243 857 4621 1555 4621 2131 
z
" transform="scale(0.015625)"/>
       <path id="CMSY10-55" d="M 3155 1892 
C 3008 1359 2784 573 2784 83 
C 2784 -90 2893 -167 3046 -167 
C 3302 -167 3782 108 3782 236 
C 3782 268 3750 281 3718 281 
C 3642 281 3526 224 3456 185 
C 3373 198 3328 262 3328 350 
C 3328 1125 4058 3346 4243 3815 
C 4320 3993 4403 4255 4403 4307 
C 4403 4352 4365 4352 4339 4352 
C 4205 4352 3917 4179 3866 4057 
C 3782 3834 3770 3802 3693 3568 
C 3482 2965 2848 1918 2214 1182 
C 2016 960 1389 224 934 224 
C 627 224 435 484 435 903 
C 435 1347 685 1918 1069 2787 
C 1299 3308 1491 3758 1491 4044 
C 1491 4345 1286 4352 1171 4352 
C 678 4352 64 3955 64 3822 
C 64 3783 109 3783 134 3783 
C 211 3783 326 3834 429 3904 
C 474 3936 576 3999 749 3999 
C 890 3999 947 3910 947 3771 
C 947 3492 717 2971 448 2362 
C 26 1410 -109 1004 -109 636 
C -109 217 58 -128 512 -128 
C 909 -128 1491 134 2144 738 
C 2586 1150 2874 1531 3149 1899 
L 3155 1892 
z
" transform="scale(0.015625)"/>
       <path id="CMMI12-3b" d="M 1248 -26 
C 1248 345 1126 620 864 620 
C 659 620 557 454 557 313 
C 557 172 653 0 870 0 
C 954 0 1024 25 1082 83 
C 1094 96 1101 96 1107 96 
C 1120 96 1120 6 1120 -26 
C 1120 -233 1082 -642 710 -1051 
C 640 -1127 640 -1140 640 -1152 
C 640 -1184 672 -1216 704 -1216 
C 755 -1216 1248 -749 1248 -26 
z
" transform="scale(0.015625)"/>
       <path id="CMSY10-2" d="M 2490 1775 
L 1210 3046 
C 1133 3123 1120 3136 1069 3136 
C 1005 3136 941 3078 941 3008 
C 941 2963 954 2950 1024 2880 
L 2304 1596 
L 1024 313 
C 954 243 941 230 941 185 
C 941 115 1005 57 1069 57 
C 1120 57 1133 70 1210 147 
L 2483 1418 
L 3808 95 
C 3821 89 3866 57 3904 57 
C 3981 57 4032 115 4032 185 
C 4032 198 4032 223 4013 255 
C 4006 268 2989 1271 2669 1596 
L 3840 2765 
C 3872 2803 3968 2886 4000 2925 
C 4006 2937 4032 2963 4032 3008 
C 4032 3078 3981 3136 3904 3136 
C 3853 3136 3827 3110 3757 3040 
L 2490 1775 
z
" transform="scale(0.015625)"/>
      </defs>
      <use xlink:href="#CMMI12-4c" transform="scale(0.996264)"/>
      <use xlink:href="#CMSY10-18" transform="translate(94.044884 0)scale(0.996264)"/>
      <use xlink:href="#CMSY10-55" transform="translate(199.206361 0)scale(0.996264)"/>
      <use xlink:href="#CMR17-28" transform="translate(271.449213 0)scale(0.996264)"/>
      <use xlink:href="#CMR17-30" transform="translate(306.729981 0)scale(0.996264)"/>
      <use xlink:href="#CMMI12-3a" transform="translate(352.420458 0)scale(0.996264)"/>
      <use xlink:href="#CMR17-35" transform="translate(379.517635 0)scale(0.996264)"/>
      <use xlink:href="#CMMI12-3b" transform="translate(425.208112 0)scale(0.996264)"/>
      <use xlink:href="#CMR17-32" transform="translate(468.909695 0)scale(0.996264)"/>
      <use xlink:href="#CMR17-29" transform="translate(514.600172 0)scale(0.996264)"/>
      <use xlink:href="#CMSY10-2" transform="translate(572.020147 0)scale(0.996264)"/>
      <use xlink:href="#CMR17-31" transform="translate(671.646821 0)scale(0.996264)"/>
      <use xlink:href="#CMR17-30" transform="translate(717.337298 0)scale(0.996264)"/>
      <use xlink:href="#CMR17-35" transform="translate(763.027775 36.153639)scale(0.697382)"/>
      <use xlink:href="#CMR17-33" transform="translate(795.010957 36.153639)scale(0.697382)"/>
      <use xlink:href="#CMR17-65" transform="translate(857.568238 0)scale(0.996264)"/>
      <use xlink:href="#CMR17-72" transform="translate(898.053898 0)scale(0.996264)"/>
      <use xlink:href="#CMR17-67" transform="translate(933.334666 0)scale(0.996264)"/>
      <use xlink:href="#CMR17-73" transform="translate(979.025143 0)scale(0.996264)"/>
     </g>
    </g>
    <g id="patch_9">
     <path d="M 317.509026 90.255296 
L 341.509026 90.255296 
L 341.509026 81.855296 
L 317.509026 81.855296 
z
" style="fill: #9f2a63; fill-opacity: 0.25; stroke: #9f2a63; stroke-linejoin: miter"/>
    </g>
    <g id="text_25">
     <!-- $L \sim \mathcal{N}(1, 0.3) \times 10^{53}$ ergs -->
     <g transform="translate(351.109026 90.255296)scale(0.12 -0.12)">
      <defs>
       <path id="CMSY10-4e" d="M 1958 3657 
C 2074 3326 2214 2848 2502 2065 
C 2906 982 3085 587 3475 -20 
C 3565 -154 3571 -160 3629 -160 
C 3718 -160 3853 -84 3923 -32 
C 4013 51 4019 57 4090 370 
C 4474 2046 4960 3791 5088 4084 
C 5094 4097 5222 4339 6010 4352 
C 6138 4358 6259 4697 6259 4838 
C 6259 4940 6221 4940 6131 4940 
C 5491 4940 5203 4672 5126 4588 
C 4947 4358 4794 3893 4499 2829 
C 4275 2014 4070 1186 3872 364 
C 3520 893 3322 1396 3014 2218 
C 2675 3122 2470 3785 2298 4358 
C 2259 4486 2253 4492 2195 4492 
C 2182 4492 2054 4492 1869 4339 
C 1805 4282 1798 4224 1792 4154 
C 1613 2460 1011 784 838 479 
C 787 383 710 268 582 268 
C 518 268 269 300 102 453 
C 70 479 58 479 51 479 
C -51 479 -186 160 -186 6 
C -186 -192 205 -320 384 -320 
C 794 -320 1120 580 1222 873 
C 1638 2026 1837 2976 1958 3657 
z
" transform="scale(0.015625)"/>
      </defs>
      <use xlink:href="#CMMI12-4c" transform="scale(0.996264)"/>
      <use xlink:href="#CMSY10-18" transform="translate(94.044884 0)scale(0.996264)"/>
      <use xlink:href="#CMSY10-4e" transform="translate(199.206361 0)scale(0.996264)"/>
      <use xlink:href="#CMR17-28" transform="translate(295.629822 0)scale(0.996264)"/>
      <use xlink:href="#CMR17-31" transform="translate(330.91059 0)scale(0.996264)"/>
      <use xlink:href="#CMMI12-3b" transform="translate(376.601067 0)scale(0.996264)"/>
      <use xlink:href="#CMR17-30" transform="translate(420.302649 0)scale(0.996264)"/>
      <use xlink:href="#CMMI12-3a" transform="translate(465.993126 0)scale(0.996264)"/>
      <use xlink:href="#CMR17-33" transform="translate(493.090303 0)scale(0.996264)"/>
      <use xlink:href="#CMR17-29" transform="translate(538.780781 0)scale(0.996264)"/>
      <use xlink:href="#CMSY10-2" transform="translate(596.200755 0)scale(0.996264)"/>
      <use xlink:href="#CMR17-31" transform="translate(695.82743 0)scale(0.996264)"/>
      <use xlink:href="#CMR17-30" transform="translate(741.517907 0)scale(0.996264)"/>
      <use xlink:href="#CMR17-35" transform="translate(787.208384 36.153639)scale(0.697382)"/>
      <use xlink:href="#CMR17-33" transform="translate(819.191566 36.153639)scale(0.697382)"/>
      <use xlink:href="#CMR17-65" transform="translate(881.748846 0)scale(0.996264)"/>
      <use xlink:href="#CMR17-72" transform="translate(922.234507 0)scale(0.996264)"/>
      <use xlink:href="#CMR17-67" transform="translate(957.515275 0)scale(0.996264)"/>
      <use xlink:href="#CMR17-73" transform="translate(1003.205752 0)scale(0.996264)"/>
     </g>
    </g>
    <g id="patch_10">
     <path d="M 317.509026 107.644088 
L 341.509026 107.644088 
L 341.509026 99.244088 
L 317.509026 99.244088 
z
" style="fill: #f57d15; fill-opacity: 0.25; stroke: #f57d15; stroke-linejoin: miter"/>
    </g>
    <g id="text_26">
     <!-- $L = L^{\mathrm{true}}$ -->
     <g transform="translate(351.109026 107.644088)scale(0.12 -0.12)">
      <use xlink:href="#CMMI12-4c" transform="scale(0.996264)"/>
      <use xlink:href="#CMR17-3d" transform="translate(94.044884 0)scale(0.996264)"/>
      <use xlink:href="#CMMI12-4c" transform="translate(193.433681 0)scale(0.996264)"/>
      <use xlink:href="#CMR17-74" transform="translate(259.804557 36.153639)scale(0.697382)"/>
      <use xlink:href="#CMR17-72" transform="translate(284.500977 36.153639)scale(0.697382)"/>
      <use xlink:href="#CMR17-75" transform="translate(309.197398 36.153639)scale(0.697382)"/>
      <use xlink:href="#CMR17-65" transform="translate(344.824006 36.153639)scale(0.697382)"/>
     </g>
    </g>
   </g>
  </g>
 </g>
 <defs>
  <clipPath id="pdb9d561c18">
   <rect x="45.555547" y="51.517026" width="446.4" height="332.64"/>
  </clipPath>
 </defs>
</svg>
