<?xml version="1.0" encoding="utf-8" standalone="no"?>
<!DOCTYPE svg PUBLIC "-//W3C//DTD SVG 1.1//EN"
  "http://www.w3.org/Graphics/SVG/1.1/DTD/svg11.dtd">
<svg xmlns:xlink="http://www.w3.org/1999/xlink" width="505.008537pt" height="426.931498pt" viewBox="0 0 505.008537 426.931498" xmlns="http://www.w3.org/2000/svg" version="1.1">
 <metadata>
  <rdf:RDF xmlns:dc="http://purl.org/dc/elements/1.1/" xmlns:cc="http://creativecommons.org/ns#" xmlns:rdf="http://www.w3.org/1999/02/22-rdf-syntax-ns#">
   <cc:Work>
    <dc:type rdf:resource="http://purl.org/dc/dcmitype/StillImage"/>
    <dc:date>2023-07-26T15:03:11.532754</dc:date>
    <dc:format>image/svg+xml</dc:format>
    <dc:creator>
     <cc:Agent>
      <dc:title>Matplotlib v3.5.2, https://matplotlib.org/</dc:title>
     </cc:Agent>
    </dc:creator>
   </cc:Work>
  </rdf:RDF>
 </metadata>
 <defs>
  <style type="text/css">*{stroke-linejoin: round; stroke-linecap: butt}</style>
 </defs>
 <g id="figure_1">
  <g id="patch_1">
   <path d="M 0 426.931498 
L 505.008537 426.931498 
L 505.008537 0 
L 0 0 
z
" style="fill: #ffffff"/>
  </g>
  <g id="axes_1">
   <g id="patch_2">
    <path d="M 45.555547 384.157026 
L 491.955547 384.157026 
L 491.955547 51.517026 
L 45.555547 51.517026 
z
" style="fill: #ffffff"/>
   </g>
   <g id="PolyCollection_1">
    <defs>
     <path id="mab3a8048c4" d="M 164.790721 -42.774861 
L 164.790721 -42.774472 
L 165.863978 -42.774472 
L 166.937235 -42.774472 
L 168.010492 -42.774472 
L 169.083749 -42.774472 
L 170.157006 -42.774472 
L 171.230263 -42.774472 
L 172.30352 -42.774472 
L 173.376777 -42.774472 
L 174.450034 -42.774472 
L 175.523291 -42.774472 
L 176.596548 -42.774472 
L 177.669805 -42.774472 
L 178.743062 -42.774472 
L 179.816319 -42.774472 
L 180.889576 -42.774472 
L 181.962833 -42.774472 
L 183.03609 -42.774472 
L 184.109347 -42.774472 
L 185.182604 -42.774472 
L 186.255861 -42.774472 
L 187.329118 -42.774472 
L 188.402375 -42.774472 
L 189.475632 -42.774472 
L 190.548889 -42.774472 
L 191.622146 -42.774472 
L 192.695403 -42.774472 
L 193.76866 -42.774472 
L 194.841917 -42.774472 
L 195.915173 -42.774472 
L 196.98843 -42.774472 
L 198.061687 -42.774472 
L 199.134944 -42.774472 
L 200.208201 -42.774472 
L 201.281458 -42.774472 
L 202.354715 -42.774472 
L 203.427972 -42.774472 
L 204.501229 -42.774472 
L 205.574486 -42.774472 
L 206.647743 -42.774472 
L 207.721 -42.774472 
L 208.794257 -42.774472 
L 209.867514 -42.774472 
L 210.940771 -42.774472 
L 212.014028 -42.774472 
L 213.087285 -42.774472 
L 214.160542 -42.774472 
L 215.233799 -42.774472 
L 216.307056 -42.774472 
L 217.380313 -42.774472 
L 218.45357 -42.774472 
L 219.526827 -42.774472 
L 220.600084 -42.774472 
L 221.673341 -42.774472 
L 222.746598 -42.774472 
L 223.819855 -42.774472 
L 224.893112 -42.774472 
L 225.966369 -42.774472 
L 227.039626 -42.774472 
L 228.112883 -42.774472 
L 229.18614 -42.774472 
L 230.259397 -42.774472 
L 231.332654 -42.774472 
L 232.405911 -42.774472 
L 233.479168 -42.774472 
L 234.552425 -42.774472 
L 235.625681 -42.774472 
L 236.698938 -42.774472 
L 237.772195 -42.774472 
L 238.845452 -42.774472 
L 239.918709 -42.774472 
L 240.991966 -42.774472 
L 242.065223 -42.774472 
L 243.13848 -42.774472 
L 244.211737 -42.774472 
L 245.284994 -42.774472 
L 246.358251 -42.774472 
L 247.431508 -42.774472 
L 248.504765 -42.774472 
L 249.578022 -42.774472 
L 250.651279 -42.774472 
L 251.724536 -42.774472 
L 252.797793 -42.774472 
L 253.87105 -42.774472 
L 254.944307 -42.774472 
L 256.017564 -42.774472 
L 257.090821 -42.774472 
L 258.164078 -42.774472 
L 259.237335 -42.774472 
L 260.310592 -42.774472 
L 261.383849 -42.774472 
L 262.457106 -42.774472 
L 263.530363 -42.774472 
L 264.60362 -42.774472 
L 265.676877 -42.774472 
L 266.750134 -42.774472 
L 267.823391 -42.774472 
L 268.896648 -42.774472 
L 269.969905 -42.774472 
L 271.043162 -42.774472 
L 272.116419 -42.774472 
L 273.189676 -42.774472 
L 274.262933 -42.774472 
L 275.336189 -42.774472 
L 276.409446 -42.774472 
L 277.482703 -42.774472 
L 278.55596 -42.774472 
L 279.629217 -42.774472 
L 280.702474 -42.774472 
L 281.775731 -42.774472 
L 282.848988 -42.774472 
L 283.922245 -42.774472 
L 284.995502 -42.774472 
L 286.068759 -42.774472 
L 287.142016 -42.774472 
L 288.215273 -42.774472 
L 289.28853 -42.774472 
L 290.361787 -42.774472 
L 291.435044 -42.774472 
L 292.508301 -42.774472 
L 293.581558 -42.774472 
L 294.654815 -42.774472 
L 295.728072 -42.774472 
L 296.801329 -42.774472 
L 297.874586 -42.774472 
L 298.947843 -42.774472 
L 300.0211 -42.774472 
L 301.094357 -42.774472 
L 302.167614 -42.774472 
L 303.240871 -42.774472 
L 304.314128 -42.774472 
L 305.387385 -42.774472 
L 306.460642 -42.774472 
L 307.533899 -42.774472 
L 308.607156 -42.774472 
L 309.680413 -42.774472 
L 310.75367 -42.774472 
L 311.826927 -42.774472 
L 312.900184 -42.774472 
L 313.973441 -42.774472 
L 315.046697 -42.774472 
L 316.119954 -42.774472 
L 317.193211 -42.774472 
L 318.266468 -42.774472 
L 319.339725 -42.774472 
L 320.412982 -42.774472 
L 321.486239 -42.774472 
L 322.559496 -42.774472 
L 323.632753 -42.774472 
L 324.70601 -42.774472 
L 325.779267 -42.774472 
L 326.852524 -42.774472 
L 327.925781 -42.774472 
L 328.999038 -42.774472 
L 330.072295 -42.774472 
L 331.145552 -42.774472 
L 332.218809 -42.774472 
L 333.292066 -42.774472 
L 334.365323 -42.774472 
L 335.43858 -42.774472 
L 336.511837 -42.774472 
L 337.585094 -42.774472 
L 338.658351 -42.774472 
L 339.731608 -42.774472 
L 340.804865 -42.774472 
L 341.878122 -42.774472 
L 342.951379 -42.774472 
L 344.024636 -42.774472 
L 345.097893 -42.774472 
L 346.17115 -42.774472 
L 347.244407 -42.774472 
L 348.317664 -42.774472 
L 349.390921 -42.774472 
L 350.464178 -42.774472 
L 351.537435 -42.774472 
L 352.610692 -42.774472 
L 353.683949 -42.774472 
L 354.757205 -42.774472 
L 355.830462 -42.774472 
L 356.903719 -42.774472 
L 357.976976 -42.774472 
L 359.050233 -42.774472 
L 360.12349 -42.774472 
L 361.196747 -42.774472 
L 362.270004 -42.774472 
L 363.343261 -42.774472 
L 364.416518 -42.774472 
L 365.489775 -42.774472 
L 366.563032 -42.774472 
L 367.636289 -42.774472 
L 368.709546 -42.774472 
L 369.782803 -42.774472 
L 370.85606 -42.774472 
L 371.929317 -42.774472 
L 373.002574 -42.774472 
L 374.075831 -42.774472 
L 375.149088 -42.774472 
L 376.222345 -42.774472 
L 377.295602 -42.774472 
L 378.368859 -42.774472 
L 378.368859 -42.775627 
L 378.368859 -42.775627 
L 377.295602 -42.778285 
L 376.222345 -42.78521 
L 375.149088 -42.800392 
L 374.075831 -42.828402 
L 373.002574 -42.871938 
L 371.929317 -42.929011 
L 370.85606 -42.992308 
L 369.782803 -43.052411 
L 368.709546 -43.103763 
L 367.636289 -43.14996 
L 366.563032 -43.205026 
L 365.489775 -43.28956 
L 364.416518 -43.423556 
L 363.343261 -43.619313 
L 362.270004 -43.877238 
L 361.196747 -44.185746 
L 360.12349 -44.525646 
L 359.050233 -44.8779 
L 357.976976 -45.2307 
L 356.903719 -45.580942 
L 355.830462 -45.92969 
L 354.757205 -46.277985 
L 353.683949 -46.631039 
L 352.610692 -47.010594 
L 351.537435 -47.461979 
L 350.464178 -48.040166 
L 349.390921 -48.777804 
L 348.317664 -49.660525 
L 347.244407 -50.63192 
L 346.17115 -51.623703 
L 345.097893 -52.588158 
L 344.024636 -53.516882 
L 342.951379 -54.442401 
L 341.878122 -55.419521 
L 340.804865 -56.487563 
L 339.731608 -57.637162 
L 338.658351 -58.816742 
L 337.585094 -59.981694 
L 336.511837 -61.14257 
L 335.43858 -62.365878 
L 334.365323 -63.725785 
L 333.292066 -65.245233 
L 332.218809 -66.867888 
L 331.145552 -68.479982 
L 330.072295 -69.97177 
L 328.999038 -71.301223 
L 327.925781 -72.517278 
L 326.852524 -73.730747 
L 325.779267 -75.059901 
L 324.70601 -76.583581 
L 323.632753 -78.313133 
L 322.559496 -80.183514 
L 321.486239 -82.070749 
L 320.412982 -83.841951 
L 319.339725 -85.422399 
L 318.266468 -86.840799 
L 317.193211 -88.220036 
L 316.119954 -89.71896 
L 315.046697 -91.461199 
L 313.973441 -93.483114 
L 312.900184 -95.720134 
L 311.826927 -98.044009 
L 310.75367 -100.334676 
L 309.680413 -102.527823 
L 308.607156 -104.592334 
L 307.533899 -106.471421 
L 306.460642 -108.070787 
L 305.387385 -109.325311 
L 304.314128 -110.283079 
L 303.240871 -111.120271 
L 302.167614 -112.062654 
L 301.094357 -113.267888 
L 300.0211 -114.75008 
L 298.947843 -116.39272 
L 297.874586 -118.030347 
L 296.801329 -119.535385 
L 295.728072 -120.861444 
L 294.654815 -122.044115 
L 293.581558 -123.183686 
L 292.508301 -124.415113 
L 291.435044 -125.854371 
L 290.361787 -127.530846 
L 289.28853 -129.348233 
L 288.215273 -131.112847 
L 287.142016 -132.620036 
L 286.068759 -133.746443 
L 284.995502 -134.50259 
L 283.922245 -135.033385 
L 282.848988 -135.570133 
L 281.775731 -136.344938 
L 280.702474 -137.499115 
L 279.629217 -139.028334 
L 278.55596 -140.785957 
L 277.482703 -142.540566 
L 276.409446 -144.077925 
L 275.336189 -145.322596 
L 274.262933 -146.412272 
L 273.189676 -147.644569 
L 272.116419 -149.291925 
L 271.043162 -151.402945 
L 269.969905 -153.752786 
L 268.896648 -155.999572 
L 267.823391 -157.927541 
L 266.750134 -159.578291 
L 265.676877 -161.17047 
L 264.60362 -162.889709 
L 263.530363 -164.726651 
L 262.457106 -166.483075 
L 261.383849 -167.926122 
L 260.310592 -168.963959 
L 259.237335 -169.709897 
L 258.164078 -170.394235 
L 257.090821 -171.208527 
L 256.017564 -172.219837 
L 254.944307 -173.4134 
L 253.87105 -174.785027 
L 252.797793 -176.359249 
L 251.724536 -178.109416 
L 250.651279 -179.885508 
L 249.578022 -181.459212 
L 248.504765 -182.664239 
L 247.431508 -183.495725 
L 246.358251 -184.070221 
L 245.284994 -184.488067 
L 244.211737 -184.722581 
L 243.13848 -184.618584 
L 242.065223 -183.990297 
L 240.991966 -182.748592 
L 239.918709 -180.974985 
L 238.845452 -178.885685 
L 237.772195 -176.695633 
L 236.698938 -174.475947 
L 235.625681 -172.12443 
L 234.552425 -169.479332 
L 233.479168 -166.466746 
L 232.405911 -163.1405 
L 231.332654 -159.598654 
L 230.259397 -155.889642 
L 229.18614 -152.002964 
L 228.112883 -147.927773 
L 227.039626 -143.706076 
L 225.966369 -139.438551 
L 224.893112 -135.243935 
L 223.819855 -131.190052 
L 222.746598 -127.23452 
L 221.673341 -123.23212 
L 220.600084 -119.028395 
L 219.526827 -114.571004 
L 218.45357 -109.936055 
L 217.380313 -105.248035 
L 216.307056 -100.581613 
L 215.233799 -95.940762 
L 214.160542 -91.31393 
L 213.087285 -86.726804 
L 212.014028 -82.241611 
L 210.940771 -77.929196 
L 209.867514 -73.859482 
L 208.794257 -70.105915 
L 207.721 -66.727855 
L 206.647743 -63.731412 
L 205.574486 -61.05547 
L 204.501229 -58.612306 
L 203.427972 -56.350463 
L 202.354715 -54.280637 
L 201.281458 -52.444096 
L 200.208201 -50.859074 
L 199.134944 -49.495341 
L 198.061687 -48.294827 
L 196.98843 -47.214028 
L 195.915173 -46.248837 
L 194.841917 -45.423327 
L 193.76866 -44.758513 
L 192.695403 -44.251253 
L 191.622146 -43.876494 
L 190.548889 -43.601992 
L 189.475632 -43.399692 
L 188.402375 -43.249132 
L 187.329118 -43.13659 
L 186.255861 -43.053035 
L 185.182604 -42.99164 
L 184.109347 -42.945851 
L 183.03609 -42.909308 
L 181.962833 -42.877353 
L 180.889576 -42.848349 
L 179.816319 -42.823428 
L 178.743062 -42.804852 
L 177.669805 -42.794276 
L 176.596548 -42.791784 
L 175.523291 -42.795652 
L 174.450034 -42.80252 
L 173.376777 -42.808196 
L 172.30352 -42.8093 
L 171.230263 -42.804948 
L 170.157006 -42.796994 
L 169.083749 -42.788519 
L 168.010492 -42.781864 
L 166.937235 -42.777754 
L 165.863978 -42.775702 
L 164.790721 -42.774861 
z
" style="stroke: #280b53"/>
    </defs>
    <g clip-path="url(#p7c50eefc05)">
     <use xlink:href="#mab3a8048c4" x="0" y="426.931498" style="fill: #280b53; fill-opacity: 0.25; stroke: #280b53"/>
    </g>
   </g>
   <g id="PolyCollection_2">
    <defs>
     <path id="me29da83b88" d="M 47.165404 -42.774959 
L 47.165404 -42.774472 
L 49.075822 -42.774472 
L 50.98624 -42.774472 
L 52.896658 -42.774472 
L 54.807076 -42.774472 
L 56.717494 -42.774472 
L 58.627912 -42.774472 
L 60.53833 -42.774472 
L 62.448748 -42.774472 
L 64.359166 -42.774472 
L 66.269584 -42.774472 
L 68.180002 -42.774472 
L 70.090421 -42.774472 
L 72.000839 -42.774472 
L 73.911257 -42.774472 
L 75.821675 -42.774472 
L 77.732093 -42.774472 
L 79.642511 -42.774472 
L 81.552929 -42.774472 
L 83.463347 -42.774472 
L 85.373765 -42.774472 
L 87.284183 -42.774472 
L 89.194601 -42.774472 
L 91.105019 -42.774472 
L 93.015438 -42.774472 
L 94.925856 -42.774472 
L 96.836274 -42.774472 
L 98.746692 -42.774472 
L 100.65711 -42.774472 
L 102.567528 -42.774472 
L 104.477946 -42.774472 
L 106.388364 -42.774472 
L 108.298782 -42.774472 
L 110.2092 -42.774472 
L 112.119618 -42.774472 
L 114.030036 -42.774472 
L 115.940454 -42.774472 
L 117.850873 -42.774472 
L 119.761291 -42.774472 
L 121.671709 -42.774472 
L 123.582127 -42.774472 
L 125.492545 -42.774472 
L 127.402963 -42.774472 
L 129.313381 -42.774472 
L 131.223799 -42.774472 
L 133.134217 -42.774472 
L 135.044635 -42.774472 
L 136.955053 -42.774472 
L 138.865471 -42.774472 
L 140.77589 -42.774472 
L 142.686308 -42.774472 
L 144.596726 -42.774472 
L 146.507144 -42.774472 
L 148.417562 -42.774472 
L 150.32798 -42.774472 
L 152.238398 -42.774472 
L 154.148816 -42.774472 
L 156.059234 -42.774472 
L 157.969652 -42.774472 
L 159.88007 -42.774472 
L 161.790488 -42.774472 
L 163.700906 -42.774472 
L 165.611325 -42.774472 
L 167.521743 -42.774472 
L 169.432161 -42.774472 
L 171.342579 -42.774472 
L 173.252997 -42.774472 
L 175.163415 -42.774472 
L 177.073833 -42.774472 
L 178.984251 -42.774472 
L 180.894669 -42.774472 
L 182.805087 -42.774472 
L 184.715505 -42.774472 
L 186.625923 -42.774472 
L 188.536342 -42.774472 
L 190.44676 -42.774472 
L 192.357178 -42.774472 
L 194.267596 -42.774472 
L 196.178014 -42.774472 
L 198.088432 -42.774472 
L 199.99885 -42.774472 
L 201.909268 -42.774472 
L 203.819686 -42.774472 
L 205.730104 -42.774472 
L 207.640522 -42.774472 
L 209.55094 -42.774472 
L 211.461359 -42.774472 
L 213.371777 -42.774472 
L 215.282195 -42.774472 
L 217.192613 -42.774472 
L 219.103031 -42.774472 
L 221.013449 -42.774472 
L 222.923867 -42.774472 
L 224.834285 -42.774472 
L 226.744703 -42.774472 
L 228.655121 -42.774472 
L 230.565539 -42.774472 
L 232.475957 -42.774472 
L 234.386375 -42.774472 
L 236.296794 -42.774472 
L 238.207212 -42.774472 
L 240.11763 -42.774472 
L 242.028048 -42.774472 
L 243.938466 -42.774472 
L 245.848884 -42.774472 
L 247.759302 -42.774472 
L 249.66972 -42.774472 
L 251.580138 -42.774472 
L 253.490556 -42.774472 
L 255.400974 -42.774472 
L 257.311392 -42.774472 
L 259.221811 -42.774472 
L 261.132229 -42.774472 
L 263.042647 -42.774472 
L 264.953065 -42.774472 
L 266.863483 -42.774472 
L 268.773901 -42.774472 
L 270.684319 -42.774472 
L 272.594737 -42.774472 
L 274.505155 -42.774472 
L 276.415573 -42.774472 
L 278.325991 -42.774472 
L 280.236409 -42.774472 
L 282.146827 -42.774472 
L 284.057246 -42.774472 
L 285.967664 -42.774472 
L 287.878082 -42.774472 
L 289.7885 -42.774472 
L 291.698918 -42.774472 
L 293.609336 -42.774472 
L 295.519754 -42.774472 
L 297.430172 -42.774472 
L 299.34059 -42.774472 
L 301.251008 -42.774472 
L 303.161426 -42.774472 
L 305.071844 -42.774472 
L 306.982263 -42.774472 
L 308.892681 -42.774472 
L 310.803099 -42.774472 
L 312.713517 -42.774472 
L 314.623935 -42.774472 
L 316.534353 -42.774472 
L 318.444771 -42.774472 
L 320.355189 -42.774472 
L 322.265607 -42.774472 
L 324.176025 -42.774472 
L 326.086443 -42.774472 
L 327.996861 -42.774472 
L 329.90728 -42.774472 
L 331.817698 -42.774472 
L 333.728116 -42.774472 
L 335.638534 -42.774472 
L 337.548952 -42.774472 
L 339.45937 -42.774472 
L 341.369788 -42.774472 
L 343.280206 -42.774472 
L 345.190624 -42.774472 
L 347.101042 -42.774472 
L 349.01146 -42.774472 
L 350.921878 -42.774472 
L 352.832296 -42.774472 
L 354.742715 -42.774472 
L 356.653133 -42.774472 
L 358.563551 -42.774472 
L 360.473969 -42.774472 
L 362.384387 -42.774472 
L 364.294805 -42.774472 
L 366.205223 -42.774472 
L 368.115641 -42.774472 
L 370.026059 -42.774472 
L 371.936477 -42.774472 
L 373.846895 -42.774472 
L 375.757313 -42.774472 
L 377.667732 -42.774472 
L 379.57815 -42.774472 
L 381.488568 -42.774472 
L 383.398986 -42.774472 
L 385.309404 -42.774472 
L 387.219822 -42.774472 
L 389.13024 -42.774472 
L 391.040658 -42.774472 
L 392.951076 -42.774472 
L 394.861494 -42.774472 
L 396.771912 -42.774472 
L 398.68233 -42.774472 
L 400.592749 -42.774472 
L 402.503167 -42.774472 
L 404.413585 -42.774472 
L 406.324003 -42.774472 
L 408.234421 -42.774472 
L 410.144839 -42.774472 
L 412.055257 -42.774472 
L 413.965675 -42.774472 
L 415.876093 -42.774472 
L 417.786511 -42.774472 
L 419.696929 -42.774472 
L 421.607347 -42.774472 
L 423.517765 -42.774472 
L 425.428184 -42.774472 
L 427.338602 -42.774472 
L 427.338602 -42.77479 
L 427.338602 -42.77479 
L 425.428184 -42.776082 
L 423.517765 -42.780151 
L 421.607347 -42.78844 
L 419.696929 -42.798432 
L 417.786511 -42.803137 
L 415.876093 -42.798393 
L 413.965675 -42.788437 
L 412.055257 -42.780468 
L 410.144839 -42.777801 
L 408.234421 -42.780784 
L 406.324003 -42.78903 
L 404.413585 -42.799166 
L 402.503167 -42.804815 
L 400.592749 -42.804675 
L 398.68233 -42.807221 
L 396.771912 -42.820975 
L 394.861494 -42.843966 
L 392.951076 -42.869322 
L 391.040658 -42.897444 
L 389.13024 -42.936483 
L 387.219822 -42.993713 
L 385.309404 -43.069229 
L 383.398986 -43.158715 
L 381.488568 -43.26488 
L 379.57815 -43.399775 
L 377.667732 -43.569433 
L 375.757313 -43.763938 
L 373.846895 -43.973095 
L 371.936477 -44.211408 
L 370.026059 -44.514168 
L 368.115641 -44.905989 
L 366.205223 -45.397579 
L 364.294805 -46.011861 
L 362.384387 -46.759879 
L 360.473969 -47.564359 
L 358.563551 -48.261315 
L 356.653133 -48.75128 
L 354.742715 -49.132917 
L 352.832296 -49.632027 
L 350.921878 -50.423412 
L 349.01146 -51.567998 
L 347.101042 -53.102393 
L 345.190624 -55.087926 
L 343.280206 -57.481712 
L 341.369788 -60.035982 
L 339.45937 -62.485016 
L 337.548952 -64.789844 
L 335.638534 -67.039038 
L 333.728116 -69.218865 
L 331.817698 -71.29801 
L 329.90728 -73.429399 
L 327.996861 -75.893933 
L 326.086443 -78.913967 
L 324.176025 -82.507479 
L 322.265607 -86.405014 
L 320.355189 -90.240815 
L 318.444771 -93.883219 
L 316.534353 -97.372792 
L 314.623935 -100.677382 
L 312.713517 -103.840131 
L 310.803099 -107.242013 
L 308.892681 -111.353905 
L 306.982263 -116.194266 
L 305.071844 -121.2973 
L 303.161426 -126.17303 
L 301.251008 -130.516493 
L 299.34059 -134.187753 
L 297.430172 -137.408497 
L 295.519754 -140.728605 
L 293.609336 -144.415765 
L 291.698918 -148.153348 
L 289.7885 -151.50075 
L 287.878082 -154.303036 
L 285.967664 -156.599308 
L 284.057246 -158.446859 
L 282.146827 -159.904837 
L 280.236409 -160.999508 
L 278.325991 -161.700604 
L 276.415573 -162.060059 
L 274.505155 -162.341694 
L 272.594737 -162.933181 
L 270.684319 -163.906618 
L 268.773901 -164.561901 
L 266.863483 -163.898664 
L 264.953065 -161.746753 
L 263.042647 -158.984991 
L 261.132229 -156.589596 
L 259.221811 -154.730312 
L 257.311392 -152.774304 
L 255.400974 -150.146211 
L 253.490556 -147.122484 
L 251.580138 -144.49425 
L 249.66972 -142.429003 
L 247.759302 -140.117108 
L 245.848884 -136.834886 
L 243.938466 -132.912575 
L 242.028048 -129.178448 
L 240.11763 -125.962502 
L 238.207212 -123.173572 
L 236.296794 -120.710135 
L 234.386375 -118.295168 
L 232.475957 -115.503592 
L 230.565539 -112.228911 
L 228.655121 -108.686767 
L 226.744703 -105.032788 
L 224.834285 -101.35672 
L 222.923867 -97.826815 
L 221.013449 -94.559836 
L 219.103031 -91.520524 
L 217.192613 -88.664631 
L 215.282195 -86.038144 
L 213.371777 -83.620236 
L 211.461359 -81.176098 
L 209.55094 -78.469246 
L 207.640522 -75.600309 
L 205.730104 -72.937118 
L 203.819686 -70.697195 
L 201.909268 -68.770626 
L 199.99885 -66.98553 
L 198.088432 -65.351911 
L 196.178014 -63.944735 
L 194.267596 -62.705084 
L 192.357178 -61.453935 
L 190.44676 -60.078269 
L 188.536342 -58.671028 
L 186.625923 -57.398514 
L 184.715505 -56.290874 
L 182.805087 -55.295638 
L 180.894669 -54.390409 
L 178.984251 -53.54765 
L 177.073833 -52.749879 
L 175.163415 -52.00784 
L 173.252997 -51.269037 
L 171.342579 -50.455538 
L 169.432161 -49.608639 
L 167.521743 -48.855941 
L 165.611325 -48.282325 
L 163.700906 -47.901754 
L 161.790488 -47.678325 
L 159.88007 -47.531506 
L 157.969652 -47.371676 
L 156.059234 -47.163483 
L 154.148816 -46.920148 
L 152.238398 -46.640385 
L 150.32798 -46.311762 
L 148.417562 -45.950233 
L 146.507144 -45.587627 
L 144.596726 -45.255011 
L 142.686308 -44.983235 
L 140.77589 -44.792951 
L 138.865471 -44.692399 
L 136.955053 -44.661907 
L 135.044635 -44.641203 
L 133.134217 -44.586371 
L 131.223799 -44.508843 
L 129.313381 -44.417699 
L 127.402963 -44.28551 
L 125.492545 -44.098775 
L 123.582127 -43.890198 
L 121.671709 -43.709266 
L 119.761291 -43.583371 
L 117.850873 -43.502011 
L 115.940454 -43.441631 
L 114.030036 -43.405052 
L 112.119618 -43.405763 
L 110.2092 -43.423444 
L 108.298782 -43.414693 
L 106.388364 -43.36509 
L 104.477946 -43.305715 
L 102.567528 -43.268237 
L 100.65711 -43.244199 
L 98.746692 -43.21672 
L 96.836274 -43.202041 
L 94.925856 -43.216177 
L 93.015438 -43.232995 
L 91.105019 -43.215917 
L 89.194601 -43.168254 
L 87.284183 -43.122406 
L 85.373765 -43.091537 
L 83.463347 -43.057469 
L 81.552929 -43.004721 
L 79.642511 -42.945991 
L 77.732093 -42.905439 
L 75.821675 -42.887374 
L 73.911257 -42.874866 
L 72.000839 -42.858449 
L 70.090421 -42.848821 
L 68.180002 -42.853673 
L 66.269584 -42.860813 
L 64.359166 -42.857168 
L 62.448748 -42.849982 
L 60.53833 -42.853581 
L 58.627912 -42.862817 
L 56.717494 -42.85776 
L 54.807076 -42.833038 
L 52.896658 -42.804043 
L 50.98624 -42.785087 
L 49.075822 -42.777173 
L 47.165404 -42.774959 
z
" style="stroke: #9f2a63"/>
    </defs>
    <g clip-path="url(#p7c50eefc05)">
     <use xlink:href="#me29da83b88" x="0" y="426.931498" style="fill: #9f2a63; fill-opacity: 0.25; stroke: #9f2a63"/>
    </g>
   </g>
   <g id="PolyCollection_3">
    <defs>
     <path id="m1009d392a3" d="M 244.611989 -42.779998 
L 244.611989 -42.774472 
L 244.870664 -42.774472 
L 245.129339 -42.774472 
L 245.388013 -42.774472 
L 245.646688 -42.774472 
L 245.905363 -42.774472 
L 246.164038 -42.774472 
L 246.422713 -42.774472 
L 246.681388 -42.774472 
L 246.940062 -42.774472 
L 247.198737 -42.774472 
L 247.457412 -42.774472 
L 247.716087 -42.774472 
L 247.974762 -42.774472 
L 248.233436 -42.774472 
L 248.492111 -42.774472 
L 248.750786 -42.774472 
L 249.009461 -42.774472 
L 249.268136 -42.774472 
L 249.52681 -42.774472 
L 249.785485 -42.774472 
L 250.04416 -42.774472 
L 250.302835 -42.774472 
L 250.56151 -42.774472 
L 250.820185 -42.774472 
L 251.078859 -42.774472 
L 251.337534 -42.774472 
L 251.596209 -42.774472 
L 251.854884 -42.774472 
L 252.113559 -42.774472 
L 252.372233 -42.774472 
L 252.630908 -42.774472 
L 252.889583 -42.774472 
L 253.148258 -42.774472 
L 253.406933 -42.774472 
L 253.665608 -42.774472 
L 253.924282 -42.774472 
L 254.182957 -42.774472 
L 254.441632 -42.774472 
L 254.700307 -42.774472 
L 254.958982 -42.774472 
L 255.217656 -42.774472 
L 255.476331 -42.774472 
L 255.735006 -42.774472 
L 255.993681 -42.774472 
L 256.252356 -42.774472 
L 256.511031 -42.774472 
L 256.769705 -42.774472 
L 257.02838 -42.774472 
L 257.287055 -42.774472 
L 257.54573 -42.774472 
L 257.804405 -42.774472 
L 258.063079 -42.774472 
L 258.321754 -42.774472 
L 258.580429 -42.774472 
L 258.839104 -42.774472 
L 259.097779 -42.774472 
L 259.356453 -42.774472 
L 259.615128 -42.774472 
L 259.873803 -42.774472 
L 260.132478 -42.774472 
L 260.391153 -42.774472 
L 260.649828 -42.774472 
L 260.908502 -42.774472 
L 261.167177 -42.774472 
L 261.425852 -42.774472 
L 261.684527 -42.774472 
L 261.943202 -42.774472 
L 262.201876 -42.774472 
L 262.460551 -42.774472 
L 262.719226 -42.774472 
L 262.977901 -42.774472 
L 263.236576 -42.774472 
L 263.495251 -42.774472 
L 263.753925 -42.774472 
L 264.0126 -42.774472 
L 264.271275 -42.774472 
L 264.52995 -42.774472 
L 264.788625 -42.774472 
L 265.047299 -42.774472 
L 265.305974 -42.774472 
L 265.564649 -42.774472 
L 265.823324 -42.774472 
L 266.081999 -42.774472 
L 266.340673 -42.774472 
L 266.599348 -42.774472 
L 266.858023 -42.774472 
L 267.116698 -42.774472 
L 267.375373 -42.774472 
L 267.634048 -42.774472 
L 267.892722 -42.774472 
L 268.151397 -42.774472 
L 268.410072 -42.774472 
L 268.668747 -42.774472 
L 268.927422 -42.774472 
L 269.186096 -42.774472 
L 269.444771 -42.774472 
L 269.703446 -42.774472 
L 269.962121 -42.774472 
L 270.220796 -42.774472 
L 270.479471 -42.774472 
L 270.738145 -42.774472 
L 270.99682 -42.774472 
L 271.255495 -42.774472 
L 271.51417 -42.774472 
L 271.772845 -42.774472 
L 272.031519 -42.774472 
L 272.290194 -42.774472 
L 272.548869 -42.774472 
L 272.807544 -42.774472 
L 273.066219 -42.774472 
L 273.324894 -42.774472 
L 273.583568 -42.774472 
L 273.842243 -42.774472 
L 274.100918 -42.774472 
L 274.359593 -42.774472 
L 274.618268 -42.774472 
L 274.876942 -42.774472 
L 275.135617 -42.774472 
L 275.394292 -42.774472 
L 275.652967 -42.774472 
L 275.911642 -42.774472 
L 276.170316 -42.774472 
L 276.428991 -42.774472 
L 276.687666 -42.774472 
L 276.946341 -42.774472 
L 277.205016 -42.774472 
L 277.463691 -42.774472 
L 277.722365 -42.774472 
L 277.98104 -42.774472 
L 278.239715 -42.774472 
L 278.49839 -42.774472 
L 278.757065 -42.774472 
L 279.015739 -42.774472 
L 279.274414 -42.774472 
L 279.533089 -42.774472 
L 279.791764 -42.774472 
L 280.050439 -42.774472 
L 280.309114 -42.774472 
L 280.567788 -42.774472 
L 280.826463 -42.774472 
L 281.085138 -42.774472 
L 281.343813 -42.774472 
L 281.602488 -42.774472 
L 281.861162 -42.774472 
L 282.119837 -42.774472 
L 282.378512 -42.774472 
L 282.637187 -42.774472 
L 282.895862 -42.774472 
L 283.154537 -42.774472 
L 283.413211 -42.774472 
L 283.671886 -42.774472 
L 283.930561 -42.774472 
L 284.189236 -42.774472 
L 284.447911 -42.774472 
L 284.706585 -42.774472 
L 284.96526 -42.774472 
L 285.223935 -42.774472 
L 285.48261 -42.774472 
L 285.741285 -42.774472 
L 285.999959 -42.774472 
L 286.258634 -42.774472 
L 286.517309 -42.774472 
L 286.775984 -42.774472 
L 287.034659 -42.774472 
L 287.293334 -42.774472 
L 287.552008 -42.774472 
L 287.810683 -42.774472 
L 288.069358 -42.774472 
L 288.328033 -42.774472 
L 288.586708 -42.774472 
L 288.845382 -42.774472 
L 289.104057 -42.774472 
L 289.362732 -42.774472 
L 289.621407 -42.774472 
L 289.880082 -42.774472 
L 290.138757 -42.774472 
L 290.397431 -42.774472 
L 290.656106 -42.774472 
L 290.914781 -42.774472 
L 291.173456 -42.774472 
L 291.432131 -42.774472 
L 291.690805 -42.774472 
L 291.94948 -42.774472 
L 292.208155 -42.774472 
L 292.46683 -42.774472 
L 292.725505 -42.774472 
L 292.984179 -42.774472 
L 293.242854 -42.774472 
L 293.501529 -42.774472 
L 293.760204 -42.774472 
L 294.018879 -42.774472 
L 294.277554 -42.774472 
L 294.536228 -42.774472 
L 294.794903 -42.774472 
L 295.053578 -42.774472 
L 295.312253 -42.774472 
L 295.570928 -42.774472 
L 295.829602 -42.774472 
L 296.088277 -42.774472 
L 296.088277 -42.776909 
L 296.088277 -42.776909 
L 295.829602 -42.780554 
L 295.570928 -42.788811 
L 295.312253 -42.806508 
L 295.053578 -42.84252 
L 294.794903 -42.912332 
L 294.536228 -43.041632 
L 294.277554 -43.270993 
L 294.018879 -43.661411 
L 293.760204 -44.300138 
L 293.501529 -45.305895 
L 293.242854 -46.832443 
L 292.984179 -49.069709 
L 292.725505 -52.241972 
L 292.46683 -56.602896 
L 292.208155 -62.426775 
L 291.94948 -69.994555 
L 291.690805 -79.572266 
L 291.432131 -91.379602 
L 291.173456 -105.548464 
L 290.914781 -122.075725 
L 290.656106 -140.780378 
L 290.397431 -161.279999 
L 290.138757 -183.001458 
L 289.880082 -205.233472 
L 289.621407 -227.21474 
L 289.362732 -248.236333 
L 289.104057 -267.728816 
L 288.845382 -285.309042 
L 288.586708 -300.777952 
L 288.328033 -314.080931 
L 288.069358 -325.255367 
L 287.810683 -334.389359 
L 287.552008 -341.602731 
L 287.293334 -347.045232 
L 287.034659 -350.897143 
L 286.775984 -353.359407 
L 286.517309 -354.631738 
L 286.258634 -354.889986 
L 285.999959 -354.279104 
L 285.741285 -352.930685 
L 285.48261 -350.997756 
L 285.223935 -348.685081 
L 284.96526 -346.251734 
L 284.706585 -343.976951 
L 284.447911 -342.101493 
L 284.189236 -340.771062 
L 283.930561 -340.007299 
L 283.671886 -339.718003 
L 283.413211 -339.740991 
L 283.154537 -339.903758 
L 282.895862 -340.077015 
L 282.637187 -340.203809 
L 282.378512 -340.296088 
L 282.119837 -340.404296 
L 281.861162 -340.577039 
L 281.602488 -340.830242 
L 281.343813 -341.137127 
L 281.085138 -341.437764 
L 280.826463 -341.658744 
L 280.567788 -341.733804 
L 280.309114 -341.62102 
L 280.050439 -341.315043 
L 279.791764 -340.851446 
L 279.533089 -340.298505 
L 279.274414 -339.734619 
L 279.015739 -339.217291 
L 278.757065 -338.756789 
L 278.49839 -338.307981 
L 278.239715 -337.785771 
L 277.98104 -337.097557 
L 277.722365 -336.177871 
L 277.463691 -335.010798 
L 277.205016 -333.634157 
L 276.946341 -332.129846 
L 276.687666 -330.610426 
L 276.428991 -329.209645 
L 276.170316 -328.076284 
L 275.911642 -327.362876 
L 275.652967 -327.200184 
L 275.394292 -327.657445 
L 275.135617 -328.702557 
L 274.876942 -330.185306 
L 274.618268 -331.861345 
L 274.359593 -333.454776 
L 274.100918 -334.734225 
L 273.842243 -335.566898 
L 273.583568 -335.926094 
L 273.324894 -335.854271 
L 273.066219 -335.40904 
L 272.807544 -334.626921 
L 272.548869 -333.525027 
L 272.290194 -332.134572 
L 272.031519 -330.540034 
L 271.772845 -328.895934 
L 271.51417 -327.408279 
L 271.255495 -326.287689 
L 270.99682 -325.693539 
L 270.738145 -325.688627 
L 270.479471 -326.2167 
L 270.220796 -327.107483 
L 269.962121 -328.108818 
L 269.703446 -328.941087 
L 269.444771 -329.363129 
L 269.186096 -329.232624 
L 268.927422 -328.542121 
L 268.668747 -327.417756 
L 268.410072 -326.080237 
L 268.151397 -324.781171 
L 267.892722 -323.736183 
L 267.634048 -323.075768 
L 267.375373 -322.82649 
L 267.116698 -322.92321 
L 266.858023 -323.243107 
L 266.599348 -323.64792 
L 266.340673 -324.022196 
L 266.081999 -324.299521 
L 265.823324 -324.472791 
L 265.564649 -324.587559 
L 265.305974 -324.720541 
L 265.047299 -324.949112 
L 264.788625 -325.320731 
L 264.52995 -325.831392 
L 264.271275 -326.418662 
L 264.0126 -326.970061 
L 263.753925 -327.344539 
L 263.495251 -327.404351 
L 263.236576 -327.053762 
L 262.977901 -326.277095 
L 262.719226 -325.162894 
L 262.460551 -323.899362 
L 262.201876 -322.733611 
L 261.943202 -321.902412 
L 261.684527 -321.557016 
L 261.425852 -321.710393 
L 261.167177 -322.228115 
L 260.908502 -322.86786 
L 260.649828 -323.354509 
L 260.391153 -323.465222 
L 260.132478 -323.095441 
L 259.873803 -322.28352 
L 259.615128 -321.186505 
L 259.356453 -320.018066 
L 259.097779 -318.974355 
L 258.839104 -318.177493 
L 258.580429 -317.656199 
L 258.321754 -317.363396 
L 258.063079 -317.212697 
L 257.804405 -317.1105 
L 257.54573 -316.97047 
L 257.287055 -316.714259 
L 257.02838 -316.273018 
L 256.769705 -315.600935 
L 256.511031 -314.697927 
L 256.252356 -313.625774 
L 255.993681 -312.500937 
L 255.735006 -311.459898 
L 255.476331 -310.61064 
L 255.217656 -309.994564 
L 254.958982 -309.578491 
L 254.700307 -309.278609 
L 254.441632 -308.99839 
L 254.182957 -308.654196 
L 253.924282 -308.171695 
L 253.665608 -307.457244 
L 253.406933 -306.366091 
L 253.148258 -304.690931 
L 252.889583 -302.179228 
L 252.630908 -298.567753 
L 252.372233 -293.613154 
L 252.113559 -287.104531 
L 251.854884 -278.86121 
L 251.596209 -268.732058 
L 251.337534 -256.611875 
L 251.078859 -242.477451 
L 250.820185 -226.431324 
L 250.56151 -208.735053 
L 250.302835 -189.817919 
L 250.04416 -170.255545 
L 249.785485 -150.720307 
L 249.52681 -131.910029 
L 249.268136 -114.465908 
L 249.009461 -98.895401 
L 248.750786 -85.517862 
L 248.492111 -74.446152 
L 248.233436 -65.606394 
L 247.974762 -58.785784 
L 247.716087 -53.691406 
L 247.457412 -50.003918 
L 247.198737 -47.416691 
L 246.940062 -45.658604 
L 246.681388 -44.503655 
L 246.422713 -43.772031 
L 246.164038 -43.326496 
L 245.905363 -43.066551 
L 245.646688 -42.921754 
L 245.388013 -42.845022 
L 245.129339 -42.806474 
L 244.870664 -42.788177 
L 244.611989 -42.779998 
z
" style="stroke: #f57d15"/>
    </defs>
    <g clip-path="url(#p7c50eefc05)">
     <use xlink:href="#m1009d392a3" x="0" y="426.931498" style="fill: #f57d15; fill-opacity: 0.25; stroke: #f57d15"/>
    </g>
   </g>
   <g id="matplotlib.axis_1">
    <g id="xtick_1">
     <g id="line2d_1">
      <defs>
       <path id="m23e9c27be6" d="M 0 0 
L 0 3.5 
" style="stroke: #000000; stroke-width: 0.8"/>
      </defs>
      <g>
       <use xlink:href="#m23e9c27be6" x="45.555547" y="384.157026" style="stroke: #000000; stroke-width: 0.8"/>
      </g>
     </g>
     <g id="text_1">
      <!-- $\mathdefault{0}$ -->
      <g transform="translate(42.629051 399.459206)scale(0.12 -0.12)">
       <defs>
        <path id="CMR17-30" d="M 2688 2038 
C 2688 2430 2682 3099 2413 3613 
C 2176 4063 1798 4224 1466 4224 
C 1158 4224 768 4082 525 3620 
C 269 3137 243 2539 243 2038 
C 243 1671 250 1112 448 623 
C 723 -39 1216 -128 1466 -128 
C 1760 -128 2208 -7 2470 604 
C 2662 1048 2688 1568 2688 2038 
z
M 1466 -26 
C 1056 -26 813 328 723 816 
C 653 1196 653 1749 653 2109 
C 653 2604 653 3015 736 3407 
C 858 3954 1216 4121 1466 4121 
C 1728 4121 2067 3947 2189 3420 
C 2272 3054 2278 2623 2278 2109 
C 2278 1691 2278 1176 2202 797 
C 2067 96 1690 -26 1466 -26 
z
" transform="scale(0.015625)"/>
       </defs>
       <use xlink:href="#CMR17-30" transform="scale(0.996264)"/>
      </g>
     </g>
    </g>
    <g id="xtick_2">
     <g id="line2d_2">
      <g>
       <use xlink:href="#m23e9c27be6" x="134.835547" y="384.157026" style="stroke: #000000; stroke-width: 0.8"/>
      </g>
     </g>
     <g id="text_2">
      <!-- $\mathdefault{2}$ -->
      <g transform="translate(131.909051 399.459206)scale(0.12 -0.12)">
       <defs>
        <path id="CMR17-32" d="M 2669 990 
L 2554 990 
C 2490 537 2438 460 2413 422 
C 2381 371 1920 371 1830 371 
L 602 371 
C 832 620 1280 1073 1824 1596 
C 2214 1966 2669 2400 2669 3033 
C 2669 3788 2067 4224 1395 4224 
C 691 4224 262 3603 262 3027 
C 262 2777 448 2745 525 2745 
C 589 2745 781 2783 781 3007 
C 781 3206 614 3264 525 3264 
C 486 3264 448 3257 422 3244 
C 544 3788 915 4057 1306 4057 
C 1862 4057 2227 3616 2227 3033 
C 2227 2477 1901 1998 1536 1583 
L 262 147 
L 262 0 
L 2515 0 
L 2669 990 
z
" transform="scale(0.015625)"/>
       </defs>
       <use xlink:href="#CMR17-32" transform="scale(0.996264)"/>
      </g>
     </g>
    </g>
    <g id="xtick_3">
     <g id="line2d_3">
      <g>
       <use xlink:href="#m23e9c27be6" x="224.115547" y="384.157026" style="stroke: #000000; stroke-width: 0.8"/>
      </g>
     </g>
     <g id="text_3">
      <!-- $\mathdefault{4}$ -->
      <g transform="translate(221.189051 399.459206)scale(0.12 -0.12)">
       <defs>
        <path id="CMR17-34" d="M 2150 4147 
C 2150 4281 2144 4288 2029 4288 
L 128 1254 
L 128 1088 
L 1779 1088 
L 1779 460 
C 1779 230 1766 166 1318 166 
L 1197 166 
L 1197 0 
C 1402 12 1747 12 1965 12 
C 2182 12 2528 12 2733 0 
L 2733 166 
L 2611 166 
C 2163 166 2150 230 2150 460 
L 2150 1088 
L 2803 1088 
L 2803 1254 
L 2150 1254 
L 2150 4147 
z
M 1798 3723 
L 1798 1254 
L 256 1254 
L 1798 3723 
z
" transform="scale(0.015625)"/>
       </defs>
       <use xlink:href="#CMR17-34" transform="scale(0.996264)"/>
      </g>
     </g>
    </g>
    <g id="xtick_4">
     <g id="line2d_4">
      <g>
       <use xlink:href="#m23e9c27be6" x="313.395547" y="384.157026" style="stroke: #000000; stroke-width: 0.8"/>
      </g>
     </g>
     <g id="text_4">
      <!-- $\mathdefault{6}$ -->
      <g transform="translate(310.469051 399.459206)scale(0.12 -0.12)">
       <defs>
        <path id="CMR17-36" d="M 678 2198 
C 678 3712 1395 4076 1811 4076 
C 1946 4076 2272 4049 2400 3782 
C 2298 3782 2106 3782 2106 3558 
C 2106 3385 2246 3328 2336 3328 
C 2394 3328 2566 3353 2566 3571 
C 2566 3987 2246 4224 1805 4224 
C 1043 4224 243 3411 243 2011 
C 243 257 966 -128 1478 -128 
C 2099 -128 2688 431 2688 1295 
C 2688 2101 2170 2688 1517 2688 
C 1126 2688 838 2430 678 1979 
L 678 2198 
z
M 1478 25 
C 691 25 691 1212 691 1450 
C 691 1914 909 2585 1504 2585 
C 1613 2585 1926 2585 2138 2140 
C 2253 1889 2253 1624 2253 1302 
C 2253 954 2253 696 2118 438 
C 1978 173 1773 25 1478 25 
z
" transform="scale(0.015625)"/>
       </defs>
       <use xlink:href="#CMR17-36" transform="scale(0.996264)"/>
      </g>
     </g>
    </g>
    <g id="xtick_5">
     <g id="line2d_5">
      <g>
       <use xlink:href="#m23e9c27be6" x="402.675547" y="384.157026" style="stroke: #000000; stroke-width: 0.8"/>
      </g>
     </g>
     <g id="text_5">
      <!-- $\mathdefault{8}$ -->
      <g transform="translate(399.749051 399.459206)scale(0.12 -0.12)">
       <defs>
        <path id="CMR17-38" d="M 1741 2289 
C 2144 2494 2554 2803 2554 3298 
C 2554 3884 1990 4224 1472 4224 
C 890 4224 378 3800 378 3215 
C 378 3054 416 2777 666 2533 
C 730 2469 998 2276 1171 2154 
C 883 2006 211 1652 211 945 
C 211 282 838 -128 1459 -128 
C 2144 -128 2720 366 2720 1022 
C 2720 1607 2330 1877 2074 2051 
L 1741 2289 
z
M 902 2855 
C 851 2887 595 3086 595 3388 
C 595 3781 998 4076 1459 4076 
C 1965 4076 2336 3716 2336 3298 
C 2336 2700 1670 2359 1638 2359 
C 1632 2359 1626 2359 1574 2398 
L 902 2855 
z
M 2080 1536 
C 2176 1466 2483 1253 2483 861 
C 2483 385 2010 25 1472 25 
C 890 25 448 443 448 951 
C 448 1459 838 1884 1280 2083 
L 2080 1536 
z
" transform="scale(0.015625)"/>
       </defs>
       <use xlink:href="#CMR17-38" transform="scale(0.996264)"/>
      </g>
     </g>
    </g>
    <g id="xtick_6">
     <g id="line2d_6">
      <g>
       <use xlink:href="#m23e9c27be6" x="491.955547" y="384.157026" style="stroke: #000000; stroke-width: 0.8"/>
      </g>
     </g>
     <g id="text_6">
      <!-- $\mathdefault{10}$ -->
      <g transform="translate(486.102556 399.459206)scale(0.12 -0.12)">
       <defs>
        <path id="CMR17-31" d="M 1702 4083 
C 1702 4217 1696 4224 1606 4224 
C 1357 3927 979 3833 621 3820 
C 602 3820 570 3820 563 3808 
C 557 3795 557 3782 557 3648 
C 755 3648 1088 3686 1344 3839 
L 1344 467 
C 1344 243 1331 166 781 166 
L 589 166 
L 589 0 
C 896 6 1216 12 1523 12 
C 1830 12 2150 6 2458 0 
L 2458 166 
L 2266 166 
C 1715 166 1702 236 1702 467 
L 1702 4083 
z
" transform="scale(0.015625)"/>
       </defs>
       <use xlink:href="#CMR17-31" transform="scale(0.996264)"/>
       <use xlink:href="#CMR17-30" transform="translate(45.690477 0)scale(0.996264)"/>
      </g>
     </g>
    </g>
    <g id="text_7">
     <!-- Distance [kpc] -->
     <g transform="translate(226.325282 416.244574)scale(0.14 -0.14)">
      <defs>
       <path id="CMR17-44" d="M 333 4352 
L 333 4185 
C 774 4185 845 4185 845 3898 
L 845 453 
C 845 166 774 166 333 166 
L 333 0 
L 2368 0 
C 3398 0 4224 943 4224 2140 
C 4224 3344 3411 4352 2368 4352 
L 333 4352 
z
M 1523 166 
C 1267 166 1254 198 1254 414 
L 1254 3936 
C 1254 4153 1267 4185 1523 4185 
L 2240 4185 
C 2771 4185 3750 3873 3750 2140 
C 3750 1242 3488 879 3366 707 
C 3213 510 2848 166 2240 166 
L 1523 166 
z
" transform="scale(0.015625)"/>
       <path id="CMR17-69" d="M 992 3961 
C 992 4102 877 4224 730 4224 
C 589 4224 467 4108 467 3961 
C 467 3820 582 3699 730 3699 
C 870 3699 992 3814 992 3961 
z
M 243 2745 
L 243 2579 
C 602 2579 653 2540 653 2231 
L 653 443 
C 653 198 627 166 218 166 
L 218 0 
C 371 12 646 12 806 12 
C 960 12 1222 12 1370 0 
L 1370 166 
C 992 166 979 205 979 436 
L 979 2816 
L 243 2745 
z
" transform="scale(0.015625)"/>
       <path id="CMR17-73" d="M 1978 2688 
C 1978 2803 1971 2809 1933 2809 
C 1907 2809 1901 2803 1824 2707 
C 1805 2681 1747 2617 1728 2592 
C 1523 2809 1235 2816 1126 2816 
C 416 2816 160 2444 160 2073 
C 160 1497 813 1363 998 1324 
C 1402 1241 1542 1216 1677 1100 
C 1760 1024 1901 883 1901 652 
C 1901 384 1747 38 1158 38 
C 602 38 403 460 288 1024 
C 269 1113 269 1120 218 1120 
C 166 1120 160 1113 160 985 
L 160 64 
C 160 -52 166 -58 205 -58 
C 237 -58 243 -52 275 0 
C 314 57 410 211 448 275 
C 576 102 800 -64 1158 -64 
C 1792 -64 2131 281 2131 780 
C 2131 1107 1958 1280 1875 1356 
C 1683 1555 1459 1600 1190 1651 
C 838 1728 390 1817 390 2208 
C 390 2374 480 2726 1126 2726 
C 1811 2726 1850 2086 1862 1881 
C 1869 1849 1901 1843 1920 1843 
C 1978 1843 1978 1862 1978 1971 
L 1978 2688 
z
" transform="scale(0.015625)"/>
       <path id="CMR17-74" d="M 966 2585 
L 1862 2585 
L 1862 2752 
L 966 2752 
L 966 3968 
L 851 3968 
C 838 3292 614 2700 70 2687 
L 70 2585 
L 627 2585 
L 627 778 
C 627 655 627 -64 1370 -64 
C 1747 -64 1965 308 1965 784 
L 1965 1151 
L 1850 1151 
L 1850 790 
C 1850 347 1677 51 1408 51 
C 1222 51 966 179 966 765 
L 966 2585 
z
" transform="scale(0.015625)"/>
       <path id="CMR17-61" d="M 2304 1656 
C 2304 2048 2304 2275 2035 2534 
C 1798 2751 1523 2816 1306 2816 
C 800 2816 435 2408 435 1977 
C 435 1740 627 1728 666 1728 
C 749 1728 896 1779 896 1958 
C 896 2118 774 2188 666 2188 
C 640 2188 608 2182 589 2176 
C 723 2594 1069 2713 1293 2713 
C 1613 2713 1965 2421 1965 1875 
L 1965 1632 
C 1587 1619 1133 1568 774 1373 
C 371 1147 256 822 256 576 
C 256 77 832 -64 1171 -64 
C 1523 -64 1850 135 1990 505 
C 2003 219 2182 -39 2464 -39 
C 2598 -39 2938 51 2938 563 
L 2938 926 
L 2822 926 
L 2822 557 
C 2822 161 2650 109 2566 109 
C 2304 109 2304 446 2304 732 
L 2304 1656 
z
M 1965 887 
C 1965 323 1568 38 1216 38 
C 896 38 646 278 646 576 
C 646 771 730 1114 1101 1322 
C 1408 1497 1760 1523 1965 1536 
L 1965 887 
z
" transform="scale(0.015625)"/>
       <path id="CMR17-6e" d="M 2656 1954 
C 2656 2282 2592 2816 1837 2816 
C 1331 2816 1069 2424 973 2166 
L 966 2166 
L 966 2816 
L 211 2745 
L 211 2578 
C 589 2578 646 2540 646 2231 
L 646 443 
C 646 198 621 166 211 166 
L 211 0 
C 365 12 646 12 813 12 
C 979 12 1267 12 1421 0 
L 1421 166 
C 1011 166 986 192 986 443 
L 986 1678 
C 986 2269 1344 2713 1792 2713 
C 2266 2713 2317 2289 2317 1980 
L 2317 443 
C 2317 198 2291 166 1882 166 
L 1882 0 
C 2035 12 2317 12 2483 12 
C 2650 12 2938 12 3091 0 
L 3091 166 
C 2682 166 2656 192 2656 443 
L 2656 1954 
z
" transform="scale(0.015625)"/>
       <path id="CMR17-63" d="M 2234 2240 
C 2112 2240 1933 2240 1933 2015 
C 1933 1836 2080 1785 2163 1785 
C 2208 1785 2394 1804 2394 2028 
C 2394 2476 1958 2816 1466 2816 
C 787 2816 211 2201 211 1379 
C 211 521 813 -64 1466 -64 
C 2259 -64 2458 676 2458 747 
C 2458 773 2451 792 2406 792 
C 2362 792 2355 786 2330 702 
C 2163 180 1798 51 1523 51 
C 1114 51 621 431 621 1385 
C 621 2358 1094 2700 1472 2700 
C 1722 2700 2093 2582 2234 2240 
z
" transform="scale(0.015625)"/>
       <path id="CMR17-65" d="M 2438 1503 
C 2464 1529 2464 1542 2464 1606 
C 2464 2251 2118 2816 1389 2816 
C 710 2816 173 2175 173 1394 
C 173 554 781 -64 1459 -64 
C 2176 -64 2458 619 2458 755 
C 2458 800 2419 800 2406 800 
C 2362 800 2355 787 2330 709 
C 2189 270 1837 51 1504 51 
C 1229 51 954 206 781 490 
C 582 819 582 1200 582 1503 
L 2438 1503 
z
M 589 1600 
C 634 2511 1126 2713 1382 2713 
C 1818 2713 2112 2308 2118 1600 
L 589 1600 
z
" transform="scale(0.015625)"/>
       <path id="CMR17-5b" d="M 1504 -1600 
L 1504 -1376 
L 902 -1376 
L 902 4575 
L 1504 4575 
L 1504 4800 
L 678 4800 
L 678 -1600 
L 1504 -1600 
z
" transform="scale(0.015625)"/>
       <path id="CMR17-6b" d="M 1670 1679 
C 1664 1692 1632 1730 1632 1749 
C 1632 1762 2086 2175 2144 2226 
C 2509 2532 2739 2563 2906 2570 
L 2906 2735 
C 2867 2735 2854 2735 2848 2729 
L 2534 2722 
C 2355 2722 2080 2722 1907 2735 
L 1907 2570 
C 1997 2563 2061 2513 2061 2423 
C 2061 2296 1933 2175 1926 2175 
L 960 1298 
L 960 4416 
L 198 4345 
L 198 4179 
C 576 4179 634 4141 634 3835 
L 634 439 
C 634 198 608 166 198 166 
L 198 0 
C 352 12 634 12 794 12 
C 954 12 1235 12 1389 0 
L 1389 166 
C 979 166 954 191 954 439 
L 954 1139 
L 1395 1540 
L 2042 586 
C 2118 471 2182 382 2182 299 
C 2182 185 2067 166 1990 166 
L 1990 0 
C 2144 12 2419 12 2579 12 
C 2694 12 2931 6 3040 0 
L 3040 166 
C 2739 166 2669 223 2477 503 
L 1670 1679 
z
" transform="scale(0.015625)"/>
       <path id="CMR17-70" d="M 1408 -1114 
C 998 -1114 973 -1088 973 -834 
L 973 380 
C 1158 109 1427 -64 1766 -64 
C 2406 -64 3053 503 3053 1382 
C 3053 2196 2496 2816 1837 2816 
C 1453 2816 1139 2603 960 2345 
L 960 2816 
L 198 2745 
L 198 2577 
C 576 2577 634 2539 634 2228 
L 634 -834 
C 634 -1081 608 -1114 198 -1114 
L 198 -1280 
C 352 -1268 634 -1268 800 -1268 
C 966 -1268 1254 -1268 1408 -1280 
L 1408 -1114 
z
M 973 2015 
C 973 2106 973 2241 1222 2481 
C 1254 2506 1472 2700 1792 2700 
C 2259 2700 2643 2112 2643 1376 
C 2643 639 2234 38 1728 38 
C 1498 38 1248 148 1056 451 
C 973 594 973 632 973 736 
L 973 2015 
z
" transform="scale(0.015625)"/>
       <path id="CMR17-5d" d="M 915 4800 
L 90 4800 
L 90 4575 
L 691 4575 
L 691 -1376 
L 90 -1376 
L 90 -1600 
L 915 -1600 
L 915 4800 
z
" transform="scale(0.015625)"/>
      </defs>
      <use xlink:href="#CMR17-44" transform="scale(0.996264)"/>
      <use xlink:href="#CMR17-69" transform="translate(70.393556 0)scale(0.996264)"/>
      <use xlink:href="#CMR17-73" transform="translate(95.264614 0)scale(0.996264)"/>
      <use xlink:href="#CMR17-74" transform="translate(131.065952 0)scale(0.996264)"/>
      <use xlink:href="#CMR17-61" transform="translate(166.34672 0)scale(0.996264)"/>
      <use xlink:href="#CMR17-6e" transform="translate(212.037197 0)scale(0.996264)"/>
      <use xlink:href="#CMR17-63" transform="translate(262.932567 0)scale(0.996264)"/>
      <use xlink:href="#CMR17-65" transform="translate(303.418227 0)scale(0.996264)"/>
      <use xlink:href="#CMR17-5b" transform="translate(373.979854 0)scale(0.996264)"/>
      <use xlink:href="#CMR17-6b" transform="translate(398.850912 0)scale(0.996264)"/>
      <use xlink:href="#CMR17-70" transform="translate(447.143828 0)scale(0.996264)"/>
      <use xlink:href="#CMR17-63" transform="translate(500.641637 0)scale(0.996264)"/>
      <use xlink:href="#CMR17-5d" transform="translate(541.127297 0)scale(0.996264)"/>
     </g>
    </g>
   </g>
   <g id="matplotlib.axis_2">
    <g id="ytick_1">
     <g id="line2d_7">
      <defs>
       <path id="me507108170" d="M 0 0 
L -3.5 0 
" style="stroke: #000000; stroke-width: 0.8"/>
      </defs>
      <g>
       <use xlink:href="#me507108170" x="45.555547" y="384.157026" style="stroke: #000000; stroke-width: 0.8"/>
      </g>
     </g>
     <g id="text_8">
      <!-- $\mathdefault{0.0}$ -->
      <g transform="translate(23.597905 388.308116)scale(0.12 -0.12)">
       <defs>
        <path id="CMMI12-3a" d="M 1178 307 
C 1178 492 1024 620 870 620 
C 685 620 557 467 557 313 
C 557 128 710 0 864 0 
C 1050 0 1178 153 1178 307 
z
" transform="scale(0.015625)"/>
       </defs>
       <use xlink:href="#CMR17-30" transform="scale(0.996264)"/>
       <use xlink:href="#CMMI12-3a" transform="translate(45.690477 0)scale(0.996264)"/>
       <use xlink:href="#CMR17-30" transform="translate(72.787654 0)scale(0.996264)"/>
      </g>
     </g>
    </g>
    <g id="ytick_2">
     <g id="line2d_8">
      <g>
       <use xlink:href="#me507108170" x="45.555547" y="332.981642" style="stroke: #000000; stroke-width: 0.8"/>
      </g>
     </g>
     <g id="text_9">
      <!-- $\mathdefault{0.2}$ -->
      <g transform="translate(23.597905 337.132732)scale(0.12 -0.12)">
       <use xlink:href="#CMR17-30" transform="scale(0.996264)"/>
       <use xlink:href="#CMMI12-3a" transform="translate(45.690477 0)scale(0.996264)"/>
       <use xlink:href="#CMR17-32" transform="translate(72.787654 0)scale(0.996264)"/>
      </g>
     </g>
    </g>
    <g id="ytick_3">
     <g id="line2d_9">
      <g>
       <use xlink:href="#me507108170" x="45.555547" y="281.806257" style="stroke: #000000; stroke-width: 0.8"/>
      </g>
     </g>
     <g id="text_10">
      <!-- $\mathdefault{0.4}$ -->
      <g transform="translate(23.597905 285.957347)scale(0.12 -0.12)">
       <use xlink:href="#CMR17-30" transform="scale(0.996264)"/>
       <use xlink:href="#CMMI12-3a" transform="translate(45.690477 0)scale(0.996264)"/>
       <use xlink:href="#CMR17-34" transform="translate(72.787654 0)scale(0.996264)"/>
      </g>
     </g>
    </g>
    <g id="ytick_4">
     <g id="line2d_10">
      <g>
       <use xlink:href="#me507108170" x="45.555547" y="230.630873" style="stroke: #000000; stroke-width: 0.8"/>
      </g>
     </g>
     <g id="text_11">
      <!-- $\mathdefault{0.6}$ -->
      <g transform="translate(23.597905 234.781963)scale(0.12 -0.12)">
       <use xlink:href="#CMR17-30" transform="scale(0.996264)"/>
       <use xlink:href="#CMMI12-3a" transform="translate(45.690477 0)scale(0.996264)"/>
       <use xlink:href="#CMR17-36" transform="translate(72.787654 0)scale(0.996264)"/>
      </g>
     </g>
    </g>
    <g id="ytick_5">
     <g id="line2d_11">
      <g>
       <use xlink:href="#me507108170" x="45.555547" y="179.455488" style="stroke: #000000; stroke-width: 0.8"/>
      </g>
     </g>
     <g id="text_12">
      <!-- $\mathdefault{0.8}$ -->
      <g transform="translate(23.597905 183.606578)scale(0.12 -0.12)">
       <use xlink:href="#CMR17-30" transform="scale(0.996264)"/>
       <use xlink:href="#CMMI12-3a" transform="translate(45.690477 0)scale(0.996264)"/>
       <use xlink:href="#CMR17-38" transform="translate(72.787654 0)scale(0.996264)"/>
      </g>
     </g>
    </g>
    <g id="ytick_6">
     <g id="line2d_12">
      <g>
       <use xlink:href="#me507108170" x="45.555547" y="128.280103" style="stroke: #000000; stroke-width: 0.8"/>
      </g>
     </g>
     <g id="text_13">
      <!-- $\mathdefault{1.0}$ -->
      <g transform="translate(23.597905 132.431193)scale(0.12 -0.12)">
       <use xlink:href="#CMR17-31" transform="scale(0.996264)"/>
       <use xlink:href="#CMMI12-3a" transform="translate(45.690477 0)scale(0.996264)"/>
       <use xlink:href="#CMR17-30" transform="translate(72.787654 0)scale(0.996264)"/>
      </g>
     </g>
    </g>
    <g id="ytick_7">
     <g id="line2d_13">
      <g>
       <use xlink:href="#me507108170" x="45.555547" y="77.104719" style="stroke: #000000; stroke-width: 0.8"/>
      </g>
     </g>
     <g id="text_14">
      <!-- $\mathdefault{1.2}$ -->
      <g transform="translate(23.597905 81.255809)scale(0.12 -0.12)">
       <use xlink:href="#CMR17-31" transform="scale(0.996264)"/>
       <use xlink:href="#CMMI12-3a" transform="translate(45.690477 0)scale(0.996264)"/>
       <use xlink:href="#CMR17-32" transform="translate(72.787654 0)scale(0.996264)"/>
      </g>
     </g>
    </g>
    <g id="text_15">
     <!-- Probability density -->
     <g transform="translate(16.885876 274.87267)rotate(-90)scale(0.14 -0.14)">
      <defs>
       <path id="CMR17-50" d="M 1267 2048 
L 2291 2048 
C 3117 2048 3718 2583 3718 3187 
C 3718 3791 3130 4352 2291 4352 
L 333 4352 
L 333 4185 
C 774 4185 845 4185 845 3899 
L 845 453 
C 845 166 774 166 333 166 
L 333 0 
C 518 12 858 12 1056 12 
C 1254 12 1594 12 1779 0 
L 1779 166 
C 1338 166 1267 166 1267 453 
L 1267 2048 
z
M 1254 2182 
L 1254 3937 
C 1254 4153 1267 4185 1523 4185 
L 2170 4185 
C 2995 4185 3232 3715 3232 3187 
C 3232 2608 2950 2182 2170 2182 
L 1254 2182 
z
" transform="scale(0.015625)"/>
       <path id="CMR17-72" d="M 960 1517 
C 960 2134 1222 2713 1702 2713 
C 1747 2713 1792 2707 1837 2687 
C 1837 2687 1696 2642 1696 2475 
C 1696 2321 1818 2257 1914 2257 
C 1990 2257 2131 2302 2131 2482 
C 2131 2687 1926 2816 1709 2816 
C 1222 2816 1011 2340 947 2115 
L 941 2115 
L 941 2816 
L 198 2745 
L 198 2578 
C 576 2578 634 2540 634 2231 
L 634 443 
C 634 198 608 166 198 166 
L 198 0 
C 352 12 646 12 813 12 
C 998 12 1325 12 1498 0 
L 1498 166 
C 1037 166 960 166 960 455 
L 960 1517 
z
" transform="scale(0.015625)"/>
       <path id="CMR17-6f" d="M 2758 1356 
C 2758 2176 2163 2816 1466 2816 
C 768 2816 173 2176 173 1356 
C 173 550 768 -64 1466 -64 
C 2163 -64 2758 550 2758 1356 
z
M 1466 51 
C 1165 51 909 230 762 480 
C 602 768 582 1126 582 1408 
C 582 1676 595 2009 762 2297 
C 890 2508 1139 2713 1466 2713 
C 1754 2713 1997 2553 2150 2329 
C 2349 2028 2349 1606 2349 1408 
C 2349 1158 2336 774 2163 467 
C 1984 172 1709 51 1466 51 
z
" transform="scale(0.015625)"/>
       <path id="CMR17-62" d="M 960 4416 
L 198 4345 
L 198 4179 
C 576 4179 634 4141 634 3843 
L 634 -13 
L 749 -13 
L 934 445 
C 1120 141 1395 -64 1766 -64 
C 2406 -64 3053 503 3053 1382 
C 3053 2209 2477 2816 1830 2816 
C 1434 2816 1152 2603 960 2351 
L 960 4416 
z
M 973 2022 
C 973 2138 973 2157 1062 2293 
C 1312 2681 1670 2713 1792 2713 
C 1984 2713 2643 2610 2643 1388 
C 2643 109 1888 38 1734 38 
C 1536 38 1248 115 1043 490 
C 973 613 973 626 973 742 
L 973 2022 
z
" transform="scale(0.015625)"/>
       <path id="CMR17-6c" d="M 979 4416 
L 218 4345 
L 218 4179 
C 595 4179 653 4141 653 3835 
L 653 439 
C 653 198 627 166 218 166 
L 218 0 
C 371 12 653 12 813 12 
C 979 12 1261 12 1414 0 
L 1414 166 
C 1005 166 979 191 979 439 
L 979 4416 
z
" transform="scale(0.015625)"/>
       <path id="CMR17-79" d="M 2496 2183 
C 2656 2579 2944 2585 3034 2585 
L 3034 2752 
C 2912 2745 2752 2739 2630 2739 
C 2496 2739 2285 2739 2157 2752 
L 2157 2585 
C 2400 2566 2406 2384 2406 2332 
C 2406 2268 2394 2235 2362 2158 
L 1664 409 
L 902 2300 
C 870 2378 870 2423 870 2430 
C 870 2572 1018 2585 1171 2585 
L 1171 2752 
C 1018 2739 742 2739 582 2739 
C 410 2739 205 2739 64 2752 
L 64 2585 
C 410 2585 448 2553 531 2345 
L 1485 -31 
C 1197 -795 1030 -1242 627 -1242 
C 557 -1242 397 -1223 282 -1106 
C 429 -1093 493 -1002 493 -892 
C 493 -782 416 -685 288 -685 
C 147 -685 77 -782 77 -899 
C 77 -1158 339 -1344 627 -1344 
C 998 -1344 1229 -983 1357 -659 
L 2496 2183 
z
" transform="scale(0.015625)"/>
       <path id="CMR17-64" d="M 1869 4345 
L 1869 4179 
C 2246 4179 2304 4141 2304 3843 
L 2304 2371 
C 2278 2403 2016 2816 1498 2816 
C 845 2816 211 2228 211 1376 
C 211 529 806 -64 1434 -64 
C 1978 -64 2259 361 2291 406 
L 2291 -64 
L 3066 -13 
L 3066 154 
C 2688 154 2630 193 2630 503 
L 2630 4416 
L 1869 4345 
z
M 2291 762 
C 2291 568 2176 393 2029 264 
C 1811 70 1594 38 1472 38 
C 1286 38 621 135 621 1369 
C 621 2636 1363 2713 1530 2713 
C 1824 2713 2061 2545 2208 2313 
C 2291 2177 2291 2157 2291 2041 
L 2291 762 
z
" transform="scale(0.015625)"/>
      </defs>
      <use xlink:href="#CMR17-50" transform="scale(0.996264)"/>
      <use xlink:href="#CMR17-72" transform="translate(62.586301 0)scale(0.996264)"/>
      <use xlink:href="#CMR17-6f" transform="translate(97.867068 0)scale(0.996264)"/>
      <use xlink:href="#CMR17-62" transform="translate(143.557545 0)scale(0.996264)"/>
      <use xlink:href="#CMR17-61" transform="translate(194.452915 0)scale(0.996264)"/>
      <use xlink:href="#CMR17-62" transform="translate(240.143392 0)scale(0.996264)"/>
      <use xlink:href="#CMR17-69" transform="translate(291.038762 0)scale(0.996264)"/>
      <use xlink:href="#CMR17-6c" transform="translate(315.909821 0)scale(0.996264)"/>
      <use xlink:href="#CMR17-69" transform="translate(340.780879 0)scale(0.996264)"/>
      <use xlink:href="#CMR17-74" transform="translate(365.651938 0)scale(0.996264)"/>
      <use xlink:href="#CMR17-79" transform="translate(398.330251 0)scale(0.996264)"/>
      <use xlink:href="#CMR17-64" transform="translate(476.699134 0)scale(0.996264)"/>
      <use xlink:href="#CMR17-65" transform="translate(527.594503 0)scale(0.996264)"/>
      <use xlink:href="#CMR17-6e" transform="translate(568.080164 0)scale(0.996264)"/>
      <use xlink:href="#CMR17-73" transform="translate(618.975534 0)scale(0.996264)"/>
      <use xlink:href="#CMR17-69" transform="translate(654.776871 0)scale(0.996264)"/>
      <use xlink:href="#CMR17-74" transform="translate(679.64793 0)scale(0.996264)"/>
      <use xlink:href="#CMR17-79" transform="translate(712.326244 0)scale(0.996264)"/>
     </g>
    </g>
   </g>
   <g id="line2d_14">
    <path d="M 268.755547 384.157026 
L 268.755547 51.517026 
" clip-path="url(#p7c50eefc05)" style="fill: none; stroke-dasharray: 5.55,2.4; stroke-dashoffset: 0; stroke: #000000; stroke-width: 1.5"/>
   </g>
   <g id="patch_3">
    <path d="M 45.555547 384.157026 
L 45.555547 51.517026 
" style="fill: none; stroke: #000000; stroke-width: 0.8; stroke-linejoin: miter; stroke-linecap: square"/>
   </g>
   <g id="patch_4">
    <path d="M 491.955547 384.157026 
L 491.955547 51.517026 
" style="fill: none; stroke: #000000; stroke-width: 0.8; stroke-linejoin: miter; stroke-linecap: square"/>
   </g>
   <g id="patch_5">
    <path d="M 45.555547 384.157026 
L 491.955547 384.157026 
" style="fill: none; stroke: #000000; stroke-width: 0.8; stroke-linejoin: miter; stroke-linecap: square"/>
   </g>
   <g id="patch_6">
    <path d="M 45.555547 51.517026 
L 491.955547 51.517026 
" style="fill: none; stroke: #000000; stroke-width: 0.8; stroke-linejoin: miter; stroke-linecap: square"/>
   </g>
   <g id="text_16">
    <!-- Distance reconstruction  -->
    <g transform="translate(174.625662 21.036997)scale(0.2 -0.2)">
     <defs>
      <path id="CMR17-75" d="M 1882 2745 
L 1882 2579 
C 2259 2579 2317 2540 2317 2229 
L 2317 1053 
C 2317 510 2029 38 1555 38 
C 1030 38 986 355 986 691 
L 986 2816 
L 211 2745 
L 211 2579 
C 467 2579 640 2579 646 2320 
L 646 1079 
C 646 646 646 368 813 187 
C 896 103 1056 -64 1517 -64 
C 2061 -64 2272 400 2323 536 
L 2330 536 
L 2330 -64 
L 3091 -13 
L 3091 154 
C 2714 154 2656 193 2656 503 
L 2656 2816 
L 1882 2745 
z
" transform="scale(0.015625)"/>
     </defs>
     <use xlink:href="#CMR17-44" transform="scale(0.996264)"/>
     <use xlink:href="#CMR17-69" transform="translate(70.393556 0)scale(0.996264)"/>
     <use xlink:href="#CMR17-73" transform="translate(95.264614 0)scale(0.996264)"/>
     <use xlink:href="#CMR17-74" transform="translate(131.065952 0)scale(0.996264)"/>
     <use xlink:href="#CMR17-61" transform="translate(166.34672 0)scale(0.996264)"/>
     <use xlink:href="#CMR17-6e" transform="translate(212.037197 0)scale(0.996264)"/>
     <use xlink:href="#CMR17-63" transform="translate(262.932567 0)scale(0.996264)"/>
     <use xlink:href="#CMR17-65" transform="translate(303.418227 0)scale(0.996264)"/>
     <use xlink:href="#CMR17-72" transform="translate(373.979854 0)scale(0.996264)"/>
     <use xlink:href="#CMR17-65" transform="translate(409.260622 0)scale(0.996264)"/>
     <use xlink:href="#CMR17-63" transform="translate(449.746282 0)scale(0.996264)"/>
     <use xlink:href="#CMR17-6f" transform="translate(490.231943 0)scale(0.996264)"/>
     <use xlink:href="#CMR17-6e" transform="translate(535.92242 0)scale(0.996264)"/>
     <use xlink:href="#CMR17-73" transform="translate(586.81779 0)scale(0.996264)"/>
     <use xlink:href="#CMR17-74" transform="translate(622.619127 0)scale(0.996264)"/>
     <use xlink:href="#CMR17-72" transform="translate(657.899895 0)scale(0.996264)"/>
     <use xlink:href="#CMR17-75" transform="translate(693.180663 0)scale(0.996264)"/>
     <use xlink:href="#CMR17-63" transform="translate(744.076033 0)scale(0.996264)"/>
     <use xlink:href="#CMR17-74" transform="translate(784.561693 0)scale(0.996264)"/>
     <use xlink:href="#CMR17-69" transform="translate(819.842461 0)scale(0.996264)"/>
     <use xlink:href="#CMR17-6f" transform="translate(844.713519 0)scale(0.996264)"/>
     <use xlink:href="#CMR17-6e" transform="translate(890.403996 0)scale(0.996264)"/>
    </g>
    <!--  using $L$ distribution and fitted parameters -->
    <g transform="translate(99.614625 41.517026)scale(0.2 -0.2)">
     <defs>
      <path id="CMR17-67" d="M 710 1165 
C 832 1068 1043 960 1299 960 
C 1805 960 2240 1359 2240 1895 
C 2240 2063 2189 2321 1997 2521 
C 2176 2713 2438 2777 2586 2777 
C 2611 2777 2650 2777 2682 2758 
C 2656 2751 2598 2726 2598 2623 
C 2598 2540 2656 2483 2739 2483 
C 2835 2483 2886 2547 2886 2630 
C 2886 2751 2790 2880 2586 2880 
C 2330 2880 2106 2758 1926 2591 
C 1734 2764 1504 2828 1299 2828 
C 794 2828 358 2431 358 1895 
C 358 1527 570 1294 634 1230 
C 442 1004 442 742 442 710 
C 442 544 506 300 723 166 
C 390 82 128 -184 128 -517 
C 128 -996 736 -1344 1466 -1344 
C 2170 -1344 2803 -1009 2803 -510 
C 2803 384 1856 384 1363 384 
C 1216 384 954 384 922 390 
C 723 422 589 601 589 825 
C 589 883 589 1024 710 1165 
z
M 1299 1068 
C 736 1068 736 1766 736 1895 
C 736 2024 736 2719 1299 2719 
C 1862 2719 1862 2024 1862 1895 
C 1862 1766 1862 1068 1299 1068 
z
M 1466 -1236 
C 826 -1236 384 -883 384 -517 
C 384 -311 493 -118 634 -11 
C 794 102 858 102 1293 102 
C 1818 102 2547 102 2547 -517 
C 2547 -883 2106 -1236 1466 -1236 
z
" transform="scale(0.015625)"/>
      <path id="CMMI12-4c" d="M 2349 3860 
C 2406 4102 2426 4166 2989 4166 
C 3162 4166 3206 4166 3206 4287 
C 3206 4352 3136 4352 3110 4352 
C 2982 4352 2835 4339 2707 4339 
L 1850 4339 
C 1728 4339 1587 4352 1466 4352 
C 1414 4352 1344 4352 1344 4230 
C 1344 4166 1402 4166 1498 4166 
C 1888 4166 1888 4115 1888 4045 
C 1888 4032 1888 3994 1862 3898 
L 998 472 
C 941 249 928 185 480 185 
C 358 185 294 185 294 70 
C 294 0 333 0 461 0 
L 3328 0 
C 3469 0 3475 6 3520 121 
L 4013 1478 
C 4026 1510 4038 1548 4038 1567 
C 4038 1605 4006 1631 3974 1631 
C 3968 1631 3936 1631 3923 1605 
C 3910 1599 3910 1586 3859 1465 
C 3654 905 3366 185 2285 185 
L 1670 185 
C 1581 185 1568 185 1530 191 
C 1459 198 1453 211 1453 262 
C 1453 306 1466 344 1478 402 
L 2349 3860 
z
" transform="scale(0.015625)"/>
      <path id="CMR17-c" d="M 2554 2816 
C 2400 2809 1926 2777 1805 2764 
C 1766 2758 1754 2758 1677 2758 
L 947 2758 
L 947 3517 
C 947 4127 1434 4416 1818 4416 
C 1939 4416 2214 4383 2355 4160 
C 2291 4160 2086 4160 2086 3935 
C 2086 3782 2189 3705 2317 3705 
C 2432 3705 2547 3769 2547 3942 
C 2547 4265 2240 4518 1843 4518 
C 1338 4518 634 4225 634 3517 
L 634 2758 
L 122 2758 
L 122 2591 
L 634 2591 
L 634 442 
C 634 198 608 166 198 166 
L 198 0 
C 352 12 634 12 794 12 
C 960 12 1242 12 1395 0 
L 1395 166 
C 986 166 960 192 960 442 
L 960 2591 
L 1901 2591 
C 2176 2591 2227 2534 2227 2251 
L 2227 442 
C 2227 198 2202 166 1792 166 
L 1792 0 
C 1946 12 2227 12 2387 12 
C 2554 12 2835 12 2989 0 
L 2989 166 
C 2579 166 2554 192 2554 442 
L 2554 2816 
z
" transform="scale(0.015625)"/>
      <path id="CMR17-6d" d="M 4326 1954 
C 4326 2276 4269 2816 3507 2816 
C 3072 2816 2771 2520 2656 2173 
L 2650 2173 
C 2573 2700 2195 2816 1837 2816 
C 1331 2816 1069 2424 973 2166 
L 966 2166 
L 966 2816 
L 211 2745 
L 211 2578 
C 589 2578 646 2540 646 2231 
L 646 443 
C 646 198 621 166 211 166 
L 211 0 
C 365 12 646 12 813 12 
C 979 12 1267 12 1421 0 
L 1421 166 
C 1011 166 986 192 986 443 
L 986 1678 
C 986 2269 1344 2713 1792 2713 
C 2266 2713 2317 2289 2317 1980 
L 2317 443 
C 2317 198 2291 166 1882 166 
L 1882 0 
C 2035 12 2317 12 2483 12 
C 2650 12 2938 12 3091 0 
L 3091 166 
C 2682 166 2656 192 2656 443 
L 2656 1678 
C 2656 2269 3014 2713 3462 2713 
C 3936 2713 3987 2289 3987 1980 
L 3987 443 
C 3987 198 3962 166 3552 166 
L 3552 0 
C 3706 12 3987 12 4154 12 
C 4320 12 4608 12 4762 0 
L 4762 166 
C 4352 166 4326 192 4326 443 
L 4326 1954 
z
" transform="scale(0.015625)"/>
     </defs>
     <use xlink:href="#CMR17-75" transform="scale(0.996264)"/>
     <use xlink:href="#CMR17-73" transform="translate(50.89537 0)scale(0.996264)"/>
     <use xlink:href="#CMR17-69" transform="translate(86.696707 0)scale(0.996264)"/>
     <use xlink:href="#CMR17-6e" transform="translate(111.567766 0)scale(0.996264)"/>
     <use xlink:href="#CMR17-67" transform="translate(162.463136 0)scale(0.996264)"/>
     <use xlink:href="#CMMI12-4c" transform="translate(238.229579 0)scale(0.996264)"/>
     <use xlink:href="#CMR17-64" transform="translate(334.676421 0)scale(0.996264)"/>
     <use xlink:href="#CMR17-69" transform="translate(385.571791 0)scale(0.996264)"/>
     <use xlink:href="#CMR17-73" transform="translate(410.442849 0)scale(0.996264)"/>
     <use xlink:href="#CMR17-74" transform="translate(446.244187 0)scale(0.996264)"/>
     <use xlink:href="#CMR17-72" transform="translate(481.524955 0)scale(0.996264)"/>
     <use xlink:href="#CMR17-69" transform="translate(516.805722 0)scale(0.996264)"/>
     <use xlink:href="#CMR17-62" transform="translate(541.676781 0)scale(0.996264)"/>
     <use xlink:href="#CMR17-75" transform="translate(592.572151 0)scale(0.996264)"/>
     <use xlink:href="#CMR17-74" transform="translate(643.46752 0)scale(0.996264)"/>
     <use xlink:href="#CMR17-69" transform="translate(678.748288 0)scale(0.996264)"/>
     <use xlink:href="#CMR17-6f" transform="translate(703.619347 0)scale(0.996264)"/>
     <use xlink:href="#CMR17-6e" transform="translate(749.309824 0)scale(0.996264)"/>
     <use xlink:href="#CMR17-61" transform="translate(830.28116 0)scale(0.996264)"/>
     <use xlink:href="#CMR17-6e" transform="translate(875.971637 0)scale(0.996264)"/>
     <use xlink:href="#CMR17-64" transform="translate(926.867007 0)scale(0.996264)"/>
     <use xlink:href="#CMR17-c" transform="translate(1007.838343 0)scale(0.996264)"/>
     <use xlink:href="#CMR17-74" transform="translate(1057.580566 0)scale(0.996264)"/>
     <use xlink:href="#CMR17-74" transform="translate(1092.861334 0)scale(0.996264)"/>
     <use xlink:href="#CMR17-65" transform="translate(1128.142102 0)scale(0.996264)"/>
     <use xlink:href="#CMR17-64" transform="translate(1168.627762 0)scale(0.996264)"/>
     <use xlink:href="#CMR17-70" transform="translate(1249.599099 0)scale(0.996264)"/>
     <use xlink:href="#CMR17-61" transform="translate(1300.494468 0)scale(0.996264)"/>
     <use xlink:href="#CMR17-72" transform="translate(1346.184945 0)scale(0.996264)"/>
     <use xlink:href="#CMR17-61" transform="translate(1381.465713 0)scale(0.996264)"/>
     <use xlink:href="#CMR17-6d" transform="translate(1427.15619 0)scale(0.996264)"/>
     <use xlink:href="#CMR17-65" transform="translate(1504.07578 0)scale(0.996264)"/>
     <use xlink:href="#CMR17-74" transform="translate(1544.561441 0)scale(0.996264)"/>
     <use xlink:href="#CMR17-65" transform="translate(1579.842209 0)scale(0.996264)"/>
     <use xlink:href="#CMR17-72" transform="translate(1620.327869 0)scale(0.996264)"/>
     <use xlink:href="#CMR17-73" transform="translate(1655.608637 0)scale(0.996264)"/>
    </g>
   </g>
   <g id="legend_1">
    <g id="patch_7">
     <path d="M 315.109026 132.530203 
L 483.555547 132.530203 
Q 485.955547 132.530203 485.955547 130.130203 
L 485.955547 59.917026 
Q 485.955547 57.517026 483.555547 57.517026 
L 315.109026 57.517026 
Q 312.709026 57.517026 312.709026 59.917026 
L 312.709026 130.130203 
Q 312.709026 132.530203 315.109026 132.530203 
z
" style="fill: #ffffff; opacity: 0.8; stroke: #cccccc; stroke-linejoin: miter"/>
    </g>
    <g id="patch_8">
     <path d="M 317.509026 81.352622 
L 341.509026 81.352622 
L 341.509026 72.952622 
L 317.509026 72.952622 
z
" style="fill: #280b53; fill-opacity: 0.25; stroke: #280b53; stroke-linejoin: miter"/>
    </g>
    <g id="text_17">
     <!-- $L \propto \displaystyle \frac{\left[\mathcal{N}(1.33, 0.9)\right]^2}{\mathcal{U}(R_{\mathrm{min}}, R_{\mathrm{max}})}$ -->
     <g transform="translate(351.109026 81.352622)scale(0.12 -0.12)">
      <defs>
       <path id="CMSY10-2f" d="M 4621 210 
C 4595 210 4493 198 4474 198 
C 3968 198 3629 694 3411 1025 
C 3347 1133 3174 1394 3104 1503 
C 3258 1846 3686 2636 4448 2636 
C 4493 2636 4550 2636 4621 2617 
C 4621 2784 4614 2790 4602 2803 
C 4557 2816 4461 2822 4403 2822 
C 3590 2822 3117 2044 2963 1725 
C 2707 2114 2618 2254 2381 2451 
C 1990 2790 1638 2822 1478 2822 
C 768 2822 358 2107 358 1375 
C 358 662 755 -64 1459 -64 
C 2272 -64 2746 713 2899 1031 
C 3155 643 3245 503 3482 306 
C 3872 -32 4224 -64 4384 -64 
C 4461 -64 4563 -52 4621 -39 
L 4621 210 
z
M 2758 1254 
C 2605 911 2176 121 1414 121 
C 794 121 499 796 499 1375 
C 499 2006 858 2560 1389 2560 
C 1894 2560 2234 2063 2451 1732 
C 2515 1624 2688 1363 2758 1254 
z
" transform="scale(0.015625)"/>
       <path id="CMSY10-4e" d="M 1958 3657 
C 2074 3326 2214 2848 2502 2065 
C 2906 982 3085 587 3475 -20 
C 3565 -154 3571 -160 3629 -160 
C 3718 -160 3853 -84 3923 -32 
C 4013 51 4019 57 4090 370 
C 4474 2046 4960 3791 5088 4084 
C 5094 4097 5222 4339 6010 4352 
C 6138 4358 6259 4697 6259 4838 
C 6259 4940 6221 4940 6131 4940 
C 5491 4940 5203 4672 5126 4588 
C 4947 4358 4794 3893 4499 2829 
C 4275 2014 4070 1186 3872 364 
C 3520 893 3322 1396 3014 2218 
C 2675 3122 2470 3785 2298 4358 
C 2259 4486 2253 4492 2195 4492 
C 2182 4492 2054 4492 1869 4339 
C 1805 4282 1798 4224 1792 4154 
C 1613 2460 1011 784 838 479 
C 787 383 710 268 582 268 
C 518 268 269 300 102 453 
C 70 479 58 479 51 479 
C -51 479 -186 160 -186 6 
C -186 -192 205 -320 384 -320 
C 794 -320 1120 580 1222 873 
C 1638 2026 1837 2976 1958 3657 
z
" transform="scale(0.015625)"/>
       <path id="CMR17-28" d="M 1958 -1562 
C 1958 -1556 1958 -1543 1939 -1524 
C 1645 -1223 858 -403 858 1596 
C 858 3595 1632 4408 1946 4729 
C 1946 4735 1958 4748 1958 4767 
C 1958 4787 1939 4800 1914 4800 
C 1843 4800 1299 4325 986 3620 
C 666 2909 576 2218 576 1603 
C 576 1141 621 360 1005 -467 
C 1312 -1133 1837 -1600 1914 -1600 
C 1946 -1600 1958 -1588 1958 -1562 
z
" transform="scale(0.015625)"/>
       <path id="CMR17-33" d="M 1414 2176 
C 1984 2176 2234 1673 2234 1094 
C 2234 322 1824 25 1453 25 
C 1114 25 563 193 390 691 
C 422 678 454 678 486 678 
C 640 678 755 780 755 947 
C 755 1132 614 1216 486 1216 
C 378 1216 211 1164 211 927 
C 211 335 787 -128 1466 -128 
C 2176 -128 2720 432 2720 1087 
C 2720 1718 2208 2176 1600 2246 
C 2086 2347 2554 2776 2554 3353 
C 2554 3856 2048 4224 1472 4224 
C 890 4224 378 3862 378 3347 
C 378 3123 544 3084 627 3084 
C 762 3084 877 3167 877 3334 
C 877 3500 762 3584 627 3584 
C 602 3584 570 3584 544 3571 
C 730 3999 1235 4076 1459 4076 
C 1683 4076 2106 3966 2106 3347 
C 2106 3167 2080 2851 1862 2574 
C 1670 2329 1453 2316 1242 2297 
C 1210 2297 1062 2284 1037 2284 
C 992 2278 966 2272 966 2227 
C 966 2182 973 2176 1101 2176 
L 1414 2176 
z
" transform="scale(0.015625)"/>
       <path id="CMMI12-3b" d="M 1248 -26 
C 1248 345 1126 620 864 620 
C 659 620 557 454 557 313 
C 557 172 653 0 870 0 
C 954 0 1024 25 1082 83 
C 1094 96 1101 96 1107 96 
C 1120 96 1120 6 1120 -26 
C 1120 -233 1082 -642 710 -1051 
C 640 -1127 640 -1140 640 -1152 
C 640 -1184 672 -1216 704 -1216 
C 755 -1216 1248 -749 1248 -26 
z
" transform="scale(0.015625)"/>
       <path id="CMR17-39" d="M 2253 1871 
C 2253 448 1670 25 1190 25 
C 1043 25 685 43 538 281 
C 704 256 826 345 826 505 
C 826 678 685 736 595 736 
C 538 736 365 710 365 492 
C 365 68 742 -128 1203 -128 
C 1939 -128 2688 665 2688 2090 
C 2688 3857 1971 4224 1485 4224 
C 851 4224 243 3664 243 2800 
C 243 2000 762 1408 1414 1408 
C 1952 1408 2189 1910 2253 2122 
L 2253 1871 
z
M 1427 1510 
C 1254 1510 1011 1542 813 1929 
C 678 2181 678 2477 678 2793 
C 678 3174 678 3438 858 3722 
C 947 3857 1114 4076 1485 4076 
C 2240 4076 2240 2909 2240 2651 
C 2240 2193 2035 1510 1427 1510 
z
" transform="scale(0.015625)"/>
       <path id="CMR17-29" d="M 1683 1596 
C 1683 2057 1638 2839 1254 3665 
C 947 4332 422 4800 346 4800 
C 326 4800 301 4793 301 4761 
C 301 4748 307 4742 314 4729 
C 621 4408 1402 3595 1402 1603 
C 1402 -396 627 -1210 314 -1530 
C 307 -1543 301 -1549 301 -1562 
C 301 -1594 326 -1600 346 -1600 
C 416 -1600 960 -1127 1274 -422 
C 1594 289 1683 981 1683 1596 
z
" transform="scale(0.015625)"/>
       <path id="CMSY10-55" d="M 3155 1892 
C 3008 1359 2784 573 2784 83 
C 2784 -90 2893 -167 3046 -167 
C 3302 -167 3782 108 3782 236 
C 3782 268 3750 281 3718 281 
C 3642 281 3526 224 3456 185 
C 3373 198 3328 262 3328 350 
C 3328 1125 4058 3346 4243 3815 
C 4320 3993 4403 4255 4403 4307 
C 4403 4352 4365 4352 4339 4352 
C 4205 4352 3917 4179 3866 4057 
C 3782 3834 3770 3802 3693 3568 
C 3482 2965 2848 1918 2214 1182 
C 2016 960 1389 224 934 224 
C 627 224 435 484 435 903 
C 435 1347 685 1918 1069 2787 
C 1299 3308 1491 3758 1491 4044 
C 1491 4345 1286 4352 1171 4352 
C 678 4352 64 3955 64 3822 
C 64 3783 109 3783 134 3783 
C 211 3783 326 3834 429 3904 
C 474 3936 576 3999 749 3999 
C 890 3999 947 3910 947 3771 
C 947 3492 717 2971 448 2362 
C 26 1410 -109 1004 -109 636 
C -109 217 58 -128 512 -128 
C 909 -128 1491 134 2144 738 
C 2586 1150 2874 1531 3149 1899 
L 3155 1892 
z
" transform="scale(0.015625)"/>
       <path id="CMMI12-52" d="M 2355 3917 
C 2413 4153 2438 4166 2688 4166 
L 3149 4166 
C 3699 4166 4109 4000 4109 3503 
C 4109 3177 3942 2240 2656 2240 
L 1933 2240 
L 2355 3917 
z
M 3245 2163 
C 4038 2335 4659 2846 4659 3394 
C 4659 3892 4154 4352 3264 4352 
L 1530 4352 
C 1402 4352 1344 4352 1344 4230 
C 1344 4166 1389 4166 1510 4166 
C 1894 4166 1894 4115 1894 4045 
C 1894 4032 1894 3994 1869 3898 
L 1005 475 
C 947 253 934 190 493 190 
C 346 190 301 190 301 69 
C 301 6 371 6 390 6 
C 506 6 640 19 762 19 
L 1517 19 
C 1632 19 1766 6 1882 6 
C 1933 6 2003 6 2003 126 
C 2003 190 1946 190 1850 190 
C 1459 190 1459 241 1459 304 
C 1459 310 1459 355 1472 405 
L 1901 2112 
L 2669 2112 
C 3277 2112 3392 1731 3392 1522 
C 3392 1426 3328 1179 3283 1014 
C 3213 723 3194 653 3194 532 
C 3194 82 3565 -128 3994 -128 
C 4512 -128 4736 501 4736 589 
C 4736 634 4704 653 4666 653 
C 4614 653 4602 615 4589 564 
C 4435 114 4173 0 4013 0 
C 3853 0 3750 69 3750 355 
C 3750 507 3827 1084 3834 1116 
C 3866 1350 3866 1376 3866 1426 
C 3866 1889 3488 2086 3245 2163 
z
" transform="scale(0.015625)"/>
       <path id="CMR17-78" d="M 1664 1491 
C 1856 1740 2074 2022 2253 2233 
C 2464 2476 2707 2579 2989 2585 
L 2989 2752 
C 2880 2745 2656 2739 2541 2739 
C 2368 2739 2170 2739 2022 2752 
L 2022 2585 
C 2112 2572 2163 2508 2163 2419 
C 2163 2304 2099 2233 2067 2188 
L 1594 1587 
L 1030 2323 
C 973 2393 973 2406 973 2438 
C 973 2515 1037 2579 1146 2585 
L 1146 2752 
C 992 2739 717 2739 557 2739 
C 384 2739 179 2739 38 2752 
L 38 2585 
C 384 2585 461 2560 614 2368 
L 1350 1414 
C 1363 1401 1395 1363 1395 1344 
C 1395 1318 838 633 768 544 
C 480 198 179 172 6 166 
L 6 0 
C 115 6 339 12 454 12 
C 582 12 864 12 979 0 
L 979 166 
C 941 172 838 185 838 332 
C 838 448 890 518 947 595 
L 1478 1248 
L 2035 524 
C 2086 454 2163 358 2163 313 
C 2163 224 2086 172 1984 166 
L 1984 0 
C 2138 12 2413 12 2573 12 
C 2746 12 2950 12 3091 0 
L 3091 166 
C 2771 166 2675 179 2522 377 
L 1664 1491 
z
" transform="scale(0.015625)"/>
      </defs>
      <use xlink:href="#CMMI12-4c" transform="scale(0.996264)"/>
      <use xlink:href="#CMSY10-2f" transform="translate(94.044884 0)scale(0.996264)"/>
      <use xlink:href="#CMR17-5b" transform="translate(200.401874 67.401222)scale(0.996264)"/>
      <use xlink:href="#CMSY10-4e" transform="translate(225.272933 67.398045)scale(0.996264)"/>
      <use xlink:href="#CMR17-28" transform="translate(321.696394 67.398045)scale(0.996264)"/>
      <use xlink:href="#CMR17-31" transform="translate(356.977162 67.398045)scale(0.996264)"/>
      <use xlink:href="#CMMI12-3a" transform="translate(402.667639 67.398045)scale(0.996264)"/>
      <use xlink:href="#CMR17-33" transform="translate(429.764816 67.398045)scale(0.996264)"/>
      <use xlink:href="#CMR17-33" transform="translate(475.455293 67.398045)scale(0.996264)"/>
      <use xlink:href="#CMMI12-3b" transform="translate(521.14577 67.398045)scale(0.996264)"/>
      <use xlink:href="#CMR17-30" transform="translate(564.847353 67.398045)scale(0.996264)"/>
      <use xlink:href="#CMMI12-3a" transform="translate(610.53783 67.398045)scale(0.996264)"/>
      <use xlink:href="#CMR17-39" transform="translate(637.635007 67.398045)scale(0.996264)"/>
      <use xlink:href="#CMR17-29" transform="translate(683.325484 67.398045)scale(0.996264)"/>
      <use xlink:href="#CMR17-5d" transform="translate(718.606252 67.401222)scale(0.996264)"/>
      <use xlink:href="#CMR17-32" transform="translate(743.47731 115.104841)scale(0.697382)"/>
      <use xlink:href="#CMSY10-55" transform="translate(206.922679 -68.338837)scale(0.996264)"/>
      <use xlink:href="#CMR17-28" transform="translate(279.165532 -68.338837)scale(0.996264)"/>
      <use xlink:href="#CMMI12-52" transform="translate(314.446299 -68.338837)scale(0.996264)"/>
      <use xlink:href="#CMR17-6d" transform="translate(388.697125 -83.282752)scale(0.697382)"/>
      <use xlink:href="#CMR17-69" transform="translate(442.540592 -83.282752)scale(0.697382)"/>
      <use xlink:href="#CMR17-6e" transform="translate(459.950251 -83.282752)scale(0.697382)"/>
      <use xlink:href="#CMMI12-3b" transform="translate(496.074991 -68.338837)scale(0.996264)"/>
      <use xlink:href="#CMMI12-52" transform="translate(539.776573 -68.338837)scale(0.996264)"/>
      <use xlink:href="#CMR17-6d" transform="translate(614.027399 -83.282752)scale(0.697382)"/>
      <use xlink:href="#CMR17-61" transform="translate(667.870866 -83.282752)scale(0.697382)"/>
      <use xlink:href="#CMR17-78" transform="translate(699.854048 -83.282752)scale(0.697382)"/>
      <use xlink:href="#CMR17-29" transform="translate(734.157067 -68.338837)scale(0.996264)"/>
      <path d="M 200.401874 22.914133 
L 775.958624 22.914133 
L 775.958624 26.899083 
L 200.401874 26.899083 
L 200.401874 22.914133 
z
"/>
     </g>
    </g>
    <g id="patch_9">
     <path d="M 317.509026 108.016816 
L 341.509026 108.016816 
L 341.509026 99.616816 
L 317.509026 99.616816 
z
" style="fill: #9f2a63; fill-opacity: 0.25; stroke: #9f2a63; stroke-linejoin: miter"/>
    </g>
    <g id="text_18">
     <!-- $L \sim \mathcal{N}(1, 0.3) \times 10^{53}$ ergs -->
     <g transform="translate(351.109026 108.016816)scale(0.12 -0.12)">
      <defs>
       <path id="CMSY10-18" d="M 4621 2131 
C 4621 2272 4582 2336 4531 2336 
C 4499 2336 4448 2291 4442 2169 
C 4416 1562 3994 1216 3546 1216 
C 3142 1216 2835 1486 2522 1757 
C 2195 2048 1862 2342 1427 2342 
C 730 2342 352 1644 352 1068 
C 352 863 435 863 442 863 
C 512 863 531 991 531 1011 
C 557 1707 1037 1984 1427 1984 
C 1830 1984 2138 1713 2451 1442 
C 2778 1151 3110 857 3546 857 
C 4243 857 4621 1555 4621 2131 
z
" transform="scale(0.015625)"/>
       <path id="CMSY10-2" d="M 2490 1775 
L 1210 3046 
C 1133 3123 1120 3136 1069 3136 
C 1005 3136 941 3078 941 3008 
C 941 2963 954 2950 1024 2880 
L 2304 1596 
L 1024 313 
C 954 243 941 230 941 185 
C 941 115 1005 57 1069 57 
C 1120 57 1133 70 1210 147 
L 2483 1418 
L 3808 95 
C 3821 89 3866 57 3904 57 
C 3981 57 4032 115 4032 185 
C 4032 198 4032 223 4013 255 
C 4006 268 2989 1271 2669 1596 
L 3840 2765 
C 3872 2803 3968 2886 4000 2925 
C 4006 2937 4032 2963 4032 3008 
C 4032 3078 3981 3136 3904 3136 
C 3853 3136 3827 3110 3757 3040 
L 2490 1775 
z
" transform="scale(0.015625)"/>
       <path id="CMR17-35" d="M 730 3750 
C 794 3724 1056 3641 1325 3641 
C 1920 3641 2246 3961 2432 4140 
C 2432 4191 2432 4224 2394 4224 
C 2387 4224 2374 4224 2323 4198 
C 2099 4102 1837 4032 1517 4032 
C 1325 4032 1037 4055 723 4191 
C 653 4224 640 4224 634 4224 
C 602 4224 595 4217 595 4090 
L 595 2231 
C 595 2113 595 2080 659 2080 
C 691 2080 704 2093 736 2139 
C 941 2435 1222 2560 1542 2560 
C 1766 2560 2246 2415 2246 1293 
C 2246 1087 2246 716 2054 422 
C 1894 159 1645 25 1370 25 
C 947 25 518 319 403 812 
C 429 806 480 793 506 793 
C 589 793 749 838 749 1036 
C 749 1209 627 1280 506 1280 
C 358 1280 262 1190 262 1011 
C 262 454 704 -128 1382 -128 
C 2042 -128 2669 441 2669 1267 
C 2669 2054 2170 2662 1549 2662 
C 1222 2662 947 2540 730 2304 
L 730 3750 
z
" transform="scale(0.015625)"/>
      </defs>
      <use xlink:href="#CMMI12-4c" transform="scale(0.996264)"/>
      <use xlink:href="#CMSY10-18" transform="translate(94.044884 0)scale(0.996264)"/>
      <use xlink:href="#CMSY10-4e" transform="translate(199.206361 0)scale(0.996264)"/>
      <use xlink:href="#CMR17-28" transform="translate(295.629822 0)scale(0.996264)"/>
      <use xlink:href="#CMR17-31" transform="translate(330.91059 0)scale(0.996264)"/>
      <use xlink:href="#CMMI12-3b" transform="translate(376.601067 0)scale(0.996264)"/>
      <use xlink:href="#CMR17-30" transform="translate(420.302649 0)scale(0.996264)"/>
      <use xlink:href="#CMMI12-3a" transform="translate(465.993126 0)scale(0.996264)"/>
      <use xlink:href="#CMR17-33" transform="translate(493.090303 0)scale(0.996264)"/>
      <use xlink:href="#CMR17-29" transform="translate(538.780781 0)scale(0.996264)"/>
      <use xlink:href="#CMSY10-2" transform="translate(596.200755 0)scale(0.996264)"/>
      <use xlink:href="#CMR17-31" transform="translate(695.82743 0)scale(0.996264)"/>
      <use xlink:href="#CMR17-30" transform="translate(741.517907 0)scale(0.996264)"/>
      <use xlink:href="#CMR17-35" transform="translate(787.208384 36.153639)scale(0.697382)"/>
      <use xlink:href="#CMR17-33" transform="translate(819.191566 36.153639)scale(0.697382)"/>
      <use xlink:href="#CMR17-65" transform="translate(881.748846 0)scale(0.996264)"/>
      <use xlink:href="#CMR17-72" transform="translate(922.234507 0)scale(0.996264)"/>
      <use xlink:href="#CMR17-67" transform="translate(957.515275 0)scale(0.996264)"/>
      <use xlink:href="#CMR17-73" transform="translate(1003.205752 0)scale(0.996264)"/>
     </g>
    </g>
    <g id="patch_10">
     <path d="M 317.509026 125.405608 
L 341.509026 125.405608 
L 341.509026 117.005608 
L 317.509026 117.005608 
z
" style="fill: #f57d15; fill-opacity: 0.25; stroke: #f57d15; stroke-linejoin: miter"/>
    </g>
    <g id="text_19">
     <!-- $L = L^{\mathrm{true}}$ -->
     <g transform="translate(351.109026 125.405608)scale(0.12 -0.12)">
      <defs>
       <path id="CMR17-3d" d="M 4115 2048 
C 4211 2048 4307 2048 4307 2156 
C 4307 2272 4198 2272 4090 2272 
L 512 2272 
C 403 2272 294 2272 294 2156 
C 294 2048 390 2048 486 2048 
L 4115 2048 
z
M 4090 927 
C 4198 927 4307 927 4307 1043 
C 4307 1152 4211 1152 4115 1152 
L 486 1152 
C 390 1152 294 1152 294 1043 
C 294 927 403 927 512 927 
L 4090 927 
z
" transform="scale(0.015625)"/>
      </defs>
      <use xlink:href="#CMMI12-4c" transform="scale(0.996264)"/>
      <use xlink:href="#CMR17-3d" transform="translate(94.044884 0)scale(0.996264)"/>
      <use xlink:href="#CMMI12-4c" transform="translate(193.433681 0)scale(0.996264)"/>
      <use xlink:href="#CMR17-74" transform="translate(259.804557 36.153639)scale(0.697382)"/>
      <use xlink:href="#CMR17-72" transform="translate(284.500977 36.153639)scale(0.697382)"/>
      <use xlink:href="#CMR17-75" transform="translate(309.197398 36.153639)scale(0.697382)"/>
      <use xlink:href="#CMR17-65" transform="translate(344.824006 36.153639)scale(0.697382)"/>
     </g>
    </g>
   </g>
  </g>
 </g>
 <defs>
  <clipPath id="p7c50eefc05">
   <rect x="45.555547" y="51.517026" width="446.4" height="332.64"/>
  </clipPath>
 </defs>
</svg>
