<?xml version="1.0" encoding="utf-8" standalone="no"?>
<!DOCTYPE svg PUBLIC "-//W3C//DTD SVG 1.1//EN"
  "http://www.w3.org/Graphics/SVG/1.1/DTD/svg11.dtd">
<svg xmlns:xlink="http://www.w3.org/1999/xlink" width="505.008537pt" height="426.931498pt" viewBox="0 0 505.008537 426.931498" xmlns="http://www.w3.org/2000/svg" version="1.1">
 <metadata>
  <rdf:RDF xmlns:dc="http://purl.org/dc/elements/1.1/" xmlns:cc="http://creativecommons.org/ns#" xmlns:rdf="http://www.w3.org/1999/02/22-rdf-syntax-ns#">
   <cc:Work>
    <dc:type rdf:resource="http://purl.org/dc/dcmitype/StillImage"/>
    <dc:date>2023-07-26T15:06:40.017852</dc:date>
    <dc:format>image/svg+xml</dc:format>
    <dc:creator>
     <cc:Agent>
      <dc:title>Matplotlib v3.5.2, https://matplotlib.org/</dc:title>
     </cc:Agent>
    </dc:creator>
   </cc:Work>
  </rdf:RDF>
 </metadata>
 <defs>
  <style type="text/css">*{stroke-linejoin: round; stroke-linecap: butt}</style>
 </defs>
 <g id="figure_1">
  <g id="patch_1">
   <path d="M 0 426.931498 
L 505.008537 426.931498 
L 505.008537 0 
L 0 0 
z
" style="fill: #ffffff"/>
  </g>
  <g id="axes_1">
   <g id="patch_2">
    <path d="M 45.555547 384.157026 
L 491.955547 384.157026 
L 491.955547 51.517026 
L 45.555547 51.517026 
z
" style="fill: #ffffff"/>
   </g>
   <g id="PolyCollection_1">
    <defs>
     <path id="m386c09efe5" d="M 173.852443 -42.775035 
L 173.852443 -42.774472 
L 174.928948 -42.774472 
L 176.005453 -42.774472 
L 177.081959 -42.774472 
L 178.158464 -42.774472 
L 179.23497 -42.774472 
L 180.311475 -42.774472 
L 181.38798 -42.774472 
L 182.464486 -42.774472 
L 183.540991 -42.774472 
L 184.617496 -42.774472 
L 185.694002 -42.774472 
L 186.770507 -42.774472 
L 187.847012 -42.774472 
L 188.923518 -42.774472 
L 190.000023 -42.774472 
L 191.076529 -42.774472 
L 192.153034 -42.774472 
L 193.229539 -42.774472 
L 194.306045 -42.774472 
L 195.38255 -42.774472 
L 196.459055 -42.774472 
L 197.535561 -42.774472 
L 198.612066 -42.774472 
L 199.688571 -42.774472 
L 200.765077 -42.774472 
L 201.841582 -42.774472 
L 202.918088 -42.774472 
L 203.994593 -42.774472 
L 205.071098 -42.774472 
L 206.147604 -42.774472 
L 207.224109 -42.774472 
L 208.300614 -42.774472 
L 209.37712 -42.774472 
L 210.453625 -42.774472 
L 211.53013 -42.774472 
L 212.606636 -42.774472 
L 213.683141 -42.774472 
L 214.759647 -42.774472 
L 215.836152 -42.774472 
L 216.912657 -42.774472 
L 217.989163 -42.774472 
L 219.065668 -42.774472 
L 220.142173 -42.774472 
L 221.218679 -42.774472 
L 222.295184 -42.774472 
L 223.371689 -42.774472 
L 224.448195 -42.774472 
L 225.5247 -42.774472 
L 226.601206 -42.774472 
L 227.677711 -42.774472 
L 228.754216 -42.774472 
L 229.830722 -42.774472 
L 230.907227 -42.774472 
L 231.983732 -42.774472 
L 233.060238 -42.774472 
L 234.136743 -42.774472 
L 235.213248 -42.774472 
L 236.289754 -42.774472 
L 237.366259 -42.774472 
L 238.442765 -42.774472 
L 239.51927 -42.774472 
L 240.595775 -42.774472 
L 241.672281 -42.774472 
L 242.748786 -42.774472 
L 243.825291 -42.774472 
L 244.901797 -42.774472 
L 245.978302 -42.774472 
L 247.054807 -42.774472 
L 248.131313 -42.774472 
L 249.207818 -42.774472 
L 250.284324 -42.774472 
L 251.360829 -42.774472 
L 252.437334 -42.774472 
L 253.51384 -42.774472 
L 254.590345 -42.774472 
L 255.66685 -42.774472 
L 256.743356 -42.774472 
L 257.819861 -42.774472 
L 258.896366 -42.774472 
L 259.972872 -42.774472 
L 261.049377 -42.774472 
L 262.125883 -42.774472 
L 263.202388 -42.774472 
L 264.278893 -42.774472 
L 265.355399 -42.774472 
L 266.431904 -42.774472 
L 267.508409 -42.774472 
L 268.584915 -42.774472 
L 269.66142 -42.774472 
L 270.737925 -42.774472 
L 271.814431 -42.774472 
L 272.890936 -42.774472 
L 273.967442 -42.774472 
L 275.043947 -42.774472 
L 276.120452 -42.774472 
L 277.196958 -42.774472 
L 278.273463 -42.774472 
L 279.349968 -42.774472 
L 280.426474 -42.774472 
L 281.502979 -42.774472 
L 282.579484 -42.774472 
L 283.65599 -42.774472 
L 284.732495 -42.774472 
L 285.809001 -42.774472 
L 286.885506 -42.774472 
L 287.962011 -42.774472 
L 289.038517 -42.774472 
L 290.115022 -42.774472 
L 291.191527 -42.774472 
L 292.268033 -42.774472 
L 293.344538 -42.774472 
L 294.421043 -42.774472 
L 295.497549 -42.774472 
L 296.574054 -42.774472 
L 297.65056 -42.774472 
L 298.727065 -42.774472 
L 299.80357 -42.774472 
L 300.880076 -42.774472 
L 301.956581 -42.774472 
L 303.033086 -42.774472 
L 304.109592 -42.774472 
L 305.186097 -42.774472 
L 306.262602 -42.774472 
L 307.339108 -42.774472 
L 308.415613 -42.774472 
L 309.492119 -42.774472 
L 310.568624 -42.774472 
L 311.645129 -42.774472 
L 312.721635 -42.774472 
L 313.79814 -42.774472 
L 314.874645 -42.774472 
L 315.951151 -42.774472 
L 317.027656 -42.774472 
L 318.104161 -42.774472 
L 319.180667 -42.774472 
L 320.257172 -42.774472 
L 321.333678 -42.774472 
L 322.410183 -42.774472 
L 323.486688 -42.774472 
L 324.563194 -42.774472 
L 325.639699 -42.774472 
L 326.716204 -42.774472 
L 327.79271 -42.774472 
L 328.869215 -42.774472 
L 329.94572 -42.774472 
L 331.022226 -42.774472 
L 332.098731 -42.774472 
L 333.175237 -42.774472 
L 334.251742 -42.774472 
L 335.328247 -42.774472 
L 336.404753 -42.774472 
L 337.481258 -42.774472 
L 338.557763 -42.774472 
L 339.634269 -42.774472 
L 340.710774 -42.774472 
L 341.787279 -42.774472 
L 342.863785 -42.774472 
L 343.94029 -42.774472 
L 345.016796 -42.774472 
L 346.093301 -42.774472 
L 347.169806 -42.774472 
L 348.246312 -42.774472 
L 349.322817 -42.774472 
L 350.399322 -42.774472 
L 351.475828 -42.774472 
L 352.552333 -42.774472 
L 353.628838 -42.774472 
L 354.705344 -42.774472 
L 355.781849 -42.774472 
L 356.858355 -42.774472 
L 357.93486 -42.774472 
L 359.011365 -42.774472 
L 360.087871 -42.774472 
L 361.164376 -42.774472 
L 362.240881 -42.774472 
L 363.317387 -42.774472 
L 364.393892 -42.774472 
L 365.470397 -42.774472 
L 366.546903 -42.774472 
L 367.623408 -42.774472 
L 368.699914 -42.774472 
L 369.776419 -42.774472 
L 370.852924 -42.774472 
L 371.92943 -42.774472 
L 373.005935 -42.774472 
L 374.08244 -42.774472 
L 375.158946 -42.774472 
L 376.235451 -42.774472 
L 377.311956 -42.774472 
L 378.388462 -42.774472 
L 379.464967 -42.774472 
L 380.541473 -42.774472 
L 381.617978 -42.774472 
L 382.694483 -42.774472 
L 383.770989 -42.774472 
L 384.847494 -42.774472 
L 385.923999 -42.774472 
L 387.000505 -42.774472 
L 388.07701 -42.774472 
L 388.07701 -42.775039 
L 388.07701 -42.775039 
L 387.000505 -42.776302 
L 385.923999 -42.779494 
L 384.847494 -42.786216 
L 383.770989 -42.797929 
L 382.694483 -42.81464 
L 381.617978 -42.833835 
L 380.541473 -42.851072 
L 379.464967 -42.862534 
L 378.388462 -42.86783 
L 377.311956 -42.870806 
L 376.235451 -42.87802 
L 375.158946 -42.896414 
L 374.08244 -42.931513 
L 373.005935 -42.986279 
L 371.92943 -43.060573 
L 370.852924 -43.151761 
L 369.776419 -43.257015 
L 368.699914 -43.376804 
L 367.623408 -43.517112 
L 366.546903 -43.686859 
L 365.470397 -43.889586 
L 364.393892 -44.115284 
L 363.317387 -44.342254 
L 362.240881 -44.552293 
L 361.164376 -44.749087 
L 360.087871 -44.964057 
L 359.011365 -45.243066 
L 357.93486 -45.621441 
L 356.858355 -46.102458 
L 355.781849 -46.653679 
L 354.705344 -47.226977 
L 353.628838 -47.791411 
L 352.552333 -48.353538 
L 351.475828 -48.945795 
L 350.399322 -49.591893 
L 349.322817 -50.281268 
L 348.246312 -50.975733 
L 347.169806 -51.640661 
L 346.093301 -52.274463 
L 345.016796 -52.917554 
L 343.94029 -53.639588 
L 342.863785 -54.514986 
L 341.787279 -55.598578 
L 340.710774 -56.908015 
L 339.634269 -58.414043 
L 338.557763 -60.041633 
L 337.481258 -61.689722 
L 336.404753 -63.26972 
L 335.328247 -64.742631 
L 334.251742 -66.127064 
L 333.175237 -67.473835 
L 332.098731 -68.833747 
L 331.022226 -70.244708 
L 329.94572 -71.734398 
L 328.869215 -73.315583 
L 327.79271 -74.96685 
L 326.716204 -76.621551 
L 325.639699 -78.192945 
L 324.563194 -79.629662 
L 323.486688 -80.957076 
L 322.410183 -82.266606 
L 321.333678 -83.663692 
L 320.257172 -85.217722 
L 319.180667 -86.93992 
L 318.104161 -88.782508 
L 317.027656 -90.649457 
L 315.951151 -92.427325 
L 314.874645 -94.041352 
L 313.79814 -95.50669 
L 312.721635 -96.92426 
L 311.645129 -98.410769 
L 310.568624 -100.02123 
L 309.492119 -101.73348 
L 308.415613 -103.494429 
L 307.339108 -105.26133 
L 306.262602 -106.993008 
L 305.186097 -108.624765 
L 304.109592 -110.090271 
L 303.033086 -111.390805 
L 301.956581 -112.633599 
L 300.880076 -113.969484 
L 299.80357 -115.461928 
L 298.727065 -117.01214 
L 297.65056 -118.436927 
L 296.574054 -119.649987 
L 295.497549 -120.77554 
L 294.421043 -122.070217 
L 293.344538 -123.713959 
L 292.268033 -125.659481 
L 291.191527 -127.66465 
L 290.115022 -129.452881 
L 289.038517 -130.853109 
L 287.962011 -131.842113 
L 286.885506 -132.524362 
L 285.809001 -133.097344 
L 284.732495 -133.793282 
L 283.65599 -134.784391 
L 282.579484 -136.100506 
L 281.502979 -137.627382 
L 280.426474 -139.186148 
L 279.349968 -140.628134 
L 278.273463 -141.890974 
L 277.196958 -143.006208 
L 276.120452 -144.063282 
L 275.043947 -145.146225 
L 273.967442 -146.291741 
L 272.890936 -147.509954 
L 271.814431 -148.833888 
L 270.737925 -150.318863 
L 269.66142 -151.977937 
L 268.584915 -153.730174 
L 267.508409 -155.428146 
L 266.431904 -156.941918 
L 265.355399 -158.231632 
L 264.278893 -159.372668 
L 263.202388 -160.530459 
L 262.125883 -161.882613 
L 261.049377 -163.506648 
L 259.972872 -165.304838 
L 258.896366 -167.041187 
L 257.819861 -168.478318 
L 256.743356 -169.515342 
L 255.66685 -170.238374 
L 254.590345 -170.870586 
L 253.51384 -171.661095 
L 252.437334 -172.767279 
L 251.360829 -174.187794 
L 250.284324 -175.777998 
L 249.207818 -177.322604 
L 248.131313 -178.613247 
L 247.054807 -179.511667 
L 245.978302 -180.001297 
L 244.901797 -180.192869 
L 243.825291 -180.23678 
L 242.748786 -180.184241 
L 241.672281 -179.93144 
L 240.595775 -179.320321 
L 239.51927 -178.30055 
L 238.442765 -176.989551 
L 237.366259 -175.58288 
L 236.289754 -174.212834 
L 235.213248 -172.864261 
L 234.136743 -171.36704 
L 233.060238 -169.44096 
L 231.983732 -166.797311 
L 230.907227 -163.289166 
L 229.830722 -159.018925 
L 228.754216 -154.292958 
L 227.677711 -149.440144 
L 226.601206 -144.64654 
L 225.5247 -139.930381 
L 224.448195 -135.230704 
L 223.371689 -130.496323 
L 222.295184 -125.715584 
L 221.218679 -120.913238 
L 220.142173 -116.145569 
L 219.065668 -111.479616 
L 217.989163 -106.944718 
L 216.912657 -102.497368 
L 215.836152 -98.051085 
L 214.759647 -93.555829 
L 213.683141 -89.049857 
L 212.606636 -84.634223 
L 211.53013 -80.40263 
L 210.453625 -76.398327 
L 209.37712 -72.62976 
L 208.300614 -69.112833 
L 207.224109 -65.887006 
L 206.147604 -62.987433 
L 205.071098 -60.404557 
L 203.994593 -58.076124 
L 202.918088 -55.92405 
L 201.841582 -53.906001 
L 200.765077 -52.039233 
L 199.688571 -50.37887 
L 198.612066 -48.970545 
L 197.535561 -47.816136 
L 196.459055 -46.875575 
L 195.38255 -46.094585 
L 194.306045 -45.431746 
L 193.229539 -44.868698 
L 192.153034 -44.40421 
L 191.076529 -44.040086 
L 190.000023 -43.768225 
L 188.923518 -43.567697 
L 187.847012 -43.413442 
L 186.770507 -43.287574 
L 185.694002 -43.182639 
L 184.617496 -43.096255 
L 183.540991 -43.025151 
L 182.464486 -42.964537 
L 181.38798 -42.911159 
L 180.311475 -42.865164 
L 179.23497 -42.82872 
L 178.158464 -42.803233 
L 177.081959 -42.787829 
L 176.005453 -42.779862 
L 174.928948 -42.77635 
L 173.852443 -42.775035 
z
" style="stroke: #280b53"/>
    </defs>
    <g clip-path="url(#p1d70397eb5)">
     <use xlink:href="#m386c09efe5" x="0" y="426.931498" style="fill: #280b53; fill-opacity: 0.25; stroke: #280b53"/>
    </g>
   </g>
   <g id="PolyCollection_2">
    <defs>
     <path id="m25b9a8dafa" d="M 46.305869 -42.775007 
L 46.305869 -42.774472 
L 48.142786 -42.774472 
L 49.979703 -42.774472 
L 51.81662 -42.774472 
L 53.653537 -42.774472 
L 55.490454 -42.774472 
L 57.327371 -42.774472 
L 59.164288 -42.774472 
L 61.001205 -42.774472 
L 62.838122 -42.774472 
L 64.675039 -42.774472 
L 66.511956 -42.774472 
L 68.348873 -42.774472 
L 70.18579 -42.774472 
L 72.022707 -42.774472 
L 73.859625 -42.774472 
L 75.696542 -42.774472 
L 77.533459 -42.774472 
L 79.370376 -42.774472 
L 81.207293 -42.774472 
L 83.04421 -42.774472 
L 84.881127 -42.774472 
L 86.718044 -42.774472 
L 88.554961 -42.774472 
L 90.391878 -42.774472 
L 92.228795 -42.774472 
L 94.065712 -42.774472 
L 95.902629 -42.774472 
L 97.739546 -42.774472 
L 99.576463 -42.774472 
L 101.41338 -42.774472 
L 103.250297 -42.774472 
L 105.087214 -42.774472 
L 106.924131 -42.774472 
L 108.761048 -42.774472 
L 110.597965 -42.774472 
L 112.434882 -42.774472 
L 114.271799 -42.774472 
L 116.108716 -42.774472 
L 117.945633 -42.774472 
L 119.78255 -42.774472 
L 121.619467 -42.774472 
L 123.456384 -42.774472 
L 125.293301 -42.774472 
L 127.130218 -42.774472 
L 128.967135 -42.774472 
L 130.804052 -42.774472 
L 132.640969 -42.774472 
L 134.477886 -42.774472 
L 136.314803 -42.774472 
L 138.15172 -42.774472 
L 139.988637 -42.774472 
L 141.825555 -42.774472 
L 143.662472 -42.774472 
L 145.499389 -42.774472 
L 147.336306 -42.774472 
L 149.173223 -42.774472 
L 151.01014 -42.774472 
L 152.847057 -42.774472 
L 154.683974 -42.774472 
L 156.520891 -42.774472 
L 158.357808 -42.774472 
L 160.194725 -42.774472 
L 162.031642 -42.774472 
L 163.868559 -42.774472 
L 165.705476 -42.774472 
L 167.542393 -42.774472 
L 169.37931 -42.774472 
L 171.216227 -42.774472 
L 173.053144 -42.774472 
L 174.890061 -42.774472 
L 176.726978 -42.774472 
L 178.563895 -42.774472 
L 180.400812 -42.774472 
L 182.237729 -42.774472 
L 184.074646 -42.774472 
L 185.911563 -42.774472 
L 187.74848 -42.774472 
L 189.585397 -42.774472 
L 191.422314 -42.774472 
L 193.259231 -42.774472 
L 195.096148 -42.774472 
L 196.933065 -42.774472 
L 198.769982 -42.774472 
L 200.606899 -42.774472 
L 202.443816 -42.774472 
L 204.280733 -42.774472 
L 206.11765 -42.774472 
L 207.954567 -42.774472 
L 209.791485 -42.774472 
L 211.628402 -42.774472 
L 213.465319 -42.774472 
L 215.302236 -42.774472 
L 217.139153 -42.774472 
L 218.97607 -42.774472 
L 220.812987 -42.774472 
L 222.649904 -42.774472 
L 224.486821 -42.774472 
L 226.323738 -42.774472 
L 228.160655 -42.774472 
L 229.997572 -42.774472 
L 231.834489 -42.774472 
L 233.671406 -42.774472 
L 235.508323 -42.774472 
L 237.34524 -42.774472 
L 239.182157 -42.774472 
L 241.019074 -42.774472 
L 242.855991 -42.774472 
L 244.692908 -42.774472 
L 246.529825 -42.774472 
L 248.366742 -42.774472 
L 250.203659 -42.774472 
L 252.040576 -42.774472 
L 253.877493 -42.774472 
L 255.71441 -42.774472 
L 257.551327 -42.774472 
L 259.388244 -42.774472 
L 261.225161 -42.774472 
L 263.062078 -42.774472 
L 264.898995 -42.774472 
L 266.735912 -42.774472 
L 268.572829 -42.774472 
L 270.409746 -42.774472 
L 272.246663 -42.774472 
L 274.08358 -42.774472 
L 275.920498 -42.774472 
L 277.757415 -42.774472 
L 279.594332 -42.774472 
L 281.431249 -42.774472 
L 283.268166 -42.774472 
L 285.105083 -42.774472 
L 286.942 -42.774472 
L 288.778917 -42.774472 
L 290.615834 -42.774472 
L 292.452751 -42.774472 
L 294.289668 -42.774472 
L 296.126585 -42.774472 
L 297.963502 -42.774472 
L 299.800419 -42.774472 
L 301.637336 -42.774472 
L 303.474253 -42.774472 
L 305.31117 -42.774472 
L 307.148087 -42.774472 
L 308.985004 -42.774472 
L 310.821921 -42.774472 
L 312.658838 -42.774472 
L 314.495755 -42.774472 
L 316.332672 -42.774472 
L 318.169589 -42.774472 
L 320.006506 -42.774472 
L 321.843423 -42.774472 
L 323.68034 -42.774472 
L 325.517257 -42.774472 
L 327.354174 -42.774472 
L 329.191091 -42.774472 
L 331.028008 -42.774472 
L 332.864925 -42.774472 
L 334.701842 -42.774472 
L 336.538759 -42.774472 
L 338.375676 -42.774472 
L 340.212593 -42.774472 
L 342.04951 -42.774472 
L 343.886428 -42.774472 
L 345.723345 -42.774472 
L 347.560262 -42.774472 
L 349.397179 -42.774472 
L 351.234096 -42.774472 
L 353.071013 -42.774472 
L 354.90793 -42.774472 
L 356.744847 -42.774472 
L 358.581764 -42.774472 
L 360.418681 -42.774472 
L 362.255598 -42.774472 
L 364.092515 -42.774472 
L 365.929432 -42.774472 
L 367.766349 -42.774472 
L 369.603266 -42.774472 
L 371.440183 -42.774472 
L 373.2771 -42.774472 
L 375.114017 -42.774472 
L 376.950934 -42.774472 
L 378.787851 -42.774472 
L 380.624768 -42.774472 
L 382.461685 -42.774472 
L 384.298602 -42.774472 
L 386.135519 -42.774472 
L 387.972436 -42.774472 
L 389.809353 -42.774472 
L 391.64627 -42.774472 
L 393.483187 -42.774472 
L 395.320104 -42.774472 
L 397.157021 -42.774472 
L 398.993938 -42.774472 
L 400.830855 -42.774472 
L 402.667772 -42.774472 
L 404.504689 -42.774472 
L 406.341606 -42.774472 
L 408.178523 -42.774472 
L 410.01544 -42.774472 
L 411.852358 -42.774472 
L 411.852358 -42.774789 
L 411.852358 -42.774789 
L 410.01544 -42.775982 
L 408.178523 -42.779674 
L 406.341606 -42.787551 
L 404.504689 -42.79892 
L 402.667772 -42.809821 
L 400.830855 -42.817063 
L 398.993938 -42.822434 
L 397.157021 -42.832367 
L 395.320104 -42.856077 
L 393.483187 -42.900831 
L 391.64627 -42.964394 
L 389.809353 -43.036986 
L 387.972436 -43.11141 
L 386.135519 -43.182354 
L 384.298602 -43.240766 
L 382.461685 -43.289865 
L 380.624768 -43.363644 
L 378.787851 -43.499351 
L 376.950934 -43.694551 
L 375.114017 -43.923534 
L 373.2771 -44.183427 
L 371.440183 -44.490733 
L 369.603266 -44.854405 
L 367.766349 -45.27853 
L 365.929432 -45.757878 
L 364.092515 -46.264475 
L 362.255598 -46.785623 
L 360.418681 -47.35243 
L 358.581764 -47.988889 
L 356.744847 -48.678916 
L 354.90793 -49.407036 
L 353.071013 -50.199636 
L 351.234096 -51.120092 
L 349.397179 -52.217788 
L 347.560262 -53.494684 
L 345.723345 -54.975782 
L 343.886428 -56.788737 
L 342.04951 -59.075049 
L 340.212593 -61.794829 
L 338.375676 -64.644226 
L 336.538759 -67.202016 
L 334.701842 -69.240071 
L 332.864925 -70.9143 
L 331.028008 -72.628653 
L 329.191091 -74.766576 
L 327.354174 -77.534724 
L 325.517257 -80.91171 
L 323.68034 -84.692728 
L 321.843423 -88.652693 
L 320.006506 -92.658776 
L 318.169589 -96.628765 
L 316.332672 -100.525908 
L 314.495755 -104.375997 
L 312.658838 -108.118904 
L 310.821921 -111.57393 
L 308.985004 -114.753169 
L 307.148087 -118.027168 
L 305.31117 -121.715309 
L 303.474253 -125.612999 
L 301.637336 -129.17554 
L 299.800419 -132.134288 
L 297.963502 -134.792378 
L 296.126585 -137.708088 
L 294.289668 -141.102802 
L 292.452751 -144.649654 
L 290.615834 -147.843106 
L 288.778917 -150.433015 
L 286.942 -152.561959 
L 285.105083 -154.643198 
L 283.268166 -156.98905 
L 281.431249 -159.438204 
L 279.594332 -161.482797 
L 277.757415 -162.75462 
L 275.920498 -163.197033 
L 274.08358 -162.938069 
L 272.246663 -162.30314 
L 270.409746 -161.737467 
L 268.572829 -161.40982 
L 266.735912 -161.050372 
L 264.898995 -160.346383 
L 263.062078 -159.362542 
L 261.225161 -158.348924 
L 259.388244 -157.147704 
L 257.551327 -155.215118 
L 255.71441 -152.371772 
L 253.877493 -149.110124 
L 252.040576 -146.094973 
L 250.203659 -143.616143 
L 248.366742 -141.411413 
L 246.529825 -138.889302 
L 244.692908 -135.684469 
L 242.855991 -132.029149 
L 241.019074 -128.393558 
L 239.182157 -124.81885 
L 237.34524 -120.944785 
L 235.508323 -116.691992 
L 233.671406 -112.506372 
L 231.834489 -108.813179 
L 229.997572 -105.612702 
L 228.160655 -102.739957 
L 226.323738 -100.093251 
L 224.486821 -97.496366 
L 222.649904 -94.755082 
L 220.812987 -91.956191 
L 218.97607 -89.455289 
L 217.139153 -87.526008 
L 215.302236 -86.050552 
L 213.465319 -84.497944 
L 211.628402 -82.332019 
L 209.791485 -79.537583 
L 207.954567 -76.610109 
L 206.11765 -74.019758 
L 204.280733 -71.840443 
L 202.443816 -69.887439 
L 200.606899 -68.042705 
L 198.769982 -66.361159 
L 196.933065 -64.927894 
L 195.096148 -63.718801 
L 193.259231 -62.623871 
L 191.422314 -61.541395 
L 189.585397 -60.392582 
L 187.74848 -59.100134 
L 185.911563 -57.665745 
L 184.074646 -56.259038 
L 182.237729 -55.125793 
L 180.400812 -54.356881 
L 178.563895 -53.779924 
L 176.726978 -53.132172 
L 174.890061 -52.32025 
L 173.053144 -51.452324 
L 171.216227 -50.664267 
L 169.37931 -50.020131 
L 167.542393 -49.538947 
L 165.705476 -49.180746 
L 163.868559 -48.820708 
L 162.031642 -48.346241 
L 160.194725 -47.774382 
L 158.357808 -47.220069 
L 156.520891 -46.774907 
L 154.683974 -46.456833 
L 152.847057 -46.237727 
L 151.01014 -46.056971 
L 149.173223 -45.834219 
L 147.336306 -45.531304 
L 145.499389 -45.197031 
L 143.662472 -44.926231 
L 141.825555 -44.785984 
L 139.988637 -44.777844 
L 138.15172 -44.833853 
L 136.314803 -44.852635 
L 134.477886 -44.77676 
L 132.640969 -44.62987 
L 130.804052 -44.468948 
L 128.967135 -44.326551 
L 127.130218 -44.206903 
L 125.293301 -44.10856 
L 123.456384 -44.022385 
L 121.619467 -43.916961 
L 119.78255 -43.76613 
L 117.945633 -43.594622 
L 116.108716 -43.460707 
L 114.271799 -43.392693 
L 112.434882 -43.367716 
L 110.597965 -43.346931 
L 108.761048 -43.311524 
L 106.924131 -43.269935 
L 105.087214 -43.241933 
L 103.250297 -43.233956 
L 101.41338 -43.233592 
L 99.576463 -43.22847 
L 97.739546 -43.215648 
L 95.902629 -43.193051 
L 94.065712 -43.157161 
L 92.228795 -43.107864 
L 90.391878 -43.050075 
L 88.554961 -42.995779 
L 86.718044 -42.959937 
L 84.881127 -42.946262 
L 83.04421 -42.942695 
L 81.207293 -42.936034 
L 79.370376 -42.927637 
L 77.533459 -42.929629 
L 75.696542 -42.945588 
L 73.859625 -42.961847 
L 72.022707 -42.960545 
L 70.18579 -42.937145 
L 68.348873 -42.90264 
L 66.511956 -42.870409 
L 64.675039 -42.845526 
L 62.838122 -42.827898 
L 61.001205 -42.819815 
L 59.164288 -42.823522 
L 57.327371 -42.831997 
L 55.490454 -42.831511 
L 53.653537 -42.817139 
L 51.81662 -42.797749 
L 49.979703 -42.783651 
L 48.142786 -42.777082 
L 46.305869 -42.775007 
z
" style="stroke: #9f2a63"/>
    </defs>
    <g clip-path="url(#p1d70397eb5)">
     <use xlink:href="#m25b9a8dafa" x="0" y="426.931498" style="fill: #9f2a63; fill-opacity: 0.25; stroke: #9f2a63"/>
    </g>
   </g>
   <g id="PolyCollection_3">
    <defs>
     <path id="m2c4817b656" d="M 233.934475 -42.775645 
L 233.934475 -42.774472 
L 234.301691 -42.774472 
L 234.668906 -42.774472 
L 235.036122 -42.774472 
L 235.403337 -42.774472 
L 235.770553 -42.774472 
L 236.137768 -42.774472 
L 236.504984 -42.774472 
L 236.872199 -42.774472 
L 237.239415 -42.774472 
L 237.60663 -42.774472 
L 237.973846 -42.774472 
L 238.341061 -42.774472 
L 238.708277 -42.774472 
L 239.075492 -42.774472 
L 239.442708 -42.774472 
L 239.809923 -42.774472 
L 240.177139 -42.774472 
L 240.544354 -42.774472 
L 240.91157 -42.774472 
L 241.278785 -42.774472 
L 241.646001 -42.774472 
L 242.013216 -42.774472 
L 242.380432 -42.774472 
L 242.747647 -42.774472 
L 243.114863 -42.774472 
L 243.482078 -42.774472 
L 243.849294 -42.774472 
L 244.216509 -42.774472 
L 244.583725 -42.774472 
L 244.95094 -42.774472 
L 245.318156 -42.774472 
L 245.685371 -42.774472 
L 246.052587 -42.774472 
L 246.419802 -42.774472 
L 246.787018 -42.774472 
L 247.154233 -42.774472 
L 247.521449 -42.774472 
L 247.888664 -42.774472 
L 248.25588 -42.774472 
L 248.623095 -42.774472 
L 248.990311 -42.774472 
L 249.357526 -42.774472 
L 249.724742 -42.774472 
L 250.091957 -42.774472 
L 250.459173 -42.774472 
L 250.826388 -42.774472 
L 251.193604 -42.774472 
L 251.560819 -42.774472 
L 251.928035 -42.774472 
L 252.29525 -42.774472 
L 252.662466 -42.774472 
L 253.029681 -42.774472 
L 253.396897 -42.774472 
L 253.764112 -42.774472 
L 254.131328 -42.774472 
L 254.498543 -42.774472 
L 254.865759 -42.774472 
L 255.232974 -42.774472 
L 255.60019 -42.774472 
L 255.967405 -42.774472 
L 256.334621 -42.774472 
L 256.701836 -42.774472 
L 257.069052 -42.774472 
L 257.436268 -42.774472 
L 257.803483 -42.774472 
L 258.170699 -42.774472 
L 258.537914 -42.774472 
L 258.90513 -42.774472 
L 259.272345 -42.774472 
L 259.639561 -42.774472 
L 260.006776 -42.774472 
L 260.373992 -42.774472 
L 260.741207 -42.774472 
L 261.108423 -42.774472 
L 261.475638 -42.774472 
L 261.842854 -42.774472 
L 262.210069 -42.774472 
L 262.577285 -42.774472 
L 262.9445 -42.774472 
L 263.311716 -42.774472 
L 263.678931 -42.774472 
L 264.046147 -42.774472 
L 264.413362 -42.774472 
L 264.780578 -42.774472 
L 265.147793 -42.774472 
L 265.515009 -42.774472 
L 265.882224 -42.774472 
L 266.24944 -42.774472 
L 266.616655 -42.774472 
L 266.983871 -42.774472 
L 267.351086 -42.774472 
L 267.718302 -42.774472 
L 268.085517 -42.774472 
L 268.452733 -42.774472 
L 268.819948 -42.774472 
L 269.187164 -42.774472 
L 269.554379 -42.774472 
L 269.921595 -42.774472 
L 270.28881 -42.774472 
L 270.656026 -42.774472 
L 271.023241 -42.774472 
L 271.390457 -42.774472 
L 271.757672 -42.774472 
L 272.124888 -42.774472 
L 272.492103 -42.774472 
L 272.859319 -42.774472 
L 273.226534 -42.774472 
L 273.59375 -42.774472 
L 273.960965 -42.774472 
L 274.328181 -42.774472 
L 274.695396 -42.774472 
L 275.062612 -42.774472 
L 275.429827 -42.774472 
L 275.797043 -42.774472 
L 276.164258 -42.774472 
L 276.531474 -42.774472 
L 276.898689 -42.774472 
L 277.265905 -42.774472 
L 277.63312 -42.774472 
L 278.000336 -42.774472 
L 278.367551 -42.774472 
L 278.734767 -42.774472 
L 279.101982 -42.774472 
L 279.469198 -42.774472 
L 279.836413 -42.774472 
L 280.203629 -42.774472 
L 280.570844 -42.774472 
L 280.93806 -42.774472 
L 281.305275 -42.774472 
L 281.672491 -42.774472 
L 282.039706 -42.774472 
L 282.406922 -42.774472 
L 282.774137 -42.774472 
L 283.141353 -42.774472 
L 283.508568 -42.774472 
L 283.875784 -42.774472 
L 284.242999 -42.774472 
L 284.610215 -42.774472 
L 284.97743 -42.774472 
L 285.344646 -42.774472 
L 285.711861 -42.774472 
L 286.079077 -42.774472 
L 286.446292 -42.774472 
L 286.813508 -42.774472 
L 287.180723 -42.774472 
L 287.547939 -42.774472 
L 287.915154 -42.774472 
L 288.28237 -42.774472 
L 288.649585 -42.774472 
L 289.016801 -42.774472 
L 289.384016 -42.774472 
L 289.751232 -42.774472 
L 290.118447 -42.774472 
L 290.485663 -42.774472 
L 290.852878 -42.774472 
L 291.220094 -42.774472 
L 291.587309 -42.774472 
L 291.954525 -42.774472 
L 292.32174 -42.774472 
L 292.688956 -42.774472 
L 293.056171 -42.774472 
L 293.423387 -42.774472 
L 293.790602 -42.774472 
L 294.157818 -42.774472 
L 294.525033 -42.774472 
L 294.892249 -42.774472 
L 295.259464 -42.774472 
L 295.62668 -42.774472 
L 295.993895 -42.774472 
L 296.361111 -42.774472 
L 296.728326 -42.774472 
L 297.095542 -42.774472 
L 297.462757 -42.774472 
L 297.829973 -42.774472 
L 298.197188 -42.774472 
L 298.564404 -42.774472 
L 298.931619 -42.774472 
L 299.298835 -42.774472 
L 299.66605 -42.774472 
L 300.033266 -42.774472 
L 300.400481 -42.774472 
L 300.767697 -42.774472 
L 301.134912 -42.774472 
L 301.502128 -42.774472 
L 301.869343 -42.774472 
L 302.236559 -42.774472 
L 302.603774 -42.774472 
L 302.97099 -42.774472 
L 303.338205 -42.774472 
L 303.705421 -42.774472 
L 304.072636 -42.774472 
L 304.439852 -42.774472 
L 304.807067 -42.774472 
L 305.174283 -42.774472 
L 305.541498 -42.774472 
L 305.908714 -42.774472 
L 306.275929 -42.774472 
L 306.643145 -42.774472 
L 307.01036 -42.774472 
L 307.01036 -42.776819 
L 307.01036 -42.776819 
L 306.643145 -42.781665 
L 306.275929 -42.793834 
L 305.908714 -42.820332 
L 305.541498 -42.870311 
L 305.174283 -42.951877 
L 304.807067 -43.067058 
L 304.439852 -43.208366 
L 304.072636 -43.361399 
L 303.705421 -43.514359 
L 303.338205 -43.668716 
L 302.97099 -43.842155 
L 302.603774 -44.060316 
L 302.236559 -44.344049 
L 301.869343 -44.704073 
L 301.502128 -45.148873 
L 301.134912 -45.699545 
L 300.767697 -46.397869 
L 300.400481 -47.297853 
L 300.033266 -48.443764 
L 299.66605 -49.84991 
L 299.298835 -51.498728 
L 298.931619 -53.360853 
L 298.564404 -55.423197 
L 298.197188 -57.704855 
L 297.829973 -60.25269 
L 297.462757 -63.127403 
L 297.095542 -66.396443 
L 296.728326 -70.135206 
L 296.361111 -74.419229 
L 295.993895 -79.292704 
L 295.62668 -84.724477 
L 295.259464 -90.584347 
L 294.892249 -96.665426 
L 294.525033 -102.751484 
L 294.157818 -108.708033 
L 293.790602 -114.567678 
L 293.423387 -120.569677 
L 293.056171 -127.107649 
L 292.688956 -134.573021 
L 292.32174 -143.159649 
L 291.954525 -152.751812 
L 291.587309 -162.979483 
L 291.220094 -173.406907 
L 290.852878 -183.725447 
L 290.485663 -193.832613 
L 290.118447 -203.778425 
L 289.751232 -213.656016 
L 289.384016 -223.527139 
L 289.016801 -233.405679 
L 288.649585 -243.252746 
L 288.28237 -252.946389 
L 287.915154 -262.260202 
L 287.547939 -270.91263 
L 287.180723 -278.682583 
L 286.813508 -285.511885 
L 286.446292 -291.527952 
L 286.079077 -296.988533 
L 285.711861 -302.184806 
L 285.344646 -307.334792 
L 284.97743 -312.504696 
L 284.610215 -317.600018 
L 284.242999 -322.430088 
L 283.875784 -326.797533 
L 283.508568 -330.560067 
L 283.141353 -333.650479 
L 282.774137 -336.068614 
L 282.406922 -337.862264 
L 282.039706 -339.111139 
L 281.672491 -339.917977 
L 281.305275 -340.391448 
L 280.93806 -340.607632 
L 280.570844 -340.575012 
L 280.203629 -340.250691 
L 279.836413 -339.610716 
L 279.469198 -338.706201 
L 279.101982 -337.637762 
L 278.734767 -336.470014 
L 278.367551 -335.179811 
L 278.000336 -333.693748 
L 277.63312 -331.973799 
L 277.265905 -330.079906 
L 276.898689 -328.192393 
L 276.531474 -326.607646 
L 276.164258 -325.680509 
L 275.797043 -325.677712 
L 275.429827 -326.602449 
L 275.062612 -328.138497 
L 274.695396 -329.792538 
L 274.328181 -331.139011 
L 273.960965 -331.993781 
L 273.59375 -332.432705 
L 273.226534 -332.692827 
L 272.859319 -333.0229 
L 272.492103 -333.532628 
L 272.124888 -334.111503 
L 271.757672 -334.495865 
L 271.390457 -334.462368 
L 271.023241 -333.989315 
L 270.656026 -333.236972 
L 270.28881 -332.376074 
L 269.921595 -331.439367 
L 269.554379 -330.323441 
L 269.187164 -328.90845 
L 268.819948 -327.17827 
L 268.452733 -325.265671 
L 268.085517 -323.422092 
L 267.718302 -321.939507 
L 267.351086 -321.043544 
L 266.983871 -320.781413 
L 266.616655 -320.962041 
L 266.24944 -321.225068 
L 265.882224 -321.249791 
L 265.515009 -320.975148 
L 265.147793 -320.634167 
L 264.780578 -320.541923 
L 264.413362 -320.814513 
L 264.046147 -321.269778 
L 263.678931 -321.569007 
L 263.311716 -321.425536 
L 262.9445 -320.697672 
L 262.577285 -319.369543 
L 262.210069 -317.538864 
L 261.842854 -315.442829 
L 261.475638 -313.426378 
L 261.108423 -311.798925 
L 260.741207 -310.685043 
L 260.373992 -310.016639 
L 260.006776 -309.663729 
L 259.639561 -309.552137 
L 259.272345 -309.654418 
L 258.90513 -309.89451 
L 258.537914 -310.081831 
L 258.170699 -309.933986 
L 257.803483 -309.162914 
L 257.436268 -307.568084 
L 257.069052 -305.091301 
L 256.701836 -301.811413 
L 256.334621 -297.885275 
L 255.967405 -293.462516 
L 255.60019 -288.608406 
L 255.232974 -283.272222 
L 254.865759 -277.334191 
L 254.498543 -270.721109 
L 254.131328 -263.50834 
L 253.764112 -255.908408 
L 253.396897 -248.138292 
L 253.029681 -240.275613 
L 252.662466 -232.222457 
L 252.29525 -223.789329 
L 251.928035 -214.818468 
L 251.560819 -205.26776 
L 251.193604 -195.227657 
L 250.826388 -184.878081 
L 250.459173 -174.410228 
L 250.091957 -163.95697 
L 249.724742 -153.57731 
L 249.357526 -143.3055 
L 248.990311 -133.224068 
L 248.623095 -123.496761 
L 248.25588 -114.32824 
L 247.888664 -105.880058 
L 247.521449 -98.209316 
L 247.154233 -91.271574 
L 246.787018 -84.972398 
L 246.419802 -79.222359 
L 246.052587 -73.966849 
L 245.685371 -69.190618 
L 245.318156 -64.906594 
L 244.95094 -61.135197 
L 244.583725 -57.881019 
L 244.216509 -55.11768 
L 243.849294 -52.789068 
L 243.482078 -50.825628 
L 243.114863 -49.165647 
L 242.747647 -47.769393 
L 242.380432 -46.618612 
L 242.013216 -45.702697 
L 241.646001 -45.00142 
L 241.278785 -44.476696 
L 240.91157 -44.079089 
L 240.544354 -43.763373 
L 240.177139 -43.50135 
L 239.809923 -43.284136 
L 239.442708 -43.115023 
L 239.075492 -42.9993 
L 238.708277 -42.936666 
L 238.341061 -42.918233 
L 237.973846 -42.927673 
L 237.60663 -42.945372 
L 237.239415 -42.954226 
L 236.872199 -42.944889 
L 236.504984 -42.917813 
L 236.137768 -42.880855 
L 235.770553 -42.84398 
L 235.403337 -42.8144 
L 235.036122 -42.794613 
L 234.668906 -42.783384 
L 234.301691 -42.777927 
L 233.934475 -42.775645 
z
" style="stroke: #f57d15"/>
    </defs>
    <g clip-path="url(#p1d70397eb5)">
     <use xlink:href="#m2c4817b656" x="0" y="426.931498" style="fill: #f57d15; fill-opacity: 0.25; stroke: #f57d15"/>
    </g>
   </g>
   <g id="matplotlib.axis_1">
    <g id="xtick_1">
     <g id="line2d_1">
      <defs>
       <path id="m9afd62069a" d="M 0 0 
L 0 3.5 
" style="stroke: #000000; stroke-width: 0.8"/>
      </defs>
      <g>
       <use xlink:href="#m9afd62069a" x="45.555547" y="384.157026" style="stroke: #000000; stroke-width: 0.8"/>
      </g>
     </g>
     <g id="text_1">
      <!-- $\mathdefault{0}$ -->
      <g transform="translate(42.629051 399.459206)scale(0.12 -0.12)">
       <defs>
        <path id="CMR17-30" d="M 2688 2038 
C 2688 2430 2682 3099 2413 3613 
C 2176 4063 1798 4224 1466 4224 
C 1158 4224 768 4082 525 3620 
C 269 3137 243 2539 243 2038 
C 243 1671 250 1112 448 623 
C 723 -39 1216 -128 1466 -128 
C 1760 -128 2208 -7 2470 604 
C 2662 1048 2688 1568 2688 2038 
z
M 1466 -26 
C 1056 -26 813 328 723 816 
C 653 1196 653 1749 653 2109 
C 653 2604 653 3015 736 3407 
C 858 3954 1216 4121 1466 4121 
C 1728 4121 2067 3947 2189 3420 
C 2272 3054 2278 2623 2278 2109 
C 2278 1691 2278 1176 2202 797 
C 2067 96 1690 -26 1466 -26 
z
" transform="scale(0.015625)"/>
       </defs>
       <use xlink:href="#CMR17-30" transform="scale(0.996264)"/>
      </g>
     </g>
    </g>
    <g id="xtick_2">
     <g id="line2d_2">
      <g>
       <use xlink:href="#m9afd62069a" x="134.835547" y="384.157026" style="stroke: #000000; stroke-width: 0.8"/>
      </g>
     </g>
     <g id="text_2">
      <!-- $\mathdefault{2}$ -->
      <g transform="translate(131.909051 399.459206)scale(0.12 -0.12)">
       <defs>
        <path id="CMR17-32" d="M 2669 990 
L 2554 990 
C 2490 537 2438 460 2413 422 
C 2381 371 1920 371 1830 371 
L 602 371 
C 832 620 1280 1073 1824 1596 
C 2214 1966 2669 2400 2669 3033 
C 2669 3788 2067 4224 1395 4224 
C 691 4224 262 3603 262 3027 
C 262 2777 448 2745 525 2745 
C 589 2745 781 2783 781 3007 
C 781 3206 614 3264 525 3264 
C 486 3264 448 3257 422 3244 
C 544 3788 915 4057 1306 4057 
C 1862 4057 2227 3616 2227 3033 
C 2227 2477 1901 1998 1536 1583 
L 262 147 
L 262 0 
L 2515 0 
L 2669 990 
z
" transform="scale(0.015625)"/>
       </defs>
       <use xlink:href="#CMR17-32" transform="scale(0.996264)"/>
      </g>
     </g>
    </g>
    <g id="xtick_3">
     <g id="line2d_3">
      <g>
       <use xlink:href="#m9afd62069a" x="224.115547" y="384.157026" style="stroke: #000000; stroke-width: 0.8"/>
      </g>
     </g>
     <g id="text_3">
      <!-- $\mathdefault{4}$ -->
      <g transform="translate(221.189051 399.459206)scale(0.12 -0.12)">
       <defs>
        <path id="CMR17-34" d="M 2150 4147 
C 2150 4281 2144 4288 2029 4288 
L 128 1254 
L 128 1088 
L 1779 1088 
L 1779 460 
C 1779 230 1766 166 1318 166 
L 1197 166 
L 1197 0 
C 1402 12 1747 12 1965 12 
C 2182 12 2528 12 2733 0 
L 2733 166 
L 2611 166 
C 2163 166 2150 230 2150 460 
L 2150 1088 
L 2803 1088 
L 2803 1254 
L 2150 1254 
L 2150 4147 
z
M 1798 3723 
L 1798 1254 
L 256 1254 
L 1798 3723 
z
" transform="scale(0.015625)"/>
       </defs>
       <use xlink:href="#CMR17-34" transform="scale(0.996264)"/>
      </g>
     </g>
    </g>
    <g id="xtick_4">
     <g id="line2d_4">
      <g>
       <use xlink:href="#m9afd62069a" x="313.395547" y="384.157026" style="stroke: #000000; stroke-width: 0.8"/>
      </g>
     </g>
     <g id="text_4">
      <!-- $\mathdefault{6}$ -->
      <g transform="translate(310.469051 399.459206)scale(0.12 -0.12)">
       <defs>
        <path id="CMR17-36" d="M 678 2198 
C 678 3712 1395 4076 1811 4076 
C 1946 4076 2272 4049 2400 3782 
C 2298 3782 2106 3782 2106 3558 
C 2106 3385 2246 3328 2336 3328 
C 2394 3328 2566 3353 2566 3571 
C 2566 3987 2246 4224 1805 4224 
C 1043 4224 243 3411 243 2011 
C 243 257 966 -128 1478 -128 
C 2099 -128 2688 431 2688 1295 
C 2688 2101 2170 2688 1517 2688 
C 1126 2688 838 2430 678 1979 
L 678 2198 
z
M 1478 25 
C 691 25 691 1212 691 1450 
C 691 1914 909 2585 1504 2585 
C 1613 2585 1926 2585 2138 2140 
C 2253 1889 2253 1624 2253 1302 
C 2253 954 2253 696 2118 438 
C 1978 173 1773 25 1478 25 
z
" transform="scale(0.015625)"/>
       </defs>
       <use xlink:href="#CMR17-36" transform="scale(0.996264)"/>
      </g>
     </g>
    </g>
    <g id="xtick_5">
     <g id="line2d_5">
      <g>
       <use xlink:href="#m9afd62069a" x="402.675547" y="384.157026" style="stroke: #000000; stroke-width: 0.8"/>
      </g>
     </g>
     <g id="text_5">
      <!-- $\mathdefault{8}$ -->
      <g transform="translate(399.749051 399.459206)scale(0.12 -0.12)">
       <defs>
        <path id="CMR17-38" d="M 1741 2289 
C 2144 2494 2554 2803 2554 3298 
C 2554 3884 1990 4224 1472 4224 
C 890 4224 378 3800 378 3215 
C 378 3054 416 2777 666 2533 
C 730 2469 998 2276 1171 2154 
C 883 2006 211 1652 211 945 
C 211 282 838 -128 1459 -128 
C 2144 -128 2720 366 2720 1022 
C 2720 1607 2330 1877 2074 2051 
L 1741 2289 
z
M 902 2855 
C 851 2887 595 3086 595 3388 
C 595 3781 998 4076 1459 4076 
C 1965 4076 2336 3716 2336 3298 
C 2336 2700 1670 2359 1638 2359 
C 1632 2359 1626 2359 1574 2398 
L 902 2855 
z
M 2080 1536 
C 2176 1466 2483 1253 2483 861 
C 2483 385 2010 25 1472 25 
C 890 25 448 443 448 951 
C 448 1459 838 1884 1280 2083 
L 2080 1536 
z
" transform="scale(0.015625)"/>
       </defs>
       <use xlink:href="#CMR17-38" transform="scale(0.996264)"/>
      </g>
     </g>
    </g>
    <g id="xtick_6">
     <g id="line2d_6">
      <g>
       <use xlink:href="#m9afd62069a" x="491.955547" y="384.157026" style="stroke: #000000; stroke-width: 0.8"/>
      </g>
     </g>
     <g id="text_6">
      <!-- $\mathdefault{10}$ -->
      <g transform="translate(486.102556 399.459206)scale(0.12 -0.12)">
       <defs>
        <path id="CMR17-31" d="M 1702 4083 
C 1702 4217 1696 4224 1606 4224 
C 1357 3927 979 3833 621 3820 
C 602 3820 570 3820 563 3808 
C 557 3795 557 3782 557 3648 
C 755 3648 1088 3686 1344 3839 
L 1344 467 
C 1344 243 1331 166 781 166 
L 589 166 
L 589 0 
C 896 6 1216 12 1523 12 
C 1830 12 2150 6 2458 0 
L 2458 166 
L 2266 166 
C 1715 166 1702 236 1702 467 
L 1702 4083 
z
" transform="scale(0.015625)"/>
       </defs>
       <use xlink:href="#CMR17-31" transform="scale(0.996264)"/>
       <use xlink:href="#CMR17-30" transform="translate(45.690477 0)scale(0.996264)"/>
      </g>
     </g>
    </g>
    <g id="text_7">
     <!-- Distance [kpc] -->
     <g transform="translate(226.325282 416.244574)scale(0.14 -0.14)">
      <defs>
       <path id="CMR17-44" d="M 333 4352 
L 333 4185 
C 774 4185 845 4185 845 3898 
L 845 453 
C 845 166 774 166 333 166 
L 333 0 
L 2368 0 
C 3398 0 4224 943 4224 2140 
C 4224 3344 3411 4352 2368 4352 
L 333 4352 
z
M 1523 166 
C 1267 166 1254 198 1254 414 
L 1254 3936 
C 1254 4153 1267 4185 1523 4185 
L 2240 4185 
C 2771 4185 3750 3873 3750 2140 
C 3750 1242 3488 879 3366 707 
C 3213 510 2848 166 2240 166 
L 1523 166 
z
" transform="scale(0.015625)"/>
       <path id="CMR17-69" d="M 992 3961 
C 992 4102 877 4224 730 4224 
C 589 4224 467 4108 467 3961 
C 467 3820 582 3699 730 3699 
C 870 3699 992 3814 992 3961 
z
M 243 2745 
L 243 2579 
C 602 2579 653 2540 653 2231 
L 653 443 
C 653 198 627 166 218 166 
L 218 0 
C 371 12 646 12 806 12 
C 960 12 1222 12 1370 0 
L 1370 166 
C 992 166 979 205 979 436 
L 979 2816 
L 243 2745 
z
" transform="scale(0.015625)"/>
       <path id="CMR17-73" d="M 1978 2688 
C 1978 2803 1971 2809 1933 2809 
C 1907 2809 1901 2803 1824 2707 
C 1805 2681 1747 2617 1728 2592 
C 1523 2809 1235 2816 1126 2816 
C 416 2816 160 2444 160 2073 
C 160 1497 813 1363 998 1324 
C 1402 1241 1542 1216 1677 1100 
C 1760 1024 1901 883 1901 652 
C 1901 384 1747 38 1158 38 
C 602 38 403 460 288 1024 
C 269 1113 269 1120 218 1120 
C 166 1120 160 1113 160 985 
L 160 64 
C 160 -52 166 -58 205 -58 
C 237 -58 243 -52 275 0 
C 314 57 410 211 448 275 
C 576 102 800 -64 1158 -64 
C 1792 -64 2131 281 2131 780 
C 2131 1107 1958 1280 1875 1356 
C 1683 1555 1459 1600 1190 1651 
C 838 1728 390 1817 390 2208 
C 390 2374 480 2726 1126 2726 
C 1811 2726 1850 2086 1862 1881 
C 1869 1849 1901 1843 1920 1843 
C 1978 1843 1978 1862 1978 1971 
L 1978 2688 
z
" transform="scale(0.015625)"/>
       <path id="CMR17-74" d="M 966 2585 
L 1862 2585 
L 1862 2752 
L 966 2752 
L 966 3968 
L 851 3968 
C 838 3292 614 2700 70 2687 
L 70 2585 
L 627 2585 
L 627 778 
C 627 655 627 -64 1370 -64 
C 1747 -64 1965 308 1965 784 
L 1965 1151 
L 1850 1151 
L 1850 790 
C 1850 347 1677 51 1408 51 
C 1222 51 966 179 966 765 
L 966 2585 
z
" transform="scale(0.015625)"/>
       <path id="CMR17-61" d="M 2304 1656 
C 2304 2048 2304 2275 2035 2534 
C 1798 2751 1523 2816 1306 2816 
C 800 2816 435 2408 435 1977 
C 435 1740 627 1728 666 1728 
C 749 1728 896 1779 896 1958 
C 896 2118 774 2188 666 2188 
C 640 2188 608 2182 589 2176 
C 723 2594 1069 2713 1293 2713 
C 1613 2713 1965 2421 1965 1875 
L 1965 1632 
C 1587 1619 1133 1568 774 1373 
C 371 1147 256 822 256 576 
C 256 77 832 -64 1171 -64 
C 1523 -64 1850 135 1990 505 
C 2003 219 2182 -39 2464 -39 
C 2598 -39 2938 51 2938 563 
L 2938 926 
L 2822 926 
L 2822 557 
C 2822 161 2650 109 2566 109 
C 2304 109 2304 446 2304 732 
L 2304 1656 
z
M 1965 887 
C 1965 323 1568 38 1216 38 
C 896 38 646 278 646 576 
C 646 771 730 1114 1101 1322 
C 1408 1497 1760 1523 1965 1536 
L 1965 887 
z
" transform="scale(0.015625)"/>
       <path id="CMR17-6e" d="M 2656 1954 
C 2656 2282 2592 2816 1837 2816 
C 1331 2816 1069 2424 973 2166 
L 966 2166 
L 966 2816 
L 211 2745 
L 211 2578 
C 589 2578 646 2540 646 2231 
L 646 443 
C 646 198 621 166 211 166 
L 211 0 
C 365 12 646 12 813 12 
C 979 12 1267 12 1421 0 
L 1421 166 
C 1011 166 986 192 986 443 
L 986 1678 
C 986 2269 1344 2713 1792 2713 
C 2266 2713 2317 2289 2317 1980 
L 2317 443 
C 2317 198 2291 166 1882 166 
L 1882 0 
C 2035 12 2317 12 2483 12 
C 2650 12 2938 12 3091 0 
L 3091 166 
C 2682 166 2656 192 2656 443 
L 2656 1954 
z
" transform="scale(0.015625)"/>
       <path id="CMR17-63" d="M 2234 2240 
C 2112 2240 1933 2240 1933 2015 
C 1933 1836 2080 1785 2163 1785 
C 2208 1785 2394 1804 2394 2028 
C 2394 2476 1958 2816 1466 2816 
C 787 2816 211 2201 211 1379 
C 211 521 813 -64 1466 -64 
C 2259 -64 2458 676 2458 747 
C 2458 773 2451 792 2406 792 
C 2362 792 2355 786 2330 702 
C 2163 180 1798 51 1523 51 
C 1114 51 621 431 621 1385 
C 621 2358 1094 2700 1472 2700 
C 1722 2700 2093 2582 2234 2240 
z
" transform="scale(0.015625)"/>
       <path id="CMR17-65" d="M 2438 1503 
C 2464 1529 2464 1542 2464 1606 
C 2464 2251 2118 2816 1389 2816 
C 710 2816 173 2175 173 1394 
C 173 554 781 -64 1459 -64 
C 2176 -64 2458 619 2458 755 
C 2458 800 2419 800 2406 800 
C 2362 800 2355 787 2330 709 
C 2189 270 1837 51 1504 51 
C 1229 51 954 206 781 490 
C 582 819 582 1200 582 1503 
L 2438 1503 
z
M 589 1600 
C 634 2511 1126 2713 1382 2713 
C 1818 2713 2112 2308 2118 1600 
L 589 1600 
z
" transform="scale(0.015625)"/>
       <path id="CMR17-5b" d="M 1504 -1600 
L 1504 -1376 
L 902 -1376 
L 902 4575 
L 1504 4575 
L 1504 4800 
L 678 4800 
L 678 -1600 
L 1504 -1600 
z
" transform="scale(0.015625)"/>
       <path id="CMR17-6b" d="M 1670 1679 
C 1664 1692 1632 1730 1632 1749 
C 1632 1762 2086 2175 2144 2226 
C 2509 2532 2739 2563 2906 2570 
L 2906 2735 
C 2867 2735 2854 2735 2848 2729 
L 2534 2722 
C 2355 2722 2080 2722 1907 2735 
L 1907 2570 
C 1997 2563 2061 2513 2061 2423 
C 2061 2296 1933 2175 1926 2175 
L 960 1298 
L 960 4416 
L 198 4345 
L 198 4179 
C 576 4179 634 4141 634 3835 
L 634 439 
C 634 198 608 166 198 166 
L 198 0 
C 352 12 634 12 794 12 
C 954 12 1235 12 1389 0 
L 1389 166 
C 979 166 954 191 954 439 
L 954 1139 
L 1395 1540 
L 2042 586 
C 2118 471 2182 382 2182 299 
C 2182 185 2067 166 1990 166 
L 1990 0 
C 2144 12 2419 12 2579 12 
C 2694 12 2931 6 3040 0 
L 3040 166 
C 2739 166 2669 223 2477 503 
L 1670 1679 
z
" transform="scale(0.015625)"/>
       <path id="CMR17-70" d="M 1408 -1114 
C 998 -1114 973 -1088 973 -834 
L 973 380 
C 1158 109 1427 -64 1766 -64 
C 2406 -64 3053 503 3053 1382 
C 3053 2196 2496 2816 1837 2816 
C 1453 2816 1139 2603 960 2345 
L 960 2816 
L 198 2745 
L 198 2577 
C 576 2577 634 2539 634 2228 
L 634 -834 
C 634 -1081 608 -1114 198 -1114 
L 198 -1280 
C 352 -1268 634 -1268 800 -1268 
C 966 -1268 1254 -1268 1408 -1280 
L 1408 -1114 
z
M 973 2015 
C 973 2106 973 2241 1222 2481 
C 1254 2506 1472 2700 1792 2700 
C 2259 2700 2643 2112 2643 1376 
C 2643 639 2234 38 1728 38 
C 1498 38 1248 148 1056 451 
C 973 594 973 632 973 736 
L 973 2015 
z
" transform="scale(0.015625)"/>
       <path id="CMR17-5d" d="M 915 4800 
L 90 4800 
L 90 4575 
L 691 4575 
L 691 -1376 
L 90 -1376 
L 90 -1600 
L 915 -1600 
L 915 4800 
z
" transform="scale(0.015625)"/>
      </defs>
      <use xlink:href="#CMR17-44" transform="scale(0.996264)"/>
      <use xlink:href="#CMR17-69" transform="translate(70.393556 0)scale(0.996264)"/>
      <use xlink:href="#CMR17-73" transform="translate(95.264614 0)scale(0.996264)"/>
      <use xlink:href="#CMR17-74" transform="translate(131.065952 0)scale(0.996264)"/>
      <use xlink:href="#CMR17-61" transform="translate(166.34672 0)scale(0.996264)"/>
      <use xlink:href="#CMR17-6e" transform="translate(212.037197 0)scale(0.996264)"/>
      <use xlink:href="#CMR17-63" transform="translate(262.932567 0)scale(0.996264)"/>
      <use xlink:href="#CMR17-65" transform="translate(303.418227 0)scale(0.996264)"/>
      <use xlink:href="#CMR17-5b" transform="translate(373.979854 0)scale(0.996264)"/>
      <use xlink:href="#CMR17-6b" transform="translate(398.850912 0)scale(0.996264)"/>
      <use xlink:href="#CMR17-70" transform="translate(447.143828 0)scale(0.996264)"/>
      <use xlink:href="#CMR17-63" transform="translate(500.641637 0)scale(0.996264)"/>
      <use xlink:href="#CMR17-5d" transform="translate(541.127297 0)scale(0.996264)"/>
     </g>
    </g>
   </g>
   <g id="matplotlib.axis_2">
    <g id="ytick_1">
     <g id="line2d_7">
      <defs>
       <path id="m240436f600" d="M 0 0 
L -3.5 0 
" style="stroke: #000000; stroke-width: 0.8"/>
      </defs>
      <g>
       <use xlink:href="#m240436f600" x="45.555547" y="384.157026" style="stroke: #000000; stroke-width: 0.8"/>
      </g>
     </g>
     <g id="text_8">
      <!-- $\mathdefault{0.0}$ -->
      <g transform="translate(23.597905 388.308116)scale(0.12 -0.12)">
       <defs>
        <path id="CMMI12-3a" d="M 1178 307 
C 1178 492 1024 620 870 620 
C 685 620 557 467 557 313 
C 557 128 710 0 864 0 
C 1050 0 1178 153 1178 307 
z
" transform="scale(0.015625)"/>
       </defs>
       <use xlink:href="#CMR17-30" transform="scale(0.996264)"/>
       <use xlink:href="#CMMI12-3a" transform="translate(45.690477 0)scale(0.996264)"/>
       <use xlink:href="#CMR17-30" transform="translate(72.787654 0)scale(0.996264)"/>
      </g>
     </g>
    </g>
    <g id="ytick_2">
     <g id="line2d_8">
      <g>
       <use xlink:href="#m240436f600" x="45.555547" y="332.981642" style="stroke: #000000; stroke-width: 0.8"/>
      </g>
     </g>
     <g id="text_9">
      <!-- $\mathdefault{0.2}$ -->
      <g transform="translate(23.597905 337.132732)scale(0.12 -0.12)">
       <use xlink:href="#CMR17-30" transform="scale(0.996264)"/>
       <use xlink:href="#CMMI12-3a" transform="translate(45.690477 0)scale(0.996264)"/>
       <use xlink:href="#CMR17-32" transform="translate(72.787654 0)scale(0.996264)"/>
      </g>
     </g>
    </g>
    <g id="ytick_3">
     <g id="line2d_9">
      <g>
       <use xlink:href="#m240436f600" x="45.555547" y="281.806257" style="stroke: #000000; stroke-width: 0.8"/>
      </g>
     </g>
     <g id="text_10">
      <!-- $\mathdefault{0.4}$ -->
      <g transform="translate(23.597905 285.957347)scale(0.12 -0.12)">
       <use xlink:href="#CMR17-30" transform="scale(0.996264)"/>
       <use xlink:href="#CMMI12-3a" transform="translate(45.690477 0)scale(0.996264)"/>
       <use xlink:href="#CMR17-34" transform="translate(72.787654 0)scale(0.996264)"/>
      </g>
     </g>
    </g>
    <g id="ytick_4">
     <g id="line2d_10">
      <g>
       <use xlink:href="#m240436f600" x="45.555547" y="230.630873" style="stroke: #000000; stroke-width: 0.8"/>
      </g>
     </g>
     <g id="text_11">
      <!-- $\mathdefault{0.6}$ -->
      <g transform="translate(23.597905 234.781963)scale(0.12 -0.12)">
       <use xlink:href="#CMR17-30" transform="scale(0.996264)"/>
       <use xlink:href="#CMMI12-3a" transform="translate(45.690477 0)scale(0.996264)"/>
       <use xlink:href="#CMR17-36" transform="translate(72.787654 0)scale(0.996264)"/>
      </g>
     </g>
    </g>
    <g id="ytick_5">
     <g id="line2d_11">
      <g>
       <use xlink:href="#m240436f600" x="45.555547" y="179.455488" style="stroke: #000000; stroke-width: 0.8"/>
      </g>
     </g>
     <g id="text_12">
      <!-- $\mathdefault{0.8}$ -->
      <g transform="translate(23.597905 183.606578)scale(0.12 -0.12)">
       <use xlink:href="#CMR17-30" transform="scale(0.996264)"/>
       <use xlink:href="#CMMI12-3a" transform="translate(45.690477 0)scale(0.996264)"/>
       <use xlink:href="#CMR17-38" transform="translate(72.787654 0)scale(0.996264)"/>
      </g>
     </g>
    </g>
    <g id="ytick_6">
     <g id="line2d_12">
      <g>
       <use xlink:href="#m240436f600" x="45.555547" y="128.280103" style="stroke: #000000; stroke-width: 0.8"/>
      </g>
     </g>
     <g id="text_13">
      <!-- $\mathdefault{1.0}$ -->
      <g transform="translate(23.597905 132.431193)scale(0.12 -0.12)">
       <use xlink:href="#CMR17-31" transform="scale(0.996264)"/>
       <use xlink:href="#CMMI12-3a" transform="translate(45.690477 0)scale(0.996264)"/>
       <use xlink:href="#CMR17-30" transform="translate(72.787654 0)scale(0.996264)"/>
      </g>
     </g>
    </g>
    <g id="ytick_7">
     <g id="line2d_13">
      <g>
       <use xlink:href="#m240436f600" x="45.555547" y="77.104719" style="stroke: #000000; stroke-width: 0.8"/>
      </g>
     </g>
     <g id="text_14">
      <!-- $\mathdefault{1.2}$ -->
      <g transform="translate(23.597905 81.255809)scale(0.12 -0.12)">
       <use xlink:href="#CMR17-31" transform="scale(0.996264)"/>
       <use xlink:href="#CMMI12-3a" transform="translate(45.690477 0)scale(0.996264)"/>
       <use xlink:href="#CMR17-32" transform="translate(72.787654 0)scale(0.996264)"/>
      </g>
     </g>
    </g>
    <g id="text_15">
     <!-- Probability density -->
     <g transform="translate(16.885876 274.87267)rotate(-90)scale(0.14 -0.14)">
      <defs>
       <path id="CMR17-50" d="M 1267 2048 
L 2291 2048 
C 3117 2048 3718 2583 3718 3187 
C 3718 3791 3130 4352 2291 4352 
L 333 4352 
L 333 4185 
C 774 4185 845 4185 845 3899 
L 845 453 
C 845 166 774 166 333 166 
L 333 0 
C 518 12 858 12 1056 12 
C 1254 12 1594 12 1779 0 
L 1779 166 
C 1338 166 1267 166 1267 453 
L 1267 2048 
z
M 1254 2182 
L 1254 3937 
C 1254 4153 1267 4185 1523 4185 
L 2170 4185 
C 2995 4185 3232 3715 3232 3187 
C 3232 2608 2950 2182 2170 2182 
L 1254 2182 
z
" transform="scale(0.015625)"/>
       <path id="CMR17-72" d="M 960 1517 
C 960 2134 1222 2713 1702 2713 
C 1747 2713 1792 2707 1837 2687 
C 1837 2687 1696 2642 1696 2475 
C 1696 2321 1818 2257 1914 2257 
C 1990 2257 2131 2302 2131 2482 
C 2131 2687 1926 2816 1709 2816 
C 1222 2816 1011 2340 947 2115 
L 941 2115 
L 941 2816 
L 198 2745 
L 198 2578 
C 576 2578 634 2540 634 2231 
L 634 443 
C 634 198 608 166 198 166 
L 198 0 
C 352 12 646 12 813 12 
C 998 12 1325 12 1498 0 
L 1498 166 
C 1037 166 960 166 960 455 
L 960 1517 
z
" transform="scale(0.015625)"/>
       <path id="CMR17-6f" d="M 2758 1356 
C 2758 2176 2163 2816 1466 2816 
C 768 2816 173 2176 173 1356 
C 173 550 768 -64 1466 -64 
C 2163 -64 2758 550 2758 1356 
z
M 1466 51 
C 1165 51 909 230 762 480 
C 602 768 582 1126 582 1408 
C 582 1676 595 2009 762 2297 
C 890 2508 1139 2713 1466 2713 
C 1754 2713 1997 2553 2150 2329 
C 2349 2028 2349 1606 2349 1408 
C 2349 1158 2336 774 2163 467 
C 1984 172 1709 51 1466 51 
z
" transform="scale(0.015625)"/>
       <path id="CMR17-62" d="M 960 4416 
L 198 4345 
L 198 4179 
C 576 4179 634 4141 634 3843 
L 634 -13 
L 749 -13 
L 934 445 
C 1120 141 1395 -64 1766 -64 
C 2406 -64 3053 503 3053 1382 
C 3053 2209 2477 2816 1830 2816 
C 1434 2816 1152 2603 960 2351 
L 960 4416 
z
M 973 2022 
C 973 2138 973 2157 1062 2293 
C 1312 2681 1670 2713 1792 2713 
C 1984 2713 2643 2610 2643 1388 
C 2643 109 1888 38 1734 38 
C 1536 38 1248 115 1043 490 
C 973 613 973 626 973 742 
L 973 2022 
z
" transform="scale(0.015625)"/>
       <path id="CMR17-6c" d="M 979 4416 
L 218 4345 
L 218 4179 
C 595 4179 653 4141 653 3835 
L 653 439 
C 653 198 627 166 218 166 
L 218 0 
C 371 12 653 12 813 12 
C 979 12 1261 12 1414 0 
L 1414 166 
C 1005 166 979 191 979 439 
L 979 4416 
z
" transform="scale(0.015625)"/>
       <path id="CMR17-79" d="M 2496 2183 
C 2656 2579 2944 2585 3034 2585 
L 3034 2752 
C 2912 2745 2752 2739 2630 2739 
C 2496 2739 2285 2739 2157 2752 
L 2157 2585 
C 2400 2566 2406 2384 2406 2332 
C 2406 2268 2394 2235 2362 2158 
L 1664 409 
L 902 2300 
C 870 2378 870 2423 870 2430 
C 870 2572 1018 2585 1171 2585 
L 1171 2752 
C 1018 2739 742 2739 582 2739 
C 410 2739 205 2739 64 2752 
L 64 2585 
C 410 2585 448 2553 531 2345 
L 1485 -31 
C 1197 -795 1030 -1242 627 -1242 
C 557 -1242 397 -1223 282 -1106 
C 429 -1093 493 -1002 493 -892 
C 493 -782 416 -685 288 -685 
C 147 -685 77 -782 77 -899 
C 77 -1158 339 -1344 627 -1344 
C 998 -1344 1229 -983 1357 -659 
L 2496 2183 
z
" transform="scale(0.015625)"/>
       <path id="CMR17-64" d="M 1869 4345 
L 1869 4179 
C 2246 4179 2304 4141 2304 3843 
L 2304 2371 
C 2278 2403 2016 2816 1498 2816 
C 845 2816 211 2228 211 1376 
C 211 529 806 -64 1434 -64 
C 1978 -64 2259 361 2291 406 
L 2291 -64 
L 3066 -13 
L 3066 154 
C 2688 154 2630 193 2630 503 
L 2630 4416 
L 1869 4345 
z
M 2291 762 
C 2291 568 2176 393 2029 264 
C 1811 70 1594 38 1472 38 
C 1286 38 621 135 621 1369 
C 621 2636 1363 2713 1530 2713 
C 1824 2713 2061 2545 2208 2313 
C 2291 2177 2291 2157 2291 2041 
L 2291 762 
z
" transform="scale(0.015625)"/>
      </defs>
      <use xlink:href="#CMR17-50" transform="scale(0.996264)"/>
      <use xlink:href="#CMR17-72" transform="translate(62.586301 0)scale(0.996264)"/>
      <use xlink:href="#CMR17-6f" transform="translate(97.867068 0)scale(0.996264)"/>
      <use xlink:href="#CMR17-62" transform="translate(143.557545 0)scale(0.996264)"/>
      <use xlink:href="#CMR17-61" transform="translate(194.452915 0)scale(0.996264)"/>
      <use xlink:href="#CMR17-62" transform="translate(240.143392 0)scale(0.996264)"/>
      <use xlink:href="#CMR17-69" transform="translate(291.038762 0)scale(0.996264)"/>
      <use xlink:href="#CMR17-6c" transform="translate(315.909821 0)scale(0.996264)"/>
      <use xlink:href="#CMR17-69" transform="translate(340.780879 0)scale(0.996264)"/>
      <use xlink:href="#CMR17-74" transform="translate(365.651938 0)scale(0.996264)"/>
      <use xlink:href="#CMR17-79" transform="translate(398.330251 0)scale(0.996264)"/>
      <use xlink:href="#CMR17-64" transform="translate(476.699134 0)scale(0.996264)"/>
      <use xlink:href="#CMR17-65" transform="translate(527.594503 0)scale(0.996264)"/>
      <use xlink:href="#CMR17-6e" transform="translate(568.080164 0)scale(0.996264)"/>
      <use xlink:href="#CMR17-73" transform="translate(618.975534 0)scale(0.996264)"/>
      <use xlink:href="#CMR17-69" transform="translate(654.776871 0)scale(0.996264)"/>
      <use xlink:href="#CMR17-74" transform="translate(679.64793 0)scale(0.996264)"/>
      <use xlink:href="#CMR17-79" transform="translate(712.326244 0)scale(0.996264)"/>
     </g>
    </g>
   </g>
   <g id="line2d_14">
    <path d="M 268.755547 384.157026 
L 268.755547 51.517026 
" clip-path="url(#p1d70397eb5)" style="fill: none; stroke-dasharray: 5.55,2.4; stroke-dashoffset: 0; stroke: #000000; stroke-width: 1.5"/>
   </g>
   <g id="patch_3">
    <path d="M 45.555547 384.157026 
L 45.555547 51.517026 
" style="fill: none; stroke: #000000; stroke-width: 0.8; stroke-linejoin: miter; stroke-linecap: square"/>
   </g>
   <g id="patch_4">
    <path d="M 491.955547 384.157026 
L 491.955547 51.517026 
" style="fill: none; stroke: #000000; stroke-width: 0.8; stroke-linejoin: miter; stroke-linecap: square"/>
   </g>
   <g id="patch_5">
    <path d="M 45.555547 384.157026 
L 491.955547 384.157026 
" style="fill: none; stroke: #000000; stroke-width: 0.8; stroke-linejoin: miter; stroke-linecap: square"/>
   </g>
   <g id="patch_6">
    <path d="M 45.555547 51.517026 
L 491.955547 51.517026 
" style="fill: none; stroke: #000000; stroke-width: 0.8; stroke-linejoin: miter; stroke-linecap: square"/>
   </g>
   <g id="text_16">
    <!-- Distance reconstruction  -->
    <g transform="translate(174.625662 21.036997)scale(0.2 -0.2)">
     <defs>
      <path id="CMR17-75" d="M 1882 2745 
L 1882 2579 
C 2259 2579 2317 2540 2317 2229 
L 2317 1053 
C 2317 510 2029 38 1555 38 
C 1030 38 986 355 986 691 
L 986 2816 
L 211 2745 
L 211 2579 
C 467 2579 640 2579 646 2320 
L 646 1079 
C 646 646 646 368 813 187 
C 896 103 1056 -64 1517 -64 
C 2061 -64 2272 400 2323 536 
L 2330 536 
L 2330 -64 
L 3091 -13 
L 3091 154 
C 2714 154 2656 193 2656 503 
L 2656 2816 
L 1882 2745 
z
" transform="scale(0.015625)"/>
     </defs>
     <use xlink:href="#CMR17-44" transform="scale(0.996264)"/>
     <use xlink:href="#CMR17-69" transform="translate(70.393556 0)scale(0.996264)"/>
     <use xlink:href="#CMR17-73" transform="translate(95.264614 0)scale(0.996264)"/>
     <use xlink:href="#CMR17-74" transform="translate(131.065952 0)scale(0.996264)"/>
     <use xlink:href="#CMR17-61" transform="translate(166.34672 0)scale(0.996264)"/>
     <use xlink:href="#CMR17-6e" transform="translate(212.037197 0)scale(0.996264)"/>
     <use xlink:href="#CMR17-63" transform="translate(262.932567 0)scale(0.996264)"/>
     <use xlink:href="#CMR17-65" transform="translate(303.418227 0)scale(0.996264)"/>
     <use xlink:href="#CMR17-72" transform="translate(373.979854 0)scale(0.996264)"/>
     <use xlink:href="#CMR17-65" transform="translate(409.260622 0)scale(0.996264)"/>
     <use xlink:href="#CMR17-63" transform="translate(449.746282 0)scale(0.996264)"/>
     <use xlink:href="#CMR17-6f" transform="translate(490.231943 0)scale(0.996264)"/>
     <use xlink:href="#CMR17-6e" transform="translate(535.92242 0)scale(0.996264)"/>
     <use xlink:href="#CMR17-73" transform="translate(586.81779 0)scale(0.996264)"/>
     <use xlink:href="#CMR17-74" transform="translate(622.619127 0)scale(0.996264)"/>
     <use xlink:href="#CMR17-72" transform="translate(657.899895 0)scale(0.996264)"/>
     <use xlink:href="#CMR17-75" transform="translate(693.180663 0)scale(0.996264)"/>
     <use xlink:href="#CMR17-63" transform="translate(744.076033 0)scale(0.996264)"/>
     <use xlink:href="#CMR17-74" transform="translate(784.561693 0)scale(0.996264)"/>
     <use xlink:href="#CMR17-69" transform="translate(819.842461 0)scale(0.996264)"/>
     <use xlink:href="#CMR17-6f" transform="translate(844.713519 0)scale(0.996264)"/>
     <use xlink:href="#CMR17-6e" transform="translate(890.403996 0)scale(0.996264)"/>
    </g>
    <!--  using $L$ distribution and fitted parameters -->
    <g transform="translate(99.614625 41.517026)scale(0.2 -0.2)">
     <defs>
      <path id="CMR17-67" d="M 710 1165 
C 832 1068 1043 960 1299 960 
C 1805 960 2240 1359 2240 1895 
C 2240 2063 2189 2321 1997 2521 
C 2176 2713 2438 2777 2586 2777 
C 2611 2777 2650 2777 2682 2758 
C 2656 2751 2598 2726 2598 2623 
C 2598 2540 2656 2483 2739 2483 
C 2835 2483 2886 2547 2886 2630 
C 2886 2751 2790 2880 2586 2880 
C 2330 2880 2106 2758 1926 2591 
C 1734 2764 1504 2828 1299 2828 
C 794 2828 358 2431 358 1895 
C 358 1527 570 1294 634 1230 
C 442 1004 442 742 442 710 
C 442 544 506 300 723 166 
C 390 82 128 -184 128 -517 
C 128 -996 736 -1344 1466 -1344 
C 2170 -1344 2803 -1009 2803 -510 
C 2803 384 1856 384 1363 384 
C 1216 384 954 384 922 390 
C 723 422 589 601 589 825 
C 589 883 589 1024 710 1165 
z
M 1299 1068 
C 736 1068 736 1766 736 1895 
C 736 2024 736 2719 1299 2719 
C 1862 2719 1862 2024 1862 1895 
C 1862 1766 1862 1068 1299 1068 
z
M 1466 -1236 
C 826 -1236 384 -883 384 -517 
C 384 -311 493 -118 634 -11 
C 794 102 858 102 1293 102 
C 1818 102 2547 102 2547 -517 
C 2547 -883 2106 -1236 1466 -1236 
z
" transform="scale(0.015625)"/>
      <path id="CMMI12-4c" d="M 2349 3860 
C 2406 4102 2426 4166 2989 4166 
C 3162 4166 3206 4166 3206 4287 
C 3206 4352 3136 4352 3110 4352 
C 2982 4352 2835 4339 2707 4339 
L 1850 4339 
C 1728 4339 1587 4352 1466 4352 
C 1414 4352 1344 4352 1344 4230 
C 1344 4166 1402 4166 1498 4166 
C 1888 4166 1888 4115 1888 4045 
C 1888 4032 1888 3994 1862 3898 
L 998 472 
C 941 249 928 185 480 185 
C 358 185 294 185 294 70 
C 294 0 333 0 461 0 
L 3328 0 
C 3469 0 3475 6 3520 121 
L 4013 1478 
C 4026 1510 4038 1548 4038 1567 
C 4038 1605 4006 1631 3974 1631 
C 3968 1631 3936 1631 3923 1605 
C 3910 1599 3910 1586 3859 1465 
C 3654 905 3366 185 2285 185 
L 1670 185 
C 1581 185 1568 185 1530 191 
C 1459 198 1453 211 1453 262 
C 1453 306 1466 344 1478 402 
L 2349 3860 
z
" transform="scale(0.015625)"/>
      <path id="CMR17-c" d="M 2554 2816 
C 2400 2809 1926 2777 1805 2764 
C 1766 2758 1754 2758 1677 2758 
L 947 2758 
L 947 3517 
C 947 4127 1434 4416 1818 4416 
C 1939 4416 2214 4383 2355 4160 
C 2291 4160 2086 4160 2086 3935 
C 2086 3782 2189 3705 2317 3705 
C 2432 3705 2547 3769 2547 3942 
C 2547 4265 2240 4518 1843 4518 
C 1338 4518 634 4225 634 3517 
L 634 2758 
L 122 2758 
L 122 2591 
L 634 2591 
L 634 442 
C 634 198 608 166 198 166 
L 198 0 
C 352 12 634 12 794 12 
C 960 12 1242 12 1395 0 
L 1395 166 
C 986 166 960 192 960 442 
L 960 2591 
L 1901 2591 
C 2176 2591 2227 2534 2227 2251 
L 2227 442 
C 2227 198 2202 166 1792 166 
L 1792 0 
C 1946 12 2227 12 2387 12 
C 2554 12 2835 12 2989 0 
L 2989 166 
C 2579 166 2554 192 2554 442 
L 2554 2816 
z
" transform="scale(0.015625)"/>
      <path id="CMR17-6d" d="M 4326 1954 
C 4326 2276 4269 2816 3507 2816 
C 3072 2816 2771 2520 2656 2173 
L 2650 2173 
C 2573 2700 2195 2816 1837 2816 
C 1331 2816 1069 2424 973 2166 
L 966 2166 
L 966 2816 
L 211 2745 
L 211 2578 
C 589 2578 646 2540 646 2231 
L 646 443 
C 646 198 621 166 211 166 
L 211 0 
C 365 12 646 12 813 12 
C 979 12 1267 12 1421 0 
L 1421 166 
C 1011 166 986 192 986 443 
L 986 1678 
C 986 2269 1344 2713 1792 2713 
C 2266 2713 2317 2289 2317 1980 
L 2317 443 
C 2317 198 2291 166 1882 166 
L 1882 0 
C 2035 12 2317 12 2483 12 
C 2650 12 2938 12 3091 0 
L 3091 166 
C 2682 166 2656 192 2656 443 
L 2656 1678 
C 2656 2269 3014 2713 3462 2713 
C 3936 2713 3987 2289 3987 1980 
L 3987 443 
C 3987 198 3962 166 3552 166 
L 3552 0 
C 3706 12 3987 12 4154 12 
C 4320 12 4608 12 4762 0 
L 4762 166 
C 4352 166 4326 192 4326 443 
L 4326 1954 
z
" transform="scale(0.015625)"/>
     </defs>
     <use xlink:href="#CMR17-75" transform="scale(0.996264)"/>
     <use xlink:href="#CMR17-73" transform="translate(50.89537 0)scale(0.996264)"/>
     <use xlink:href="#CMR17-69" transform="translate(86.696707 0)scale(0.996264)"/>
     <use xlink:href="#CMR17-6e" transform="translate(111.567766 0)scale(0.996264)"/>
     <use xlink:href="#CMR17-67" transform="translate(162.463136 0)scale(0.996264)"/>
     <use xlink:href="#CMMI12-4c" transform="translate(238.229579 0)scale(0.996264)"/>
     <use xlink:href="#CMR17-64" transform="translate(334.676421 0)scale(0.996264)"/>
     <use xlink:href="#CMR17-69" transform="translate(385.571791 0)scale(0.996264)"/>
     <use xlink:href="#CMR17-73" transform="translate(410.442849 0)scale(0.996264)"/>
     <use xlink:href="#CMR17-74" transform="translate(446.244187 0)scale(0.996264)"/>
     <use xlink:href="#CMR17-72" transform="translate(481.524955 0)scale(0.996264)"/>
     <use xlink:href="#CMR17-69" transform="translate(516.805722 0)scale(0.996264)"/>
     <use xlink:href="#CMR17-62" transform="translate(541.676781 0)scale(0.996264)"/>
     <use xlink:href="#CMR17-75" transform="translate(592.572151 0)scale(0.996264)"/>
     <use xlink:href="#CMR17-74" transform="translate(643.46752 0)scale(0.996264)"/>
     <use xlink:href="#CMR17-69" transform="translate(678.748288 0)scale(0.996264)"/>
     <use xlink:href="#CMR17-6f" transform="translate(703.619347 0)scale(0.996264)"/>
     <use xlink:href="#CMR17-6e" transform="translate(749.309824 0)scale(0.996264)"/>
     <use xlink:href="#CMR17-61" transform="translate(830.28116 0)scale(0.996264)"/>
     <use xlink:href="#CMR17-6e" transform="translate(875.971637 0)scale(0.996264)"/>
     <use xlink:href="#CMR17-64" transform="translate(926.867007 0)scale(0.996264)"/>
     <use xlink:href="#CMR17-c" transform="translate(1007.838343 0)scale(0.996264)"/>
     <use xlink:href="#CMR17-74" transform="translate(1057.580566 0)scale(0.996264)"/>
     <use xlink:href="#CMR17-74" transform="translate(1092.861334 0)scale(0.996264)"/>
     <use xlink:href="#CMR17-65" transform="translate(1128.142102 0)scale(0.996264)"/>
     <use xlink:href="#CMR17-64" transform="translate(1168.627762 0)scale(0.996264)"/>
     <use xlink:href="#CMR17-70" transform="translate(1249.599099 0)scale(0.996264)"/>
     <use xlink:href="#CMR17-61" transform="translate(1300.494468 0)scale(0.996264)"/>
     <use xlink:href="#CMR17-72" transform="translate(1346.184945 0)scale(0.996264)"/>
     <use xlink:href="#CMR17-61" transform="translate(1381.465713 0)scale(0.996264)"/>
     <use xlink:href="#CMR17-6d" transform="translate(1427.15619 0)scale(0.996264)"/>
     <use xlink:href="#CMR17-65" transform="translate(1504.07578 0)scale(0.996264)"/>
     <use xlink:href="#CMR17-74" transform="translate(1544.561441 0)scale(0.996264)"/>
     <use xlink:href="#CMR17-65" transform="translate(1579.842209 0)scale(0.996264)"/>
     <use xlink:href="#CMR17-72" transform="translate(1620.327869 0)scale(0.996264)"/>
     <use xlink:href="#CMR17-73" transform="translate(1655.608637 0)scale(0.996264)"/>
    </g>
   </g>
   <g id="legend_1">
    <g id="patch_7">
     <path d="M 324.213678 132.530203 
L 483.555547 132.530203 
Q 485.955547 132.530203 485.955547 130.130203 
L 485.955547 59.917026 
Q 485.955547 57.517026 483.555547 57.517026 
L 324.213678 57.517026 
Q 321.813678 57.517026 321.813678 59.917026 
L 321.813678 130.130203 
Q 321.813678 132.530203 324.213678 132.530203 
z
" style="fill: #ffffff; opacity: 0.8; stroke: #cccccc; stroke-linejoin: miter"/>
    </g>
    <g id="patch_8">
     <path d="M 326.613678 81.352622 
L 350.613678 81.352622 
L 350.613678 72.952622 
L 326.613678 72.952622 
z
" style="fill: #280b53; fill-opacity: 0.25; stroke: #280b53; stroke-linejoin: miter"/>
    </g>
    <g id="text_17">
     <!-- $L \propto \displaystyle \frac{\left[\mathcal{N}(1.33, 0.9)\right]^2}{\mathcal{U}(R_{\mathrm{min}}, R_{\mathrm{max}})}$ -->
     <g transform="translate(360.213678 81.352622)scale(0.12 -0.12)">
      <defs>
       <path id="CMSY10-2f" d="M 4621 210 
C 4595 210 4493 198 4474 198 
C 3968 198 3629 694 3411 1025 
C 3347 1133 3174 1394 3104 1503 
C 3258 1846 3686 2636 4448 2636 
C 4493 2636 4550 2636 4621 2617 
C 4621 2784 4614 2790 4602 2803 
C 4557 2816 4461 2822 4403 2822 
C 3590 2822 3117 2044 2963 1725 
C 2707 2114 2618 2254 2381 2451 
C 1990 2790 1638 2822 1478 2822 
C 768 2822 358 2107 358 1375 
C 358 662 755 -64 1459 -64 
C 2272 -64 2746 713 2899 1031 
C 3155 643 3245 503 3482 306 
C 3872 -32 4224 -64 4384 -64 
C 4461 -64 4563 -52 4621 -39 
L 4621 210 
z
M 2758 1254 
C 2605 911 2176 121 1414 121 
C 794 121 499 796 499 1375 
C 499 2006 858 2560 1389 2560 
C 1894 2560 2234 2063 2451 1732 
C 2515 1624 2688 1363 2758 1254 
z
" transform="scale(0.015625)"/>
       <path id="CMSY10-4e" d="M 1958 3657 
C 2074 3326 2214 2848 2502 2065 
C 2906 982 3085 587 3475 -20 
C 3565 -154 3571 -160 3629 -160 
C 3718 -160 3853 -84 3923 -32 
C 4013 51 4019 57 4090 370 
C 4474 2046 4960 3791 5088 4084 
C 5094 4097 5222 4339 6010 4352 
C 6138 4358 6259 4697 6259 4838 
C 6259 4940 6221 4940 6131 4940 
C 5491 4940 5203 4672 5126 4588 
C 4947 4358 4794 3893 4499 2829 
C 4275 2014 4070 1186 3872 364 
C 3520 893 3322 1396 3014 2218 
C 2675 3122 2470 3785 2298 4358 
C 2259 4486 2253 4492 2195 4492 
C 2182 4492 2054 4492 1869 4339 
C 1805 4282 1798 4224 1792 4154 
C 1613 2460 1011 784 838 479 
C 787 383 710 268 582 268 
C 518 268 269 300 102 453 
C 70 479 58 479 51 479 
C -51 479 -186 160 -186 6 
C -186 -192 205 -320 384 -320 
C 794 -320 1120 580 1222 873 
C 1638 2026 1837 2976 1958 3657 
z
" transform="scale(0.015625)"/>
       <path id="CMR17-28" d="M 1958 -1562 
C 1958 -1556 1958 -1543 1939 -1524 
C 1645 -1223 858 -403 858 1596 
C 858 3595 1632 4408 1946 4729 
C 1946 4735 1958 4748 1958 4767 
C 1958 4787 1939 4800 1914 4800 
C 1843 4800 1299 4325 986 3620 
C 666 2909 576 2218 576 1603 
C 576 1141 621 360 1005 -467 
C 1312 -1133 1837 -1600 1914 -1600 
C 1946 -1600 1958 -1588 1958 -1562 
z
" transform="scale(0.015625)"/>
       <path id="CMR17-33" d="M 1414 2176 
C 1984 2176 2234 1673 2234 1094 
C 2234 322 1824 25 1453 25 
C 1114 25 563 193 390 691 
C 422 678 454 678 486 678 
C 640 678 755 780 755 947 
C 755 1132 614 1216 486 1216 
C 378 1216 211 1164 211 927 
C 211 335 787 -128 1466 -128 
C 2176 -128 2720 432 2720 1087 
C 2720 1718 2208 2176 1600 2246 
C 2086 2347 2554 2776 2554 3353 
C 2554 3856 2048 4224 1472 4224 
C 890 4224 378 3862 378 3347 
C 378 3123 544 3084 627 3084 
C 762 3084 877 3167 877 3334 
C 877 3500 762 3584 627 3584 
C 602 3584 570 3584 544 3571 
C 730 3999 1235 4076 1459 4076 
C 1683 4076 2106 3966 2106 3347 
C 2106 3167 2080 2851 1862 2574 
C 1670 2329 1453 2316 1242 2297 
C 1210 2297 1062 2284 1037 2284 
C 992 2278 966 2272 966 2227 
C 966 2182 973 2176 1101 2176 
L 1414 2176 
z
" transform="scale(0.015625)"/>
       <path id="CMMI12-3b" d="M 1248 -26 
C 1248 345 1126 620 864 620 
C 659 620 557 454 557 313 
C 557 172 653 0 870 0 
C 954 0 1024 25 1082 83 
C 1094 96 1101 96 1107 96 
C 1120 96 1120 6 1120 -26 
C 1120 -233 1082 -642 710 -1051 
C 640 -1127 640 -1140 640 -1152 
C 640 -1184 672 -1216 704 -1216 
C 755 -1216 1248 -749 1248 -26 
z
" transform="scale(0.015625)"/>
       <path id="CMR17-39" d="M 2253 1871 
C 2253 448 1670 25 1190 25 
C 1043 25 685 43 538 281 
C 704 256 826 345 826 505 
C 826 678 685 736 595 736 
C 538 736 365 710 365 492 
C 365 68 742 -128 1203 -128 
C 1939 -128 2688 665 2688 2090 
C 2688 3857 1971 4224 1485 4224 
C 851 4224 243 3664 243 2800 
C 243 2000 762 1408 1414 1408 
C 1952 1408 2189 1910 2253 2122 
L 2253 1871 
z
M 1427 1510 
C 1254 1510 1011 1542 813 1929 
C 678 2181 678 2477 678 2793 
C 678 3174 678 3438 858 3722 
C 947 3857 1114 4076 1485 4076 
C 2240 4076 2240 2909 2240 2651 
C 2240 2193 2035 1510 1427 1510 
z
" transform="scale(0.015625)"/>
       <path id="CMR17-29" d="M 1683 1596 
C 1683 2057 1638 2839 1254 3665 
C 947 4332 422 4800 346 4800 
C 326 4800 301 4793 301 4761 
C 301 4748 307 4742 314 4729 
C 621 4408 1402 3595 1402 1603 
C 1402 -396 627 -1210 314 -1530 
C 307 -1543 301 -1549 301 -1562 
C 301 -1594 326 -1600 346 -1600 
C 416 -1600 960 -1127 1274 -422 
C 1594 289 1683 981 1683 1596 
z
" transform="scale(0.015625)"/>
       <path id="CMSY10-55" d="M 3155 1892 
C 3008 1359 2784 573 2784 83 
C 2784 -90 2893 -167 3046 -167 
C 3302 -167 3782 108 3782 236 
C 3782 268 3750 281 3718 281 
C 3642 281 3526 224 3456 185 
C 3373 198 3328 262 3328 350 
C 3328 1125 4058 3346 4243 3815 
C 4320 3993 4403 4255 4403 4307 
C 4403 4352 4365 4352 4339 4352 
C 4205 4352 3917 4179 3866 4057 
C 3782 3834 3770 3802 3693 3568 
C 3482 2965 2848 1918 2214 1182 
C 2016 960 1389 224 934 224 
C 627 224 435 484 435 903 
C 435 1347 685 1918 1069 2787 
C 1299 3308 1491 3758 1491 4044 
C 1491 4345 1286 4352 1171 4352 
C 678 4352 64 3955 64 3822 
C 64 3783 109 3783 134 3783 
C 211 3783 326 3834 429 3904 
C 474 3936 576 3999 749 3999 
C 890 3999 947 3910 947 3771 
C 947 3492 717 2971 448 2362 
C 26 1410 -109 1004 -109 636 
C -109 217 58 -128 512 -128 
C 909 -128 1491 134 2144 738 
C 2586 1150 2874 1531 3149 1899 
L 3155 1892 
z
" transform="scale(0.015625)"/>
       <path id="CMMI12-52" d="M 2355 3917 
C 2413 4153 2438 4166 2688 4166 
L 3149 4166 
C 3699 4166 4109 4000 4109 3503 
C 4109 3177 3942 2240 2656 2240 
L 1933 2240 
L 2355 3917 
z
M 3245 2163 
C 4038 2335 4659 2846 4659 3394 
C 4659 3892 4154 4352 3264 4352 
L 1530 4352 
C 1402 4352 1344 4352 1344 4230 
C 1344 4166 1389 4166 1510 4166 
C 1894 4166 1894 4115 1894 4045 
C 1894 4032 1894 3994 1869 3898 
L 1005 475 
C 947 253 934 190 493 190 
C 346 190 301 190 301 69 
C 301 6 371 6 390 6 
C 506 6 640 19 762 19 
L 1517 19 
C 1632 19 1766 6 1882 6 
C 1933 6 2003 6 2003 126 
C 2003 190 1946 190 1850 190 
C 1459 190 1459 241 1459 304 
C 1459 310 1459 355 1472 405 
L 1901 2112 
L 2669 2112 
C 3277 2112 3392 1731 3392 1522 
C 3392 1426 3328 1179 3283 1014 
C 3213 723 3194 653 3194 532 
C 3194 82 3565 -128 3994 -128 
C 4512 -128 4736 501 4736 589 
C 4736 634 4704 653 4666 653 
C 4614 653 4602 615 4589 564 
C 4435 114 4173 0 4013 0 
C 3853 0 3750 69 3750 355 
C 3750 507 3827 1084 3834 1116 
C 3866 1350 3866 1376 3866 1426 
C 3866 1889 3488 2086 3245 2163 
z
" transform="scale(0.015625)"/>
       <path id="CMR17-78" d="M 1664 1491 
C 1856 1740 2074 2022 2253 2233 
C 2464 2476 2707 2579 2989 2585 
L 2989 2752 
C 2880 2745 2656 2739 2541 2739 
C 2368 2739 2170 2739 2022 2752 
L 2022 2585 
C 2112 2572 2163 2508 2163 2419 
C 2163 2304 2099 2233 2067 2188 
L 1594 1587 
L 1030 2323 
C 973 2393 973 2406 973 2438 
C 973 2515 1037 2579 1146 2585 
L 1146 2752 
C 992 2739 717 2739 557 2739 
C 384 2739 179 2739 38 2752 
L 38 2585 
C 384 2585 461 2560 614 2368 
L 1350 1414 
C 1363 1401 1395 1363 1395 1344 
C 1395 1318 838 633 768 544 
C 480 198 179 172 6 166 
L 6 0 
C 115 6 339 12 454 12 
C 582 12 864 12 979 0 
L 979 166 
C 941 172 838 185 838 332 
C 838 448 890 518 947 595 
L 1478 1248 
L 2035 524 
C 2086 454 2163 358 2163 313 
C 2163 224 2086 172 1984 166 
L 1984 0 
C 2138 12 2413 12 2573 12 
C 2746 12 2950 12 3091 0 
L 3091 166 
C 2771 166 2675 179 2522 377 
L 1664 1491 
z
" transform="scale(0.015625)"/>
      </defs>
      <use xlink:href="#CMMI12-4c" transform="scale(0.996264)"/>
      <use xlink:href="#CMSY10-2f" transform="translate(94.044884 0)scale(0.996264)"/>
      <use xlink:href="#CMR17-5b" transform="translate(200.401874 67.401222)scale(0.996264)"/>
      <use xlink:href="#CMSY10-4e" transform="translate(225.272933 67.398045)scale(0.996264)"/>
      <use xlink:href="#CMR17-28" transform="translate(321.696394 67.398045)scale(0.996264)"/>
      <use xlink:href="#CMR17-31" transform="translate(356.977162 67.398045)scale(0.996264)"/>
      <use xlink:href="#CMMI12-3a" transform="translate(402.667639 67.398045)scale(0.996264)"/>
      <use xlink:href="#CMR17-33" transform="translate(429.764816 67.398045)scale(0.996264)"/>
      <use xlink:href="#CMR17-33" transform="translate(475.455293 67.398045)scale(0.996264)"/>
      <use xlink:href="#CMMI12-3b" transform="translate(521.14577 67.398045)scale(0.996264)"/>
      <use xlink:href="#CMR17-30" transform="translate(564.847353 67.398045)scale(0.996264)"/>
      <use xlink:href="#CMMI12-3a" transform="translate(610.53783 67.398045)scale(0.996264)"/>
      <use xlink:href="#CMR17-39" transform="translate(637.635007 67.398045)scale(0.996264)"/>
      <use xlink:href="#CMR17-29" transform="translate(683.325484 67.398045)scale(0.996264)"/>
      <use xlink:href="#CMR17-5d" transform="translate(718.606252 67.401222)scale(0.996264)"/>
      <use xlink:href="#CMR17-32" transform="translate(743.47731 115.104841)scale(0.697382)"/>
      <use xlink:href="#CMSY10-55" transform="translate(206.922679 -68.338837)scale(0.996264)"/>
      <use xlink:href="#CMR17-28" transform="translate(279.165532 -68.338837)scale(0.996264)"/>
      <use xlink:href="#CMMI12-52" transform="translate(314.446299 -68.338837)scale(0.996264)"/>
      <use xlink:href="#CMR17-6d" transform="translate(388.697125 -83.282752)scale(0.697382)"/>
      <use xlink:href="#CMR17-69" transform="translate(442.540592 -83.282752)scale(0.697382)"/>
      <use xlink:href="#CMR17-6e" transform="translate(459.950251 -83.282752)scale(0.697382)"/>
      <use xlink:href="#CMMI12-3b" transform="translate(496.074991 -68.338837)scale(0.996264)"/>
      <use xlink:href="#CMMI12-52" transform="translate(539.776573 -68.338837)scale(0.996264)"/>
      <use xlink:href="#CMR17-6d" transform="translate(614.027399 -83.282752)scale(0.697382)"/>
      <use xlink:href="#CMR17-61" transform="translate(667.870866 -83.282752)scale(0.697382)"/>
      <use xlink:href="#CMR17-78" transform="translate(699.854048 -83.282752)scale(0.697382)"/>
      <use xlink:href="#CMR17-29" transform="translate(734.157067 -68.338837)scale(0.996264)"/>
      <path d="M 200.401874 22.914133 
L 775.958624 22.914133 
L 775.958624 26.899083 
L 200.401874 26.899083 
L 200.401874 22.914133 
z
"/>
     </g>
    </g>
    <g id="patch_9">
     <path d="M 326.613678 108.016816 
L 350.613678 108.016816 
L 350.613678 99.616816 
L 326.613678 99.616816 
z
" style="fill: #9f2a63; fill-opacity: 0.25; stroke: #9f2a63; stroke-linejoin: miter"/>
    </g>
    <g id="text_18">
     <!-- $L \sim \mathcal{N}(3, 1) \times 10^{53}$ ergs -->
     <g transform="translate(360.213678 108.016816)scale(0.12 -0.12)">
      <defs>
       <path id="CMSY10-18" d="M 4621 2131 
C 4621 2272 4582 2336 4531 2336 
C 4499 2336 4448 2291 4442 2169 
C 4416 1562 3994 1216 3546 1216 
C 3142 1216 2835 1486 2522 1757 
C 2195 2048 1862 2342 1427 2342 
C 730 2342 352 1644 352 1068 
C 352 863 435 863 442 863 
C 512 863 531 991 531 1011 
C 557 1707 1037 1984 1427 1984 
C 1830 1984 2138 1713 2451 1442 
C 2778 1151 3110 857 3546 857 
C 4243 857 4621 1555 4621 2131 
z
" transform="scale(0.015625)"/>
       <path id="CMSY10-2" d="M 2490 1775 
L 1210 3046 
C 1133 3123 1120 3136 1069 3136 
C 1005 3136 941 3078 941 3008 
C 941 2963 954 2950 1024 2880 
L 2304 1596 
L 1024 313 
C 954 243 941 230 941 185 
C 941 115 1005 57 1069 57 
C 1120 57 1133 70 1210 147 
L 2483 1418 
L 3808 95 
C 3821 89 3866 57 3904 57 
C 3981 57 4032 115 4032 185 
C 4032 198 4032 223 4013 255 
C 4006 268 2989 1271 2669 1596 
L 3840 2765 
C 3872 2803 3968 2886 4000 2925 
C 4006 2937 4032 2963 4032 3008 
C 4032 3078 3981 3136 3904 3136 
C 3853 3136 3827 3110 3757 3040 
L 2490 1775 
z
" transform="scale(0.015625)"/>
       <path id="CMR17-35" d="M 730 3750 
C 794 3724 1056 3641 1325 3641 
C 1920 3641 2246 3961 2432 4140 
C 2432 4191 2432 4224 2394 4224 
C 2387 4224 2374 4224 2323 4198 
C 2099 4102 1837 4032 1517 4032 
C 1325 4032 1037 4055 723 4191 
C 653 4224 640 4224 634 4224 
C 602 4224 595 4217 595 4090 
L 595 2231 
C 595 2113 595 2080 659 2080 
C 691 2080 704 2093 736 2139 
C 941 2435 1222 2560 1542 2560 
C 1766 2560 2246 2415 2246 1293 
C 2246 1087 2246 716 2054 422 
C 1894 159 1645 25 1370 25 
C 947 25 518 319 403 812 
C 429 806 480 793 506 793 
C 589 793 749 838 749 1036 
C 749 1209 627 1280 506 1280 
C 358 1280 262 1190 262 1011 
C 262 454 704 -128 1382 -128 
C 2042 -128 2669 441 2669 1267 
C 2669 2054 2170 2662 1549 2662 
C 1222 2662 947 2540 730 2304 
L 730 3750 
z
" transform="scale(0.015625)"/>
      </defs>
      <use xlink:href="#CMMI12-4c" transform="scale(0.996264)"/>
      <use xlink:href="#CMSY10-18" transform="translate(94.044884 0)scale(0.996264)"/>
      <use xlink:href="#CMSY10-4e" transform="translate(199.206361 0)scale(0.996264)"/>
      <use xlink:href="#CMR17-28" transform="translate(295.629822 0)scale(0.996264)"/>
      <use xlink:href="#CMR17-33" transform="translate(330.91059 0)scale(0.996264)"/>
      <use xlink:href="#CMMI12-3b" transform="translate(376.601067 0)scale(0.996264)"/>
      <use xlink:href="#CMR17-31" transform="translate(420.302649 0)scale(0.996264)"/>
      <use xlink:href="#CMR17-29" transform="translate(465.993126 0)scale(0.996264)"/>
      <use xlink:href="#CMSY10-2" transform="translate(523.413101 0)scale(0.996264)"/>
      <use xlink:href="#CMR17-31" transform="translate(623.039776 0)scale(0.996264)"/>
      <use xlink:href="#CMR17-30" transform="translate(668.730253 0)scale(0.996264)"/>
      <use xlink:href="#CMR17-35" transform="translate(714.42073 36.153639)scale(0.697382)"/>
      <use xlink:href="#CMR17-33" transform="translate(746.403912 36.153639)scale(0.697382)"/>
      <use xlink:href="#CMR17-65" transform="translate(808.961192 0)scale(0.996264)"/>
      <use xlink:href="#CMR17-72" transform="translate(849.446853 0)scale(0.996264)"/>
      <use xlink:href="#CMR17-67" transform="translate(884.727621 0)scale(0.996264)"/>
      <use xlink:href="#CMR17-73" transform="translate(930.418098 0)scale(0.996264)"/>
     </g>
    </g>
    <g id="patch_10">
     <path d="M 326.613678 125.405608 
L 350.613678 125.405608 
L 350.613678 117.005608 
L 326.613678 117.005608 
z
" style="fill: #f57d15; fill-opacity: 0.25; stroke: #f57d15; stroke-linejoin: miter"/>
    </g>
    <g id="text_19">
     <!-- $L = L^{\mathrm{true}}$ -->
     <g transform="translate(360.213678 125.405608)scale(0.12 -0.12)">
      <defs>
       <path id="CMR17-3d" d="M 4115 2048 
C 4211 2048 4307 2048 4307 2156 
C 4307 2272 4198 2272 4090 2272 
L 512 2272 
C 403 2272 294 2272 294 2156 
C 294 2048 390 2048 486 2048 
L 4115 2048 
z
M 4090 927 
C 4198 927 4307 927 4307 1043 
C 4307 1152 4211 1152 4115 1152 
L 486 1152 
C 390 1152 294 1152 294 1043 
C 294 927 403 927 512 927 
L 4090 927 
z
" transform="scale(0.015625)"/>
      </defs>
      <use xlink:href="#CMMI12-4c" transform="scale(0.996264)"/>
      <use xlink:href="#CMR17-3d" transform="translate(94.044884 0)scale(0.996264)"/>
      <use xlink:href="#CMMI12-4c" transform="translate(193.433681 0)scale(0.996264)"/>
      <use xlink:href="#CMR17-74" transform="translate(259.804557 36.153639)scale(0.697382)"/>
      <use xlink:href="#CMR17-72" transform="translate(284.500977 36.153639)scale(0.697382)"/>
      <use xlink:href="#CMR17-75" transform="translate(309.197398 36.153639)scale(0.697382)"/>
      <use xlink:href="#CMR17-65" transform="translate(344.824006 36.153639)scale(0.697382)"/>
     </g>
    </g>
   </g>
  </g>
 </g>
 <defs>
  <clipPath id="p1d70397eb5">
   <rect x="45.555547" y="51.517026" width="446.4" height="332.64"/>
  </clipPath>
 </defs>
</svg>
