<?xml version="1.0" encoding="utf-8" standalone="no"?>
<!DOCTYPE svg PUBLIC "-//W3C//DTD SVG 1.1//EN"
  "http://www.w3.org/Graphics/SVG/1.1/DTD/svg11.dtd">
<svg xmlns:xlink="http://www.w3.org/1999/xlink" width="509.560863pt" height="426.931498pt" viewBox="0 0 509.560863 426.931498" xmlns="http://www.w3.org/2000/svg" version="1.1">
 <metadata>
  <rdf:RDF xmlns:dc="http://purl.org/dc/elements/1.1/" xmlns:cc="http://creativecommons.org/ns#" xmlns:rdf="http://www.w3.org/1999/02/22-rdf-syntax-ns#">
   <cc:Work>
    <dc:type rdf:resource="http://purl.org/dc/dcmitype/StillImage"/>
    <dc:date>2023-07-26T15:23:48.717484</dc:date>
    <dc:format>image/svg+xml</dc:format>
    <dc:creator>
     <cc:Agent>
      <dc:title>Matplotlib v3.5.2, https://matplotlib.org/</dc:title>
     </cc:Agent>
    </dc:creator>
   </cc:Work>
  </rdf:RDF>
 </metadata>
 <defs>
  <style type="text/css">*{stroke-linejoin: round; stroke-linecap: butt}</style>
 </defs>
 <g id="figure_1">
  <g id="patch_1">
   <path d="M 0 426.931498 
L 509.560863 426.931498 
L 509.560863 0 
L 0 0 
z
" style="fill: #ffffff"/>
  </g>
  <g id="axes_1">
   <g id="patch_2">
    <path d="M 45.555547 384.157026 
L 491.955547 384.157026 
L 491.955547 51.517026 
L 45.555547 51.517026 
z
" style="fill: #ffffff"/>
   </g>
   <g id="PolyCollection_1">
    <defs>
     <path id="m1e9cf3c7d3" d="M 150.551275 -42.774639 
L 150.551275 -42.774472 
L 152.173044 -42.774472 
L 153.794812 -42.774472 
L 155.416581 -42.774472 
L 157.03835 -42.774472 
L 158.660119 -42.774472 
L 160.281888 -42.774472 
L 161.903657 -42.774472 
L 163.525426 -42.774472 
L 165.147195 -42.774472 
L 166.768964 -42.774472 
L 168.390733 -42.774472 
L 170.012502 -42.774472 
L 171.634271 -42.774472 
L 173.25604 -42.774472 
L 174.877809 -42.774472 
L 176.499578 -42.774472 
L 178.121347 -42.774472 
L 179.743116 -42.774472 
L 181.364885 -42.774472 
L 182.986654 -42.774472 
L 184.608423 -42.774472 
L 186.230192 -42.774472 
L 187.851961 -42.774472 
L 189.47373 -42.774472 
L 191.095499 -42.774472 
L 192.717268 -42.774472 
L 194.339036 -42.774472 
L 195.960805 -42.774472 
L 197.582574 -42.774472 
L 199.204343 -42.774472 
L 200.826112 -42.774472 
L 202.447881 -42.774472 
L 204.06965 -42.774472 
L 205.691419 -42.774472 
L 207.313188 -42.774472 
L 208.934957 -42.774472 
L 210.556726 -42.774472 
L 212.178495 -42.774472 
L 213.800264 -42.774472 
L 215.422033 -42.774472 
L 217.043802 -42.774472 
L 218.665571 -42.774472 
L 220.28734 -42.774472 
L 221.909109 -42.774472 
L 223.530878 -42.774472 
L 225.152647 -42.774472 
L 226.774416 -42.774472 
L 228.396185 -42.774472 
L 230.017954 -42.774472 
L 231.639723 -42.774472 
L 233.261491 -42.774472 
L 234.88326 -42.774472 
L 236.505029 -42.774472 
L 238.126798 -42.774472 
L 239.748567 -42.774472 
L 241.370336 -42.774472 
L 242.992105 -42.774472 
L 244.613874 -42.774472 
L 246.235643 -42.774472 
L 247.857412 -42.774472 
L 249.479181 -42.774472 
L 251.10095 -42.774472 
L 252.722719 -42.774472 
L 254.344488 -42.774472 
L 255.966257 -42.774472 
L 257.588026 -42.774472 
L 259.209795 -42.774472 
L 260.831564 -42.774472 
L 262.453333 -42.774472 
L 264.075102 -42.774472 
L 265.696871 -42.774472 
L 267.31864 -42.774472 
L 268.940409 -42.774472 
L 270.562178 -42.774472 
L 272.183947 -42.774472 
L 273.805715 -42.774472 
L 275.427484 -42.774472 
L 277.049253 -42.774472 
L 278.671022 -42.774472 
L 280.292791 -42.774472 
L 281.91456 -42.774472 
L 283.536329 -42.774472 
L 285.158098 -42.774472 
L 286.779867 -42.774472 
L 288.401636 -42.774472 
L 290.023405 -42.774472 
L 291.645174 -42.774472 
L 293.266943 -42.774472 
L 294.888712 -42.774472 
L 296.510481 -42.774472 
L 298.13225 -42.774472 
L 299.754019 -42.774472 
L 301.375788 -42.774472 
L 302.997557 -42.774472 
L 304.619326 -42.774472 
L 306.241095 -42.774472 
L 307.862864 -42.774472 
L 309.484633 -42.774472 
L 311.106402 -42.774472 
L 312.728171 -42.774472 
L 314.349939 -42.774472 
L 315.971708 -42.774472 
L 317.593477 -42.774472 
L 319.215246 -42.774472 
L 320.837015 -42.774472 
L 322.458784 -42.774472 
L 324.080553 -42.774472 
L 325.702322 -42.774472 
L 327.324091 -42.774472 
L 328.94586 -42.774472 
L 330.567629 -42.774472 
L 332.189398 -42.774472 
L 333.811167 -42.774472 
L 335.432936 -42.774472 
L 337.054705 -42.774472 
L 338.676474 -42.774472 
L 340.298243 -42.774472 
L 341.920012 -42.774472 
L 343.541781 -42.774472 
L 345.16355 -42.774472 
L 346.785319 -42.774472 
L 348.407088 -42.774472 
L 350.028857 -42.774472 
L 351.650626 -42.774472 
L 353.272394 -42.774472 
L 354.894163 -42.774472 
L 356.515932 -42.774472 
L 358.137701 -42.774472 
L 359.75947 -42.774472 
L 361.381239 -42.774472 
L 363.003008 -42.774472 
L 364.624777 -42.774472 
L 366.246546 -42.774472 
L 367.868315 -42.774472 
L 369.490084 -42.774472 
L 371.111853 -42.774472 
L 372.733622 -42.774472 
L 374.355391 -42.774472 
L 375.97716 -42.774472 
L 377.598929 -42.774472 
L 379.220698 -42.774472 
L 380.842467 -42.774472 
L 382.464236 -42.774472 
L 384.086005 -42.774472 
L 385.707774 -42.774472 
L 387.329543 -42.774472 
L 388.951312 -42.774472 
L 390.573081 -42.774472 
L 392.19485 -42.774472 
L 393.816618 -42.774472 
L 395.438387 -42.774472 
L 397.060156 -42.774472 
L 398.681925 -42.774472 
L 400.303694 -42.774472 
L 401.925463 -42.774472 
L 403.547232 -42.774472 
L 405.169001 -42.774472 
L 406.79077 -42.774472 
L 408.412539 -42.774472 
L 410.034308 -42.774472 
L 411.656077 -42.774472 
L 413.277846 -42.774472 
L 414.899615 -42.774472 
L 416.521384 -42.774472 
L 418.143153 -42.774472 
L 419.764922 -42.774472 
L 421.386691 -42.774472 
L 423.00846 -42.774472 
L 424.630229 -42.774472 
L 426.251998 -42.774472 
L 427.873767 -42.774472 
L 429.495536 -42.774472 
L 431.117305 -42.774472 
L 432.739073 -42.774472 
L 434.360842 -42.774472 
L 435.982611 -42.774472 
L 437.60438 -42.774472 
L 439.226149 -42.774472 
L 440.847918 -42.774472 
L 442.469687 -42.774472 
L 444.091456 -42.774472 
L 445.713225 -42.774472 
L 447.334994 -42.774472 
L 448.956763 -42.774472 
L 450.578532 -42.774472 
L 452.200301 -42.774472 
L 453.82207 -42.774472 
L 455.443839 -42.774472 
L 457.065608 -42.774472 
L 458.687377 -42.774472 
L 460.309146 -42.774472 
L 461.930915 -42.774472 
L 463.552684 -42.774472 
L 465.174453 -42.774472 
L 466.796222 -42.774472 
L 468.417991 -42.774472 
L 470.03976 -42.774472 
L 471.661529 -42.774472 
L 473.283297 -42.774472 
L 473.283297 -42.774639 
L 473.283297 -42.774639 
L 471.661529 -42.775192 
L 470.03976 -42.776804 
L 468.417991 -42.780149 
L 466.796222 -42.78485 
L 465.174453 -42.788725 
L 463.552684 -42.789175 
L 461.930915 -42.785866 
L 460.309146 -42.781105 
L 458.687377 -42.777373 
L 457.065608 -42.775431 
L 455.443839 -42.774751 
L 453.82207 -42.774752 
L 452.200301 -42.775437 
L 450.578532 -42.777402 
L 448.956763 -42.781233 
L 447.334994 -42.786398 
L 445.713225 -42.790986 
L 444.091456 -42.793514 
L 442.469687 -42.794612 
L 440.847918 -42.795734 
L 439.226149 -42.797026 
L 437.60438 -42.797606 
L 435.982611 -42.796764 
L 434.360842 -42.794347 
L 432.739073 -42.791432 
L 431.117305 -42.790316 
L 429.495536 -42.792423 
L 427.873767 -42.797247 
L 426.251998 -42.804437 
L 424.630229 -42.814994 
L 423.00846 -42.828714 
L 421.386691 -42.842162 
L 419.764922 -42.851366 
L 418.143153 -42.856262 
L 416.521384 -42.860842 
L 414.899615 -42.868047 
L 413.277846 -42.876022 
L 411.656077 -42.881816 
L 410.034308 -42.88806 
L 408.412539 -42.902445 
L 406.79077 -42.928771 
L 405.169001 -42.960615 
L 403.547232 -42.98716 
L 401.925463 -43.005365 
L 400.303694 -43.023724 
L 398.681925 -43.053855 
L 397.060156 -43.099756 
L 395.438387 -43.155082 
L 393.816618 -43.211732 
L 392.19485 -43.269978 
L 390.573081 -43.334343 
L 388.951312 -43.400268 
L 387.329543 -43.456044 
L 385.707774 -43.502723 
L 384.086005 -43.562902 
L 382.464236 -43.661875 
L 380.842467 -43.803944 
L 379.220698 -43.971744 
L 377.598929 -44.143802 
L 375.97716 -44.308605 
L 374.355391 -44.470857 
L 372.733622 -44.65458 
L 371.111853 -44.892329 
L 369.490084 -45.195418 
L 367.868315 -45.5344 
L 366.246546 -45.863815 
L 364.624777 -46.171706 
L 363.003008 -46.485766 
L 361.381239 -46.821435 
L 359.75947 -47.155492 
L 358.137701 -47.473271 
L 356.515932 -47.812657 
L 354.894163 -48.228892 
L 353.272394 -48.722555 
L 351.650626 -49.225525 
L 350.028857 -49.669564 
L 348.407088 -50.063588 
L 346.785319 -50.490112 
L 345.16355 -51.018731 
L 343.541781 -51.633298 
L 341.920012 -52.261457 
L 340.298243 -52.871313 
L 338.676474 -53.517229 
L 337.054705 -54.284774 
L 335.432936 -55.199404 
L 333.811167 -56.1896 
L 332.189398 -57.137078 
L 330.567629 -57.973534 
L 328.94586 -58.736688 
L 327.324091 -59.532029 
L 325.702322 -60.450211 
L 324.080553 -61.509249 
L 322.458784 -62.634496 
L 320.837015 -63.702767 
L 319.215246 -64.646046 
L 317.593477 -65.510276 
L 315.971708 -66.417418 
L 314.349939 -67.485113 
L 312.728171 -68.737975 
L 311.106402 -70.048142 
L 309.484633 -71.198492 
L 307.862864 -72.077503 
L 306.241095 -72.821502 
L 304.619326 -73.702729 
L 302.997557 -74.844306 
L 301.375788 -76.09608 
L 299.754019 -77.219797 
L 298.13225 -78.12701 
L 296.510481 -78.898163 
L 294.888712 -79.645312 
L 293.266943 -80.406229 
L 291.645174 -81.146444 
L 290.023405 -81.853468 
L 288.401636 -82.602698 
L 286.779867 -83.484588 
L 285.158098 -84.508236 
L 283.536329 -85.64162 
L 281.91456 -86.901937 
L 280.292791 -88.333622 
L 278.671022 -89.903337 
L 277.049253 -91.452954 
L 275.427484 -92.777014 
L 273.805715 -93.765311 
L 272.183947 -94.481587 
L 270.562178 -95.102316 
L 268.940409 -95.779127 
L 267.31864 -96.558234 
L 265.696871 -97.405965 
L 264.075102 -98.267652 
L 262.453333 -99.114152 
L 260.831564 -99.989362 
L 259.209795 -100.982416 
L 257.588026 -102.079591 
L 255.966257 -103.068561 
L 254.344488 -103.660352 
L 252.722719 -103.738902 
L 251.10095 -103.484423 
L 249.479181 -103.211236 
L 247.857412 -103.07794 
L 246.235643 -103.013405 
L 244.613874 -102.903743 
L 242.992105 -102.733716 
L 241.370336 -102.522832 
L 239.748567 -102.198389 
L 238.126798 -101.585538 
L 236.505029 -100.547577 
L 234.88326 -99.119153 
L 233.261491 -97.466813 
L 231.639723 -95.737711 
L 230.017954 -93.982271 
L 228.396185 -92.204306 
L 226.774416 -90.414717 
L 225.152647 -88.584549 
L 223.530878 -86.590766 
L 221.909109 -84.306558 
L 220.28734 -81.763345 
L 218.665571 -79.15717 
L 217.043802 -76.671599 
L 215.422033 -74.335199 
L 213.800264 -72.055383 
L 212.178495 -69.741203 
L 210.556726 -67.387729 
L 208.934957 -65.085788 
L 207.313188 -62.943668 
L 205.691419 -60.972633 
L 204.06965 -59.0837 
L 202.447881 -57.204624 
L 200.826112 -55.349555 
L 199.204343 -53.589547 
L 197.582574 -52.01089 
L 195.960805 -50.673404 
L 194.339036 -49.553886 
L 192.717268 -48.555494 
L 191.095499 -47.608236 
L 189.47373 -46.731347 
L 187.851961 -45.98283 
L 186.230192 -45.381895 
L 184.608423 -44.890349 
L 182.986654 -44.453798 
L 181.364885 -44.054686 
L 179.743116 -43.718258 
L 178.121347 -43.470506 
L 176.499578 -43.307489 
L 174.877809 -43.201872 
L 173.25604 -43.122007 
L 171.634271 -43.046622 
L 170.012502 -42.972757 
L 168.390733 -42.910435 
L 166.768964 -42.866969 
L 165.147195 -42.839179 
L 163.525426 -42.820296 
L 161.903657 -42.807162 
L 160.281888 -42.798481 
L 158.660119 -42.79189 
L 157.03835 -42.785676 
L 155.416581 -42.780313 
L 153.794812 -42.776829 
L 152.173044 -42.775195 
L 150.551275 -42.774639 
z
" style="stroke: #280b53"/>
    </defs>
    <g clip-path="url(#pa507a33d16)">
     <use xlink:href="#m1e9cf3c7d3" x="0" y="426.931498" style="fill: #280b53; fill-opacity: 0.25; stroke: #280b53"/>
    </g>
   </g>
   <g id="PolyCollection_2">
    <defs>
     <path id="m1fdff7d575" d="M 39.535262 -42.774616 
L 39.535262 -42.774472 
L 41.703876 -42.774472 
L 43.872491 -42.774472 
L 46.041105 -42.774472 
L 48.20972 -42.774472 
L 50.378334 -42.774472 
L 52.546948 -42.774472 
L 54.715563 -42.774472 
L 56.884177 -42.774472 
L 59.052792 -42.774472 
L 61.221406 -42.774472 
L 63.390021 -42.774472 
L 65.558635 -42.774472 
L 67.727249 -42.774472 
L 69.895864 -42.774472 
L 72.064478 -42.774472 
L 74.233093 -42.774472 
L 76.401707 -42.774472 
L 78.570322 -42.774472 
L 80.738936 -42.774472 
L 82.907551 -42.774472 
L 85.076165 -42.774472 
L 87.244779 -42.774472 
L 89.413394 -42.774472 
L 91.582008 -42.774472 
L 93.750623 -42.774472 
L 95.919237 -42.774472 
L 98.087852 -42.774472 
L 100.256466 -42.774472 
L 102.42508 -42.774472 
L 104.593695 -42.774472 
L 106.762309 -42.774472 
L 108.930924 -42.774472 
L 111.099538 -42.774472 
L 113.268153 -42.774472 
L 115.436767 -42.774472 
L 117.605381 -42.774472 
L 119.773996 -42.774472 
L 121.94261 -42.774472 
L 124.111225 -42.774472 
L 126.279839 -42.774472 
L 128.448454 -42.774472 
L 130.617068 -42.774472 
L 132.785682 -42.774472 
L 134.954297 -42.774472 
L 137.122911 -42.774472 
L 139.291526 -42.774472 
L 141.46014 -42.774472 
L 143.628755 -42.774472 
L 145.797369 -42.774472 
L 147.965983 -42.774472 
L 150.134598 -42.774472 
L 152.303212 -42.774472 
L 154.471827 -42.774472 
L 156.640441 -42.774472 
L 158.809056 -42.774472 
L 160.97767 -42.774472 
L 163.146285 -42.774472 
L 165.314899 -42.774472 
L 167.483513 -42.774472 
L 169.652128 -42.774472 
L 171.820742 -42.774472 
L 173.989357 -42.774472 
L 176.157971 -42.774472 
L 178.326586 -42.774472 
L 180.4952 -42.774472 
L 182.663814 -42.774472 
L 184.832429 -42.774472 
L 187.001043 -42.774472 
L 189.169658 -42.774472 
L 191.338272 -42.774472 
L 193.506887 -42.774472 
L 195.675501 -42.774472 
L 197.844115 -42.774472 
L 200.01273 -42.774472 
L 202.181344 -42.774472 
L 204.349959 -42.774472 
L 206.518573 -42.774472 
L 208.687188 -42.774472 
L 210.855802 -42.774472 
L 213.024416 -42.774472 
L 215.193031 -42.774472 
L 217.361645 -42.774472 
L 219.53026 -42.774472 
L 221.698874 -42.774472 
L 223.867489 -42.774472 
L 226.036103 -42.774472 
L 228.204717 -42.774472 
L 230.373332 -42.774472 
L 232.541946 -42.774472 
L 234.710561 -42.774472 
L 236.879175 -42.774472 
L 239.04779 -42.774472 
L 241.216404 -42.774472 
L 243.385019 -42.774472 
L 245.553633 -42.774472 
L 247.722247 -42.774472 
L 249.890862 -42.774472 
L 252.059476 -42.774472 
L 254.228091 -42.774472 
L 256.396705 -42.774472 
L 258.56532 -42.774472 
L 260.733934 -42.774472 
L 262.902548 -42.774472 
L 265.071163 -42.774472 
L 267.239777 -42.774472 
L 269.408392 -42.774472 
L 271.577006 -42.774472 
L 273.745621 -42.774472 
L 275.914235 -42.774472 
L 278.082849 -42.774472 
L 280.251464 -42.774472 
L 282.420078 -42.774472 
L 284.588693 -42.774472 
L 286.757307 -42.774472 
L 288.925922 -42.774472 
L 291.094536 -42.774472 
L 293.26315 -42.774472 
L 295.431765 -42.774472 
L 297.600379 -42.774472 
L 299.768994 -42.774472 
L 301.937608 -42.774472 
L 304.106223 -42.774472 
L 306.274837 -42.774472 
L 308.443451 -42.774472 
L 310.612066 -42.774472 
L 312.78068 -42.774472 
L 314.949295 -42.774472 
L 317.117909 -42.774472 
L 319.286524 -42.774472 
L 321.455138 -42.774472 
L 323.623753 -42.774472 
L 325.792367 -42.774472 
L 327.960981 -42.774472 
L 330.129596 -42.774472 
L 332.29821 -42.774472 
L 334.466825 -42.774472 
L 336.635439 -42.774472 
L 338.804054 -42.774472 
L 340.972668 -42.774472 
L 343.141282 -42.774472 
L 345.309897 -42.774472 
L 347.478511 -42.774472 
L 349.647126 -42.774472 
L 351.81574 -42.774472 
L 353.984355 -42.774472 
L 356.152969 -42.774472 
L 358.321583 -42.774472 
L 360.490198 -42.774472 
L 362.658812 -42.774472 
L 364.827427 -42.774472 
L 366.996041 -42.774472 
L 369.164656 -42.774472 
L 371.33327 -42.774472 
L 373.501884 -42.774472 
L 375.670499 -42.774472 
L 377.839113 -42.774472 
L 380.007728 -42.774472 
L 382.176342 -42.774472 
L 384.344957 -42.774472 
L 386.513571 -42.774472 
L 388.682185 -42.774472 
L 390.8508 -42.774472 
L 393.019414 -42.774472 
L 395.188029 -42.774472 
L 397.356643 -42.774472 
L 399.525258 -42.774472 
L 401.693872 -42.774472 
L 403.862487 -42.774472 
L 406.031101 -42.774472 
L 408.199715 -42.774472 
L 410.36833 -42.774472 
L 412.536944 -42.774472 
L 414.705559 -42.774472 
L 416.874173 -42.774472 
L 419.042788 -42.774472 
L 421.211402 -42.774472 
L 423.380016 -42.774472 
L 425.548631 -42.774472 
L 427.717245 -42.774472 
L 429.88586 -42.774472 
L 432.054474 -42.774472 
L 434.223089 -42.774472 
L 436.391703 -42.774472 
L 438.560317 -42.774472 
L 440.728932 -42.774472 
L 442.897546 -42.774472 
L 445.066161 -42.774472 
L 447.234775 -42.774472 
L 449.40339 -42.774472 
L 451.572004 -42.774472 
L 453.740618 -42.774472 
L 455.909233 -42.774472 
L 458.077847 -42.774472 
L 460.246462 -42.774472 
L 462.415076 -42.774472 
L 464.583691 -42.774472 
L 466.752305 -42.774472 
L 468.920919 -42.774472 
L 471.089534 -42.774472 
L 471.089534 -42.774614 
L 471.089534 -42.774614 
L 468.920919 -42.775206 
L 466.752305 -42.777087 
L 464.583691 -42.780903 
L 462.415076 -42.785389 
L 460.246462 -42.787264 
L 458.077847 -42.784819 
L 455.909233 -42.780249 
L 453.740618 -42.776702 
L 451.572004 -42.775104 
L 449.40339 -42.77487 
L 447.234775 -42.775941 
L 445.066161 -42.779588 
L 442.897546 -42.787099 
L 440.728932 -42.796798 
L 438.560317 -42.804572 
L 436.391703 -42.810894 
L 434.223089 -42.823214 
L 432.054474 -42.845243 
L 429.88586 -42.867709 
L 427.717245 -42.876887 
L 425.548631 -42.872428 
L 423.380016 -42.86951 
L 421.211402 -42.879989 
L 419.042788 -42.902231 
L 416.874173 -42.933677 
L 414.705559 -42.978074 
L 412.536944 -43.036324 
L 410.36833 -43.102099 
L 408.199715 -43.165381 
L 406.031101 -43.21776 
L 403.862487 -43.262986 
L 401.693872 -43.317786 
L 399.525258 -43.395461 
L 397.356643 -43.49321 
L 395.188029 -43.589339 
L 393.019414 -43.659277 
L 390.8508 -43.711952 
L 388.682185 -43.793893 
L 386.513571 -43.942069 
L 384.344957 -44.151884 
L 382.176342 -44.397605 
L 380.007728 -44.659783 
L 377.839113 -44.927072 
L 375.670499 -45.1997 
L 373.501884 -45.503629 
L 371.33327 -45.874112 
L 369.164656 -46.311646 
L 366.996041 -46.781626 
L 364.827427 -47.256354 
L 362.658812 -47.730679 
L 360.490198 -48.222148 
L 358.321583 -48.771967 
L 356.152969 -49.409738 
L 353.984355 -50.124708 
L 351.81574 -50.891907 
L 349.647126 -51.693912 
L 347.478511 -52.516453 
L 345.309897 -53.357967 
L 343.141282 -54.235657 
L 340.972668 -55.180288 
L 338.804054 -56.248887 
L 336.635439 -57.492649 
L 334.466825 -58.852075 
L 332.29821 -60.152687 
L 330.129596 -61.305249 
L 327.960981 -62.463965 
L 325.792367 -63.860213 
L 323.623753 -65.511212 
L 321.455138 -67.220383 
L 319.286524 -68.807049 
L 317.117909 -70.222556 
L 314.949295 -71.504105 
L 312.78068 -72.727269 
L 310.612066 -74.000424 
L 308.443451 -75.413576 
L 306.274837 -76.986891 
L 304.106223 -78.677122 
L 301.937608 -80.36257 
L 299.768994 -81.93087 
L 297.600379 -83.460509 
L 295.431765 -85.093202 
L 293.26315 -86.729212 
L 291.094536 -88.133015 
L 288.925922 -89.287047 
L 286.757307 -90.432588 
L 284.588693 -91.83117 
L 282.420078 -93.475821 
L 280.251464 -95.005439 
L 278.082849 -96.096371 
L 275.914235 -96.796702 
L 273.745621 -97.235643 
L 271.577006 -97.322338 
L 269.408392 -96.95948 
L 267.239777 -96.305956 
L 265.071163 -95.695543 
L 262.902548 -95.356732 
L 260.733934 -95.198885 
L 258.56532 -94.874416 
L 256.396705 -94.11358 
L 254.228091 -93.011667 
L 252.059476 -91.916875 
L 249.890862 -91.019439 
L 247.722247 -90.152951 
L 245.553633 -89.004391 
L 243.385019 -87.42733 
L 241.216404 -85.566294 
L 239.04779 -83.752243 
L 236.879175 -82.252446 
L 234.710561 -81.041444 
L 232.541946 -79.845609 
L 230.373332 -78.441976 
L 228.204717 -76.821264 
L 226.036103 -75.087091 
L 223.867489 -73.318119 
L 221.698874 -71.510769 
L 219.53026 -69.657308 
L 217.361645 -67.892556 
L 215.193031 -66.411156 
L 213.024416 -65.163516 
L 210.855802 -63.83825 
L 208.687188 -62.25735 
L 206.518573 -60.599678 
L 204.349959 -59.146899 
L 202.181344 -57.976679 
L 200.01273 -56.990195 
L 197.844115 -56.089691 
L 195.675501 -55.242882 
L 193.506887 -54.467497 
L 191.338272 -53.762473 
L 189.169658 -53.037881 
L 187.001043 -52.208914 
L 184.832429 -51.320806 
L 182.663814 -50.466213 
L 180.4952 -49.680284 
L 178.326586 -48.987217 
L 176.157971 -48.425229 
L 173.989357 -47.995549 
L 171.820742 -47.643043 
L 169.652128 -47.278951 
L 167.483513 -46.843829 
L 165.314899 -46.376466 
L 163.146285 -45.980086 
L 160.97767 -45.70868 
L 158.809056 -45.519608 
L 156.640441 -45.337559 
L 154.471827 -45.138269 
L 152.303212 -44.94306 
L 150.134598 -44.752882 
L 147.965983 -44.544518 
L 145.797369 -44.319991 
L 143.628755 -44.109866 
L 141.46014 -43.936599 
L 139.291526 -43.802906 
L 137.122911 -43.707836 
L 134.954297 -43.649812 
L 132.785682 -43.606588 
L 130.617068 -43.541994 
L 128.448454 -43.448598 
L 126.279839 -43.351665 
L 124.111225 -43.267634 
L 121.94261 -43.195768 
L 119.773996 -43.142661 
L 117.605381 -43.11982 
L 115.436767 -43.122155 
L 113.268153 -43.129872 
L 111.099538 -43.130134 
L 108.930924 -43.125396 
L 106.762309 -43.123466 
L 104.593695 -43.128047 
L 102.42508 -43.136056 
L 100.256466 -43.139622 
L 98.087852 -43.128865 
L 95.919237 -43.094988 
L 93.750623 -43.038509 
L 91.582008 -42.974361 
L 89.413394 -42.923549 
L 87.244779 -42.899045 
L 85.076165 -42.898123 
L 82.907551 -42.90695 
L 80.738936 -42.910439 
L 78.570322 -42.897715 
L 76.401707 -42.868511 
L 74.233093 -42.837162 
L 72.064478 -42.820089 
L 69.895864 -42.819608 
L 67.727249 -42.825512 
L 65.558635 -42.8266 
L 63.390021 -42.817873 
L 61.221406 -42.803541 
L 59.052792 -42.793074 
L 56.884177 -42.791075 
L 54.715563 -42.793928 
L 52.546948 -42.795741 
L 50.378334 -42.79355 
L 48.20972 -42.787907 
L 46.041105 -42.781601 
L 43.872491 -42.77722 
L 41.703876 -42.775223 
L 39.535262 -42.774616 
z
" style="stroke: #9f2a63"/>
    </defs>
    <g clip-path="url(#pa507a33d16)">
     <use xlink:href="#m1fdff7d575" x="0" y="426.931498" style="fill: #9f2a63; fill-opacity: 0.25; stroke: #9f2a63"/>
    </g>
   </g>
   <g id="PolyCollection_3">
    <defs>
     <path id="mf873751de7" d="M 185.335064 -42.774753 
L 185.335064 -42.774472 
L 186.336248 -42.774472 
L 187.337433 -42.774472 
L 188.338617 -42.774472 
L 189.339801 -42.774472 
L 190.340985 -42.774472 
L 191.34217 -42.774472 
L 192.343354 -42.774472 
L 193.344538 -42.774472 
L 194.345722 -42.774472 
L 195.346907 -42.774472 
L 196.348091 -42.774472 
L 197.349275 -42.774472 
L 198.35046 -42.774472 
L 199.351644 -42.774472 
L 200.352828 -42.774472 
L 201.354012 -42.774472 
L 202.355197 -42.774472 
L 203.356381 -42.774472 
L 204.357565 -42.774472 
L 205.35875 -42.774472 
L 206.359934 -42.774472 
L 207.361118 -42.774472 
L 208.362302 -42.774472 
L 209.363487 -42.774472 
L 210.364671 -42.774472 
L 211.365855 -42.774472 
L 212.367039 -42.774472 
L 213.368224 -42.774472 
L 214.369408 -42.774472 
L 215.370592 -42.774472 
L 216.371777 -42.774472 
L 217.372961 -42.774472 
L 218.374145 -42.774472 
L 219.375329 -42.774472 
L 220.376514 -42.774472 
L 221.377698 -42.774472 
L 222.378882 -42.774472 
L 223.380066 -42.774472 
L 224.381251 -42.774472 
L 225.382435 -42.774472 
L 226.383619 -42.774472 
L 227.384804 -42.774472 
L 228.385988 -42.774472 
L 229.387172 -42.774472 
L 230.388356 -42.774472 
L 231.389541 -42.774472 
L 232.390725 -42.774472 
L 233.391909 -42.774472 
L 234.393094 -42.774472 
L 235.394278 -42.774472 
L 236.395462 -42.774472 
L 237.396646 -42.774472 
L 238.397831 -42.774472 
L 239.399015 -42.774472 
L 240.400199 -42.774472 
L 241.401383 -42.774472 
L 242.402568 -42.774472 
L 243.403752 -42.774472 
L 244.404936 -42.774472 
L 245.406121 -42.774472 
L 246.407305 -42.774472 
L 247.408489 -42.774472 
L 248.409673 -42.774472 
L 249.410858 -42.774472 
L 250.412042 -42.774472 
L 251.413226 -42.774472 
L 252.41441 -42.774472 
L 253.415595 -42.774472 
L 254.416779 -42.774472 
L 255.417963 -42.774472 
L 256.419148 -42.774472 
L 257.420332 -42.774472 
L 258.421516 -42.774472 
L 259.4227 -42.774472 
L 260.423885 -42.774472 
L 261.425069 -42.774472 
L 262.426253 -42.774472 
L 263.427438 -42.774472 
L 264.428622 -42.774472 
L 265.429806 -42.774472 
L 266.43099 -42.774472 
L 267.432175 -42.774472 
L 268.433359 -42.774472 
L 269.434543 -42.774472 
L 270.435727 -42.774472 
L 271.436912 -42.774472 
L 272.438096 -42.774472 
L 273.43928 -42.774472 
L 274.440465 -42.774472 
L 275.441649 -42.774472 
L 276.442833 -42.774472 
L 277.444017 -42.774472 
L 278.445202 -42.774472 
L 279.446386 -42.774472 
L 280.44757 -42.774472 
L 281.448754 -42.774472 
L 282.449939 -42.774472 
L 283.451123 -42.774472 
L 284.452307 -42.774472 
L 285.453492 -42.774472 
L 286.454676 -42.774472 
L 287.45586 -42.774472 
L 288.457044 -42.774472 
L 289.458229 -42.774472 
L 290.459413 -42.774472 
L 291.460597 -42.774472 
L 292.461781 -42.774472 
L 293.462966 -42.774472 
L 294.46415 -42.774472 
L 295.465334 -42.774472 
L 296.466519 -42.774472 
L 297.467703 -42.774472 
L 298.468887 -42.774472 
L 299.470071 -42.774472 
L 300.471256 -42.774472 
L 301.47244 -42.774472 
L 302.473624 -42.774472 
L 303.474809 -42.774472 
L 304.475993 -42.774472 
L 305.477177 -42.774472 
L 306.478361 -42.774472 
L 307.479546 -42.774472 
L 308.48073 -42.774472 
L 309.481914 -42.774472 
L 310.483098 -42.774472 
L 311.484283 -42.774472 
L 312.485467 -42.774472 
L 313.486651 -42.774472 
L 314.487836 -42.774472 
L 315.48902 -42.774472 
L 316.490204 -42.774472 
L 317.491388 -42.774472 
L 318.492573 -42.774472 
L 319.493757 -42.774472 
L 320.494941 -42.774472 
L 321.496125 -42.774472 
L 322.49731 -42.774472 
L 323.498494 -42.774472 
L 324.499678 -42.774472 
L 325.500863 -42.774472 
L 326.502047 -42.774472 
L 327.503231 -42.774472 
L 328.504415 -42.774472 
L 329.5056 -42.774472 
L 330.506784 -42.774472 
L 331.507968 -42.774472 
L 332.509153 -42.774472 
L 333.510337 -42.774472 
L 334.511521 -42.774472 
L 335.512705 -42.774472 
L 336.51389 -42.774472 
L 337.515074 -42.774472 
L 338.516258 -42.774472 
L 339.517442 -42.774472 
L 340.518627 -42.774472 
L 341.519811 -42.774472 
L 342.520995 -42.774472 
L 343.52218 -42.774472 
L 344.523364 -42.774472 
L 345.524548 -42.774472 
L 346.525732 -42.774472 
L 347.526917 -42.774472 
L 348.528101 -42.774472 
L 349.529285 -42.774472 
L 350.530469 -42.774472 
L 351.531654 -42.774472 
L 352.532838 -42.774472 
L 353.534022 -42.774472 
L 354.535207 -42.774472 
L 355.536391 -42.774472 
L 356.537575 -42.774472 
L 357.538759 -42.774472 
L 358.539944 -42.774472 
L 359.541128 -42.774472 
L 360.542312 -42.774472 
L 361.543496 -42.774472 
L 362.544681 -42.774472 
L 363.545865 -42.774472 
L 364.547049 -42.774472 
L 365.548234 -42.774472 
L 366.549418 -42.774472 
L 367.550602 -42.774472 
L 368.551786 -42.774472 
L 369.552971 -42.774472 
L 370.554155 -42.774472 
L 371.555339 -42.774472 
L 372.556524 -42.774472 
L 373.557708 -42.774472 
L 374.558892 -42.774472 
L 375.560076 -42.774472 
L 376.561261 -42.774472 
L 377.562445 -42.774472 
L 378.563629 -42.774472 
L 379.564813 -42.774472 
L 380.565998 -42.774472 
L 381.567182 -42.774472 
L 382.568366 -42.774472 
L 383.569551 -42.774472 
L 384.570735 -42.774472 
L 384.570735 -42.774752 
L 384.570735 -42.774752 
L 383.569551 -42.775736 
L 382.568366 -42.778676 
L 381.567182 -42.784757 
L 380.565998 -42.792989 
L 379.564813 -42.799009 
L 378.563629 -42.798407 
L 377.562445 -42.791712 
L 376.561261 -42.783941 
L 375.560076 -42.779693 
L 374.558892 -42.7808 
L 373.557708 -42.787119 
L 372.556524 -42.796533 
L 371.555339 -42.805139 
L 370.554155 -42.81025 
L 369.552971 -42.812523 
L 368.551786 -42.814227 
L 367.550602 -42.818521 
L 366.549418 -42.830863 
L 365.548234 -42.856445 
L 364.547049 -42.893955 
L 363.545865 -42.933609 
L 362.544681 -42.964222 
L 361.543496 -42.982562 
L 360.542312 -42.993128 
L 359.541128 -43.00115 
L 358.539944 -43.01147 
L 357.538759 -43.031318 
L 356.537575 -43.067473 
L 355.536391 -43.119538 
L 354.535207 -43.177838 
L 353.534022 -43.232246 
L 352.532838 -43.283827 
L 351.531654 -43.341743 
L 350.530469 -43.409704 
L 349.529285 -43.481143 
L 348.528101 -43.544358 
L 347.526917 -43.587676 
L 346.525732 -43.608503 
L 345.524548 -43.627349 
L 344.523364 -43.680568 
L 343.52218 -43.78672 
L 342.520995 -43.930872 
L 341.519811 -44.087043 
L 340.518627 -44.244152 
L 339.517442 -44.405465 
L 338.516258 -44.573916 
L 337.515074 -44.752874 
L 336.51389 -44.956361 
L 335.512705 -45.193487 
L 334.511521 -45.446488 
L 333.510337 -45.705657 
L 332.509153 -46.022572 
L 331.507968 -46.464937 
L 330.506784 -47.009151 
L 329.5056 -47.541984 
L 328.504415 -47.989326 
L 327.503231 -48.400796 
L 326.502047 -48.895216 
L 325.500863 -49.555374 
L 324.499678 -50.381073 
L 323.498494 -51.313253 
L 322.49731 -52.274971 
L 321.496125 -53.179741 
L 320.494941 -53.9497 
L 319.493757 -54.602522 
L 318.492573 -55.293927 
L 317.491388 -56.18693 
L 316.490204 -57.290714 
L 315.48902 -58.490091 
L 314.487836 -59.714211 
L 313.486651 -61.020199 
L 312.485467 -62.506879 
L 311.484283 -64.169266 
L 310.483098 -65.869611 
L 309.481914 -67.496494 
L 308.48073 -69.13309 
L 307.479546 -70.993731 
L 306.478361 -73.19756 
L 305.477177 -75.658755 
L 304.475993 -78.166618 
L 303.474809 -80.513996 
L 302.473624 -82.598899 
L 301.47244 -84.502557 
L 300.471256 -86.464415 
L 299.470071 -88.66295 
L 298.468887 -90.996354 
L 297.467703 -93.21117 
L 296.466519 -95.248694 
L 295.465334 -97.293415 
L 294.46415 -99.483951 
L 293.462966 -101.772695 
L 292.461781 -104.11247 
L 291.460597 -106.599357 
L 290.459413 -109.319556 
L 289.458229 -112.146146 
L 288.457044 -114.791204 
L 287.45586 -117.065669 
L 286.454676 -119.05058 
L 285.453492 -120.991979 
L 284.452307 -123.074661 
L 283.451123 -125.34393 
L 282.449939 -127.75081 
L 281.448754 -130.116618 
L 280.44757 -132.078178 
L 279.446386 -133.289964 
L 278.445202 -133.82994 
L 277.444017 -134.300913 
L 276.442833 -135.360023 
L 275.441649 -137.129052 
L 274.440465 -139.100607 
L 273.43928 -140.600151 
L 272.438096 -141.328592 
L 271.436912 -141.519246 
L 270.435727 -141.683265 
L 269.434543 -142.212033 
L 268.433359 -143.081455 
L 267.432175 -143.854897 
L 266.43099 -144.034047 
L 265.429806 -143.463963 
L 264.428622 -142.403207 
L 263.427438 -141.249527 
L 262.426253 -140.218307 
L 261.425069 -139.183535 
L 260.423885 -137.774476 
L 259.4227 -135.730028 
L 258.421516 -133.211954 
L 257.420332 -130.679437 
L 256.419148 -128.412333 
L 255.417963 -126.233755 
L 254.416779 -123.799512 
L 253.415595 -121.118677 
L 252.41441 -118.553807 
L 251.413226 -116.250843 
L 250.412042 -113.868639 
L 249.410858 -111.020303 
L 248.409673 -107.759953 
L 247.408489 -104.458418 
L 246.407305 -101.311254 
L 245.406121 -98.234097 
L 244.404936 -95.245504 
L 243.403752 -92.553289 
L 242.402568 -90.137883 
L 241.401383 -87.612667 
L 240.400199 -84.642937 
L 239.399015 -81.311487 
L 238.397831 -78.006653 
L 237.396646 -75.082737 
L 236.395462 -72.695437 
L 235.394278 -70.819891 
L 234.393094 -69.277437 
L 233.391909 -67.825428 
L 232.390725 -66.302195 
L 231.389541 -64.632594 
L 230.388356 -62.764359 
L 229.387172 -60.712932 
L 228.385988 -58.596689 
L 227.384804 -56.553165 
L 226.383619 -54.675718 
L 225.382435 -53.047016 
L 224.381251 -51.746196 
L 223.380066 -50.786999 
L 222.378882 -50.094961 
L 221.377698 -49.540225 
L 220.376514 -48.964837 
L 219.375329 -48.238256 
L 218.374145 -47.35913 
L 217.372961 -46.477002 
L 216.371777 -45.756851 
L 215.370592 -45.236546 
L 214.369408 -44.843227 
L 213.368224 -44.506086 
L 212.367039 -44.209105 
L 211.365855 -43.959935 
L 210.364671 -43.755062 
L 209.363487 -43.582868 
L 208.362302 -43.438113 
L 207.361118 -43.321367 
L 206.359934 -43.231955 
L 205.35875 -43.165158 
L 204.357565 -43.111732 
L 203.356381 -43.06169 
L 202.355197 -43.010716 
L 201.354012 -42.961348 
L 200.352828 -42.918976 
L 199.351644 -42.886837 
L 198.35046 -42.862947 
L 197.349275 -42.843416 
L 196.348091 -42.82957 
L 195.346907 -42.82623 
L 194.345722 -42.831466 
L 193.344538 -42.83553 
L 192.343354 -42.8318 
L 191.34217 -42.821725 
L 190.340985 -42.809038 
L 189.339801 -42.796168 
L 188.338617 -42.785498 
L 187.337433 -42.778803 
L 186.336248 -42.775752 
L 185.335064 -42.774753 
z
" style="stroke: #f57d15"/>
    </defs>
    <g clip-path="url(#pa507a33d16)">
     <use xlink:href="#mf873751de7" x="0" y="426.931498" style="fill: #f57d15; fill-opacity: 0.25; stroke: #f57d15"/>
    </g>
   </g>
   <g id="matplotlib.axis_1">
    <g id="xtick_1">
     <g id="line2d_1">
      <defs>
       <path id="m741aaf825a" d="M 0 0 
L 0 3.5 
" style="stroke: #000000; stroke-width: 0.8"/>
      </defs>
      <g>
       <use xlink:href="#m741aaf825a" x="45.555547" y="384.157026" style="stroke: #000000; stroke-width: 0.8"/>
      </g>
     </g>
     <g id="text_1">
      <!-- $\mathdefault{0.0}$ -->
      <g transform="translate(38.076726 399.459206)scale(0.12 -0.12)">
       <defs>
        <path id="CMR17-30" d="M 2688 2038 
C 2688 2430 2682 3099 2413 3613 
C 2176 4063 1798 4224 1466 4224 
C 1158 4224 768 4082 525 3620 
C 269 3137 243 2539 243 2038 
C 243 1671 250 1112 448 623 
C 723 -39 1216 -128 1466 -128 
C 1760 -128 2208 -7 2470 604 
C 2662 1048 2688 1568 2688 2038 
z
M 1466 -26 
C 1056 -26 813 328 723 816 
C 653 1196 653 1749 653 2109 
C 653 2604 653 3015 736 3407 
C 858 3954 1216 4121 1466 4121 
C 1728 4121 2067 3947 2189 3420 
C 2272 3054 2278 2623 2278 2109 
C 2278 1691 2278 1176 2202 797 
C 2067 96 1690 -26 1466 -26 
z
" transform="scale(0.015625)"/>
        <path id="CMMI12-3a" d="M 1178 307 
C 1178 492 1024 620 870 620 
C 685 620 557 467 557 313 
C 557 128 710 0 864 0 
C 1050 0 1178 153 1178 307 
z
" transform="scale(0.015625)"/>
       </defs>
       <use xlink:href="#CMR17-30" transform="scale(0.996264)"/>
       <use xlink:href="#CMMI12-3a" transform="translate(45.690477 0)scale(0.996264)"/>
       <use xlink:href="#CMR17-30" transform="translate(72.787654 0)scale(0.996264)"/>
      </g>
     </g>
    </g>
    <g id="xtick_2">
     <g id="line2d_2">
      <g>
       <use xlink:href="#m741aaf825a" x="101.355547" y="384.157026" style="stroke: #000000; stroke-width: 0.8"/>
      </g>
     </g>
     <g id="text_2">
      <!-- $\mathdefault{2.5}$ -->
      <g transform="translate(93.876726 399.459206)scale(0.12 -0.12)">
       <defs>
        <path id="CMR17-32" d="M 2669 990 
L 2554 990 
C 2490 537 2438 460 2413 422 
C 2381 371 1920 371 1830 371 
L 602 371 
C 832 620 1280 1073 1824 1596 
C 2214 1966 2669 2400 2669 3033 
C 2669 3788 2067 4224 1395 4224 
C 691 4224 262 3603 262 3027 
C 262 2777 448 2745 525 2745 
C 589 2745 781 2783 781 3007 
C 781 3206 614 3264 525 3264 
C 486 3264 448 3257 422 3244 
C 544 3788 915 4057 1306 4057 
C 1862 4057 2227 3616 2227 3033 
C 2227 2477 1901 1998 1536 1583 
L 262 147 
L 262 0 
L 2515 0 
L 2669 990 
z
" transform="scale(0.015625)"/>
        <path id="CMR17-35" d="M 730 3750 
C 794 3724 1056 3641 1325 3641 
C 1920 3641 2246 3961 2432 4140 
C 2432 4191 2432 4224 2394 4224 
C 2387 4224 2374 4224 2323 4198 
C 2099 4102 1837 4032 1517 4032 
C 1325 4032 1037 4055 723 4191 
C 653 4224 640 4224 634 4224 
C 602 4224 595 4217 595 4090 
L 595 2231 
C 595 2113 595 2080 659 2080 
C 691 2080 704 2093 736 2139 
C 941 2435 1222 2560 1542 2560 
C 1766 2560 2246 2415 2246 1293 
C 2246 1087 2246 716 2054 422 
C 1894 159 1645 25 1370 25 
C 947 25 518 319 403 812 
C 429 806 480 793 506 793 
C 589 793 749 838 749 1036 
C 749 1209 627 1280 506 1280 
C 358 1280 262 1190 262 1011 
C 262 454 704 -128 1382 -128 
C 2042 -128 2669 441 2669 1267 
C 2669 2054 2170 2662 1549 2662 
C 1222 2662 947 2540 730 2304 
L 730 3750 
z
" transform="scale(0.015625)"/>
       </defs>
       <use xlink:href="#CMR17-32" transform="scale(0.996264)"/>
       <use xlink:href="#CMMI12-3a" transform="translate(45.690477 0)scale(0.996264)"/>
       <use xlink:href="#CMR17-35" transform="translate(72.787654 0)scale(0.996264)"/>
      </g>
     </g>
    </g>
    <g id="xtick_3">
     <g id="line2d_3">
      <g>
       <use xlink:href="#m741aaf825a" x="157.155547" y="384.157026" style="stroke: #000000; stroke-width: 0.8"/>
      </g>
     </g>
     <g id="text_3">
      <!-- $\mathdefault{5.0}$ -->
      <g transform="translate(149.676726 399.459206)scale(0.12 -0.12)">
       <use xlink:href="#CMR17-35" transform="scale(0.996264)"/>
       <use xlink:href="#CMMI12-3a" transform="translate(45.690477 0)scale(0.996264)"/>
       <use xlink:href="#CMR17-30" transform="translate(72.787654 0)scale(0.996264)"/>
      </g>
     </g>
    </g>
    <g id="xtick_4">
     <g id="line2d_4">
      <g>
       <use xlink:href="#m741aaf825a" x="212.955547" y="384.157026" style="stroke: #000000; stroke-width: 0.8"/>
      </g>
     </g>
     <g id="text_4">
      <!-- $\mathdefault{7.5}$ -->
      <g transform="translate(205.476726 399.459206)scale(0.12 -0.12)">
       <defs>
        <path id="CMR17-37" d="M 2886 3955 
L 2886 4096 
L 1382 4096 
C 634 4096 621 4166 595 4288 
L 480 4288 
L 294 3104 
L 410 3104 
C 429 3226 474 3552 550 3673 
C 589 3724 1062 3724 1171 3724 
L 2579 3724 
L 1869 2670 
C 1395 1961 1069 1003 1069 166 
C 1069 89 1069 -128 1299 -128 
C 1530 -128 1530 89 1530 172 
L 1530 466 
C 1530 1514 1709 2204 2003 2644 
L 2886 3955 
z
" transform="scale(0.015625)"/>
       </defs>
       <use xlink:href="#CMR17-37" transform="scale(0.996264)"/>
       <use xlink:href="#CMMI12-3a" transform="translate(45.690477 0)scale(0.996264)"/>
       <use xlink:href="#CMR17-35" transform="translate(72.787654 0)scale(0.996264)"/>
      </g>
     </g>
    </g>
    <g id="xtick_5">
     <g id="line2d_5">
      <g>
       <use xlink:href="#m741aaf825a" x="268.755547" y="384.157026" style="stroke: #000000; stroke-width: 0.8"/>
      </g>
     </g>
     <g id="text_5">
      <!-- $\mathdefault{10.0}$ -->
      <g transform="translate(258.350231 399.459206)scale(0.12 -0.12)">
       <defs>
        <path id="CMR17-31" d="M 1702 4083 
C 1702 4217 1696 4224 1606 4224 
C 1357 3927 979 3833 621 3820 
C 602 3820 570 3820 563 3808 
C 557 3795 557 3782 557 3648 
C 755 3648 1088 3686 1344 3839 
L 1344 467 
C 1344 243 1331 166 781 166 
L 589 166 
L 589 0 
C 896 6 1216 12 1523 12 
C 1830 12 2150 6 2458 0 
L 2458 166 
L 2266 166 
C 1715 166 1702 236 1702 467 
L 1702 4083 
z
" transform="scale(0.015625)"/>
       </defs>
       <use xlink:href="#CMR17-31" transform="scale(0.996264)"/>
       <use xlink:href="#CMR17-30" transform="translate(45.690477 0)scale(0.996264)"/>
       <use xlink:href="#CMMI12-3a" transform="translate(91.380954 0)scale(0.996264)"/>
       <use xlink:href="#CMR17-30" transform="translate(118.478131 0)scale(0.996264)"/>
      </g>
     </g>
    </g>
    <g id="xtick_6">
     <g id="line2d_6">
      <g>
       <use xlink:href="#m741aaf825a" x="324.555547" y="384.157026" style="stroke: #000000; stroke-width: 0.8"/>
      </g>
     </g>
     <g id="text_6">
      <!-- $\mathdefault{12.5}$ -->
      <g transform="translate(314.150231 399.459206)scale(0.12 -0.12)">
       <use xlink:href="#CMR17-31" transform="scale(0.996264)"/>
       <use xlink:href="#CMR17-32" transform="translate(45.690477 0)scale(0.996264)"/>
       <use xlink:href="#CMMI12-3a" transform="translate(91.380954 0)scale(0.996264)"/>
       <use xlink:href="#CMR17-35" transform="translate(118.478131 0)scale(0.996264)"/>
      </g>
     </g>
    </g>
    <g id="xtick_7">
     <g id="line2d_7">
      <g>
       <use xlink:href="#m741aaf825a" x="380.355547" y="384.157026" style="stroke: #000000; stroke-width: 0.8"/>
      </g>
     </g>
     <g id="text_7">
      <!-- $\mathdefault{15.0}$ -->
      <g transform="translate(369.950231 399.459206)scale(0.12 -0.12)">
       <use xlink:href="#CMR17-31" transform="scale(0.996264)"/>
       <use xlink:href="#CMR17-35" transform="translate(45.690477 0)scale(0.996264)"/>
       <use xlink:href="#CMMI12-3a" transform="translate(91.380954 0)scale(0.996264)"/>
       <use xlink:href="#CMR17-30" transform="translate(118.478131 0)scale(0.996264)"/>
      </g>
     </g>
    </g>
    <g id="xtick_8">
     <g id="line2d_8">
      <g>
       <use xlink:href="#m741aaf825a" x="436.155547" y="384.157026" style="stroke: #000000; stroke-width: 0.8"/>
      </g>
     </g>
     <g id="text_8">
      <!-- $\mathdefault{17.5}$ -->
      <g transform="translate(425.750231 399.459206)scale(0.12 -0.12)">
       <use xlink:href="#CMR17-31" transform="scale(0.996264)"/>
       <use xlink:href="#CMR17-37" transform="translate(45.690477 0)scale(0.996264)"/>
       <use xlink:href="#CMMI12-3a" transform="translate(91.380954 0)scale(0.996264)"/>
       <use xlink:href="#CMR17-35" transform="translate(118.478131 0)scale(0.996264)"/>
      </g>
     </g>
    </g>
    <g id="xtick_9">
     <g id="line2d_9">
      <g>
       <use xlink:href="#m741aaf825a" x="491.955547" y="384.157026" style="stroke: #000000; stroke-width: 0.8"/>
      </g>
     </g>
     <g id="text_9">
      <!-- $\mathdefault{20.0}$ -->
      <g transform="translate(481.550231 399.459206)scale(0.12 -0.12)">
       <use xlink:href="#CMR17-32" transform="scale(0.996264)"/>
       <use xlink:href="#CMR17-30" transform="translate(45.690477 0)scale(0.996264)"/>
       <use xlink:href="#CMMI12-3a" transform="translate(91.380954 0)scale(0.996264)"/>
       <use xlink:href="#CMR17-30" transform="translate(118.478131 0)scale(0.996264)"/>
      </g>
     </g>
    </g>
    <g id="text_10">
     <!-- Distance [kpc] -->
     <g transform="translate(226.325282 416.244574)scale(0.14 -0.14)">
      <defs>
       <path id="CMR17-44" d="M 333 4352 
L 333 4185 
C 774 4185 845 4185 845 3898 
L 845 453 
C 845 166 774 166 333 166 
L 333 0 
L 2368 0 
C 3398 0 4224 943 4224 2140 
C 4224 3344 3411 4352 2368 4352 
L 333 4352 
z
M 1523 166 
C 1267 166 1254 198 1254 414 
L 1254 3936 
C 1254 4153 1267 4185 1523 4185 
L 2240 4185 
C 2771 4185 3750 3873 3750 2140 
C 3750 1242 3488 879 3366 707 
C 3213 510 2848 166 2240 166 
L 1523 166 
z
" transform="scale(0.015625)"/>
       <path id="CMR17-69" d="M 992 3961 
C 992 4102 877 4224 730 4224 
C 589 4224 467 4108 467 3961 
C 467 3820 582 3699 730 3699 
C 870 3699 992 3814 992 3961 
z
M 243 2745 
L 243 2579 
C 602 2579 653 2540 653 2231 
L 653 443 
C 653 198 627 166 218 166 
L 218 0 
C 371 12 646 12 806 12 
C 960 12 1222 12 1370 0 
L 1370 166 
C 992 166 979 205 979 436 
L 979 2816 
L 243 2745 
z
" transform="scale(0.015625)"/>
       <path id="CMR17-73" d="M 1978 2688 
C 1978 2803 1971 2809 1933 2809 
C 1907 2809 1901 2803 1824 2707 
C 1805 2681 1747 2617 1728 2592 
C 1523 2809 1235 2816 1126 2816 
C 416 2816 160 2444 160 2073 
C 160 1497 813 1363 998 1324 
C 1402 1241 1542 1216 1677 1100 
C 1760 1024 1901 883 1901 652 
C 1901 384 1747 38 1158 38 
C 602 38 403 460 288 1024 
C 269 1113 269 1120 218 1120 
C 166 1120 160 1113 160 985 
L 160 64 
C 160 -52 166 -58 205 -58 
C 237 -58 243 -52 275 0 
C 314 57 410 211 448 275 
C 576 102 800 -64 1158 -64 
C 1792 -64 2131 281 2131 780 
C 2131 1107 1958 1280 1875 1356 
C 1683 1555 1459 1600 1190 1651 
C 838 1728 390 1817 390 2208 
C 390 2374 480 2726 1126 2726 
C 1811 2726 1850 2086 1862 1881 
C 1869 1849 1901 1843 1920 1843 
C 1978 1843 1978 1862 1978 1971 
L 1978 2688 
z
" transform="scale(0.015625)"/>
       <path id="CMR17-74" d="M 966 2585 
L 1862 2585 
L 1862 2752 
L 966 2752 
L 966 3968 
L 851 3968 
C 838 3292 614 2700 70 2687 
L 70 2585 
L 627 2585 
L 627 778 
C 627 655 627 -64 1370 -64 
C 1747 -64 1965 308 1965 784 
L 1965 1151 
L 1850 1151 
L 1850 790 
C 1850 347 1677 51 1408 51 
C 1222 51 966 179 966 765 
L 966 2585 
z
" transform="scale(0.015625)"/>
       <path id="CMR17-61" d="M 2304 1656 
C 2304 2048 2304 2275 2035 2534 
C 1798 2751 1523 2816 1306 2816 
C 800 2816 435 2408 435 1977 
C 435 1740 627 1728 666 1728 
C 749 1728 896 1779 896 1958 
C 896 2118 774 2188 666 2188 
C 640 2188 608 2182 589 2176 
C 723 2594 1069 2713 1293 2713 
C 1613 2713 1965 2421 1965 1875 
L 1965 1632 
C 1587 1619 1133 1568 774 1373 
C 371 1147 256 822 256 576 
C 256 77 832 -64 1171 -64 
C 1523 -64 1850 135 1990 505 
C 2003 219 2182 -39 2464 -39 
C 2598 -39 2938 51 2938 563 
L 2938 926 
L 2822 926 
L 2822 557 
C 2822 161 2650 109 2566 109 
C 2304 109 2304 446 2304 732 
L 2304 1656 
z
M 1965 887 
C 1965 323 1568 38 1216 38 
C 896 38 646 278 646 576 
C 646 771 730 1114 1101 1322 
C 1408 1497 1760 1523 1965 1536 
L 1965 887 
z
" transform="scale(0.015625)"/>
       <path id="CMR17-6e" d="M 2656 1954 
C 2656 2282 2592 2816 1837 2816 
C 1331 2816 1069 2424 973 2166 
L 966 2166 
L 966 2816 
L 211 2745 
L 211 2578 
C 589 2578 646 2540 646 2231 
L 646 443 
C 646 198 621 166 211 166 
L 211 0 
C 365 12 646 12 813 12 
C 979 12 1267 12 1421 0 
L 1421 166 
C 1011 166 986 192 986 443 
L 986 1678 
C 986 2269 1344 2713 1792 2713 
C 2266 2713 2317 2289 2317 1980 
L 2317 443 
C 2317 198 2291 166 1882 166 
L 1882 0 
C 2035 12 2317 12 2483 12 
C 2650 12 2938 12 3091 0 
L 3091 166 
C 2682 166 2656 192 2656 443 
L 2656 1954 
z
" transform="scale(0.015625)"/>
       <path id="CMR17-63" d="M 2234 2240 
C 2112 2240 1933 2240 1933 2015 
C 1933 1836 2080 1785 2163 1785 
C 2208 1785 2394 1804 2394 2028 
C 2394 2476 1958 2816 1466 2816 
C 787 2816 211 2201 211 1379 
C 211 521 813 -64 1466 -64 
C 2259 -64 2458 676 2458 747 
C 2458 773 2451 792 2406 792 
C 2362 792 2355 786 2330 702 
C 2163 180 1798 51 1523 51 
C 1114 51 621 431 621 1385 
C 621 2358 1094 2700 1472 2700 
C 1722 2700 2093 2582 2234 2240 
z
" transform="scale(0.015625)"/>
       <path id="CMR17-65" d="M 2438 1503 
C 2464 1529 2464 1542 2464 1606 
C 2464 2251 2118 2816 1389 2816 
C 710 2816 173 2175 173 1394 
C 173 554 781 -64 1459 -64 
C 2176 -64 2458 619 2458 755 
C 2458 800 2419 800 2406 800 
C 2362 800 2355 787 2330 709 
C 2189 270 1837 51 1504 51 
C 1229 51 954 206 781 490 
C 582 819 582 1200 582 1503 
L 2438 1503 
z
M 589 1600 
C 634 2511 1126 2713 1382 2713 
C 1818 2713 2112 2308 2118 1600 
L 589 1600 
z
" transform="scale(0.015625)"/>
       <path id="CMR17-5b" d="M 1504 -1600 
L 1504 -1376 
L 902 -1376 
L 902 4575 
L 1504 4575 
L 1504 4800 
L 678 4800 
L 678 -1600 
L 1504 -1600 
z
" transform="scale(0.015625)"/>
       <path id="CMR17-6b" d="M 1670 1679 
C 1664 1692 1632 1730 1632 1749 
C 1632 1762 2086 2175 2144 2226 
C 2509 2532 2739 2563 2906 2570 
L 2906 2735 
C 2867 2735 2854 2735 2848 2729 
L 2534 2722 
C 2355 2722 2080 2722 1907 2735 
L 1907 2570 
C 1997 2563 2061 2513 2061 2423 
C 2061 2296 1933 2175 1926 2175 
L 960 1298 
L 960 4416 
L 198 4345 
L 198 4179 
C 576 4179 634 4141 634 3835 
L 634 439 
C 634 198 608 166 198 166 
L 198 0 
C 352 12 634 12 794 12 
C 954 12 1235 12 1389 0 
L 1389 166 
C 979 166 954 191 954 439 
L 954 1139 
L 1395 1540 
L 2042 586 
C 2118 471 2182 382 2182 299 
C 2182 185 2067 166 1990 166 
L 1990 0 
C 2144 12 2419 12 2579 12 
C 2694 12 2931 6 3040 0 
L 3040 166 
C 2739 166 2669 223 2477 503 
L 1670 1679 
z
" transform="scale(0.015625)"/>
       <path id="CMR17-70" d="M 1408 -1114 
C 998 -1114 973 -1088 973 -834 
L 973 380 
C 1158 109 1427 -64 1766 -64 
C 2406 -64 3053 503 3053 1382 
C 3053 2196 2496 2816 1837 2816 
C 1453 2816 1139 2603 960 2345 
L 960 2816 
L 198 2745 
L 198 2577 
C 576 2577 634 2539 634 2228 
L 634 -834 
C 634 -1081 608 -1114 198 -1114 
L 198 -1280 
C 352 -1268 634 -1268 800 -1268 
C 966 -1268 1254 -1268 1408 -1280 
L 1408 -1114 
z
M 973 2015 
C 973 2106 973 2241 1222 2481 
C 1254 2506 1472 2700 1792 2700 
C 2259 2700 2643 2112 2643 1376 
C 2643 639 2234 38 1728 38 
C 1498 38 1248 148 1056 451 
C 973 594 973 632 973 736 
L 973 2015 
z
" transform="scale(0.015625)"/>
       <path id="CMR17-5d" d="M 915 4800 
L 90 4800 
L 90 4575 
L 691 4575 
L 691 -1376 
L 90 -1376 
L 90 -1600 
L 915 -1600 
L 915 4800 
z
" transform="scale(0.015625)"/>
      </defs>
      <use xlink:href="#CMR17-44" transform="scale(0.996264)"/>
      <use xlink:href="#CMR17-69" transform="translate(70.393556 0)scale(0.996264)"/>
      <use xlink:href="#CMR17-73" transform="translate(95.264614 0)scale(0.996264)"/>
      <use xlink:href="#CMR17-74" transform="translate(131.065952 0)scale(0.996264)"/>
      <use xlink:href="#CMR17-61" transform="translate(166.34672 0)scale(0.996264)"/>
      <use xlink:href="#CMR17-6e" transform="translate(212.037197 0)scale(0.996264)"/>
      <use xlink:href="#CMR17-63" transform="translate(262.932567 0)scale(0.996264)"/>
      <use xlink:href="#CMR17-65" transform="translate(303.418227 0)scale(0.996264)"/>
      <use xlink:href="#CMR17-5b" transform="translate(373.979854 0)scale(0.996264)"/>
      <use xlink:href="#CMR17-6b" transform="translate(398.850912 0)scale(0.996264)"/>
      <use xlink:href="#CMR17-70" transform="translate(447.143828 0)scale(0.996264)"/>
      <use xlink:href="#CMR17-63" transform="translate(500.641637 0)scale(0.996264)"/>
      <use xlink:href="#CMR17-5d" transform="translate(541.127297 0)scale(0.996264)"/>
     </g>
    </g>
   </g>
   <g id="matplotlib.axis_2">
    <g id="ytick_1">
     <g id="line2d_10">
      <defs>
       <path id="mcf298c80e5" d="M 0 0 
L -3.5 0 
" style="stroke: #000000; stroke-width: 0.8"/>
      </defs>
      <g>
       <use xlink:href="#mcf298c80e5" x="45.555547" y="384.157026" style="stroke: #000000; stroke-width: 0.8"/>
      </g>
     </g>
     <g id="text_11">
      <!-- $\mathdefault{0.0}$ -->
      <g transform="translate(23.597905 388.308116)scale(0.12 -0.12)">
       <use xlink:href="#CMR17-30" transform="scale(0.996264)"/>
       <use xlink:href="#CMMI12-3a" transform="translate(45.690477 0)scale(0.996264)"/>
       <use xlink:href="#CMR17-30" transform="translate(72.787654 0)scale(0.996264)"/>
      </g>
     </g>
    </g>
    <g id="ytick_2">
     <g id="line2d_11">
      <g>
       <use xlink:href="#mcf298c80e5" x="45.555547" y="332.981642" style="stroke: #000000; stroke-width: 0.8"/>
      </g>
     </g>
     <g id="text_12">
      <!-- $\mathdefault{0.2}$ -->
      <g transform="translate(23.597905 337.132732)scale(0.12 -0.12)">
       <use xlink:href="#CMR17-30" transform="scale(0.996264)"/>
       <use xlink:href="#CMMI12-3a" transform="translate(45.690477 0)scale(0.996264)"/>
       <use xlink:href="#CMR17-32" transform="translate(72.787654 0)scale(0.996264)"/>
      </g>
     </g>
    </g>
    <g id="ytick_3">
     <g id="line2d_12">
      <g>
       <use xlink:href="#mcf298c80e5" x="45.555547" y="281.806257" style="stroke: #000000; stroke-width: 0.8"/>
      </g>
     </g>
     <g id="text_13">
      <!-- $\mathdefault{0.4}$ -->
      <g transform="translate(23.597905 285.957347)scale(0.12 -0.12)">
       <defs>
        <path id="CMR17-34" d="M 2150 4147 
C 2150 4281 2144 4288 2029 4288 
L 128 1254 
L 128 1088 
L 1779 1088 
L 1779 460 
C 1779 230 1766 166 1318 166 
L 1197 166 
L 1197 0 
C 1402 12 1747 12 1965 12 
C 2182 12 2528 12 2733 0 
L 2733 166 
L 2611 166 
C 2163 166 2150 230 2150 460 
L 2150 1088 
L 2803 1088 
L 2803 1254 
L 2150 1254 
L 2150 4147 
z
M 1798 3723 
L 1798 1254 
L 256 1254 
L 1798 3723 
z
" transform="scale(0.015625)"/>
       </defs>
       <use xlink:href="#CMR17-30" transform="scale(0.996264)"/>
       <use xlink:href="#CMMI12-3a" transform="translate(45.690477 0)scale(0.996264)"/>
       <use xlink:href="#CMR17-34" transform="translate(72.787654 0)scale(0.996264)"/>
      </g>
     </g>
    </g>
    <g id="ytick_4">
     <g id="line2d_13">
      <g>
       <use xlink:href="#mcf298c80e5" x="45.555547" y="230.630873" style="stroke: #000000; stroke-width: 0.8"/>
      </g>
     </g>
     <g id="text_14">
      <!-- $\mathdefault{0.6}$ -->
      <g transform="translate(23.597905 234.781963)scale(0.12 -0.12)">
       <defs>
        <path id="CMR17-36" d="M 678 2198 
C 678 3712 1395 4076 1811 4076 
C 1946 4076 2272 4049 2400 3782 
C 2298 3782 2106 3782 2106 3558 
C 2106 3385 2246 3328 2336 3328 
C 2394 3328 2566 3353 2566 3571 
C 2566 3987 2246 4224 1805 4224 
C 1043 4224 243 3411 243 2011 
C 243 257 966 -128 1478 -128 
C 2099 -128 2688 431 2688 1295 
C 2688 2101 2170 2688 1517 2688 
C 1126 2688 838 2430 678 1979 
L 678 2198 
z
M 1478 25 
C 691 25 691 1212 691 1450 
C 691 1914 909 2585 1504 2585 
C 1613 2585 1926 2585 2138 2140 
C 2253 1889 2253 1624 2253 1302 
C 2253 954 2253 696 2118 438 
C 1978 173 1773 25 1478 25 
z
" transform="scale(0.015625)"/>
       </defs>
       <use xlink:href="#CMR17-30" transform="scale(0.996264)"/>
       <use xlink:href="#CMMI12-3a" transform="translate(45.690477 0)scale(0.996264)"/>
       <use xlink:href="#CMR17-36" transform="translate(72.787654 0)scale(0.996264)"/>
      </g>
     </g>
    </g>
    <g id="ytick_5">
     <g id="line2d_14">
      <g>
       <use xlink:href="#mcf298c80e5" x="45.555547" y="179.455488" style="stroke: #000000; stroke-width: 0.8"/>
      </g>
     </g>
     <g id="text_15">
      <!-- $\mathdefault{0.8}$ -->
      <g transform="translate(23.597905 183.606578)scale(0.12 -0.12)">
       <defs>
        <path id="CMR17-38" d="M 1741 2289 
C 2144 2494 2554 2803 2554 3298 
C 2554 3884 1990 4224 1472 4224 
C 890 4224 378 3800 378 3215 
C 378 3054 416 2777 666 2533 
C 730 2469 998 2276 1171 2154 
C 883 2006 211 1652 211 945 
C 211 282 838 -128 1459 -128 
C 2144 -128 2720 366 2720 1022 
C 2720 1607 2330 1877 2074 2051 
L 1741 2289 
z
M 902 2855 
C 851 2887 595 3086 595 3388 
C 595 3781 998 4076 1459 4076 
C 1965 4076 2336 3716 2336 3298 
C 2336 2700 1670 2359 1638 2359 
C 1632 2359 1626 2359 1574 2398 
L 902 2855 
z
M 2080 1536 
C 2176 1466 2483 1253 2483 861 
C 2483 385 2010 25 1472 25 
C 890 25 448 443 448 951 
C 448 1459 838 1884 1280 2083 
L 2080 1536 
z
" transform="scale(0.015625)"/>
       </defs>
       <use xlink:href="#CMR17-30" transform="scale(0.996264)"/>
       <use xlink:href="#CMMI12-3a" transform="translate(45.690477 0)scale(0.996264)"/>
       <use xlink:href="#CMR17-38" transform="translate(72.787654 0)scale(0.996264)"/>
      </g>
     </g>
    </g>
    <g id="ytick_6">
     <g id="line2d_15">
      <g>
       <use xlink:href="#mcf298c80e5" x="45.555547" y="128.280103" style="stroke: #000000; stroke-width: 0.8"/>
      </g>
     </g>
     <g id="text_16">
      <!-- $\mathdefault{1.0}$ -->
      <g transform="translate(23.597905 132.431193)scale(0.12 -0.12)">
       <use xlink:href="#CMR17-31" transform="scale(0.996264)"/>
       <use xlink:href="#CMMI12-3a" transform="translate(45.690477 0)scale(0.996264)"/>
       <use xlink:href="#CMR17-30" transform="translate(72.787654 0)scale(0.996264)"/>
      </g>
     </g>
    </g>
    <g id="ytick_7">
     <g id="line2d_16">
      <g>
       <use xlink:href="#mcf298c80e5" x="45.555547" y="77.104719" style="stroke: #000000; stroke-width: 0.8"/>
      </g>
     </g>
     <g id="text_17">
      <!-- $\mathdefault{1.2}$ -->
      <g transform="translate(23.597905 81.255809)scale(0.12 -0.12)">
       <use xlink:href="#CMR17-31" transform="scale(0.996264)"/>
       <use xlink:href="#CMMI12-3a" transform="translate(45.690477 0)scale(0.996264)"/>
       <use xlink:href="#CMR17-32" transform="translate(72.787654 0)scale(0.996264)"/>
      </g>
     </g>
    </g>
    <g id="text_18">
     <!-- Probability density -->
     <g transform="translate(16.885876 274.87267)rotate(-90)scale(0.14 -0.14)">
      <defs>
       <path id="CMR17-50" d="M 1267 2048 
L 2291 2048 
C 3117 2048 3718 2583 3718 3187 
C 3718 3791 3130 4352 2291 4352 
L 333 4352 
L 333 4185 
C 774 4185 845 4185 845 3899 
L 845 453 
C 845 166 774 166 333 166 
L 333 0 
C 518 12 858 12 1056 12 
C 1254 12 1594 12 1779 0 
L 1779 166 
C 1338 166 1267 166 1267 453 
L 1267 2048 
z
M 1254 2182 
L 1254 3937 
C 1254 4153 1267 4185 1523 4185 
L 2170 4185 
C 2995 4185 3232 3715 3232 3187 
C 3232 2608 2950 2182 2170 2182 
L 1254 2182 
z
" transform="scale(0.015625)"/>
       <path id="CMR17-72" d="M 960 1517 
C 960 2134 1222 2713 1702 2713 
C 1747 2713 1792 2707 1837 2687 
C 1837 2687 1696 2642 1696 2475 
C 1696 2321 1818 2257 1914 2257 
C 1990 2257 2131 2302 2131 2482 
C 2131 2687 1926 2816 1709 2816 
C 1222 2816 1011 2340 947 2115 
L 941 2115 
L 941 2816 
L 198 2745 
L 198 2578 
C 576 2578 634 2540 634 2231 
L 634 443 
C 634 198 608 166 198 166 
L 198 0 
C 352 12 646 12 813 12 
C 998 12 1325 12 1498 0 
L 1498 166 
C 1037 166 960 166 960 455 
L 960 1517 
z
" transform="scale(0.015625)"/>
       <path id="CMR17-6f" d="M 2758 1356 
C 2758 2176 2163 2816 1466 2816 
C 768 2816 173 2176 173 1356 
C 173 550 768 -64 1466 -64 
C 2163 -64 2758 550 2758 1356 
z
M 1466 51 
C 1165 51 909 230 762 480 
C 602 768 582 1126 582 1408 
C 582 1676 595 2009 762 2297 
C 890 2508 1139 2713 1466 2713 
C 1754 2713 1997 2553 2150 2329 
C 2349 2028 2349 1606 2349 1408 
C 2349 1158 2336 774 2163 467 
C 1984 172 1709 51 1466 51 
z
" transform="scale(0.015625)"/>
       <path id="CMR17-62" d="M 960 4416 
L 198 4345 
L 198 4179 
C 576 4179 634 4141 634 3843 
L 634 -13 
L 749 -13 
L 934 445 
C 1120 141 1395 -64 1766 -64 
C 2406 -64 3053 503 3053 1382 
C 3053 2209 2477 2816 1830 2816 
C 1434 2816 1152 2603 960 2351 
L 960 4416 
z
M 973 2022 
C 973 2138 973 2157 1062 2293 
C 1312 2681 1670 2713 1792 2713 
C 1984 2713 2643 2610 2643 1388 
C 2643 109 1888 38 1734 38 
C 1536 38 1248 115 1043 490 
C 973 613 973 626 973 742 
L 973 2022 
z
" transform="scale(0.015625)"/>
       <path id="CMR17-6c" d="M 979 4416 
L 218 4345 
L 218 4179 
C 595 4179 653 4141 653 3835 
L 653 439 
C 653 198 627 166 218 166 
L 218 0 
C 371 12 653 12 813 12 
C 979 12 1261 12 1414 0 
L 1414 166 
C 1005 166 979 191 979 439 
L 979 4416 
z
" transform="scale(0.015625)"/>
       <path id="CMR17-79" d="M 2496 2183 
C 2656 2579 2944 2585 3034 2585 
L 3034 2752 
C 2912 2745 2752 2739 2630 2739 
C 2496 2739 2285 2739 2157 2752 
L 2157 2585 
C 2400 2566 2406 2384 2406 2332 
C 2406 2268 2394 2235 2362 2158 
L 1664 409 
L 902 2300 
C 870 2378 870 2423 870 2430 
C 870 2572 1018 2585 1171 2585 
L 1171 2752 
C 1018 2739 742 2739 582 2739 
C 410 2739 205 2739 64 2752 
L 64 2585 
C 410 2585 448 2553 531 2345 
L 1485 -31 
C 1197 -795 1030 -1242 627 -1242 
C 557 -1242 397 -1223 282 -1106 
C 429 -1093 493 -1002 493 -892 
C 493 -782 416 -685 288 -685 
C 147 -685 77 -782 77 -899 
C 77 -1158 339 -1344 627 -1344 
C 998 -1344 1229 -983 1357 -659 
L 2496 2183 
z
" transform="scale(0.015625)"/>
       <path id="CMR17-64" d="M 1869 4345 
L 1869 4179 
C 2246 4179 2304 4141 2304 3843 
L 2304 2371 
C 2278 2403 2016 2816 1498 2816 
C 845 2816 211 2228 211 1376 
C 211 529 806 -64 1434 -64 
C 1978 -64 2259 361 2291 406 
L 2291 -64 
L 3066 -13 
L 3066 154 
C 2688 154 2630 193 2630 503 
L 2630 4416 
L 1869 4345 
z
M 2291 762 
C 2291 568 2176 393 2029 264 
C 1811 70 1594 38 1472 38 
C 1286 38 621 135 621 1369 
C 621 2636 1363 2713 1530 2713 
C 1824 2713 2061 2545 2208 2313 
C 2291 2177 2291 2157 2291 2041 
L 2291 762 
z
" transform="scale(0.015625)"/>
      </defs>
      <use xlink:href="#CMR17-50" transform="scale(0.996264)"/>
      <use xlink:href="#CMR17-72" transform="translate(62.586301 0)scale(0.996264)"/>
      <use xlink:href="#CMR17-6f" transform="translate(97.867068 0)scale(0.996264)"/>
      <use xlink:href="#CMR17-62" transform="translate(143.557545 0)scale(0.996264)"/>
      <use xlink:href="#CMR17-61" transform="translate(194.452915 0)scale(0.996264)"/>
      <use xlink:href="#CMR17-62" transform="translate(240.143392 0)scale(0.996264)"/>
      <use xlink:href="#CMR17-69" transform="translate(291.038762 0)scale(0.996264)"/>
      <use xlink:href="#CMR17-6c" transform="translate(315.909821 0)scale(0.996264)"/>
      <use xlink:href="#CMR17-69" transform="translate(340.780879 0)scale(0.996264)"/>
      <use xlink:href="#CMR17-74" transform="translate(365.651938 0)scale(0.996264)"/>
      <use xlink:href="#CMR17-79" transform="translate(398.330251 0)scale(0.996264)"/>
      <use xlink:href="#CMR17-64" transform="translate(476.699134 0)scale(0.996264)"/>
      <use xlink:href="#CMR17-65" transform="translate(527.594503 0)scale(0.996264)"/>
      <use xlink:href="#CMR17-6e" transform="translate(568.080164 0)scale(0.996264)"/>
      <use xlink:href="#CMR17-73" transform="translate(618.975534 0)scale(0.996264)"/>
      <use xlink:href="#CMR17-69" transform="translate(654.776871 0)scale(0.996264)"/>
      <use xlink:href="#CMR17-74" transform="translate(679.64793 0)scale(0.996264)"/>
      <use xlink:href="#CMR17-79" transform="translate(712.326244 0)scale(0.996264)"/>
     </g>
    </g>
   </g>
   <g id="line2d_17">
    <path d="M 268.755547 384.157026 
L 268.755547 51.517026 
" clip-path="url(#pa507a33d16)" style="fill: none; stroke-dasharray: 5.55,2.4; stroke-dashoffset: 0; stroke: #000000; stroke-width: 1.5"/>
   </g>
   <g id="patch_3">
    <path d="M 45.555547 384.157026 
L 45.555547 51.517026 
" style="fill: none; stroke: #000000; stroke-width: 0.8; stroke-linejoin: miter; stroke-linecap: square"/>
   </g>
   <g id="patch_4">
    <path d="M 491.955547 384.157026 
L 491.955547 51.517026 
" style="fill: none; stroke: #000000; stroke-width: 0.8; stroke-linejoin: miter; stroke-linecap: square"/>
   </g>
   <g id="patch_5">
    <path d="M 45.555547 384.157026 
L 491.955547 384.157026 
" style="fill: none; stroke: #000000; stroke-width: 0.8; stroke-linejoin: miter; stroke-linecap: square"/>
   </g>
   <g id="patch_6">
    <path d="M 45.555547 51.517026 
L 491.955547 51.517026 
" style="fill: none; stroke: #000000; stroke-width: 0.8; stroke-linejoin: miter; stroke-linecap: square"/>
   </g>
   <g id="text_19">
    <!-- Distance reconstruction  -->
    <g transform="translate(174.625662 21.036997)scale(0.2 -0.2)">
     <defs>
      <path id="CMR17-75" d="M 1882 2745 
L 1882 2579 
C 2259 2579 2317 2540 2317 2229 
L 2317 1053 
C 2317 510 2029 38 1555 38 
C 1030 38 986 355 986 691 
L 986 2816 
L 211 2745 
L 211 2579 
C 467 2579 640 2579 646 2320 
L 646 1079 
C 646 646 646 368 813 187 
C 896 103 1056 -64 1517 -64 
C 2061 -64 2272 400 2323 536 
L 2330 536 
L 2330 -64 
L 3091 -13 
L 3091 154 
C 2714 154 2656 193 2656 503 
L 2656 2816 
L 1882 2745 
z
" transform="scale(0.015625)"/>
     </defs>
     <use xlink:href="#CMR17-44" transform="scale(0.996264)"/>
     <use xlink:href="#CMR17-69" transform="translate(70.393556 0)scale(0.996264)"/>
     <use xlink:href="#CMR17-73" transform="translate(95.264614 0)scale(0.996264)"/>
     <use xlink:href="#CMR17-74" transform="translate(131.065952 0)scale(0.996264)"/>
     <use xlink:href="#CMR17-61" transform="translate(166.34672 0)scale(0.996264)"/>
     <use xlink:href="#CMR17-6e" transform="translate(212.037197 0)scale(0.996264)"/>
     <use xlink:href="#CMR17-63" transform="translate(262.932567 0)scale(0.996264)"/>
     <use xlink:href="#CMR17-65" transform="translate(303.418227 0)scale(0.996264)"/>
     <use xlink:href="#CMR17-72" transform="translate(373.979854 0)scale(0.996264)"/>
     <use xlink:href="#CMR17-65" transform="translate(409.260622 0)scale(0.996264)"/>
     <use xlink:href="#CMR17-63" transform="translate(449.746282 0)scale(0.996264)"/>
     <use xlink:href="#CMR17-6f" transform="translate(490.231943 0)scale(0.996264)"/>
     <use xlink:href="#CMR17-6e" transform="translate(535.92242 0)scale(0.996264)"/>
     <use xlink:href="#CMR17-73" transform="translate(586.81779 0)scale(0.996264)"/>
     <use xlink:href="#CMR17-74" transform="translate(622.619127 0)scale(0.996264)"/>
     <use xlink:href="#CMR17-72" transform="translate(657.899895 0)scale(0.996264)"/>
     <use xlink:href="#CMR17-75" transform="translate(693.180663 0)scale(0.996264)"/>
     <use xlink:href="#CMR17-63" transform="translate(744.076033 0)scale(0.996264)"/>
     <use xlink:href="#CMR17-74" transform="translate(784.561693 0)scale(0.996264)"/>
     <use xlink:href="#CMR17-69" transform="translate(819.842461 0)scale(0.996264)"/>
     <use xlink:href="#CMR17-6f" transform="translate(844.713519 0)scale(0.996264)"/>
     <use xlink:href="#CMR17-6e" transform="translate(890.403996 0)scale(0.996264)"/>
    </g>
    <!--  using $L$ distribution and fitted parameters -->
    <g transform="translate(99.614625 41.517026)scale(0.2 -0.2)">
     <defs>
      <path id="CMR17-67" d="M 710 1165 
C 832 1068 1043 960 1299 960 
C 1805 960 2240 1359 2240 1895 
C 2240 2063 2189 2321 1997 2521 
C 2176 2713 2438 2777 2586 2777 
C 2611 2777 2650 2777 2682 2758 
C 2656 2751 2598 2726 2598 2623 
C 2598 2540 2656 2483 2739 2483 
C 2835 2483 2886 2547 2886 2630 
C 2886 2751 2790 2880 2586 2880 
C 2330 2880 2106 2758 1926 2591 
C 1734 2764 1504 2828 1299 2828 
C 794 2828 358 2431 358 1895 
C 358 1527 570 1294 634 1230 
C 442 1004 442 742 442 710 
C 442 544 506 300 723 166 
C 390 82 128 -184 128 -517 
C 128 -996 736 -1344 1466 -1344 
C 2170 -1344 2803 -1009 2803 -510 
C 2803 384 1856 384 1363 384 
C 1216 384 954 384 922 390 
C 723 422 589 601 589 825 
C 589 883 589 1024 710 1165 
z
M 1299 1068 
C 736 1068 736 1766 736 1895 
C 736 2024 736 2719 1299 2719 
C 1862 2719 1862 2024 1862 1895 
C 1862 1766 1862 1068 1299 1068 
z
M 1466 -1236 
C 826 -1236 384 -883 384 -517 
C 384 -311 493 -118 634 -11 
C 794 102 858 102 1293 102 
C 1818 102 2547 102 2547 -517 
C 2547 -883 2106 -1236 1466 -1236 
z
" transform="scale(0.015625)"/>
      <path id="CMMI12-4c" d="M 2349 3860 
C 2406 4102 2426 4166 2989 4166 
C 3162 4166 3206 4166 3206 4287 
C 3206 4352 3136 4352 3110 4352 
C 2982 4352 2835 4339 2707 4339 
L 1850 4339 
C 1728 4339 1587 4352 1466 4352 
C 1414 4352 1344 4352 1344 4230 
C 1344 4166 1402 4166 1498 4166 
C 1888 4166 1888 4115 1888 4045 
C 1888 4032 1888 3994 1862 3898 
L 998 472 
C 941 249 928 185 480 185 
C 358 185 294 185 294 70 
C 294 0 333 0 461 0 
L 3328 0 
C 3469 0 3475 6 3520 121 
L 4013 1478 
C 4026 1510 4038 1548 4038 1567 
C 4038 1605 4006 1631 3974 1631 
C 3968 1631 3936 1631 3923 1605 
C 3910 1599 3910 1586 3859 1465 
C 3654 905 3366 185 2285 185 
L 1670 185 
C 1581 185 1568 185 1530 191 
C 1459 198 1453 211 1453 262 
C 1453 306 1466 344 1478 402 
L 2349 3860 
z
" transform="scale(0.015625)"/>
      <path id="CMR17-c" d="M 2554 2816 
C 2400 2809 1926 2777 1805 2764 
C 1766 2758 1754 2758 1677 2758 
L 947 2758 
L 947 3517 
C 947 4127 1434 4416 1818 4416 
C 1939 4416 2214 4383 2355 4160 
C 2291 4160 2086 4160 2086 3935 
C 2086 3782 2189 3705 2317 3705 
C 2432 3705 2547 3769 2547 3942 
C 2547 4265 2240 4518 1843 4518 
C 1338 4518 634 4225 634 3517 
L 634 2758 
L 122 2758 
L 122 2591 
L 634 2591 
L 634 442 
C 634 198 608 166 198 166 
L 198 0 
C 352 12 634 12 794 12 
C 960 12 1242 12 1395 0 
L 1395 166 
C 986 166 960 192 960 442 
L 960 2591 
L 1901 2591 
C 2176 2591 2227 2534 2227 2251 
L 2227 442 
C 2227 198 2202 166 1792 166 
L 1792 0 
C 1946 12 2227 12 2387 12 
C 2554 12 2835 12 2989 0 
L 2989 166 
C 2579 166 2554 192 2554 442 
L 2554 2816 
z
" transform="scale(0.015625)"/>
      <path id="CMR17-6d" d="M 4326 1954 
C 4326 2276 4269 2816 3507 2816 
C 3072 2816 2771 2520 2656 2173 
L 2650 2173 
C 2573 2700 2195 2816 1837 2816 
C 1331 2816 1069 2424 973 2166 
L 966 2166 
L 966 2816 
L 211 2745 
L 211 2578 
C 589 2578 646 2540 646 2231 
L 646 443 
C 646 198 621 166 211 166 
L 211 0 
C 365 12 646 12 813 12 
C 979 12 1267 12 1421 0 
L 1421 166 
C 1011 166 986 192 986 443 
L 986 1678 
C 986 2269 1344 2713 1792 2713 
C 2266 2713 2317 2289 2317 1980 
L 2317 443 
C 2317 198 2291 166 1882 166 
L 1882 0 
C 2035 12 2317 12 2483 12 
C 2650 12 2938 12 3091 0 
L 3091 166 
C 2682 166 2656 192 2656 443 
L 2656 1678 
C 2656 2269 3014 2713 3462 2713 
C 3936 2713 3987 2289 3987 1980 
L 3987 443 
C 3987 198 3962 166 3552 166 
L 3552 0 
C 3706 12 3987 12 4154 12 
C 4320 12 4608 12 4762 0 
L 4762 166 
C 4352 166 4326 192 4326 443 
L 4326 1954 
z
" transform="scale(0.015625)"/>
     </defs>
     <use xlink:href="#CMR17-75" transform="scale(0.996264)"/>
     <use xlink:href="#CMR17-73" transform="translate(50.89537 0)scale(0.996264)"/>
     <use xlink:href="#CMR17-69" transform="translate(86.696707 0)scale(0.996264)"/>
     <use xlink:href="#CMR17-6e" transform="translate(111.567766 0)scale(0.996264)"/>
     <use xlink:href="#CMR17-67" transform="translate(162.463136 0)scale(0.996264)"/>
     <use xlink:href="#CMMI12-4c" transform="translate(238.229579 0)scale(0.996264)"/>
     <use xlink:href="#CMR17-64" transform="translate(334.676421 0)scale(0.996264)"/>
     <use xlink:href="#CMR17-69" transform="translate(385.571791 0)scale(0.996264)"/>
     <use xlink:href="#CMR17-73" transform="translate(410.442849 0)scale(0.996264)"/>
     <use xlink:href="#CMR17-74" transform="translate(446.244187 0)scale(0.996264)"/>
     <use xlink:href="#CMR17-72" transform="translate(481.524955 0)scale(0.996264)"/>
     <use xlink:href="#CMR17-69" transform="translate(516.805722 0)scale(0.996264)"/>
     <use xlink:href="#CMR17-62" transform="translate(541.676781 0)scale(0.996264)"/>
     <use xlink:href="#CMR17-75" transform="translate(592.572151 0)scale(0.996264)"/>
     <use xlink:href="#CMR17-74" transform="translate(643.46752 0)scale(0.996264)"/>
     <use xlink:href="#CMR17-69" transform="translate(678.748288 0)scale(0.996264)"/>
     <use xlink:href="#CMR17-6f" transform="translate(703.619347 0)scale(0.996264)"/>
     <use xlink:href="#CMR17-6e" transform="translate(749.309824 0)scale(0.996264)"/>
     <use xlink:href="#CMR17-61" transform="translate(830.28116 0)scale(0.996264)"/>
     <use xlink:href="#CMR17-6e" transform="translate(875.971637 0)scale(0.996264)"/>
     <use xlink:href="#CMR17-64" transform="translate(926.867007 0)scale(0.996264)"/>
     <use xlink:href="#CMR17-c" transform="translate(1007.838343 0)scale(0.996264)"/>
     <use xlink:href="#CMR17-74" transform="translate(1057.580566 0)scale(0.996264)"/>
     <use xlink:href="#CMR17-74" transform="translate(1092.861334 0)scale(0.996264)"/>
     <use xlink:href="#CMR17-65" transform="translate(1128.142102 0)scale(0.996264)"/>
     <use xlink:href="#CMR17-64" transform="translate(1168.627762 0)scale(0.996264)"/>
     <use xlink:href="#CMR17-70" transform="translate(1249.599099 0)scale(0.996264)"/>
     <use xlink:href="#CMR17-61" transform="translate(1300.494468 0)scale(0.996264)"/>
     <use xlink:href="#CMR17-72" transform="translate(1346.184945 0)scale(0.996264)"/>
     <use xlink:href="#CMR17-61" transform="translate(1381.465713 0)scale(0.996264)"/>
     <use xlink:href="#CMR17-6d" transform="translate(1427.15619 0)scale(0.996264)"/>
     <use xlink:href="#CMR17-65" transform="translate(1504.07578 0)scale(0.996264)"/>
     <use xlink:href="#CMR17-74" transform="translate(1544.561441 0)scale(0.996264)"/>
     <use xlink:href="#CMR17-65" transform="translate(1579.842209 0)scale(0.996264)"/>
     <use xlink:href="#CMR17-72" transform="translate(1620.327869 0)scale(0.996264)"/>
     <use xlink:href="#CMR17-73" transform="translate(1655.608637 0)scale(0.996264)"/>
    </g>
   </g>
   <g id="legend_1">
    <g id="patch_7">
     <path d="M 315.109026 132.530203 
L 483.555547 132.530203 
Q 485.955547 132.530203 485.955547 130.130203 
L 485.955547 59.917026 
Q 485.955547 57.517026 483.555547 57.517026 
L 315.109026 57.517026 
Q 312.709026 57.517026 312.709026 59.917026 
L 312.709026 130.130203 
Q 312.709026 132.530203 315.109026 132.530203 
z
" style="fill: #ffffff; opacity: 0.8; stroke: #cccccc; stroke-linejoin: miter"/>
    </g>
    <g id="patch_8">
     <path d="M 317.509026 81.352622 
L 341.509026 81.352622 
L 341.509026 72.952622 
L 317.509026 72.952622 
z
" style="fill: #280b53; fill-opacity: 0.25; stroke: #280b53; stroke-linejoin: miter"/>
    </g>
    <g id="text_20">
     <!-- $L \propto \displaystyle \frac{\left[\mathcal{N}(1.33, 0.9)\right]^2}{\mathcal{U}(R_{\mathrm{min}}, R_{\mathrm{max}})}$ -->
     <g transform="translate(351.109026 81.352622)scale(0.12 -0.12)">
      <defs>
       <path id="CMSY10-2f" d="M 4621 210 
C 4595 210 4493 198 4474 198 
C 3968 198 3629 694 3411 1025 
C 3347 1133 3174 1394 3104 1503 
C 3258 1846 3686 2636 4448 2636 
C 4493 2636 4550 2636 4621 2617 
C 4621 2784 4614 2790 4602 2803 
C 4557 2816 4461 2822 4403 2822 
C 3590 2822 3117 2044 2963 1725 
C 2707 2114 2618 2254 2381 2451 
C 1990 2790 1638 2822 1478 2822 
C 768 2822 358 2107 358 1375 
C 358 662 755 -64 1459 -64 
C 2272 -64 2746 713 2899 1031 
C 3155 643 3245 503 3482 306 
C 3872 -32 4224 -64 4384 -64 
C 4461 -64 4563 -52 4621 -39 
L 4621 210 
z
M 2758 1254 
C 2605 911 2176 121 1414 121 
C 794 121 499 796 499 1375 
C 499 2006 858 2560 1389 2560 
C 1894 2560 2234 2063 2451 1732 
C 2515 1624 2688 1363 2758 1254 
z
" transform="scale(0.015625)"/>
       <path id="CMSY10-4e" d="M 1958 3657 
C 2074 3326 2214 2848 2502 2065 
C 2906 982 3085 587 3475 -20 
C 3565 -154 3571 -160 3629 -160 
C 3718 -160 3853 -84 3923 -32 
C 4013 51 4019 57 4090 370 
C 4474 2046 4960 3791 5088 4084 
C 5094 4097 5222 4339 6010 4352 
C 6138 4358 6259 4697 6259 4838 
C 6259 4940 6221 4940 6131 4940 
C 5491 4940 5203 4672 5126 4588 
C 4947 4358 4794 3893 4499 2829 
C 4275 2014 4070 1186 3872 364 
C 3520 893 3322 1396 3014 2218 
C 2675 3122 2470 3785 2298 4358 
C 2259 4486 2253 4492 2195 4492 
C 2182 4492 2054 4492 1869 4339 
C 1805 4282 1798 4224 1792 4154 
C 1613 2460 1011 784 838 479 
C 787 383 710 268 582 268 
C 518 268 269 300 102 453 
C 70 479 58 479 51 479 
C -51 479 -186 160 -186 6 
C -186 -192 205 -320 384 -320 
C 794 -320 1120 580 1222 873 
C 1638 2026 1837 2976 1958 3657 
z
" transform="scale(0.015625)"/>
       <path id="CMR17-28" d="M 1958 -1562 
C 1958 -1556 1958 -1543 1939 -1524 
C 1645 -1223 858 -403 858 1596 
C 858 3595 1632 4408 1946 4729 
C 1946 4735 1958 4748 1958 4767 
C 1958 4787 1939 4800 1914 4800 
C 1843 4800 1299 4325 986 3620 
C 666 2909 576 2218 576 1603 
C 576 1141 621 360 1005 -467 
C 1312 -1133 1837 -1600 1914 -1600 
C 1946 -1600 1958 -1588 1958 -1562 
z
" transform="scale(0.015625)"/>
       <path id="CMR17-33" d="M 1414 2176 
C 1984 2176 2234 1673 2234 1094 
C 2234 322 1824 25 1453 25 
C 1114 25 563 193 390 691 
C 422 678 454 678 486 678 
C 640 678 755 780 755 947 
C 755 1132 614 1216 486 1216 
C 378 1216 211 1164 211 927 
C 211 335 787 -128 1466 -128 
C 2176 -128 2720 432 2720 1087 
C 2720 1718 2208 2176 1600 2246 
C 2086 2347 2554 2776 2554 3353 
C 2554 3856 2048 4224 1472 4224 
C 890 4224 378 3862 378 3347 
C 378 3123 544 3084 627 3084 
C 762 3084 877 3167 877 3334 
C 877 3500 762 3584 627 3584 
C 602 3584 570 3584 544 3571 
C 730 3999 1235 4076 1459 4076 
C 1683 4076 2106 3966 2106 3347 
C 2106 3167 2080 2851 1862 2574 
C 1670 2329 1453 2316 1242 2297 
C 1210 2297 1062 2284 1037 2284 
C 992 2278 966 2272 966 2227 
C 966 2182 973 2176 1101 2176 
L 1414 2176 
z
" transform="scale(0.015625)"/>
       <path id="CMMI12-3b" d="M 1248 -26 
C 1248 345 1126 620 864 620 
C 659 620 557 454 557 313 
C 557 172 653 0 870 0 
C 954 0 1024 25 1082 83 
C 1094 96 1101 96 1107 96 
C 1120 96 1120 6 1120 -26 
C 1120 -233 1082 -642 710 -1051 
C 640 -1127 640 -1140 640 -1152 
C 640 -1184 672 -1216 704 -1216 
C 755 -1216 1248 -749 1248 -26 
z
" transform="scale(0.015625)"/>
       <path id="CMR17-39" d="M 2253 1871 
C 2253 448 1670 25 1190 25 
C 1043 25 685 43 538 281 
C 704 256 826 345 826 505 
C 826 678 685 736 595 736 
C 538 736 365 710 365 492 
C 365 68 742 -128 1203 -128 
C 1939 -128 2688 665 2688 2090 
C 2688 3857 1971 4224 1485 4224 
C 851 4224 243 3664 243 2800 
C 243 2000 762 1408 1414 1408 
C 1952 1408 2189 1910 2253 2122 
L 2253 1871 
z
M 1427 1510 
C 1254 1510 1011 1542 813 1929 
C 678 2181 678 2477 678 2793 
C 678 3174 678 3438 858 3722 
C 947 3857 1114 4076 1485 4076 
C 2240 4076 2240 2909 2240 2651 
C 2240 2193 2035 1510 1427 1510 
z
" transform="scale(0.015625)"/>
       <path id="CMR17-29" d="M 1683 1596 
C 1683 2057 1638 2839 1254 3665 
C 947 4332 422 4800 346 4800 
C 326 4800 301 4793 301 4761 
C 301 4748 307 4742 314 4729 
C 621 4408 1402 3595 1402 1603 
C 1402 -396 627 -1210 314 -1530 
C 307 -1543 301 -1549 301 -1562 
C 301 -1594 326 -1600 346 -1600 
C 416 -1600 960 -1127 1274 -422 
C 1594 289 1683 981 1683 1596 
z
" transform="scale(0.015625)"/>
       <path id="CMSY10-55" d="M 3155 1892 
C 3008 1359 2784 573 2784 83 
C 2784 -90 2893 -167 3046 -167 
C 3302 -167 3782 108 3782 236 
C 3782 268 3750 281 3718 281 
C 3642 281 3526 224 3456 185 
C 3373 198 3328 262 3328 350 
C 3328 1125 4058 3346 4243 3815 
C 4320 3993 4403 4255 4403 4307 
C 4403 4352 4365 4352 4339 4352 
C 4205 4352 3917 4179 3866 4057 
C 3782 3834 3770 3802 3693 3568 
C 3482 2965 2848 1918 2214 1182 
C 2016 960 1389 224 934 224 
C 627 224 435 484 435 903 
C 435 1347 685 1918 1069 2787 
C 1299 3308 1491 3758 1491 4044 
C 1491 4345 1286 4352 1171 4352 
C 678 4352 64 3955 64 3822 
C 64 3783 109 3783 134 3783 
C 211 3783 326 3834 429 3904 
C 474 3936 576 3999 749 3999 
C 890 3999 947 3910 947 3771 
C 947 3492 717 2971 448 2362 
C 26 1410 -109 1004 -109 636 
C -109 217 58 -128 512 -128 
C 909 -128 1491 134 2144 738 
C 2586 1150 2874 1531 3149 1899 
L 3155 1892 
z
" transform="scale(0.015625)"/>
       <path id="CMMI12-52" d="M 2355 3917 
C 2413 4153 2438 4166 2688 4166 
L 3149 4166 
C 3699 4166 4109 4000 4109 3503 
C 4109 3177 3942 2240 2656 2240 
L 1933 2240 
L 2355 3917 
z
M 3245 2163 
C 4038 2335 4659 2846 4659 3394 
C 4659 3892 4154 4352 3264 4352 
L 1530 4352 
C 1402 4352 1344 4352 1344 4230 
C 1344 4166 1389 4166 1510 4166 
C 1894 4166 1894 4115 1894 4045 
C 1894 4032 1894 3994 1869 3898 
L 1005 475 
C 947 253 934 190 493 190 
C 346 190 301 190 301 69 
C 301 6 371 6 390 6 
C 506 6 640 19 762 19 
L 1517 19 
C 1632 19 1766 6 1882 6 
C 1933 6 2003 6 2003 126 
C 2003 190 1946 190 1850 190 
C 1459 190 1459 241 1459 304 
C 1459 310 1459 355 1472 405 
L 1901 2112 
L 2669 2112 
C 3277 2112 3392 1731 3392 1522 
C 3392 1426 3328 1179 3283 1014 
C 3213 723 3194 653 3194 532 
C 3194 82 3565 -128 3994 -128 
C 4512 -128 4736 501 4736 589 
C 4736 634 4704 653 4666 653 
C 4614 653 4602 615 4589 564 
C 4435 114 4173 0 4013 0 
C 3853 0 3750 69 3750 355 
C 3750 507 3827 1084 3834 1116 
C 3866 1350 3866 1376 3866 1426 
C 3866 1889 3488 2086 3245 2163 
z
" transform="scale(0.015625)"/>
       <path id="CMR17-78" d="M 1664 1491 
C 1856 1740 2074 2022 2253 2233 
C 2464 2476 2707 2579 2989 2585 
L 2989 2752 
C 2880 2745 2656 2739 2541 2739 
C 2368 2739 2170 2739 2022 2752 
L 2022 2585 
C 2112 2572 2163 2508 2163 2419 
C 2163 2304 2099 2233 2067 2188 
L 1594 1587 
L 1030 2323 
C 973 2393 973 2406 973 2438 
C 973 2515 1037 2579 1146 2585 
L 1146 2752 
C 992 2739 717 2739 557 2739 
C 384 2739 179 2739 38 2752 
L 38 2585 
C 384 2585 461 2560 614 2368 
L 1350 1414 
C 1363 1401 1395 1363 1395 1344 
C 1395 1318 838 633 768 544 
C 480 198 179 172 6 166 
L 6 0 
C 115 6 339 12 454 12 
C 582 12 864 12 979 0 
L 979 166 
C 941 172 838 185 838 332 
C 838 448 890 518 947 595 
L 1478 1248 
L 2035 524 
C 2086 454 2163 358 2163 313 
C 2163 224 2086 172 1984 166 
L 1984 0 
C 2138 12 2413 12 2573 12 
C 2746 12 2950 12 3091 0 
L 3091 166 
C 2771 166 2675 179 2522 377 
L 1664 1491 
z
" transform="scale(0.015625)"/>
      </defs>
      <use xlink:href="#CMMI12-4c" transform="scale(0.996264)"/>
      <use xlink:href="#CMSY10-2f" transform="translate(94.044884 0)scale(0.996264)"/>
      <use xlink:href="#CMR17-5b" transform="translate(200.401874 67.401222)scale(0.996264)"/>
      <use xlink:href="#CMSY10-4e" transform="translate(225.272933 67.398045)scale(0.996264)"/>
      <use xlink:href="#CMR17-28" transform="translate(321.696394 67.398045)scale(0.996264)"/>
      <use xlink:href="#CMR17-31" transform="translate(356.977162 67.398045)scale(0.996264)"/>
      <use xlink:href="#CMMI12-3a" transform="translate(402.667639 67.398045)scale(0.996264)"/>
      <use xlink:href="#CMR17-33" transform="translate(429.764816 67.398045)scale(0.996264)"/>
      <use xlink:href="#CMR17-33" transform="translate(475.455293 67.398045)scale(0.996264)"/>
      <use xlink:href="#CMMI12-3b" transform="translate(521.14577 67.398045)scale(0.996264)"/>
      <use xlink:href="#CMR17-30" transform="translate(564.847353 67.398045)scale(0.996264)"/>
      <use xlink:href="#CMMI12-3a" transform="translate(610.53783 67.398045)scale(0.996264)"/>
      <use xlink:href="#CMR17-39" transform="translate(637.635007 67.398045)scale(0.996264)"/>
      <use xlink:href="#CMR17-29" transform="translate(683.325484 67.398045)scale(0.996264)"/>
      <use xlink:href="#CMR17-5d" transform="translate(718.606252 67.401222)scale(0.996264)"/>
      <use xlink:href="#CMR17-32" transform="translate(743.47731 115.104841)scale(0.697382)"/>
      <use xlink:href="#CMSY10-55" transform="translate(206.922679 -68.338837)scale(0.996264)"/>
      <use xlink:href="#CMR17-28" transform="translate(279.165532 -68.338837)scale(0.996264)"/>
      <use xlink:href="#CMMI12-52" transform="translate(314.446299 -68.338837)scale(0.996264)"/>
      <use xlink:href="#CMR17-6d" transform="translate(388.697125 -83.282752)scale(0.697382)"/>
      <use xlink:href="#CMR17-69" transform="translate(442.540592 -83.282752)scale(0.697382)"/>
      <use xlink:href="#CMR17-6e" transform="translate(459.950251 -83.282752)scale(0.697382)"/>
      <use xlink:href="#CMMI12-3b" transform="translate(496.074991 -68.338837)scale(0.996264)"/>
      <use xlink:href="#CMMI12-52" transform="translate(539.776573 -68.338837)scale(0.996264)"/>
      <use xlink:href="#CMR17-6d" transform="translate(614.027399 -83.282752)scale(0.697382)"/>
      <use xlink:href="#CMR17-61" transform="translate(667.870866 -83.282752)scale(0.697382)"/>
      <use xlink:href="#CMR17-78" transform="translate(699.854048 -83.282752)scale(0.697382)"/>
      <use xlink:href="#CMR17-29" transform="translate(734.157067 -68.338837)scale(0.996264)"/>
      <path d="M 200.401874 22.914133 
L 775.958624 22.914133 
L 775.958624 26.899083 
L 200.401874 26.899083 
L 200.401874 22.914133 
z
"/>
     </g>
    </g>
    <g id="patch_9">
     <path d="M 317.509026 108.016816 
L 341.509026 108.016816 
L 341.509026 99.616816 
L 317.509026 99.616816 
z
" style="fill: #9f2a63; fill-opacity: 0.25; stroke: #9f2a63; stroke-linejoin: miter"/>
    </g>
    <g id="text_21">
     <!-- $L \sim \mathcal{N}(3.1, 1) \times 10^{53}$ ergs -->
     <g transform="translate(351.109026 108.016816)scale(0.12 -0.12)">
      <defs>
       <path id="CMSY10-18" d="M 4621 2131 
C 4621 2272 4582 2336 4531 2336 
C 4499 2336 4448 2291 4442 2169 
C 4416 1562 3994 1216 3546 1216 
C 3142 1216 2835 1486 2522 1757 
C 2195 2048 1862 2342 1427 2342 
C 730 2342 352 1644 352 1068 
C 352 863 435 863 442 863 
C 512 863 531 991 531 1011 
C 557 1707 1037 1984 1427 1984 
C 1830 1984 2138 1713 2451 1442 
C 2778 1151 3110 857 3546 857 
C 4243 857 4621 1555 4621 2131 
z
" transform="scale(0.015625)"/>
       <path id="CMSY10-2" d="M 2490 1775 
L 1210 3046 
C 1133 3123 1120 3136 1069 3136 
C 1005 3136 941 3078 941 3008 
C 941 2963 954 2950 1024 2880 
L 2304 1596 
L 1024 313 
C 954 243 941 230 941 185 
C 941 115 1005 57 1069 57 
C 1120 57 1133 70 1210 147 
L 2483 1418 
L 3808 95 
C 3821 89 3866 57 3904 57 
C 3981 57 4032 115 4032 185 
C 4032 198 4032 223 4013 255 
C 4006 268 2989 1271 2669 1596 
L 3840 2765 
C 3872 2803 3968 2886 4000 2925 
C 4006 2937 4032 2963 4032 3008 
C 4032 3078 3981 3136 3904 3136 
C 3853 3136 3827 3110 3757 3040 
L 2490 1775 
z
" transform="scale(0.015625)"/>
      </defs>
      <use xlink:href="#CMMI12-4c" transform="scale(0.996264)"/>
      <use xlink:href="#CMSY10-18" transform="translate(94.044884 0)scale(0.996264)"/>
      <use xlink:href="#CMSY10-4e" transform="translate(199.206361 0)scale(0.996264)"/>
      <use xlink:href="#CMR17-28" transform="translate(295.629822 0)scale(0.996264)"/>
      <use xlink:href="#CMR17-33" transform="translate(330.91059 0)scale(0.996264)"/>
      <use xlink:href="#CMMI12-3a" transform="translate(376.601067 0)scale(0.996264)"/>
      <use xlink:href="#CMR17-31" transform="translate(403.698244 0)scale(0.996264)"/>
      <use xlink:href="#CMMI12-3b" transform="translate(449.388721 0)scale(0.996264)"/>
      <use xlink:href="#CMR17-31" transform="translate(493.090303 0)scale(0.996264)"/>
      <use xlink:href="#CMR17-29" transform="translate(538.780781 0)scale(0.996264)"/>
      <use xlink:href="#CMSY10-2" transform="translate(596.200755 0)scale(0.996264)"/>
      <use xlink:href="#CMR17-31" transform="translate(695.82743 0)scale(0.996264)"/>
      <use xlink:href="#CMR17-30" transform="translate(741.517907 0)scale(0.996264)"/>
      <use xlink:href="#CMR17-35" transform="translate(787.208384 36.153639)scale(0.697382)"/>
      <use xlink:href="#CMR17-33" transform="translate(819.191566 36.153639)scale(0.697382)"/>
      <use xlink:href="#CMR17-65" transform="translate(881.748846 0)scale(0.996264)"/>
      <use xlink:href="#CMR17-72" transform="translate(922.234507 0)scale(0.996264)"/>
      <use xlink:href="#CMR17-67" transform="translate(957.515275 0)scale(0.996264)"/>
      <use xlink:href="#CMR17-73" transform="translate(1003.205752 0)scale(0.996264)"/>
     </g>
    </g>
    <g id="patch_10">
     <path d="M 317.509026 125.405608 
L 341.509026 125.405608 
L 341.509026 117.005608 
L 317.509026 117.005608 
z
" style="fill: #f57d15; fill-opacity: 0.25; stroke: #f57d15; stroke-linejoin: miter"/>
    </g>
    <g id="text_22">
     <!-- $L = L^{\mathrm{true}}$ -->
     <g transform="translate(351.109026 125.405608)scale(0.12 -0.12)">
      <defs>
       <path id="CMR17-3d" d="M 4115 2048 
C 4211 2048 4307 2048 4307 2156 
C 4307 2272 4198 2272 4090 2272 
L 512 2272 
C 403 2272 294 2272 294 2156 
C 294 2048 390 2048 486 2048 
L 4115 2048 
z
M 4090 927 
C 4198 927 4307 927 4307 1043 
C 4307 1152 4211 1152 4115 1152 
L 486 1152 
C 390 1152 294 1152 294 1043 
C 294 927 403 927 512 927 
L 4090 927 
z
" transform="scale(0.015625)"/>
      </defs>
      <use xlink:href="#CMMI12-4c" transform="scale(0.996264)"/>
      <use xlink:href="#CMR17-3d" transform="translate(94.044884 0)scale(0.996264)"/>
      <use xlink:href="#CMMI12-4c" transform="translate(193.433681 0)scale(0.996264)"/>
      <use xlink:href="#CMR17-74" transform="translate(259.804557 36.153639)scale(0.697382)"/>
      <use xlink:href="#CMR17-72" transform="translate(284.500977 36.153639)scale(0.697382)"/>
      <use xlink:href="#CMR17-75" transform="translate(309.197398 36.153639)scale(0.697382)"/>
      <use xlink:href="#CMR17-65" transform="translate(344.824006 36.153639)scale(0.697382)"/>
     </g>
    </g>
   </g>
  </g>
 </g>
 <defs>
  <clipPath id="pa507a33d16">
   <rect x="45.555547" y="51.517026" width="446.4" height="332.64"/>
  </clipPath>
 </defs>
</svg>
