<?xml version="1.0" encoding="utf-8" standalone="no"?>
<!DOCTYPE svg PUBLIC "-//W3C//DTD SVG 1.1//EN"
  "http://www.w3.org/Graphics/SVG/1.1/DTD/svg11.dtd">
<svg xmlns:xlink="http://www.w3.org/1999/xlink" width="437.914542pt" height="341.195812pt" viewBox="0 0 437.914542 341.195812" xmlns="http://www.w3.org/2000/svg" version="1.1">
 <metadata>
  <rdf:RDF xmlns:dc="http://purl.org/dc/elements/1.1/" xmlns:cc="http://creativecommons.org/ns#" xmlns:rdf="http://www.w3.org/1999/02/22-rdf-syntax-ns#">
   <cc:Work>
    <dc:type rdf:resource="http://purl.org/dc/dcmitype/StillImage"/>
    <dc:date>2023-09-24T19:51:07.895163</dc:date>
    <dc:format>image/svg+xml</dc:format>
    <dc:creator>
     <cc:Agent>
      <dc:title>Matplotlib v3.5.3, https://matplotlib.org/</dc:title>
     </cc:Agent>
    </dc:creator>
   </cc:Work>
  </rdf:RDF>
 </metadata>
 <defs>
  <style type="text/css">*{stroke-linejoin: round; stroke-linecap: butt}</style>
 </defs>
 <g id="figure_1">
  <g id="patch_1">
   <path d="M 0 341.195812 
L 437.914542 341.195812 
L 437.914542 0 
L 0 0 
z
" style="fill: #ffffff"/>
  </g>
  <g id="axes_1">
   <g id="patch_2">
    <path d="M 49.706667 297.148997 
L 406.826667 297.148997 
L 406.826667 31.036997 
L 49.706667 31.036997 
z
" style="fill: #ffffff"/>
   </g>
   <g id="PolyCollection_1">
    <defs>
     <path id="mcfa2e8f1a2" d="M 53.277867 -57.616464 
L 53.277867 -28.930364 
L 56.849067 -58.42613 
L 63.991467 -88.362774 
L 71.133867 -105.697049 
L 78.276267 -118.284607 
L 85.418667 -127.533822 
L 92.561067 -135.053345 
L 99.703467 -141.584643 
L 106.845867 -147.164807 
L 113.988267 -152.841029 
L 121.130667 -157.047294 
L 128.273067 -159.90844 
L 135.415467 -164.678831 
L 142.557867 -168.367121 
L 149.700267 -171.453426 
L 156.842667 -173.721827 
L 163.985067 -177.377536 
L 171.127467 -179.729952 
L 178.269867 -181.420593 
L 185.412267 -184.499539 
L 192.554667 -186.297542 
L 199.697067 -188.373822 
L 206.839467 -190.461213 
L 213.981867 -192.198501 
L 221.124267 -194.021262 
L 228.266667 -196.501635 
L 235.409067 -198.520457 
L 242.551467 -199.704907 
L 249.693867 -200.401925 
L 256.836267 -202.857134 
L 263.978667 -203.987827 
L 271.121067 -204.903822 
L 278.263467 -206.517041 
L 285.405867 -207.759176 
L 292.548267 -209.180468 
L 299.690667 -210.138369 
L 306.833067 -211.799876 
L 313.975467 -213.803182 
L 321.117867 -213.885605 
L 328.260267 -214.801584 
L 335.402667 -215.485216 
L 342.545067 -216.517426 
L 349.687467 -219.123478 
L 356.829867 -219.884929 
L 363.972267 -220.376815 
L 371.114667 -221.373837 
L 378.257067 -222.210675 
L 385.399467 -223.092805 
L 392.541867 -224.495615 
L 399.684267 -225.235044 
L 406.826667 -224.743056 
L 406.826667 -255.879783 
L 406.826667 -255.879783 
L 399.684267 -255.46158 
L 392.541867 -254.208822 
L 385.399467 -254.462568 
L 378.257067 -252.078753 
L 371.114667 -251.432097 
L 363.972267 -249.500998 
L 356.829867 -248.486399 
L 349.687467 -248.478591 
L 342.545067 -246.412846 
L 335.402667 -245.018501 
L 328.260267 -244.779457 
L 321.117867 -243.299673 
L 313.975467 -243.436982 
L 306.833067 -241.117123 
L 299.690667 -239.520673 
L 292.548267 -239.356677 
L 285.405867 -237.880676 
L 278.263467 -236.892909 
L 271.121067 -235.559031 
L 263.978667 -233.039738 
L 256.836267 -232.036743 
L 249.693867 -230.941212 
L 242.551467 -228.638246 
L 235.409067 -227.204054 
L 228.266667 -225.740619 
L 221.124267 -223.89759 
L 213.981867 -221.673702 
L 206.839467 -219.501886 
L 199.697067 -217.750008 
L 192.554667 -216.142089 
L 185.412267 -213.510401 
L 178.269867 -211.018322 
L 171.127467 -208.746842 
L 163.985067 -206.259218 
L 156.842667 -203.890573 
L 149.700267 -200.624758 
L 142.557867 -197.271681 
L 135.415467 -193.564087 
L 128.273067 -189.975287 
L 121.130667 -186.478062 
L 113.988267 -181.594527 
L 106.845867 -176.454113 
L 99.703467 -170.9219 
L 92.561067 -164.429554 
L 85.418667 -156.551389 
L 78.276267 -146.663469 
L 71.133867 -134.574062 
L 63.991467 -117.050968 
L 56.849067 -87.642213 
L 53.277867 -57.616464 
z
" style="stroke: #f57d15; stroke-opacity: 0.5"/>
    </defs>
    <g clip-path="url(#p45f70637d9)">
     <use xlink:href="#mcfa2e8f1a2" x="0" y="341.195812" style="fill: #f57d15; fill-opacity: 0.5; stroke: #f57d15; stroke-opacity: 0.5"/>
    </g>
   </g>
   <g id="PolyCollection_2">
    <defs>
     <path id="m6c642f909b" d="M 53.277867 -55.206021 
L 53.277867 -32.351566 
L 56.849067 -61.850931 
L 63.991467 -91.529926 
L 71.133867 -109.062889 
L 78.276267 -121.406498 
L 85.418667 -131.034703 
L 92.561067 -138.315689 
L 99.703467 -145.241329 
L 106.845867 -150.948562 
L 113.988267 -156.151859 
L 121.130667 -160.688034 
L 128.273067 -164.609725 
L 135.415467 -168.051276 
L 142.557867 -171.941002 
L 149.700267 -174.807747 
L 156.842667 -177.41349 
L 163.985067 -180.520439 
L 171.127467 -183.016101 
L 178.269867 -185.548608 
L 185.412267 -187.928261 
L 192.554667 -190.281724 
L 199.697067 -192.328365 
L 206.839467 -194.068957 
L 213.981867 -196.013919 
L 221.124267 -197.92176 
L 228.266667 -199.856818 
L 235.409067 -201.537432 
L 242.551467 -203.342609 
L 249.693867 -204.880089 
L 256.836267 -206.162764 
L 263.978667 -208.021785 
L 271.121067 -208.722093 
L 278.263467 -210.511773 
L 285.405867 -211.706034 
L 292.548267 -212.810252 
L 299.690667 -213.920419 
L 306.833067 -215.360055 
L 313.975467 -217.124771 
L 321.117867 -217.192197 
L 328.260267 -218.392752 
L 335.402667 -219.216759 
L 342.545067 -220.322995 
L 349.687467 -222.32756 
L 356.829867 -223.224158 
L 363.972267 -223.899774 
L 371.114667 -224.814291 
L 378.257067 -226.254484 
L 385.399467 -226.763492 
L 392.541867 -228.455781 
L 399.684267 -228.491269 
L 406.826667 -229.092982 
L 406.826667 -252.182153 
L 406.826667 -252.182153 
L 399.684267 -251.665191 
L 392.541867 -251.453261 
L 385.399467 -250.296264 
L 378.257067 -249.08954 
L 371.114667 -247.635949 
L 363.972267 -246.626819 
L 356.829867 -246.260839 
L 349.687467 -245.557268 
L 342.545067 -243.373881 
L 335.402667 -242.230107 
L 328.260267 -241.26869 
L 321.117867 -240.331139 
L 313.975467 -240.222425 
L 306.833067 -237.98899 
L 299.690667 -237.130422 
L 292.548267 -235.854245 
L 285.405867 -235.065567 
L 278.263467 -233.555022 
L 271.121067 -232.054177 
L 263.978667 -230.422155 
L 256.836267 -228.899065 
L 249.693867 -227.538 
L 242.551467 -226.273095 
L 235.409067 -224.365096 
L 228.266667 -222.381347 
L 221.124267 -220.676805 
L 213.981867 -218.730284 
L 206.839467 -216.880075 
L 199.697067 -215.002968 
L 192.554667 -212.924503 
L 185.412267 -210.572467 
L 178.269867 -208.186699 
L 171.127467 -205.95996 
L 163.985067 -203.015118 
L 156.842667 -200.564074 
L 149.700267 -197.506258 
L 142.557867 -194.750678 
L 135.415467 -190.942371 
L 128.273067 -187.339954 
L 121.130667 -183.163684 
L 113.988267 -178.681962 
L 106.845867 -173.769857 
L 99.703467 -167.876282 
L 92.561067 -161.382027 
L 85.418667 -153.675272 
L 78.276267 -143.904728 
L 71.133867 -131.790889 
L 63.991467 -114.272096 
L 56.849067 -84.661264 
L 53.277867 -55.206021 
z
" style="stroke: #9f2a63; stroke-opacity: 0.5"/>
    </defs>
    <g clip-path="url(#p45f70637d9)">
     <use xlink:href="#m6c642f909b" x="0" y="341.195812" style="fill: #9f2a63; fill-opacity: 0.5; stroke: #9f2a63; stroke-opacity: 0.5"/>
    </g>
   </g>
   <g id="PolyCollection_3">
    <defs>
     <path id="md825309ddb" d="M 53.277867 -50.274121 
L 53.277867 -36.79748 
L 56.849067 -66.276546 
L 63.991467 -95.955649 
L 71.133867 -113.328852 
L 78.276267 -125.560841 
L 85.418667 -135.314106 
L 92.561067 -143.011107 
L 99.703467 -149.60939 
L 106.845867 -155.589067 
L 113.988267 -160.225059 
L 121.130667 -164.92521 
L 128.273067 -169.079349 
L 135.415467 -172.523171 
L 142.557867 -176.17093 
L 149.700267 -179.366723 
L 156.842667 -182.08746 
L 163.985067 -184.730362 
L 171.127467 -187.448371 
L 178.269867 -189.935105 
L 185.412267 -192.285028 
L 192.554667 -194.508737 
L 199.697067 -196.750293 
L 206.839467 -198.519827 
L 213.981867 -200.297772 
L 221.124267 -202.340224 
L 228.266667 -204.096315 
L 235.409067 -205.918984 
L 242.551467 -207.788153 
L 249.693867 -209.301469 
L 256.836267 -210.540985 
L 263.978667 -212.029199 
L 271.121067 -213.509329 
L 278.263467 -214.905443 
L 285.405867 -216.414016 
L 292.548267 -217.371339 
L 299.690667 -218.403037 
L 306.833067 -219.938818 
L 313.975467 -221.610468 
L 321.117867 -221.714131 
L 328.260267 -222.886092 
L 335.402667 -223.650273 
L 342.545067 -224.822763 
L 349.687467 -226.956555 
L 356.829867 -227.782632 
L 363.972267 -228.377425 
L 371.114667 -229.230461 
L 378.257067 -230.45672 
L 385.399467 -231.560495 
L 392.541867 -232.76247 
L 399.684267 -233.27676 
L 406.826667 -233.982877 
L 406.826667 -247.20483 
L 406.826667 -247.20483 
L 399.684267 -246.293693 
L 392.541867 -246.648579 
L 385.399467 -244.889011 
L 378.257067 -243.92707 
L 371.114667 -242.807088 
L 363.972267 -241.869125 
L 356.829867 -241.182103 
L 349.687467 -240.497245 
L 342.545067 -238.487629 
L 335.402667 -237.018043 
L 328.260267 -236.612646 
L 321.117867 -235.353801 
L 313.975467 -235.299898 
L 306.833067 -232.958126 
L 299.690667 -231.86052 
L 292.548267 -230.977688 
L 285.405867 -229.807844 
L 278.263467 -228.616924 
L 271.121067 -226.781946 
L 263.978667 -225.530584 
L 256.836267 -223.914022 
L 249.693867 -222.572046 
L 242.551467 -221.06121 
L 235.409067 -219.416336 
L 228.266667 -217.485696 
L 221.124267 -215.560092 
L 213.981867 -213.94781 
L 206.839467 -212.068938 
L 199.697067 -210.254602 
L 192.554667 -207.924476 
L 185.412267 -205.625816 
L 178.269867 -203.369302 
L 171.127467 -201.163696 
L 163.985067 -198.445738 
L 156.842667 -195.580615 
L 149.700267 -192.57818 
L 142.557867 -189.769992 
L 135.415467 -185.980884 
L 128.273067 -182.362776 
L 121.130667 -178.377462 
L 113.988267 -173.631558 
L 106.845867 -168.707444 
L 99.703467 -162.803273 
L 92.561067 -156.659864 
L 85.418667 -148.683777 
L 78.276267 -139.039276 
L 71.133867 -126.650397 
L 63.991467 -109.272977 
L 56.849067 -79.922298 
L 53.277867 -50.274121 
z
" style="stroke: #280b53; stroke-opacity: 0.6"/>
    </defs>
    <g clip-path="url(#p45f70637d9)">
     <use xlink:href="#md825309ddb" x="0" y="341.195812" style="fill: #280b53; fill-opacity: 0.6; stroke: #280b53; stroke-opacity: 0.6"/>
    </g>
   </g>
   <g id="matplotlib.axis_1">
    <g id="xtick_1">
     <g id="line2d_1">
      <defs>
       <path id="ma2f65a89a1" d="M 0 0 
L 0 3.5 
" style="stroke: #000000; stroke-width: 0.8"/>
      </defs>
      <g>
       <use xlink:href="#ma2f65a89a1" x="49.706667" y="297.148997" style="stroke: #000000; stroke-width: 0.8"/>
      </g>
     </g>
     <g id="text_1">
      <!-- $\mathdefault{0}$ -->
      <g transform="translate(46.780172 312.451177)scale(0.12 -0.12)">
       <defs>
        <path id="CMR17-30" d="M 2688 2025 
C 2688 2416 2682 3080 2413 3591 
C 2176 4039 1798 4198 1466 4198 
C 1158 4198 768 4058 525 3597 
C 269 3118 243 2524 243 2025 
C 243 1661 250 1106 448 619 
C 723 -39 1216 -128 1466 -128 
C 1760 -128 2208 -7 2470 600 
C 2662 1042 2688 1559 2688 2025 
z
M 1466 -26 
C 1056 -26 813 325 723 812 
C 653 1188 653 1738 653 2096 
C 653 2588 653 2997 736 3387 
C 858 3929 1216 4096 1466 4096 
C 1728 4096 2067 3923 2189 3400 
C 2272 3036 2278 2607 2278 2096 
C 2278 1680 2278 1169 2202 792 
C 2067 95 1690 -26 1466 -26 
z
" transform="scale(0.015625)"/>
       </defs>
       <use xlink:href="#CMR17-30" transform="scale(0.996264)"/>
      </g>
     </g>
    </g>
    <g id="xtick_2">
     <g id="line2d_2">
      <g>
       <use xlink:href="#ma2f65a89a1" x="121.130667" y="297.148997" style="stroke: #000000; stroke-width: 0.8"/>
      </g>
     </g>
     <g id="text_2">
      <!-- $\mathdefault{20}$ -->
      <g transform="translate(115.277677 312.451177)scale(0.12 -0.12)">
       <defs>
        <path id="CMR17-32" d="M 2669 989 
L 2554 989 
C 2490 536 2438 459 2413 420 
C 2381 369 1920 369 1830 369 
L 602 369 
C 832 619 1280 1072 1824 1597 
C 2214 1967 2669 2402 2669 3035 
C 2669 3790 2067 4224 1395 4224 
C 691 4224 262 3604 262 3030 
C 262 2780 448 2748 525 2748 
C 589 2748 781 2787 781 3010 
C 781 3207 614 3264 525 3264 
C 486 3264 448 3258 422 3245 
C 544 3790 915 4058 1306 4058 
C 1862 4058 2227 3617 2227 3035 
C 2227 2479 1901 2000 1536 1584 
L 262 146 
L 262 0 
L 2515 0 
L 2669 989 
z
" transform="scale(0.015625)"/>
       </defs>
       <use xlink:href="#CMR17-32" transform="scale(0.996264)"/>
       <use xlink:href="#CMR17-30" transform="translate(45.690477 0)scale(0.996264)"/>
      </g>
     </g>
    </g>
    <g id="xtick_3">
     <g id="line2d_3">
      <g>
       <use xlink:href="#ma2f65a89a1" x="192.554667" y="297.148997" style="stroke: #000000; stroke-width: 0.8"/>
      </g>
     </g>
     <g id="text_3">
      <!-- $\mathdefault{40}$ -->
      <g transform="translate(186.701677 312.451177)scale(0.12 -0.12)">
       <defs>
        <path id="CMR17-34" d="M 2150 4122 
C 2150 4256 2144 4256 2029 4256 
L 128 1254 
L 128 1088 
L 1779 1088 
L 1779 457 
C 1779 224 1766 160 1318 160 
L 1197 160 
L 1197 0 
C 1402 0 1747 0 1965 0 
C 2182 0 2528 0 2733 0 
L 2733 160 
L 2611 160 
C 2163 160 2150 224 2150 457 
L 2150 1088 
L 2803 1088 
L 2803 1254 
L 2150 1254 
L 2150 4122 
z
M 1798 3703 
L 1798 1254 
L 256 1254 
L 1798 3703 
z
" transform="scale(0.015625)"/>
       </defs>
       <use xlink:href="#CMR17-34" transform="scale(0.996264)"/>
       <use xlink:href="#CMR17-30" transform="translate(45.690477 0)scale(0.996264)"/>
      </g>
     </g>
    </g>
    <g id="xtick_4">
     <g id="line2d_4">
      <g>
       <use xlink:href="#ma2f65a89a1" x="263.978667" y="297.148997" style="stroke: #000000; stroke-width: 0.8"/>
      </g>
     </g>
     <g id="text_4">
      <!-- $\mathdefault{60}$ -->
      <g transform="translate(258.125677 312.451177)scale(0.12 -0.12)">
       <defs>
        <path id="CMR17-36" d="M 678 2176 
C 678 3690 1395 4032 1811 4032 
C 1946 4032 2272 4009 2400 3776 
C 2298 3776 2106 3776 2106 3553 
C 2106 3381 2246 3323 2336 3323 
C 2394 3323 2566 3348 2566 3560 
C 2566 3954 2246 4179 1805 4179 
C 1043 4179 243 3390 243 1984 
C 243 253 966 -128 1478 -128 
C 2099 -128 2688 427 2688 1283 
C 2688 2081 2170 2662 1517 2662 
C 1126 2662 838 2407 678 1960 
L 678 2176 
z
M 1478 25 
C 691 25 691 1200 691 1436 
C 691 1896 909 2560 1504 2560 
C 1613 2560 1926 2560 2138 2120 
C 2253 1870 2253 1609 2253 1289 
C 2253 944 2253 690 2118 434 
C 1978 171 1773 25 1478 25 
z
" transform="scale(0.015625)"/>
       </defs>
       <use xlink:href="#CMR17-36" transform="scale(0.996264)"/>
       <use xlink:href="#CMR17-30" transform="translate(45.690477 0)scale(0.996264)"/>
      </g>
     </g>
    </g>
    <g id="xtick_5">
     <g id="line2d_5">
      <g>
       <use xlink:href="#ma2f65a89a1" x="335.402667" y="297.148997" style="stroke: #000000; stroke-width: 0.8"/>
      </g>
     </g>
     <g id="text_5">
      <!-- $\mathdefault{80}$ -->
      <g transform="translate(329.549677 312.451177)scale(0.12 -0.12)">
       <defs>
        <path id="CMR17-38" d="M 1741 2264 
C 2144 2467 2554 2773 2554 3263 
C 2554 3841 1990 4179 1472 4179 
C 890 4179 378 3759 378 3180 
C 378 3021 416 2747 666 2505 
C 730 2442 998 2251 1171 2130 
C 883 1983 211 1634 211 934 
C 211 279 838 -128 1459 -128 
C 2144 -128 2720 362 2720 1010 
C 2720 1590 2330 1857 2074 2029 
L 1741 2264 
z
M 902 2822 
C 851 2854 595 3051 595 3351 
C 595 3739 998 4032 1459 4032 
C 1965 4032 2336 3676 2336 3262 
C 2336 2669 1670 2331 1638 2331 
C 1632 2331 1626 2331 1574 2370 
L 902 2822 
z
M 2080 1519 
C 2176 1449 2483 1240 2483 851 
C 2483 381 2010 25 1472 25 
C 890 25 448 438 448 940 
C 448 1443 838 1862 1280 2060 
L 2080 1519 
z
" transform="scale(0.015625)"/>
       </defs>
       <use xlink:href="#CMR17-38" transform="scale(0.996264)"/>
       <use xlink:href="#CMR17-30" transform="translate(45.690477 0)scale(0.996264)"/>
      </g>
     </g>
    </g>
    <g id="xtick_6">
     <g id="line2d_6">
      <g>
       <use xlink:href="#ma2f65a89a1" x="406.826667" y="297.148997" style="stroke: #000000; stroke-width: 0.8"/>
      </g>
     </g>
     <g id="text_6">
      <!-- $\mathdefault{100}$ -->
      <g transform="translate(398.047182 312.451177)scale(0.12 -0.12)">
       <defs>
        <path id="CMR17-31" d="M 1702 4058 
C 1702 4192 1696 4192 1606 4192 
C 1357 3916 979 3827 621 3827 
C 602 3827 570 3827 563 3808 
C 557 3795 557 3782 557 3648 
C 755 3648 1088 3686 1344 3839 
L 1344 461 
C 1344 236 1331 160 781 160 
L 589 160 
L 589 0 
C 896 0 1216 0 1523 0 
C 1830 0 2150 0 2458 0 
L 2458 160 
L 2266 160 
C 1715 160 1702 230 1702 458 
L 1702 4058 
z
" transform="scale(0.015625)"/>
       </defs>
       <use xlink:href="#CMR17-31" transform="scale(0.996264)"/>
       <use xlink:href="#CMR17-30" transform="translate(45.690477 0)scale(0.996264)"/>
       <use xlink:href="#CMR17-30" transform="translate(91.380954 0)scale(0.996264)"/>
      </g>
     </g>
    </g>
    <g id="text_7">
     <!-- True Distance ($D^{\mathrm{True}}$) [kpc] -->
     <g transform="translate(145.831011 330.508888)scale(0.14 -0.14)">
      <defs>
       <path id="CMR17-54" d="M 3981 4326 
L 288 4326 
L 179 2918 
L 294 2918 
C 378 3976 467 4160 1453 4160 
C 1568 4160 1754 4160 1805 4154 
C 1926 4135 1926 4058 1926 3912 
L 1926 459 
C 1926 230 1907 160 1376 160 
L 1197 160 
L 1197 0 
C 1504 0 1824 0 2138 0 
C 2451 0 2771 0 3078 0 
L 3078 160 
L 2899 160 
C 2368 160 2349 230 2349 459 
L 2349 3912 
C 2349 4052 2349 4129 2464 4154 
C 2515 4160 2701 4160 2816 4160 
C 3795 4160 3891 3976 3974 2918 
L 4090 2918 
L 3981 4326 
z
" transform="scale(0.015625)"/>
       <path id="CMR17-72" d="M 960 1497 
C 960 2112 1222 2688 1702 2688 
C 1747 2688 1792 2682 1837 2662 
C 1837 2662 1696 2617 1696 2452 
C 1696 2298 1818 2234 1914 2234 
C 1990 2234 2131 2279 2131 2458 
C 2131 2663 1926 2790 1709 2790 
C 1222 2790 1011 2317 947 2093 
L 941 2093 
L 941 2790 
L 198 2720 
L 198 2554 
C 576 2554 634 2515 634 2208 
L 634 428 
C 634 184 608 153 198 153 
L 198 -13 
C 352 0 646 0 813 0 
C 998 0 1325 0 1498 -13 
L 1498 153 
C 1037 153 960 153 960 440 
L 960 1497 
z
" transform="scale(0.015625)"/>
       <path id="CMR17-75" d="M 1882 2693 
L 1882 2528 
C 2259 2528 2317 2489 2317 2186 
L 2317 1032 
C 2317 500 2029 38 1555 38 
C 1030 38 986 348 986 678 
L 986 2763 
L 211 2693 
L 211 2528 
C 467 2528 640 2528 646 2274 
L 646 1058 
C 646 633 646 361 813 183 
C 896 101 1056 -64 1517 -64 
C 2061 -64 2272 377 2323 506 
L 2330 506 
L 2330 -63 
L 3091 -63 
L 3091 128 
C 2714 128 2656 166 2656 473 
L 2656 2763 
L 1882 2693 
z
" transform="scale(0.015625)"/>
       <path id="CMR17-65" d="M 2438 1472 
C 2464 1498 2464 1511 2464 1576 
C 2464 2238 2118 2816 1389 2816 
C 710 2816 173 2169 173 1383 
C 173 551 781 -64 1459 -64 
C 2176 -64 2458 607 2458 740 
C 2458 784 2419 784 2406 784 
C 2362 784 2355 771 2330 696 
C 2189 265 1837 51 1504 51 
C 1229 51 954 203 781 480 
C 582 803 582 1176 582 1472 
L 2438 1472 
z
M 589 1568 
C 634 2505 1126 2714 1382 2714 
C 1818 2714 2112 2297 2118 1568 
L 589 1568 
z
" transform="scale(0.015625)"/>
       <path id="CMR17-44" d="M 333 4352 
L 333 4186 
C 774 4186 845 4186 845 3900 
L 845 452 
C 845 166 774 166 333 166 
L 333 0 
L 2368 0 
C 3398 0 4224 943 4224 2141 
C 4224 3346 3411 4352 2368 4352 
L 333 4352 
z
M 1523 166 
C 1267 166 1254 197 1254 414 
L 1254 3938 
C 1254 4155 1267 4186 1523 4186 
L 2240 4186 
C 2771 4186 3750 3874 3750 2141 
C 3750 1242 3488 879 3366 707 
C 3213 510 2848 166 2240 166 
L 1523 166 
z
" transform="scale(0.015625)"/>
       <path id="CMR17-69" d="M 992 3909 
C 992 4049 877 4170 730 4170 
C 589 4170 467 4056 467 3909 
C 467 3769 582 3648 730 3648 
C 870 3648 992 3763 992 3909 
z
M 243 2706 
L 243 2541 
C 602 2541 653 2502 653 2197 
L 653 427 
C 653 184 627 153 218 153 
L 218 -13 
C 371 0 646 0 806 0 
C 960 0 1222 0 1370 -13 
L 1370 153 
C 992 153 979 191 979 420 
L 979 2776 
L 243 2706 
z
" transform="scale(0.015625)"/>
       <path id="CMR17-73" d="M 1978 2697 
C 1978 2813 1971 2819 1933 2819 
C 1907 2819 1901 2813 1824 2717 
C 1805 2691 1747 2626 1728 2601 
C 1523 2819 1235 2819 1126 2819 
C 416 2819 160 2447 160 2076 
C 160 1498 813 1365 998 1325 
C 1402 1243 1542 1217 1677 1101 
C 1760 1025 1901 884 1901 654 
C 1901 384 1747 38 1158 38 
C 602 38 403 460 288 1021 
C 269 1110 269 1117 218 1117 
C 166 1117 160 1110 160 983 
L 160 63 
C 160 -51 166 -58 205 -58 
C 237 -58 243 -51 275 0 
C 314 57 410 211 448 276 
C 576 103 800 -64 1158 -64 
C 1792 -64 2131 283 2131 784 
C 2131 1112 1958 1285 1875 1362 
C 1683 1561 1459 1606 1190 1657 
C 838 1735 390 1825 390 2217 
C 390 2383 480 2737 1126 2737 
C 1811 2737 1850 2094 1862 1888 
C 1869 1856 1901 1849 1920 1849 
C 1978 1849 1978 1869 1978 1978 
L 1978 2697 
z
" transform="scale(0.015625)"/>
       <path id="CMR17-74" d="M 966 2560 
L 1862 2560 
L 1862 2725 
L 966 2725 
L 966 3904 
L 851 3904 
C 838 3245 614 2668 70 2668 
L 70 2560 
L 627 2560 
L 627 771 
C 627 650 627 -64 1370 -64 
C 1747 -64 1965 306 1965 777 
L 1965 1140 
L 1850 1140 
L 1850 783 
C 1850 344 1677 51 1408 51 
C 1222 51 966 178 966 758 
L 966 2560 
z
" transform="scale(0.015625)"/>
       <path id="CMR17-61" d="M 2304 1653 
C 2304 2072 2304 2294 2035 2543 
C 1798 2752 1523 2816 1306 2816 
C 800 2816 435 2407 435 1971 
C 435 1728 627 1728 666 1728 
C 749 1728 896 1778 896 1954 
C 896 2112 774 2181 666 2181 
C 640 2181 608 2174 589 2168 
C 723 2592 1069 2714 1293 2714 
C 1613 2714 1965 2429 1965 1885 
L 1965 1600 
C 1587 1600 1133 1549 774 1357 
C 371 1133 256 813 256 570 
C 256 77 832 -64 1171 -64 
C 1523 -64 1850 139 1990 511 
C 2003 233 2182 -18 2464 -18 
C 2598 -18 2938 70 2938 567 
L 2938 920 
L 2822 920 
L 2822 562 
C 2822 178 2650 128 2566 128 
C 2304 128 2304 458 2304 738 
L 2304 1653 
z
M 1965 870 
C 1965 317 1568 38 1216 38 
C 896 38 646 275 646 570 
C 646 761 730 1100 1101 1305 
C 1408 1478 1760 1504 1965 1504 
L 1965 870 
z
" transform="scale(0.015625)"/>
       <path id="CMR17-6e" d="M 2656 1933 
C 2656 2259 2592 2790 1837 2790 
C 1331 2790 1069 2400 973 2144 
L 966 2144 
L 966 2790 
L 211 2720 
L 211 2554 
C 589 2554 646 2515 646 2208 
L 646 428 
C 646 184 621 153 211 153 
L 211 -13 
C 365 0 646 0 813 0 
C 979 0 1267 0 1421 -13 
L 1421 153 
C 1011 153 986 178 986 428 
L 986 1658 
C 986 2247 1344 2688 1792 2688 
C 2266 2688 2317 2266 2317 1958 
L 2317 428 
C 2317 184 2291 153 1882 153 
L 1882 -13 
C 2035 0 2317 0 2483 0 
C 2650 0 2938 0 3091 -13 
L 3091 153 
C 2682 153 2656 178 2656 428 
L 2656 1933 
z
" transform="scale(0.015625)"/>
       <path id="CMR17-63" d="M 2234 2240 
C 2112 2240 1933 2240 1933 2017 
C 1933 1838 2080 1787 2163 1787 
C 2208 1787 2394 1807 2394 2024 
C 2394 2467 1958 2803 1466 2803 
C 787 2803 211 2178 211 1363 
C 211 516 813 -64 1466 -64 
C 2259 -64 2458 677 2458 748 
C 2458 774 2451 793 2406 793 
C 2362 793 2355 787 2330 703 
C 2163 180 1798 51 1523 51 
C 1114 51 621 427 621 1369 
C 621 2338 1094 2688 1472 2688 
C 1722 2688 2093 2573 2234 2240 
z
" transform="scale(0.015625)"/>
       <path id="CMR17-28" d="M 1958 -1561 
C 1958 -1555 1958 -1542 1939 -1523 
C 1645 -1224 858 -407 858 1581 
C 858 3569 1632 4379 1946 4697 
C 1946 4704 1958 4717 1958 4736 
C 1958 4755 1939 4768 1914 4768 
C 1843 4768 1299 4296 986 3594 
C 666 2887 576 2199 576 1588 
C 576 1128 621 351 1005 -471 
C 1312 -1135 1837 -1600 1914 -1600 
C 1946 -1600 1958 -1587 1958 -1561 
z
" transform="scale(0.015625)"/>
       <path id="CMMI12-44" d="M 1005 472 
C 947 249 934 185 486 185 
C 365 185 301 185 301 70 
C 301 0 339 0 467 0 
L 2496 0 
C 3789 0 5050 1332 5050 2753 
C 5050 3671 4499 4352 3584 4352 
L 1530 4352 
C 1408 4352 1350 4352 1350 4231 
C 1350 4167 1408 4167 1504 4167 
C 1894 4167 1894 4116 1894 4046 
C 1894 4034 1894 3995 1869 3899 
L 1005 472 
z
M 2355 3931 
C 2413 4167 2438 4167 2688 4167 
L 3392 4167 
C 3994 4167 4544 3842 4544 2963 
C 4544 2644 4416 1536 3795 835 
C 3616 625 3130 185 2394 185 
L 1664 185 
C 1574 185 1562 185 1523 192 
C 1453 198 1446 211 1446 262 
C 1446 307 1459 345 1472 402 
L 2355 3931 
z
" transform="scale(0.015625)"/>
       <path id="CMR17-29" d="M 1683 1581 
C 1683 2040 1638 2817 1254 3639 
C 947 4303 422 4768 346 4768 
C 326 4768 301 4761 301 4729 
C 301 4717 307 4710 314 4697 
C 621 4378 1402 3568 1402 1584 
C 1402 -407 627 -1217 314 -1537 
C 307 -1549 301 -1556 301 -1568 
C 301 -1600 326 -1600 346 -1600 
C 416 -1600 960 -1128 1274 -426 
C 1594 281 1683 969 1683 1581 
z
" transform="scale(0.015625)"/>
       <path id="CMR17-5b" d="M 1504 -1600 
L 1504 -1377 
L 902 -1377 
L 902 4544 
L 1504 4544 
L 1504 4767 
L 678 4767 
L 678 -1600 
L 1504 -1600 
z
" transform="scale(0.015625)"/>
       <path id="CMR17-6b" d="M 1670 1673 
C 1664 1686 1632 1724 1632 1743 
C 1632 1756 2086 2171 2144 2222 
C 2509 2528 2739 2560 2906 2560 
L 2906 2733 
C 2867 2733 2854 2733 2848 2720 
L 2534 2720 
C 2355 2720 2080 2720 1907 2733 
L 1907 2566 
C 1997 2559 2061 2508 2061 2419 
C 2061 2291 1933 2170 1926 2170 
L 960 1289 
L 960 4396 
L 198 4326 
L 198 4160 
C 576 4160 634 4122 634 3817 
L 634 426 
C 634 184 608 153 198 153 
L 198 -13 
C 352 0 634 0 794 0 
C 954 0 1235 0 1389 -13 
L 1389 153 
C 979 153 954 178 954 428 
L 954 1130 
L 1395 1532 
L 2042 574 
C 2118 459 2182 369 2182 286 
C 2182 172 2067 153 1990 153 
L 1990 -13 
C 2144 0 2419 0 2579 0 
C 2694 0 2931 0 3040 0 
L 3040 153 
C 2739 153 2669 210 2477 491 
L 1670 1673 
z
" transform="scale(0.015625)"/>
       <path id="CMR17-70" d="M 1408 -1063 
C 998 -1063 973 -1037 973 -789 
L 973 402 
C 1158 134 1427 -38 1766 -38 
C 2406 -38 3053 523 3053 1388 
C 3053 2191 2496 2802 1837 2802 
C 1453 2802 1139 2592 960 2338 
L 960 2802 
L 198 2732 
L 198 2567 
C 576 2567 634 2528 634 2223 
L 634 -789 
C 634 -1031 608 -1063 198 -1063 
L 198 -1228 
C 352 -1216 634 -1216 800 -1216 
C 966 -1216 1254 -1216 1408 -1228 
L 1408 -1063 
z
M 973 2012 
C 973 2102 973 2235 1222 2471 
C 1254 2497 1472 2688 1792 2688 
C 2259 2688 2643 2108 2643 1382 
C 2643 656 2234 64 1728 64 
C 1498 64 1248 172 1056 472 
C 973 612 973 650 973 752 
L 973 2012 
z
" transform="scale(0.015625)"/>
       <path id="CMR17-5d" d="M 915 4767 
L 90 4767 
L 90 4544 
L 691 4544 
L 691 -1377 
L 90 -1377 
L 90 -1600 
L 915 -1600 
L 915 4767 
z
" transform="scale(0.015625)"/>
      </defs>
      <use xlink:href="#CMR17-54" transform="scale(0.996264)"/>
      <use xlink:href="#CMR17-72" transform="translate(58.702625 0)scale(0.996264)"/>
      <use xlink:href="#CMR17-75" transform="translate(93.983393 0)scale(0.996264)"/>
      <use xlink:href="#CMR17-65" transform="translate(144.878763 0)scale(0.996264)"/>
      <use xlink:href="#CMR17-44" transform="translate(215.44039 0)scale(0.996264)"/>
      <use xlink:href="#CMR17-69" transform="translate(285.833945 0)scale(0.996264)"/>
      <use xlink:href="#CMR17-73" transform="translate(310.705004 0)scale(0.996264)"/>
      <use xlink:href="#CMR17-74" transform="translate(346.506342 0)scale(0.996264)"/>
      <use xlink:href="#CMR17-61" transform="translate(381.787109 0)scale(0.996264)"/>
      <use xlink:href="#CMR17-6e" transform="translate(427.477586 0)scale(0.996264)"/>
      <use xlink:href="#CMR17-63" transform="translate(478.372956 0)scale(0.996264)"/>
      <use xlink:href="#CMR17-65" transform="translate(518.858617 0)scale(0.996264)"/>
      <use xlink:href="#CMR17-28" transform="translate(589.420244 0)scale(0.996264)"/>
      <use xlink:href="#CMMI12-44" transform="translate(624.701011 0)scale(0.996264)"/>
      <use xlink:href="#CMR17-54" transform="translate(708.404959 36.153639)scale(0.697382)"/>
      <use xlink:href="#CMR17-72" transform="translate(749.496608 36.153639)scale(0.697382)"/>
      <use xlink:href="#CMR17-75" transform="translate(774.193029 36.153639)scale(0.697382)"/>
      <use xlink:href="#CMR17-65" transform="translate(809.819637 36.153639)scale(0.697382)"/>
      <use xlink:href="#CMR17-29" transform="translate(838.657601 0)scale(0.996264)"/>
      <use xlink:href="#CMR17-5b" transform="translate(904.014335 0)scale(0.996264)"/>
      <use xlink:href="#CMR17-6b" transform="translate(928.885393 0)scale(0.996264)"/>
      <use xlink:href="#CMR17-70" transform="translate(977.178309 0)scale(0.996264)"/>
      <use xlink:href="#CMR17-63" transform="translate(1030.676118 0)scale(0.996264)"/>
      <use xlink:href="#CMR17-5d" transform="translate(1071.161778 0)scale(0.996264)"/>
     </g>
    </g>
   </g>
   <g id="matplotlib.axis_2">
    <g id="ytick_1">
     <g id="line2d_7">
      <defs>
       <path id="m2f8fb949d2" d="M 0 0 
L -3.5 0 
" style="stroke: #000000; stroke-width: 0.8"/>
      </defs>
      <g>
       <use xlink:href="#m2f8fb949d2" x="49.706667" y="297.148997" style="stroke: #000000; stroke-width: 0.8"/>
      </g>
     </g>
     <g id="text_8">
      <!-- 1 -->
      <g transform="translate(36.853677 301.300087)scale(0.12 -0.12)">
       <use xlink:href="#CMR17-31" transform="scale(0.996264)"/>
      </g>
     </g>
    </g>
    <g id="ytick_2">
     <g id="line2d_8">
      <g>
       <use xlink:href="#m2f8fb949d2" x="49.706667" y="198.551384" style="stroke: #000000; stroke-width: 0.8"/>
      </g>
     </g>
     <g id="text_9">
      <!-- 10 -->
      <g transform="translate(31.000686 202.702474)scale(0.12 -0.12)">
       <use xlink:href="#CMR17-31" transform="scale(0.996264)"/>
       <use xlink:href="#CMR17-30" transform="translate(45.690477 0)scale(0.996264)"/>
      </g>
     </g>
    </g>
    <g id="ytick_3">
     <g id="line2d_9">
      <g>
       <use xlink:href="#m2f8fb949d2" x="49.706667" y="99.953771" style="stroke: #000000; stroke-width: 0.8"/>
      </g>
     </g>
     <g id="text_10">
      <!-- 100 -->
      <g transform="translate(25.147696 104.104861)scale(0.12 -0.12)">
       <use xlink:href="#CMR17-31" transform="scale(0.996264)"/>
       <use xlink:href="#CMR17-30" transform="translate(45.690477 0)scale(0.996264)"/>
       <use xlink:href="#CMR17-30" transform="translate(91.380954 0)scale(0.996264)"/>
      </g>
     </g>
    </g>
    <g id="ytick_4">
     <g id="line2d_10">
      <g>
       <use xlink:href="#m2f8fb949d2" x="49.706667" y="31.036997" style="stroke: #000000; stroke-width: 0.8"/>
      </g>
     </g>
     <g id="text_11">
      <!-- 500 -->
      <g transform="translate(25.147696 35.188087)scale(0.12 -0.12)">
       <defs>
        <path id="CMR17-35" d="M 730 3692 
C 794 3666 1056 3584 1325 3584 
C 1920 3584 2246 3911 2432 4100 
C 2432 4157 2432 4192 2394 4192 
C 2387 4192 2374 4192 2323 4163 
C 2099 4058 1837 3973 1517 3973 
C 1325 3973 1037 3999 723 4139 
C 653 4171 640 4171 634 4171 
C 602 4171 595 4164 595 4037 
L 595 2203 
C 595 2089 595 2057 659 2057 
C 691 2057 704 2070 736 2114 
C 941 2401 1222 2522 1542 2522 
C 1766 2522 2246 2382 2246 1289 
C 2246 1085 2246 715 2054 421 
C 1894 159 1645 25 1370 25 
C 947 25 518 320 403 814 
C 429 807 480 795 506 795 
C 589 795 749 840 749 1038 
C 749 1210 627 1280 506 1280 
C 358 1280 262 1190 262 1011 
C 262 454 704 -128 1382 -128 
C 2042 -128 2669 440 2669 1264 
C 2669 2030 2170 2624 1549 2624 
C 1222 2624 947 2503 730 2274 
L 730 3692 
z
" transform="scale(0.015625)"/>
       </defs>
       <use xlink:href="#CMR17-35" transform="scale(0.996264)"/>
       <use xlink:href="#CMR17-30" transform="translate(45.690477 0)scale(0.996264)"/>
       <use xlink:href="#CMR17-30" transform="translate(91.380954 0)scale(0.996264)"/>
      </g>
     </g>
    </g>
    <g id="ytick_5">
     <g id="line2d_11">
      <defs>
       <path id="m61b398eed3" d="M 0 0 
L -2 0 
" style="stroke: #000000; stroke-width: 0.6"/>
      </defs>
      <g>
       <use xlink:href="#m61b398eed3" x="49.706667" y="267.468158" style="stroke: #000000; stroke-width: 0.6"/>
      </g>
     </g>
    </g>
    <g id="ytick_6">
     <g id="line2d_12">
      <g>
       <use xlink:href="#m61b398eed3" x="49.706667" y="250.10598" style="stroke: #000000; stroke-width: 0.6"/>
      </g>
     </g>
    </g>
    <g id="ytick_7">
     <g id="line2d_13">
      <g>
       <use xlink:href="#m61b398eed3" x="49.706667" y="237.787319" style="stroke: #000000; stroke-width: 0.6"/>
      </g>
     </g>
    </g>
    <g id="ytick_8">
     <g id="line2d_14">
      <g>
       <use xlink:href="#m61b398eed3" x="49.706667" y="228.232223" style="stroke: #000000; stroke-width: 0.6"/>
      </g>
     </g>
    </g>
    <g id="ytick_9">
     <g id="line2d_15">
      <g>
       <use xlink:href="#m61b398eed3" x="49.706667" y="220.425141" style="stroke: #000000; stroke-width: 0.6"/>
      </g>
     </g>
    </g>
    <g id="ytick_10">
     <g id="line2d_16">
      <g>
       <use xlink:href="#m61b398eed3" x="49.706667" y="213.824347" style="stroke: #000000; stroke-width: 0.6"/>
      </g>
     </g>
    </g>
    <g id="ytick_11">
     <g id="line2d_17">
      <g>
       <use xlink:href="#m61b398eed3" x="49.706667" y="208.10648" style="stroke: #000000; stroke-width: 0.6"/>
      </g>
     </g>
    </g>
    <g id="ytick_12">
     <g id="line2d_18">
      <g>
       <use xlink:href="#m61b398eed3" x="49.706667" y="203.062963" style="stroke: #000000; stroke-width: 0.6"/>
      </g>
     </g>
    </g>
    <g id="ytick_13">
     <g id="line2d_19">
      <g>
       <use xlink:href="#m61b398eed3" x="49.706667" y="168.870545" style="stroke: #000000; stroke-width: 0.6"/>
      </g>
     </g>
    </g>
    <g id="ytick_14">
     <g id="line2d_20">
      <g>
       <use xlink:href="#m61b398eed3" x="49.706667" y="151.508367" style="stroke: #000000; stroke-width: 0.6"/>
      </g>
     </g>
    </g>
    <g id="ytick_15">
     <g id="line2d_21">
      <g>
       <use xlink:href="#m61b398eed3" x="49.706667" y="139.189706" style="stroke: #000000; stroke-width: 0.6"/>
      </g>
     </g>
    </g>
    <g id="ytick_16">
     <g id="line2d_22">
      <g>
       <use xlink:href="#m61b398eed3" x="49.706667" y="129.63461" style="stroke: #000000; stroke-width: 0.6"/>
      </g>
     </g>
    </g>
    <g id="ytick_17">
     <g id="line2d_23">
      <g>
       <use xlink:href="#m61b398eed3" x="49.706667" y="121.827528" style="stroke: #000000; stroke-width: 0.6"/>
      </g>
     </g>
    </g>
    <g id="ytick_18">
     <g id="line2d_24">
      <g>
       <use xlink:href="#m61b398eed3" x="49.706667" y="115.226734" style="stroke: #000000; stroke-width: 0.6"/>
      </g>
     </g>
    </g>
    <g id="ytick_19">
     <g id="line2d_25">
      <g>
       <use xlink:href="#m61b398eed3" x="49.706667" y="109.508867" style="stroke: #000000; stroke-width: 0.6"/>
      </g>
     </g>
    </g>
    <g id="ytick_20">
     <g id="line2d_26">
      <g>
       <use xlink:href="#m61b398eed3" x="49.706667" y="104.46535" style="stroke: #000000; stroke-width: 0.6"/>
      </g>
     </g>
    </g>
    <g id="ytick_21">
     <g id="line2d_27">
      <g>
       <use xlink:href="#m61b398eed3" x="49.706667" y="70.272932" style="stroke: #000000; stroke-width: 0.6"/>
      </g>
     </g>
    </g>
    <g id="ytick_22">
     <g id="line2d_28">
      <g>
       <use xlink:href="#m61b398eed3" x="49.706667" y="52.910754" style="stroke: #000000; stroke-width: 0.6"/>
      </g>
     </g>
    </g>
    <g id="ytick_23">
     <g id="line2d_29">
      <g>
       <use xlink:href="#m61b398eed3" x="49.706667" y="40.592093" style="stroke: #000000; stroke-width: 0.6"/>
      </g>
     </g>
    </g>
    <g id="text_12">
     <!-- Reconstructed Distance ($D^{\mathrm{rec}}$) [kpc] -->
     <g transform="translate(17.660772 271.53902)rotate(-90)scale(0.14 -0.14)">
      <defs>
       <path id="CMR17-52" d="M 2509 2146 
C 3117 2268 3629 2676 3629 3186 
C 3629 3785 2950 4326 2054 4326 
L 333 4326 
L 333 4160 
C 774 4160 845 4160 845 3873 
L 845 415 
C 845 128 774 128 333 128 
L 333 -26 
C 518 -26 851 -26 1050 -26 
C 1248 -26 1581 -26 1766 -26 
L 1766 128 
C 1325 128 1254 128 1254 417 
L 1254 2112 
L 2003 2112 
C 2368 2112 2573 1964 2662 1881 
C 2918 1632 2918 1459 2918 1024 
C 2918 595 2918 377 3110 160 
C 3354 -102 3680 -128 3821 -128 
C 4294 -128 4365 396 4365 503 
C 4365 540 4365 585 4307 585 
C 4256 585 4250 547 4250 522 
C 4218 112 4032 -26 3834 -26 
C 3482 -26 3443 375 3405 764 
C 3386 898 3373 993 3360 1133 
C 3322 1452 3270 1917 2509 2146 
z
M 1984 2214 
L 1254 2214 
L 1254 3913 
C 1254 4129 1267 4160 1523 4160 
L 1990 4160 
C 2522 4160 3142 3977 3142 3190 
C 3142 2372 2464 2214 1984 2214 
z
" transform="scale(0.015625)"/>
       <path id="CMR17-6f" d="M 2758 1356 
C 2758 2176 2163 2816 1466 2816 
C 768 2816 173 2176 173 1356 
C 173 551 768 -64 1466 -64 
C 2163 -64 2758 551 2758 1356 
z
M 1466 51 
C 1165 51 909 230 762 480 
C 602 767 582 1126 582 1408 
C 582 1677 595 2010 762 2298 
C 890 2509 1139 2714 1466 2714 
C 1754 2714 1997 2554 2150 2330 
C 2349 2029 2349 1607 2349 1408 
C 2349 1158 2336 775 2163 467 
C 1984 173 1709 51 1466 51 
z
" transform="scale(0.015625)"/>
       <path id="CMR17-64" d="M 1869 4326 
L 1869 4160 
C 2246 4160 2304 4122 2304 3820 
L 2304 2345 
C 2278 2377 2016 2790 1498 2790 
C 845 2790 211 2208 211 1364 
C 211 525 806 -64 1434 -64 
C 1978 -64 2259 337 2291 380 
L 2291 -63 
L 3066 -63 
L 3066 128 
C 2688 128 2630 166 2630 473 
L 2630 4396 
L 1869 4326 
z
M 2291 755 
C 2291 563 2176 390 2029 262 
C 1811 70 1594 38 1472 38 
C 1286 38 621 134 621 1356 
C 621 2612 1363 2688 1530 2688 
C 1824 2688 2061 2522 2208 2291 
C 2291 2157 2291 2138 2291 2023 
L 2291 755 
z
" transform="scale(0.015625)"/>
      </defs>
      <use xlink:href="#CMR17-52" transform="scale(0.996264)"/>
      <use xlink:href="#CMR17-65" transform="translate(67.791102 0)scale(0.996264)"/>
      <use xlink:href="#CMR17-63" transform="translate(108.276762 0)scale(0.996264)"/>
      <use xlink:href="#CMR17-6f" transform="translate(148.762423 0)scale(0.996264)"/>
      <use xlink:href="#CMR17-6e" transform="translate(194.4529 0)scale(0.996264)"/>
      <use xlink:href="#CMR17-73" transform="translate(245.34827 0)scale(0.996264)"/>
      <use xlink:href="#CMR17-74" transform="translate(281.149607 0)scale(0.996264)"/>
      <use xlink:href="#CMR17-72" transform="translate(316.430375 0)scale(0.996264)"/>
      <use xlink:href="#CMR17-75" transform="translate(351.711143 0)scale(0.996264)"/>
      <use xlink:href="#CMR17-63" transform="translate(402.606513 0)scale(0.996264)"/>
      <use xlink:href="#CMR17-74" transform="translate(443.092173 0)scale(0.996264)"/>
      <use xlink:href="#CMR17-65" transform="translate(478.372941 0)scale(0.996264)"/>
      <use xlink:href="#CMR17-64" transform="translate(518.858602 0)scale(0.996264)"/>
      <use xlink:href="#CMR17-44" transform="translate(599.829938 0)scale(0.996264)"/>
      <use xlink:href="#CMR17-69" transform="translate(670.223494 0)scale(0.996264)"/>
      <use xlink:href="#CMR17-73" transform="translate(695.094552 0)scale(0.996264)"/>
      <use xlink:href="#CMR17-74" transform="translate(730.89589 0)scale(0.996264)"/>
      <use xlink:href="#CMR17-61" transform="translate(766.176657 0)scale(0.996264)"/>
      <use xlink:href="#CMR17-6e" transform="translate(811.867135 0)scale(0.996264)"/>
      <use xlink:href="#CMR17-63" transform="translate(862.762504 0)scale(0.996264)"/>
      <use xlink:href="#CMR17-65" transform="translate(903.248165 0)scale(0.996264)"/>
      <use xlink:href="#CMR17-28" transform="translate(973.809792 0)scale(0.996264)"/>
      <use xlink:href="#CMMI12-44" transform="translate(1009.090559 0)scale(0.996264)"/>
      <use xlink:href="#CMR17-72" transform="translate(1092.794507 36.153639)scale(0.697382)"/>
      <use xlink:href="#CMR17-65" transform="translate(1117.490928 36.153639)scale(0.697382)"/>
      <use xlink:href="#CMR17-63" transform="translate(1145.830759 36.153639)scale(0.697382)"/>
      <use xlink:href="#CMR17-29" transform="translate(1174.668723 0)scale(0.996264)"/>
      <use xlink:href="#CMR17-5b" transform="translate(1240.025457 0)scale(0.996264)"/>
      <use xlink:href="#CMR17-6b" transform="translate(1264.896515 0)scale(0.996264)"/>
      <use xlink:href="#CMR17-70" transform="translate(1313.189431 0)scale(0.996264)"/>
      <use xlink:href="#CMR17-63" transform="translate(1366.68724 0)scale(0.996264)"/>
      <use xlink:href="#CMR17-5d" transform="translate(1407.1729 0)scale(0.996264)"/>
     </g>
    </g>
   </g>
   <g id="line2d_30">
    <path d="M 53.277867 298.38653 
L 56.849067 268.565935 
L 63.991467 239.39231 
L 71.133867 221.899456 
L 78.276267 209.6838 
L 85.418667 199.740481 
L 92.561067 192.010637 
L 99.703467 185.456737 
L 106.845867 179.576256 
L 113.988267 174.86586 
L 121.130667 170.121563 
L 128.273067 165.961605 
L 135.415467 162.68889 
L 142.557867 158.96981 
L 149.700267 155.718725 
L 156.842667 152.908802 
L 163.985067 150.2095 
L 171.127467 147.661123 
L 178.269867 145.284193 
L 185.412267 142.83936 
L 192.554667 140.44043 
L 199.697067 138.189525 
L 206.839467 136.500967 
L 213.981867 134.774525 
L 221.124267 132.73851 
L 228.266667 130.990839 
L 235.409067 129.028745 
L 242.551467 127.356199 
L 249.693867 125.719885 
L 256.836267 124.520217 
L 263.978667 122.794964 
L 271.121067 121.76234 
L 278.263467 120.059649 
L 285.405867 118.689675 
L 292.548267 117.664576 
L 299.690667 116.747878 
L 306.833067 115.294663 
L 313.975467 113.533951 
L 321.117867 113.367659 
L 328.260267 111.912365 
L 335.402667 111.410602 
L 342.545067 110.079077 
L 349.687467 108.144505 
L 356.829867 107.298573 
L 363.972267 106.802598 
L 371.114667 105.637385 
L 378.257067 104.431745 
L 385.399467 103.444394 
L 392.541867 102.054379 
L 399.684267 101.872086 
L 406.826667 101.192248 
" clip-path="url(#p45f70637d9)" style="fill: none; stroke: #ff7f0e; stroke-width: 2; stroke-linecap: square"/>
   </g>
   <g id="line2d_31">
    <path d="M 53.277867 297.148997 
L 56.849067 267.468158 
L 63.991467 237.787319 
L 71.133867 220.425141 
L 78.276267 208.10648 
L 85.418667 198.551384 
L 92.561067 190.744302 
L 99.703467 184.143508 
L 106.845867 178.425641 
L 113.988267 173.382124 
L 121.130667 168.870545 
L 128.273067 164.789325 
L 135.415467 161.063463 
L 142.557867 157.636002 
L 149.700267 154.462669 
L 156.842667 151.508367 
L 163.985067 148.744802 
L 171.127467 146.148831 
L 178.269867 143.701285 
L 185.412267 141.386105 
L 192.554667 139.189706 
L 199.697067 137.100491 
L 206.839467 135.108486 
L 213.981867 133.205044 
L 221.124267 131.382624 
L 228.266667 129.63461 
L 235.409067 127.955163 
L 242.551467 126.339107 
L 249.693867 124.78183 
L 256.836267 123.279206 
L 263.978667 121.827528 
L 271.121067 120.423455 
L 278.263467 119.063963 
L 285.405867 117.746308 
L 292.548267 116.467992 
L 299.690667 115.226734 
L 306.833067 114.020446 
L 313.975467 112.847211 
L 321.117867 111.705266 
L 328.260267 110.592985 
L 335.402667 109.508867 
L 342.545067 108.451519 
L 349.687467 107.419652 
L 356.829867 106.412067 
L 363.972267 105.427647 
L 371.114667 104.46535 
L 378.257067 103.524205 
L 385.399467 102.6033 
L 392.541867 101.701785 
L 399.684267 100.818859 
L 406.826667 99.953771 
" clip-path="url(#p45f70637d9)" style="fill: none; stroke-dasharray: 3.7,1.6; stroke-dashoffset: 0; stroke: #000000"/>
   </g>
   <g id="line2d_32">
    <path d="M 222.909867 297.148997 
L 222.909867 31.036997 
" clip-path="url(#p45f70637d9)" style="fill: none; stroke-dasharray: 3.7,1.6; stroke-dashoffset: 0; stroke: #dc143c"/>
   </g>
   <g id="line2d_33">
    <path d="M 78.276267 297.148997 
L 78.276267 31.036997 
" clip-path="url(#p45f70637d9)" style="fill: none; stroke-dasharray: 3.7,1.6; stroke-dashoffset: 0; stroke: #dc143c"/>
   </g>
   <g id="line2d_34">
    <path d="M 113.988267 297.148997 
L 113.988267 31.036997 
" clip-path="url(#p45f70637d9)" style="fill: none; stroke-dasharray: 3.7,1.6; stroke-dashoffset: 0; stroke: #dc143c"/>
   </g>
   <g id="patch_3">
    <path d="M 49.706667 297.148997 
L 49.706667 31.036997 
" style="fill: none; stroke: #000000; stroke-width: 0.8; stroke-linejoin: miter; stroke-linecap: square"/>
   </g>
   <g id="patch_4">
    <path d="M 406.826667 297.148997 
L 406.826667 31.036997 
" style="fill: none; stroke: #000000; stroke-width: 0.8; stroke-linejoin: miter; stroke-linecap: square"/>
   </g>
   <g id="patch_5">
    <path d="M 49.706667 297.148997 
L 406.826667 297.148997 
" style="fill: none; stroke: #000000; stroke-width: 0.8; stroke-linejoin: miter; stroke-linecap: square"/>
   </g>
   <g id="patch_6">
    <path d="M 49.706667 31.036997 
L 406.826667 31.036997 
" style="fill: none; stroke: #000000; stroke-width: 0.8; stroke-linejoin: miter; stroke-linecap: square"/>
   </g>
   <g id="text_13">
    <g id="patch_7">
     <path d="M 231.80799 203.982278 
L 346.146144 203.982278 
Q 349.446144 203.982278 349.446144 200.682278 
L 349.446144 179.677726 
Q 349.446144 176.377726 346.146144 176.377726 
L 231.80799 176.377726 
Q 228.50799 176.377726 228.50799 179.677726 
L 228.50799 200.682278 
Q 228.50799 203.982278 231.80799 203.982278 
z
" style="fill: #f5deb3; opacity: 0.7; stroke: #000000; stroke-linejoin: miter"/>
    </g>
    <!-- Large Megallanic Cloud  -->
    <g style="fill: #dc143c" transform="translate(231.80799 187.288073)scale(0.11 -0.11)">
     <defs>
      <path id="CMR17-4c" d="M 3469 1615 
L 3354 1615 
C 3302 983 3219 166 2125 166 
L 1530 166 
C 1274 166 1261 197 1261 414 
L 1261 3898 
C 1261 4129 1274 4192 1760 4192 
L 1901 4192 
L 1901 4352 
C 1638 4352 1331 4352 1069 4352 
C 870 4352 512 4352 326 4352 
L 326 4192 
C 768 4192 838 4192 838 3905 
L 838 452 
C 838 166 768 166 326 166 
L 326 0 
L 3315 0 
L 3469 1615 
z
" transform="scale(0.015625)"/>
      <path id="CMR17-67" d="M 710 1164 
C 832 1068 1043 960 1299 960 
C 1805 960 2240 1357 2240 1888 
C 2240 2054 2189 2310 1997 2509 
C 2176 2692 2438 2752 2586 2752 
C 2611 2752 2650 2752 2682 2734 
C 2656 2728 2598 2703 2598 2605 
C 2598 2527 2656 2471 2739 2471 
C 2835 2471 2886 2533 2886 2614 
C 2886 2731 2790 2854 2586 2854 
C 2330 2854 2106 2738 1926 2580 
C 1734 2753 1504 2816 1299 2816 
C 794 2816 358 2419 358 1888 
C 358 1522 570 1292 634 1228 
C 442 1004 442 743 442 711 
C 442 545 506 302 723 168 
C 390 85 128 -169 128 -486 
C 128 -943 736 -1280 1466 -1280 
C 2170 -1280 2803 -956 2803 -479 
C 2803 384 1856 384 1363 384 
C 1216 384 954 384 922 391 
C 723 423 589 602 589 826 
C 589 883 589 1024 710 1164 
z
M 1299 1068 
C 736 1068 736 1760 736 1889 
C 736 2016 736 2708 1299 2708 
C 1862 2708 1862 2016 1862 1889 
C 1862 1760 1862 1068 1299 1068 
z
M 1466 -1171 
C 826 -1171 384 -835 384 -486 
C 384 -289 493 -105 634 -4 
C 794 104 858 104 1293 104 
C 1818 104 2547 104 2547 -486 
C 2547 -835 2106 -1171 1466 -1171 
z
" transform="scale(0.015625)"/>
      <path id="CMR17-4d" d="M 1338 4224 
C 1299 4320 1293 4320 1158 4320 
L 339 4320 
L 339 4160 
C 781 4160 851 4160 851 3875 
L 851 610 
C 851 451 851 153 339 153 
L 339 -13 
C 486 0 755 0 915 0 
C 1075 0 1344 0 1491 -13 
L 1491 153 
C 979 153 979 451 979 610 
L 979 4135 
L 986 4135 
L 2490 89 
C 2515 25 2528 -13 2579 -13 
C 2630 -13 2643 25 2669 89 
L 4186 4166 
L 4192 4166 
L 4192 438 
C 4192 153 4122 153 3680 153 
L 3680 -13 
C 3853 0 4198 0 4384 0 
C 4570 0 4922 0 5094 -13 
L 5094 153 
C 4653 153 4582 153 4582 438 
L 4582 3875 
C 4582 4160 4653 4160 5094 4160 
L 5094 4320 
L 4282 4320 
C 4147 4320 4141 4314 4102 4218 
L 2720 502 
L 1338 4224 
z
" transform="scale(0.015625)"/>
      <path id="CMR17-6c" d="M 979 4396 
L 218 4326 
L 218 4160 
C 595 4160 653 4122 653 3817 
L 653 426 
C 653 184 627 153 218 153 
L 218 -13 
C 371 0 653 0 813 0 
C 979 0 1261 0 1414 -13 
L 1414 153 
C 1005 153 979 178 979 426 
L 979 4396 
z
" transform="scale(0.015625)"/>
      <path id="CMR17-43" d="M 3974 4289 
C 3974 4403 3968 4410 3930 4410 
C 3904 4410 3898 4403 3853 4327 
L 3571 3792 
C 3258 4187 2874 4416 2381 4416 
C 1286 4416 294 3456 294 2148 
C 294 826 1286 -128 2387 -128 
C 3366 -128 3974 730 3974 1461 
C 3974 1524 3974 1550 3917 1550 
C 3866 1550 3866 1531 3859 1474 
C 3808 585 3168 38 2477 38 
C 1824 38 781 495 781 2147 
C 781 3805 1843 4250 2464 4250 
C 3187 4250 3712 3628 3834 2745 
C 3846 2668 3846 2655 3904 2655 
C 3974 2655 3974 2668 3974 2783 
L 3974 4289 
z
" transform="scale(0.015625)"/>
     </defs>
     <use xlink:href="#CMR17-4c" transform="scale(0.996264)"/>
     <use xlink:href="#CMR17-61" transform="translate(57.381408 0)scale(0.996264)"/>
     <use xlink:href="#CMR17-72" transform="translate(103.071885 0)scale(0.996264)"/>
     <use xlink:href="#CMR17-67" transform="translate(138.352653 0)scale(0.996264)"/>
     <use xlink:href="#CMR17-65" transform="translate(184.04313 0)scale(0.996264)"/>
     <use xlink:href="#CMR17-4d" transform="translate(254.604757 0)scale(0.996264)"/>
     <use xlink:href="#CMR17-65" transform="translate(339.291697 0)scale(0.996264)"/>
     <use xlink:href="#CMR17-67" transform="translate(379.777358 0)scale(0.996264)"/>
     <use xlink:href="#CMR17-61" transform="translate(425.467835 0)scale(0.996264)"/>
     <use xlink:href="#CMR17-6c" transform="translate(471.158312 0)scale(0.996264)"/>
     <use xlink:href="#CMR17-6c" transform="translate(496.02937 0)scale(0.996264)"/>
     <use xlink:href="#CMR17-61" transform="translate(520.900429 0)scale(0.996264)"/>
     <use xlink:href="#CMR17-6e" transform="translate(566.590906 0)scale(0.996264)"/>
     <use xlink:href="#CMR17-69" transform="translate(617.486276 0)scale(0.996264)"/>
     <use xlink:href="#CMR17-63" transform="translate(642.357334 0)scale(0.996264)"/>
     <use xlink:href="#CMR17-43" transform="translate(712.918961 0)scale(0.996264)"/>
     <use xlink:href="#CMR17-6c" transform="translate(779.428842 0)scale(0.996264)"/>
     <use xlink:href="#CMR17-6f" transform="translate(804.2999 0)scale(0.996264)"/>
     <use xlink:href="#CMR17-75" transform="translate(849.990377 0)scale(0.996264)"/>
     <use xlink:href="#CMR17-64" transform="translate(900.885747 0)scale(0.996264)"/>
    </g>
    <!--  $D = 48.5 \, \mathrm{kpc}$ -->
    <g style="fill: #dc143c" transform="translate(257.80433 198.551384)scale(0.11 -0.11)">
     <defs>
      <path id="CMR17-3d" d="M 4115 2017 
C 4211 2017 4307 2017 4307 2125 
C 4307 2240 4198 2240 4090 2240 
L 512 2240 
C 403 2240 294 2240 294 2125 
C 294 2017 390 2017 486 2017 
L 4115 2017 
z
M 4090 896 
C 4198 896 4307 896 4307 1011 
C 4307 1119 4211 1119 4115 1119 
L 486 1119 
C 390 1119 294 1119 294 1011 
C 294 896 403 896 512 896 
L 4090 896 
z
" transform="scale(0.015625)"/>
      <path id="CMMI12-3a" d="M 1178 307 
C 1178 492 1024 619 870 619 
C 685 619 557 466 557 313 
C 557 128 710 0 864 0 
C 1050 0 1178 153 1178 307 
z
" transform="scale(0.015625)"/>
     </defs>
     <use xlink:href="#CMMI12-44" transform="scale(0.996264)"/>
     <use xlink:href="#CMR17-3d" transform="translate(111.377956 0)scale(0.996264)"/>
     <use xlink:href="#CMR17-34" transform="translate(210.766754 0)scale(0.996264)"/>
     <use xlink:href="#CMR17-38" transform="translate(256.457231 0)scale(0.996264)"/>
     <use xlink:href="#CMMI12-3a" transform="translate(302.147708 0)scale(0.996264)"/>
     <use xlink:href="#CMR17-35" transform="translate(329.244885 0)scale(0.996264)"/>
     <use xlink:href="#CMR17-6b" transform="translate(391.539767 0)scale(0.996264)"/>
     <use xlink:href="#CMR17-70" transform="translate(439.832683 0)scale(0.996264)"/>
     <use xlink:href="#CMR17-63" transform="translate(493.330492 0)scale(0.996264)"/>
    </g>
   </g>
   <g id="text_14">
    <g id="patch_8">
     <path d="M 85.267791 105.384665 
L 160.564743 105.384665 
Q 163.864743 105.384665 163.864743 102.084665 
L 163.864743 81.080113 
Q 163.864743 77.780113 160.564743 77.780113 
L 85.267791 77.780113 
Q 81.967791 77.780113 81.967791 81.080113 
L 81.967791 102.084665 
Q 81.967791 105.384665 85.267791 105.384665 
z
" style="fill: #f5deb3; opacity: 0.7; stroke: #000000; stroke-linejoin: miter"/>
    </g>
    <!-- Galactic Center  -->
    <g style="fill: #dc143c" transform="translate(85.267791 88.69046)scale(0.11 -0.11)">
     <defs>
      <path id="CMR17-47" d="M 3974 1233 
C 3974 1473 3994 1505 4390 1505 
L 4390 1670 
C 4237 1664 3891 1664 3718 1664 
C 3539 1664 3040 1664 2797 1664 
L 2797 1505 
L 2989 1505 
C 3539 1505 3552 1434 3552 1201 
L 3552 774 
C 3552 63 2720 63 2522 63 
C 1862 63 781 511 781 2160 
C 781 3808 1843 4250 2464 4250 
C 3187 4250 3712 3626 3834 2741 
C 3846 2664 3846 2651 3904 2651 
C 3974 2651 3974 2664 3974 2779 
L 3974 4288 
C 3974 4402 3968 4409 3930 4409 
C 3904 4409 3898 4402 3853 4326 
L 3571 3791 
C 3258 4187 2874 4416 2381 4416 
C 1286 4416 294 3456 294 2148 
C 294 845 1267 -128 2394 -128 
C 2912 -128 3418 56 3616 417 
C 3725 158 3904 -20 3936 -20 
C 3968 -20 3974 -13 3974 100 
L 3974 1233 
z
" transform="scale(0.015625)"/>
     </defs>
     <use xlink:href="#CMR17-47" transform="scale(0.996264)"/>
     <use xlink:href="#CMR17-61" transform="translate(72.355346 0)scale(0.996264)"/>
     <use xlink:href="#CMR17-6c" transform="translate(118.045823 0)scale(0.996264)"/>
     <use xlink:href="#CMR17-61" transform="translate(142.916882 0)scale(0.996264)"/>
     <use xlink:href="#CMR17-63" transform="translate(188.607359 0)scale(0.996264)"/>
     <use xlink:href="#CMR17-74" transform="translate(229.093019 0)scale(0.996264)"/>
     <use xlink:href="#CMR17-69" transform="translate(264.373787 0)scale(0.996264)"/>
     <use xlink:href="#CMR17-63" transform="translate(289.244845 0)scale(0.996264)"/>
     <use xlink:href="#CMR17-43" transform="translate(359.806472 0)scale(0.996264)"/>
     <use xlink:href="#CMR17-65" transform="translate(426.316353 0)scale(0.996264)"/>
     <use xlink:href="#CMR17-6e" transform="translate(466.802013 0)scale(0.996264)"/>
     <use xlink:href="#CMR17-74" transform="translate(515.094929 0)scale(0.996264)"/>
     <use xlink:href="#CMR17-65" transform="translate(550.375697 0)scale(0.996264)"/>
     <use xlink:href="#CMR17-72" transform="translate(590.861357 0)scale(0.996264)"/>
    </g>
    <!--  $D = 8 \, \mathrm{kpc}$ -->
    <g style="fill: #dc143c" transform="translate(98.745068 99.953771)scale(0.11 -0.11)">
     <use xlink:href="#CMMI12-44" transform="scale(0.996264)"/>
     <use xlink:href="#CMR17-3d" transform="translate(111.377956 0)scale(0.996264)"/>
     <use xlink:href="#CMR17-38" transform="translate(210.766754 0)scale(0.996264)"/>
     <use xlink:href="#CMR17-6b" transform="translate(273.061636 0)scale(0.996264)"/>
     <use xlink:href="#CMR17-70" transform="translate(321.354552 0)scale(0.996264)"/>
     <use xlink:href="#CMR17-63" transform="translate(374.85236 0)scale(0.996264)"/>
    </g>
   </g>
   <g id="text_15">
    <g id="patch_9">
     <path d="M 120.625823 225.856036 
L 182.345911 225.856036 
Q 185.645911 225.856036 185.645911 222.556036 
L 185.645911 201.551484 
Q 185.645911 198.251484 182.345911 198.251484 
L 120.625823 198.251484 
Q 117.325823 198.251484 117.325823 201.551484 
L 117.325823 222.556036 
Q 117.325823 225.856036 120.625823 225.856036 
z
" style="fill: #f5deb3; opacity: 0.7; stroke: #000000; stroke-linejoin: miter"/>
    </g>
    <!-- Galaxy Edge  -->
    <g style="fill: #dc143c" transform="translate(120.625823 209.16183)scale(0.11 -0.11)">
     <defs>
      <path id="CMR17-78" d="M 1664 1477 
C 1856 1726 2074 2006 2253 2216 
C 2464 2458 2707 2560 2989 2560 
L 2989 2726 
C 2880 2726 2656 2726 2541 2726 
C 2368 2726 2170 2726 2022 2732 
L 2022 2566 
C 2112 2553 2163 2489 2163 2400 
C 2163 2285 2099 2215 2067 2171 
L 1594 1573 
L 1030 2306 
C 973 2376 973 2388 973 2420 
C 973 2497 1037 2560 1146 2560 
L 1146 2732 
C 992 2726 717 2726 557 2726 
C 384 2726 179 2726 38 2732 
L 38 2560 
C 384 2560 461 2534 614 2343 
L 1350 1395 
C 1363 1382 1395 1344 1395 1325 
C 1395 1299 838 619 768 530 
C 480 185 179 160 6 160 
L 6 0 
C 115 0 339 0 454 0 
C 582 0 864 0 979 -6 
L 979 160 
C 941 166 838 179 838 325 
C 838 440 890 510 947 586 
L 1478 1236 
L 2035 512 
C 2086 442 2163 346 2163 301 
C 2163 211 2086 160 1984 160 
L 1984 -6 
C 2138 0 2413 0 2573 0 
C 2746 0 2950 0 3091 -6 
L 3091 160 
C 2771 160 2675 172 2522 370 
L 1664 1477 
z
" transform="scale(0.015625)"/>
      <path id="CMR17-79" d="M 2496 2197 
C 2656 2586 2944 2586 3034 2586 
L 3034 2752 
C 2912 2752 2752 2752 2630 2752 
C 2496 2752 2285 2752 2157 2758 
L 2157 2592 
C 2400 2573 2406 2394 2406 2343 
C 2406 2280 2394 2248 2362 2171 
L 1664 449 
L 902 2306 
C 870 2382 870 2426 870 2433 
C 870 2573 1018 2586 1171 2586 
L 1171 2758 
C 1018 2752 742 2752 582 2752 
C 410 2752 205 2752 64 2758 
L 64 2586 
C 410 2586 448 2554 531 2350 
L 1485 15 
C 1197 -738 1030 -1178 627 -1178 
C 557 -1178 397 -1159 282 -1044 
C 429 -1031 493 -942 493 -833 
C 493 -725 416 -629 288 -629 
C 147 -629 77 -725 77 -840 
C 77 -1095 339 -1280 627 -1280 
C 998 -1280 1229 -922 1357 -604 
L 2496 2197 
z
" transform="scale(0.015625)"/>
      <path id="CMR17-45" d="M 3885 1615 
L 3770 1615 
C 3629 676 3546 166 2419 166 
L 1530 166 
C 1274 166 1261 197 1261 414 
L 1261 2176 
L 1862 2176 
C 2464 2176 2522 1960 2522 1430 
L 2637 1430 
L 2637 3081 
L 2522 3081 
C 2522 2557 2464 2342 1862 2342 
L 1261 2342 
L 1261 3913 
C 1261 4128 1274 4160 1530 4160 
L 2406 4160 
C 3398 4160 3514 3769 3603 2929 
L 3718 2929 
L 3565 4325 
L 326 4325 
L 326 4160 
C 768 4160 838 4160 838 3874 
L 838 451 
C 838 166 768 166 326 166 
L 326 0 
L 3654 0 
L 3885 1615 
z
" transform="scale(0.015625)"/>
     </defs>
     <use xlink:href="#CMR17-47" transform="scale(0.996264)"/>
     <use xlink:href="#CMR17-61" transform="translate(72.355346 0)scale(0.996264)"/>
     <use xlink:href="#CMR17-6c" transform="translate(118.045823 0)scale(0.996264)"/>
     <use xlink:href="#CMR17-61" transform="translate(142.916882 0)scale(0.996264)"/>
     <use xlink:href="#CMR17-78" transform="translate(188.607359 0)scale(0.996264)"/>
     <use xlink:href="#CMR17-79" transform="translate(236.900274 0)scale(0.996264)"/>
     <use xlink:href="#CMR17-45" transform="translate(315.269157 0)scale(0.996264)"/>
     <use xlink:href="#CMR17-64" transform="translate(377.855457 0)scale(0.996264)"/>
     <use xlink:href="#CMR17-67" transform="translate(428.750827 0)scale(0.996264)"/>
     <use xlink:href="#CMR17-65" transform="translate(474.441304 0)scale(0.996264)"/>
    </g>
    <!--  $D = 18 \, \mathrm{kpc}$ -->
    <g style="fill: #dc143c" transform="translate(124.574934 220.425141)scale(0.11 -0.11)">
     <use xlink:href="#CMMI12-44" transform="scale(0.996264)"/>
     <use xlink:href="#CMR17-3d" transform="translate(111.377956 0)scale(0.996264)"/>
     <use xlink:href="#CMR17-31" transform="translate(210.766754 0)scale(0.996264)"/>
     <use xlink:href="#CMR17-38" transform="translate(256.457231 0)scale(0.996264)"/>
     <use xlink:href="#CMR17-6b" transform="translate(318.752113 0)scale(0.996264)"/>
     <use xlink:href="#CMR17-70" transform="translate(367.045029 0)scale(0.996264)"/>
     <use xlink:href="#CMR17-63" transform="translate(420.542837 0)scale(0.996264)"/>
    </g>
   </g>
   <g id="text_16">
    <!-- Hyper-K distance reconstruction for 27 $M_\odot$ CCSN -->
    <g transform="translate(25.818792 21.036997)scale(0.2 -0.2)">
     <defs>
      <path id="CMR17-48" d="M 3590 3905 
C 3590 4192 3661 4192 4102 4192 
L 4102 4352 
C 3917 4352 3578 4352 3379 4352 
C 3181 4352 2842 4352 2656 4352 
L 2656 4192 
C 3098 4192 3168 4192 3168 3904 
L 3168 2341 
L 1261 2341 
L 1261 3904 
C 1261 4192 1331 4192 1773 4192 
L 1773 4352 
C 1587 4352 1248 4352 1050 4352 
C 851 4352 512 4352 326 4352 
L 326 4192 
C 768 4192 838 4192 838 3905 
L 838 447 
C 838 160 768 160 326 160 
L 326 0 
C 512 0 851 0 1050 0 
C 1248 0 1587 0 1773 0 
L 1773 160 
C 1331 160 1261 160 1261 446 
L 1261 2176 
L 3168 2176 
L 3168 446 
C 3168 160 3098 160 2656 160 
L 2656 0 
C 2842 0 3181 0 3379 0 
C 3578 0 3917 0 4102 0 
L 4102 160 
C 3661 160 3590 160 3590 447 
L 3590 3905 
z
" transform="scale(0.015625)"/>
      <path id="CMR17-2d" d="M 1632 1216 
L 1632 1496 
L 26 1496 
L 26 1216 
L 1632 1216 
z
" transform="scale(0.015625)"/>
      <path id="CMR17-4b" d="M 2362 2675 
L 3469 3782 
C 3699 4006 3942 4186 4301 4186 
L 4301 4352 
C 4173 4352 4013 4352 3885 4352 
C 3712 4352 3411 4352 3245 4358 
L 3245 4192 
C 3411 4180 3437 4065 3437 4019 
C 3437 3975 3411 3905 3386 3867 
L 1261 1738 
L 1261 3900 
C 1261 4186 1331 4186 1773 4186 
L 1773 4352 
C 1587 4352 1248 4352 1050 4352 
C 851 4352 512 4352 326 4352 
L 326 4186 
C 768 4186 838 4186 838 3899 
L 838 446 
C 838 160 768 160 326 160 
L 326 0 
C 512 0 851 0 1050 0 
C 1248 0 1587 0 1773 0 
L 1773 160 
C 1331 160 1261 160 1261 447 
L 1261 1579 
L 2080 2390 
L 3290 537 
C 3328 473 3373 390 3373 326 
C 3373 160 3194 160 3110 160 
L 3110 0 
C 3315 0 3610 0 3821 0 
C 3974 0 4237 0 4384 -6 
L 4384 160 
C 4077 160 3981 198 3789 493 
L 2362 2675 
z
" transform="scale(0.015625)"/>
      <path id="CMR17-66" d="M 979 2560 
L 1709 2560 
L 1709 2725 
L 966 2725 
L 966 3494 
C 966 4022 1235 4352 1510 4352 
C 1594 4352 1690 4327 1754 4282 
C 1702 4269 1568 4225 1568 4067 
C 1568 3901 1696 3850 1786 3850 
C 1875 3850 2003 3901 2003 4067 
C 2003 4308 1773 4454 1517 4454 
C 1152 4454 653 4156 653 3481 
L 653 2725 
L 141 2725 
L 141 2560 
L 653 2560 
L 653 427 
C 653 184 627 153 218 153 
L 218 -13 
C 371 0 666 0 832 0 
C 1018 0 1344 0 1517 -13 
L 1517 153 
C 1056 153 979 153 979 439 
L 979 2560 
z
" transform="scale(0.015625)"/>
      <path id="CMR17-37" d="M 2886 3941 
L 2886 4081 
L 1382 4081 
C 634 4081 621 4165 595 4288 
L 480 4288 
L 294 3094 
L 410 3094 
C 429 3215 474 3540 550 3661 
C 589 3712 1062 3712 1171 3712 
L 2579 3712 
L 1869 2661 
C 1395 1954 1069 999 1069 165 
C 1069 89 1069 -128 1299 -128 
C 1530 -128 1530 89 1530 171 
L 1530 465 
C 1530 1508 1709 2196 2003 2636 
L 2886 3941 
z
" transform="scale(0.015625)"/>
      <path id="CMMI12-4d" d="M 5811 3886 
C 5869 4103 5882 4167 6336 4167 
C 6458 4167 6515 4167 6515 4288 
C 6515 4352 6470 4352 6349 4352 
L 5581 4352 
C 5421 4352 5414 4346 5344 4243 
L 3008 562 
L 2528 4211 
C 2509 4352 2502 4352 2336 4352 
L 1542 4352 
C 1421 4352 1363 4352 1363 4231 
C 1363 4167 1421 4167 1517 4167 
C 1907 4167 1907 4116 1907 4046 
C 1907 4034 1907 3995 1882 3899 
L 1062 634 
C 986 327 838 186 410 186 
C 390 186 314 186 314 73 
C 314 0 371 0 397 0 
C 525 0 851 0 979 0 
L 1286 0 
C 1376 0 1485 0 1574 0 
C 1619 0 1690 0 1690 122 
C 1690 180 1626 186 1600 186 
C 1389 186 1184 224 1184 454 
C 1184 518 1184 524 1210 613 
L 2093 4129 
L 2099 4129 
L 2630 172 
C 2650 19 2656 0 2714 0 
C 2784 0 2816 51 2848 109 
L 5421 4161 
L 5427 4161 
L 4499 473 
C 4442 250 4429 186 3981 186 
C 3859 186 3795 186 3795 70 
C 3795 0 3853 0 3891 0 
C 4000 0 4128 0 4237 0 
L 4992 0 
C 5101 0 5235 0 5344 0 
C 5395 0 5466 0 5466 122 
C 5466 186 5408 186 5312 186 
C 4922 186 4922 234 4922 294 
C 4922 301 4922 345 4934 396 
L 5811 3886 
z
" transform="scale(0.015625)"/>
      <path id="CMSY10-c" d="M 4622 1600 
C 4622 2780 3662 3735 2490 3735 
C 1300 3735 352 2767 352 1600 
C 352 420 1312 -535 2484 -535 
C 3675 -535 4622 433 4622 1600 
z
M 2490 -375 
C 1389 -375 512 516 512 1600 
C 512 2703 1408 3575 2484 3575 
C 3585 3575 4462 2684 4462 1600 
C 4462 497 3566 -375 2490 -375 
z
M 2925 1600 
C 2925 1843 2726 2042 2490 2042 
C 2234 2042 2048 1830 2048 1600 
C 2048 1357 2246 1158 2483 1158 
C 2739 1158 2925 1370 2925 1600 
z
" transform="scale(0.015625)"/>
      <path id="CMR17-53" d="M 2803 4290 
C 2803 4404 2797 4411 2758 4411 
C 2720 4411 2707 4385 2682 4328 
L 2490 3907 
C 2246 4257 1875 4416 1472 4416 
C 819 4416 294 3901 294 3253 
C 294 3056 339 2776 557 2510 
C 794 2218 1018 2167 1530 2033 
C 1722 1982 2042 1899 2106 1874 
C 2470 1722 2662 1341 2662 985 
C 2662 527 2336 38 1779 38 
C 1094 38 454 419 410 1311 
C 403 1413 397 1419 352 1419 
C 301 1419 294 1413 294 1285 
L 294 -1 
C 294 -115 301 -122 339 -122 
C 384 -122 397 -90 486 108 
C 493 127 493 140 614 381 
C 934 -39 1472 -128 1779 -128 
C 2477 -128 2970 451 2970 1124 
C 2970 1454 2848 1708 2778 1823 
C 2509 2230 2221 2306 1914 2382 
C 1869 2402 1856 2402 1498 2490 
C 1152 2579 1005 2624 845 2796 
C 666 2992 602 3196 602 3399 
C 602 3812 934 4263 1478 4263 
C 2157 4263 2579 3786 2675 2993 
C 2694 2878 2701 2872 2746 2872 
C 2803 2872 2803 2891 2803 2999 
L 2803 4290 
z
" transform="scale(0.015625)"/>
      <path id="CMR17-4e" d="M 1312 4250 
C 1267 4320 1261 4320 1139 4320 
L 326 4320 
L 326 4160 
L 448 4160 
C 704 4160 819 4129 838 4122 
L 838 610 
C 838 451 838 153 326 153 
L 326 -13 
C 474 0 742 0 902 0 
C 1062 0 1331 0 1478 -13 
L 1478 153 
C 966 153 966 451 966 610 
L 966 4033 
C 1011 3995 1011 3982 1056 3919 
L 3430 76 
C 3475 0 3494 0 3526 0 
C 3590 0 3590 19 3590 139 
L 3590 3705 
C 3590 3863 3590 4160 4102 4160 
L 4102 4326 
C 3955 4320 3686 4320 3526 4320 
C 3366 4320 3098 4320 2950 4326 
L 2950 4160 
C 3462 4160 3462 3862 3462 3703 
L 3462 763 
L 1312 4250 
z
" transform="scale(0.015625)"/>
     </defs>
     <use xlink:href="#CMR17-48" transform="scale(0.996264)"/>
     <use xlink:href="#CMR17-79" transform="translate(69.07243 0)scale(0.996264)"/>
     <use xlink:href="#CMR17-70" transform="translate(117.365346 0)scale(0.996264)"/>
     <use xlink:href="#CMR17-65" transform="translate(170.863154 0)scale(0.996264)"/>
     <use xlink:href="#CMR17-72" transform="translate(211.348815 0)scale(0.996264)"/>
     <use xlink:href="#CMR17-2d" transform="translate(246.629582 0)scale(0.996264)"/>
     <use xlink:href="#CMR17-4b" transform="translate(276.705549 0)scale(0.996264)"/>
     <use xlink:href="#CMR17-64" transform="translate(378.456292 0)scale(0.996264)"/>
     <use xlink:href="#CMR17-69" transform="translate(429.351662 0)scale(0.996264)"/>
     <use xlink:href="#CMR17-73" transform="translate(454.222721 0)scale(0.996264)"/>
     <use xlink:href="#CMR17-74" transform="translate(490.024058 0)scale(0.996264)"/>
     <use xlink:href="#CMR17-61" transform="translate(525.304826 0)scale(0.996264)"/>
     <use xlink:href="#CMR17-6e" transform="translate(570.995303 0)scale(0.996264)"/>
     <use xlink:href="#CMR17-63" transform="translate(621.890673 0)scale(0.996264)"/>
     <use xlink:href="#CMR17-65" transform="translate(662.376334 0)scale(0.996264)"/>
     <use xlink:href="#CMR17-72" transform="translate(732.93796 0)scale(0.996264)"/>
     <use xlink:href="#CMR17-65" transform="translate(768.218728 0)scale(0.996264)"/>
     <use xlink:href="#CMR17-63" transform="translate(808.704389 0)scale(0.996264)"/>
     <use xlink:href="#CMR17-6f" transform="translate(849.190049 0)scale(0.996264)"/>
     <use xlink:href="#CMR17-6e" transform="translate(894.880526 0)scale(0.996264)"/>
     <use xlink:href="#CMR17-73" transform="translate(945.775896 0)scale(0.996264)"/>
     <use xlink:href="#CMR17-74" transform="translate(981.577234 0)scale(0.996264)"/>
     <use xlink:href="#CMR17-72" transform="translate(1016.858001 0)scale(0.996264)"/>
     <use xlink:href="#CMR17-75" transform="translate(1052.138769 0)scale(0.996264)"/>
     <use xlink:href="#CMR17-63" transform="translate(1103.034139 0)scale(0.996264)"/>
     <use xlink:href="#CMR17-74" transform="translate(1143.519799 0)scale(0.996264)"/>
     <use xlink:href="#CMR17-69" transform="translate(1178.800567 0)scale(0.996264)"/>
     <use xlink:href="#CMR17-6f" transform="translate(1203.671626 0)scale(0.996264)"/>
     <use xlink:href="#CMR17-6e" transform="translate(1249.362103 0)scale(0.996264)"/>
     <use xlink:href="#CMR17-66" transform="translate(1330.333439 0)scale(0.996264)"/>
     <use xlink:href="#CMR17-6f" transform="translate(1357.806951 0)scale(0.996264)"/>
     <use xlink:href="#CMR17-72" transform="translate(1403.497428 0)scale(0.996264)"/>
     <use xlink:href="#CMR17-32" transform="translate(1468.854163 0)scale(0.996264)"/>
     <use xlink:href="#CMR17-37" transform="translate(1514.54464 0)scale(0.996264)"/>
     <use xlink:href="#CMMI12-4d" transform="translate(1590.311083 0)scale(0.996264)"/>
     <use xlink:href="#CMSY10-c" transform="translate(1684.684508 -14.943915)scale(0.697382)"/>
     <use xlink:href="#CMR17-43" transform="translate(1769.4996 0)scale(0.996264)"/>
     <use xlink:href="#CMR17-43" transform="translate(1836.00948 0)scale(0.996264)"/>
     <use xlink:href="#CMR17-53" transform="translate(1902.519361 0)scale(0.996264)"/>
     <use xlink:href="#CMR17-4e" transform="translate(1953.414731 0)scale(0.996264)"/>
    </g>
   </g>
   <g id="legend_1">
    <g id="patch_10">
     <path d="M 247.977941 291.148997 
L 398.426667 291.148997 
Q 400.826667 291.148997 400.826667 288.748997 
L 400.826667 256.499805 
Q 400.826667 254.099805 398.426667 254.099805 
L 247.977941 254.099805 
Q 245.577941 254.099805 245.577941 256.499805 
L 245.577941 288.748997 
Q 245.577941 291.148997 247.977941 291.148997 
z
" style="fill: #ffffff; opacity: 0.8; stroke: #cccccc; stroke-linejoin: miter"/>
    </g>
    <g id="line2d_35">
     <path d="M 250.377941 263.099805 
L 262.377941 263.099805 
L 274.377941 263.099805 
" style="fill: none; stroke: #ff7f0e; stroke-width: 2; stroke-linecap: square"/>
    </g>
    <g id="text_17">
     <!-- Median -->
     <g transform="translate(283.977941 267.299805)scale(0.12 -0.12)">
      <use xlink:href="#CMR17-4d" transform="scale(0.996264)"/>
      <use xlink:href="#CMR17-65" transform="translate(84.686941 0)scale(0.996264)"/>
      <use xlink:href="#CMR17-64" transform="translate(125.172601 0)scale(0.996264)"/>
      <use xlink:href="#CMR17-69" transform="translate(176.067971 0)scale(0.996264)"/>
      <use xlink:href="#CMR17-61" transform="translate(200.939029 0)scale(0.996264)"/>
      <use xlink:href="#CMR17-6e" transform="translate(246.629506 0)scale(0.996264)"/>
     </g>
    </g>
    <g id="patch_11">
     <path d="M 250.377941 284.024401 
L 274.377941 284.024401 
L 274.377941 275.624401 
L 250.377941 275.624401 
z
" style="fill: #f57d15; fill-opacity: 0.5; stroke: #f57d15; stroke-opacity: 0.5; stroke-linejoin: miter"/>
    </g>
    <g id="text_18">
     <!-- 3 $\sigma$ -->
     <g transform="translate(283.977941 284.024401)scale(0.12 -0.12)">
      <defs>
       <path id="CMR17-33" d="M 1414 2157 
C 1984 2157 2234 1662 2234 1090 
C 2234 320 1824 25 1453 25 
C 1114 25 563 194 390 693 
C 422 680 454 680 486 680 
C 640 680 755 782 755 948 
C 755 1133 614 1216 486 1216 
C 378 1216 211 1165 211 926 
C 211 335 787 -128 1466 -128 
C 2176 -128 2720 430 2720 1085 
C 2720 1707 2208 2157 1600 2227 
C 2086 2328 2554 2756 2554 3329 
C 2554 3820 2048 4179 1472 4179 
C 890 4179 378 3829 378 3329 
C 378 3110 544 3072 627 3072 
C 762 3072 877 3155 877 3321 
C 877 3486 762 3569 627 3569 
C 602 3569 570 3569 544 3557 
C 730 3959 1235 4032 1459 4032 
C 1683 4032 2106 3925 2106 3320 
C 2106 3143 2080 2828 1862 2550 
C 1670 2304 1453 2304 1242 2284 
C 1210 2284 1062 2269 1037 2269 
C 992 2263 966 2257 966 2208 
C 966 2163 973 2157 1101 2157 
L 1414 2157 
z
" transform="scale(0.015625)"/>
       <path id="CMMI12-1b" d="M 3251 2408 
C 3334 2408 3546 2408 3546 2612 
C 3546 2752 3424 2752 3309 2752 
L 1894 2752 
C 934 2752 243 1686 243 932 
C 243 390 595 -64 1171 -64 
C 1926 -64 2752 747 2752 1705 
C 2752 1954 2694 2196 2541 2408 
L 3251 2408 
z
M 1178 64 
C 851 64 614 313 614 754 
C 614 1137 845 2408 1786 2408 
C 2061 2408 2368 2274 2368 1781 
C 2368 1558 2266 1021 2042 652 
C 1811 275 1466 64 1178 64 
z
" transform="scale(0.015625)"/>
      </defs>
      <use xlink:href="#CMR17-33" transform="scale(0.996264)"/>
      <use xlink:href="#CMMI12-1b" transform="translate(75.766443 0)scale(0.996264)"/>
     </g>
    </g>
    <g id="patch_12">
     <path d="M 346.018228 267.299805 
L 370.018228 267.299805 
L 370.018228 258.899805 
L 346.018228 258.899805 
z
" style="fill: #9f2a63; fill-opacity: 0.5; stroke: #9f2a63; stroke-opacity: 0.5; stroke-linejoin: miter"/>
    </g>
    <g id="text_19">
     <!-- 2 $\sigma$ -->
     <g transform="translate(379.618228 267.299805)scale(0.12 -0.12)">
      <use xlink:href="#CMR17-32" transform="scale(0.996264)"/>
      <use xlink:href="#CMMI12-1b" transform="translate(75.766443 0)scale(0.996264)"/>
     </g>
    </g>
    <g id="patch_13">
     <path d="M 346.018228 284.024401 
L 370.018228 284.024401 
L 370.018228 275.624401 
L 346.018228 275.624401 
z
" style="fill: #280b53; fill-opacity: 0.6; stroke: #280b53; stroke-opacity: 0.6; stroke-linejoin: miter"/>
    </g>
    <g id="text_20">
     <!-- 1 $\sigma$ -->
     <g transform="translate(379.618228 284.024401)scale(0.12 -0.12)">
      <use xlink:href="#CMR17-31" transform="scale(0.996264)"/>
      <use xlink:href="#CMMI12-1b" transform="translate(75.766443 0)scale(0.996264)"/>
     </g>
    </g>
   </g>
  </g>
 </g>
 <defs>
  <clipPath id="p45f70637d9">
   <rect x="49.706667" y="31.036997" width="357.12" height="266.112"/>
  </clipPath>
 </defs>
</svg>
