<?xml version="1.0" encoding="utf-8" standalone="no"?>
<!DOCTYPE svg PUBLIC "-//W3C//DTD SVG 1.1//EN"
  "http://www.w3.org/Graphics/SVG/1.1/DTD/svg11.dtd">
<svg xmlns:xlink="http://www.w3.org/1999/xlink" width="428.759671pt" height="341.195812pt" viewBox="0 0 428.759671 341.195812" xmlns="http://www.w3.org/2000/svg" version="1.1">
 <metadata>
  <rdf:RDF xmlns:dc="http://purl.org/dc/elements/1.1/" xmlns:cc="http://creativecommons.org/ns#" xmlns:rdf="http://www.w3.org/1999/02/22-rdf-syntax-ns#">
   <cc:Work>
    <dc:type rdf:resource="http://purl.org/dc/dcmitype/StillImage"/>
    <dc:date>2023-05-03T18:49:43.378320</dc:date>
    <dc:format>image/svg+xml</dc:format>
    <dc:creator>
     <cc:Agent>
      <dc:title>Matplotlib v3.5.2, https://matplotlib.org/</dc:title>
     </cc:Agent>
    </dc:creator>
   </cc:Work>
  </rdf:RDF>
 </metadata>
 <defs>
  <style type="text/css">*{stroke-linejoin: round; stroke-linecap: butt}</style>
 </defs>
 <g id="figure_1">
  <g id="patch_1">
   <path d="M 0 341.195812 
L 428.759671 341.195812 
L 428.759671 0 
L 0 0 
z
" style="fill: #ffffff"/>
  </g>
  <g id="axes_1">
   <g id="patch_2">
    <path d="M 49.706667 297.148997 
L 406.826667 297.148997 
L 406.826667 31.036997 
L 49.706667 31.036997 
z
" style="fill: #ffffff"/>
   </g>
   <g id="PolyCollection_1">
    <defs>
     <path id="m8a811e4dfd" d="M 53.277867 -62.721969 
L 53.277867 -16.685882 
L 56.849067 -51.677645 
L 63.991467 -86.261103 
L 71.133867 -106.547734 
L 78.276267 -121.194143 
L 85.418667 -132.168475 
L 92.561067 -141.294147 
L 99.703467 -147.712894 
L 106.845867 -155.306337 
L 113.988267 -160.842528 
L 121.130667 -165.785161 
L 128.273067 -171.991192 
L 135.415467 -175.025996 
L 142.557867 -179.164563 
L 149.700267 -182.308123 
L 156.842667 -186.207949 
L 163.985067 -187.865764 
L 171.127467 -193.332768 
L 178.269867 -193.280927 
L 185.412267 -198.904723 
L 192.554667 -199.71342 
L 199.697067 -200.554004 
L 206.839467 -201.402964 
L 213.981867 -206.062128 
L 221.124267 -208.815102 
L 228.266667 -207.811958 
L 235.409067 -210.043465 
L 242.551467 -212.561906 
L 249.693867 -216.433221 
L 256.836267 -213.3158 
L 263.978667 -215.745018 
L 271.121067 -218.525509 
L 278.263467 -219.104626 
L 285.405867 -222.971125 
L 292.548267 -226.266224 
L 299.690667 -221.482225 
L 306.833067 -227.02193 
L 313.975467 -227.858547 
L 321.117867 -229.16911 
L 328.260267 -224.791217 
L 335.402667 -231.968487 
L 342.545067 -230.959139 
L 349.687467 -228.395234 
L 356.829867 -226.363373 
L 363.972267 -231.413081 
L 371.114667 -227.140085 
L 378.257067 -224.905142 
L 385.399467 -232.53237 
L 392.541867 -240.615202 
L 399.684267 -239.293665 
L 406.826667 -237.886662 
L 406.826667 -306.936973 
L 406.826667 -306.936973 
L 399.684267 -305.11203 
L 392.541867 -303.083505 
L 385.399467 -305.689981 
L 378.257067 -306.634358 
L 371.114667 -304.555592 
L 363.972267 -297.214404 
L 356.829867 -301.91324 
L 349.687467 -299.915833 
L 342.545067 -295.04213 
L 335.402667 -295.68897 
L 328.260267 -303.398949 
L 321.117867 -292.347116 
L 313.975467 -288.633362 
L 306.833067 -289.71956 
L 299.690667 -284.199307 
L 292.548267 -278.914382 
L 285.405867 -280.157362 
L 278.263467 -282.488412 
L 271.121067 -278.92824 
L 263.978667 -277.746482 
L 256.836267 -274.628775 
L 249.693867 -269.870021 
L 242.551467 -271.0781 
L 235.409067 -269.410821 
L 228.266667 -263.595076 
L 221.124267 -263.415738 
L 213.981867 -260.158883 
L 206.839467 -256.217439 
L 199.697067 -252.388001 
L 192.554667 -252.076005 
L 185.412267 -248.925325 
L 178.269867 -244.511413 
L 171.127467 -243.422319 
L 163.985067 -239.932627 
L 156.842667 -234.677166 
L 149.700267 -233.168811 
L 142.557867 -228.994615 
L 135.415467 -223.171518 
L 128.273067 -219.97707 
L 121.130667 -214.063083 
L 113.988267 -208.185087 
L 106.845867 -202.671982 
L 99.703467 -195.549993 
L 92.561067 -188.007961 
L 85.418667 -178.274886 
L 78.276267 -167.474237 
L 71.133867 -152.748514 
L 63.991467 -132.096608 
L 56.849067 -97.662954 
L 53.277867 -62.721969 
z
" style="stroke: #f57d15; stroke-opacity: 0.5"/>
    </defs>
    <g clip-path="url(#p9dba495245)">
     <use xlink:href="#m8a811e4dfd" x="0" y="341.195812" style="fill: #f57d15; fill-opacity: 0.5; stroke: #f57d15; stroke-opacity: 0.5"/>
    </g>
   </g>
   <g id="PolyCollection_2">
    <defs>
     <path id="m417c65418c" d="M 53.277867 -60.820188 
L 53.277867 -21.727609 
L 56.849067 -56.850243 
L 63.991467 -90.729726 
L 71.133867 -111.39482 
L 78.276267 -126.11412 
L 85.418667 -136.696334 
L 92.561067 -146.011362 
L 99.703467 -153.384885 
L 106.845867 -159.884679 
L 113.988267 -166.411578 
L 121.130667 -171.119397 
L 128.273067 -176.920701 
L 135.415467 -180.422497 
L 142.557867 -184.776079 
L 149.700267 -187.792254 
L 156.842667 -191.944743 
L 163.985067 -195.209545 
L 171.127467 -198.939457 
L 178.269867 -199.370475 
L 185.412267 -204.890272 
L 192.554667 -206.457099 
L 199.697067 -207.880806 
L 206.839467 -209.547272 
L 213.981867 -213.00147 
L 221.124267 -217.315562 
L 228.266667 -216.275778 
L 235.409067 -218.874548 
L 242.551467 -221.36484 
L 249.693867 -223.100564 
L 256.836267 -224.777777 
L 263.978667 -226.497927 
L 271.121067 -227.087158 
L 278.263467 -228.395039 
L 285.405867 -231.13954 
L 292.548267 -232.73835 
L 299.690667 -233.238696 
L 306.833067 -236.746313 
L 313.975467 -237.859616 
L 321.117867 -237.559374 
L 328.260267 -238.45624 
L 335.402667 -241.586168 
L 342.545067 -240.268723 
L 349.687467 -240.362089 
L 356.829867 -241.040237 
L 363.972267 -241.818069 
L 371.114667 -243.273827 
L 378.257067 -244.991892 
L 385.399467 -244.584877 
L 392.541867 -251.00966 
L 399.684267 -249.25323 
L 406.826667 -251.066103 
L 406.826667 -298.452454 
L 406.826667 -298.452454 
L 399.684267 -296.494491 
L 392.541867 -295.16835 
L 385.399467 -293.594947 
L 378.257067 -293.289685 
L 371.114667 -294.106307 
L 363.972267 -288.710625 
L 356.829867 -288.677657 
L 349.687467 -288.816561 
L 342.545067 -284.109111 
L 335.402667 -286.399726 
L 328.260267 -286.640687 
L 321.117867 -284.273477 
L 313.975467 -282.569823 
L 306.833067 -281.318115 
L 299.690667 -277.01103 
L 292.548267 -274.364825 
L 285.405867 -272.985342 
L 278.263467 -271.926036 
L 271.121067 -272.976699 
L 263.978667 -269.420481 
L 256.836267 -267.586511 
L 249.693867 -264.160768 
L 242.551467 -264.199266 
L 235.409067 -262.696172 
L 228.266667 -258.607369 
L 221.124267 -258.810079 
L 213.981867 -255.115031 
L 206.839467 -251.891852 
L 199.697067 -248.512578 
L 192.554667 -247.728552 
L 185.412267 -245.38295 
L 178.269867 -240.316395 
L 171.127467 -239.77385 
L 163.985067 -236.495968 
L 156.842667 -231.765011 
L 149.700267 -228.678665 
L 142.557867 -225.062377 
L 135.415467 -220.340758 
L 128.273067 -216.465606 
L 121.130667 -210.776075 
L 113.988267 -205.656226 
L 106.845867 -199.755536 
L 99.703467 -192.8275 
L 92.561067 -185.473123 
L 85.418667 -176.03062 
L 78.276267 -165.07641 
L 71.133867 -150.538789 
L 63.991467 -129.959465 
L 56.849067 -95.236625 
L 53.277867 -60.820188 
z
" style="stroke: #9f2a63; stroke-opacity: 0.5"/>
    </defs>
    <g clip-path="url(#p9dba495245)">
     <use xlink:href="#m417c65418c" x="0" y="341.195812" style="fill: #9f2a63; fill-opacity: 0.5; stroke: #9f2a63; stroke-opacity: 0.5"/>
    </g>
   </g>
   <g id="PolyCollection_3">
    <defs>
     <path id="m015eb6d03a" d="M 53.277867 -56.12115 
L 53.277867 -31.695646 
L 56.849067 -66.900266 
L 63.991467 -100.620652 
L 71.133867 -121.983676 
L 78.276267 -136.316745 
L 85.418667 -146.824123 
L 92.561067 -156.427065 
L 99.703467 -163.878793 
L 106.845867 -170.134958 
L 113.988267 -176.847335 
L 121.130667 -181.653292 
L 128.273067 -187.308001 
L 135.415467 -191.500433 
L 142.557867 -194.978162 
L 149.700267 -198.357574 
L 156.842667 -202.426611 
L 163.985067 -205.447415 
L 171.127467 -209.489719 
L 178.269867 -210.411107 
L 185.412267 -215.55436 
L 192.554667 -217.453944 
L 199.697067 -217.995368 
L 206.839467 -220.977481 
L 213.981867 -224.165011 
L 221.124267 -227.700607 
L 228.266667 -227.189704 
L 235.409067 -230.661275 
L 242.551467 -232.008853 
L 249.693867 -233.187008 
L 256.836267 -235.696527 
L 263.978667 -237.963631 
L 271.121067 -238.867488 
L 278.263467 -239.003958 
L 285.405867 -242.008897 
L 292.548267 -243.340591 
L 299.690667 -244.276739 
L 306.833067 -248.4468 
L 313.975467 -249.095299 
L 321.117867 -249.927164 
L 328.260267 -250.912025 
L 335.402667 -254.244181 
L 342.545067 -251.284861 
L 349.687467 -252.099873 
L 356.829867 -253.53315 
L 363.972267 -253.59705 
L 371.114667 -256.777869 
L 378.257067 -258.09581 
L 385.399467 -256.995232 
L 392.541867 -262.5892 
L 399.684267 -261.20358 
L 406.826667 -264.095433 
L 406.826667 -290.505564 
L 406.826667 -290.505564 
L 399.684267 -288.053127 
L 392.541867 -288.327559 
L 385.399467 -283.714842 
L 378.257067 -284.837534 
L 371.114667 -284.489937 
L 363.972267 -279.990012 
L 356.829867 -280.491088 
L 349.687467 -278.735624 
L 342.545067 -276.843689 
L 335.402667 -279.38661 
L 328.260267 -277.903066 
L 321.117867 -276.437061 
L 313.975467 -275.686837 
L 306.833067 -274.360784 
L 299.690667 -270.199167 
L 292.548267 -268.602316 
L 285.405867 -267.096483 
L 278.263467 -264.79303 
L 271.121067 -265.115565 
L 263.978667 -262.868182 
L 256.836267 -260.892575 
L 249.693867 -258.472422 
L 242.551467 -257.367343 
L 235.409067 -256.028153 
L 228.266667 -252.479188 
L 221.124267 -252.635393 
L 213.981867 -249.203919 
L 206.839467 -245.980388 
L 199.697067 -243.305191 
L 192.554667 -242.054389 
L 185.412267 -240.176228 
L 178.269867 -234.898372 
L 171.127467 -234.335005 
L 163.985067 -230.937692 
L 156.842667 -226.855843 
L 149.700267 -223.342538 
L 142.557867 -220.035372 
L 135.415467 -215.524569 
L 128.273067 -211.627922 
L 121.130667 -206.180512 
L 113.988267 -200.827091 
L 106.845867 -195.239218 
L 99.703467 -188.435324 
L 92.561067 -181.00038 
L 85.418667 -171.53555 
L 78.276267 -160.649524 
L 71.133867 -146.306803 
L 63.991467 -125.624086 
L 56.849067 -90.936106 
L 53.277867 -56.12115 
z
" style="stroke: #280b53; stroke-opacity: 0.6"/>
    </defs>
    <g clip-path="url(#p9dba495245)">
     <use xlink:href="#m015eb6d03a" x="0" y="341.195812" style="fill: #280b53; fill-opacity: 0.6; stroke: #280b53; stroke-opacity: 0.6"/>
    </g>
   </g>
   <g id="matplotlib.axis_1">
    <g id="xtick_1">
     <g id="line2d_1">
      <defs>
       <path id="m0c9d555c28" d="M 0 0 
L 0 3.5 
" style="stroke: #000000; stroke-width: 0.8"/>
      </defs>
      <g>
       <use xlink:href="#m0c9d555c28" x="49.706667" y="297.148997" style="stroke: #000000; stroke-width: 0.8"/>
      </g>
     </g>
     <g id="text_1">
      <!-- $\mathdefault{0}$ -->
      <g transform="translate(46.780172 312.451177)scale(0.12 -0.12)">
       <defs>
        <path id="CMR17-30" d="M 2688 2038 
C 2688 2430 2682 3099 2413 3613 
C 2176 4063 1798 4224 1466 4224 
C 1158 4224 768 4082 525 3620 
C 269 3137 243 2539 243 2038 
C 243 1671 250 1112 448 623 
C 723 -39 1216 -128 1466 -128 
C 1760 -128 2208 -7 2470 604 
C 2662 1048 2688 1568 2688 2038 
z
M 1466 -26 
C 1056 -26 813 328 723 816 
C 653 1196 653 1749 653 2109 
C 653 2604 653 3015 736 3407 
C 858 3954 1216 4121 1466 4121 
C 1728 4121 2067 3947 2189 3420 
C 2272 3054 2278 2623 2278 2109 
C 2278 1691 2278 1176 2202 797 
C 2067 96 1690 -26 1466 -26 
z
" transform="scale(0.015625)"/>
       </defs>
       <use xlink:href="#CMR17-30" transform="scale(0.996264)"/>
      </g>
     </g>
    </g>
    <g id="xtick_2">
     <g id="line2d_2">
      <g>
       <use xlink:href="#m0c9d555c28" x="121.130667" y="297.148997" style="stroke: #000000; stroke-width: 0.8"/>
      </g>
     </g>
     <g id="text_2">
      <!-- $\mathdefault{20}$ -->
      <g transform="translate(115.277677 312.451177)scale(0.12 -0.12)">
       <defs>
        <path id="CMR17-32" d="M 2669 990 
L 2554 990 
C 2490 537 2438 460 2413 422 
C 2381 371 1920 371 1830 371 
L 602 371 
C 832 620 1280 1073 1824 1596 
C 2214 1966 2669 2400 2669 3033 
C 2669 3788 2067 4224 1395 4224 
C 691 4224 262 3603 262 3027 
C 262 2777 448 2745 525 2745 
C 589 2745 781 2783 781 3007 
C 781 3206 614 3264 525 3264 
C 486 3264 448 3257 422 3244 
C 544 3788 915 4057 1306 4057 
C 1862 4057 2227 3616 2227 3033 
C 2227 2477 1901 1998 1536 1583 
L 262 147 
L 262 0 
L 2515 0 
L 2669 990 
z
" transform="scale(0.015625)"/>
       </defs>
       <use xlink:href="#CMR17-32" transform="scale(0.996264)"/>
       <use xlink:href="#CMR17-30" transform="translate(45.690477 0)scale(0.996264)"/>
      </g>
     </g>
    </g>
    <g id="xtick_3">
     <g id="line2d_3">
      <g>
       <use xlink:href="#m0c9d555c28" x="192.554667" y="297.148997" style="stroke: #000000; stroke-width: 0.8"/>
      </g>
     </g>
     <g id="text_3">
      <!-- $\mathdefault{40}$ -->
      <g transform="translate(186.701677 312.451177)scale(0.12 -0.12)">
       <defs>
        <path id="CMR17-34" d="M 2150 4147 
C 2150 4281 2144 4288 2029 4288 
L 128 1254 
L 128 1088 
L 1779 1088 
L 1779 460 
C 1779 230 1766 166 1318 166 
L 1197 166 
L 1197 0 
C 1402 12 1747 12 1965 12 
C 2182 12 2528 12 2733 0 
L 2733 166 
L 2611 166 
C 2163 166 2150 230 2150 460 
L 2150 1088 
L 2803 1088 
L 2803 1254 
L 2150 1254 
L 2150 4147 
z
M 1798 3723 
L 1798 1254 
L 256 1254 
L 1798 3723 
z
" transform="scale(0.015625)"/>
       </defs>
       <use xlink:href="#CMR17-34" transform="scale(0.996264)"/>
       <use xlink:href="#CMR17-30" transform="translate(45.690477 0)scale(0.996264)"/>
      </g>
     </g>
    </g>
    <g id="xtick_4">
     <g id="line2d_4">
      <g>
       <use xlink:href="#m0c9d555c28" x="263.978667" y="297.148997" style="stroke: #000000; stroke-width: 0.8"/>
      </g>
     </g>
     <g id="text_4">
      <!-- $\mathdefault{60}$ -->
      <g transform="translate(258.125677 312.451177)scale(0.12 -0.12)">
       <defs>
        <path id="CMR17-36" d="M 678 2198 
C 678 3712 1395 4076 1811 4076 
C 1946 4076 2272 4049 2400 3782 
C 2298 3782 2106 3782 2106 3558 
C 2106 3385 2246 3328 2336 3328 
C 2394 3328 2566 3353 2566 3571 
C 2566 3987 2246 4224 1805 4224 
C 1043 4224 243 3411 243 2011 
C 243 257 966 -128 1478 -128 
C 2099 -128 2688 431 2688 1295 
C 2688 2101 2170 2688 1517 2688 
C 1126 2688 838 2430 678 1979 
L 678 2198 
z
M 1478 25 
C 691 25 691 1212 691 1450 
C 691 1914 909 2585 1504 2585 
C 1613 2585 1926 2585 2138 2140 
C 2253 1889 2253 1624 2253 1302 
C 2253 954 2253 696 2118 438 
C 1978 173 1773 25 1478 25 
z
" transform="scale(0.015625)"/>
       </defs>
       <use xlink:href="#CMR17-36" transform="scale(0.996264)"/>
       <use xlink:href="#CMR17-30" transform="translate(45.690477 0)scale(0.996264)"/>
      </g>
     </g>
    </g>
    <g id="xtick_5">
     <g id="line2d_5">
      <g>
       <use xlink:href="#m0c9d555c28" x="335.402667" y="297.148997" style="stroke: #000000; stroke-width: 0.8"/>
      </g>
     </g>
     <g id="text_5">
      <!-- $\mathdefault{80}$ -->
      <g transform="translate(329.549677 312.451177)scale(0.12 -0.12)">
       <defs>
        <path id="CMR17-38" d="M 1741 2289 
C 2144 2494 2554 2803 2554 3298 
C 2554 3884 1990 4224 1472 4224 
C 890 4224 378 3800 378 3215 
C 378 3054 416 2777 666 2533 
C 730 2469 998 2276 1171 2154 
C 883 2006 211 1652 211 945 
C 211 282 838 -128 1459 -128 
C 2144 -128 2720 366 2720 1022 
C 2720 1607 2330 1877 2074 2051 
L 1741 2289 
z
M 902 2855 
C 851 2887 595 3086 595 3388 
C 595 3781 998 4076 1459 4076 
C 1965 4076 2336 3716 2336 3298 
C 2336 2700 1670 2359 1638 2359 
C 1632 2359 1626 2359 1574 2398 
L 902 2855 
z
M 2080 1536 
C 2176 1466 2483 1253 2483 861 
C 2483 385 2010 25 1472 25 
C 890 25 448 443 448 951 
C 448 1459 838 1884 1280 2083 
L 2080 1536 
z
" transform="scale(0.015625)"/>
       </defs>
       <use xlink:href="#CMR17-38" transform="scale(0.996264)"/>
       <use xlink:href="#CMR17-30" transform="translate(45.690477 0)scale(0.996264)"/>
      </g>
     </g>
    </g>
    <g id="xtick_6">
     <g id="line2d_6">
      <g>
       <use xlink:href="#m0c9d555c28" x="406.826667" y="297.148997" style="stroke: #000000; stroke-width: 0.8"/>
      </g>
     </g>
     <g id="text_6">
      <!-- $\mathdefault{100}$ -->
      <g transform="translate(398.047182 312.451177)scale(0.12 -0.12)">
       <defs>
        <path id="CMR17-31" d="M 1702 4083 
C 1702 4217 1696 4224 1606 4224 
C 1357 3927 979 3833 621 3820 
C 602 3820 570 3820 563 3808 
C 557 3795 557 3782 557 3648 
C 755 3648 1088 3686 1344 3839 
L 1344 467 
C 1344 243 1331 166 781 166 
L 589 166 
L 589 0 
C 896 6 1216 12 1523 12 
C 1830 12 2150 6 2458 0 
L 2458 166 
L 2266 166 
C 1715 166 1702 236 1702 467 
L 1702 4083 
z
" transform="scale(0.015625)"/>
       </defs>
       <use xlink:href="#CMR17-31" transform="scale(0.996264)"/>
       <use xlink:href="#CMR17-30" transform="translate(45.690477 0)scale(0.996264)"/>
       <use xlink:href="#CMR17-30" transform="translate(91.380954 0)scale(0.996264)"/>
      </g>
     </g>
    </g>
    <g id="text_7">
     <!-- True Distance ($D^{\mathrm{True}}$) [kpc] -->
     <g transform="translate(145.831011 330.508888)scale(0.14 -0.14)">
      <defs>
       <path id="CMR17-54" d="M 3981 4332 
L 288 4332 
L 179 2924 
L 294 2924 
C 378 3981 467 4166 1453 4166 
C 1568 4166 1754 4166 1805 4159 
C 1926 4140 1926 4064 1926 3917 
L 1926 465 
C 1926 236 1907 166 1376 166 
L 1197 166 
L 1197 0 
C 1504 6 1824 12 2138 12 
C 2451 12 2771 6 3078 0 
L 3078 166 
L 2899 166 
C 2368 166 2349 236 2349 465 
L 2349 3917 
C 2349 4057 2349 4134 2464 4159 
C 2515 4166 2701 4166 2816 4166 
C 3795 4166 3891 3981 3974 2924 
L 4090 2924 
L 3981 4332 
z
" transform="scale(0.015625)"/>
       <path id="CMR17-72" d="M 960 1517 
C 960 2134 1222 2713 1702 2713 
C 1747 2713 1792 2707 1837 2687 
C 1837 2687 1696 2642 1696 2475 
C 1696 2321 1818 2257 1914 2257 
C 1990 2257 2131 2302 2131 2482 
C 2131 2687 1926 2816 1709 2816 
C 1222 2816 1011 2340 947 2115 
L 941 2115 
L 941 2816 
L 198 2745 
L 198 2578 
C 576 2578 634 2540 634 2231 
L 634 443 
C 634 198 608 166 198 166 
L 198 0 
C 352 12 646 12 813 12 
C 998 12 1325 12 1498 0 
L 1498 166 
C 1037 166 960 166 960 455 
L 960 1517 
z
" transform="scale(0.015625)"/>
       <path id="CMR17-75" d="M 1882 2745 
L 1882 2579 
C 2259 2579 2317 2540 2317 2229 
L 2317 1053 
C 2317 510 2029 38 1555 38 
C 1030 38 986 355 986 691 
L 986 2816 
L 211 2745 
L 211 2579 
C 467 2579 640 2579 646 2320 
L 646 1079 
C 646 646 646 368 813 187 
C 896 103 1056 -64 1517 -64 
C 2061 -64 2272 400 2323 536 
L 2330 536 
L 2330 -64 
L 3091 -13 
L 3091 154 
C 2714 154 2656 193 2656 503 
L 2656 2816 
L 1882 2745 
z
" transform="scale(0.015625)"/>
       <path id="CMR17-65" d="M 2438 1503 
C 2464 1529 2464 1542 2464 1606 
C 2464 2251 2118 2816 1389 2816 
C 710 2816 173 2175 173 1394 
C 173 554 781 -64 1459 -64 
C 2176 -64 2458 619 2458 755 
C 2458 800 2419 800 2406 800 
C 2362 800 2355 787 2330 709 
C 2189 270 1837 51 1504 51 
C 1229 51 954 206 781 490 
C 582 819 582 1200 582 1503 
L 2438 1503 
z
M 589 1600 
C 634 2511 1126 2713 1382 2713 
C 1818 2713 2112 2308 2118 1600 
L 589 1600 
z
" transform="scale(0.015625)"/>
       <path id="CMR17-44" d="M 333 4352 
L 333 4185 
C 774 4185 845 4185 845 3898 
L 845 453 
C 845 166 774 166 333 166 
L 333 0 
L 2368 0 
C 3398 0 4224 943 4224 2140 
C 4224 3344 3411 4352 2368 4352 
L 333 4352 
z
M 1523 166 
C 1267 166 1254 198 1254 414 
L 1254 3936 
C 1254 4153 1267 4185 1523 4185 
L 2240 4185 
C 2771 4185 3750 3873 3750 2140 
C 3750 1242 3488 879 3366 707 
C 3213 510 2848 166 2240 166 
L 1523 166 
z
" transform="scale(0.015625)"/>
       <path id="CMR17-69" d="M 992 3961 
C 992 4102 877 4224 730 4224 
C 589 4224 467 4108 467 3961 
C 467 3820 582 3699 730 3699 
C 870 3699 992 3814 992 3961 
z
M 243 2745 
L 243 2579 
C 602 2579 653 2540 653 2231 
L 653 443 
C 653 198 627 166 218 166 
L 218 0 
C 371 12 646 12 806 12 
C 960 12 1222 12 1370 0 
L 1370 166 
C 992 166 979 205 979 436 
L 979 2816 
L 243 2745 
z
" transform="scale(0.015625)"/>
       <path id="CMR17-73" d="M 1978 2688 
C 1978 2803 1971 2809 1933 2809 
C 1907 2809 1901 2803 1824 2707 
C 1805 2681 1747 2617 1728 2592 
C 1523 2809 1235 2816 1126 2816 
C 416 2816 160 2444 160 2073 
C 160 1497 813 1363 998 1324 
C 1402 1241 1542 1216 1677 1100 
C 1760 1024 1901 883 1901 652 
C 1901 384 1747 38 1158 38 
C 602 38 403 460 288 1024 
C 269 1113 269 1120 218 1120 
C 166 1120 160 1113 160 985 
L 160 64 
C 160 -52 166 -58 205 -58 
C 237 -58 243 -52 275 0 
C 314 57 410 211 448 275 
C 576 102 800 -64 1158 -64 
C 1792 -64 2131 281 2131 780 
C 2131 1107 1958 1280 1875 1356 
C 1683 1555 1459 1600 1190 1651 
C 838 1728 390 1817 390 2208 
C 390 2374 480 2726 1126 2726 
C 1811 2726 1850 2086 1862 1881 
C 1869 1849 1901 1843 1920 1843 
C 1978 1843 1978 1862 1978 1971 
L 1978 2688 
z
" transform="scale(0.015625)"/>
       <path id="CMR17-74" d="M 966 2585 
L 1862 2585 
L 1862 2752 
L 966 2752 
L 966 3968 
L 851 3968 
C 838 3292 614 2700 70 2687 
L 70 2585 
L 627 2585 
L 627 778 
C 627 655 627 -64 1370 -64 
C 1747 -64 1965 308 1965 784 
L 1965 1151 
L 1850 1151 
L 1850 790 
C 1850 347 1677 51 1408 51 
C 1222 51 966 179 966 765 
L 966 2585 
z
" transform="scale(0.015625)"/>
       <path id="CMR17-61" d="M 2304 1656 
C 2304 2048 2304 2275 2035 2534 
C 1798 2751 1523 2816 1306 2816 
C 800 2816 435 2408 435 1977 
C 435 1740 627 1728 666 1728 
C 749 1728 896 1779 896 1958 
C 896 2118 774 2188 666 2188 
C 640 2188 608 2182 589 2176 
C 723 2594 1069 2713 1293 2713 
C 1613 2713 1965 2421 1965 1875 
L 1965 1632 
C 1587 1619 1133 1568 774 1373 
C 371 1147 256 822 256 576 
C 256 77 832 -64 1171 -64 
C 1523 -64 1850 135 1990 505 
C 2003 219 2182 -39 2464 -39 
C 2598 -39 2938 51 2938 563 
L 2938 926 
L 2822 926 
L 2822 557 
C 2822 161 2650 109 2566 109 
C 2304 109 2304 446 2304 732 
L 2304 1656 
z
M 1965 887 
C 1965 323 1568 38 1216 38 
C 896 38 646 278 646 576 
C 646 771 730 1114 1101 1322 
C 1408 1497 1760 1523 1965 1536 
L 1965 887 
z
" transform="scale(0.015625)"/>
       <path id="CMR17-6e" d="M 2656 1954 
C 2656 2282 2592 2816 1837 2816 
C 1331 2816 1069 2424 973 2166 
L 966 2166 
L 966 2816 
L 211 2745 
L 211 2578 
C 589 2578 646 2540 646 2231 
L 646 443 
C 646 198 621 166 211 166 
L 211 0 
C 365 12 646 12 813 12 
C 979 12 1267 12 1421 0 
L 1421 166 
C 1011 166 986 192 986 443 
L 986 1678 
C 986 2269 1344 2713 1792 2713 
C 2266 2713 2317 2289 2317 1980 
L 2317 443 
C 2317 198 2291 166 1882 166 
L 1882 0 
C 2035 12 2317 12 2483 12 
C 2650 12 2938 12 3091 0 
L 3091 166 
C 2682 166 2656 192 2656 443 
L 2656 1954 
z
" transform="scale(0.015625)"/>
       <path id="CMR17-63" d="M 2234 2240 
C 2112 2240 1933 2240 1933 2015 
C 1933 1836 2080 1785 2163 1785 
C 2208 1785 2394 1804 2394 2028 
C 2394 2476 1958 2816 1466 2816 
C 787 2816 211 2201 211 1379 
C 211 521 813 -64 1466 -64 
C 2259 -64 2458 676 2458 747 
C 2458 773 2451 792 2406 792 
C 2362 792 2355 786 2330 702 
C 2163 180 1798 51 1523 51 
C 1114 51 621 431 621 1385 
C 621 2358 1094 2700 1472 2700 
C 1722 2700 2093 2582 2234 2240 
z
" transform="scale(0.015625)"/>
       <path id="CMR17-28" d="M 1958 -1562 
C 1958 -1556 1958 -1543 1939 -1524 
C 1645 -1223 858 -403 858 1596 
C 858 3595 1632 4408 1946 4729 
C 1946 4735 1958 4748 1958 4767 
C 1958 4787 1939 4800 1914 4800 
C 1843 4800 1299 4325 986 3620 
C 666 2909 576 2218 576 1603 
C 576 1141 621 360 1005 -467 
C 1312 -1133 1837 -1600 1914 -1600 
C 1946 -1600 1958 -1588 1958 -1562 
z
" transform="scale(0.015625)"/>
       <path id="CMMI12-44" d="M 1005 472 
C 947 249 934 185 486 185 
C 365 185 301 185 301 70 
C 301 0 339 0 467 0 
L 2496 0 
C 3789 0 5050 1332 5050 2752 
C 5050 3669 4499 4352 3584 4352 
L 1530 4352 
C 1408 4352 1350 4352 1350 4230 
C 1350 4166 1408 4166 1504 4166 
C 1894 4166 1894 4115 1894 4045 
C 1894 4032 1894 3994 1869 3898 
L 1005 472 
z
M 2355 3917 
C 2413 4153 2438 4166 2688 4166 
L 3392 4166 
C 3994 4166 4544 3841 4544 2962 
C 4544 2644 4416 1535 3795 835 
C 3616 625 3130 185 2394 185 
L 1664 185 
C 1574 185 1562 185 1523 191 
C 1453 198 1446 211 1446 262 
C 1446 306 1459 344 1472 402 
L 2355 3917 
z
" transform="scale(0.015625)"/>
       <path id="CMR17-29" d="M 1683 1596 
C 1683 2057 1638 2839 1254 3665 
C 947 4332 422 4800 346 4800 
C 326 4800 301 4793 301 4761 
C 301 4748 307 4742 314 4729 
C 621 4408 1402 3595 1402 1603 
C 1402 -396 627 -1210 314 -1530 
C 307 -1543 301 -1549 301 -1562 
C 301 -1594 326 -1600 346 -1600 
C 416 -1600 960 -1127 1274 -422 
C 1594 289 1683 981 1683 1596 
z
" transform="scale(0.015625)"/>
       <path id="CMR17-5b" d="M 1504 -1600 
L 1504 -1376 
L 902 -1376 
L 902 4575 
L 1504 4575 
L 1504 4800 
L 678 4800 
L 678 -1600 
L 1504 -1600 
z
" transform="scale(0.015625)"/>
       <path id="CMR17-6b" d="M 1670 1679 
C 1664 1692 1632 1730 1632 1749 
C 1632 1762 2086 2175 2144 2226 
C 2509 2532 2739 2563 2906 2570 
L 2906 2735 
C 2867 2735 2854 2735 2848 2729 
L 2534 2722 
C 2355 2722 2080 2722 1907 2735 
L 1907 2570 
C 1997 2563 2061 2513 2061 2423 
C 2061 2296 1933 2175 1926 2175 
L 960 1298 
L 960 4416 
L 198 4345 
L 198 4179 
C 576 4179 634 4141 634 3835 
L 634 439 
C 634 198 608 166 198 166 
L 198 0 
C 352 12 634 12 794 12 
C 954 12 1235 12 1389 0 
L 1389 166 
C 979 166 954 191 954 439 
L 954 1139 
L 1395 1540 
L 2042 586 
C 2118 471 2182 382 2182 299 
C 2182 185 2067 166 1990 166 
L 1990 0 
C 2144 12 2419 12 2579 12 
C 2694 12 2931 6 3040 0 
L 3040 166 
C 2739 166 2669 223 2477 503 
L 1670 1679 
z
" transform="scale(0.015625)"/>
       <path id="CMR17-70" d="M 1408 -1114 
C 998 -1114 973 -1088 973 -834 
L 973 380 
C 1158 109 1427 -64 1766 -64 
C 2406 -64 3053 503 3053 1382 
C 3053 2196 2496 2816 1837 2816 
C 1453 2816 1139 2603 960 2345 
L 960 2816 
L 198 2745 
L 198 2577 
C 576 2577 634 2539 634 2228 
L 634 -834 
C 634 -1081 608 -1114 198 -1114 
L 198 -1280 
C 352 -1268 634 -1268 800 -1268 
C 966 -1268 1254 -1268 1408 -1280 
L 1408 -1114 
z
M 973 2015 
C 973 2106 973 2241 1222 2481 
C 1254 2506 1472 2700 1792 2700 
C 2259 2700 2643 2112 2643 1376 
C 2643 639 2234 38 1728 38 
C 1498 38 1248 148 1056 451 
C 973 594 973 632 973 736 
L 973 2015 
z
" transform="scale(0.015625)"/>
       <path id="CMR17-5d" d="M 915 4800 
L 90 4800 
L 90 4575 
L 691 4575 
L 691 -1376 
L 90 -1376 
L 90 -1600 
L 915 -1600 
L 915 4800 
z
" transform="scale(0.015625)"/>
      </defs>
      <use xlink:href="#CMR17-54" transform="scale(0.996264)"/>
      <use xlink:href="#CMR17-72" transform="translate(58.702625 0)scale(0.996264)"/>
      <use xlink:href="#CMR17-75" transform="translate(93.983393 0)scale(0.996264)"/>
      <use xlink:href="#CMR17-65" transform="translate(144.878763 0)scale(0.996264)"/>
      <use xlink:href="#CMR17-44" transform="translate(215.44039 0)scale(0.996264)"/>
      <use xlink:href="#CMR17-69" transform="translate(285.833945 0)scale(0.996264)"/>
      <use xlink:href="#CMR17-73" transform="translate(310.705004 0)scale(0.996264)"/>
      <use xlink:href="#CMR17-74" transform="translate(346.506342 0)scale(0.996264)"/>
      <use xlink:href="#CMR17-61" transform="translate(381.787109 0)scale(0.996264)"/>
      <use xlink:href="#CMR17-6e" transform="translate(427.477586 0)scale(0.996264)"/>
      <use xlink:href="#CMR17-63" transform="translate(478.372956 0)scale(0.996264)"/>
      <use xlink:href="#CMR17-65" transform="translate(518.858617 0)scale(0.996264)"/>
      <use xlink:href="#CMR17-28" transform="translate(589.420244 0)scale(0.996264)"/>
      <use xlink:href="#CMMI12-44" transform="translate(624.701011 0)scale(0.996264)"/>
      <use xlink:href="#CMR17-54" transform="translate(708.404959 36.153639)scale(0.697382)"/>
      <use xlink:href="#CMR17-72" transform="translate(749.496608 36.153639)scale(0.697382)"/>
      <use xlink:href="#CMR17-75" transform="translate(774.193029 36.153639)scale(0.697382)"/>
      <use xlink:href="#CMR17-65" transform="translate(809.819637 36.153639)scale(0.697382)"/>
      <use xlink:href="#CMR17-29" transform="translate(838.657601 0)scale(0.996264)"/>
      <use xlink:href="#CMR17-5b" transform="translate(904.014335 0)scale(0.996264)"/>
      <use xlink:href="#CMR17-6b" transform="translate(928.885393 0)scale(0.996264)"/>
      <use xlink:href="#CMR17-70" transform="translate(977.178309 0)scale(0.996264)"/>
      <use xlink:href="#CMR17-63" transform="translate(1030.676118 0)scale(0.996264)"/>
      <use xlink:href="#CMR17-5d" transform="translate(1071.161778 0)scale(0.996264)"/>
     </g>
    </g>
   </g>
   <g id="matplotlib.axis_2">
    <g id="ytick_1">
     <g id="line2d_7">
      <defs>
       <path id="mf804d27302" d="M 0 0 
L -3.5 0 
" style="stroke: #000000; stroke-width: 0.8"/>
      </defs>
      <g>
       <use xlink:href="#mf804d27302" x="49.706667" y="297.148997" style="stroke: #000000; stroke-width: 0.8"/>
      </g>
     </g>
     <g id="text_8">
      <!-- 1 -->
      <g transform="translate(36.853677 301.300087)scale(0.12 -0.12)">
       <use xlink:href="#CMR17-31" transform="scale(0.996264)"/>
      </g>
     </g>
    </g>
    <g id="ytick_2">
     <g id="line2d_8">
      <g>
       <use xlink:href="#mf804d27302" x="49.706667" y="181.499918" style="stroke: #000000; stroke-width: 0.8"/>
      </g>
     </g>
     <g id="text_9">
      <!-- 10 -->
      <g transform="translate(31.000686 185.651008)scale(0.12 -0.12)">
       <use xlink:href="#CMR17-31" transform="scale(0.996264)"/>
       <use xlink:href="#CMR17-30" transform="translate(45.690477 0)scale(0.996264)"/>
      </g>
     </g>
    </g>
    <g id="ytick_3">
     <g id="line2d_9">
      <g>
       <use xlink:href="#mf804d27302" x="49.706667" y="65.850839" style="stroke: #000000; stroke-width: 0.8"/>
      </g>
     </g>
     <g id="text_10">
      <!-- 100 -->
      <g transform="translate(25.147696 70.001928)scale(0.12 -0.12)">
       <use xlink:href="#CMR17-31" transform="scale(0.996264)"/>
       <use xlink:href="#CMR17-30" transform="translate(45.690477 0)scale(0.996264)"/>
       <use xlink:href="#CMR17-30" transform="translate(91.380954 0)scale(0.996264)"/>
      </g>
     </g>
    </g>
    <g id="ytick_4">
     <g id="line2d_10">
      <g>
       <use xlink:href="#mf804d27302" x="49.706667" y="31.036997" style="stroke: #000000; stroke-width: 0.8"/>
      </g>
     </g>
     <g id="text_11">
      <!-- 200 -->
      <g transform="translate(25.147696 35.188087)scale(0.12 -0.12)">
       <use xlink:href="#CMR17-32" transform="scale(0.996264)"/>
       <use xlink:href="#CMR17-30" transform="translate(45.690477 0)scale(0.996264)"/>
       <use xlink:href="#CMR17-30" transform="translate(91.380954 0)scale(0.996264)"/>
      </g>
     </g>
    </g>
    <g id="ytick_5">
     <g id="line2d_11">
      <defs>
       <path id="m69342f9c45" d="M 0 0 
L -2 0 
" style="stroke: #000000; stroke-width: 0.6"/>
      </defs>
      <g>
       <use xlink:href="#m69342f9c45" x="49.706667" y="262.335155" style="stroke: #000000; stroke-width: 0.6"/>
      </g>
     </g>
    </g>
    <g id="ytick_6">
     <g id="line2d_12">
      <g>
       <use xlink:href="#m69342f9c45" x="49.706667" y="241.970363" style="stroke: #000000; stroke-width: 0.6"/>
      </g>
     </g>
    </g>
    <g id="ytick_7">
     <g id="line2d_13">
      <g>
       <use xlink:href="#m69342f9c45" x="49.706667" y="227.521313" style="stroke: #000000; stroke-width: 0.6"/>
      </g>
     </g>
    </g>
    <g id="ytick_8">
     <g id="line2d_14">
      <g>
       <use xlink:href="#m69342f9c45" x="49.706667" y="216.313759" style="stroke: #000000; stroke-width: 0.6"/>
      </g>
     </g>
    </g>
    <g id="ytick_9">
     <g id="line2d_15">
      <g>
       <use xlink:href="#m69342f9c45" x="49.706667" y="207.156521" style="stroke: #000000; stroke-width: 0.6"/>
      </g>
     </g>
    </g>
    <g id="ytick_10">
     <g id="line2d_16">
      <g>
       <use xlink:href="#m69342f9c45" x="49.706667" y="199.414187" style="stroke: #000000; stroke-width: 0.6"/>
      </g>
     </g>
    </g>
    <g id="ytick_11">
     <g id="line2d_17">
      <g>
       <use xlink:href="#m69342f9c45" x="49.706667" y="192.707471" style="stroke: #000000; stroke-width: 0.6"/>
      </g>
     </g>
    </g>
    <g id="ytick_12">
     <g id="line2d_18">
      <g>
       <use xlink:href="#m69342f9c45" x="49.706667" y="186.791729" style="stroke: #000000; stroke-width: 0.6"/>
      </g>
     </g>
    </g>
    <g id="ytick_13">
     <g id="line2d_19">
      <g>
       <use xlink:href="#m69342f9c45" x="49.706667" y="146.686076" style="stroke: #000000; stroke-width: 0.6"/>
      </g>
     </g>
    </g>
    <g id="ytick_14">
     <g id="line2d_20">
      <g>
       <use xlink:href="#m69342f9c45" x="49.706667" y="126.321284" style="stroke: #000000; stroke-width: 0.6"/>
      </g>
     </g>
    </g>
    <g id="ytick_15">
     <g id="line2d_21">
      <g>
       <use xlink:href="#m69342f9c45" x="49.706667" y="111.872234" style="stroke: #000000; stroke-width: 0.6"/>
      </g>
     </g>
    </g>
    <g id="ytick_16">
     <g id="line2d_22">
      <g>
       <use xlink:href="#m69342f9c45" x="49.706667" y="100.66468" style="stroke: #000000; stroke-width: 0.6"/>
      </g>
     </g>
    </g>
    <g id="ytick_17">
     <g id="line2d_23">
      <g>
       <use xlink:href="#m69342f9c45" x="49.706667" y="91.507442" style="stroke: #000000; stroke-width: 0.6"/>
      </g>
     </g>
    </g>
    <g id="ytick_18">
     <g id="line2d_24">
      <g>
       <use xlink:href="#m69342f9c45" x="49.706667" y="83.765108" style="stroke: #000000; stroke-width: 0.6"/>
      </g>
     </g>
    </g>
    <g id="ytick_19">
     <g id="line2d_25">
      <g>
       <use xlink:href="#m69342f9c45" x="49.706667" y="77.058392" style="stroke: #000000; stroke-width: 0.6"/>
      </g>
     </g>
    </g>
    <g id="ytick_20">
     <g id="line2d_26">
      <g>
       <use xlink:href="#m69342f9c45" x="49.706667" y="71.14265" style="stroke: #000000; stroke-width: 0.6"/>
      </g>
     </g>
    </g>
    <g id="text_12">
     <!-- Reconstructed Distance ($D^{\mathrm{rec}}$) [kpc] -->
     <g transform="translate(17.660772 271.53902)rotate(-90)scale(0.14 -0.14)">
      <defs>
       <path id="CMR17-52" d="M 2509 2156 
C 3117 2278 3629 2689 3629 3203 
C 3629 3806 2950 4352 2054 4352 
L 333 4352 
L 333 4185 
C 774 4185 845 4185 845 3896 
L 845 428 
C 845 140 774 140 333 140 
L 333 -26 
C 518 -13 851 -13 1050 -13 
C 1248 -13 1581 -13 1766 -26 
L 1766 140 
C 1325 140 1254 140 1254 428 
L 1254 2112 
L 2003 2112 
C 2368 2112 2573 1964 2662 1881 
C 2918 1632 2918 1459 2918 1024 
C 2918 595 2918 377 3110 160 
C 3354 -103 3680 -128 3821 -128 
C 4294 -128 4365 403 4365 512 
C 4365 550 4365 595 4307 595 
C 4256 595 4250 556 4250 531 
C 4218 115 4032 -26 3834 -26 
C 3482 -26 3443 377 3405 768 
C 3386 902 3373 998 3360 1139 
C 3322 1459 3270 1926 2509 2156 
z
M 1984 2214 
L 1254 2214 
L 1254 3935 
C 1254 4153 1267 4185 1523 4185 
L 1990 4185 
C 2522 4185 3142 3999 3142 3203 
C 3142 2374 2464 2214 1984 2214 
z
" transform="scale(0.015625)"/>
       <path id="CMR17-6f" d="M 2758 1356 
C 2758 2176 2163 2816 1466 2816 
C 768 2816 173 2176 173 1356 
C 173 550 768 -64 1466 -64 
C 2163 -64 2758 550 2758 1356 
z
M 1466 51 
C 1165 51 909 230 762 480 
C 602 768 582 1126 582 1408 
C 582 1676 595 2009 762 2297 
C 890 2508 1139 2713 1466 2713 
C 1754 2713 1997 2553 2150 2329 
C 2349 2028 2349 1606 2349 1408 
C 2349 1158 2336 774 2163 467 
C 1984 172 1709 51 1466 51 
z
" transform="scale(0.015625)"/>
       <path id="CMR17-64" d="M 1869 4345 
L 1869 4179 
C 2246 4179 2304 4141 2304 3843 
L 2304 2371 
C 2278 2403 2016 2816 1498 2816 
C 845 2816 211 2228 211 1376 
C 211 529 806 -64 1434 -64 
C 1978 -64 2259 361 2291 406 
L 2291 -64 
L 3066 -13 
L 3066 154 
C 2688 154 2630 193 2630 503 
L 2630 4416 
L 1869 4345 
z
M 2291 762 
C 2291 568 2176 393 2029 264 
C 1811 70 1594 38 1472 38 
C 1286 38 621 135 621 1369 
C 621 2636 1363 2713 1530 2713 
C 1824 2713 2061 2545 2208 2313 
C 2291 2177 2291 2157 2291 2041 
L 2291 762 
z
" transform="scale(0.015625)"/>
      </defs>
      <use xlink:href="#CMR17-52" transform="scale(0.996264)"/>
      <use xlink:href="#CMR17-65" transform="translate(67.791102 0)scale(0.996264)"/>
      <use xlink:href="#CMR17-63" transform="translate(108.276762 0)scale(0.996264)"/>
      <use xlink:href="#CMR17-6f" transform="translate(148.762423 0)scale(0.996264)"/>
      <use xlink:href="#CMR17-6e" transform="translate(194.4529 0)scale(0.996264)"/>
      <use xlink:href="#CMR17-73" transform="translate(245.34827 0)scale(0.996264)"/>
      <use xlink:href="#CMR17-74" transform="translate(281.149607 0)scale(0.996264)"/>
      <use xlink:href="#CMR17-72" transform="translate(316.430375 0)scale(0.996264)"/>
      <use xlink:href="#CMR17-75" transform="translate(351.711143 0)scale(0.996264)"/>
      <use xlink:href="#CMR17-63" transform="translate(402.606513 0)scale(0.996264)"/>
      <use xlink:href="#CMR17-74" transform="translate(443.092173 0)scale(0.996264)"/>
      <use xlink:href="#CMR17-65" transform="translate(478.372941 0)scale(0.996264)"/>
      <use xlink:href="#CMR17-64" transform="translate(518.858602 0)scale(0.996264)"/>
      <use xlink:href="#CMR17-44" transform="translate(599.829938 0)scale(0.996264)"/>
      <use xlink:href="#CMR17-69" transform="translate(670.223494 0)scale(0.996264)"/>
      <use xlink:href="#CMR17-73" transform="translate(695.094552 0)scale(0.996264)"/>
      <use xlink:href="#CMR17-74" transform="translate(730.89589 0)scale(0.996264)"/>
      <use xlink:href="#CMR17-61" transform="translate(766.176657 0)scale(0.996264)"/>
      <use xlink:href="#CMR17-6e" transform="translate(811.867135 0)scale(0.996264)"/>
      <use xlink:href="#CMR17-63" transform="translate(862.762504 0)scale(0.996264)"/>
      <use xlink:href="#CMR17-65" transform="translate(903.248165 0)scale(0.996264)"/>
      <use xlink:href="#CMR17-28" transform="translate(973.809792 0)scale(0.996264)"/>
      <use xlink:href="#CMMI12-44" transform="translate(1009.090559 0)scale(0.996264)"/>
      <use xlink:href="#CMR17-72" transform="translate(1092.794507 36.153639)scale(0.697382)"/>
      <use xlink:href="#CMR17-65" transform="translate(1117.490928 36.153639)scale(0.697382)"/>
      <use xlink:href="#CMR17-63" transform="translate(1145.830759 36.153639)scale(0.697382)"/>
      <use xlink:href="#CMR17-29" transform="translate(1174.668723 0)scale(0.996264)"/>
      <use xlink:href="#CMR17-5b" transform="translate(1240.025457 0)scale(0.996264)"/>
      <use xlink:href="#CMR17-6b" transform="translate(1264.896515 0)scale(0.996264)"/>
      <use xlink:href="#CMR17-70" transform="translate(1313.189431 0)scale(0.996264)"/>
      <use xlink:href="#CMR17-63" transform="translate(1366.68724 0)scale(0.996264)"/>
      <use xlink:href="#CMR17-5d" transform="translate(1407.1729 0)scale(0.996264)"/>
     </g>
    </g>
   </g>
   <g id="line2d_27">
    <path d="M 53.277867 294.526732 
L 56.849067 259.196287 
L 63.991467 224.654251 
L 71.133867 204.531976 
L 78.276267 189.946169 
L 85.418667 178.854806 
L 92.561067 169.72348 
L 99.703467 161.902375 
L 106.845867 155.618778 
L 113.988267 149.462851 
L 121.130667 144.260372 
L 128.273067 138.744271 
L 135.415467 134.735958 
L 142.557867 130.733928 
L 149.700267 127.600273 
L 156.842667 123.743525 
L 163.985067 120.463716 
L 171.127467 116.898203 
L 178.269867 115.912824 
L 185.412267 110.714309 
L 192.554667 108.632291 
L 199.697067 107.678397 
L 206.839467 105.483508 
L 213.981867 101.770497 
L 221.124267 98.335393 
L 228.266667 99.062156 
L 235.409067 95.728706 
L 242.551467 94.176908 
L 249.693867 92.570255 
L 256.836267 90.583283 
L 263.978667 88.272132 
L 271.121067 86.803405 
L 278.263467 86.528111 
L 285.405867 84.370781 
L 292.548267 82.644297 
L 299.690667 81.635602 
L 306.833067 77.646705 
L 313.975467 76.722136 
L 321.117867 75.873869 
L 328.260267 74.235625 
L 335.402667 72.086924 
L 342.545067 74.609878 
L 349.687467 73.635171 
L 356.829867 72.271052 
L 363.972267 72.296797 
L 371.114667 68.332036 
L 378.257067 67.737991 
L 385.399467 68.822705 
L 392.541867 63.411036 
L 399.684267 64.559533 
L 406.826667 62.189931 
" clip-path="url(#p9dba495245)" style="fill: none; stroke: #ff7f0e; stroke-width: 2; stroke-linecap: square"/>
   </g>
   <g id="line2d_28">
    <path d="M 53.277867 297.148997 
L 56.849067 262.335155 
L 63.991467 227.521313 
L 71.133867 207.156521 
L 78.276267 192.707471 
L 85.418667 181.499918 
L 92.561067 172.342679 
L 99.703467 164.600345 
L 106.845867 157.89363 
L 113.988267 151.977888 
L 121.130667 146.686076 
L 128.273067 141.89905 
L 135.415467 137.528838 
L 142.557867 133.508632 
L 149.700267 129.786503 
L 156.842667 126.321284 
L 163.985067 123.079788 
L 171.127467 120.03487 
L 178.269867 117.164046 
L 185.412267 114.448479 
L 192.554667 111.872234 
L 199.697067 109.421711 
L 206.839467 107.085208 
L 213.981867 104.852585 
L 221.124267 102.714996 
L 228.266667 100.66468 
L 235.409067 98.69479 
L 242.551467 96.799254 
L 249.693867 94.972661 
L 256.836267 93.210173 
L 263.978667 91.507442 
L 271.121067 89.860548 
L 278.263467 88.265946 
L 285.405867 86.720416 
L 292.548267 85.221029 
L 299.690667 83.765108 
L 306.833067 82.350204 
L 313.975467 80.97407 
L 321.117867 79.634637 
L 328.260267 78.329998 
L 335.402667 77.058392 
L 342.545067 75.818187 
L 349.687467 74.607869 
L 356.829867 73.426032 
L 363.972267 72.271366 
L 371.114667 71.14265 
L 378.257067 70.038743 
L 385.399467 68.958578 
L 392.541867 67.901154 
L 399.684267 66.865535 
L 406.826667 65.850839 
" clip-path="url(#p9dba495245)" style="fill: none; stroke-dasharray: 3.7,1.6; stroke-dashoffset: 0; stroke: #000000"/>
   </g>
   <g id="line2d_29">
    <path d="M 222.909867 297.148997 
L 222.909867 31.036997 
" clip-path="url(#p9dba495245)" style="fill: none; stroke-dasharray: 3.7,1.6; stroke-dashoffset: 0; stroke: #dc143c"/>
   </g>
   <g id="line2d_30">
    <path d="M 78.276267 297.148997 
L 78.276267 31.036997 
" clip-path="url(#p9dba495245)" style="fill: none; stroke-dasharray: 3.7,1.6; stroke-dashoffset: 0; stroke: #dc143c"/>
   </g>
   <g id="line2d_31">
    <path d="M 113.988267 297.148997 
L 113.988267 31.036997 
" clip-path="url(#p9dba495245)" style="fill: none; stroke-dasharray: 3.7,1.6; stroke-dashoffset: 0; stroke: #dc143c"/>
   </g>
   <g id="patch_3">
    <path d="M 49.706667 297.148997 
L 49.706667 31.036997 
" style="fill: none; stroke: #000000; stroke-width: 0.8; stroke-linejoin: miter; stroke-linecap: square"/>
   </g>
   <g id="patch_4">
    <path d="M 406.826667 297.148997 
L 406.826667 31.036997 
" style="fill: none; stroke: #000000; stroke-width: 0.8; stroke-linejoin: miter; stroke-linecap: square"/>
   </g>
   <g id="patch_5">
    <path d="M 49.706667 297.148997 
L 406.826667 297.148997 
" style="fill: none; stroke: #000000; stroke-width: 0.8; stroke-linejoin: miter; stroke-linecap: square"/>
   </g>
   <g id="patch_6">
    <path d="M 49.706667 31.036997 
L 406.826667 31.036997 
" style="fill: none; stroke: #000000; stroke-width: 0.8; stroke-linejoin: miter; stroke-linecap: square"/>
   </g>
   <g id="text_13">
    <g id="patch_7">
     <path d="M 231.80799 186.930812 
L 346.146144 186.930812 
Q 349.446144 186.930812 349.446144 183.630812 
L 349.446144 162.62626 
Q 349.446144 159.32626 346.146144 159.32626 
L 231.80799 159.32626 
Q 228.50799 159.32626 228.50799 162.62626 
L 228.50799 183.630812 
Q 228.50799 186.930812 231.80799 186.930812 
z
" style="fill: #f5deb3; opacity: 0.7; stroke: #000000; stroke-linejoin: miter"/>
    </g>
    <!-- Large Megallanic Cloud  -->
    <g style="fill: #dc143c" transform="translate(231.80799 170.236607)scale(0.11 -0.11)">
     <defs>
      <path id="CMR17-4c" d="M 3469 1612 
L 3354 1612 
C 3302 981 3219 166 2125 166 
L 1530 166 
C 1274 166 1261 198 1261 414 
L 1261 3892 
C 1261 4121 1274 4185 1760 4185 
L 1901 4185 
L 1901 4352 
C 1638 4339 1331 4339 1069 4339 
C 870 4339 512 4339 326 4352 
L 326 4185 
C 768 4185 838 4185 838 3898 
L 838 453 
C 838 166 768 166 326 166 
L 326 0 
L 3315 0 
L 3469 1612 
z
" transform="scale(0.015625)"/>
      <path id="CMR17-67" d="M 710 1165 
C 832 1068 1043 960 1299 960 
C 1805 960 2240 1359 2240 1895 
C 2240 2063 2189 2321 1997 2521 
C 2176 2713 2438 2777 2586 2777 
C 2611 2777 2650 2777 2682 2758 
C 2656 2751 2598 2726 2598 2623 
C 2598 2540 2656 2483 2739 2483 
C 2835 2483 2886 2547 2886 2630 
C 2886 2751 2790 2880 2586 2880 
C 2330 2880 2106 2758 1926 2591 
C 1734 2764 1504 2828 1299 2828 
C 794 2828 358 2431 358 1895 
C 358 1527 570 1294 634 1230 
C 442 1004 442 742 442 710 
C 442 544 506 300 723 166 
C 390 82 128 -184 128 -517 
C 128 -996 736 -1344 1466 -1344 
C 2170 -1344 2803 -1009 2803 -510 
C 2803 384 1856 384 1363 384 
C 1216 384 954 384 922 390 
C 723 422 589 601 589 825 
C 589 883 589 1024 710 1165 
z
M 1299 1068 
C 736 1068 736 1766 736 1895 
C 736 2024 736 2719 1299 2719 
C 1862 2719 1862 2024 1862 1895 
C 1862 1766 1862 1068 1299 1068 
z
M 1466 -1236 
C 826 -1236 384 -883 384 -517 
C 384 -311 493 -118 634 -11 
C 794 102 858 102 1293 102 
C 1818 102 2547 102 2547 -517 
C 2547 -883 2106 -1236 1466 -1236 
z
" transform="scale(0.015625)"/>
      <path id="CMR17-4d" d="M 1338 4249 
C 1299 4345 1293 4352 1158 4352 
L 339 4352 
L 339 4185 
C 781 4185 851 4185 851 3898 
L 851 624 
C 851 465 851 166 339 166 
L 339 0 
C 486 12 755 12 915 12 
C 1075 12 1344 12 1491 0 
L 1491 166 
C 979 166 979 465 979 624 
L 979 4159 
L 986 4159 
L 2490 102 
C 2515 38 2528 0 2579 0 
C 2630 0 2643 38 2669 102 
L 4186 4191 
L 4192 4191 
L 4192 453 
C 4192 166 4122 166 3680 166 
L 3680 0 
C 3853 12 4198 12 4384 12 
C 4570 12 4922 12 5094 0 
L 5094 166 
C 4653 166 4582 166 4582 453 
L 4582 3898 
C 4582 4185 4653 4185 5094 4185 
L 5094 4352 
L 4282 4352 
C 4147 4352 4141 4345 4102 4249 
L 2720 516 
L 1338 4249 
z
" transform="scale(0.015625)"/>
      <path id="CMR17-6c" d="M 979 4416 
L 218 4345 
L 218 4179 
C 595 4179 653 4141 653 3835 
L 653 439 
C 653 198 627 166 218 166 
L 218 0 
C 371 12 653 12 813 12 
C 979 12 1261 12 1414 0 
L 1414 166 
C 1005 166 979 191 979 439 
L 979 4416 
z
" transform="scale(0.015625)"/>
      <path id="CMR17-43" d="M 3974 4351 
C 3974 4467 3968 4473 3930 4473 
C 3904 4473 3898 4467 3853 4390 
L 3571 3849 
C 3258 4249 2874 4480 2381 4480 
C 1286 4480 294 3507 294 2179 
C 294 837 1286 -128 2387 -128 
C 3366 -128 3974 741 3974 1482 
C 3974 1547 3974 1573 3917 1573 
C 3866 1573 3866 1553 3859 1495 
C 3808 592 3168 38 2477 38 
C 1824 38 781 502 781 2179 
C 781 3862 1843 4313 2464 4313 
C 3187 4313 3712 3681 3834 2785 
C 3846 2707 3846 2695 3904 2695 
C 3974 2695 3974 2707 3974 2824 
L 3974 4351 
z
" transform="scale(0.015625)"/>
     </defs>
     <use xlink:href="#CMR17-4c" transform="scale(0.996264)"/>
     <use xlink:href="#CMR17-61" transform="translate(57.381408 0)scale(0.996264)"/>
     <use xlink:href="#CMR17-72" transform="translate(103.071885 0)scale(0.996264)"/>
     <use xlink:href="#CMR17-67" transform="translate(138.352653 0)scale(0.996264)"/>
     <use xlink:href="#CMR17-65" transform="translate(184.04313 0)scale(0.996264)"/>
     <use xlink:href="#CMR17-4d" transform="translate(254.604757 0)scale(0.996264)"/>
     <use xlink:href="#CMR17-65" transform="translate(339.291697 0)scale(0.996264)"/>
     <use xlink:href="#CMR17-67" transform="translate(379.777358 0)scale(0.996264)"/>
     <use xlink:href="#CMR17-61" transform="translate(425.467835 0)scale(0.996264)"/>
     <use xlink:href="#CMR17-6c" transform="translate(471.158312 0)scale(0.996264)"/>
     <use xlink:href="#CMR17-6c" transform="translate(496.02937 0)scale(0.996264)"/>
     <use xlink:href="#CMR17-61" transform="translate(520.900429 0)scale(0.996264)"/>
     <use xlink:href="#CMR17-6e" transform="translate(566.590906 0)scale(0.996264)"/>
     <use xlink:href="#CMR17-69" transform="translate(617.486276 0)scale(0.996264)"/>
     <use xlink:href="#CMR17-63" transform="translate(642.357334 0)scale(0.996264)"/>
     <use xlink:href="#CMR17-43" transform="translate(712.918961 0)scale(0.996264)"/>
     <use xlink:href="#CMR17-6c" transform="translate(779.428842 0)scale(0.996264)"/>
     <use xlink:href="#CMR17-6f" transform="translate(804.2999 0)scale(0.996264)"/>
     <use xlink:href="#CMR17-75" transform="translate(849.990377 0)scale(0.996264)"/>
     <use xlink:href="#CMR17-64" transform="translate(900.885747 0)scale(0.996264)"/>
    </g>
    <!--  $D = 48.5 \, \mathrm{kpc}$ -->
    <g style="fill: #dc143c" transform="translate(257.80433 181.499918)scale(0.11 -0.11)">
     <defs>
      <path id="CMR17-3d" d="M 4115 2048 
C 4211 2048 4307 2048 4307 2156 
C 4307 2272 4198 2272 4090 2272 
L 512 2272 
C 403 2272 294 2272 294 2156 
C 294 2048 390 2048 486 2048 
L 4115 2048 
z
M 4090 927 
C 4198 927 4307 927 4307 1043 
C 4307 1152 4211 1152 4115 1152 
L 486 1152 
C 390 1152 294 1152 294 1043 
C 294 927 403 927 512 927 
L 4090 927 
z
" transform="scale(0.015625)"/>
      <path id="CMMI12-3a" d="M 1178 307 
C 1178 492 1024 620 870 620 
C 685 620 557 467 557 313 
C 557 128 710 0 864 0 
C 1050 0 1178 153 1178 307 
z
" transform="scale(0.015625)"/>
      <path id="CMR17-35" d="M 730 3750 
C 794 3724 1056 3641 1325 3641 
C 1920 3641 2246 3961 2432 4140 
C 2432 4191 2432 4224 2394 4224 
C 2387 4224 2374 4224 2323 4198 
C 2099 4102 1837 4032 1517 4032 
C 1325 4032 1037 4055 723 4191 
C 653 4224 640 4224 634 4224 
C 602 4224 595 4217 595 4090 
L 595 2231 
C 595 2113 595 2080 659 2080 
C 691 2080 704 2093 736 2139 
C 941 2435 1222 2560 1542 2560 
C 1766 2560 2246 2415 2246 1293 
C 2246 1087 2246 716 2054 422 
C 1894 159 1645 25 1370 25 
C 947 25 518 319 403 812 
C 429 806 480 793 506 793 
C 589 793 749 838 749 1036 
C 749 1209 627 1280 506 1280 
C 358 1280 262 1190 262 1011 
C 262 454 704 -128 1382 -128 
C 2042 -128 2669 441 2669 1267 
C 2669 2054 2170 2662 1549 2662 
C 1222 2662 947 2540 730 2304 
L 730 3750 
z
" transform="scale(0.015625)"/>
     </defs>
     <use xlink:href="#CMMI12-44" transform="scale(0.996264)"/>
     <use xlink:href="#CMR17-3d" transform="translate(111.377956 0)scale(0.996264)"/>
     <use xlink:href="#CMR17-34" transform="translate(210.766754 0)scale(0.996264)"/>
     <use xlink:href="#CMR17-38" transform="translate(256.457231 0)scale(0.996264)"/>
     <use xlink:href="#CMMI12-3a" transform="translate(302.147708 0)scale(0.996264)"/>
     <use xlink:href="#CMR17-35" transform="translate(329.244885 0)scale(0.996264)"/>
     <use xlink:href="#CMR17-6b" transform="translate(391.539767 0)scale(0.996264)"/>
     <use xlink:href="#CMR17-70" transform="translate(439.832683 0)scale(0.996264)"/>
     <use xlink:href="#CMR17-63" transform="translate(493.330492 0)scale(0.996264)"/>
    </g>
   </g>
   <g id="text_14">
    <g id="patch_8">
     <path d="M 85.267791 71.281733 
L 160.564743 71.281733 
Q 163.864743 71.281733 163.864743 67.981733 
L 163.864743 46.977181 
Q 163.864743 43.677181 160.564743 43.677181 
L 85.267791 43.677181 
Q 81.967791 43.677181 81.967791 46.977181 
L 81.967791 67.981733 
Q 81.967791 71.281733 85.267791 71.281733 
z
" style="fill: #f5deb3; opacity: 0.7; stroke: #000000; stroke-linejoin: miter"/>
    </g>
    <!-- Galactic Center  -->
    <g style="fill: #dc143c" transform="translate(85.267791 54.587528)scale(0.11 -0.11)">
     <defs>
      <path id="CMR17-47" d="M 3974 1258 
C 3974 1503 3994 1536 4390 1536 
L 4390 1702 
C 4237 1689 3891 1689 3718 1689 
C 3539 1689 3040 1696 2797 1702 
L 2797 1536 
L 2989 1536 
C 3539 1536 3552 1464 3552 1232 
L 3552 806 
C 3552 96 2720 38 2522 38 
C 1862 38 781 496 781 2179 
C 781 3862 1843 4313 2464 4313 
C 3187 4313 3712 3681 3834 2785 
C 3846 2708 3846 2695 3904 2695 
C 3974 2695 3974 2708 3974 2824 
L 3974 4351 
C 3974 4467 3968 4473 3930 4473 
C 3904 4473 3898 4467 3853 4390 
L 3571 3849 
C 3258 4249 2874 4480 2381 4480 
C 1286 4480 294 3507 294 2179 
C 294 858 1267 -128 2394 -128 
C 2912 -128 3418 57 3616 425 
C 3725 161 3904 -20 3936 -20 
C 3968 -20 3974 -13 3974 102 
L 3974 1258 
z
" transform="scale(0.015625)"/>
     </defs>
     <use xlink:href="#CMR17-47" transform="scale(0.996264)"/>
     <use xlink:href="#CMR17-61" transform="translate(72.355346 0)scale(0.996264)"/>
     <use xlink:href="#CMR17-6c" transform="translate(118.045823 0)scale(0.996264)"/>
     <use xlink:href="#CMR17-61" transform="translate(142.916882 0)scale(0.996264)"/>
     <use xlink:href="#CMR17-63" transform="translate(188.607359 0)scale(0.996264)"/>
     <use xlink:href="#CMR17-74" transform="translate(229.093019 0)scale(0.996264)"/>
     <use xlink:href="#CMR17-69" transform="translate(264.373787 0)scale(0.996264)"/>
     <use xlink:href="#CMR17-63" transform="translate(289.244845 0)scale(0.996264)"/>
     <use xlink:href="#CMR17-43" transform="translate(359.806472 0)scale(0.996264)"/>
     <use xlink:href="#CMR17-65" transform="translate(426.316353 0)scale(0.996264)"/>
     <use xlink:href="#CMR17-6e" transform="translate(466.802013 0)scale(0.996264)"/>
     <use xlink:href="#CMR17-74" transform="translate(515.094929 0)scale(0.996264)"/>
     <use xlink:href="#CMR17-65" transform="translate(550.375697 0)scale(0.996264)"/>
     <use xlink:href="#CMR17-72" transform="translate(590.861357 0)scale(0.996264)"/>
    </g>
    <!--  $D = 8 \, \mathrm{kpc}$ -->
    <g style="fill: #dc143c" transform="translate(98.745068 65.850839)scale(0.11 -0.11)">
     <use xlink:href="#CMMI12-44" transform="scale(0.996264)"/>
     <use xlink:href="#CMR17-3d" transform="translate(111.377956 0)scale(0.996264)"/>
     <use xlink:href="#CMR17-38" transform="translate(210.766754 0)scale(0.996264)"/>
     <use xlink:href="#CMR17-6b" transform="translate(273.061636 0)scale(0.996264)"/>
     <use xlink:href="#CMR17-70" transform="translate(321.354552 0)scale(0.996264)"/>
     <use xlink:href="#CMR17-63" transform="translate(374.85236 0)scale(0.996264)"/>
    </g>
   </g>
   <g id="text_15">
    <g id="patch_9">
     <path d="M 120.625823 212.587416 
L 182.345911 212.587416 
Q 185.645911 212.587416 185.645911 209.287416 
L 185.645911 188.282864 
Q 185.645911 184.982864 182.345911 184.982864 
L 120.625823 184.982864 
Q 117.325823 184.982864 117.325823 188.282864 
L 117.325823 209.287416 
Q 117.325823 212.587416 120.625823 212.587416 
z
" style="fill: #f5deb3; opacity: 0.7; stroke: #000000; stroke-linejoin: miter"/>
    </g>
    <!-- Galaxy Edge  -->
    <g style="fill: #dc143c" transform="translate(120.625823 195.893211)scale(0.11 -0.11)">
     <defs>
      <path id="CMR17-78" d="M 1664 1491 
C 1856 1740 2074 2022 2253 2233 
C 2464 2476 2707 2579 2989 2585 
L 2989 2752 
C 2880 2745 2656 2739 2541 2739 
C 2368 2739 2170 2739 2022 2752 
L 2022 2585 
C 2112 2572 2163 2508 2163 2419 
C 2163 2304 2099 2233 2067 2188 
L 1594 1587 
L 1030 2323 
C 973 2393 973 2406 973 2438 
C 973 2515 1037 2579 1146 2585 
L 1146 2752 
C 992 2739 717 2739 557 2739 
C 384 2739 179 2739 38 2752 
L 38 2585 
C 384 2585 461 2560 614 2368 
L 1350 1414 
C 1363 1401 1395 1363 1395 1344 
C 1395 1318 838 633 768 544 
C 480 198 179 172 6 166 
L 6 0 
C 115 6 339 12 454 12 
C 582 12 864 12 979 0 
L 979 166 
C 941 172 838 185 838 332 
C 838 448 890 518 947 595 
L 1478 1248 
L 2035 524 
C 2086 454 2163 358 2163 313 
C 2163 224 2086 172 1984 166 
L 1984 0 
C 2138 12 2413 12 2573 12 
C 2746 12 2950 12 3091 0 
L 3091 166 
C 2771 166 2675 179 2522 377 
L 1664 1491 
z
" transform="scale(0.015625)"/>
      <path id="CMR17-79" d="M 2496 2183 
C 2656 2579 2944 2585 3034 2585 
L 3034 2752 
C 2912 2745 2752 2739 2630 2739 
C 2496 2739 2285 2739 2157 2752 
L 2157 2585 
C 2400 2566 2406 2384 2406 2332 
C 2406 2268 2394 2235 2362 2158 
L 1664 409 
L 902 2300 
C 870 2378 870 2423 870 2430 
C 870 2572 1018 2585 1171 2585 
L 1171 2752 
C 1018 2739 742 2739 582 2739 
C 410 2739 205 2739 64 2752 
L 64 2585 
C 410 2585 448 2553 531 2345 
L 1485 -31 
C 1197 -795 1030 -1242 627 -1242 
C 557 -1242 397 -1223 282 -1106 
C 429 -1093 493 -1002 493 -892 
C 493 -782 416 -685 288 -685 
C 147 -685 77 -782 77 -899 
C 77 -1158 339 -1344 627 -1344 
C 998 -1344 1229 -983 1357 -659 
L 2496 2183 
z
" transform="scale(0.015625)"/>
      <path id="CMR17-45" d="M 3885 1614 
L 3770 1614 
C 3629 676 3546 166 2419 166 
L 1530 166 
C 1274 166 1261 198 1261 415 
L 1261 2176 
L 1862 2176 
C 2464 2176 2522 1959 2522 1429 
L 2637 1429 
L 2637 3086 
L 2522 3086 
C 2522 2558 2464 2342 1862 2342 
L 1261 2342 
L 1261 3924 
C 1261 4141 1274 4172 1530 4172 
L 2406 4172 
C 3398 4172 3514 3778 3603 2933 
L 3718 2933 
L 3565 4339 
L 326 4339 
L 326 4172 
C 768 4172 838 4172 838 3886 
L 838 453 
C 838 166 768 166 326 166 
L 326 0 
L 3654 0 
L 3885 1614 
z
" transform="scale(0.015625)"/>
     </defs>
     <use xlink:href="#CMR17-47" transform="scale(0.996264)"/>
     <use xlink:href="#CMR17-61" transform="translate(72.355346 0)scale(0.996264)"/>
     <use xlink:href="#CMR17-6c" transform="translate(118.045823 0)scale(0.996264)"/>
     <use xlink:href="#CMR17-61" transform="translate(142.916882 0)scale(0.996264)"/>
     <use xlink:href="#CMR17-78" transform="translate(188.607359 0)scale(0.996264)"/>
     <use xlink:href="#CMR17-79" transform="translate(236.900274 0)scale(0.996264)"/>
     <use xlink:href="#CMR17-45" transform="translate(315.269157 0)scale(0.996264)"/>
     <use xlink:href="#CMR17-64" transform="translate(377.855457 0)scale(0.996264)"/>
     <use xlink:href="#CMR17-67" transform="translate(428.750827 0)scale(0.996264)"/>
     <use xlink:href="#CMR17-65" transform="translate(474.441304 0)scale(0.996264)"/>
    </g>
    <!--  $D = 18 \, \mathrm{kpc}$ -->
    <g style="fill: #dc143c" transform="translate(124.574934 207.156521)scale(0.11 -0.11)">
     <use xlink:href="#CMMI12-44" transform="scale(0.996264)"/>
     <use xlink:href="#CMR17-3d" transform="translate(111.377956 0)scale(0.996264)"/>
     <use xlink:href="#CMR17-31" transform="translate(210.766754 0)scale(0.996264)"/>
     <use xlink:href="#CMR17-38" transform="translate(256.457231 0)scale(0.996264)"/>
     <use xlink:href="#CMR17-6b" transform="translate(318.752113 0)scale(0.996264)"/>
     <use xlink:href="#CMR17-70" transform="translate(367.045029 0)scale(0.996264)"/>
     <use xlink:href="#CMR17-63" transform="translate(420.542837 0)scale(0.996264)"/>
    </g>
   </g>
   <g id="text_16">
    <!-- JUNO distance reconstruction for 27 $M_\odot$ CCSN -->
    <g transform="translate(34.973663 21.036997)scale(0.2 -0.2)">
     <defs>
      <path id="CMR17-4a" d="M 1888 902 
C 1888 316 1568 -26 1242 -26 
C 1075 -26 691 49 525 428 
C 550 422 582 415 608 415 
C 730 415 883 499 883 691 
C 883 844 774 960 614 960 
C 461 960 339 863 339 678 
C 339 254 730 -128 1254 -128 
C 1754 -128 2214 223 2291 755 
C 2298 799 2298 812 2298 1030 
L 2298 3734 
C 2298 3844 2298 4024 2310 4063 
C 2336 4185 2483 4185 2682 4185 
L 2682 4352 
C 2669 4352 2214 4339 2054 4339 
C 1786 4339 1491 4339 1222 4352 
L 1222 4185 
L 1376 4185 
C 1875 4185 1888 4114 1888 3883 
L 1888 902 
z
" transform="scale(0.015625)"/>
      <path id="CMR17-55" d="M 3456 1442 
C 3456 583 2899 38 2291 38 
C 1965 38 1670 211 1491 480 
C 1286 788 1261 1185 1261 1410 
L 1261 3897 
C 1261 4185 1331 4185 1773 4185 
L 1773 4352 
C 1587 4339 1248 4339 1050 4339 
C 851 4339 512 4339 326 4352 
L 326 4185 
C 768 4185 838 4185 838 3897 
L 838 1442 
C 838 519 1536 -128 2278 -128 
C 3110 -128 3590 724 3590 1352 
L 3590 3788 
C 3590 4147 3917 4185 4102 4185 
L 4102 4352 
C 3955 4339 3686 4339 3526 4339 
C 3366 4339 3091 4339 2944 4352 
L 2944 4185 
C 3456 4185 3456 3884 3456 3724 
L 3456 1442 
z
" transform="scale(0.015625)"/>
      <path id="CMR17-4e" d="M 1312 4275 
C 1267 4345 1261 4352 1139 4352 
L 326 4352 
L 326 4185 
L 448 4185 
C 704 4185 819 4153 838 4147 
L 838 624 
C 838 465 838 166 326 166 
L 326 0 
C 474 12 742 12 902 12 
C 1062 12 1331 12 1478 0 
L 1478 166 
C 966 166 966 465 966 624 
L 966 4057 
C 1011 4019 1011 4007 1056 3943 
L 3430 76 
C 3475 0 3494 0 3526 0 
C 3590 0 3590 19 3590 140 
L 3590 3726 
C 3590 3885 3590 4185 4102 4185 
L 4102 4352 
C 3955 4339 3686 4339 3526 4339 
C 3366 4339 3098 4339 2950 4352 
L 2950 4185 
C 3462 4185 3462 3885 3462 3726 
L 3462 777 
L 1312 4275 
z
" transform="scale(0.015625)"/>
      <path id="CMR17-4f" d="M 4307 2166 
C 4307 3488 3366 4480 2304 4480 
C 1216 4480 294 3475 294 2166 
C 294 857 1229 -128 2298 -128 
C 3392 -128 4307 876 4307 2166 
z
M 2304 -13 
C 1574 -13 781 722 781 2250 
C 781 3771 1651 4364 2298 4364 
C 2976 4364 3821 3752 3821 2250 
C 3821 696 3008 -13 2304 -13 
z
" transform="scale(0.015625)"/>
      <path id="CMR17-66" d="M 979 2585 
L 1709 2585 
L 1709 2752 
L 966 2752 
L 966 3539 
C 966 4076 1235 4377 1510 4377 
C 1594 4377 1690 4363 1754 4339 
C 1702 4326 1568 4281 1568 4121 
C 1568 3955 1696 3904 1786 3904 
C 1875 3904 2003 3955 2003 4121 
C 2003 4353 1773 4480 1517 4480 
C 1152 4480 653 4211 653 3526 
L 653 2752 
L 141 2752 
L 141 2585 
L 653 2585 
L 653 441 
C 653 198 627 166 218 166 
L 218 0 
C 371 12 666 12 832 12 
C 1018 12 1344 12 1517 0 
L 1517 166 
C 1056 166 979 166 979 454 
L 979 2585 
z
" transform="scale(0.015625)"/>
      <path id="CMR17-37" d="M 2886 3955 
L 2886 4096 
L 1382 4096 
C 634 4096 621 4166 595 4288 
L 480 4288 
L 294 3104 
L 410 3104 
C 429 3226 474 3552 550 3673 
C 589 3724 1062 3724 1171 3724 
L 2579 3724 
L 1869 2670 
C 1395 1961 1069 1003 1069 166 
C 1069 89 1069 -128 1299 -128 
C 1530 -128 1530 89 1530 172 
L 1530 466 
C 1530 1514 1709 2204 2003 2644 
L 2886 3955 
z
" transform="scale(0.015625)"/>
      <path id="CMMI12-4d" d="M 5811 3886 
C 5869 4102 5882 4166 6336 4166 
C 6458 4166 6515 4166 6515 4287 
C 6515 4352 6470 4352 6349 4352 
L 5581 4352 
C 5421 4352 5414 4345 5344 4243 
L 3008 567 
L 2528 4211 
C 2509 4352 2502 4352 2336 4352 
L 1542 4352 
C 1421 4352 1363 4352 1363 4230 
C 1363 4166 1421 4166 1517 4166 
C 1907 4166 1907 4115 1907 4045 
C 1907 4032 1907 3994 1882 3898 
L 1062 650 
C 986 344 838 204 410 185 
C 390 185 314 179 314 70 
C 314 0 371 0 397 0 
C 525 0 851 12 979 12 
L 1286 12 
C 1376 12 1485 0 1574 0 
C 1619 0 1690 0 1690 121 
C 1690 179 1626 185 1600 185 
C 1389 191 1184 230 1184 459 
C 1184 523 1184 529 1210 618 
L 2093 4128 
L 2099 4128 
L 2630 172 
C 2650 19 2656 0 2714 0 
C 2784 0 2816 51 2848 108 
L 5421 4159 
L 5427 4159 
L 4499 472 
C 4442 249 4429 185 3981 185 
C 3859 185 3795 185 3795 70 
C 3795 0 3853 0 3891 0 
C 4000 0 4128 12 4237 12 
L 4992 12 
C 5101 12 5235 0 5344 0 
C 5395 0 5466 0 5466 121 
C 5466 185 5408 185 5312 185 
C 4922 185 4922 236 4922 300 
C 4922 306 4922 351 4934 402 
L 5811 3886 
z
" transform="scale(0.015625)"/>
      <path id="CMSY10-c" d="M 4621 1606 
C 4621 2787 3661 3744 2490 3744 
C 1299 3744 352 2774 352 1606 
C 352 419 1312 -545 2483 -545 
C 3674 -545 4621 432 4621 1606 
z
M 2490 -384 
C 1389 -384 512 516 512 1606 
C 512 2709 1408 3584 2483 3584 
C 3584 3584 4461 2690 4461 1606 
C 4461 497 3565 -384 2490 -384 
z
M 2925 1606 
C 2925 1849 2726 2048 2490 2048 
C 2234 2048 2048 1836 2048 1606 
C 2048 1363 2246 1164 2483 1164 
C 2739 1164 2925 1375 2925 1606 
z
" transform="scale(0.015625)"/>
      <path id="CMR17-53" d="M 2803 4351 
C 2803 4467 2797 4473 2758 4473 
C 2720 4473 2707 4447 2682 4390 
L 2490 3965 
C 2246 4320 1875 4480 1472 4480 
C 819 4480 294 3958 294 3301 
C 294 3101 339 2817 557 2546 
C 794 2250 1018 2198 1530 2063 
C 1722 2011 2042 1927 2106 1901 
C 2470 1747 2662 1360 2662 999 
C 2662 534 2336 38 1779 38 
C 1094 38 454 425 410 1328 
C 403 1431 397 1437 352 1437 
C 301 1437 294 1431 294 1302 
L 294 0 
C 294 -116 301 -122 339 -122 
C 384 -122 397 -90 486 109 
C 493 128 493 141 614 386 
C 934 -39 1472 -128 1779 -128 
C 2477 -128 2970 457 2970 1141 
C 2970 1476 2848 1734 2778 1850 
C 2509 2263 2221 2340 1914 2417 
C 1869 2437 1856 2437 1498 2527 
C 1152 2617 1005 2662 845 2836 
C 666 3036 602 3243 602 3449 
C 602 3868 934 4326 1478 4326 
C 2157 4326 2579 3842 2675 3036 
C 2694 2920 2701 2914 2746 2914 
C 2803 2914 2803 2933 2803 3043 
L 2803 4351 
z
" transform="scale(0.015625)"/>
     </defs>
     <use xlink:href="#CMR17-4a" transform="scale(0.996264)"/>
     <use xlink:href="#CMR17-55" transform="translate(46.97179 0)scale(0.996264)"/>
     <use xlink:href="#CMR17-4e" transform="translate(116.04422 0)scale(0.996264)"/>
     <use xlink:href="#CMR17-4f" transform="translate(185.116649 0)scale(0.996264)"/>
     <use xlink:href="#CMR17-64" transform="translate(286.907404 0)scale(0.996264)"/>
     <use xlink:href="#CMR17-69" transform="translate(337.802774 0)scale(0.996264)"/>
     <use xlink:href="#CMR17-73" transform="translate(362.673832 0)scale(0.996264)"/>
     <use xlink:href="#CMR17-74" transform="translate(398.47517 0)scale(0.996264)"/>
     <use xlink:href="#CMR17-61" transform="translate(433.755938 0)scale(0.996264)"/>
     <use xlink:href="#CMR17-6e" transform="translate(479.446415 0)scale(0.996264)"/>
     <use xlink:href="#CMR17-63" transform="translate(530.341785 0)scale(0.996264)"/>
     <use xlink:href="#CMR17-65" transform="translate(570.827445 0)scale(0.996264)"/>
     <use xlink:href="#CMR17-72" transform="translate(641.389072 0)scale(0.996264)"/>
     <use xlink:href="#CMR17-65" transform="translate(676.66984 0)scale(0.996264)"/>
     <use xlink:href="#CMR17-63" transform="translate(717.1555 0)scale(0.996264)"/>
     <use xlink:href="#CMR17-6f" transform="translate(757.641161 0)scale(0.996264)"/>
     <use xlink:href="#CMR17-6e" transform="translate(803.331638 0)scale(0.996264)"/>
     <use xlink:href="#CMR17-73" transform="translate(854.227008 0)scale(0.996264)"/>
     <use xlink:href="#CMR17-74" transform="translate(890.028345 0)scale(0.996264)"/>
     <use xlink:href="#CMR17-72" transform="translate(925.309113 0)scale(0.996264)"/>
     <use xlink:href="#CMR17-75" transform="translate(960.589881 0)scale(0.996264)"/>
     <use xlink:href="#CMR17-63" transform="translate(1011.485251 0)scale(0.996264)"/>
     <use xlink:href="#CMR17-74" transform="translate(1051.970911 0)scale(0.996264)"/>
     <use xlink:href="#CMR17-69" transform="translate(1087.251679 0)scale(0.996264)"/>
     <use xlink:href="#CMR17-6f" transform="translate(1112.122737 0)scale(0.996264)"/>
     <use xlink:href="#CMR17-6e" transform="translate(1157.813214 0)scale(0.996264)"/>
     <use xlink:href="#CMR17-66" transform="translate(1238.784551 0)scale(0.996264)"/>
     <use xlink:href="#CMR17-6f" transform="translate(1266.258063 0)scale(0.996264)"/>
     <use xlink:href="#CMR17-72" transform="translate(1311.94854 0)scale(0.996264)"/>
     <use xlink:href="#CMR17-32" transform="translate(1377.305274 0)scale(0.996264)"/>
     <use xlink:href="#CMR17-37" transform="translate(1422.995751 0)scale(0.996264)"/>
     <use xlink:href="#CMMI12-4d" transform="translate(1498.762195 0)scale(0.996264)"/>
     <use xlink:href="#CMSY10-c" transform="translate(1593.13562 -14.943915)scale(0.697382)"/>
     <use xlink:href="#CMR17-43" transform="translate(1677.950712 0)scale(0.996264)"/>
     <use xlink:href="#CMR17-43" transform="translate(1744.460592 0)scale(0.996264)"/>
     <use xlink:href="#CMR17-53" transform="translate(1810.970473 0)scale(0.996264)"/>
     <use xlink:href="#CMR17-4e" transform="translate(1861.865842 0)scale(0.996264)"/>
    </g>
   </g>
   <g id="legend_1">
    <g id="patch_10">
     <path d="M 247.977941 291.148997 
L 398.426667 291.148997 
Q 400.826667 291.148997 400.826667 288.748997 
L 400.826667 256.499805 
Q 400.826667 254.099805 398.426667 254.099805 
L 247.977941 254.099805 
Q 245.577941 254.099805 245.577941 256.499805 
L 245.577941 288.748997 
Q 245.577941 291.148997 247.977941 291.148997 
z
" style="fill: #ffffff; opacity: 0.8; stroke: #cccccc; stroke-linejoin: miter"/>
    </g>
    <g id="line2d_32">
     <path d="M 250.377941 263.099805 
L 262.377941 263.099805 
L 274.377941 263.099805 
" style="fill: none; stroke: #ff7f0e; stroke-width: 2; stroke-linecap: square"/>
    </g>
    <g id="text_17">
     <!-- Median -->
     <g transform="translate(283.977941 267.299805)scale(0.12 -0.12)">
      <use xlink:href="#CMR17-4d" transform="scale(0.996264)"/>
      <use xlink:href="#CMR17-65" transform="translate(84.686941 0)scale(0.996264)"/>
      <use xlink:href="#CMR17-64" transform="translate(125.172601 0)scale(0.996264)"/>
      <use xlink:href="#CMR17-69" transform="translate(176.067971 0)scale(0.996264)"/>
      <use xlink:href="#CMR17-61" transform="translate(200.939029 0)scale(0.996264)"/>
      <use xlink:href="#CMR17-6e" transform="translate(246.629506 0)scale(0.996264)"/>
     </g>
    </g>
    <g id="patch_11">
     <path d="M 250.377941 284.024401 
L 274.377941 284.024401 
L 274.377941 275.624401 
L 250.377941 275.624401 
z
" style="fill: #f57d15; fill-opacity: 0.5; stroke: #f57d15; stroke-opacity: 0.5; stroke-linejoin: miter"/>
    </g>
    <g id="text_18">
     <!-- 3 $\sigma$ -->
     <g transform="translate(283.977941 284.024401)scale(0.12 -0.12)">
      <defs>
       <path id="CMR17-33" d="M 1414 2176 
C 1984 2176 2234 1673 2234 1094 
C 2234 322 1824 25 1453 25 
C 1114 25 563 193 390 691 
C 422 678 454 678 486 678 
C 640 678 755 780 755 947 
C 755 1132 614 1216 486 1216 
C 378 1216 211 1164 211 927 
C 211 335 787 -128 1466 -128 
C 2176 -128 2720 432 2720 1087 
C 2720 1718 2208 2176 1600 2246 
C 2086 2347 2554 2776 2554 3353 
C 2554 3856 2048 4224 1472 4224 
C 890 4224 378 3862 378 3347 
C 378 3123 544 3084 627 3084 
C 762 3084 877 3167 877 3334 
C 877 3500 762 3584 627 3584 
C 602 3584 570 3584 544 3571 
C 730 3999 1235 4076 1459 4076 
C 1683 4076 2106 3966 2106 3347 
C 2106 3167 2080 2851 1862 2574 
C 1670 2329 1453 2316 1242 2297 
C 1210 2297 1062 2284 1037 2284 
C 992 2278 966 2272 966 2227 
C 966 2182 973 2176 1101 2176 
L 1414 2176 
z
" transform="scale(0.015625)"/>
       <path id="CMMI12-1b" d="M 3251 2406 
C 3334 2406 3546 2406 3546 2611 
C 3546 2752 3424 2752 3309 2752 
L 1894 2752 
C 934 2752 243 1685 243 932 
C 243 389 595 -64 1171 -64 
C 1926 -64 2752 746 2752 1704 
C 2752 1953 2694 2195 2541 2406 
L 3251 2406 
z
M 1178 64 
C 851 64 614 312 614 753 
C 614 1136 845 2406 1786 2406 
C 2061 2406 2368 2272 2368 1780 
C 2368 1557 2266 1021 2042 651 
C 1811 274 1466 64 1178 64 
z
" transform="scale(0.015625)"/>
      </defs>
      <use xlink:href="#CMR17-33" transform="scale(0.996264)"/>
      <use xlink:href="#CMMI12-1b" transform="translate(75.766443 0)scale(0.996264)"/>
     </g>
    </g>
    <g id="patch_12">
     <path d="M 346.018228 267.299805 
L 370.018228 267.299805 
L 370.018228 258.899805 
L 346.018228 258.899805 
z
" style="fill: #9f2a63; fill-opacity: 0.5; stroke: #9f2a63; stroke-opacity: 0.5; stroke-linejoin: miter"/>
    </g>
    <g id="text_19">
     <!-- 2 $\sigma$ -->
     <g transform="translate(379.618228 267.299805)scale(0.12 -0.12)">
      <use xlink:href="#CMR17-32" transform="scale(0.996264)"/>
      <use xlink:href="#CMMI12-1b" transform="translate(75.766443 0)scale(0.996264)"/>
     </g>
    </g>
    <g id="patch_13">
     <path d="M 346.018228 284.024401 
L 370.018228 284.024401 
L 370.018228 275.624401 
L 346.018228 275.624401 
z
" style="fill: #280b53; fill-opacity: 0.6; stroke: #280b53; stroke-opacity: 0.6; stroke-linejoin: miter"/>
    </g>
    <g id="text_20">
     <!-- 1 $\sigma$ -->
     <g transform="translate(379.618228 284.024401)scale(0.12 -0.12)">
      <use xlink:href="#CMR17-31" transform="scale(0.996264)"/>
      <use xlink:href="#CMMI12-1b" transform="translate(75.766443 0)scale(0.996264)"/>
     </g>
    </g>
   </g>
  </g>
 </g>
 <defs>
  <clipPath id="p9dba495245">
   <rect x="49.706667" y="31.036997" width="357.12" height="266.112"/>
  </clipPath>
 </defs>
</svg>
