<?xml version="1.0" encoding="utf-8" standalone="no"?>
<!DOCTYPE svg PUBLIC "-//W3C//DTD SVG 1.1//EN"
  "http://www.w3.org/Graphics/SVG/1.1/DTD/svg11.dtd">
<svg xmlns:xlink="http://www.w3.org/1999/xlink" width="505.008537pt" height="426.931498pt" viewBox="0 0 505.008537 426.931498" xmlns="http://www.w3.org/2000/svg" version="1.1">
 <metadata>
  <rdf:RDF xmlns:dc="http://purl.org/dc/elements/1.1/" xmlns:cc="http://creativecommons.org/ns#" xmlns:rdf="http://www.w3.org/1999/02/22-rdf-syntax-ns#">
   <cc:Work>
    <dc:type rdf:resource="http://purl.org/dc/dcmitype/StillImage"/>
    <dc:date>2023-07-26T15:03:44.123039</dc:date>
    <dc:format>image/svg+xml</dc:format>
    <dc:creator>
     <cc:Agent>
      <dc:title>Matplotlib v3.5.2, https://matplotlib.org/</dc:title>
     </cc:Agent>
    </dc:creator>
   </cc:Work>
  </rdf:RDF>
 </metadata>
 <defs>
  <style type="text/css">*{stroke-linejoin: round; stroke-linecap: butt}</style>
 </defs>
 <g id="figure_1">
  <g id="patch_1">
   <path d="M 0 426.931498 
L 505.008537 426.931498 
L 505.008537 0 
L 0 0 
z
" style="fill: #ffffff"/>
  </g>
  <g id="axes_1">
   <g id="patch_2">
    <path d="M 45.555547 384.157026 
L 491.955547 384.157026 
L 491.955547 51.517026 
L 45.555547 51.517026 
z
" style="fill: #ffffff"/>
   </g>
   <g id="PolyCollection_1">
    <defs>
     <path id="m638cb16af8" d="M 175.30211 -42.775478 
L 175.30211 -42.774472 
L 176.360993 -42.774472 
L 177.419876 -42.774472 
L 178.478758 -42.774472 
L 179.537641 -42.774472 
L 180.596524 -42.774472 
L 181.655406 -42.774472 
L 182.714289 -42.774472 
L 183.773172 -42.774472 
L 184.832055 -42.774472 
L 185.890937 -42.774472 
L 186.94982 -42.774472 
L 188.008703 -42.774472 
L 189.067585 -42.774472 
L 190.126468 -42.774472 
L 191.185351 -42.774472 
L 192.244234 -42.774472 
L 193.303116 -42.774472 
L 194.361999 -42.774472 
L 195.420882 -42.774472 
L 196.479764 -42.774472 
L 197.538647 -42.774472 
L 198.59753 -42.774472 
L 199.656413 -42.774472 
L 200.715295 -42.774472 
L 201.774178 -42.774472 
L 202.833061 -42.774472 
L 203.891944 -42.774472 
L 204.950826 -42.774472 
L 206.009709 -42.774472 
L 207.068592 -42.774472 
L 208.127474 -42.774472 
L 209.186357 -42.774472 
L 210.24524 -42.774472 
L 211.304123 -42.774472 
L 212.363005 -42.774472 
L 213.421888 -42.774472 
L 214.480771 -42.774472 
L 215.539653 -42.774472 
L 216.598536 -42.774472 
L 217.657419 -42.774472 
L 218.716302 -42.774472 
L 219.775184 -42.774472 
L 220.834067 -42.774472 
L 221.89295 -42.774472 
L 222.951832 -42.774472 
L 224.010715 -42.774472 
L 225.069598 -42.774472 
L 226.128481 -42.774472 
L 227.187363 -42.774472 
L 228.246246 -42.774472 
L 229.305129 -42.774472 
L 230.364012 -42.774472 
L 231.422894 -42.774472 
L 232.481777 -42.774472 
L 233.54066 -42.774472 
L 234.599542 -42.774472 
L 235.658425 -42.774472 
L 236.717308 -42.774472 
L 237.776191 -42.774472 
L 238.835073 -42.774472 
L 239.893956 -42.774472 
L 240.952839 -42.774472 
L 242.011721 -42.774472 
L 243.070604 -42.774472 
L 244.129487 -42.774472 
L 245.18837 -42.774472 
L 246.247252 -42.774472 
L 247.306135 -42.774472 
L 248.365018 -42.774472 
L 249.423901 -42.774472 
L 250.482783 -42.774472 
L 251.541666 -42.774472 
L 252.600549 -42.774472 
L 253.659431 -42.774472 
L 254.718314 -42.774472 
L 255.777197 -42.774472 
L 256.83608 -42.774472 
L 257.894962 -42.774472 
L 258.953845 -42.774472 
L 260.012728 -42.774472 
L 261.07161 -42.774472 
L 262.130493 -42.774472 
L 263.189376 -42.774472 
L 264.248259 -42.774472 
L 265.307141 -42.774472 
L 266.366024 -42.774472 
L 267.424907 -42.774472 
L 268.483789 -42.774472 
L 269.542672 -42.774472 
L 270.601555 -42.774472 
L 271.660438 -42.774472 
L 272.71932 -42.774472 
L 273.778203 -42.774472 
L 274.837086 -42.774472 
L 275.895969 -42.774472 
L 276.954851 -42.774472 
L 278.013734 -42.774472 
L 279.072617 -42.774472 
L 280.131499 -42.774472 
L 281.190382 -42.774472 
L 282.249265 -42.774472 
L 283.308148 -42.774472 
L 284.36703 -42.774472 
L 285.425913 -42.774472 
L 286.484796 -42.774472 
L 287.543678 -42.774472 
L 288.602561 -42.774472 
L 289.661444 -42.774472 
L 290.720327 -42.774472 
L 291.779209 -42.774472 
L 292.838092 -42.774472 
L 293.896975 -42.774472 
L 294.955858 -42.774472 
L 296.01474 -42.774472 
L 297.073623 -42.774472 
L 298.132506 -42.774472 
L 299.191388 -42.774472 
L 300.250271 -42.774472 
L 301.309154 -42.774472 
L 302.368037 -42.774472 
L 303.426919 -42.774472 
L 304.485802 -42.774472 
L 305.544685 -42.774472 
L 306.603567 -42.774472 
L 307.66245 -42.774472 
L 308.721333 -42.774472 
L 309.780216 -42.774472 
L 310.839098 -42.774472 
L 311.897981 -42.774472 
L 312.956864 -42.774472 
L 314.015746 -42.774472 
L 315.074629 -42.774472 
L 316.133512 -42.774472 
L 317.192395 -42.774472 
L 318.251277 -42.774472 
L 319.31016 -42.774472 
L 320.369043 -42.774472 
L 321.427926 -42.774472 
L 322.486808 -42.774472 
L 323.545691 -42.774472 
L 324.604574 -42.774472 
L 325.663456 -42.774472 
L 326.722339 -42.774472 
L 327.781222 -42.774472 
L 328.840105 -42.774472 
L 329.898987 -42.774472 
L 330.95787 -42.774472 
L 332.016753 -42.774472 
L 333.075635 -42.774472 
L 334.134518 -42.774472 
L 335.193401 -42.774472 
L 336.252284 -42.774472 
L 337.311166 -42.774472 
L 338.370049 -42.774472 
L 339.428932 -42.774472 
L 340.487814 -42.774472 
L 341.546697 -42.774472 
L 342.60558 -42.774472 
L 343.664463 -42.774472 
L 344.723345 -42.774472 
L 345.782228 -42.774472 
L 346.841111 -42.774472 
L 347.899994 -42.774472 
L 348.958876 -42.774472 
L 350.017759 -42.774472 
L 351.076642 -42.774472 
L 352.135524 -42.774472 
L 353.194407 -42.774472 
L 354.25329 -42.774472 
L 355.312173 -42.774472 
L 356.371055 -42.774472 
L 357.429938 -42.774472 
L 358.488821 -42.774472 
L 359.547703 -42.774472 
L 360.606586 -42.774472 
L 361.665469 -42.774472 
L 362.724352 -42.774472 
L 363.783234 -42.774472 
L 364.842117 -42.774472 
L 365.901 -42.774472 
L 366.959883 -42.774472 
L 368.018765 -42.774472 
L 369.077648 -42.774472 
L 370.136531 -42.774472 
L 371.195413 -42.774472 
L 372.254296 -42.774472 
L 373.313179 -42.774472 
L 374.372062 -42.774472 
L 375.430944 -42.774472 
L 376.489827 -42.774472 
L 377.54871 -42.774472 
L 378.607592 -42.774472 
L 379.666475 -42.774472 
L 380.725358 -42.774472 
L 381.784241 -42.774472 
L 382.843123 -42.774472 
L 383.902006 -42.774472 
L 384.960889 -42.774472 
L 386.019771 -42.774472 
L 386.019771 -42.775274 
L 386.019771 -42.775274 
L 384.960889 -42.777005 
L 383.902006 -42.781308 
L 382.843123 -42.790254 
L 381.784241 -42.805668 
L 380.725358 -42.827339 
L 379.666475 -42.851471 
L 378.607592 -42.87139 
L 377.54871 -42.881336 
L 376.489827 -42.88125 
L 375.430944 -42.878786 
L 374.372062 -42.88679 
L 373.313179 -42.918156 
L 372.254296 -42.981385 
L 371.195413 -43.078412 
L 370.136531 -43.204512 
L 369.077648 -43.350096 
L 368.018765 -43.504557 
L 366.959883 -43.661027 
L 365.901 -43.819112 
L 364.842117 -43.983575 
L 363.783234 -44.160729 
L 362.724352 -44.357152 
L 361.665469 -44.582929 
L 360.606586 -44.855006 
L 359.547703 -45.193201 
L 358.488821 -45.607715 
L 357.429938 -46.088029 
L 356.371055 -46.605806 
L 355.312173 -47.132846 
L 354.25329 -47.66032 
L 353.194407 -48.203816 
L 352.135524 -48.791841 
L 351.076642 -49.448749 
L 350.017759 -50.184206 
L 348.958876 -50.993287 
L 347.899994 -51.863664 
L 346.841111 -52.783373 
L 345.782228 -53.744264 
L 344.723345 -54.741551 
L 343.664463 -55.773901 
L 342.60558 -56.844923 
L 341.546697 -57.960146 
L 340.487814 -59.11593 
L 339.428932 -60.288716 
L 338.370049 -61.439005 
L 337.311166 -62.534212 
L 336.252284 -63.577765 
L 335.193401 -64.624929 
L 334.134518 -65.771405 
L 333.075635 -67.111437 
L 332.016753 -68.67931 
L 330.95787 -70.409816 
L 329.898987 -72.155425 
L 328.840105 -73.761418 
L 327.781222 -75.152594 
L 326.722339 -76.373779 
L 325.663456 -77.559859 
L 324.604574 -78.856774 
L 323.545691 -80.340409 
L 322.486808 -81.977202 
L 321.427926 -83.647989 
L 320.369043 -85.226667 
L 319.31016 -86.673328 
L 318.251277 -88.079552 
L 317.192395 -89.619052 
L 316.133512 -91.423809 
L 315.074629 -93.479712 
L 314.015746 -95.633935 
L 312.956864 -97.707528 
L 311.897981 -99.606499 
L 310.839098 -101.33672 
L 309.780216 -102.936812 
L 308.721333 -104.418138 
L 307.66245 -105.764166 
L 306.603567 -106.958784 
L 305.544685 -107.995321 
L 304.485802 -108.873684 
L 303.426919 -109.625691 
L 302.368037 -110.361172 
L 301.309154 -111.270709 
L 300.250271 -112.54951 
L 299.191388 -114.291339 
L 298.132506 -116.433102 
L 297.073623 -118.780486 
L 296.01474 -121.085871 
L 294.955858 -123.13731 
L 293.896975 -124.832555 
L 292.838092 -126.216343 
L 291.779209 -127.453567 
L 290.720327 -128.73246 
L 289.661444 -130.151942 
L 288.602561 -131.682056 
L 287.543678 -133.224824 
L 286.484796 -134.697251 
L 285.425913 -136.048819 
L 284.36703 -137.23062 
L 283.308148 -138.198921 
L 282.249265 -138.96797 
L 281.190382 -139.637588 
L 280.131499 -140.347434 
L 279.072617 -141.20474 
L 278.013734 -142.256521 
L 276.954851 -143.511302 
L 275.895969 -144.959969 
L 274.837086 -146.562869 
L 273.778203 -148.223049 
L 272.71932 -149.791105 
L 271.660438 -151.123146 
L 270.601555 -152.162546 
L 269.542672 -152.985726 
L 268.483789 -153.774594 
L 267.424907 -154.730613 
L 266.366024 -155.976217 
L 265.307141 -157.486693 
L 264.248259 -159.089005 
L 263.189376 -160.554234 
L 262.130493 -161.758511 
L 261.07161 -162.804478 
L 260.012728 -163.983341 
L 258.953845 -165.57939 
L 257.894962 -167.668959 
L 256.83608 -170.072949 
L 255.777197 -172.474398 
L 254.718314 -174.581815 
L 253.659431 -176.236342 
L 252.600549 -177.453312 
L 251.541666 -178.409357 
L 250.482783 -179.345015 
L 249.423901 -180.385766 
L 248.365018 -181.403486 
L 247.306135 -182.072029 
L 246.247252 -182.112271 
L 245.18837 -181.528011 
L 244.129487 -180.631324 
L 243.070604 -179.843287 
L 242.011721 -179.424647 
L 240.952839 -179.307046 
L 239.893956 -179.113348 
L 238.835073 -178.359711 
L 237.776191 -176.733042 
L 236.717308 -174.266562 
L 235.658425 -171.285318 
L 234.599542 -168.170301 
L 233.54066 -165.134812 
L 232.481777 -162.165927 
L 231.422894 -159.116956 
L 230.364012 -155.836353 
L 229.305129 -152.25342 
L 228.246246 -148.406356 
L 227.187363 -144.412226 
L 226.128481 -140.38425 
L 225.069598 -136.343492 
L 224.010715 -132.19821 
L 222.951832 -127.817365 
L 221.89295 -123.143111 
L 220.834067 -118.253832 
L 219.775184 -113.329653 
L 218.716302 -108.545036 
L 217.657419 -103.966843 
L 216.598536 -99.53551 
L 215.539653 -95.144005 
L 214.480771 -90.747326 
L 213.421888 -86.409784 
L 212.363005 -82.256435 
L 211.304123 -78.379952 
L 210.24524 -74.782841 
L 209.186357 -71.39192 
L 208.127474 -68.121888 
L 207.068592 -64.938081 
L 206.009709 -61.879311 
L 204.950826 -59.031366 
L 203.891944 -56.474089 
L 202.833061 -54.241047 
L 201.774178 -52.316689 
L 200.715295 -50.663437 
L 199.656413 -49.250474 
L 198.59753 -48.0625 
L 197.538647 -47.088552 
L 196.479764 -46.306609 
L 195.420882 -45.678505 
L 194.361999 -45.15772 
L 193.303116 -44.702931 
L 192.244234 -44.289194 
L 191.185351 -43.912073 
L 190.126468 -43.583329 
L 189.067585 -43.320153 
L 188.008703 -43.133235 
L 186.94982 -43.01956 
L 185.890937 -42.962494 
L 184.832055 -42.937826 
L 183.773172 -42.922465 
L 182.714289 -42.901951 
L 181.655406 -42.873216 
L 180.596524 -42.841448 
L 179.537641 -42.813774 
L 178.478758 -42.794308 
L 177.419876 -42.783056 
L 176.360993 -42.777651 
L 175.30211 -42.775478 
z
" style="stroke: #280b53"/>
    </defs>
    <g clip-path="url(#pd4dc93563b)">
     <use xlink:href="#m638cb16af8" x="0" y="426.931498" style="fill: #280b53; fill-opacity: 0.25; stroke: #280b53"/>
    </g>
   </g>
   <g id="PolyCollection_2">
    <defs>
     <path id="m5a73042e5e" d="M 38.09839 -42.774859 
L 38.09839 -42.774472 
L 40.02577 -42.774472 
L 41.953151 -42.774472 
L 43.880531 -42.774472 
L 45.807912 -42.774472 
L 47.735293 -42.774472 
L 49.662673 -42.774472 
L 51.590054 -42.774472 
L 53.517434 -42.774472 
L 55.444815 -42.774472 
L 57.372196 -42.774472 
L 59.299576 -42.774472 
L 61.226957 -42.774472 
L 63.154337 -42.774472 
L 65.081718 -42.774472 
L 67.009098 -42.774472 
L 68.936479 -42.774472 
L 70.86386 -42.774472 
L 72.79124 -42.774472 
L 74.718621 -42.774472 
L 76.646001 -42.774472 
L 78.573382 -42.774472 
L 80.500762 -42.774472 
L 82.428143 -42.774472 
L 84.355524 -42.774472 
L 86.282904 -42.774472 
L 88.210285 -42.774472 
L 90.137665 -42.774472 
L 92.065046 -42.774472 
L 93.992426 -42.774472 
L 95.919807 -42.774472 
L 97.847188 -42.774472 
L 99.774568 -42.774472 
L 101.701949 -42.774472 
L 103.629329 -42.774472 
L 105.55671 -42.774472 
L 107.48409 -42.774472 
L 109.411471 -42.774472 
L 111.338852 -42.774472 
L 113.266232 -42.774472 
L 115.193613 -42.774472 
L 117.120993 -42.774472 
L 119.048374 -42.774472 
L 120.975754 -42.774472 
L 122.903135 -42.774472 
L 124.830516 -42.774472 
L 126.757896 -42.774472 
L 128.685277 -42.774472 
L 130.612657 -42.774472 
L 132.540038 -42.774472 
L 134.467418 -42.774472 
L 136.394799 -42.774472 
L 138.32218 -42.774472 
L 140.24956 -42.774472 
L 142.176941 -42.774472 
L 144.104321 -42.774472 
L 146.031702 -42.774472 
L 147.959082 -42.774472 
L 149.886463 -42.774472 
L 151.813844 -42.774472 
L 153.741224 -42.774472 
L 155.668605 -42.774472 
L 157.595985 -42.774472 
L 159.523366 -42.774472 
L 161.450746 -42.774472 
L 163.378127 -42.774472 
L 165.305508 -42.774472 
L 167.232888 -42.774472 
L 169.160269 -42.774472 
L 171.087649 -42.774472 
L 173.01503 -42.774472 
L 174.94241 -42.774472 
L 176.869791 -42.774472 
L 178.797172 -42.774472 
L 180.724552 -42.774472 
L 182.651933 -42.774472 
L 184.579313 -42.774472 
L 186.506694 -42.774472 
L 188.434074 -42.774472 
L 190.361455 -42.774472 
L 192.288836 -42.774472 
L 194.216216 -42.774472 
L 196.143597 -42.774472 
L 198.070977 -42.774472 
L 199.998358 -42.774472 
L 201.925738 -42.774472 
L 203.853119 -42.774472 
L 205.7805 -42.774472 
L 207.70788 -42.774472 
L 209.635261 -42.774472 
L 211.562641 -42.774472 
L 213.490022 -42.774472 
L 215.417402 -42.774472 
L 217.344783 -42.774472 
L 219.272164 -42.774472 
L 221.199544 -42.774472 
L 223.126925 -42.774472 
L 225.054305 -42.774472 
L 226.981686 -42.774472 
L 228.909066 -42.774472 
L 230.836447 -42.774472 
L 232.763828 -42.774472 
L 234.691208 -42.774472 
L 236.618589 -42.774472 
L 238.545969 -42.774472 
L 240.47335 -42.774472 
L 242.400731 -42.774472 
L 244.328111 -42.774472 
L 246.255492 -42.774472 
L 248.182872 -42.774472 
L 250.110253 -42.774472 
L 252.037633 -42.774472 
L 253.965014 -42.774472 
L 255.892395 -42.774472 
L 257.819775 -42.774472 
L 259.747156 -42.774472 
L 261.674536 -42.774472 
L 263.601917 -42.774472 
L 265.529297 -42.774472 
L 267.456678 -42.774472 
L 269.384059 -42.774472 
L 271.311439 -42.774472 
L 273.23882 -42.774472 
L 275.1662 -42.774472 
L 277.093581 -42.774472 
L 279.020961 -42.774472 
L 280.948342 -42.774472 
L 282.875723 -42.774472 
L 284.803103 -42.774472 
L 286.730484 -42.774472 
L 288.657864 -42.774472 
L 290.585245 -42.774472 
L 292.512625 -42.774472 
L 294.440006 -42.774472 
L 296.367387 -42.774472 
L 298.294767 -42.774472 
L 300.222148 -42.774472 
L 302.149528 -42.774472 
L 304.076909 -42.774472 
L 306.004289 -42.774472 
L 307.93167 -42.774472 
L 309.859051 -42.774472 
L 311.786431 -42.774472 
L 313.713812 -42.774472 
L 315.641192 -42.774472 
L 317.568573 -42.774472 
L 319.495953 -42.774472 
L 321.423334 -42.774472 
L 323.350715 -42.774472 
L 325.278095 -42.774472 
L 327.205476 -42.774472 
L 329.132856 -42.774472 
L 331.060237 -42.774472 
L 332.987617 -42.774472 
L 334.914998 -42.774472 
L 336.842379 -42.774472 
L 338.769759 -42.774472 
L 340.69714 -42.774472 
L 342.62452 -42.774472 
L 344.551901 -42.774472 
L 346.479281 -42.774472 
L 348.406662 -42.774472 
L 350.334043 -42.774472 
L 352.261423 -42.774472 
L 354.188804 -42.774472 
L 356.116184 -42.774472 
L 358.043565 -42.774472 
L 359.970945 -42.774472 
L 361.898326 -42.774472 
L 363.825707 -42.774472 
L 365.753087 -42.774472 
L 367.680468 -42.774472 
L 369.607848 -42.774472 
L 371.535229 -42.774472 
L 373.462609 -42.774472 
L 375.38999 -42.774472 
L 377.317371 -42.774472 
L 379.244751 -42.774472 
L 381.172132 -42.774472 
L 383.099512 -42.774472 
L 385.026893 -42.774472 
L 386.954273 -42.774472 
L 388.881654 -42.774472 
L 390.809035 -42.774472 
L 392.736415 -42.774472 
L 394.663796 -42.774472 
L 396.591176 -42.774472 
L 398.518557 -42.774472 
L 400.445937 -42.774472 
L 402.373318 -42.774472 
L 404.300699 -42.774472 
L 406.228079 -42.774472 
L 408.15546 -42.774472 
L 410.08284 -42.774472 
L 412.010221 -42.774472 
L 413.937601 -42.774472 
L 415.864982 -42.774472 
L 417.792363 -42.774472 
L 419.719743 -42.774472 
L 421.647124 -42.774472 
L 421.647124 -42.774786 
L 421.647124 -42.774786 
L 419.719743 -42.776058 
L 417.792363 -42.780056 
L 415.864982 -42.788206 
L 413.937601 -42.798074 
L 412.010221 -42.80281 
L 410.08284 -42.798276 
L 408.15546 -42.788679 
L 406.228079 -42.781631 
L 404.300699 -42.781491 
L 402.373318 -42.789207 
L 400.445937 -42.803761 
L 398.518557 -42.823904 
L 396.591176 -42.853153 
L 394.663796 -42.900535 
L 392.736415 -42.970284 
L 390.809035 -43.049891 
L 388.881654 -43.117945 
L 386.954273 -43.176823 
L 385.026893 -43.260034 
L 383.099512 -43.387848 
L 381.172132 -43.548398 
L 379.244751 -43.734701 
L 377.317371 -43.95161 
L 375.38999 -44.181797 
L 373.462609 -44.400988 
L 371.535229 -44.638001 
L 369.607848 -44.983417 
L 367.680468 -45.517568 
L 365.753087 -46.228463 
L 363.825707 -47.021145 
L 361.898326 -47.808408 
L 359.970945 -48.557054 
L 358.043565 -49.279123 
L 356.116184 -50.036556 
L 354.188804 -50.927709 
L 352.261423 -52.02549 
L 350.334043 -53.314788 
L 348.406662 -54.717208 
L 346.479281 -56.198117 
L 344.551901 -57.822931 
L 342.62452 -59.730771 
L 340.69714 -62.024919 
L 338.769759 -64.606331 
L 336.842379 -67.189444 
L 334.914998 -69.565194 
L 332.987617 -71.799829 
L 331.060237 -74.123294 
L 329.132856 -76.688282 
L 327.205476 -79.54765 
L 325.278095 -82.724292 
L 323.350715 -86.100748 
L 321.423334 -89.487075 
L 319.495953 -92.999367 
L 317.568573 -96.986277 
L 315.641192 -101.410562 
L 313.713812 -105.778387 
L 311.786431 -109.842464 
L 309.859051 -113.84005 
L 307.93167 -117.939035 
L 306.004289 -122.000246 
L 304.076909 -125.851405 
L 302.149528 -129.430827 
L 300.222148 -132.808003 
L 298.294767 -136.116733 
L 296.367387 -139.315462 
L 294.440006 -142.230103 
L 292.512625 -144.963756 
L 290.585245 -147.919074 
L 288.657864 -151.262666 
L 286.730484 -154.62928 
L 284.803103 -157.480301 
L 282.875723 -159.599955 
L 280.948342 -161.176756 
L 279.020961 -162.528833 
L 277.093581 -163.688535 
L 275.1662 -164.160196 
L 273.23882 -163.376846 
L 271.311439 -161.555101 
L 269.384059 -159.74425 
L 267.456678 -158.749755 
L 265.529297 -158.336712 
L 263.601917 -157.708809 
L 261.674536 -156.337648 
L 259.747156 -154.260792 
L 257.819775 -151.931792 
L 255.892395 -149.729671 
L 253.965014 -147.586039 
L 252.037633 -145.263664 
L 250.110253 -142.769781 
L 248.182872 -140.163449 
L 246.255492 -137.207804 
L 244.328111 -133.666896 
L 242.400731 -129.781157 
L 240.47335 -126.022251 
L 238.545969 -122.513199 
L 236.618589 -119.025506 
L 234.691208 -115.430444 
L 232.763828 -111.860497 
L 230.836447 -108.441917 
L 228.909066 -105.087342 
L 226.981686 -101.650073 
L 225.054305 -98.183432 
L 223.126925 -94.868721 
L 221.199544 -91.749697 
L 219.272164 -88.768883 
L 217.344783 -85.993674 
L 215.417402 -83.623389 
L 213.490022 -81.747866 
L 211.562641 -80.144105 
L 209.635261 -78.443983 
L 207.70788 -76.465802 
L 205.7805 -74.245548 
L 203.853119 -71.904928 
L 201.925738 -69.611089 
L 199.998358 -67.508216 
L 198.070977 -65.623637 
L 196.143597 -63.895928 
L 194.216216 -62.254144 
L 192.288836 -60.653962 
L 190.361455 -59.082624 
L 188.434074 -57.539062 
L 186.506694 -56.053811 
L 184.579313 -54.749368 
L 182.651933 -53.786335 
L 180.724552 -53.175328 
L 178.797172 -52.699705 
L 176.869791 -52.132988 
L 174.94241 -51.500526 
L 173.01503 -50.983714 
L 171.087649 -50.631579 
L 169.160269 -50.340909 
L 167.232888 -50.016654 
L 165.305508 -49.595849 
L 163.378127 -49.030075 
L 161.450746 -48.368846 
L 159.523366 -47.790683 
L 157.595985 -47.450546 
L 155.668605 -47.296974 
L 153.741224 -47.11008 
L 151.813844 -46.735496 
L 149.886463 -46.23129 
L 147.959082 -45.775824 
L 146.031702 -45.48372 
L 144.104321 -45.334457 
L 142.176941 -45.221439 
L 140.24956 -45.042174 
L 138.32218 -44.778527 
L 136.394799 -44.483649 
L 134.467418 -44.202654 
L 132.540038 -43.962505 
L 130.612657 -43.800296 
L 128.685277 -43.736111 
L 126.757896 -43.739875 
L 124.830516 -43.757128 
L 122.903135 -43.758982 
L 120.975754 -43.742664 
L 119.048374 -43.693482 
L 117.120993 -43.593069 
L 115.193613 -43.461952 
L 113.266232 -43.345303 
L 111.338852 -43.264449 
L 109.411471 -43.216287 
L 107.48409 -43.20087 
L 105.55671 -43.222094 
L 103.629329 -43.266621 
L 101.701949 -43.303497 
L 99.774568 -43.3198 
L 97.847188 -43.332326 
L 95.919807 -43.343081 
L 93.992426 -43.323398 
L 92.065046 -43.258945 
L 90.137665 -43.166747 
L 88.210285 -43.069544 
L 86.282904 -42.989004 
L 84.355524 -42.94687 
L 82.428143 -42.946544 
L 80.500762 -42.96495 
L 78.573382 -42.972472 
L 76.646001 -42.956929 
L 74.718621 -42.929919 
L 72.79124 -42.91155 
L 70.86386 -42.906795 
L 68.936479 -42.902849 
L 67.009098 -42.889558 
L 65.081718 -42.868523 
L 63.154337 -42.844129 
L 61.226957 -42.819222 
L 59.299576 -42.798032 
L 57.372196 -42.785255 
L 55.444815 -42.783201 
L 53.517434 -42.792347 
L 51.590054 -42.810061 
L 49.662673 -42.826309 
L 47.735293 -42.828307 
L 45.807912 -42.814263 
L 43.880531 -42.795388 
L 41.953151 -42.782281 
L 40.02577 -42.77654 
L 38.09839 -42.774859 
z
" style="stroke: #9f2a63"/>
    </defs>
    <g clip-path="url(#pd4dc93563b)">
     <use xlink:href="#m5a73042e5e" x="0" y="426.931498" style="fill: #9f2a63; fill-opacity: 0.25; stroke: #9f2a63"/>
    </g>
   </g>
   <g id="PolyCollection_3">
    <defs>
     <path id="ma82f8b67d3" d="M 236.749811 -42.77557 
L 236.749811 -42.774472 
L 237.12892 -42.774472 
L 237.508028 -42.774472 
L 237.887137 -42.774472 
L 238.266245 -42.774472 
L 238.645354 -42.774472 
L 239.024462 -42.774472 
L 239.403571 -42.774472 
L 239.782679 -42.774472 
L 240.161788 -42.774472 
L 240.540896 -42.774472 
L 240.920005 -42.774472 
L 241.299113 -42.774472 
L 241.678222 -42.774472 
L 242.05733 -42.774472 
L 242.436439 -42.774472 
L 242.815547 -42.774472 
L 243.194656 -42.774472 
L 243.573764 -42.774472 
L 243.952873 -42.774472 
L 244.331981 -42.774472 
L 244.71109 -42.774472 
L 245.090198 -42.774472 
L 245.469307 -42.774472 
L 245.848415 -42.774472 
L 246.227524 -42.774472 
L 246.606632 -42.774472 
L 246.985741 -42.774472 
L 247.364849 -42.774472 
L 247.743957 -42.774472 
L 248.123066 -42.774472 
L 248.502174 -42.774472 
L 248.881283 -42.774472 
L 249.260391 -42.774472 
L 249.6395 -42.774472 
L 250.018608 -42.774472 
L 250.397717 -42.774472 
L 250.776825 -42.774472 
L 251.155934 -42.774472 
L 251.535042 -42.774472 
L 251.914151 -42.774472 
L 252.293259 -42.774472 
L 252.672368 -42.774472 
L 253.051476 -42.774472 
L 253.430585 -42.774472 
L 253.809693 -42.774472 
L 254.188802 -42.774472 
L 254.56791 -42.774472 
L 254.947019 -42.774472 
L 255.326127 -42.774472 
L 255.705236 -42.774472 
L 256.084344 -42.774472 
L 256.463453 -42.774472 
L 256.842561 -42.774472 
L 257.22167 -42.774472 
L 257.600778 -42.774472 
L 257.979887 -42.774472 
L 258.358995 -42.774472 
L 258.738104 -42.774472 
L 259.117212 -42.774472 
L 259.496321 -42.774472 
L 259.875429 -42.774472 
L 260.254538 -42.774472 
L 260.633646 -42.774472 
L 261.012755 -42.774472 
L 261.391863 -42.774472 
L 261.770972 -42.774472 
L 262.15008 -42.774472 
L 262.529189 -42.774472 
L 262.908297 -42.774472 
L 263.287406 -42.774472 
L 263.666514 -42.774472 
L 264.045623 -42.774472 
L 264.424731 -42.774472 
L 264.80384 -42.774472 
L 265.182948 -42.774472 
L 265.562057 -42.774472 
L 265.941165 -42.774472 
L 266.320274 -42.774472 
L 266.699382 -42.774472 
L 267.078491 -42.774472 
L 267.457599 -42.774472 
L 267.836708 -42.774472 
L 268.215816 -42.774472 
L 268.594925 -42.774472 
L 268.974033 -42.774472 
L 269.353142 -42.774472 
L 269.73225 -42.774472 
L 270.111359 -42.774472 
L 270.490467 -42.774472 
L 270.869576 -42.774472 
L 271.248684 -42.774472 
L 271.627793 -42.774472 
L 272.006901 -42.774472 
L 272.38601 -42.774472 
L 272.765118 -42.774472 
L 273.144227 -42.774472 
L 273.523335 -42.774472 
L 273.902444 -42.774472 
L 274.281552 -42.774472 
L 274.660661 -42.774472 
L 275.039769 -42.774472 
L 275.418878 -42.774472 
L 275.797986 -42.774472 
L 276.177095 -42.774472 
L 276.556203 -42.774472 
L 276.935312 -42.774472 
L 277.31442 -42.774472 
L 277.693529 -42.774472 
L 278.072637 -42.774472 
L 278.451746 -42.774472 
L 278.830854 -42.774472 
L 279.209963 -42.774472 
L 279.589071 -42.774472 
L 279.96818 -42.774472 
L 280.347288 -42.774472 
L 280.726397 -42.774472 
L 281.105505 -42.774472 
L 281.484614 -42.774472 
L 281.863722 -42.774472 
L 282.242831 -42.774472 
L 282.621939 -42.774472 
L 283.001048 -42.774472 
L 283.380156 -42.774472 
L 283.759265 -42.774472 
L 284.138373 -42.774472 
L 284.517482 -42.774472 
L 284.89659 -42.774472 
L 285.275699 -42.774472 
L 285.654807 -42.774472 
L 286.033916 -42.774472 
L 286.413024 -42.774472 
L 286.792133 -42.774472 
L 287.171241 -42.774472 
L 287.55035 -42.774472 
L 287.929458 -42.774472 
L 288.308567 -42.774472 
L 288.687675 -42.774472 
L 289.066784 -42.774472 
L 289.445892 -42.774472 
L 289.825001 -42.774472 
L 290.204109 -42.774472 
L 290.583218 -42.774472 
L 290.962326 -42.774472 
L 291.341435 -42.774472 
L 291.720543 -42.774472 
L 292.099652 -42.774472 
L 292.47876 -42.774472 
L 292.857869 -42.774472 
L 293.236977 -42.774472 
L 293.616086 -42.774472 
L 293.995194 -42.774472 
L 294.374303 -42.774472 
L 294.753411 -42.774472 
L 295.13252 -42.774472 
L 295.511628 -42.774472 
L 295.890737 -42.774472 
L 296.269845 -42.774472 
L 296.648954 -42.774472 
L 297.028062 -42.774472 
L 297.407171 -42.774472 
L 297.786279 -42.774472 
L 298.165388 -42.774472 
L 298.544496 -42.774472 
L 298.923605 -42.774472 
L 299.302713 -42.774472 
L 299.681822 -42.774472 
L 300.06093 -42.774472 
L 300.440039 -42.774472 
L 300.819147 -42.774472 
L 301.198256 -42.774472 
L 301.577364 -42.774472 
L 301.956473 -42.774472 
L 302.335581 -42.774472 
L 302.71469 -42.774472 
L 303.093798 -42.774472 
L 303.472907 -42.774472 
L 303.852015 -42.774472 
L 304.231124 -42.774472 
L 304.610232 -42.774472 
L 304.989341 -42.774472 
L 305.368449 -42.774472 
L 305.747558 -42.774472 
L 306.126666 -42.774472 
L 306.505775 -42.774472 
L 306.884883 -42.774472 
L 307.263992 -42.774472 
L 307.6431 -42.774472 
L 308.022209 -42.774472 
L 308.401317 -42.774472 
L 308.780426 -42.774472 
L 309.159534 -42.774472 
L 309.538643 -42.774472 
L 309.917751 -42.774472 
L 310.29686 -42.774472 
L 310.675968 -42.774472 
L 311.055077 -42.774472 
L 311.434185 -42.774472 
L 311.813294 -42.774472 
L 312.192402 -42.774472 
L 312.192402 -42.775733 
L 312.192402 -42.775733 
L 311.813294 -42.778277 
L 311.434185 -42.784451 
L 311.055077 -42.797236 
L 310.675968 -42.819661 
L 310.29686 -42.852563 
L 309.917751 -42.891991 
L 309.538643 -42.928535 
L 309.159534 -42.950487 
L 308.780426 -42.949899 
L 308.401317 -42.927563 
L 308.022209 -42.893196 
L 307.6431 -42.861031 
L 307.263992 -42.844525 
L 306.884883 -42.853542 
L 306.505775 -42.89409 
L 306.126666 -42.968621 
L 305.747558 -43.076012 
L 305.368449 -43.21261 
L 304.989341 -43.37595 
L 304.610232 -43.570096 
L 304.231124 -43.809161 
L 303.852015 -44.116496 
L 303.472907 -44.520731 
L 303.093798 -45.051737 
L 302.71469 -45.737874 
L 302.335581 -46.603393 
L 301.956473 -47.664219 
L 301.577364 -48.921165 
L 301.198256 -50.352303 
L 300.819147 -51.912458 
L 300.440039 -53.551393 
L 300.06093 -55.250705 
L 299.681822 -57.055118 
L 299.302713 -59.063473 
L 298.923605 -61.371825 
L 298.544496 -64.008481 
L 298.165388 -66.919116 
L 297.786279 -70.023438 
L 297.407171 -73.306247 
L 297.028062 -76.880039 
L 296.648954 -80.978152 
L 296.269845 -85.876395 
L 295.890737 -91.772867 
L 295.511628 -98.681557 
L 295.13252 -106.406334 
L 294.753411 -114.628311 
L 294.374303 -123.061831 
L 293.995194 -131.573905 
L 293.616086 -140.184297 
L 293.236977 -148.958653 
L 292.857869 -157.892343 
L 292.47876 -166.884238 
L 292.099652 -175.818652 
L 291.720543 -184.678442 
L 291.341435 -193.579622 
L 290.962326 -202.677217 
L 290.583218 -212.003125 
L 290.204109 -221.370767 
L 289.825001 -230.444495 
L 289.445892 -238.937663 
L 289.066784 -246.784212 
L 288.687675 -254.144106 
L 288.308567 -261.250718 
L 287.929458 -268.247324 
L 287.55035 -275.152144 
L 287.171241 -281.951362 
L 286.792133 -288.691568 
L 286.413024 -295.447545 
L 286.033916 -302.168222 
L 285.654807 -308.536586 
L 285.275699 -313.998369 
L 284.89659 -317.996985 
L 284.517482 -320.291009 
L 284.138373 -321.150461 
L 283.759265 -321.287382 
L 283.380156 -321.538151 
L 283.001048 -322.480266 
L 282.621939 -324.219316 
L 282.242831 -326.464587 
L 281.863722 -328.800789 
L 281.484614 -330.937857 
L 281.105505 -332.788161 
L 280.726397 -334.3929 
L 280.347288 -335.818116 
L 279.96818 -337.103142 
L 279.589071 -338.261271 
L 279.209963 -339.298299 
L 278.830854 -340.223006 
L 278.451746 -341.03092 
L 278.072637 -341.656191 
L 277.693529 -341.928404 
L 277.31442 -341.604366 
L 276.935312 -340.505859 
L 276.556203 -338.694195 
L 276.177095 -336.545841 
L 275.797986 -334.638304 
L 275.418878 -333.48785 
L 275.039769 -333.293085 
L 274.660661 -333.839043 
L 274.281552 -334.609489 
L 273.902444 -335.028328 
L 273.523335 -334.691797 
L 273.144227 -333.486034 
L 272.765118 -331.569084 
L 272.38601 -329.266772 
L 272.006901 -326.948221 
L 271.627793 -324.923177 
L 271.248684 -323.379561 
L 270.869576 -322.371086 
L 270.490467 -321.855047 
L 270.111359 -321.755815 
L 269.73225 -322.007533 
L 269.353142 -322.547156 
L 268.974033 -323.286685 
L 268.594925 -324.119397 
L 268.215816 -324.95375 
L 267.836708 -325.698885 
L 267.457599 -326.176122 
L 267.078491 -326.067093 
L 266.699382 -325.036885 
L 266.320274 -323.004509 
L 265.941165 -320.340705 
L 265.562057 -317.778884 
L 265.182948 -316.045018 
L 264.80384 -315.447106 
L 264.424731 -315.70904 
L 264.045623 -316.155539 
L 263.666514 -316.10517 
L 263.287406 -315.206635 
L 262.908297 -313.538907 
L 262.529189 -311.48759 
L 262.15008 -309.537455 
L 261.770972 -308.105737 
L 261.391863 -307.443669 
L 261.012755 -307.568133 
L 260.633646 -308.20812 
L 260.254538 -308.820021 
L 259.875429 -308.744066 
L 259.496321 -307.487586 
L 259.117212 -304.988839 
L 258.738104 -301.669591 
L 258.358995 -298.202466 
L 257.979887 -295.131157 
L 257.600778 -292.606388 
L 257.22167 -290.402894 
L 256.842561 -288.137193 
L 256.463453 -285.460097 
L 256.084344 -282.096184 
L 255.705236 -277.801995 
L 255.326127 -272.374752 
L 254.947019 -265.735194 
L 254.56791 -258.002004 
L 254.188802 -249.478922 
L 253.809693 -240.544179 
L 253.430585 -231.498359 
L 253.051476 -222.464649 
L 252.672368 -213.411116 
L 252.293259 -204.268414 
L 251.914151 -195.031097 
L 251.535042 -185.756557 
L 251.155934 -176.488468 
L 250.776825 -167.20502 
L 250.397717 -157.854196 
L 250.018608 -148.441584 
L 249.6395 -139.080292 
L 249.260391 -129.946889 
L 248.881283 -121.180236 
L 248.502174 -112.82306 
L 248.123066 -104.866758 
L 247.743957 -97.348766 
L 247.364849 -90.390534 
L 246.985741 -84.12814 
L 246.606632 -78.606706 
L 246.227524 -73.747967 
L 245.848415 -69.419402 
L 245.469307 -65.530809 
L 245.090198 -62.069284 
L 244.71109 -59.055823 
L 244.331981 -56.478838 
L 243.952873 -54.266766 
L 243.573764 -52.316088 
L 243.194656 -50.544608 
L 242.815547 -48.927251 
L 242.436439 -47.492056 
L 242.05733 -46.28489 
L 241.678222 -45.330267 
L 241.299113 -44.613083 
L 240.920005 -44.087675 
L 240.540896 -43.701307 
L 240.161788 -43.412978 
L 239.782679 -43.197899 
L 239.403571 -43.041679 
L 239.024462 -42.933443 
L 238.645354 -42.862783 
L 238.266245 -42.819757 
L 237.887137 -42.795632 
L 237.508028 -42.783367 
L 237.12892 -42.7778 
L 236.749811 -42.77557 
z
" style="stroke: #f57d15"/>
    </defs>
    <g clip-path="url(#pd4dc93563b)">
     <use xlink:href="#ma82f8b67d3" x="0" y="426.931498" style="fill: #f57d15; fill-opacity: 0.25; stroke: #f57d15"/>
    </g>
   </g>
   <g id="matplotlib.axis_1">
    <g id="xtick_1">
     <g id="line2d_1">
      <defs>
       <path id="me8b6c81893" d="M 0 0 
L 0 3.5 
" style="stroke: #000000; stroke-width: 0.8"/>
      </defs>
      <g>
       <use xlink:href="#me8b6c81893" x="45.555547" y="384.157026" style="stroke: #000000; stroke-width: 0.8"/>
      </g>
     </g>
     <g id="text_1">
      <!-- $\mathdefault{0}$ -->
      <g transform="translate(42.629051 399.459206)scale(0.12 -0.12)">
       <defs>
        <path id="CMR17-30" d="M 2688 2038 
C 2688 2430 2682 3099 2413 3613 
C 2176 4063 1798 4224 1466 4224 
C 1158 4224 768 4082 525 3620 
C 269 3137 243 2539 243 2038 
C 243 1671 250 1112 448 623 
C 723 -39 1216 -128 1466 -128 
C 1760 -128 2208 -7 2470 604 
C 2662 1048 2688 1568 2688 2038 
z
M 1466 -26 
C 1056 -26 813 328 723 816 
C 653 1196 653 1749 653 2109 
C 653 2604 653 3015 736 3407 
C 858 3954 1216 4121 1466 4121 
C 1728 4121 2067 3947 2189 3420 
C 2272 3054 2278 2623 2278 2109 
C 2278 1691 2278 1176 2202 797 
C 2067 96 1690 -26 1466 -26 
z
" transform="scale(0.015625)"/>
       </defs>
       <use xlink:href="#CMR17-30" transform="scale(0.996264)"/>
      </g>
     </g>
    </g>
    <g id="xtick_2">
     <g id="line2d_2">
      <g>
       <use xlink:href="#me8b6c81893" x="134.835547" y="384.157026" style="stroke: #000000; stroke-width: 0.8"/>
      </g>
     </g>
     <g id="text_2">
      <!-- $\mathdefault{2}$ -->
      <g transform="translate(131.909051 399.459206)scale(0.12 -0.12)">
       <defs>
        <path id="CMR17-32" d="M 2669 990 
L 2554 990 
C 2490 537 2438 460 2413 422 
C 2381 371 1920 371 1830 371 
L 602 371 
C 832 620 1280 1073 1824 1596 
C 2214 1966 2669 2400 2669 3033 
C 2669 3788 2067 4224 1395 4224 
C 691 4224 262 3603 262 3027 
C 262 2777 448 2745 525 2745 
C 589 2745 781 2783 781 3007 
C 781 3206 614 3264 525 3264 
C 486 3264 448 3257 422 3244 
C 544 3788 915 4057 1306 4057 
C 1862 4057 2227 3616 2227 3033 
C 2227 2477 1901 1998 1536 1583 
L 262 147 
L 262 0 
L 2515 0 
L 2669 990 
z
" transform="scale(0.015625)"/>
       </defs>
       <use xlink:href="#CMR17-32" transform="scale(0.996264)"/>
      </g>
     </g>
    </g>
    <g id="xtick_3">
     <g id="line2d_3">
      <g>
       <use xlink:href="#me8b6c81893" x="224.115547" y="384.157026" style="stroke: #000000; stroke-width: 0.8"/>
      </g>
     </g>
     <g id="text_3">
      <!-- $\mathdefault{4}$ -->
      <g transform="translate(221.189051 399.459206)scale(0.12 -0.12)">
       <defs>
        <path id="CMR17-34" d="M 2150 4147 
C 2150 4281 2144 4288 2029 4288 
L 128 1254 
L 128 1088 
L 1779 1088 
L 1779 460 
C 1779 230 1766 166 1318 166 
L 1197 166 
L 1197 0 
C 1402 12 1747 12 1965 12 
C 2182 12 2528 12 2733 0 
L 2733 166 
L 2611 166 
C 2163 166 2150 230 2150 460 
L 2150 1088 
L 2803 1088 
L 2803 1254 
L 2150 1254 
L 2150 4147 
z
M 1798 3723 
L 1798 1254 
L 256 1254 
L 1798 3723 
z
" transform="scale(0.015625)"/>
       </defs>
       <use xlink:href="#CMR17-34" transform="scale(0.996264)"/>
      </g>
     </g>
    </g>
    <g id="xtick_4">
     <g id="line2d_4">
      <g>
       <use xlink:href="#me8b6c81893" x="313.395547" y="384.157026" style="stroke: #000000; stroke-width: 0.8"/>
      </g>
     </g>
     <g id="text_4">
      <!-- $\mathdefault{6}$ -->
      <g transform="translate(310.469051 399.459206)scale(0.12 -0.12)">
       <defs>
        <path id="CMR17-36" d="M 678 2198 
C 678 3712 1395 4076 1811 4076 
C 1946 4076 2272 4049 2400 3782 
C 2298 3782 2106 3782 2106 3558 
C 2106 3385 2246 3328 2336 3328 
C 2394 3328 2566 3353 2566 3571 
C 2566 3987 2246 4224 1805 4224 
C 1043 4224 243 3411 243 2011 
C 243 257 966 -128 1478 -128 
C 2099 -128 2688 431 2688 1295 
C 2688 2101 2170 2688 1517 2688 
C 1126 2688 838 2430 678 1979 
L 678 2198 
z
M 1478 25 
C 691 25 691 1212 691 1450 
C 691 1914 909 2585 1504 2585 
C 1613 2585 1926 2585 2138 2140 
C 2253 1889 2253 1624 2253 1302 
C 2253 954 2253 696 2118 438 
C 1978 173 1773 25 1478 25 
z
" transform="scale(0.015625)"/>
       </defs>
       <use xlink:href="#CMR17-36" transform="scale(0.996264)"/>
      </g>
     </g>
    </g>
    <g id="xtick_5">
     <g id="line2d_5">
      <g>
       <use xlink:href="#me8b6c81893" x="402.675547" y="384.157026" style="stroke: #000000; stroke-width: 0.8"/>
      </g>
     </g>
     <g id="text_5">
      <!-- $\mathdefault{8}$ -->
      <g transform="translate(399.749051 399.459206)scale(0.12 -0.12)">
       <defs>
        <path id="CMR17-38" d="M 1741 2289 
C 2144 2494 2554 2803 2554 3298 
C 2554 3884 1990 4224 1472 4224 
C 890 4224 378 3800 378 3215 
C 378 3054 416 2777 666 2533 
C 730 2469 998 2276 1171 2154 
C 883 2006 211 1652 211 945 
C 211 282 838 -128 1459 -128 
C 2144 -128 2720 366 2720 1022 
C 2720 1607 2330 1877 2074 2051 
L 1741 2289 
z
M 902 2855 
C 851 2887 595 3086 595 3388 
C 595 3781 998 4076 1459 4076 
C 1965 4076 2336 3716 2336 3298 
C 2336 2700 1670 2359 1638 2359 
C 1632 2359 1626 2359 1574 2398 
L 902 2855 
z
M 2080 1536 
C 2176 1466 2483 1253 2483 861 
C 2483 385 2010 25 1472 25 
C 890 25 448 443 448 951 
C 448 1459 838 1884 1280 2083 
L 2080 1536 
z
" transform="scale(0.015625)"/>
       </defs>
       <use xlink:href="#CMR17-38" transform="scale(0.996264)"/>
      </g>
     </g>
    </g>
    <g id="xtick_6">
     <g id="line2d_6">
      <g>
       <use xlink:href="#me8b6c81893" x="491.955547" y="384.157026" style="stroke: #000000; stroke-width: 0.8"/>
      </g>
     </g>
     <g id="text_6">
      <!-- $\mathdefault{10}$ -->
      <g transform="translate(486.102556 399.459206)scale(0.12 -0.12)">
       <defs>
        <path id="CMR17-31" d="M 1702 4083 
C 1702 4217 1696 4224 1606 4224 
C 1357 3927 979 3833 621 3820 
C 602 3820 570 3820 563 3808 
C 557 3795 557 3782 557 3648 
C 755 3648 1088 3686 1344 3839 
L 1344 467 
C 1344 243 1331 166 781 166 
L 589 166 
L 589 0 
C 896 6 1216 12 1523 12 
C 1830 12 2150 6 2458 0 
L 2458 166 
L 2266 166 
C 1715 166 1702 236 1702 467 
L 1702 4083 
z
" transform="scale(0.015625)"/>
       </defs>
       <use xlink:href="#CMR17-31" transform="scale(0.996264)"/>
       <use xlink:href="#CMR17-30" transform="translate(45.690477 0)scale(0.996264)"/>
      </g>
     </g>
    </g>
    <g id="text_7">
     <!-- Distance [kpc] -->
     <g transform="translate(226.325282 416.244574)scale(0.14 -0.14)">
      <defs>
       <path id="CMR17-44" d="M 333 4352 
L 333 4185 
C 774 4185 845 4185 845 3898 
L 845 453 
C 845 166 774 166 333 166 
L 333 0 
L 2368 0 
C 3398 0 4224 943 4224 2140 
C 4224 3344 3411 4352 2368 4352 
L 333 4352 
z
M 1523 166 
C 1267 166 1254 198 1254 414 
L 1254 3936 
C 1254 4153 1267 4185 1523 4185 
L 2240 4185 
C 2771 4185 3750 3873 3750 2140 
C 3750 1242 3488 879 3366 707 
C 3213 510 2848 166 2240 166 
L 1523 166 
z
" transform="scale(0.015625)"/>
       <path id="CMR17-69" d="M 992 3961 
C 992 4102 877 4224 730 4224 
C 589 4224 467 4108 467 3961 
C 467 3820 582 3699 730 3699 
C 870 3699 992 3814 992 3961 
z
M 243 2745 
L 243 2579 
C 602 2579 653 2540 653 2231 
L 653 443 
C 653 198 627 166 218 166 
L 218 0 
C 371 12 646 12 806 12 
C 960 12 1222 12 1370 0 
L 1370 166 
C 992 166 979 205 979 436 
L 979 2816 
L 243 2745 
z
" transform="scale(0.015625)"/>
       <path id="CMR17-73" d="M 1978 2688 
C 1978 2803 1971 2809 1933 2809 
C 1907 2809 1901 2803 1824 2707 
C 1805 2681 1747 2617 1728 2592 
C 1523 2809 1235 2816 1126 2816 
C 416 2816 160 2444 160 2073 
C 160 1497 813 1363 998 1324 
C 1402 1241 1542 1216 1677 1100 
C 1760 1024 1901 883 1901 652 
C 1901 384 1747 38 1158 38 
C 602 38 403 460 288 1024 
C 269 1113 269 1120 218 1120 
C 166 1120 160 1113 160 985 
L 160 64 
C 160 -52 166 -58 205 -58 
C 237 -58 243 -52 275 0 
C 314 57 410 211 448 275 
C 576 102 800 -64 1158 -64 
C 1792 -64 2131 281 2131 780 
C 2131 1107 1958 1280 1875 1356 
C 1683 1555 1459 1600 1190 1651 
C 838 1728 390 1817 390 2208 
C 390 2374 480 2726 1126 2726 
C 1811 2726 1850 2086 1862 1881 
C 1869 1849 1901 1843 1920 1843 
C 1978 1843 1978 1862 1978 1971 
L 1978 2688 
z
" transform="scale(0.015625)"/>
       <path id="CMR17-74" d="M 966 2585 
L 1862 2585 
L 1862 2752 
L 966 2752 
L 966 3968 
L 851 3968 
C 838 3292 614 2700 70 2687 
L 70 2585 
L 627 2585 
L 627 778 
C 627 655 627 -64 1370 -64 
C 1747 -64 1965 308 1965 784 
L 1965 1151 
L 1850 1151 
L 1850 790 
C 1850 347 1677 51 1408 51 
C 1222 51 966 179 966 765 
L 966 2585 
z
" transform="scale(0.015625)"/>
       <path id="CMR17-61" d="M 2304 1656 
C 2304 2048 2304 2275 2035 2534 
C 1798 2751 1523 2816 1306 2816 
C 800 2816 435 2408 435 1977 
C 435 1740 627 1728 666 1728 
C 749 1728 896 1779 896 1958 
C 896 2118 774 2188 666 2188 
C 640 2188 608 2182 589 2176 
C 723 2594 1069 2713 1293 2713 
C 1613 2713 1965 2421 1965 1875 
L 1965 1632 
C 1587 1619 1133 1568 774 1373 
C 371 1147 256 822 256 576 
C 256 77 832 -64 1171 -64 
C 1523 -64 1850 135 1990 505 
C 2003 219 2182 -39 2464 -39 
C 2598 -39 2938 51 2938 563 
L 2938 926 
L 2822 926 
L 2822 557 
C 2822 161 2650 109 2566 109 
C 2304 109 2304 446 2304 732 
L 2304 1656 
z
M 1965 887 
C 1965 323 1568 38 1216 38 
C 896 38 646 278 646 576 
C 646 771 730 1114 1101 1322 
C 1408 1497 1760 1523 1965 1536 
L 1965 887 
z
" transform="scale(0.015625)"/>
       <path id="CMR17-6e" d="M 2656 1954 
C 2656 2282 2592 2816 1837 2816 
C 1331 2816 1069 2424 973 2166 
L 966 2166 
L 966 2816 
L 211 2745 
L 211 2578 
C 589 2578 646 2540 646 2231 
L 646 443 
C 646 198 621 166 211 166 
L 211 0 
C 365 12 646 12 813 12 
C 979 12 1267 12 1421 0 
L 1421 166 
C 1011 166 986 192 986 443 
L 986 1678 
C 986 2269 1344 2713 1792 2713 
C 2266 2713 2317 2289 2317 1980 
L 2317 443 
C 2317 198 2291 166 1882 166 
L 1882 0 
C 2035 12 2317 12 2483 12 
C 2650 12 2938 12 3091 0 
L 3091 166 
C 2682 166 2656 192 2656 443 
L 2656 1954 
z
" transform="scale(0.015625)"/>
       <path id="CMR17-63" d="M 2234 2240 
C 2112 2240 1933 2240 1933 2015 
C 1933 1836 2080 1785 2163 1785 
C 2208 1785 2394 1804 2394 2028 
C 2394 2476 1958 2816 1466 2816 
C 787 2816 211 2201 211 1379 
C 211 521 813 -64 1466 -64 
C 2259 -64 2458 676 2458 747 
C 2458 773 2451 792 2406 792 
C 2362 792 2355 786 2330 702 
C 2163 180 1798 51 1523 51 
C 1114 51 621 431 621 1385 
C 621 2358 1094 2700 1472 2700 
C 1722 2700 2093 2582 2234 2240 
z
" transform="scale(0.015625)"/>
       <path id="CMR17-65" d="M 2438 1503 
C 2464 1529 2464 1542 2464 1606 
C 2464 2251 2118 2816 1389 2816 
C 710 2816 173 2175 173 1394 
C 173 554 781 -64 1459 -64 
C 2176 -64 2458 619 2458 755 
C 2458 800 2419 800 2406 800 
C 2362 800 2355 787 2330 709 
C 2189 270 1837 51 1504 51 
C 1229 51 954 206 781 490 
C 582 819 582 1200 582 1503 
L 2438 1503 
z
M 589 1600 
C 634 2511 1126 2713 1382 2713 
C 1818 2713 2112 2308 2118 1600 
L 589 1600 
z
" transform="scale(0.015625)"/>
       <path id="CMR17-5b" d="M 1504 -1600 
L 1504 -1376 
L 902 -1376 
L 902 4575 
L 1504 4575 
L 1504 4800 
L 678 4800 
L 678 -1600 
L 1504 -1600 
z
" transform="scale(0.015625)"/>
       <path id="CMR17-6b" d="M 1670 1679 
C 1664 1692 1632 1730 1632 1749 
C 1632 1762 2086 2175 2144 2226 
C 2509 2532 2739 2563 2906 2570 
L 2906 2735 
C 2867 2735 2854 2735 2848 2729 
L 2534 2722 
C 2355 2722 2080 2722 1907 2735 
L 1907 2570 
C 1997 2563 2061 2513 2061 2423 
C 2061 2296 1933 2175 1926 2175 
L 960 1298 
L 960 4416 
L 198 4345 
L 198 4179 
C 576 4179 634 4141 634 3835 
L 634 439 
C 634 198 608 166 198 166 
L 198 0 
C 352 12 634 12 794 12 
C 954 12 1235 12 1389 0 
L 1389 166 
C 979 166 954 191 954 439 
L 954 1139 
L 1395 1540 
L 2042 586 
C 2118 471 2182 382 2182 299 
C 2182 185 2067 166 1990 166 
L 1990 0 
C 2144 12 2419 12 2579 12 
C 2694 12 2931 6 3040 0 
L 3040 166 
C 2739 166 2669 223 2477 503 
L 1670 1679 
z
" transform="scale(0.015625)"/>
       <path id="CMR17-70" d="M 1408 -1114 
C 998 -1114 973 -1088 973 -834 
L 973 380 
C 1158 109 1427 -64 1766 -64 
C 2406 -64 3053 503 3053 1382 
C 3053 2196 2496 2816 1837 2816 
C 1453 2816 1139 2603 960 2345 
L 960 2816 
L 198 2745 
L 198 2577 
C 576 2577 634 2539 634 2228 
L 634 -834 
C 634 -1081 608 -1114 198 -1114 
L 198 -1280 
C 352 -1268 634 -1268 800 -1268 
C 966 -1268 1254 -1268 1408 -1280 
L 1408 -1114 
z
M 973 2015 
C 973 2106 973 2241 1222 2481 
C 1254 2506 1472 2700 1792 2700 
C 2259 2700 2643 2112 2643 1376 
C 2643 639 2234 38 1728 38 
C 1498 38 1248 148 1056 451 
C 973 594 973 632 973 736 
L 973 2015 
z
" transform="scale(0.015625)"/>
       <path id="CMR17-5d" d="M 915 4800 
L 90 4800 
L 90 4575 
L 691 4575 
L 691 -1376 
L 90 -1376 
L 90 -1600 
L 915 -1600 
L 915 4800 
z
" transform="scale(0.015625)"/>
      </defs>
      <use xlink:href="#CMR17-44" transform="scale(0.996264)"/>
      <use xlink:href="#CMR17-69" transform="translate(70.393556 0)scale(0.996264)"/>
      <use xlink:href="#CMR17-73" transform="translate(95.264614 0)scale(0.996264)"/>
      <use xlink:href="#CMR17-74" transform="translate(131.065952 0)scale(0.996264)"/>
      <use xlink:href="#CMR17-61" transform="translate(166.34672 0)scale(0.996264)"/>
      <use xlink:href="#CMR17-6e" transform="translate(212.037197 0)scale(0.996264)"/>
      <use xlink:href="#CMR17-63" transform="translate(262.932567 0)scale(0.996264)"/>
      <use xlink:href="#CMR17-65" transform="translate(303.418227 0)scale(0.996264)"/>
      <use xlink:href="#CMR17-5b" transform="translate(373.979854 0)scale(0.996264)"/>
      <use xlink:href="#CMR17-6b" transform="translate(398.850912 0)scale(0.996264)"/>
      <use xlink:href="#CMR17-70" transform="translate(447.143828 0)scale(0.996264)"/>
      <use xlink:href="#CMR17-63" transform="translate(500.641637 0)scale(0.996264)"/>
      <use xlink:href="#CMR17-5d" transform="translate(541.127297 0)scale(0.996264)"/>
     </g>
    </g>
   </g>
   <g id="matplotlib.axis_2">
    <g id="ytick_1">
     <g id="line2d_7">
      <defs>
       <path id="m0ab8f353b9" d="M 0 0 
L -3.5 0 
" style="stroke: #000000; stroke-width: 0.8"/>
      </defs>
      <g>
       <use xlink:href="#m0ab8f353b9" x="45.555547" y="384.157026" style="stroke: #000000; stroke-width: 0.8"/>
      </g>
     </g>
     <g id="text_8">
      <!-- $\mathdefault{0.0}$ -->
      <g transform="translate(23.597905 388.308116)scale(0.12 -0.12)">
       <defs>
        <path id="CMMI12-3a" d="M 1178 307 
C 1178 492 1024 620 870 620 
C 685 620 557 467 557 313 
C 557 128 710 0 864 0 
C 1050 0 1178 153 1178 307 
z
" transform="scale(0.015625)"/>
       </defs>
       <use xlink:href="#CMR17-30" transform="scale(0.996264)"/>
       <use xlink:href="#CMMI12-3a" transform="translate(45.690477 0)scale(0.996264)"/>
       <use xlink:href="#CMR17-30" transform="translate(72.787654 0)scale(0.996264)"/>
      </g>
     </g>
    </g>
    <g id="ytick_2">
     <g id="line2d_8">
      <g>
       <use xlink:href="#m0ab8f353b9" x="45.555547" y="332.981642" style="stroke: #000000; stroke-width: 0.8"/>
      </g>
     </g>
     <g id="text_9">
      <!-- $\mathdefault{0.2}$ -->
      <g transform="translate(23.597905 337.132732)scale(0.12 -0.12)">
       <use xlink:href="#CMR17-30" transform="scale(0.996264)"/>
       <use xlink:href="#CMMI12-3a" transform="translate(45.690477 0)scale(0.996264)"/>
       <use xlink:href="#CMR17-32" transform="translate(72.787654 0)scale(0.996264)"/>
      </g>
     </g>
    </g>
    <g id="ytick_3">
     <g id="line2d_9">
      <g>
       <use xlink:href="#m0ab8f353b9" x="45.555547" y="281.806257" style="stroke: #000000; stroke-width: 0.8"/>
      </g>
     </g>
     <g id="text_10">
      <!-- $\mathdefault{0.4}$ -->
      <g transform="translate(23.597905 285.957347)scale(0.12 -0.12)">
       <use xlink:href="#CMR17-30" transform="scale(0.996264)"/>
       <use xlink:href="#CMMI12-3a" transform="translate(45.690477 0)scale(0.996264)"/>
       <use xlink:href="#CMR17-34" transform="translate(72.787654 0)scale(0.996264)"/>
      </g>
     </g>
    </g>
    <g id="ytick_4">
     <g id="line2d_10">
      <g>
       <use xlink:href="#m0ab8f353b9" x="45.555547" y="230.630873" style="stroke: #000000; stroke-width: 0.8"/>
      </g>
     </g>
     <g id="text_11">
      <!-- $\mathdefault{0.6}$ -->
      <g transform="translate(23.597905 234.781963)scale(0.12 -0.12)">
       <use xlink:href="#CMR17-30" transform="scale(0.996264)"/>
       <use xlink:href="#CMMI12-3a" transform="translate(45.690477 0)scale(0.996264)"/>
       <use xlink:href="#CMR17-36" transform="translate(72.787654 0)scale(0.996264)"/>
      </g>
     </g>
    </g>
    <g id="ytick_5">
     <g id="line2d_11">
      <g>
       <use xlink:href="#m0ab8f353b9" x="45.555547" y="179.455488" style="stroke: #000000; stroke-width: 0.8"/>
      </g>
     </g>
     <g id="text_12">
      <!-- $\mathdefault{0.8}$ -->
      <g transform="translate(23.597905 183.606578)scale(0.12 -0.12)">
       <use xlink:href="#CMR17-30" transform="scale(0.996264)"/>
       <use xlink:href="#CMMI12-3a" transform="translate(45.690477 0)scale(0.996264)"/>
       <use xlink:href="#CMR17-38" transform="translate(72.787654 0)scale(0.996264)"/>
      </g>
     </g>
    </g>
    <g id="ytick_6">
     <g id="line2d_12">
      <g>
       <use xlink:href="#m0ab8f353b9" x="45.555547" y="128.280103" style="stroke: #000000; stroke-width: 0.8"/>
      </g>
     </g>
     <g id="text_13">
      <!-- $\mathdefault{1.0}$ -->
      <g transform="translate(23.597905 132.431193)scale(0.12 -0.12)">
       <use xlink:href="#CMR17-31" transform="scale(0.996264)"/>
       <use xlink:href="#CMMI12-3a" transform="translate(45.690477 0)scale(0.996264)"/>
       <use xlink:href="#CMR17-30" transform="translate(72.787654 0)scale(0.996264)"/>
      </g>
     </g>
    </g>
    <g id="ytick_7">
     <g id="line2d_13">
      <g>
       <use xlink:href="#m0ab8f353b9" x="45.555547" y="77.104719" style="stroke: #000000; stroke-width: 0.8"/>
      </g>
     </g>
     <g id="text_14">
      <!-- $\mathdefault{1.2}$ -->
      <g transform="translate(23.597905 81.255809)scale(0.12 -0.12)">
       <use xlink:href="#CMR17-31" transform="scale(0.996264)"/>
       <use xlink:href="#CMMI12-3a" transform="translate(45.690477 0)scale(0.996264)"/>
       <use xlink:href="#CMR17-32" transform="translate(72.787654 0)scale(0.996264)"/>
      </g>
     </g>
    </g>
    <g id="text_15">
     <!-- Probability density -->
     <g transform="translate(16.885876 274.87267)rotate(-90)scale(0.14 -0.14)">
      <defs>
       <path id="CMR17-50" d="M 1267 2048 
L 2291 2048 
C 3117 2048 3718 2583 3718 3187 
C 3718 3791 3130 4352 2291 4352 
L 333 4352 
L 333 4185 
C 774 4185 845 4185 845 3899 
L 845 453 
C 845 166 774 166 333 166 
L 333 0 
C 518 12 858 12 1056 12 
C 1254 12 1594 12 1779 0 
L 1779 166 
C 1338 166 1267 166 1267 453 
L 1267 2048 
z
M 1254 2182 
L 1254 3937 
C 1254 4153 1267 4185 1523 4185 
L 2170 4185 
C 2995 4185 3232 3715 3232 3187 
C 3232 2608 2950 2182 2170 2182 
L 1254 2182 
z
" transform="scale(0.015625)"/>
       <path id="CMR17-72" d="M 960 1517 
C 960 2134 1222 2713 1702 2713 
C 1747 2713 1792 2707 1837 2687 
C 1837 2687 1696 2642 1696 2475 
C 1696 2321 1818 2257 1914 2257 
C 1990 2257 2131 2302 2131 2482 
C 2131 2687 1926 2816 1709 2816 
C 1222 2816 1011 2340 947 2115 
L 941 2115 
L 941 2816 
L 198 2745 
L 198 2578 
C 576 2578 634 2540 634 2231 
L 634 443 
C 634 198 608 166 198 166 
L 198 0 
C 352 12 646 12 813 12 
C 998 12 1325 12 1498 0 
L 1498 166 
C 1037 166 960 166 960 455 
L 960 1517 
z
" transform="scale(0.015625)"/>
       <path id="CMR17-6f" d="M 2758 1356 
C 2758 2176 2163 2816 1466 2816 
C 768 2816 173 2176 173 1356 
C 173 550 768 -64 1466 -64 
C 2163 -64 2758 550 2758 1356 
z
M 1466 51 
C 1165 51 909 230 762 480 
C 602 768 582 1126 582 1408 
C 582 1676 595 2009 762 2297 
C 890 2508 1139 2713 1466 2713 
C 1754 2713 1997 2553 2150 2329 
C 2349 2028 2349 1606 2349 1408 
C 2349 1158 2336 774 2163 467 
C 1984 172 1709 51 1466 51 
z
" transform="scale(0.015625)"/>
       <path id="CMR17-62" d="M 960 4416 
L 198 4345 
L 198 4179 
C 576 4179 634 4141 634 3843 
L 634 -13 
L 749 -13 
L 934 445 
C 1120 141 1395 -64 1766 -64 
C 2406 -64 3053 503 3053 1382 
C 3053 2209 2477 2816 1830 2816 
C 1434 2816 1152 2603 960 2351 
L 960 4416 
z
M 973 2022 
C 973 2138 973 2157 1062 2293 
C 1312 2681 1670 2713 1792 2713 
C 1984 2713 2643 2610 2643 1388 
C 2643 109 1888 38 1734 38 
C 1536 38 1248 115 1043 490 
C 973 613 973 626 973 742 
L 973 2022 
z
" transform="scale(0.015625)"/>
       <path id="CMR17-6c" d="M 979 4416 
L 218 4345 
L 218 4179 
C 595 4179 653 4141 653 3835 
L 653 439 
C 653 198 627 166 218 166 
L 218 0 
C 371 12 653 12 813 12 
C 979 12 1261 12 1414 0 
L 1414 166 
C 1005 166 979 191 979 439 
L 979 4416 
z
" transform="scale(0.015625)"/>
       <path id="CMR17-79" d="M 2496 2183 
C 2656 2579 2944 2585 3034 2585 
L 3034 2752 
C 2912 2745 2752 2739 2630 2739 
C 2496 2739 2285 2739 2157 2752 
L 2157 2585 
C 2400 2566 2406 2384 2406 2332 
C 2406 2268 2394 2235 2362 2158 
L 1664 409 
L 902 2300 
C 870 2378 870 2423 870 2430 
C 870 2572 1018 2585 1171 2585 
L 1171 2752 
C 1018 2739 742 2739 582 2739 
C 410 2739 205 2739 64 2752 
L 64 2585 
C 410 2585 448 2553 531 2345 
L 1485 -31 
C 1197 -795 1030 -1242 627 -1242 
C 557 -1242 397 -1223 282 -1106 
C 429 -1093 493 -1002 493 -892 
C 493 -782 416 -685 288 -685 
C 147 -685 77 -782 77 -899 
C 77 -1158 339 -1344 627 -1344 
C 998 -1344 1229 -983 1357 -659 
L 2496 2183 
z
" transform="scale(0.015625)"/>
       <path id="CMR17-64" d="M 1869 4345 
L 1869 4179 
C 2246 4179 2304 4141 2304 3843 
L 2304 2371 
C 2278 2403 2016 2816 1498 2816 
C 845 2816 211 2228 211 1376 
C 211 529 806 -64 1434 -64 
C 1978 -64 2259 361 2291 406 
L 2291 -64 
L 3066 -13 
L 3066 154 
C 2688 154 2630 193 2630 503 
L 2630 4416 
L 1869 4345 
z
M 2291 762 
C 2291 568 2176 393 2029 264 
C 1811 70 1594 38 1472 38 
C 1286 38 621 135 621 1369 
C 621 2636 1363 2713 1530 2713 
C 1824 2713 2061 2545 2208 2313 
C 2291 2177 2291 2157 2291 2041 
L 2291 762 
z
" transform="scale(0.015625)"/>
      </defs>
      <use xlink:href="#CMR17-50" transform="scale(0.996264)"/>
      <use xlink:href="#CMR17-72" transform="translate(62.586301 0)scale(0.996264)"/>
      <use xlink:href="#CMR17-6f" transform="translate(97.867068 0)scale(0.996264)"/>
      <use xlink:href="#CMR17-62" transform="translate(143.557545 0)scale(0.996264)"/>
      <use xlink:href="#CMR17-61" transform="translate(194.452915 0)scale(0.996264)"/>
      <use xlink:href="#CMR17-62" transform="translate(240.143392 0)scale(0.996264)"/>
      <use xlink:href="#CMR17-69" transform="translate(291.038762 0)scale(0.996264)"/>
      <use xlink:href="#CMR17-6c" transform="translate(315.909821 0)scale(0.996264)"/>
      <use xlink:href="#CMR17-69" transform="translate(340.780879 0)scale(0.996264)"/>
      <use xlink:href="#CMR17-74" transform="translate(365.651938 0)scale(0.996264)"/>
      <use xlink:href="#CMR17-79" transform="translate(398.330251 0)scale(0.996264)"/>
      <use xlink:href="#CMR17-64" transform="translate(476.699134 0)scale(0.996264)"/>
      <use xlink:href="#CMR17-65" transform="translate(527.594503 0)scale(0.996264)"/>
      <use xlink:href="#CMR17-6e" transform="translate(568.080164 0)scale(0.996264)"/>
      <use xlink:href="#CMR17-73" transform="translate(618.975534 0)scale(0.996264)"/>
      <use xlink:href="#CMR17-69" transform="translate(654.776871 0)scale(0.996264)"/>
      <use xlink:href="#CMR17-74" transform="translate(679.64793 0)scale(0.996264)"/>
      <use xlink:href="#CMR17-79" transform="translate(712.326244 0)scale(0.996264)"/>
     </g>
    </g>
   </g>
   <g id="line2d_14">
    <path d="M 268.755547 384.157026 
L 268.755547 51.517026 
" clip-path="url(#pd4dc93563b)" style="fill: none; stroke-dasharray: 5.55,2.4; stroke-dashoffset: 0; stroke: #000000; stroke-width: 1.5"/>
   </g>
   <g id="patch_3">
    <path d="M 45.555547 384.157026 
L 45.555547 51.517026 
" style="fill: none; stroke: #000000; stroke-width: 0.8; stroke-linejoin: miter; stroke-linecap: square"/>
   </g>
   <g id="patch_4">
    <path d="M 491.955547 384.157026 
L 491.955547 51.517026 
" style="fill: none; stroke: #000000; stroke-width: 0.8; stroke-linejoin: miter; stroke-linecap: square"/>
   </g>
   <g id="patch_5">
    <path d="M 45.555547 384.157026 
L 491.955547 384.157026 
" style="fill: none; stroke: #000000; stroke-width: 0.8; stroke-linejoin: miter; stroke-linecap: square"/>
   </g>
   <g id="patch_6">
    <path d="M 45.555547 51.517026 
L 491.955547 51.517026 
" style="fill: none; stroke: #000000; stroke-width: 0.8; stroke-linejoin: miter; stroke-linecap: square"/>
   </g>
   <g id="text_16">
    <!-- Distance reconstruction  -->
    <g transform="translate(174.625662 21.036997)scale(0.2 -0.2)">
     <defs>
      <path id="CMR17-75" d="M 1882 2745 
L 1882 2579 
C 2259 2579 2317 2540 2317 2229 
L 2317 1053 
C 2317 510 2029 38 1555 38 
C 1030 38 986 355 986 691 
L 986 2816 
L 211 2745 
L 211 2579 
C 467 2579 640 2579 646 2320 
L 646 1079 
C 646 646 646 368 813 187 
C 896 103 1056 -64 1517 -64 
C 2061 -64 2272 400 2323 536 
L 2330 536 
L 2330 -64 
L 3091 -13 
L 3091 154 
C 2714 154 2656 193 2656 503 
L 2656 2816 
L 1882 2745 
z
" transform="scale(0.015625)"/>
     </defs>
     <use xlink:href="#CMR17-44" transform="scale(0.996264)"/>
     <use xlink:href="#CMR17-69" transform="translate(70.393556 0)scale(0.996264)"/>
     <use xlink:href="#CMR17-73" transform="translate(95.264614 0)scale(0.996264)"/>
     <use xlink:href="#CMR17-74" transform="translate(131.065952 0)scale(0.996264)"/>
     <use xlink:href="#CMR17-61" transform="translate(166.34672 0)scale(0.996264)"/>
     <use xlink:href="#CMR17-6e" transform="translate(212.037197 0)scale(0.996264)"/>
     <use xlink:href="#CMR17-63" transform="translate(262.932567 0)scale(0.996264)"/>
     <use xlink:href="#CMR17-65" transform="translate(303.418227 0)scale(0.996264)"/>
     <use xlink:href="#CMR17-72" transform="translate(373.979854 0)scale(0.996264)"/>
     <use xlink:href="#CMR17-65" transform="translate(409.260622 0)scale(0.996264)"/>
     <use xlink:href="#CMR17-63" transform="translate(449.746282 0)scale(0.996264)"/>
     <use xlink:href="#CMR17-6f" transform="translate(490.231943 0)scale(0.996264)"/>
     <use xlink:href="#CMR17-6e" transform="translate(535.92242 0)scale(0.996264)"/>
     <use xlink:href="#CMR17-73" transform="translate(586.81779 0)scale(0.996264)"/>
     <use xlink:href="#CMR17-74" transform="translate(622.619127 0)scale(0.996264)"/>
     <use xlink:href="#CMR17-72" transform="translate(657.899895 0)scale(0.996264)"/>
     <use xlink:href="#CMR17-75" transform="translate(693.180663 0)scale(0.996264)"/>
     <use xlink:href="#CMR17-63" transform="translate(744.076033 0)scale(0.996264)"/>
     <use xlink:href="#CMR17-74" transform="translate(784.561693 0)scale(0.996264)"/>
     <use xlink:href="#CMR17-69" transform="translate(819.842461 0)scale(0.996264)"/>
     <use xlink:href="#CMR17-6f" transform="translate(844.713519 0)scale(0.996264)"/>
     <use xlink:href="#CMR17-6e" transform="translate(890.403996 0)scale(0.996264)"/>
    </g>
    <!--  using $L$ distribution and fitted parameters -->
    <g transform="translate(99.614625 41.517026)scale(0.2 -0.2)">
     <defs>
      <path id="CMR17-67" d="M 710 1165 
C 832 1068 1043 960 1299 960 
C 1805 960 2240 1359 2240 1895 
C 2240 2063 2189 2321 1997 2521 
C 2176 2713 2438 2777 2586 2777 
C 2611 2777 2650 2777 2682 2758 
C 2656 2751 2598 2726 2598 2623 
C 2598 2540 2656 2483 2739 2483 
C 2835 2483 2886 2547 2886 2630 
C 2886 2751 2790 2880 2586 2880 
C 2330 2880 2106 2758 1926 2591 
C 1734 2764 1504 2828 1299 2828 
C 794 2828 358 2431 358 1895 
C 358 1527 570 1294 634 1230 
C 442 1004 442 742 442 710 
C 442 544 506 300 723 166 
C 390 82 128 -184 128 -517 
C 128 -996 736 -1344 1466 -1344 
C 2170 -1344 2803 -1009 2803 -510 
C 2803 384 1856 384 1363 384 
C 1216 384 954 384 922 390 
C 723 422 589 601 589 825 
C 589 883 589 1024 710 1165 
z
M 1299 1068 
C 736 1068 736 1766 736 1895 
C 736 2024 736 2719 1299 2719 
C 1862 2719 1862 2024 1862 1895 
C 1862 1766 1862 1068 1299 1068 
z
M 1466 -1236 
C 826 -1236 384 -883 384 -517 
C 384 -311 493 -118 634 -11 
C 794 102 858 102 1293 102 
C 1818 102 2547 102 2547 -517 
C 2547 -883 2106 -1236 1466 -1236 
z
" transform="scale(0.015625)"/>
      <path id="CMMI12-4c" d="M 2349 3860 
C 2406 4102 2426 4166 2989 4166 
C 3162 4166 3206 4166 3206 4287 
C 3206 4352 3136 4352 3110 4352 
C 2982 4352 2835 4339 2707 4339 
L 1850 4339 
C 1728 4339 1587 4352 1466 4352 
C 1414 4352 1344 4352 1344 4230 
C 1344 4166 1402 4166 1498 4166 
C 1888 4166 1888 4115 1888 4045 
C 1888 4032 1888 3994 1862 3898 
L 998 472 
C 941 249 928 185 480 185 
C 358 185 294 185 294 70 
C 294 0 333 0 461 0 
L 3328 0 
C 3469 0 3475 6 3520 121 
L 4013 1478 
C 4026 1510 4038 1548 4038 1567 
C 4038 1605 4006 1631 3974 1631 
C 3968 1631 3936 1631 3923 1605 
C 3910 1599 3910 1586 3859 1465 
C 3654 905 3366 185 2285 185 
L 1670 185 
C 1581 185 1568 185 1530 191 
C 1459 198 1453 211 1453 262 
C 1453 306 1466 344 1478 402 
L 2349 3860 
z
" transform="scale(0.015625)"/>
      <path id="CMR17-c" d="M 2554 2816 
C 2400 2809 1926 2777 1805 2764 
C 1766 2758 1754 2758 1677 2758 
L 947 2758 
L 947 3517 
C 947 4127 1434 4416 1818 4416 
C 1939 4416 2214 4383 2355 4160 
C 2291 4160 2086 4160 2086 3935 
C 2086 3782 2189 3705 2317 3705 
C 2432 3705 2547 3769 2547 3942 
C 2547 4265 2240 4518 1843 4518 
C 1338 4518 634 4225 634 3517 
L 634 2758 
L 122 2758 
L 122 2591 
L 634 2591 
L 634 442 
C 634 198 608 166 198 166 
L 198 0 
C 352 12 634 12 794 12 
C 960 12 1242 12 1395 0 
L 1395 166 
C 986 166 960 192 960 442 
L 960 2591 
L 1901 2591 
C 2176 2591 2227 2534 2227 2251 
L 2227 442 
C 2227 198 2202 166 1792 166 
L 1792 0 
C 1946 12 2227 12 2387 12 
C 2554 12 2835 12 2989 0 
L 2989 166 
C 2579 166 2554 192 2554 442 
L 2554 2816 
z
" transform="scale(0.015625)"/>
      <path id="CMR17-6d" d="M 4326 1954 
C 4326 2276 4269 2816 3507 2816 
C 3072 2816 2771 2520 2656 2173 
L 2650 2173 
C 2573 2700 2195 2816 1837 2816 
C 1331 2816 1069 2424 973 2166 
L 966 2166 
L 966 2816 
L 211 2745 
L 211 2578 
C 589 2578 646 2540 646 2231 
L 646 443 
C 646 198 621 166 211 166 
L 211 0 
C 365 12 646 12 813 12 
C 979 12 1267 12 1421 0 
L 1421 166 
C 1011 166 986 192 986 443 
L 986 1678 
C 986 2269 1344 2713 1792 2713 
C 2266 2713 2317 2289 2317 1980 
L 2317 443 
C 2317 198 2291 166 1882 166 
L 1882 0 
C 2035 12 2317 12 2483 12 
C 2650 12 2938 12 3091 0 
L 3091 166 
C 2682 166 2656 192 2656 443 
L 2656 1678 
C 2656 2269 3014 2713 3462 2713 
C 3936 2713 3987 2289 3987 1980 
L 3987 443 
C 3987 198 3962 166 3552 166 
L 3552 0 
C 3706 12 3987 12 4154 12 
C 4320 12 4608 12 4762 0 
L 4762 166 
C 4352 166 4326 192 4326 443 
L 4326 1954 
z
" transform="scale(0.015625)"/>
     </defs>
     <use xlink:href="#CMR17-75" transform="scale(0.996264)"/>
     <use xlink:href="#CMR17-73" transform="translate(50.89537 0)scale(0.996264)"/>
     <use xlink:href="#CMR17-69" transform="translate(86.696707 0)scale(0.996264)"/>
     <use xlink:href="#CMR17-6e" transform="translate(111.567766 0)scale(0.996264)"/>
     <use xlink:href="#CMR17-67" transform="translate(162.463136 0)scale(0.996264)"/>
     <use xlink:href="#CMMI12-4c" transform="translate(238.229579 0)scale(0.996264)"/>
     <use xlink:href="#CMR17-64" transform="translate(334.676421 0)scale(0.996264)"/>
     <use xlink:href="#CMR17-69" transform="translate(385.571791 0)scale(0.996264)"/>
     <use xlink:href="#CMR17-73" transform="translate(410.442849 0)scale(0.996264)"/>
     <use xlink:href="#CMR17-74" transform="translate(446.244187 0)scale(0.996264)"/>
     <use xlink:href="#CMR17-72" transform="translate(481.524955 0)scale(0.996264)"/>
     <use xlink:href="#CMR17-69" transform="translate(516.805722 0)scale(0.996264)"/>
     <use xlink:href="#CMR17-62" transform="translate(541.676781 0)scale(0.996264)"/>
     <use xlink:href="#CMR17-75" transform="translate(592.572151 0)scale(0.996264)"/>
     <use xlink:href="#CMR17-74" transform="translate(643.46752 0)scale(0.996264)"/>
     <use xlink:href="#CMR17-69" transform="translate(678.748288 0)scale(0.996264)"/>
     <use xlink:href="#CMR17-6f" transform="translate(703.619347 0)scale(0.996264)"/>
     <use xlink:href="#CMR17-6e" transform="translate(749.309824 0)scale(0.996264)"/>
     <use xlink:href="#CMR17-61" transform="translate(830.28116 0)scale(0.996264)"/>
     <use xlink:href="#CMR17-6e" transform="translate(875.971637 0)scale(0.996264)"/>
     <use xlink:href="#CMR17-64" transform="translate(926.867007 0)scale(0.996264)"/>
     <use xlink:href="#CMR17-c" transform="translate(1007.838343 0)scale(0.996264)"/>
     <use xlink:href="#CMR17-74" transform="translate(1057.580566 0)scale(0.996264)"/>
     <use xlink:href="#CMR17-74" transform="translate(1092.861334 0)scale(0.996264)"/>
     <use xlink:href="#CMR17-65" transform="translate(1128.142102 0)scale(0.996264)"/>
     <use xlink:href="#CMR17-64" transform="translate(1168.627762 0)scale(0.996264)"/>
     <use xlink:href="#CMR17-70" transform="translate(1249.599099 0)scale(0.996264)"/>
     <use xlink:href="#CMR17-61" transform="translate(1300.494468 0)scale(0.996264)"/>
     <use xlink:href="#CMR17-72" transform="translate(1346.184945 0)scale(0.996264)"/>
     <use xlink:href="#CMR17-61" transform="translate(1381.465713 0)scale(0.996264)"/>
     <use xlink:href="#CMR17-6d" transform="translate(1427.15619 0)scale(0.996264)"/>
     <use xlink:href="#CMR17-65" transform="translate(1504.07578 0)scale(0.996264)"/>
     <use xlink:href="#CMR17-74" transform="translate(1544.561441 0)scale(0.996264)"/>
     <use xlink:href="#CMR17-65" transform="translate(1579.842209 0)scale(0.996264)"/>
     <use xlink:href="#CMR17-72" transform="translate(1620.327869 0)scale(0.996264)"/>
     <use xlink:href="#CMR17-73" transform="translate(1655.608637 0)scale(0.996264)"/>
    </g>
   </g>
   <g id="legend_1">
    <g id="patch_7">
     <path d="M 315.109026 132.530203 
L 483.555547 132.530203 
Q 485.955547 132.530203 485.955547 130.130203 
L 485.955547 59.917026 
Q 485.955547 57.517026 483.555547 57.517026 
L 315.109026 57.517026 
Q 312.709026 57.517026 312.709026 59.917026 
L 312.709026 130.130203 
Q 312.709026 132.530203 315.109026 132.530203 
z
" style="fill: #ffffff; opacity: 0.8; stroke: #cccccc; stroke-linejoin: miter"/>
    </g>
    <g id="patch_8">
     <path d="M 317.509026 81.352622 
L 341.509026 81.352622 
L 341.509026 72.952622 
L 317.509026 72.952622 
z
" style="fill: #280b53; fill-opacity: 0.25; stroke: #280b53; stroke-linejoin: miter"/>
    </g>
    <g id="text_17">
     <!-- $L \propto \displaystyle \frac{\left[\mathcal{N}(1.33, 0.9)\right]^2}{\mathcal{U}(R_{\mathrm{min}}, R_{\mathrm{max}})}$ -->
     <g transform="translate(351.109026 81.352622)scale(0.12 -0.12)">
      <defs>
       <path id="CMSY10-2f" d="M 4621 210 
C 4595 210 4493 198 4474 198 
C 3968 198 3629 694 3411 1025 
C 3347 1133 3174 1394 3104 1503 
C 3258 1846 3686 2636 4448 2636 
C 4493 2636 4550 2636 4621 2617 
C 4621 2784 4614 2790 4602 2803 
C 4557 2816 4461 2822 4403 2822 
C 3590 2822 3117 2044 2963 1725 
C 2707 2114 2618 2254 2381 2451 
C 1990 2790 1638 2822 1478 2822 
C 768 2822 358 2107 358 1375 
C 358 662 755 -64 1459 -64 
C 2272 -64 2746 713 2899 1031 
C 3155 643 3245 503 3482 306 
C 3872 -32 4224 -64 4384 -64 
C 4461 -64 4563 -52 4621 -39 
L 4621 210 
z
M 2758 1254 
C 2605 911 2176 121 1414 121 
C 794 121 499 796 499 1375 
C 499 2006 858 2560 1389 2560 
C 1894 2560 2234 2063 2451 1732 
C 2515 1624 2688 1363 2758 1254 
z
" transform="scale(0.015625)"/>
       <path id="CMSY10-4e" d="M 1958 3657 
C 2074 3326 2214 2848 2502 2065 
C 2906 982 3085 587 3475 -20 
C 3565 -154 3571 -160 3629 -160 
C 3718 -160 3853 -84 3923 -32 
C 4013 51 4019 57 4090 370 
C 4474 2046 4960 3791 5088 4084 
C 5094 4097 5222 4339 6010 4352 
C 6138 4358 6259 4697 6259 4838 
C 6259 4940 6221 4940 6131 4940 
C 5491 4940 5203 4672 5126 4588 
C 4947 4358 4794 3893 4499 2829 
C 4275 2014 4070 1186 3872 364 
C 3520 893 3322 1396 3014 2218 
C 2675 3122 2470 3785 2298 4358 
C 2259 4486 2253 4492 2195 4492 
C 2182 4492 2054 4492 1869 4339 
C 1805 4282 1798 4224 1792 4154 
C 1613 2460 1011 784 838 479 
C 787 383 710 268 582 268 
C 518 268 269 300 102 453 
C 70 479 58 479 51 479 
C -51 479 -186 160 -186 6 
C -186 -192 205 -320 384 -320 
C 794 -320 1120 580 1222 873 
C 1638 2026 1837 2976 1958 3657 
z
" transform="scale(0.015625)"/>
       <path id="CMR17-28" d="M 1958 -1562 
C 1958 -1556 1958 -1543 1939 -1524 
C 1645 -1223 858 -403 858 1596 
C 858 3595 1632 4408 1946 4729 
C 1946 4735 1958 4748 1958 4767 
C 1958 4787 1939 4800 1914 4800 
C 1843 4800 1299 4325 986 3620 
C 666 2909 576 2218 576 1603 
C 576 1141 621 360 1005 -467 
C 1312 -1133 1837 -1600 1914 -1600 
C 1946 -1600 1958 -1588 1958 -1562 
z
" transform="scale(0.015625)"/>
       <path id="CMR17-33" d="M 1414 2176 
C 1984 2176 2234 1673 2234 1094 
C 2234 322 1824 25 1453 25 
C 1114 25 563 193 390 691 
C 422 678 454 678 486 678 
C 640 678 755 780 755 947 
C 755 1132 614 1216 486 1216 
C 378 1216 211 1164 211 927 
C 211 335 787 -128 1466 -128 
C 2176 -128 2720 432 2720 1087 
C 2720 1718 2208 2176 1600 2246 
C 2086 2347 2554 2776 2554 3353 
C 2554 3856 2048 4224 1472 4224 
C 890 4224 378 3862 378 3347 
C 378 3123 544 3084 627 3084 
C 762 3084 877 3167 877 3334 
C 877 3500 762 3584 627 3584 
C 602 3584 570 3584 544 3571 
C 730 3999 1235 4076 1459 4076 
C 1683 4076 2106 3966 2106 3347 
C 2106 3167 2080 2851 1862 2574 
C 1670 2329 1453 2316 1242 2297 
C 1210 2297 1062 2284 1037 2284 
C 992 2278 966 2272 966 2227 
C 966 2182 973 2176 1101 2176 
L 1414 2176 
z
" transform="scale(0.015625)"/>
       <path id="CMMI12-3b" d="M 1248 -26 
C 1248 345 1126 620 864 620 
C 659 620 557 454 557 313 
C 557 172 653 0 870 0 
C 954 0 1024 25 1082 83 
C 1094 96 1101 96 1107 96 
C 1120 96 1120 6 1120 -26 
C 1120 -233 1082 -642 710 -1051 
C 640 -1127 640 -1140 640 -1152 
C 640 -1184 672 -1216 704 -1216 
C 755 -1216 1248 -749 1248 -26 
z
" transform="scale(0.015625)"/>
       <path id="CMR17-39" d="M 2253 1871 
C 2253 448 1670 25 1190 25 
C 1043 25 685 43 538 281 
C 704 256 826 345 826 505 
C 826 678 685 736 595 736 
C 538 736 365 710 365 492 
C 365 68 742 -128 1203 -128 
C 1939 -128 2688 665 2688 2090 
C 2688 3857 1971 4224 1485 4224 
C 851 4224 243 3664 243 2800 
C 243 2000 762 1408 1414 1408 
C 1952 1408 2189 1910 2253 2122 
L 2253 1871 
z
M 1427 1510 
C 1254 1510 1011 1542 813 1929 
C 678 2181 678 2477 678 2793 
C 678 3174 678 3438 858 3722 
C 947 3857 1114 4076 1485 4076 
C 2240 4076 2240 2909 2240 2651 
C 2240 2193 2035 1510 1427 1510 
z
" transform="scale(0.015625)"/>
       <path id="CMR17-29" d="M 1683 1596 
C 1683 2057 1638 2839 1254 3665 
C 947 4332 422 4800 346 4800 
C 326 4800 301 4793 301 4761 
C 301 4748 307 4742 314 4729 
C 621 4408 1402 3595 1402 1603 
C 1402 -396 627 -1210 314 -1530 
C 307 -1543 301 -1549 301 -1562 
C 301 -1594 326 -1600 346 -1600 
C 416 -1600 960 -1127 1274 -422 
C 1594 289 1683 981 1683 1596 
z
" transform="scale(0.015625)"/>
       <path id="CMSY10-55" d="M 3155 1892 
C 3008 1359 2784 573 2784 83 
C 2784 -90 2893 -167 3046 -167 
C 3302 -167 3782 108 3782 236 
C 3782 268 3750 281 3718 281 
C 3642 281 3526 224 3456 185 
C 3373 198 3328 262 3328 350 
C 3328 1125 4058 3346 4243 3815 
C 4320 3993 4403 4255 4403 4307 
C 4403 4352 4365 4352 4339 4352 
C 4205 4352 3917 4179 3866 4057 
C 3782 3834 3770 3802 3693 3568 
C 3482 2965 2848 1918 2214 1182 
C 2016 960 1389 224 934 224 
C 627 224 435 484 435 903 
C 435 1347 685 1918 1069 2787 
C 1299 3308 1491 3758 1491 4044 
C 1491 4345 1286 4352 1171 4352 
C 678 4352 64 3955 64 3822 
C 64 3783 109 3783 134 3783 
C 211 3783 326 3834 429 3904 
C 474 3936 576 3999 749 3999 
C 890 3999 947 3910 947 3771 
C 947 3492 717 2971 448 2362 
C 26 1410 -109 1004 -109 636 
C -109 217 58 -128 512 -128 
C 909 -128 1491 134 2144 738 
C 2586 1150 2874 1531 3149 1899 
L 3155 1892 
z
" transform="scale(0.015625)"/>
       <path id="CMMI12-52" d="M 2355 3917 
C 2413 4153 2438 4166 2688 4166 
L 3149 4166 
C 3699 4166 4109 4000 4109 3503 
C 4109 3177 3942 2240 2656 2240 
L 1933 2240 
L 2355 3917 
z
M 3245 2163 
C 4038 2335 4659 2846 4659 3394 
C 4659 3892 4154 4352 3264 4352 
L 1530 4352 
C 1402 4352 1344 4352 1344 4230 
C 1344 4166 1389 4166 1510 4166 
C 1894 4166 1894 4115 1894 4045 
C 1894 4032 1894 3994 1869 3898 
L 1005 475 
C 947 253 934 190 493 190 
C 346 190 301 190 301 69 
C 301 6 371 6 390 6 
C 506 6 640 19 762 19 
L 1517 19 
C 1632 19 1766 6 1882 6 
C 1933 6 2003 6 2003 126 
C 2003 190 1946 190 1850 190 
C 1459 190 1459 241 1459 304 
C 1459 310 1459 355 1472 405 
L 1901 2112 
L 2669 2112 
C 3277 2112 3392 1731 3392 1522 
C 3392 1426 3328 1179 3283 1014 
C 3213 723 3194 653 3194 532 
C 3194 82 3565 -128 3994 -128 
C 4512 -128 4736 501 4736 589 
C 4736 634 4704 653 4666 653 
C 4614 653 4602 615 4589 564 
C 4435 114 4173 0 4013 0 
C 3853 0 3750 69 3750 355 
C 3750 507 3827 1084 3834 1116 
C 3866 1350 3866 1376 3866 1426 
C 3866 1889 3488 2086 3245 2163 
z
" transform="scale(0.015625)"/>
       <path id="CMR17-78" d="M 1664 1491 
C 1856 1740 2074 2022 2253 2233 
C 2464 2476 2707 2579 2989 2585 
L 2989 2752 
C 2880 2745 2656 2739 2541 2739 
C 2368 2739 2170 2739 2022 2752 
L 2022 2585 
C 2112 2572 2163 2508 2163 2419 
C 2163 2304 2099 2233 2067 2188 
L 1594 1587 
L 1030 2323 
C 973 2393 973 2406 973 2438 
C 973 2515 1037 2579 1146 2585 
L 1146 2752 
C 992 2739 717 2739 557 2739 
C 384 2739 179 2739 38 2752 
L 38 2585 
C 384 2585 461 2560 614 2368 
L 1350 1414 
C 1363 1401 1395 1363 1395 1344 
C 1395 1318 838 633 768 544 
C 480 198 179 172 6 166 
L 6 0 
C 115 6 339 12 454 12 
C 582 12 864 12 979 0 
L 979 166 
C 941 172 838 185 838 332 
C 838 448 890 518 947 595 
L 1478 1248 
L 2035 524 
C 2086 454 2163 358 2163 313 
C 2163 224 2086 172 1984 166 
L 1984 0 
C 2138 12 2413 12 2573 12 
C 2746 12 2950 12 3091 0 
L 3091 166 
C 2771 166 2675 179 2522 377 
L 1664 1491 
z
" transform="scale(0.015625)"/>
      </defs>
      <use xlink:href="#CMMI12-4c" transform="scale(0.996264)"/>
      <use xlink:href="#CMSY10-2f" transform="translate(94.044884 0)scale(0.996264)"/>
      <use xlink:href="#CMR17-5b" transform="translate(200.401874 67.401222)scale(0.996264)"/>
      <use xlink:href="#CMSY10-4e" transform="translate(225.272933 67.398045)scale(0.996264)"/>
      <use xlink:href="#CMR17-28" transform="translate(321.696394 67.398045)scale(0.996264)"/>
      <use xlink:href="#CMR17-31" transform="translate(356.977162 67.398045)scale(0.996264)"/>
      <use xlink:href="#CMMI12-3a" transform="translate(402.667639 67.398045)scale(0.996264)"/>
      <use xlink:href="#CMR17-33" transform="translate(429.764816 67.398045)scale(0.996264)"/>
      <use xlink:href="#CMR17-33" transform="translate(475.455293 67.398045)scale(0.996264)"/>
      <use xlink:href="#CMMI12-3b" transform="translate(521.14577 67.398045)scale(0.996264)"/>
      <use xlink:href="#CMR17-30" transform="translate(564.847353 67.398045)scale(0.996264)"/>
      <use xlink:href="#CMMI12-3a" transform="translate(610.53783 67.398045)scale(0.996264)"/>
      <use xlink:href="#CMR17-39" transform="translate(637.635007 67.398045)scale(0.996264)"/>
      <use xlink:href="#CMR17-29" transform="translate(683.325484 67.398045)scale(0.996264)"/>
      <use xlink:href="#CMR17-5d" transform="translate(718.606252 67.401222)scale(0.996264)"/>
      <use xlink:href="#CMR17-32" transform="translate(743.47731 115.104841)scale(0.697382)"/>
      <use xlink:href="#CMSY10-55" transform="translate(206.922679 -68.338837)scale(0.996264)"/>
      <use xlink:href="#CMR17-28" transform="translate(279.165532 -68.338837)scale(0.996264)"/>
      <use xlink:href="#CMMI12-52" transform="translate(314.446299 -68.338837)scale(0.996264)"/>
      <use xlink:href="#CMR17-6d" transform="translate(388.697125 -83.282752)scale(0.697382)"/>
      <use xlink:href="#CMR17-69" transform="translate(442.540592 -83.282752)scale(0.697382)"/>
      <use xlink:href="#CMR17-6e" transform="translate(459.950251 -83.282752)scale(0.697382)"/>
      <use xlink:href="#CMMI12-3b" transform="translate(496.074991 -68.338837)scale(0.996264)"/>
      <use xlink:href="#CMMI12-52" transform="translate(539.776573 -68.338837)scale(0.996264)"/>
      <use xlink:href="#CMR17-6d" transform="translate(614.027399 -83.282752)scale(0.697382)"/>
      <use xlink:href="#CMR17-61" transform="translate(667.870866 -83.282752)scale(0.697382)"/>
      <use xlink:href="#CMR17-78" transform="translate(699.854048 -83.282752)scale(0.697382)"/>
      <use xlink:href="#CMR17-29" transform="translate(734.157067 -68.338837)scale(0.996264)"/>
      <path d="M 200.401874 22.914133 
L 775.958624 22.914133 
L 775.958624 26.899083 
L 200.401874 26.899083 
L 200.401874 22.914133 
z
"/>
     </g>
    </g>
    <g id="patch_9">
     <path d="M 317.509026 108.016816 
L 341.509026 108.016816 
L 341.509026 99.616816 
L 317.509026 99.616816 
z
" style="fill: #9f2a63; fill-opacity: 0.25; stroke: #9f2a63; stroke-linejoin: miter"/>
    </g>
    <g id="text_18">
     <!-- $L \sim \mathcal{N}(1, 0.3) \times 10^{53}$ ergs -->
     <g transform="translate(351.109026 108.016816)scale(0.12 -0.12)">
      <defs>
       <path id="CMSY10-18" d="M 4621 2131 
C 4621 2272 4582 2336 4531 2336 
C 4499 2336 4448 2291 4442 2169 
C 4416 1562 3994 1216 3546 1216 
C 3142 1216 2835 1486 2522 1757 
C 2195 2048 1862 2342 1427 2342 
C 730 2342 352 1644 352 1068 
C 352 863 435 863 442 863 
C 512 863 531 991 531 1011 
C 557 1707 1037 1984 1427 1984 
C 1830 1984 2138 1713 2451 1442 
C 2778 1151 3110 857 3546 857 
C 4243 857 4621 1555 4621 2131 
z
" transform="scale(0.015625)"/>
       <path id="CMSY10-2" d="M 2490 1775 
L 1210 3046 
C 1133 3123 1120 3136 1069 3136 
C 1005 3136 941 3078 941 3008 
C 941 2963 954 2950 1024 2880 
L 2304 1596 
L 1024 313 
C 954 243 941 230 941 185 
C 941 115 1005 57 1069 57 
C 1120 57 1133 70 1210 147 
L 2483 1418 
L 3808 95 
C 3821 89 3866 57 3904 57 
C 3981 57 4032 115 4032 185 
C 4032 198 4032 223 4013 255 
C 4006 268 2989 1271 2669 1596 
L 3840 2765 
C 3872 2803 3968 2886 4000 2925 
C 4006 2937 4032 2963 4032 3008 
C 4032 3078 3981 3136 3904 3136 
C 3853 3136 3827 3110 3757 3040 
L 2490 1775 
z
" transform="scale(0.015625)"/>
       <path id="CMR17-35" d="M 730 3750 
C 794 3724 1056 3641 1325 3641 
C 1920 3641 2246 3961 2432 4140 
C 2432 4191 2432 4224 2394 4224 
C 2387 4224 2374 4224 2323 4198 
C 2099 4102 1837 4032 1517 4032 
C 1325 4032 1037 4055 723 4191 
C 653 4224 640 4224 634 4224 
C 602 4224 595 4217 595 4090 
L 595 2231 
C 595 2113 595 2080 659 2080 
C 691 2080 704 2093 736 2139 
C 941 2435 1222 2560 1542 2560 
C 1766 2560 2246 2415 2246 1293 
C 2246 1087 2246 716 2054 422 
C 1894 159 1645 25 1370 25 
C 947 25 518 319 403 812 
C 429 806 480 793 506 793 
C 589 793 749 838 749 1036 
C 749 1209 627 1280 506 1280 
C 358 1280 262 1190 262 1011 
C 262 454 704 -128 1382 -128 
C 2042 -128 2669 441 2669 1267 
C 2669 2054 2170 2662 1549 2662 
C 1222 2662 947 2540 730 2304 
L 730 3750 
z
" transform="scale(0.015625)"/>
      </defs>
      <use xlink:href="#CMMI12-4c" transform="scale(0.996264)"/>
      <use xlink:href="#CMSY10-18" transform="translate(94.044884 0)scale(0.996264)"/>
      <use xlink:href="#CMSY10-4e" transform="translate(199.206361 0)scale(0.996264)"/>
      <use xlink:href="#CMR17-28" transform="translate(295.629822 0)scale(0.996264)"/>
      <use xlink:href="#CMR17-31" transform="translate(330.91059 0)scale(0.996264)"/>
      <use xlink:href="#CMMI12-3b" transform="translate(376.601067 0)scale(0.996264)"/>
      <use xlink:href="#CMR17-30" transform="translate(420.302649 0)scale(0.996264)"/>
      <use xlink:href="#CMMI12-3a" transform="translate(465.993126 0)scale(0.996264)"/>
      <use xlink:href="#CMR17-33" transform="translate(493.090303 0)scale(0.996264)"/>
      <use xlink:href="#CMR17-29" transform="translate(538.780781 0)scale(0.996264)"/>
      <use xlink:href="#CMSY10-2" transform="translate(596.200755 0)scale(0.996264)"/>
      <use xlink:href="#CMR17-31" transform="translate(695.82743 0)scale(0.996264)"/>
      <use xlink:href="#CMR17-30" transform="translate(741.517907 0)scale(0.996264)"/>
      <use xlink:href="#CMR17-35" transform="translate(787.208384 36.153639)scale(0.697382)"/>
      <use xlink:href="#CMR17-33" transform="translate(819.191566 36.153639)scale(0.697382)"/>
      <use xlink:href="#CMR17-65" transform="translate(881.748846 0)scale(0.996264)"/>
      <use xlink:href="#CMR17-72" transform="translate(922.234507 0)scale(0.996264)"/>
      <use xlink:href="#CMR17-67" transform="translate(957.515275 0)scale(0.996264)"/>
      <use xlink:href="#CMR17-73" transform="translate(1003.205752 0)scale(0.996264)"/>
     </g>
    </g>
    <g id="patch_10">
     <path d="M 317.509026 125.405608 
L 341.509026 125.405608 
L 341.509026 117.005608 
L 317.509026 117.005608 
z
" style="fill: #f57d15; fill-opacity: 0.25; stroke: #f57d15; stroke-linejoin: miter"/>
    </g>
    <g id="text_19">
     <!-- $L = L^{\mathrm{true}}$ -->
     <g transform="translate(351.109026 125.405608)scale(0.12 -0.12)">
      <defs>
       <path id="CMR17-3d" d="M 4115 2048 
C 4211 2048 4307 2048 4307 2156 
C 4307 2272 4198 2272 4090 2272 
L 512 2272 
C 403 2272 294 2272 294 2156 
C 294 2048 390 2048 486 2048 
L 4115 2048 
z
M 4090 927 
C 4198 927 4307 927 4307 1043 
C 4307 1152 4211 1152 4115 1152 
L 486 1152 
C 390 1152 294 1152 294 1043 
C 294 927 403 927 512 927 
L 4090 927 
z
" transform="scale(0.015625)"/>
      </defs>
      <use xlink:href="#CMMI12-4c" transform="scale(0.996264)"/>
      <use xlink:href="#CMR17-3d" transform="translate(94.044884 0)scale(0.996264)"/>
      <use xlink:href="#CMMI12-4c" transform="translate(193.433681 0)scale(0.996264)"/>
      <use xlink:href="#CMR17-74" transform="translate(259.804557 36.153639)scale(0.697382)"/>
      <use xlink:href="#CMR17-72" transform="translate(284.500977 36.153639)scale(0.697382)"/>
      <use xlink:href="#CMR17-75" transform="translate(309.197398 36.153639)scale(0.697382)"/>
      <use xlink:href="#CMR17-65" transform="translate(344.824006 36.153639)scale(0.697382)"/>
     </g>
    </g>
   </g>
  </g>
 </g>
 <defs>
  <clipPath id="pd4dc93563b">
   <rect x="45.555547" y="51.517026" width="446.4" height="332.64"/>
  </clipPath>
 </defs>
</svg>
