<?xml version="1.0" encoding="utf-8" standalone="no"?>
<!DOCTYPE svg PUBLIC "-//W3C//DTD SVG 1.1//EN"
  "http://www.w3.org/Graphics/SVG/1.1/DTD/svg11.dtd">
<svg xmlns:xlink="http://www.w3.org/1999/xlink" width="553.998621pt" height="331.325562pt" viewBox="0 0 553.998621 331.325562" xmlns="http://www.w3.org/2000/svg" version="1.1">
 <metadata>
  <rdf:RDF xmlns:dc="http://purl.org/dc/elements/1.1/" xmlns:cc="http://creativecommons.org/ns#" xmlns:rdf="http://www.w3.org/1999/02/22-rdf-syntax-ns#">
   <cc:Work>
    <dc:type rdf:resource="http://purl.org/dc/dcmitype/StillImage"/>
    <dc:date>2023-09-24T19:55:45.077007</dc:date>
    <dc:format>image/svg+xml</dc:format>
    <dc:creator>
     <cc:Agent>
      <dc:title>Matplotlib v3.5.3, https://matplotlib.org/</dc:title>
     </cc:Agent>
    </dc:creator>
   </cc:Work>
  </rdf:RDF>
 </metadata>
 <defs>
  <style type="text/css">*{stroke-linejoin: round; stroke-linecap: butt}</style>
 </defs>
 <g id="figure_1">
  <g id="patch_1">
   <path d="M 0 331.325562 
L 553.998621 331.325562 
L 553.998621 0 
L 0 0 
z
" style="fill: #ffffff"/>
  </g>
  <g id="axes_1">
   <g id="patch_2">
    <path d="M 43.853677 288.55109 
L 490.253677 288.55109 
L 490.253677 11.35109 
L 43.853677 11.35109 
z
" style="fill: #ffffff"/>
   </g>
   <g id="matplotlib.axis_1">
    <g id="xtick_1">
     <g id="line2d_1">
      <path d="M 43.853677 288.55109 
L 43.853677 11.35109 
" clip-path="url(#p259affedd6)" style="fill: none; stroke-dasharray: 2.96,1.28; stroke-dashoffset: 0; stroke: #808080; stroke-opacity: 0.4; stroke-width: 0.8"/>
     </g>
     <g id="line2d_2">
      <defs>
       <path id="m666454900b" d="M 0 0 
L 0 3.5 
" style="stroke: #000000; stroke-width: 0.8"/>
      </defs>
      <g>
       <use xlink:href="#m666454900b" x="43.853677" y="288.55109" style="stroke: #000000; stroke-width: 0.8"/>
      </g>
     </g>
     <g id="text_1">
      <!-- $\mathdefault{0}$ -->
      <g transform="translate(40.927182 303.85327)scale(0.12 -0.12)">
       <defs>
        <path id="CMR17-30" d="M 2688 2025 
C 2688 2416 2682 3080 2413 3591 
C 2176 4039 1798 4198 1466 4198 
C 1158 4198 768 4058 525 3597 
C 269 3118 243 2524 243 2025 
C 243 1661 250 1106 448 619 
C 723 -39 1216 -128 1466 -128 
C 1760 -128 2208 -7 2470 600 
C 2662 1042 2688 1559 2688 2025 
z
M 1466 -26 
C 1056 -26 813 325 723 812 
C 653 1188 653 1738 653 2096 
C 653 2588 653 2997 736 3387 
C 858 3929 1216 4096 1466 4096 
C 1728 4096 2067 3923 2189 3400 
C 2272 3036 2278 2607 2278 2096 
C 2278 1680 2278 1169 2202 792 
C 2067 95 1690 -26 1466 -26 
z
" transform="scale(0.015625)"/>
       </defs>
       <use xlink:href="#CMR17-30" transform="scale(0.996264)"/>
      </g>
     </g>
    </g>
    <g id="xtick_2">
     <g id="line2d_3">
      <path d="M 133.133677 288.55109 
L 133.133677 11.35109 
" clip-path="url(#p259affedd6)" style="fill: none; stroke-dasharray: 2.96,1.28; stroke-dashoffset: 0; stroke: #808080; stroke-opacity: 0.4; stroke-width: 0.8"/>
     </g>
     <g id="line2d_4">
      <g>
       <use xlink:href="#m666454900b" x="133.133677" y="288.55109" style="stroke: #000000; stroke-width: 0.8"/>
      </g>
     </g>
     <g id="text_2">
      <!-- $\mathdefault{20}$ -->
      <g transform="translate(127.280686 303.85327)scale(0.12 -0.12)">
       <defs>
        <path id="CMR17-32" d="M 2669 989 
L 2554 989 
C 2490 536 2438 459 2413 420 
C 2381 369 1920 369 1830 369 
L 602 369 
C 832 619 1280 1072 1824 1597 
C 2214 1967 2669 2402 2669 3035 
C 2669 3790 2067 4224 1395 4224 
C 691 4224 262 3604 262 3030 
C 262 2780 448 2748 525 2748 
C 589 2748 781 2787 781 3010 
C 781 3207 614 3264 525 3264 
C 486 3264 448 3258 422 3245 
C 544 3790 915 4058 1306 4058 
C 1862 4058 2227 3617 2227 3035 
C 2227 2479 1901 2000 1536 1584 
L 262 146 
L 262 0 
L 2515 0 
L 2669 989 
z
" transform="scale(0.015625)"/>
       </defs>
       <use xlink:href="#CMR17-32" transform="scale(0.996264)"/>
       <use xlink:href="#CMR17-30" transform="translate(45.690477 0)scale(0.996264)"/>
      </g>
     </g>
    </g>
    <g id="xtick_3">
     <g id="line2d_5">
      <path d="M 222.413677 288.55109 
L 222.413677 11.35109 
" clip-path="url(#p259affedd6)" style="fill: none; stroke-dasharray: 2.96,1.28; stroke-dashoffset: 0; stroke: #808080; stroke-opacity: 0.4; stroke-width: 0.8"/>
     </g>
     <g id="line2d_6">
      <g>
       <use xlink:href="#m666454900b" x="222.413677" y="288.55109" style="stroke: #000000; stroke-width: 0.8"/>
      </g>
     </g>
     <g id="text_3">
      <!-- $\mathdefault{40}$ -->
      <g transform="translate(216.560686 303.85327)scale(0.12 -0.12)">
       <defs>
        <path id="CMR17-34" d="M 2150 4122 
C 2150 4256 2144 4256 2029 4256 
L 128 1254 
L 128 1088 
L 1779 1088 
L 1779 457 
C 1779 224 1766 160 1318 160 
L 1197 160 
L 1197 0 
C 1402 0 1747 0 1965 0 
C 2182 0 2528 0 2733 0 
L 2733 160 
L 2611 160 
C 2163 160 2150 224 2150 457 
L 2150 1088 
L 2803 1088 
L 2803 1254 
L 2150 1254 
L 2150 4122 
z
M 1798 3703 
L 1798 1254 
L 256 1254 
L 1798 3703 
z
" transform="scale(0.015625)"/>
       </defs>
       <use xlink:href="#CMR17-34" transform="scale(0.996264)"/>
       <use xlink:href="#CMR17-30" transform="translate(45.690477 0)scale(0.996264)"/>
      </g>
     </g>
    </g>
    <g id="xtick_4">
     <g id="line2d_7">
      <path d="M 311.693677 288.55109 
L 311.693677 11.35109 
" clip-path="url(#p259affedd6)" style="fill: none; stroke-dasharray: 2.96,1.28; stroke-dashoffset: 0; stroke: #808080; stroke-opacity: 0.4; stroke-width: 0.8"/>
     </g>
     <g id="line2d_8">
      <g>
       <use xlink:href="#m666454900b" x="311.693677" y="288.55109" style="stroke: #000000; stroke-width: 0.8"/>
      </g>
     </g>
     <g id="text_4">
      <!-- $\mathdefault{60}$ -->
      <g transform="translate(305.840686 303.85327)scale(0.12 -0.12)">
       <defs>
        <path id="CMR17-36" d="M 678 2176 
C 678 3690 1395 4032 1811 4032 
C 1946 4032 2272 4009 2400 3776 
C 2298 3776 2106 3776 2106 3553 
C 2106 3381 2246 3323 2336 3323 
C 2394 3323 2566 3348 2566 3560 
C 2566 3954 2246 4179 1805 4179 
C 1043 4179 243 3390 243 1984 
C 243 253 966 -128 1478 -128 
C 2099 -128 2688 427 2688 1283 
C 2688 2081 2170 2662 1517 2662 
C 1126 2662 838 2407 678 1960 
L 678 2176 
z
M 1478 25 
C 691 25 691 1200 691 1436 
C 691 1896 909 2560 1504 2560 
C 1613 2560 1926 2560 2138 2120 
C 2253 1870 2253 1609 2253 1289 
C 2253 944 2253 690 2118 434 
C 1978 171 1773 25 1478 25 
z
" transform="scale(0.015625)"/>
       </defs>
       <use xlink:href="#CMR17-36" transform="scale(0.996264)"/>
       <use xlink:href="#CMR17-30" transform="translate(45.690477 0)scale(0.996264)"/>
      </g>
     </g>
    </g>
    <g id="xtick_5">
     <g id="line2d_9">
      <path d="M 400.973677 288.55109 
L 400.973677 11.35109 
" clip-path="url(#p259affedd6)" style="fill: none; stroke-dasharray: 2.96,1.28; stroke-dashoffset: 0; stroke: #808080; stroke-opacity: 0.4; stroke-width: 0.8"/>
     </g>
     <g id="line2d_10">
      <g>
       <use xlink:href="#m666454900b" x="400.973677" y="288.55109" style="stroke: #000000; stroke-width: 0.8"/>
      </g>
     </g>
     <g id="text_5">
      <!-- $\mathdefault{80}$ -->
      <g transform="translate(395.120686 303.85327)scale(0.12 -0.12)">
       <defs>
        <path id="CMR17-38" d="M 1741 2264 
C 2144 2467 2554 2773 2554 3263 
C 2554 3841 1990 4179 1472 4179 
C 890 4179 378 3759 378 3180 
C 378 3021 416 2747 666 2505 
C 730 2442 998 2251 1171 2130 
C 883 1983 211 1634 211 934 
C 211 279 838 -128 1459 -128 
C 2144 -128 2720 362 2720 1010 
C 2720 1590 2330 1857 2074 2029 
L 1741 2264 
z
M 902 2822 
C 851 2854 595 3051 595 3351 
C 595 3739 998 4032 1459 4032 
C 1965 4032 2336 3676 2336 3262 
C 2336 2669 1670 2331 1638 2331 
C 1632 2331 1626 2331 1574 2370 
L 902 2822 
z
M 2080 1519 
C 2176 1449 2483 1240 2483 851 
C 2483 381 2010 25 1472 25 
C 890 25 448 438 448 940 
C 448 1443 838 1862 1280 2060 
L 2080 1519 
z
" transform="scale(0.015625)"/>
       </defs>
       <use xlink:href="#CMR17-38" transform="scale(0.996264)"/>
       <use xlink:href="#CMR17-30" transform="translate(45.690477 0)scale(0.996264)"/>
      </g>
     </g>
    </g>
    <g id="xtick_6">
     <g id="line2d_11">
      <path d="M 490.253677 288.55109 
L 490.253677 11.35109 
" clip-path="url(#p259affedd6)" style="fill: none; stroke-dasharray: 2.96,1.28; stroke-dashoffset: 0; stroke: #808080; stroke-opacity: 0.4; stroke-width: 0.8"/>
     </g>
     <g id="line2d_12">
      <g>
       <use xlink:href="#m666454900b" x="490.253677" y="288.55109" style="stroke: #000000; stroke-width: 0.8"/>
      </g>
     </g>
     <g id="text_6">
      <!-- $\mathdefault{100}$ -->
      <g transform="translate(481.474191 303.85327)scale(0.12 -0.12)">
       <defs>
        <path id="CMR17-31" d="M 1702 4058 
C 1702 4192 1696 4192 1606 4192 
C 1357 3916 979 3827 621 3827 
C 602 3827 570 3827 563 3808 
C 557 3795 557 3782 557 3648 
C 755 3648 1088 3686 1344 3839 
L 1344 461 
C 1344 236 1331 160 781 160 
L 589 160 
L 589 0 
C 896 0 1216 0 1523 0 
C 1830 0 2150 0 2458 0 
L 2458 160 
L 2266 160 
C 1715 160 1702 230 1702 458 
L 1702 4058 
z
" transform="scale(0.015625)"/>
       </defs>
       <use xlink:href="#CMR17-31" transform="scale(0.996264)"/>
       <use xlink:href="#CMR17-30" transform="translate(45.690477 0)scale(0.996264)"/>
       <use xlink:href="#CMR17-30" transform="translate(91.380954 0)scale(0.996264)"/>
      </g>
     </g>
    </g>
    <g id="text_7">
     <!-- Distance [kpc] -->
     <g transform="translate(224.623412 320.638638)scale(0.14 -0.14)">
      <defs>
       <path id="CMR17-44" d="M 333 4352 
L 333 4186 
C 774 4186 845 4186 845 3900 
L 845 452 
C 845 166 774 166 333 166 
L 333 0 
L 2368 0 
C 3398 0 4224 943 4224 2141 
C 4224 3346 3411 4352 2368 4352 
L 333 4352 
z
M 1523 166 
C 1267 166 1254 197 1254 414 
L 1254 3938 
C 1254 4155 1267 4186 1523 4186 
L 2240 4186 
C 2771 4186 3750 3874 3750 2141 
C 3750 1242 3488 879 3366 707 
C 3213 510 2848 166 2240 166 
L 1523 166 
z
" transform="scale(0.015625)"/>
       <path id="CMR17-69" d="M 992 3909 
C 992 4049 877 4170 730 4170 
C 589 4170 467 4056 467 3909 
C 467 3769 582 3648 730 3648 
C 870 3648 992 3763 992 3909 
z
M 243 2706 
L 243 2541 
C 602 2541 653 2502 653 2197 
L 653 427 
C 653 184 627 153 218 153 
L 218 -13 
C 371 0 646 0 806 0 
C 960 0 1222 0 1370 -13 
L 1370 153 
C 992 153 979 191 979 420 
L 979 2776 
L 243 2706 
z
" transform="scale(0.015625)"/>
       <path id="CMR17-73" d="M 1978 2697 
C 1978 2813 1971 2819 1933 2819 
C 1907 2819 1901 2813 1824 2717 
C 1805 2691 1747 2626 1728 2601 
C 1523 2819 1235 2819 1126 2819 
C 416 2819 160 2447 160 2076 
C 160 1498 813 1365 998 1325 
C 1402 1243 1542 1217 1677 1101 
C 1760 1025 1901 884 1901 654 
C 1901 384 1747 38 1158 38 
C 602 38 403 460 288 1021 
C 269 1110 269 1117 218 1117 
C 166 1117 160 1110 160 983 
L 160 63 
C 160 -51 166 -58 205 -58 
C 237 -58 243 -51 275 0 
C 314 57 410 211 448 276 
C 576 103 800 -64 1158 -64 
C 1792 -64 2131 283 2131 784 
C 2131 1112 1958 1285 1875 1362 
C 1683 1561 1459 1606 1190 1657 
C 838 1735 390 1825 390 2217 
C 390 2383 480 2737 1126 2737 
C 1811 2737 1850 2094 1862 1888 
C 1869 1856 1901 1849 1920 1849 
C 1978 1849 1978 1869 1978 1978 
L 1978 2697 
z
" transform="scale(0.015625)"/>
       <path id="CMR17-74" d="M 966 2560 
L 1862 2560 
L 1862 2725 
L 966 2725 
L 966 3904 
L 851 3904 
C 838 3245 614 2668 70 2668 
L 70 2560 
L 627 2560 
L 627 771 
C 627 650 627 -64 1370 -64 
C 1747 -64 1965 306 1965 777 
L 1965 1140 
L 1850 1140 
L 1850 783 
C 1850 344 1677 51 1408 51 
C 1222 51 966 178 966 758 
L 966 2560 
z
" transform="scale(0.015625)"/>
       <path id="CMR17-61" d="M 2304 1653 
C 2304 2072 2304 2294 2035 2543 
C 1798 2752 1523 2816 1306 2816 
C 800 2816 435 2407 435 1971 
C 435 1728 627 1728 666 1728 
C 749 1728 896 1778 896 1954 
C 896 2112 774 2181 666 2181 
C 640 2181 608 2174 589 2168 
C 723 2592 1069 2714 1293 2714 
C 1613 2714 1965 2429 1965 1885 
L 1965 1600 
C 1587 1600 1133 1549 774 1357 
C 371 1133 256 813 256 570 
C 256 77 832 -64 1171 -64 
C 1523 -64 1850 139 1990 511 
C 2003 233 2182 -18 2464 -18 
C 2598 -18 2938 70 2938 567 
L 2938 920 
L 2822 920 
L 2822 562 
C 2822 178 2650 128 2566 128 
C 2304 128 2304 458 2304 738 
L 2304 1653 
z
M 1965 870 
C 1965 317 1568 38 1216 38 
C 896 38 646 275 646 570 
C 646 761 730 1100 1101 1305 
C 1408 1478 1760 1504 1965 1504 
L 1965 870 
z
" transform="scale(0.015625)"/>
       <path id="CMR17-6e" d="M 2656 1933 
C 2656 2259 2592 2790 1837 2790 
C 1331 2790 1069 2400 973 2144 
L 966 2144 
L 966 2790 
L 211 2720 
L 211 2554 
C 589 2554 646 2515 646 2208 
L 646 428 
C 646 184 621 153 211 153 
L 211 -13 
C 365 0 646 0 813 0 
C 979 0 1267 0 1421 -13 
L 1421 153 
C 1011 153 986 178 986 428 
L 986 1658 
C 986 2247 1344 2688 1792 2688 
C 2266 2688 2317 2266 2317 1958 
L 2317 428 
C 2317 184 2291 153 1882 153 
L 1882 -13 
C 2035 0 2317 0 2483 0 
C 2650 0 2938 0 3091 -13 
L 3091 153 
C 2682 153 2656 178 2656 428 
L 2656 1933 
z
" transform="scale(0.015625)"/>
       <path id="CMR17-63" d="M 2234 2240 
C 2112 2240 1933 2240 1933 2017 
C 1933 1838 2080 1787 2163 1787 
C 2208 1787 2394 1807 2394 2024 
C 2394 2467 1958 2803 1466 2803 
C 787 2803 211 2178 211 1363 
C 211 516 813 -64 1466 -64 
C 2259 -64 2458 677 2458 748 
C 2458 774 2451 793 2406 793 
C 2362 793 2355 787 2330 703 
C 2163 180 1798 51 1523 51 
C 1114 51 621 427 621 1369 
C 621 2338 1094 2688 1472 2688 
C 1722 2688 2093 2573 2234 2240 
z
" transform="scale(0.015625)"/>
       <path id="CMR17-65" d="M 2438 1472 
C 2464 1498 2464 1511 2464 1576 
C 2464 2238 2118 2816 1389 2816 
C 710 2816 173 2169 173 1383 
C 173 551 781 -64 1459 -64 
C 2176 -64 2458 607 2458 740 
C 2458 784 2419 784 2406 784 
C 2362 784 2355 771 2330 696 
C 2189 265 1837 51 1504 51 
C 1229 51 954 203 781 480 
C 582 803 582 1176 582 1472 
L 2438 1472 
z
M 589 1568 
C 634 2505 1126 2714 1382 2714 
C 1818 2714 2112 2297 2118 1568 
L 589 1568 
z
" transform="scale(0.015625)"/>
       <path id="CMR17-5b" d="M 1504 -1600 
L 1504 -1377 
L 902 -1377 
L 902 4544 
L 1504 4544 
L 1504 4767 
L 678 4767 
L 678 -1600 
L 1504 -1600 
z
" transform="scale(0.015625)"/>
       <path id="CMR17-6b" d="M 1670 1673 
C 1664 1686 1632 1724 1632 1743 
C 1632 1756 2086 2171 2144 2222 
C 2509 2528 2739 2560 2906 2560 
L 2906 2733 
C 2867 2733 2854 2733 2848 2720 
L 2534 2720 
C 2355 2720 2080 2720 1907 2733 
L 1907 2566 
C 1997 2559 2061 2508 2061 2419 
C 2061 2291 1933 2170 1926 2170 
L 960 1289 
L 960 4396 
L 198 4326 
L 198 4160 
C 576 4160 634 4122 634 3817 
L 634 426 
C 634 184 608 153 198 153 
L 198 -13 
C 352 0 634 0 794 0 
C 954 0 1235 0 1389 -13 
L 1389 153 
C 979 153 954 178 954 428 
L 954 1130 
L 1395 1532 
L 2042 574 
C 2118 459 2182 369 2182 286 
C 2182 172 2067 153 1990 153 
L 1990 -13 
C 2144 0 2419 0 2579 0 
C 2694 0 2931 0 3040 0 
L 3040 153 
C 2739 153 2669 210 2477 491 
L 1670 1673 
z
" transform="scale(0.015625)"/>
       <path id="CMR17-70" d="M 1408 -1063 
C 998 -1063 973 -1037 973 -789 
L 973 402 
C 1158 134 1427 -38 1766 -38 
C 2406 -38 3053 523 3053 1388 
C 3053 2191 2496 2802 1837 2802 
C 1453 2802 1139 2592 960 2338 
L 960 2802 
L 198 2732 
L 198 2567 
C 576 2567 634 2528 634 2223 
L 634 -789 
C 634 -1031 608 -1063 198 -1063 
L 198 -1228 
C 352 -1216 634 -1216 800 -1216 
C 966 -1216 1254 -1216 1408 -1228 
L 1408 -1063 
z
M 973 2012 
C 973 2102 973 2235 1222 2471 
C 1254 2497 1472 2688 1792 2688 
C 2259 2688 2643 2108 2643 1382 
C 2643 656 2234 64 1728 64 
C 1498 64 1248 172 1056 472 
C 973 612 973 650 973 752 
L 973 2012 
z
" transform="scale(0.015625)"/>
       <path id="CMR17-5d" d="M 915 4767 
L 90 4767 
L 90 4544 
L 691 4544 
L 691 -1377 
L 90 -1377 
L 90 -1600 
L 915 -1600 
L 915 4767 
z
" transform="scale(0.015625)"/>
      </defs>
      <use xlink:href="#CMR17-44" transform="scale(0.996264)"/>
      <use xlink:href="#CMR17-69" transform="translate(70.393556 0)scale(0.996264)"/>
      <use xlink:href="#CMR17-73" transform="translate(95.264614 0)scale(0.996264)"/>
      <use xlink:href="#CMR17-74" transform="translate(131.065952 0)scale(0.996264)"/>
      <use xlink:href="#CMR17-61" transform="translate(166.34672 0)scale(0.996264)"/>
      <use xlink:href="#CMR17-6e" transform="translate(212.037197 0)scale(0.996264)"/>
      <use xlink:href="#CMR17-63" transform="translate(262.932567 0)scale(0.996264)"/>
      <use xlink:href="#CMR17-65" transform="translate(303.418227 0)scale(0.996264)"/>
      <use xlink:href="#CMR17-5b" transform="translate(373.979854 0)scale(0.996264)"/>
      <use xlink:href="#CMR17-6b" transform="translate(398.850912 0)scale(0.996264)"/>
      <use xlink:href="#CMR17-70" transform="translate(447.143828 0)scale(0.996264)"/>
      <use xlink:href="#CMR17-63" transform="translate(500.641637 0)scale(0.996264)"/>
      <use xlink:href="#CMR17-5d" transform="translate(541.127297 0)scale(0.996264)"/>
     </g>
    </g>
   </g>
   <g id="matplotlib.axis_2">
    <g id="ytick_1">
     <g id="line2d_13">
      <path d="M 43.853677 288.55109 
L 490.253677 288.55109 
" clip-path="url(#p259affedd6)" style="fill: none; stroke-dasharray: 2.96,1.28; stroke-dashoffset: 0; stroke: #808080; stroke-opacity: 0.4; stroke-width: 0.8"/>
     </g>
     <g id="line2d_14">
      <defs>
       <path id="mdae5a3836d" d="M 0 0 
L -3.5 0 
" style="stroke: #000000; stroke-width: 0.8"/>
      </defs>
      <g>
       <use xlink:href="#mdae5a3836d" x="43.853677" y="288.55109" style="stroke: #000000; stroke-width: 0.8"/>
      </g>
     </g>
     <g id="text_8">
      <!-- $\mathdefault{4}$ -->
      <g transform="translate(31.000686 292.70218)scale(0.12 -0.12)">
       <use xlink:href="#CMR17-34" transform="scale(0.996264)"/>
      </g>
     </g>
    </g>
    <g id="ytick_2">
     <g id="line2d_15">
      <path d="M 43.853677 253.90109 
L 490.253677 253.90109 
" clip-path="url(#p259affedd6)" style="fill: none; stroke-dasharray: 2.96,1.28; stroke-dashoffset: 0; stroke: #808080; stroke-opacity: 0.4; stroke-width: 0.8"/>
     </g>
     <g id="line2d_16">
      <g>
       <use xlink:href="#mdae5a3836d" x="43.853677" y="253.90109" style="stroke: #000000; stroke-width: 0.8"/>
      </g>
     </g>
     <g id="text_9">
      <!-- $\mathdefault{6}$ -->
      <g transform="translate(31.000686 258.05218)scale(0.12 -0.12)">
       <use xlink:href="#CMR17-36" transform="scale(0.996264)"/>
      </g>
     </g>
    </g>
    <g id="ytick_3">
     <g id="line2d_17">
      <path d="M 43.853677 219.25109 
L 490.253677 219.25109 
" clip-path="url(#p259affedd6)" style="fill: none; stroke-dasharray: 2.96,1.28; stroke-dashoffset: 0; stroke: #808080; stroke-opacity: 0.4; stroke-width: 0.8"/>
     </g>
     <g id="line2d_18">
      <g>
       <use xlink:href="#mdae5a3836d" x="43.853677" y="219.25109" style="stroke: #000000; stroke-width: 0.8"/>
      </g>
     </g>
     <g id="text_10">
      <!-- $\mathdefault{8}$ -->
      <g transform="translate(31.000686 223.40218)scale(0.12 -0.12)">
       <use xlink:href="#CMR17-38" transform="scale(0.996264)"/>
      </g>
     </g>
    </g>
    <g id="ytick_4">
     <g id="line2d_19">
      <path d="M 43.853677 184.60109 
L 490.253677 184.60109 
" clip-path="url(#p259affedd6)" style="fill: none; stroke-dasharray: 2.96,1.28; stroke-dashoffset: 0; stroke: #808080; stroke-opacity: 0.4; stroke-width: 0.8"/>
     </g>
     <g id="line2d_20">
      <g>
       <use xlink:href="#mdae5a3836d" x="43.853677" y="184.60109" style="stroke: #000000; stroke-width: 0.8"/>
      </g>
     </g>
     <g id="text_11">
      <!-- $\mathdefault{10}$ -->
      <g transform="translate(25.147696 188.75218)scale(0.12 -0.12)">
       <use xlink:href="#CMR17-31" transform="scale(0.996264)"/>
       <use xlink:href="#CMR17-30" transform="translate(45.690477 0)scale(0.996264)"/>
      </g>
     </g>
    </g>
    <g id="ytick_5">
     <g id="line2d_21">
      <path d="M 43.853677 149.95109 
L 490.253677 149.95109 
" clip-path="url(#p259affedd6)" style="fill: none; stroke-dasharray: 2.96,1.28; stroke-dashoffset: 0; stroke: #808080; stroke-opacity: 0.4; stroke-width: 0.8"/>
     </g>
     <g id="line2d_22">
      <g>
       <use xlink:href="#mdae5a3836d" x="43.853677" y="149.95109" style="stroke: #000000; stroke-width: 0.8"/>
      </g>
     </g>
     <g id="text_12">
      <!-- $\mathdefault{12}$ -->
      <g transform="translate(25.147696 154.10218)scale(0.12 -0.12)">
       <use xlink:href="#CMR17-31" transform="scale(0.996264)"/>
       <use xlink:href="#CMR17-32" transform="translate(45.690477 0)scale(0.996264)"/>
      </g>
     </g>
    </g>
    <g id="ytick_6">
     <g id="line2d_23">
      <path d="M 43.853677 115.30109 
L 490.253677 115.30109 
" clip-path="url(#p259affedd6)" style="fill: none; stroke-dasharray: 2.96,1.28; stroke-dashoffset: 0; stroke: #808080; stroke-opacity: 0.4; stroke-width: 0.8"/>
     </g>
     <g id="line2d_24">
      <g>
       <use xlink:href="#mdae5a3836d" x="43.853677" y="115.30109" style="stroke: #000000; stroke-width: 0.8"/>
      </g>
     </g>
     <g id="text_13">
      <!-- $\mathdefault{14}$ -->
      <g transform="translate(25.147696 119.45218)scale(0.12 -0.12)">
       <use xlink:href="#CMR17-31" transform="scale(0.996264)"/>
       <use xlink:href="#CMR17-34" transform="translate(45.690477 0)scale(0.996264)"/>
      </g>
     </g>
    </g>
    <g id="ytick_7">
     <g id="line2d_25">
      <path d="M 43.853677 80.65109 
L 490.253677 80.65109 
" clip-path="url(#p259affedd6)" style="fill: none; stroke-dasharray: 2.96,1.28; stroke-dashoffset: 0; stroke: #808080; stroke-opacity: 0.4; stroke-width: 0.8"/>
     </g>
     <g id="line2d_26">
      <g>
       <use xlink:href="#mdae5a3836d" x="43.853677" y="80.65109" style="stroke: #000000; stroke-width: 0.8"/>
      </g>
     </g>
     <g id="text_14">
      <!-- $\mathdefault{16}$ -->
      <g transform="translate(25.147696 84.80218)scale(0.12 -0.12)">
       <use xlink:href="#CMR17-31" transform="scale(0.996264)"/>
       <use xlink:href="#CMR17-36" transform="translate(45.690477 0)scale(0.996264)"/>
      </g>
     </g>
    </g>
    <g id="ytick_8">
     <g id="line2d_27">
      <path d="M 43.853677 46.00109 
L 490.253677 46.00109 
" clip-path="url(#p259affedd6)" style="fill: none; stroke-dasharray: 2.96,1.28; stroke-dashoffset: 0; stroke: #808080; stroke-opacity: 0.4; stroke-width: 0.8"/>
     </g>
     <g id="line2d_28">
      <g>
       <use xlink:href="#mdae5a3836d" x="43.853677" y="46.00109" style="stroke: #000000; stroke-width: 0.8"/>
      </g>
     </g>
     <g id="text_15">
      <!-- $\mathdefault{18}$ -->
      <g transform="translate(25.147696 50.15218)scale(0.12 -0.12)">
       <use xlink:href="#CMR17-31" transform="scale(0.996264)"/>
       <use xlink:href="#CMR17-38" transform="translate(45.690477 0)scale(0.996264)"/>
      </g>
     </g>
    </g>
    <g id="ytick_9">
     <g id="line2d_29">
      <path d="M 43.853677 11.35109 
L 490.253677 11.35109 
" clip-path="url(#p259affedd6)" style="fill: none; stroke-dasharray: 2.96,1.28; stroke-dashoffset: 0; stroke: #808080; stroke-opacity: 0.4; stroke-width: 0.8"/>
     </g>
     <g id="line2d_30">
      <g>
       <use xlink:href="#mdae5a3836d" x="43.853677" y="11.35109" style="stroke: #000000; stroke-width: 0.8"/>
      </g>
     </g>
     <g id="text_16">
      <!-- $\mathdefault{20}$ -->
      <g transform="translate(25.147696 15.50218)scale(0.12 -0.12)">
       <use xlink:href="#CMR17-32" transform="scale(0.996264)"/>
       <use xlink:href="#CMR17-30" transform="translate(45.690477 0)scale(0.996264)"/>
      </g>
     </g>
    </g>
    <g id="text_17">
     <!-- Average energy $\left \langle E_\nu \right \rangle$ -->
     <g transform="translate(17.660772 211.644651)rotate(-90)scale(0.14 -0.14)">
      <defs>
       <path id="CMR17-41" d="M 2323 4378 
C 2291 4461 2278 4480 2214 4480 
C 2150 4480 2138 4461 2106 4378 
L 749 566 
C 627 223 371 153 147 153 
L 147 -13 
C 262 0 518 0 640 0 
C 800 0 1056 0 1210 -13 
L 1210 153 
C 909 153 864 361 864 439 
C 864 497 877 530 890 569 
L 1229 1536 
L 2906 1536 
L 3290 442 
C 3322 365 3322 352 3322 327 
C 3322 153 3046 153 2925 153 
L 2925 0 
C 3110 0 3443 0 3642 0 
C 3808 0 4128 0 4282 -13 
L 4282 153 
C 3942 153 3827 153 3744 387 
L 2323 4378 
z
M 2067 3893 
L 2848 1702 
L 1286 1702 
L 2067 3893 
z
" transform="scale(0.015625)"/>
       <path id="CMR17-76" d="M 2502 2163 
C 2560 2304 2662 2560 3034 2560 
L 3034 2726 
C 2912 2726 2752 2726 2630 2726 
C 2496 2726 2285 2726 2157 2732 
L 2157 2566 
C 2317 2553 2406 2477 2406 2311 
C 2406 2253 2406 2240 2368 2151 
L 1664 377 
L 902 2286 
C 864 2369 864 2381 864 2407 
C 864 2560 1075 2560 1171 2560 
L 1171 2732 
C 1018 2726 736 2726 576 2726 
C 403 2726 205 2726 64 2732 
L 64 2560 
C 307 2560 442 2560 518 2362 
L 1446 44 
C 1485 -51 1491 -64 1549 -64 
C 1606 -64 1613 -51 1651 44 
L 2502 2163 
z
" transform="scale(0.015625)"/>
       <path id="CMR17-72" d="M 960 1497 
C 960 2112 1222 2688 1702 2688 
C 1747 2688 1792 2682 1837 2662 
C 1837 2662 1696 2617 1696 2452 
C 1696 2298 1818 2234 1914 2234 
C 1990 2234 2131 2279 2131 2458 
C 2131 2663 1926 2790 1709 2790 
C 1222 2790 1011 2317 947 2093 
L 941 2093 
L 941 2790 
L 198 2720 
L 198 2554 
C 576 2554 634 2515 634 2208 
L 634 428 
C 634 184 608 153 198 153 
L 198 -13 
C 352 0 646 0 813 0 
C 998 0 1325 0 1498 -13 
L 1498 153 
C 1037 153 960 153 960 440 
L 960 1497 
z
" transform="scale(0.015625)"/>
       <path id="CMR17-67" d="M 710 1164 
C 832 1068 1043 960 1299 960 
C 1805 960 2240 1357 2240 1888 
C 2240 2054 2189 2310 1997 2509 
C 2176 2692 2438 2752 2586 2752 
C 2611 2752 2650 2752 2682 2734 
C 2656 2728 2598 2703 2598 2605 
C 2598 2527 2656 2471 2739 2471 
C 2835 2471 2886 2533 2886 2614 
C 2886 2731 2790 2854 2586 2854 
C 2330 2854 2106 2738 1926 2580 
C 1734 2753 1504 2816 1299 2816 
C 794 2816 358 2419 358 1888 
C 358 1522 570 1292 634 1228 
C 442 1004 442 743 442 711 
C 442 545 506 302 723 168 
C 390 85 128 -169 128 -486 
C 128 -943 736 -1280 1466 -1280 
C 2170 -1280 2803 -956 2803 -479 
C 2803 384 1856 384 1363 384 
C 1216 384 954 384 922 391 
C 723 423 589 602 589 826 
C 589 883 589 1024 710 1164 
z
M 1299 1068 
C 736 1068 736 1760 736 1889 
C 736 2016 736 2708 1299 2708 
C 1862 2708 1862 2016 1862 1889 
C 1862 1760 1862 1068 1299 1068 
z
M 1466 -1171 
C 826 -1171 384 -835 384 -486 
C 384 -289 493 -105 634 -4 
C 794 104 858 104 1293 104 
C 1818 104 2547 104 2547 -486 
C 2547 -835 2106 -1171 1466 -1171 
z
" transform="scale(0.015625)"/>
       <path id="CMR17-79" d="M 2496 2197 
C 2656 2586 2944 2586 3034 2586 
L 3034 2752 
C 2912 2752 2752 2752 2630 2752 
C 2496 2752 2285 2752 2157 2758 
L 2157 2592 
C 2400 2573 2406 2394 2406 2343 
C 2406 2280 2394 2248 2362 2171 
L 1664 449 
L 902 2306 
C 870 2382 870 2426 870 2433 
C 870 2573 1018 2586 1171 2586 
L 1171 2758 
C 1018 2752 742 2752 582 2752 
C 410 2752 205 2752 64 2758 
L 64 2586 
C 410 2586 448 2554 531 2350 
L 1485 15 
C 1197 -738 1030 -1178 627 -1178 
C 557 -1178 397 -1159 282 -1044 
C 429 -1031 493 -942 493 -833 
C 493 -725 416 -629 288 -629 
C 147 -629 77 -725 77 -840 
C 77 -1095 339 -1280 627 -1280 
C 998 -1280 1229 -922 1357 -604 
L 2496 2197 
z
" transform="scale(0.015625)"/>
       <path id="CMSY10-68" d="M 2099 4557 
C 2131 4627 2131 4640 2131 4672 
C 2131 4742 2074 4800 2003 4800 
C 1946 4800 1901 4768 1856 4653 
L 736 1715 
C 723 1677 704 1638 704 1600 
C 704 1581 704 1568 736 1491 
L 1856 -1446 
C 1882 -1517 1914 -1600 2003 -1600 
C 2074 -1600 2131 -1542 2131 -1472 
C 2131 -1453 2131 -1440 2099 -1370 
L 966 1600 
L 2099 4557 
z
" transform="scale(0.015625)"/>
       <path id="CMMI12-45" d="M 4448 1489 
C 4454 1508 4474 1554 4474 1579 
C 4474 1611 4448 1643 4410 1643 
C 4384 1643 4371 1637 4352 1617 
C 4339 1611 4339 1598 4282 1469 
C 3904 570 3629 185 2605 185 
L 1670 185 
C 1581 185 1568 185 1530 192 
C 1459 198 1453 211 1453 262 
C 1453 307 1466 345 1478 403 
L 1920 2176 
L 2554 2176 
C 3053 2176 3091 2066 3091 1874 
C 3091 1810 3091 1752 3046 1560 
C 3034 1534 3027 1508 3027 1489 
C 3027 1444 3059 1425 3098 1425 
C 3155 1425 3162 1469 3187 1559 
L 3552 3042 
C 3552 3073 3526 3105 3488 3105 
C 3430 3105 3424 3080 3398 2990 
C 3270 2501 3142 2361 2573 2361 
L 1965 2361 
L 2362 3930 
C 2419 4154 2432 4154 2694 4154 
L 3610 4154 
C 4397 4154 4557 3943 4557 3458 
C 4557 3451 4557 3273 4531 3062 
C 4525 3036 4518 2998 4518 2985 
C 4518 2934 4550 2915 4589 2915 
C 4634 2915 4659 2941 4672 3055 
L 4806 4174 
C 4806 4195 4819 4263 4819 4277 
C 4819 4352 4762 4352 4646 4352 
L 1523 4352 
C 1402 4352 1338 4352 1338 4229 
C 1338 4154 1382 4154 1491 4154 
C 1888 4154 1888 4114 1888 4052 
C 1888 4020 1882 3994 1862 3924 
L 998 473 
C 941 249 928 185 480 185 
C 358 185 294 185 294 70 
C 294 0 333 0 461 0 
L 3674 0 
C 3814 0 3821 6 3866 110 
L 4448 1489 
z
" transform="scale(0.015625)"/>
       <path id="CMMI12-17" d="M 1408 2753 
C 1408 2778 1389 2816 1338 2816 
C 1293 2816 691 2751 595 2751 
C 525 2744 461 2738 461 2623 
C 461 2560 512 2560 602 2560 
C 902 2560 922 2515 922 2445 
C 922 2419 909 2343 902 2318 
L 339 64 
C 339 38 358 0 403 0 
L 538 0 
C 627 0 1600 230 2349 996 
C 3174 1846 3290 2632 3290 2657 
C 3290 2759 3206 2816 3123 2816 
C 2938 2816 2893 2644 2880 2599 
C 2502 1264 1626 473 774 192 
L 1408 2753 
z
" transform="scale(0.015625)"/>
       <path id="CMSY10-69" d="M 1747 1491 
C 1779 1568 1779 1581 1779 1600 
C 1779 1619 1779 1632 1747 1709 
L 627 4653 
C 589 4762 550 4800 480 4800 
C 410 4800 352 4742 352 4672 
C 352 4653 352 4640 384 4570 
L 1517 1600 
L 384 -1357 
C 352 -1427 352 -1440 352 -1472 
C 352 -1542 410 -1600 480 -1600 
C 563 -1600 589 -1536 614 -1472 
L 1747 1491 
z
" transform="scale(0.015625)"/>
      </defs>
      <use xlink:href="#CMR17-41" transform="scale(0.996264)"/>
      <use xlink:href="#CMR17-76" transform="translate(69.07243 0)scale(0.996264)"/>
      <use xlink:href="#CMR17-65" transform="translate(114.762892 0)scale(0.996264)"/>
      <use xlink:href="#CMR17-72" transform="translate(155.248552 0)scale(0.996264)"/>
      <use xlink:href="#CMR17-61" transform="translate(190.52932 0)scale(0.996264)"/>
      <use xlink:href="#CMR17-67" transform="translate(236.219797 0)scale(0.996264)"/>
      <use xlink:href="#CMR17-65" transform="translate(281.910274 0)scale(0.996264)"/>
      <use xlink:href="#CMR17-65" transform="translate(352.471901 0)scale(0.996264)"/>
      <use xlink:href="#CMR17-6e" transform="translate(392.957561 0)scale(0.996264)"/>
      <use xlink:href="#CMR17-65" transform="translate(443.852931 0)scale(0.996264)"/>
      <use xlink:href="#CMR17-72" transform="translate(484.338592 0)scale(0.996264)"/>
      <use xlink:href="#CMR17-67" transform="translate(519.61936 0)scale(0.996264)"/>
      <use xlink:href="#CMR17-79" transform="translate(565.309837 0)scale(0.996264)"/>
      <use xlink:href="#CMSY10-68" transform="translate(643.678719 0)scale(0.996264)"/>
      <use xlink:href="#CMMI12-45" transform="translate(682.422453 0)scale(0.996264)"/>
      <use xlink:href="#CMMI12-17" transform="translate(754.63367 -14.943915)scale(0.697382)"/>
      <use xlink:href="#CMSY10-69" transform="translate(793.269593 0)scale(0.996264)"/>
     </g>
    </g>
   </g>
   <g id="PolyCollection_1">
    <defs>
     <path id="mfd8ab6efa3" d="M 48.317677 -206.379828 
L 48.317677 -202.592183 
L 52.781677 -202.150639 
L 61.709677 -201.352021 
L 70.637677 -200.411684 
L 79.565677 -196.368666 
L 88.493677 -198.914464 
L 97.421677 -198.743224 
L 106.349677 -195.035952 
L 115.277677 -188.232226 
L 124.205677 -188.850119 
L 133.133677 -185.769104 
L 142.061677 -183.920987 
L 150.989677 -186.616915 
L 159.917677 -175.777566 
L 168.845677 -181.078978 
L 177.773677 -176.657127 
L 186.701677 -178.6677 
L 195.629677 -181.05819 
L 204.557677 -173.173541 
L 213.485677 -177.685805 
L 222.413677 -173.766537 
L 231.341677 -181.257256 
L 240.269677 -177.757781 
L 249.197677 -167.787148 
L 258.125677 -175.081618 
L 267.053677 -153.233563 
L 275.981677 -165.926989 
L 284.909677 -151.755071 
L 293.837677 -156.427529 
L 302.765677 -146.455034 
L 311.693677 -157.983214 
L 320.621677 -160.04961 
L 329.549677 -130.145778 
L 338.477677 -136.992398 
L 347.405677 -165.333335 
L 356.333677 -156.127602 
L 365.261677 -150.957082 
L 374.189677 -169.287379 
L 383.117677 -127.453805 
L 392.045677 -146.035074 
L 400.973677 -113.140441 
L 409.901677 -144.665952 
L 418.829677 -147.085032 
L 427.757677 -117.1722 
L 436.685677 -123.197029 
L 445.613677 -149.92318 
L 454.541677 -98.838904 
L 463.469677 -162.230681 
L 472.397677 -140.463698 
L 481.325677 -130.956265 
L 490.253677 -148.396329 
L 490.253677 -277.517037 
L 490.253677 -277.517037 
L 481.325677 -286.735158 
L 472.397677 -274.332125 
L 463.469677 -268.35432 
L 454.541677 -252.796038 
L 445.613677 -255.682162 
L 436.685677 -280.897106 
L 427.757677 -272.82456 
L 418.829677 -273.424704 
L 409.901677 -248.082494 
L 400.973677 -245.42299 
L 392.045677 -264.125892 
L 383.117677 -253.687796 
L 374.189677 -263.743493 
L 365.261677 -270.727492 
L 356.333677 -264.828751 
L 347.405677 -250.496098 
L 338.477677 -252.189904 
L 329.549677 -235.500174 
L 320.621677 -236.963163 
L 311.693677 -265.156238 
L 302.765677 -228.286328 
L 293.837677 -242.790948 
L 284.909677 -247.581468 
L 275.981677 -232.034791 
L 267.053677 -247.512429 
L 258.125677 -237.768011 
L 249.197677 -236.721008 
L 240.269677 -235.264346 
L 231.341677 -230.807989 
L 222.413677 -234.403023 
L 213.485677 -222.449114 
L 204.557677 -227.001454 
L 195.629677 -227.665939 
L 186.701677 -232.381972 
L 177.773677 -234.386362 
L 168.845677 -217.849371 
L 159.917677 -227.355395 
L 150.989677 -223.235675 
L 142.061677 -221.339144 
L 133.133677 -218.060186 
L 124.205677 -215.509528 
L 115.277677 -213.899376 
L 106.349677 -218.766505 
L 97.421677 -218.471121 
L 88.493677 -214.985805 
L 79.565677 -212.140438 
L 70.637677 -208.877792 
L 61.709677 -208.084528 
L 52.781677 -207.422269 
L 48.317677 -206.379828 
z
" style="stroke: #f57d15; stroke-opacity: 0.5"/>
    </defs>
    <g clip-path="url(#p259affedd6)">
     <use xlink:href="#mfd8ab6efa3" x="0" y="331.325562" style="fill: #f57d15; fill-opacity: 0.5; stroke: #f57d15; stroke-opacity: 0.5"/>
    </g>
   </g>
   <g id="PolyCollection_2">
    <defs>
     <path id="m0c2fcd89eb" d="M 48.317677 -205.705285 
L 48.317677 -203.381564 
L 52.781677 -203.12722 
L 61.709677 -202.34805 
L 70.637677 -202.178871 
L 79.565677 -198.217862 
L 88.493677 -200.990842 
L 97.421677 -200.37012 
L 106.349677 -197.154445 
L 115.277677 -191.651606 
L 124.205677 -192.045652 
L 133.133677 -191.198873 
L 142.061677 -188.763488 
L 150.989677 -192.233662 
L 159.917677 -182.085809 
L 168.845677 -185.708366 
L 177.773677 -184.992449 
L 186.701677 -184.377636 
L 195.629677 -187.165695 
L 204.557677 -180.412882 
L 213.485677 -185.050609 
L 222.413677 -183.803814 
L 231.341677 -188.678129 
L 240.269677 -183.814525 
L 249.197677 -181.631516 
L 258.125677 -185.96181 
L 267.053677 -164.496244 
L 275.981677 -176.305496 
L 284.909677 -171.18128 
L 293.837677 -171.628584 
L 302.765677 -164.362103 
L 311.693677 -175.172896 
L 320.621677 -175.923425 
L 329.549677 -145.085522 
L 338.477677 -151.366098 
L 347.405677 -177.018931 
L 356.333677 -175.25412 
L 365.261677 -165.058382 
L 374.189677 -178.619494 
L 383.117677 -156.183831 
L 392.045677 -164.177153 
L 400.973677 -136.470764 
L 409.901677 -161.142025 
L 418.829677 -165.136997 
L 427.757677 -137.503759 
L 436.685677 -152.215835 
L 445.613677 -161.553907 
L 454.541677 -112.997407 
L 463.469677 -180.136116 
L 472.397677 -172.040243 
L 481.325677 -149.088332 
L 490.253677 -163.952556 
L 490.253677 -258.135837 
L 490.253677 -258.135837 
L 481.325677 -259.827924 
L 472.397677 -263.655482 
L 463.469677 -253.860045 
L 454.541677 -236.642706 
L 445.613677 -243.512472 
L 436.685677 -266.822813 
L 427.757677 -244.861479 
L 418.829677 -260.483657 
L 409.901677 -236.333266 
L 400.973677 -237.537299 
L 392.045677 -247.921067 
L 383.117677 -231.865202 
L 374.189677 -247.734266 
L 365.261677 -257.019962 
L 356.333677 -254.566542 
L 347.405677 -237.26682 
L 338.477677 -242.950836 
L 329.549677 -225.46193 
L 320.621677 -225.005131 
L 311.693677 -257.151823 
L 302.765677 -218.868248 
L 293.837677 -235.322478 
L 284.909677 -242.103453 
L 275.981677 -218.600263 
L 267.053677 -234.239008 
L 258.125677 -228.559144 
L 249.197677 -226.09042 
L 240.269677 -221.39668 
L 231.341677 -223.362655 
L 222.413677 -226.824181 
L 213.485677 -217.523896 
L 204.557677 -221.479256 
L 195.629677 -222.950351 
L 186.701677 -224.961967 
L 177.773677 -225.686616 
L 168.845677 -212.427849 
L 159.917677 -219.078238 
L 150.989677 -218.334873 
L 142.061677 -217.812768 
L 133.133677 -214.791659 
L 124.205677 -211.070448 
L 115.277677 -211.286095 
L 106.349677 -213.300614 
L 97.421677 -215.653715 
L 88.493677 -212.662813 
L 79.565677 -211.055094 
L 70.637677 -207.657154 
L 61.709677 -207.415712 
L 52.781677 -206.635311 
L 48.317677 -205.705285 
z
" style="stroke: #9f2a63; stroke-opacity: 0.6"/>
    </defs>
    <g clip-path="url(#p259affedd6)">
     <use xlink:href="#m0c2fcd89eb" x="0" y="331.325562" style="fill: #9f2a63; fill-opacity: 0.6; stroke: #9f2a63; stroke-opacity: 0.6"/>
    </g>
   </g>
   <g id="PolyCollection_3">
    <defs>
     <path id="md0cf9d94d5" d="M 48.317677 -205.142461 
L 48.317677 -203.951591 
L 52.781677 -204.041753 
L 61.709677 -203.559802 
L 70.637677 -203.611301 
L 79.565677 -200.798481 
L 88.493677 -203.328842 
L 97.421677 -203.029713 
L 106.349677 -200.430027 
L 115.277677 -196.366545 
L 124.205677 -196.052126 
L 133.133677 -198.005695 
L 142.061677 -195.515308 
L 150.989677 -198.610946 
L 159.917677 -192.959166 
L 168.845677 -193.422663 
L 177.773677 -192.67555 
L 186.701677 -196.648921 
L 195.629677 -195.00773 
L 204.557677 -189.787333 
L 213.485677 -191.893147 
L 222.413677 -193.936087 
L 231.341677 -196.487853 
L 240.269677 -193.721206 
L 249.197677 -192.558434 
L 258.125677 -197.09663 
L 267.053677 -181.808248 
L 275.981677 -186.131525 
L 284.909677 -190.314029 
L 293.837677 -193.645926 
L 302.765677 -180.11493 
L 311.693677 -187.676425 
L 320.621677 -188.166664 
L 329.549677 -163.645565 
L 338.477677 -174.505269 
L 347.405677 -190.138629 
L 356.333677 -191.79494 
L 365.261677 -183.523563 
L 374.189677 -195.063112 
L 383.117677 -177.761592 
L 392.045677 -184.411843 
L 400.973677 -163.01651 
L 409.901677 -182.299284 
L 418.829677 -182.044896 
L 427.757677 -160.190153 
L 436.685677 -180.427563 
L 445.613677 -181.011298 
L 454.541677 -145.725636 
L 463.469677 -198.345753 
L 472.397677 -191.577501 
L 481.325677 -172.371303 
L 490.253677 -182.537218 
L 490.253677 -238.23597 
L 490.253677 -238.23597 
L 481.325677 -231.71283 
L 472.397677 -246.29984 
L 463.469677 -235.134253 
L 454.541677 -218.931179 
L 445.613677 -224.568103 
L 436.685677 -249.917628 
L 427.757677 -219.435456 
L 418.829677 -242.432686 
L 409.901677 -221.328194 
L 400.973677 -223.034234 
L 392.045677 -232.919601 
L 383.117677 -217.536812 
L 374.189677 -231.832647 
L 365.261677 -237.875585 
L 356.333677 -236.54889 
L 347.405677 -222.295895 
L 338.477677 -231.072583 
L 329.549677 -212.228961 
L 320.621677 -211.234368 
L 311.693677 -238.309767 
L 302.765677 -207.415961 
L 293.837677 -227.703463 
L 284.909677 -233.064735 
L 275.981677 -208.810343 
L 267.053677 -221.636885 
L 258.125677 -219.081277 
L 249.197677 -215.58575 
L 240.269677 -212.452026 
L 231.341677 -215.990433 
L 222.413677 -219.134255 
L 213.485677 -211.015187 
L 204.557677 -210.510896 
L 195.629677 -215.621166 
L 186.701677 -217.543709 
L 177.773677 -215.088801 
L 168.845677 -206.497231 
L 159.917677 -212.812056 
L 150.989677 -213.927226 
L 142.061677 -212.601555 
L 133.133677 -210.721831 
L 124.205677 -207.346127 
L 115.277677 -207.493954 
L 106.349677 -208.744546 
L 97.421677 -211.979711 
L 88.493677 -209.711366 
L 79.565677 -209.308138 
L 70.637677 -206.535651 
L 61.709677 -206.376413 
L 52.781677 -205.920351 
L 48.317677 -205.142461 
z
" style="stroke: #280b53; stroke-opacity: 0.6"/>
    </defs>
    <g clip-path="url(#p259affedd6)">
     <use xlink:href="#md0cf9d94d5" x="0" y="331.325562" style="fill: #280b53; fill-opacity: 0.6; stroke: #280b53; stroke-opacity: 0.6"/>
    </g>
   </g>
   <g id="line2d_31">
    <path d="M 48.317677 126.777978 
L 52.781677 126.349002 
L 61.709677 126.333876 
L 70.637677 126.247186 
L 79.565677 126.0487 
L 88.493677 124.679837 
L 97.421677 124.648502 
L 106.349677 126.839624 
L 115.277677 128.613332 
L 124.205677 129.951133 
L 133.133677 126.160648 
L 142.061677 127.318802 
L 150.989677 124.67428 
L 159.917677 127.61061 
L 168.845677 131.084704 
L 177.773677 127.699978 
L 186.701677 123.704794 
L 195.629677 126.047331 
L 204.557677 132.004295 
L 213.485677 129.759547 
L 222.413677 123.450171 
L 231.341677 124.930973 
L 240.269677 127.962552 
L 249.197677 127.573076 
L 258.125677 122.979811 
L 267.053677 128.706414 
L 275.981677 133.505577 
L 284.909677 118.969321 
L 293.837677 118.094612 
L 302.765677 137.526769 
L 311.693677 123.902714 
L 320.621677 131.305008 
L 329.549677 142.818343 
L 338.477677 125.27969 
L 347.405677 125.463312 
L 356.333677 115.933514 
L 365.261677 122.918885 
L 374.189677 118.451591 
L 383.117677 133.818981 
L 392.045677 122.850711 
L 400.973677 135.328041 
L 409.901677 129.89096 
L 418.829677 122.873696 
L 427.757677 141.977365 
L 436.685677 116.507587 
L 445.613677 128.564005 
L 454.541677 147.507963 
L 463.469677 115.165386 
L 472.397677 110.578678 
L 481.325677 128.816802 
L 490.253677 122.98335 
" clip-path="url(#p259affedd6)" style="fill: none; stroke: #ff7f0e; stroke-width: 2; stroke-linecap: square"/>
   </g>
   <g id="line2d_32">
    <path d="M 43.853677 127.42859 
L 490.253677 127.42859 
" clip-path="url(#p259affedd6)" style="fill: none; stroke-dasharray: 5.55,2.4; stroke-dashoffset: 0; stroke: #000000; stroke-width: 1.5"/>
   </g>
   <g id="patch_3">
    <path d="M 43.853677 288.55109 
L 43.853677 11.35109 
" style="fill: none; stroke: #000000; stroke-width: 0.8; stroke-linejoin: miter; stroke-linecap: square"/>
   </g>
   <g id="patch_4">
    <path d="M 490.253677 288.55109 
L 490.253677 11.35109 
" style="fill: none; stroke: #000000; stroke-width: 0.8; stroke-linejoin: miter; stroke-linecap: square"/>
   </g>
   <g id="patch_5">
    <path d="M 43.853677 288.55109 
L 490.253677 288.55109 
" style="fill: none; stroke: #000000; stroke-width: 0.8; stroke-linejoin: miter; stroke-linecap: square"/>
   </g>
   <g id="patch_6">
    <path d="M 43.853677 11.35109 
L 490.253677 11.35109 
" style="fill: none; stroke: #000000; stroke-width: 0.8; stroke-linejoin: miter; stroke-linecap: square"/>
   </g>
   <g id="legend_1">
    <g id="patch_7">
     <path d="M 52.253677 54.400281 
L 192.947418 54.400281 
Q 195.347418 54.400281 195.347418 52.000281 
L 195.347418 19.75109 
Q 195.347418 17.35109 192.947418 17.35109 
L 52.253677 17.35109 
Q 49.853677 17.35109 49.853677 19.75109 
L 49.853677 52.000281 
Q 49.853677 54.400281 52.253677 54.400281 
z
" style="fill: #ffffff; opacity: 0.8; stroke: #cccccc; stroke-linejoin: miter"/>
    </g>
    <g id="line2d_33">
     <path d="M 54.653677 26.35109 
L 66.653677 26.35109 
L 78.653677 26.35109 
" style="fill: none; stroke: #ff7f0e; stroke-width: 2; stroke-linecap: square"/>
    </g>
    <g id="text_18">
     <!-- Mean -->
     <g transform="translate(88.253677 30.55109)scale(0.12 -0.12)">
      <defs>
       <path id="CMR17-4d" d="M 1338 4224 
C 1299 4320 1293 4320 1158 4320 
L 339 4320 
L 339 4160 
C 781 4160 851 4160 851 3875 
L 851 610 
C 851 451 851 153 339 153 
L 339 -13 
C 486 0 755 0 915 0 
C 1075 0 1344 0 1491 -13 
L 1491 153 
C 979 153 979 451 979 610 
L 979 4135 
L 986 4135 
L 2490 89 
C 2515 25 2528 -13 2579 -13 
C 2630 -13 2643 25 2669 89 
L 4186 4166 
L 4192 4166 
L 4192 438 
C 4192 153 4122 153 3680 153 
L 3680 -13 
C 3853 0 4198 0 4384 0 
C 4570 0 4922 0 5094 -13 
L 5094 153 
C 4653 153 4582 153 4582 438 
L 4582 3875 
C 4582 4160 4653 4160 5094 4160 
L 5094 4320 
L 4282 4320 
C 4147 4320 4141 4314 4102 4218 
L 2720 502 
L 1338 4224 
z
" transform="scale(0.015625)"/>
      </defs>
      <use xlink:href="#CMR17-4d" transform="scale(0.996264)"/>
      <use xlink:href="#CMR17-65" transform="translate(84.686941 0)scale(0.996264)"/>
      <use xlink:href="#CMR17-61" transform="translate(125.172601 0)scale(0.996264)"/>
      <use xlink:href="#CMR17-6e" transform="translate(170.863078 0)scale(0.996264)"/>
     </g>
    </g>
    <g id="patch_8">
     <path d="M 54.653677 47.275686 
L 78.653677 47.275686 
L 78.653677 38.875686 
L 54.653677 38.875686 
z
" style="fill: #f57d15; fill-opacity: 0.5; stroke: #f57d15; stroke-opacity: 0.5; stroke-linejoin: miter"/>
    </g>
    <g id="text_19">
     <!-- 3 $\sigma$ -->
     <g transform="translate(88.253677 47.275686)scale(0.12 -0.12)">
      <defs>
       <path id="CMR17-33" d="M 1414 2157 
C 1984 2157 2234 1662 2234 1090 
C 2234 320 1824 25 1453 25 
C 1114 25 563 194 390 693 
C 422 680 454 680 486 680 
C 640 680 755 782 755 948 
C 755 1133 614 1216 486 1216 
C 378 1216 211 1165 211 926 
C 211 335 787 -128 1466 -128 
C 2176 -128 2720 430 2720 1085 
C 2720 1707 2208 2157 1600 2227 
C 2086 2328 2554 2756 2554 3329 
C 2554 3820 2048 4179 1472 4179 
C 890 4179 378 3829 378 3329 
C 378 3110 544 3072 627 3072 
C 762 3072 877 3155 877 3321 
C 877 3486 762 3569 627 3569 
C 602 3569 570 3569 544 3557 
C 730 3959 1235 4032 1459 4032 
C 1683 4032 2106 3925 2106 3320 
C 2106 3143 2080 2828 1862 2550 
C 1670 2304 1453 2304 1242 2284 
C 1210 2284 1062 2269 1037 2269 
C 992 2263 966 2257 966 2208 
C 966 2163 973 2157 1101 2157 
L 1414 2157 
z
" transform="scale(0.015625)"/>
       <path id="CMMI12-1b" d="M 3251 2408 
C 3334 2408 3546 2408 3546 2612 
C 3546 2752 3424 2752 3309 2752 
L 1894 2752 
C 934 2752 243 1686 243 932 
C 243 390 595 -64 1171 -64 
C 1926 -64 2752 747 2752 1705 
C 2752 1954 2694 2196 2541 2408 
L 3251 2408 
z
M 1178 64 
C 851 64 614 313 614 754 
C 614 1137 845 2408 1786 2408 
C 2061 2408 2368 2274 2368 1781 
C 2368 1558 2266 1021 2042 652 
C 1811 275 1466 64 1178 64 
z
" transform="scale(0.015625)"/>
      </defs>
      <use xlink:href="#CMR17-33" transform="scale(0.996264)"/>
      <use xlink:href="#CMMI12-1b" transform="translate(75.766443 0)scale(0.996264)"/>
     </g>
    </g>
    <g id="patch_9">
     <path d="M 140.538979 30.55109 
L 164.538979 30.55109 
L 164.538979 22.15109 
L 140.538979 22.15109 
z
" style="fill: #9f2a63; fill-opacity: 0.6; stroke: #9f2a63; stroke-opacity: 0.6; stroke-linejoin: miter"/>
    </g>
    <g id="text_20">
     <!-- 2 $\sigma$ -->
     <g transform="translate(174.138979 30.55109)scale(0.12 -0.12)">
      <use xlink:href="#CMR17-32" transform="scale(0.996264)"/>
      <use xlink:href="#CMMI12-1b" transform="translate(75.766443 0)scale(0.996264)"/>
     </g>
    </g>
    <g id="patch_10">
     <path d="M 140.538979 47.275686 
L 164.538979 47.275686 
L 164.538979 38.875686 
L 140.538979 38.875686 
z
" style="fill: #280b53; fill-opacity: 0.6; stroke: #280b53; stroke-opacity: 0.6; stroke-linejoin: miter"/>
    </g>
    <g id="text_21">
     <!-- 1 $\sigma$ -->
     <g transform="translate(174.138979 47.275686)scale(0.12 -0.12)">
      <use xlink:href="#CMR17-31" transform="scale(0.996264)"/>
      <use xlink:href="#CMMI12-1b" transform="translate(75.766443 0)scale(0.996264)"/>
     </g>
    </g>
   </g>
  </g>
  <g id="text_22">
   <!-- True $\left \langle E_\nu \right \rangle$ -->
   <g transform="translate(496.013677 130.15109)scale(0.12 -0.12)">
    <defs>
     <path id="CMR17-54" d="M 3981 4326 
L 288 4326 
L 179 2918 
L 294 2918 
C 378 3976 467 4160 1453 4160 
C 1568 4160 1754 4160 1805 4154 
C 1926 4135 1926 4058 1926 3912 
L 1926 459 
C 1926 230 1907 160 1376 160 
L 1197 160 
L 1197 0 
C 1504 0 1824 0 2138 0 
C 2451 0 2771 0 3078 0 
L 3078 160 
L 2899 160 
C 2368 160 2349 230 2349 459 
L 2349 3912 
C 2349 4052 2349 4129 2464 4154 
C 2515 4160 2701 4160 2816 4160 
C 3795 4160 3891 3976 3974 2918 
L 4090 2918 
L 3981 4326 
z
" transform="scale(0.015625)"/>
     <path id="CMR17-75" d="M 1882 2693 
L 1882 2528 
C 2259 2528 2317 2489 2317 2186 
L 2317 1032 
C 2317 500 2029 38 1555 38 
C 1030 38 986 348 986 678 
L 986 2763 
L 211 2693 
L 211 2528 
C 467 2528 640 2528 646 2274 
L 646 1058 
C 646 633 646 361 813 183 
C 896 101 1056 -64 1517 -64 
C 2061 -64 2272 377 2323 506 
L 2330 506 
L 2330 -63 
L 3091 -63 
L 3091 128 
C 2714 128 2656 166 2656 473 
L 2656 2763 
L 1882 2693 
z
" transform="scale(0.015625)"/>
    </defs>
    <use xlink:href="#CMR17-54" transform="scale(0.996264)"/>
    <use xlink:href="#CMR17-72" transform="translate(58.702625 0)scale(0.996264)"/>
    <use xlink:href="#CMR17-75" transform="translate(93.983393 0)scale(0.996264)"/>
    <use xlink:href="#CMR17-65" transform="translate(144.878763 0)scale(0.996264)"/>
    <use xlink:href="#CMSY10-68" transform="translate(215.44039 0)scale(0.996264)"/>
    <use xlink:href="#CMMI12-45" transform="translate(254.184123 0)scale(0.996264)"/>
    <use xlink:href="#CMMI12-17" transform="translate(326.395341 -14.943915)scale(0.697382)"/>
    <use xlink:href="#CMSY10-69" transform="translate(365.031264 0)scale(0.996264)"/>
   </g>
  </g>
 </g>
 <defs>
  <clipPath id="p259affedd6">
   <rect x="43.853677" y="11.35109" width="446.4" height="277.2"/>
  </clipPath>
 </defs>
</svg>
