<?xml version="1.0" encoding="utf-8" standalone="no"?>
<!DOCTYPE svg PUBLIC "-//W3C//DTD SVG 1.1//EN"
  "http://www.w3.org/Graphics/SVG/1.1/DTD/svg11.dtd">
<svg xmlns:xlink="http://www.w3.org/1999/xlink" width="553.998621pt" height="331.325562pt" viewBox="0 0 553.998621 331.325562" xmlns="http://www.w3.org/2000/svg" version="1.1">
 <metadata>
  <rdf:RDF xmlns:dc="http://purl.org/dc/elements/1.1/" xmlns:cc="http://creativecommons.org/ns#" xmlns:rdf="http://www.w3.org/1999/02/22-rdf-syntax-ns#">
   <cc:Work>
    <dc:type rdf:resource="http://purl.org/dc/dcmitype/StillImage"/>
    <dc:date>2023-07-28T08:04:54.784804</dc:date>
    <dc:format>image/svg+xml</dc:format>
    <dc:creator>
     <cc:Agent>
      <dc:title>Matplotlib v3.5.2, https://matplotlib.org/</dc:title>
     </cc:Agent>
    </dc:creator>
   </cc:Work>
  </rdf:RDF>
 </metadata>
 <defs>
  <style type="text/css">*{stroke-linejoin: round; stroke-linecap: butt}</style>
 </defs>
 <g id="figure_1">
  <g id="patch_1">
   <path d="M 0 331.325562 
L 553.998621 331.325562 
L 553.998621 0 
L 0 0 
z
" style="fill: #ffffff"/>
  </g>
  <g id="axes_1">
   <g id="patch_2">
    <path d="M 43.853677 288.55109 
L 490.253677 288.55109 
L 490.253677 11.35109 
L 43.853677 11.35109 
z
" style="fill: #ffffff"/>
   </g>
   <g id="matplotlib.axis_1">
    <g id="xtick_1">
     <g id="line2d_1">
      <path d="M 43.853677 288.55109 
L 43.853677 11.35109 
" clip-path="url(#p89235384c2)" style="fill: none; stroke-dasharray: 2.96,1.28; stroke-dashoffset: 0; stroke: #808080; stroke-opacity: 0.4; stroke-width: 0.8"/>
     </g>
     <g id="line2d_2">
      <defs>
       <path id="m4bbdb79dcc" d="M 0 0 
L 0 3.5 
" style="stroke: #000000; stroke-width: 0.8"/>
      </defs>
      <g>
       <use xlink:href="#m4bbdb79dcc" x="43.853677" y="288.55109" style="stroke: #000000; stroke-width: 0.8"/>
      </g>
     </g>
     <g id="text_1">
      <!-- $\mathdefault{0}$ -->
      <g transform="translate(40.927182 303.85327)scale(0.12 -0.12)">
       <defs>
        <path id="CMR17-30" d="M 2688 2038 
C 2688 2430 2682 3099 2413 3613 
C 2176 4063 1798 4224 1466 4224 
C 1158 4224 768 4082 525 3620 
C 269 3137 243 2539 243 2038 
C 243 1671 250 1112 448 623 
C 723 -39 1216 -128 1466 -128 
C 1760 -128 2208 -7 2470 604 
C 2662 1048 2688 1568 2688 2038 
z
M 1466 -26 
C 1056 -26 813 328 723 816 
C 653 1196 653 1749 653 2109 
C 653 2604 653 3015 736 3407 
C 858 3954 1216 4121 1466 4121 
C 1728 4121 2067 3947 2189 3420 
C 2272 3054 2278 2623 2278 2109 
C 2278 1691 2278 1176 2202 797 
C 2067 96 1690 -26 1466 -26 
z
" transform="scale(0.015625)"/>
       </defs>
       <use xlink:href="#CMR17-30" transform="scale(0.996264)"/>
      </g>
     </g>
    </g>
    <g id="xtick_2">
     <g id="line2d_3">
      <path d="M 133.133677 288.55109 
L 133.133677 11.35109 
" clip-path="url(#p89235384c2)" style="fill: none; stroke-dasharray: 2.96,1.28; stroke-dashoffset: 0; stroke: #808080; stroke-opacity: 0.4; stroke-width: 0.8"/>
     </g>
     <g id="line2d_4">
      <g>
       <use xlink:href="#m4bbdb79dcc" x="133.133677" y="288.55109" style="stroke: #000000; stroke-width: 0.8"/>
      </g>
     </g>
     <g id="text_2">
      <!-- $\mathdefault{20}$ -->
      <g transform="translate(127.280686 303.85327)scale(0.12 -0.12)">
       <defs>
        <path id="CMR17-32" d="M 2669 990 
L 2554 990 
C 2490 537 2438 460 2413 422 
C 2381 371 1920 371 1830 371 
L 602 371 
C 832 620 1280 1073 1824 1596 
C 2214 1966 2669 2400 2669 3033 
C 2669 3788 2067 4224 1395 4224 
C 691 4224 262 3603 262 3027 
C 262 2777 448 2745 525 2745 
C 589 2745 781 2783 781 3007 
C 781 3206 614 3264 525 3264 
C 486 3264 448 3257 422 3244 
C 544 3788 915 4057 1306 4057 
C 1862 4057 2227 3616 2227 3033 
C 2227 2477 1901 1998 1536 1583 
L 262 147 
L 262 0 
L 2515 0 
L 2669 990 
z
" transform="scale(0.015625)"/>
       </defs>
       <use xlink:href="#CMR17-32" transform="scale(0.996264)"/>
       <use xlink:href="#CMR17-30" transform="translate(45.690477 0)scale(0.996264)"/>
      </g>
     </g>
    </g>
    <g id="xtick_3">
     <g id="line2d_5">
      <path d="M 222.413677 288.55109 
L 222.413677 11.35109 
" clip-path="url(#p89235384c2)" style="fill: none; stroke-dasharray: 2.96,1.28; stroke-dashoffset: 0; stroke: #808080; stroke-opacity: 0.4; stroke-width: 0.8"/>
     </g>
     <g id="line2d_6">
      <g>
       <use xlink:href="#m4bbdb79dcc" x="222.413677" y="288.55109" style="stroke: #000000; stroke-width: 0.8"/>
      </g>
     </g>
     <g id="text_3">
      <!-- $\mathdefault{40}$ -->
      <g transform="translate(216.560686 303.85327)scale(0.12 -0.12)">
       <defs>
        <path id="CMR17-34" d="M 2150 4147 
C 2150 4281 2144 4288 2029 4288 
L 128 1254 
L 128 1088 
L 1779 1088 
L 1779 460 
C 1779 230 1766 166 1318 166 
L 1197 166 
L 1197 0 
C 1402 12 1747 12 1965 12 
C 2182 12 2528 12 2733 0 
L 2733 166 
L 2611 166 
C 2163 166 2150 230 2150 460 
L 2150 1088 
L 2803 1088 
L 2803 1254 
L 2150 1254 
L 2150 4147 
z
M 1798 3723 
L 1798 1254 
L 256 1254 
L 1798 3723 
z
" transform="scale(0.015625)"/>
       </defs>
       <use xlink:href="#CMR17-34" transform="scale(0.996264)"/>
       <use xlink:href="#CMR17-30" transform="translate(45.690477 0)scale(0.996264)"/>
      </g>
     </g>
    </g>
    <g id="xtick_4">
     <g id="line2d_7">
      <path d="M 311.693677 288.55109 
L 311.693677 11.35109 
" clip-path="url(#p89235384c2)" style="fill: none; stroke-dasharray: 2.96,1.28; stroke-dashoffset: 0; stroke: #808080; stroke-opacity: 0.4; stroke-width: 0.8"/>
     </g>
     <g id="line2d_8">
      <g>
       <use xlink:href="#m4bbdb79dcc" x="311.693677" y="288.55109" style="stroke: #000000; stroke-width: 0.8"/>
      </g>
     </g>
     <g id="text_4">
      <!-- $\mathdefault{60}$ -->
      <g transform="translate(305.840686 303.85327)scale(0.12 -0.12)">
       <defs>
        <path id="CMR17-36" d="M 678 2198 
C 678 3712 1395 4076 1811 4076 
C 1946 4076 2272 4049 2400 3782 
C 2298 3782 2106 3782 2106 3558 
C 2106 3385 2246 3328 2336 3328 
C 2394 3328 2566 3353 2566 3571 
C 2566 3987 2246 4224 1805 4224 
C 1043 4224 243 3411 243 2011 
C 243 257 966 -128 1478 -128 
C 2099 -128 2688 431 2688 1295 
C 2688 2101 2170 2688 1517 2688 
C 1126 2688 838 2430 678 1979 
L 678 2198 
z
M 1478 25 
C 691 25 691 1212 691 1450 
C 691 1914 909 2585 1504 2585 
C 1613 2585 1926 2585 2138 2140 
C 2253 1889 2253 1624 2253 1302 
C 2253 954 2253 696 2118 438 
C 1978 173 1773 25 1478 25 
z
" transform="scale(0.015625)"/>
       </defs>
       <use xlink:href="#CMR17-36" transform="scale(0.996264)"/>
       <use xlink:href="#CMR17-30" transform="translate(45.690477 0)scale(0.996264)"/>
      </g>
     </g>
    </g>
    <g id="xtick_5">
     <g id="line2d_9">
      <path d="M 400.973677 288.55109 
L 400.973677 11.35109 
" clip-path="url(#p89235384c2)" style="fill: none; stroke-dasharray: 2.96,1.28; stroke-dashoffset: 0; stroke: #808080; stroke-opacity: 0.4; stroke-width: 0.8"/>
     </g>
     <g id="line2d_10">
      <g>
       <use xlink:href="#m4bbdb79dcc" x="400.973677" y="288.55109" style="stroke: #000000; stroke-width: 0.8"/>
      </g>
     </g>
     <g id="text_5">
      <!-- $\mathdefault{80}$ -->
      <g transform="translate(395.120686 303.85327)scale(0.12 -0.12)">
       <defs>
        <path id="CMR17-38" d="M 1741 2289 
C 2144 2494 2554 2803 2554 3298 
C 2554 3884 1990 4224 1472 4224 
C 890 4224 378 3800 378 3215 
C 378 3054 416 2777 666 2533 
C 730 2469 998 2276 1171 2154 
C 883 2006 211 1652 211 945 
C 211 282 838 -128 1459 -128 
C 2144 -128 2720 366 2720 1022 
C 2720 1607 2330 1877 2074 2051 
L 1741 2289 
z
M 902 2855 
C 851 2887 595 3086 595 3388 
C 595 3781 998 4076 1459 4076 
C 1965 4076 2336 3716 2336 3298 
C 2336 2700 1670 2359 1638 2359 
C 1632 2359 1626 2359 1574 2398 
L 902 2855 
z
M 2080 1536 
C 2176 1466 2483 1253 2483 861 
C 2483 385 2010 25 1472 25 
C 890 25 448 443 448 951 
C 448 1459 838 1884 1280 2083 
L 2080 1536 
z
" transform="scale(0.015625)"/>
       </defs>
       <use xlink:href="#CMR17-38" transform="scale(0.996264)"/>
       <use xlink:href="#CMR17-30" transform="translate(45.690477 0)scale(0.996264)"/>
      </g>
     </g>
    </g>
    <g id="xtick_6">
     <g id="line2d_11">
      <path d="M 490.253677 288.55109 
L 490.253677 11.35109 
" clip-path="url(#p89235384c2)" style="fill: none; stroke-dasharray: 2.96,1.28; stroke-dashoffset: 0; stroke: #808080; stroke-opacity: 0.4; stroke-width: 0.8"/>
     </g>
     <g id="line2d_12">
      <g>
       <use xlink:href="#m4bbdb79dcc" x="490.253677" y="288.55109" style="stroke: #000000; stroke-width: 0.8"/>
      </g>
     </g>
     <g id="text_6">
      <!-- $\mathdefault{100}$ -->
      <g transform="translate(481.474191 303.85327)scale(0.12 -0.12)">
       <defs>
        <path id="CMR17-31" d="M 1702 4083 
C 1702 4217 1696 4224 1606 4224 
C 1357 3927 979 3833 621 3820 
C 602 3820 570 3820 563 3808 
C 557 3795 557 3782 557 3648 
C 755 3648 1088 3686 1344 3839 
L 1344 467 
C 1344 243 1331 166 781 166 
L 589 166 
L 589 0 
C 896 6 1216 12 1523 12 
C 1830 12 2150 6 2458 0 
L 2458 166 
L 2266 166 
C 1715 166 1702 236 1702 467 
L 1702 4083 
z
" transform="scale(0.015625)"/>
       </defs>
       <use xlink:href="#CMR17-31" transform="scale(0.996264)"/>
       <use xlink:href="#CMR17-30" transform="translate(45.690477 0)scale(0.996264)"/>
       <use xlink:href="#CMR17-30" transform="translate(91.380954 0)scale(0.996264)"/>
      </g>
     </g>
    </g>
    <g id="text_7">
     <!-- Distance [kpc] -->
     <g transform="translate(224.623412 320.638638)scale(0.14 -0.14)">
      <defs>
       <path id="CMR17-44" d="M 333 4352 
L 333 4185 
C 774 4185 845 4185 845 3898 
L 845 453 
C 845 166 774 166 333 166 
L 333 0 
L 2368 0 
C 3398 0 4224 943 4224 2140 
C 4224 3344 3411 4352 2368 4352 
L 333 4352 
z
M 1523 166 
C 1267 166 1254 198 1254 414 
L 1254 3936 
C 1254 4153 1267 4185 1523 4185 
L 2240 4185 
C 2771 4185 3750 3873 3750 2140 
C 3750 1242 3488 879 3366 707 
C 3213 510 2848 166 2240 166 
L 1523 166 
z
" transform="scale(0.015625)"/>
       <path id="CMR17-69" d="M 992 3961 
C 992 4102 877 4224 730 4224 
C 589 4224 467 4108 467 3961 
C 467 3820 582 3699 730 3699 
C 870 3699 992 3814 992 3961 
z
M 243 2745 
L 243 2579 
C 602 2579 653 2540 653 2231 
L 653 443 
C 653 198 627 166 218 166 
L 218 0 
C 371 12 646 12 806 12 
C 960 12 1222 12 1370 0 
L 1370 166 
C 992 166 979 205 979 436 
L 979 2816 
L 243 2745 
z
" transform="scale(0.015625)"/>
       <path id="CMR17-73" d="M 1978 2688 
C 1978 2803 1971 2809 1933 2809 
C 1907 2809 1901 2803 1824 2707 
C 1805 2681 1747 2617 1728 2592 
C 1523 2809 1235 2816 1126 2816 
C 416 2816 160 2444 160 2073 
C 160 1497 813 1363 998 1324 
C 1402 1241 1542 1216 1677 1100 
C 1760 1024 1901 883 1901 652 
C 1901 384 1747 38 1158 38 
C 602 38 403 460 288 1024 
C 269 1113 269 1120 218 1120 
C 166 1120 160 1113 160 985 
L 160 64 
C 160 -52 166 -58 205 -58 
C 237 -58 243 -52 275 0 
C 314 57 410 211 448 275 
C 576 102 800 -64 1158 -64 
C 1792 -64 2131 281 2131 780 
C 2131 1107 1958 1280 1875 1356 
C 1683 1555 1459 1600 1190 1651 
C 838 1728 390 1817 390 2208 
C 390 2374 480 2726 1126 2726 
C 1811 2726 1850 2086 1862 1881 
C 1869 1849 1901 1843 1920 1843 
C 1978 1843 1978 1862 1978 1971 
L 1978 2688 
z
" transform="scale(0.015625)"/>
       <path id="CMR17-74" d="M 966 2585 
L 1862 2585 
L 1862 2752 
L 966 2752 
L 966 3968 
L 851 3968 
C 838 3292 614 2700 70 2687 
L 70 2585 
L 627 2585 
L 627 778 
C 627 655 627 -64 1370 -64 
C 1747 -64 1965 308 1965 784 
L 1965 1151 
L 1850 1151 
L 1850 790 
C 1850 347 1677 51 1408 51 
C 1222 51 966 179 966 765 
L 966 2585 
z
" transform="scale(0.015625)"/>
       <path id="CMR17-61" d="M 2304 1656 
C 2304 2048 2304 2275 2035 2534 
C 1798 2751 1523 2816 1306 2816 
C 800 2816 435 2408 435 1977 
C 435 1740 627 1728 666 1728 
C 749 1728 896 1779 896 1958 
C 896 2118 774 2188 666 2188 
C 640 2188 608 2182 589 2176 
C 723 2594 1069 2713 1293 2713 
C 1613 2713 1965 2421 1965 1875 
L 1965 1632 
C 1587 1619 1133 1568 774 1373 
C 371 1147 256 822 256 576 
C 256 77 832 -64 1171 -64 
C 1523 -64 1850 135 1990 505 
C 2003 219 2182 -39 2464 -39 
C 2598 -39 2938 51 2938 563 
L 2938 926 
L 2822 926 
L 2822 557 
C 2822 161 2650 109 2566 109 
C 2304 109 2304 446 2304 732 
L 2304 1656 
z
M 1965 887 
C 1965 323 1568 38 1216 38 
C 896 38 646 278 646 576 
C 646 771 730 1114 1101 1322 
C 1408 1497 1760 1523 1965 1536 
L 1965 887 
z
" transform="scale(0.015625)"/>
       <path id="CMR17-6e" d="M 2656 1954 
C 2656 2282 2592 2816 1837 2816 
C 1331 2816 1069 2424 973 2166 
L 966 2166 
L 966 2816 
L 211 2745 
L 211 2578 
C 589 2578 646 2540 646 2231 
L 646 443 
C 646 198 621 166 211 166 
L 211 0 
C 365 12 646 12 813 12 
C 979 12 1267 12 1421 0 
L 1421 166 
C 1011 166 986 192 986 443 
L 986 1678 
C 986 2269 1344 2713 1792 2713 
C 2266 2713 2317 2289 2317 1980 
L 2317 443 
C 2317 198 2291 166 1882 166 
L 1882 0 
C 2035 12 2317 12 2483 12 
C 2650 12 2938 12 3091 0 
L 3091 166 
C 2682 166 2656 192 2656 443 
L 2656 1954 
z
" transform="scale(0.015625)"/>
       <path id="CMR17-63" d="M 2234 2240 
C 2112 2240 1933 2240 1933 2015 
C 1933 1836 2080 1785 2163 1785 
C 2208 1785 2394 1804 2394 2028 
C 2394 2476 1958 2816 1466 2816 
C 787 2816 211 2201 211 1379 
C 211 521 813 -64 1466 -64 
C 2259 -64 2458 676 2458 747 
C 2458 773 2451 792 2406 792 
C 2362 792 2355 786 2330 702 
C 2163 180 1798 51 1523 51 
C 1114 51 621 431 621 1385 
C 621 2358 1094 2700 1472 2700 
C 1722 2700 2093 2582 2234 2240 
z
" transform="scale(0.015625)"/>
       <path id="CMR17-65" d="M 2438 1503 
C 2464 1529 2464 1542 2464 1606 
C 2464 2251 2118 2816 1389 2816 
C 710 2816 173 2175 173 1394 
C 173 554 781 -64 1459 -64 
C 2176 -64 2458 619 2458 755 
C 2458 800 2419 800 2406 800 
C 2362 800 2355 787 2330 709 
C 2189 270 1837 51 1504 51 
C 1229 51 954 206 781 490 
C 582 819 582 1200 582 1503 
L 2438 1503 
z
M 589 1600 
C 634 2511 1126 2713 1382 2713 
C 1818 2713 2112 2308 2118 1600 
L 589 1600 
z
" transform="scale(0.015625)"/>
       <path id="CMR17-5b" d="M 1504 -1600 
L 1504 -1376 
L 902 -1376 
L 902 4575 
L 1504 4575 
L 1504 4800 
L 678 4800 
L 678 -1600 
L 1504 -1600 
z
" transform="scale(0.015625)"/>
       <path id="CMR17-6b" d="M 1670 1679 
C 1664 1692 1632 1730 1632 1749 
C 1632 1762 2086 2175 2144 2226 
C 2509 2532 2739 2563 2906 2570 
L 2906 2735 
C 2867 2735 2854 2735 2848 2729 
L 2534 2722 
C 2355 2722 2080 2722 1907 2735 
L 1907 2570 
C 1997 2563 2061 2513 2061 2423 
C 2061 2296 1933 2175 1926 2175 
L 960 1298 
L 960 4416 
L 198 4345 
L 198 4179 
C 576 4179 634 4141 634 3835 
L 634 439 
C 634 198 608 166 198 166 
L 198 0 
C 352 12 634 12 794 12 
C 954 12 1235 12 1389 0 
L 1389 166 
C 979 166 954 191 954 439 
L 954 1139 
L 1395 1540 
L 2042 586 
C 2118 471 2182 382 2182 299 
C 2182 185 2067 166 1990 166 
L 1990 0 
C 2144 12 2419 12 2579 12 
C 2694 12 2931 6 3040 0 
L 3040 166 
C 2739 166 2669 223 2477 503 
L 1670 1679 
z
" transform="scale(0.015625)"/>
       <path id="CMR17-70" d="M 1408 -1114 
C 998 -1114 973 -1088 973 -834 
L 973 380 
C 1158 109 1427 -64 1766 -64 
C 2406 -64 3053 503 3053 1382 
C 3053 2196 2496 2816 1837 2816 
C 1453 2816 1139 2603 960 2345 
L 960 2816 
L 198 2745 
L 198 2577 
C 576 2577 634 2539 634 2228 
L 634 -834 
C 634 -1081 608 -1114 198 -1114 
L 198 -1280 
C 352 -1268 634 -1268 800 -1268 
C 966 -1268 1254 -1268 1408 -1280 
L 1408 -1114 
z
M 973 2015 
C 973 2106 973 2241 1222 2481 
C 1254 2506 1472 2700 1792 2700 
C 2259 2700 2643 2112 2643 1376 
C 2643 639 2234 38 1728 38 
C 1498 38 1248 148 1056 451 
C 973 594 973 632 973 736 
L 973 2015 
z
" transform="scale(0.015625)"/>
       <path id="CMR17-5d" d="M 915 4800 
L 90 4800 
L 90 4575 
L 691 4575 
L 691 -1376 
L 90 -1376 
L 90 -1600 
L 915 -1600 
L 915 4800 
z
" transform="scale(0.015625)"/>
      </defs>
      <use xlink:href="#CMR17-44" transform="scale(0.996264)"/>
      <use xlink:href="#CMR17-69" transform="translate(70.393556 0)scale(0.996264)"/>
      <use xlink:href="#CMR17-73" transform="translate(95.264614 0)scale(0.996264)"/>
      <use xlink:href="#CMR17-74" transform="translate(131.065952 0)scale(0.996264)"/>
      <use xlink:href="#CMR17-61" transform="translate(166.34672 0)scale(0.996264)"/>
      <use xlink:href="#CMR17-6e" transform="translate(212.037197 0)scale(0.996264)"/>
      <use xlink:href="#CMR17-63" transform="translate(262.932567 0)scale(0.996264)"/>
      <use xlink:href="#CMR17-65" transform="translate(303.418227 0)scale(0.996264)"/>
      <use xlink:href="#CMR17-5b" transform="translate(373.979854 0)scale(0.996264)"/>
      <use xlink:href="#CMR17-6b" transform="translate(398.850912 0)scale(0.996264)"/>
      <use xlink:href="#CMR17-70" transform="translate(447.143828 0)scale(0.996264)"/>
      <use xlink:href="#CMR17-63" transform="translate(500.641637 0)scale(0.996264)"/>
      <use xlink:href="#CMR17-5d" transform="translate(541.127297 0)scale(0.996264)"/>
     </g>
    </g>
   </g>
   <g id="matplotlib.axis_2">
    <g id="ytick_1">
     <g id="line2d_13">
      <path d="M 43.853677 288.55109 
L 490.253677 288.55109 
" clip-path="url(#p89235384c2)" style="fill: none; stroke-dasharray: 2.96,1.28; stroke-dashoffset: 0; stroke: #808080; stroke-opacity: 0.4; stroke-width: 0.8"/>
     </g>
     <g id="line2d_14">
      <defs>
       <path id="mb0bb12d670" d="M 0 0 
L -3.5 0 
" style="stroke: #000000; stroke-width: 0.8"/>
      </defs>
      <g>
       <use xlink:href="#mb0bb12d670" x="43.853677" y="288.55109" style="stroke: #000000; stroke-width: 0.8"/>
      </g>
     </g>
     <g id="text_8">
      <!-- $\mathdefault{4}$ -->
      <g transform="translate(31.000686 292.70218)scale(0.12 -0.12)">
       <use xlink:href="#CMR17-34" transform="scale(0.996264)"/>
      </g>
     </g>
    </g>
    <g id="ytick_2">
     <g id="line2d_15">
      <path d="M 43.853677 253.90109 
L 490.253677 253.90109 
" clip-path="url(#p89235384c2)" style="fill: none; stroke-dasharray: 2.96,1.28; stroke-dashoffset: 0; stroke: #808080; stroke-opacity: 0.4; stroke-width: 0.8"/>
     </g>
     <g id="line2d_16">
      <g>
       <use xlink:href="#mb0bb12d670" x="43.853677" y="253.90109" style="stroke: #000000; stroke-width: 0.8"/>
      </g>
     </g>
     <g id="text_9">
      <!-- $\mathdefault{6}$ -->
      <g transform="translate(31.000686 258.05218)scale(0.12 -0.12)">
       <use xlink:href="#CMR17-36" transform="scale(0.996264)"/>
      </g>
     </g>
    </g>
    <g id="ytick_3">
     <g id="line2d_17">
      <path d="M 43.853677 219.25109 
L 490.253677 219.25109 
" clip-path="url(#p89235384c2)" style="fill: none; stroke-dasharray: 2.96,1.28; stroke-dashoffset: 0; stroke: #808080; stroke-opacity: 0.4; stroke-width: 0.8"/>
     </g>
     <g id="line2d_18">
      <g>
       <use xlink:href="#mb0bb12d670" x="43.853677" y="219.25109" style="stroke: #000000; stroke-width: 0.8"/>
      </g>
     </g>
     <g id="text_10">
      <!-- $\mathdefault{8}$ -->
      <g transform="translate(31.000686 223.40218)scale(0.12 -0.12)">
       <use xlink:href="#CMR17-38" transform="scale(0.996264)"/>
      </g>
     </g>
    </g>
    <g id="ytick_4">
     <g id="line2d_19">
      <path d="M 43.853677 184.60109 
L 490.253677 184.60109 
" clip-path="url(#p89235384c2)" style="fill: none; stroke-dasharray: 2.96,1.28; stroke-dashoffset: 0; stroke: #808080; stroke-opacity: 0.4; stroke-width: 0.8"/>
     </g>
     <g id="line2d_20">
      <g>
       <use xlink:href="#mb0bb12d670" x="43.853677" y="184.60109" style="stroke: #000000; stroke-width: 0.8"/>
      </g>
     </g>
     <g id="text_11">
      <!-- $\mathdefault{10}$ -->
      <g transform="translate(25.147696 188.75218)scale(0.12 -0.12)">
       <use xlink:href="#CMR17-31" transform="scale(0.996264)"/>
       <use xlink:href="#CMR17-30" transform="translate(45.690477 0)scale(0.996264)"/>
      </g>
     </g>
    </g>
    <g id="ytick_5">
     <g id="line2d_21">
      <path d="M 43.853677 149.95109 
L 490.253677 149.95109 
" clip-path="url(#p89235384c2)" style="fill: none; stroke-dasharray: 2.96,1.28; stroke-dashoffset: 0; stroke: #808080; stroke-opacity: 0.4; stroke-width: 0.8"/>
     </g>
     <g id="line2d_22">
      <g>
       <use xlink:href="#mb0bb12d670" x="43.853677" y="149.95109" style="stroke: #000000; stroke-width: 0.8"/>
      </g>
     </g>
     <g id="text_12">
      <!-- $\mathdefault{12}$ -->
      <g transform="translate(25.147696 154.10218)scale(0.12 -0.12)">
       <use xlink:href="#CMR17-31" transform="scale(0.996264)"/>
       <use xlink:href="#CMR17-32" transform="translate(45.690477 0)scale(0.996264)"/>
      </g>
     </g>
    </g>
    <g id="ytick_6">
     <g id="line2d_23">
      <path d="M 43.853677 115.30109 
L 490.253677 115.30109 
" clip-path="url(#p89235384c2)" style="fill: none; stroke-dasharray: 2.96,1.28; stroke-dashoffset: 0; stroke: #808080; stroke-opacity: 0.4; stroke-width: 0.8"/>
     </g>
     <g id="line2d_24">
      <g>
       <use xlink:href="#mb0bb12d670" x="43.853677" y="115.30109" style="stroke: #000000; stroke-width: 0.8"/>
      </g>
     </g>
     <g id="text_13">
      <!-- $\mathdefault{14}$ -->
      <g transform="translate(25.147696 119.45218)scale(0.12 -0.12)">
       <use xlink:href="#CMR17-31" transform="scale(0.996264)"/>
       <use xlink:href="#CMR17-34" transform="translate(45.690477 0)scale(0.996264)"/>
      </g>
     </g>
    </g>
    <g id="ytick_7">
     <g id="line2d_25">
      <path d="M 43.853677 80.65109 
L 490.253677 80.65109 
" clip-path="url(#p89235384c2)" style="fill: none; stroke-dasharray: 2.96,1.28; stroke-dashoffset: 0; stroke: #808080; stroke-opacity: 0.4; stroke-width: 0.8"/>
     </g>
     <g id="line2d_26">
      <g>
       <use xlink:href="#mb0bb12d670" x="43.853677" y="80.65109" style="stroke: #000000; stroke-width: 0.8"/>
      </g>
     </g>
     <g id="text_14">
      <!-- $\mathdefault{16}$ -->
      <g transform="translate(25.147696 84.80218)scale(0.12 -0.12)">
       <use xlink:href="#CMR17-31" transform="scale(0.996264)"/>
       <use xlink:href="#CMR17-36" transform="translate(45.690477 0)scale(0.996264)"/>
      </g>
     </g>
    </g>
    <g id="ytick_8">
     <g id="line2d_27">
      <path d="M 43.853677 46.00109 
L 490.253677 46.00109 
" clip-path="url(#p89235384c2)" style="fill: none; stroke-dasharray: 2.96,1.28; stroke-dashoffset: 0; stroke: #808080; stroke-opacity: 0.4; stroke-width: 0.8"/>
     </g>
     <g id="line2d_28">
      <g>
       <use xlink:href="#mb0bb12d670" x="43.853677" y="46.00109" style="stroke: #000000; stroke-width: 0.8"/>
      </g>
     </g>
     <g id="text_15">
      <!-- $\mathdefault{18}$ -->
      <g transform="translate(25.147696 50.15218)scale(0.12 -0.12)">
       <use xlink:href="#CMR17-31" transform="scale(0.996264)"/>
       <use xlink:href="#CMR17-38" transform="translate(45.690477 0)scale(0.996264)"/>
      </g>
     </g>
    </g>
    <g id="ytick_9">
     <g id="line2d_29">
      <path d="M 43.853677 11.35109 
L 490.253677 11.35109 
" clip-path="url(#p89235384c2)" style="fill: none; stroke-dasharray: 2.96,1.28; stroke-dashoffset: 0; stroke: #808080; stroke-opacity: 0.4; stroke-width: 0.8"/>
     </g>
     <g id="line2d_30">
      <g>
       <use xlink:href="#mb0bb12d670" x="43.853677" y="11.35109" style="stroke: #000000; stroke-width: 0.8"/>
      </g>
     </g>
     <g id="text_16">
      <!-- $\mathdefault{20}$ -->
      <g transform="translate(25.147696 15.50218)scale(0.12 -0.12)">
       <use xlink:href="#CMR17-32" transform="scale(0.996264)"/>
       <use xlink:href="#CMR17-30" transform="translate(45.690477 0)scale(0.996264)"/>
      </g>
     </g>
    </g>
    <g id="text_17">
     <!-- Average energy $\left \langle E_\nu \right \rangle$ -->
     <g transform="translate(17.660772 211.644651)rotate(-90)scale(0.14 -0.14)">
      <defs>
       <path id="CMR17-41" d="M 2323 4441 
C 2291 4524 2278 4544 2214 4544 
C 2150 4544 2138 4524 2106 4441 
L 749 580 
C 627 236 371 166 147 166 
L 147 0 
C 262 12 518 12 640 12 
C 800 12 1056 12 1210 0 
L 1210 166 
C 909 179 864 382 864 459 
C 864 516 877 548 890 586 
L 1229 1536 
L 2906 1536 
L 3290 453 
C 3322 376 3322 363 3322 338 
C 3322 166 3046 166 2925 166 
L 2925 0 
C 3110 12 3443 12 3642 12 
C 3808 12 4128 12 4282 0 
L 4282 166 
C 3942 166 3827 166 3744 402 
L 2323 4441 
z
M 2067 3924 
L 2848 1702 
L 1286 1702 
L 2067 3924 
z
" transform="scale(0.015625)"/>
       <path id="CMR17-76" d="M 2502 2173 
C 2560 2315 2662 2572 3034 2585 
L 3034 2752 
C 2912 2745 2752 2739 2630 2739 
C 2496 2739 2285 2739 2157 2752 
L 2157 2585 
C 2317 2572 2406 2495 2406 2328 
C 2406 2270 2406 2257 2368 2167 
L 1664 379 
L 902 2308 
C 864 2392 864 2405 864 2431 
C 864 2585 1075 2585 1171 2585 
L 1171 2752 
C 1018 2739 736 2739 576 2739 
C 403 2739 205 2739 64 2752 
L 64 2585 
C 307 2585 442 2585 518 2386 
L 1446 44 
C 1485 -52 1491 -64 1549 -64 
C 1606 -64 1613 -52 1651 44 
L 2502 2173 
z
" transform="scale(0.015625)"/>
       <path id="CMR17-72" d="M 960 1517 
C 960 2134 1222 2713 1702 2713 
C 1747 2713 1792 2707 1837 2687 
C 1837 2687 1696 2642 1696 2475 
C 1696 2321 1818 2257 1914 2257 
C 1990 2257 2131 2302 2131 2482 
C 2131 2687 1926 2816 1709 2816 
C 1222 2816 1011 2340 947 2115 
L 941 2115 
L 941 2816 
L 198 2745 
L 198 2578 
C 576 2578 634 2540 634 2231 
L 634 443 
C 634 198 608 166 198 166 
L 198 0 
C 352 12 646 12 813 12 
C 998 12 1325 12 1498 0 
L 1498 166 
C 1037 166 960 166 960 455 
L 960 1517 
z
" transform="scale(0.015625)"/>
       <path id="CMR17-67" d="M 710 1165 
C 832 1068 1043 960 1299 960 
C 1805 960 2240 1359 2240 1895 
C 2240 2063 2189 2321 1997 2521 
C 2176 2713 2438 2777 2586 2777 
C 2611 2777 2650 2777 2682 2758 
C 2656 2751 2598 2726 2598 2623 
C 2598 2540 2656 2483 2739 2483 
C 2835 2483 2886 2547 2886 2630 
C 2886 2751 2790 2880 2586 2880 
C 2330 2880 2106 2758 1926 2591 
C 1734 2764 1504 2828 1299 2828 
C 794 2828 358 2431 358 1895 
C 358 1527 570 1294 634 1230 
C 442 1004 442 742 442 710 
C 442 544 506 300 723 166 
C 390 82 128 -184 128 -517 
C 128 -996 736 -1344 1466 -1344 
C 2170 -1344 2803 -1009 2803 -510 
C 2803 384 1856 384 1363 384 
C 1216 384 954 384 922 390 
C 723 422 589 601 589 825 
C 589 883 589 1024 710 1165 
z
M 1299 1068 
C 736 1068 736 1766 736 1895 
C 736 2024 736 2719 1299 2719 
C 1862 2719 1862 2024 1862 1895 
C 1862 1766 1862 1068 1299 1068 
z
M 1466 -1236 
C 826 -1236 384 -883 384 -517 
C 384 -311 493 -118 634 -11 
C 794 102 858 102 1293 102 
C 1818 102 2547 102 2547 -517 
C 2547 -883 2106 -1236 1466 -1236 
z
" transform="scale(0.015625)"/>
       <path id="CMR17-79" d="M 2496 2183 
C 2656 2579 2944 2585 3034 2585 
L 3034 2752 
C 2912 2745 2752 2739 2630 2739 
C 2496 2739 2285 2739 2157 2752 
L 2157 2585 
C 2400 2566 2406 2384 2406 2332 
C 2406 2268 2394 2235 2362 2158 
L 1664 409 
L 902 2300 
C 870 2378 870 2423 870 2430 
C 870 2572 1018 2585 1171 2585 
L 1171 2752 
C 1018 2739 742 2739 582 2739 
C 410 2739 205 2739 64 2752 
L 64 2585 
C 410 2585 448 2553 531 2345 
L 1485 -31 
C 1197 -795 1030 -1242 627 -1242 
C 557 -1242 397 -1223 282 -1106 
C 429 -1093 493 -1002 493 -892 
C 493 -782 416 -685 288 -685 
C 147 -685 77 -782 77 -899 
C 77 -1158 339 -1344 627 -1344 
C 998 -1344 1229 -983 1357 -659 
L 2496 2183 
z
" transform="scale(0.015625)"/>
       <path id="CMSY10-68" d="M 2099 4557 
C 2131 4627 2131 4640 2131 4672 
C 2131 4742 2074 4800 2003 4800 
C 1946 4800 1901 4768 1856 4653 
L 736 1715 
C 723 1677 704 1638 704 1600 
C 704 1580 704 1568 736 1491 
L 1856 -1447 
C 1882 -1517 1914 -1600 2003 -1600 
C 2074 -1600 2131 -1543 2131 -1472 
C 2131 -1453 2131 -1440 2099 -1370 
L 966 1600 
L 2099 4557 
z
" transform="scale(0.015625)"/>
       <path id="CMMI12-45" d="M 4448 1489 
C 4454 1508 4474 1553 4474 1578 
C 4474 1611 4448 1643 4410 1643 
C 4384 1643 4371 1636 4352 1617 
C 4339 1611 4339 1598 4282 1469 
C 3904 570 3629 185 2605 185 
L 1670 185 
C 1581 185 1568 185 1530 192 
C 1459 198 1453 211 1453 262 
C 1453 307 1466 346 1478 403 
L 1920 2176 
L 2554 2176 
C 3053 2176 3091 2066 3091 1874 
C 3091 1810 3091 1752 3046 1559 
C 3034 1534 3027 1508 3027 1489 
C 3027 1444 3059 1424 3098 1424 
C 3155 1424 3162 1469 3187 1559 
L 3552 3036 
C 3552 3068 3526 3099 3488 3099 
C 3430 3099 3424 3074 3398 2986 
C 3270 2500 3142 2361 2573 2361 
L 1965 2361 
L 2362 3913 
C 2419 4134 2432 4153 2694 4153 
L 3610 4153 
C 4397 4153 4557 3945 4557 3465 
C 4557 3459 4557 3282 4531 3074 
C 4525 3049 4518 3011 4518 2998 
C 4518 2948 4550 2929 4589 2929 
C 4634 2929 4659 2954 4672 3068 
L 4806 4172 
C 4806 4191 4819 4255 4819 4268 
C 4819 4339 4762 4339 4646 4339 
L 1523 4339 
C 1402 4339 1338 4339 1338 4223 
C 1338 4153 1382 4153 1491 4153 
C 1888 4153 1888 4109 1888 4039 
C 1888 4008 1882 3983 1862 3913 
L 998 474 
C 941 249 928 185 480 185 
C 358 185 294 185 294 70 
C 294 0 333 0 461 0 
L 3674 0 
C 3814 0 3821 6 3866 108 
L 4448 1489 
z
" transform="scale(0.015625)"/>
       <path id="CMMI12-17" d="M 1408 2751 
C 1408 2777 1389 2816 1338 2816 
C 1293 2816 691 2758 595 2751 
C 525 2745 461 2739 461 2623 
C 461 2559 512 2559 602 2559 
C 902 2559 922 2515 922 2445 
C 922 2419 909 2343 902 2317 
L 339 64 
C 339 38 358 0 403 0 
L 538 0 
C 627 0 1600 230 2349 996 
C 3174 1845 3290 2630 3290 2655 
C 3290 2758 3206 2816 3123 2816 
C 2938 2816 2893 2643 2880 2598 
C 2502 1264 1626 472 774 192 
L 1408 2751 
z
" transform="scale(0.015625)"/>
       <path id="CMSY10-69" d="M 1747 1491 
C 1779 1568 1779 1580 1779 1600 
C 1779 1619 1779 1632 1747 1709 
L 627 4653 
C 589 4761 550 4800 480 4800 
C 410 4800 352 4742 352 4672 
C 352 4653 352 4640 384 4569 
L 1517 1600 
L 384 -1357 
C 352 -1428 352 -1440 352 -1472 
C 352 -1543 410 -1600 480 -1600 
C 563 -1600 589 -1536 614 -1472 
L 1747 1491 
z
" transform="scale(0.015625)"/>
      </defs>
      <use xlink:href="#CMR17-41" transform="scale(0.996264)"/>
      <use xlink:href="#CMR17-76" transform="translate(69.07243 0)scale(0.996264)"/>
      <use xlink:href="#CMR17-65" transform="translate(114.762892 0)scale(0.996264)"/>
      <use xlink:href="#CMR17-72" transform="translate(155.248552 0)scale(0.996264)"/>
      <use xlink:href="#CMR17-61" transform="translate(190.52932 0)scale(0.996264)"/>
      <use xlink:href="#CMR17-67" transform="translate(236.219797 0)scale(0.996264)"/>
      <use xlink:href="#CMR17-65" transform="translate(281.910274 0)scale(0.996264)"/>
      <use xlink:href="#CMR17-65" transform="translate(352.471901 0)scale(0.996264)"/>
      <use xlink:href="#CMR17-6e" transform="translate(392.957561 0)scale(0.996264)"/>
      <use xlink:href="#CMR17-65" transform="translate(443.852931 0)scale(0.996264)"/>
      <use xlink:href="#CMR17-72" transform="translate(484.338592 0)scale(0.996264)"/>
      <use xlink:href="#CMR17-67" transform="translate(519.61936 0)scale(0.996264)"/>
      <use xlink:href="#CMR17-79" transform="translate(565.309837 0)scale(0.996264)"/>
      <use xlink:href="#CMSY10-68" transform="translate(643.678719 0)scale(0.996264)"/>
      <use xlink:href="#CMMI12-45" transform="translate(682.422453 0)scale(0.996264)"/>
      <use xlink:href="#CMMI12-17" transform="translate(754.63367 -14.943915)scale(0.697382)"/>
      <use xlink:href="#CMSY10-69" transform="translate(793.269593 0)scale(0.996264)"/>
     </g>
    </g>
   </g>
   <g id="PolyCollection_1">
    <defs>
     <path id="mbb104d77fc" d="M 48.317677 -197.905308 
L 48.317677 -193.499241 
L 52.781677 -192.908008 
L 61.709677 -192.29771 
L 70.637677 -190.709817 
L 79.565677 -189.382219 
L 88.493677 -189.082552 
L 97.421677 -184.738469 
L 106.349677 -186.161346 
L 115.277677 -183.047174 
L 124.205677 -186.593128 
L 133.133677 -184.223588 
L 142.061677 -180.811582 
L 150.989677 -181.727135 
L 159.917677 -184.707022 
L 168.845677 -175.285065 
L 177.773677 -174.495494 
L 186.701677 -169.316727 
L 195.629677 -170.299533 
L 204.557677 -172.571122 
L 213.485677 -175.061769 
L 222.413677 -163.872799 
L 231.341677 -162.758869 
L 240.269677 -155.73654 
L 249.197677 -166.693914 
L 258.125677 -165.181079 
L 267.053677 -155.474165 
L 275.981677 -167.082319 
L 284.909677 -171.063732 
L 293.837677 -148.018363 
L 302.765677 -157.564068 
L 311.693677 -161.7621 
L 320.621677 -133.308779 
L 329.549677 -171.408493 
L 338.477677 -146.812612 
L 347.405677 -130.798129 
L 356.333677 -159.312153 
L 365.261677 -153.130882 
L 374.189677 -141.960165 
L 383.117677 -152.276386 
L 392.045677 -142.239162 
L 400.973677 -149.804451 
L 409.901677 -98.965819 
L 418.829677 -133.678925 
L 427.757677 -149.58507 
L 436.685677 -123.657239 
L 445.613677 -119.162247 
L 454.541677 -141.32995 
L 463.469677 -152.265342 
L 472.397677 -112.419813 
L 481.325677 -155.711377 
L 490.253677 -107.440571 
L 490.253677 -261.122022 
L 490.253677 -261.122022 
L 481.325677 -252.197919 
L 472.397677 -261.207108 
L 463.469677 -251.540405 
L 454.541677 -264.72165 
L 445.613677 -254.947433 
L 436.685677 -243.672863 
L 427.757677 -267.439201 
L 418.829677 -244.254076 
L 409.901677 -244.231392 
L 400.973677 -260.751295 
L 392.045677 -262.683926 
L 383.117677 -247.997143 
L 374.189677 -236.096416 
L 365.261677 -234.070257 
L 356.333677 -247.949602 
L 347.405677 -241.773652 
L 338.477677 -248.480498 
L 329.549677 -235.335008 
L 320.621677 -243.654764 
L 311.693677 -233.352897 
L 302.765677 -225.800134 
L 293.837677 -222.198188 
L 284.909677 -240.252522 
L 275.981677 -236.045689 
L 267.053677 -227.085342 
L 258.125677 -234.657239 
L 249.197677 -233.062513 
L 240.269677 -228.507405 
L 231.341677 -215.81815 
L 222.413677 -228.207866 
L 213.485677 -217.513594 
L 204.557677 -222.846953 
L 195.629677 -222.674804 
L 186.701677 -210.772891 
L 177.773677 -222.250563 
L 168.845677 -211.838679 
L 159.917677 -217.385392 
L 150.989677 -211.681804 
L 142.061677 -205.257215 
L 133.133677 -207.134125 
L 124.205677 -208.170984 
L 115.277677 -205.504128 
L 106.349677 -203.4347 
L 97.421677 -204.55408 
L 88.493677 -201.20232 
L 79.565677 -201.969188 
L 70.637677 -199.460358 
L 61.709677 -198.173602 
L 52.781677 -197.926197 
L 48.317677 -197.905308 
z
" style="stroke: #f57d15; stroke-opacity: 0.5"/>
    </defs>
    <g clip-path="url(#p89235384c2)">
     <use xlink:href="#mbb104d77fc" x="0" y="331.325562" style="fill: #f57d15; fill-opacity: 0.5; stroke: #f57d15; stroke-opacity: 0.5"/>
    </g>
   </g>
   <g id="PolyCollection_2">
    <defs>
     <path id="mba6e0774f2" d="M 48.317677 -197.093633 
L 48.317677 -194.215553 
L 52.781677 -193.721653 
L 61.709677 -193.289443 
L 70.637677 -192.159977 
L 79.565677 -191.154638 
L 88.493677 -190.78705 
L 97.421677 -187.496564 
L 106.349677 -189.253725 
L 115.277677 -185.477171 
L 124.205677 -190.435428 
L 133.133677 -187.375264 
L 142.061677 -185.682261 
L 150.989677 -185.92212 
L 159.917677 -187.910024 
L 168.845677 -181.158718 
L 177.773677 -181.568554 
L 186.701677 -176.012792 
L 195.629677 -179.966285 
L 204.557677 -179.360515 
L 213.485677 -183.556095 
L 222.413677 -169.876249 
L 231.341677 -169.335682 
L 240.269677 -170.251234 
L 249.197677 -176.560388 
L 258.125677 -173.112765 
L 267.053677 -163.684045 
L 275.981677 -173.701808 
L 284.909677 -179.485018 
L 293.837677 -161.949935 
L 302.765677 -168.197962 
L 311.693677 -175.072742 
L 320.621677 -146.635135 
L 329.549677 -180.496669 
L 338.477677 -156.788985 
L 347.405677 -145.368006 
L 356.333677 -171.11425 
L 365.261677 -165.466279 
L 374.189677 -156.191988 
L 383.117677 -160.990916 
L 392.045677 -152.546792 
L 400.973677 -163.485196 
L 409.901677 -127.039896 
L 418.829677 -148.401986 
L 427.757677 -170.764256 
L 436.685677 -142.967391 
L 445.613677 -146.063706 
L 454.541677 -155.123748 
L 463.469677 -165.453807 
L 472.397677 -130.121594 
L 481.325677 -172.335959 
L 490.253677 -133.624294 
L 490.253677 -246.583336 
L 490.253677 -246.583336 
L 481.325677 -241.296679 
L 472.397677 -247.11679 
L 463.469677 -230.679262 
L 454.541677 -248.337033 
L 445.613677 -238.808092 
L 436.685677 -233.181838 
L 427.757677 -251.501475 
L 418.829677 -228.961835 
L 409.901677 -224.975474 
L 400.973677 -247.273454 
L 392.045677 -248.338743 
L 383.117677 -235.733438 
L 374.189677 -228.48707 
L 365.261677 -223.522384 
L 356.333677 -236.530363 
L 347.405677 -231.829416 
L 338.477677 -226.350049 
L 329.549677 -222.363795 
L 320.621677 -230.521335 
L 311.693677 -223.798228 
L 302.765677 -214.95669 
L 293.837677 -213.465344 
L 284.909677 -229.495541 
L 275.981677 -222.587499 
L 267.053677 -217.096684 
L 258.125677 -222.993352 
L 249.197677 -225.027531 
L 240.269677 -220.910611 
L 231.341677 -210.037839 
L 222.413677 -218.21988 
L 213.485677 -212.723391 
L 204.557677 -217.955681 
L 195.629677 -213.632548 
L 186.701677 -201.52159 
L 177.773677 -218.307954 
L 168.845677 -203.964903 
L 159.917677 -213.420617 
L 150.989677 -207.471001 
L 142.061677 -202.444863 
L 133.133677 -203.893163 
L 124.205677 -204.197584 
L 115.277677 -202.497845 
L 106.349677 -200.763361 
L 97.421677 -202.522464 
L 88.493677 -199.040392 
L 79.565677 -201.064806 
L 70.637677 -197.959751 
L 61.709677 -197.452393 
L 52.781677 -197.401695 
L 48.317677 -197.093633 
z
" style="stroke: #9f2a63; stroke-opacity: 0.6"/>
    </defs>
    <g clip-path="url(#p89235384c2)">
     <use xlink:href="#mba6e0774f2" x="0" y="331.325562" style="fill: #9f2a63; fill-opacity: 0.6; stroke: #9f2a63; stroke-opacity: 0.6"/>
    </g>
   </g>
   <g id="PolyCollection_3">
    <defs>
     <path id="m80cf39eee1" d="M 48.317677 -196.363826 
L 48.317677 -194.917757 
L 52.781677 -194.726192 
L 61.709677 -194.477932 
L 70.637677 -193.657874 
L 79.565677 -192.998372 
L 88.493677 -192.800741 
L 97.421677 -190.830037 
L 106.349677 -192.544089 
L 115.277677 -188.691454 
L 124.205677 -194.271373 
L 133.133677 -192.034184 
L 142.061677 -189.881688 
L 150.989677 -190.350123 
L 159.917677 -192.447846 
L 168.845677 -187.55001 
L 177.773677 -188.496714 
L 186.701677 -182.922391 
L 195.629677 -187.566592 
L 204.557677 -186.62736 
L 213.485677 -189.865254 
L 222.413677 -180.311027 
L 231.341677 -179.515956 
L 240.269677 -178.643314 
L 249.197677 -185.473463 
L 258.125677 -183.909902 
L 267.053677 -176.935887 
L 275.981677 -182.676252 
L 284.909677 -191.148162 
L 293.837677 -174.863637 
L 302.765677 -181.092248 
L 311.693677 -190.211729 
L 320.621677 -163.266549 
L 329.549677 -191.952734 
L 338.477677 -170.280744 
L 347.405677 -164.747941 
L 356.333677 -185.176324 
L 365.261677 -181.377833 
L 374.189677 -170.554567 
L 383.117677 -173.735143 
L 392.045677 -170.267895 
L 400.973677 -182.094617 
L 409.901677 -149.06979 
L 418.829677 -177.457289 
L 427.757677 -189.976876 
L 436.685677 -167.465652 
L 445.613677 -169.98429 
L 454.541677 -181.279485 
L 463.469677 -181.220514 
L 472.397677 -160.261664 
L 481.325677 -190.538181 
L 490.253677 -160.137242 
L 490.253677 -227.423308 
L 490.253677 -227.423308 
L 481.325677 -226.943112 
L 472.397677 -224.994734 
L 463.469677 -218.297682 
L 454.541677 -227.687574 
L 445.613677 -224.695573 
L 436.685677 -219.829475 
L 427.757677 -232.689435 
L 418.829677 -216.137211 
L 409.901677 -202.33218 
L 400.973677 -225.548798 
L 392.045677 -224.36898 
L 383.117677 -221.892203 
L 374.189677 -211.988297 
L 365.261677 -209.310487 
L 356.333677 -219.693709 
L 347.405677 -218.493465 
L 338.477677 -209.177427 
L 329.549677 -211.541188 
L 320.621677 -214.66077 
L 311.693677 -214.904816 
L 302.765677 -207.008166 
L 293.837677 -203.089798 
L 284.909677 -217.205589 
L 275.981677 -206.883758 
L 267.053677 -207.517036 
L 258.125677 -211.283062 
L 249.197677 -213.344251 
L 240.269677 -211.051066 
L 231.341677 -201.568902 
L 222.413677 -207.254914 
L 213.485677 -205.410364 
L 204.557677 -209.081993 
L 195.629677 -205.30026 
L 186.701677 -196.52866 
L 177.773677 -210.397876 
L 168.845677 -199.00988 
L 159.917677 -208.805987 
L 150.989677 -202.065494 
L 142.061677 -198.486307 
L 133.133677 -200.370095 
L 124.205677 -200.689298 
L 115.277677 -197.558945 
L 106.349677 -198.577626 
L 97.421677 -200.040913 
L 88.493677 -197.116368 
L 79.565677 -199.062562 
L 70.637677 -196.58057 
L 61.709677 -196.527565 
L 52.781677 -196.565569 
L 48.317677 -196.363826 
z
" style="stroke: #280b53; stroke-opacity: 0.6"/>
    </defs>
    <g clip-path="url(#p89235384c2)">
     <use xlink:href="#m80cf39eee1" x="0" y="331.325562" style="fill: #280b53; fill-opacity: 0.6; stroke: #280b53; stroke-opacity: 0.6"/>
    </g>
   </g>
   <g id="line2d_31">
    <path d="M 48.317677 135.669045 
L 52.781677 135.689466 
L 61.709677 135.800831 
L 70.637677 136.212884 
L 79.565677 135.519533 
L 88.493677 136.34058 
L 97.421677 135.500701 
L 106.349677 135.731287 
L 115.277677 138.667267 
L 124.205677 133.84205 
L 133.133677 135.213991 
L 142.061677 137.020858 
L 150.989677 135.36142 
L 159.917677 131.284636 
L 168.845677 138.098049 
L 177.773677 132.591465 
L 186.701677 141.424981 
L 195.629677 134.842766 
L 204.557677 133.111634 
L 213.485677 133.873147 
L 222.413677 137.6244 
L 231.341677 140.812722 
L 240.269677 138.772636 
L 249.197677 132.986865 
L 258.125677 134.052931 
L 267.053677 138.570196 
L 275.981677 136.603763 
L 284.909677 128.325941 
L 293.837677 142.674761 
L 302.765677 136.913018 
L 311.693677 128.375539 
L 320.621677 142.462828 
L 329.549677 129.311815 
L 338.477677 142.356766 
L 347.405677 138.352375 
L 356.333677 129.211596 
L 365.261677 135.628922 
L 374.189677 140.472386 
L 383.117677 136.364967 
L 392.045677 134.990095 
L 400.973677 126.475777 
L 409.901677 154.652512 
L 418.829677 134.319529 
L 427.757677 121.634486 
L 436.685677 135.807087 
L 445.613677 134.137082 
L 454.541677 125.982115 
L 463.469677 131.29998 
L 472.397677 134.067937 
L 481.325677 122.578937 
L 490.253677 135.428915 
" clip-path="url(#p89235384c2)" style="fill: none; stroke: #ff7f0e; stroke-width: 2; stroke-linecap: square"/>
   </g>
   <g id="line2d_32">
    <path d="M 43.853677 136.09109 
L 490.253677 136.09109 
" clip-path="url(#p89235384c2)" style="fill: none; stroke-dasharray: 5.55,2.4; stroke-dashoffset: 0; stroke: #000000; stroke-width: 1.5"/>
   </g>
   <g id="patch_3">
    <path d="M 43.853677 288.55109 
L 43.853677 11.35109 
" style="fill: none; stroke: #000000; stroke-width: 0.8; stroke-linejoin: miter; stroke-linecap: square"/>
   </g>
   <g id="patch_4">
    <path d="M 490.253677 288.55109 
L 490.253677 11.35109 
" style="fill: none; stroke: #000000; stroke-width: 0.8; stroke-linejoin: miter; stroke-linecap: square"/>
   </g>
   <g id="patch_5">
    <path d="M 43.853677 288.55109 
L 490.253677 288.55109 
" style="fill: none; stroke: #000000; stroke-width: 0.8; stroke-linejoin: miter; stroke-linecap: square"/>
   </g>
   <g id="patch_6">
    <path d="M 43.853677 11.35109 
L 490.253677 11.35109 
" style="fill: none; stroke: #000000; stroke-width: 0.8; stroke-linejoin: miter; stroke-linecap: square"/>
   </g>
   <g id="legend_1">
    <g id="patch_7">
     <path d="M 52.253677 54.400281 
L 192.947418 54.400281 
Q 195.347418 54.400281 195.347418 52.000281 
L 195.347418 19.75109 
Q 195.347418 17.35109 192.947418 17.35109 
L 52.253677 17.35109 
Q 49.853677 17.35109 49.853677 19.75109 
L 49.853677 52.000281 
Q 49.853677 54.400281 52.253677 54.400281 
z
" style="fill: #ffffff; opacity: 0.8; stroke: #cccccc; stroke-linejoin: miter"/>
    </g>
    <g id="line2d_33">
     <path d="M 54.653677 26.35109 
L 66.653677 26.35109 
L 78.653677 26.35109 
" style="fill: none; stroke: #ff7f0e; stroke-width: 2; stroke-linecap: square"/>
    </g>
    <g id="text_18">
     <!-- Mean -->
     <g transform="translate(88.253677 30.55109)scale(0.12 -0.12)">
      <defs>
       <path id="CMR17-4d" d="M 1338 4249 
C 1299 4345 1293 4352 1158 4352 
L 339 4352 
L 339 4185 
C 781 4185 851 4185 851 3898 
L 851 624 
C 851 465 851 166 339 166 
L 339 0 
C 486 12 755 12 915 12 
C 1075 12 1344 12 1491 0 
L 1491 166 
C 979 166 979 465 979 624 
L 979 4159 
L 986 4159 
L 2490 102 
C 2515 38 2528 0 2579 0 
C 2630 0 2643 38 2669 102 
L 4186 4191 
L 4192 4191 
L 4192 453 
C 4192 166 4122 166 3680 166 
L 3680 0 
C 3853 12 4198 12 4384 12 
C 4570 12 4922 12 5094 0 
L 5094 166 
C 4653 166 4582 166 4582 453 
L 4582 3898 
C 4582 4185 4653 4185 5094 4185 
L 5094 4352 
L 4282 4352 
C 4147 4352 4141 4345 4102 4249 
L 2720 516 
L 1338 4249 
z
" transform="scale(0.015625)"/>
      </defs>
      <use xlink:href="#CMR17-4d" transform="scale(0.996264)"/>
      <use xlink:href="#CMR17-65" transform="translate(84.686941 0)scale(0.996264)"/>
      <use xlink:href="#CMR17-61" transform="translate(125.172601 0)scale(0.996264)"/>
      <use xlink:href="#CMR17-6e" transform="translate(170.863078 0)scale(0.996264)"/>
     </g>
    </g>
    <g id="patch_8">
     <path d="M 54.653677 47.275686 
L 78.653677 47.275686 
L 78.653677 38.875686 
L 54.653677 38.875686 
z
" style="fill: #f57d15; fill-opacity: 0.5; stroke: #f57d15; stroke-opacity: 0.5; stroke-linejoin: miter"/>
    </g>
    <g id="text_19">
     <!-- 3 $\sigma$ -->
     <g transform="translate(88.253677 47.275686)scale(0.12 -0.12)">
      <defs>
       <path id="CMR17-33" d="M 1414 2176 
C 1984 2176 2234 1673 2234 1094 
C 2234 322 1824 25 1453 25 
C 1114 25 563 193 390 691 
C 422 678 454 678 486 678 
C 640 678 755 780 755 947 
C 755 1132 614 1216 486 1216 
C 378 1216 211 1164 211 927 
C 211 335 787 -128 1466 -128 
C 2176 -128 2720 432 2720 1087 
C 2720 1718 2208 2176 1600 2246 
C 2086 2347 2554 2776 2554 3353 
C 2554 3856 2048 4224 1472 4224 
C 890 4224 378 3862 378 3347 
C 378 3123 544 3084 627 3084 
C 762 3084 877 3167 877 3334 
C 877 3500 762 3584 627 3584 
C 602 3584 570 3584 544 3571 
C 730 3999 1235 4076 1459 4076 
C 1683 4076 2106 3966 2106 3347 
C 2106 3167 2080 2851 1862 2574 
C 1670 2329 1453 2316 1242 2297 
C 1210 2297 1062 2284 1037 2284 
C 992 2278 966 2272 966 2227 
C 966 2182 973 2176 1101 2176 
L 1414 2176 
z
" transform="scale(0.015625)"/>
       <path id="CMMI12-1b" d="M 3251 2406 
C 3334 2406 3546 2406 3546 2611 
C 3546 2752 3424 2752 3309 2752 
L 1894 2752 
C 934 2752 243 1685 243 932 
C 243 389 595 -64 1171 -64 
C 1926 -64 2752 746 2752 1704 
C 2752 1953 2694 2195 2541 2406 
L 3251 2406 
z
M 1178 64 
C 851 64 614 312 614 753 
C 614 1136 845 2406 1786 2406 
C 2061 2406 2368 2272 2368 1780 
C 2368 1557 2266 1021 2042 651 
C 1811 274 1466 64 1178 64 
z
" transform="scale(0.015625)"/>
      </defs>
      <use xlink:href="#CMR17-33" transform="scale(0.996264)"/>
      <use xlink:href="#CMMI12-1b" transform="translate(75.766443 0)scale(0.996264)"/>
     </g>
    </g>
    <g id="patch_9">
     <path d="M 140.538979 30.55109 
L 164.538979 30.55109 
L 164.538979 22.15109 
L 140.538979 22.15109 
z
" style="fill: #9f2a63; fill-opacity: 0.6; stroke: #9f2a63; stroke-opacity: 0.6; stroke-linejoin: miter"/>
    </g>
    <g id="text_20">
     <!-- 2 $\sigma$ -->
     <g transform="translate(174.138979 30.55109)scale(0.12 -0.12)">
      <use xlink:href="#CMR17-32" transform="scale(0.996264)"/>
      <use xlink:href="#CMMI12-1b" transform="translate(75.766443 0)scale(0.996264)"/>
     </g>
    </g>
    <g id="patch_10">
     <path d="M 140.538979 47.275686 
L 164.538979 47.275686 
L 164.538979 38.875686 
L 140.538979 38.875686 
z
" style="fill: #280b53; fill-opacity: 0.6; stroke: #280b53; stroke-opacity: 0.6; stroke-linejoin: miter"/>
    </g>
    <g id="text_21">
     <!-- 1 $\sigma$ -->
     <g transform="translate(174.138979 47.275686)scale(0.12 -0.12)">
      <use xlink:href="#CMR17-31" transform="scale(0.996264)"/>
      <use xlink:href="#CMMI12-1b" transform="translate(75.766443 0)scale(0.996264)"/>
     </g>
    </g>
   </g>
  </g>
  <g id="text_22">
   <!-- True $\left \langle E_\nu \right \rangle$ -->
   <g transform="translate(496.013677 140.95109)scale(0.12 -0.12)">
    <defs>
     <path id="CMR17-54" d="M 3981 4332 
L 288 4332 
L 179 2924 
L 294 2924 
C 378 3981 467 4166 1453 4166 
C 1568 4166 1754 4166 1805 4159 
C 1926 4140 1926 4064 1926 3917 
L 1926 465 
C 1926 236 1907 166 1376 166 
L 1197 166 
L 1197 0 
C 1504 6 1824 12 2138 12 
C 2451 12 2771 6 3078 0 
L 3078 166 
L 2899 166 
C 2368 166 2349 236 2349 465 
L 2349 3917 
C 2349 4057 2349 4134 2464 4159 
C 2515 4166 2701 4166 2816 4166 
C 3795 4166 3891 3981 3974 2924 
L 4090 2924 
L 3981 4332 
z
" transform="scale(0.015625)"/>
     <path id="CMR17-75" d="M 1882 2745 
L 1882 2579 
C 2259 2579 2317 2540 2317 2229 
L 2317 1053 
C 2317 510 2029 38 1555 38 
C 1030 38 986 355 986 691 
L 986 2816 
L 211 2745 
L 211 2579 
C 467 2579 640 2579 646 2320 
L 646 1079 
C 646 646 646 368 813 187 
C 896 103 1056 -64 1517 -64 
C 2061 -64 2272 400 2323 536 
L 2330 536 
L 2330 -64 
L 3091 -13 
L 3091 154 
C 2714 154 2656 193 2656 503 
L 2656 2816 
L 1882 2745 
z
" transform="scale(0.015625)"/>
    </defs>
    <use xlink:href="#CMR17-54" transform="scale(0.996264)"/>
    <use xlink:href="#CMR17-72" transform="translate(58.702625 0)scale(0.996264)"/>
    <use xlink:href="#CMR17-75" transform="translate(93.983393 0)scale(0.996264)"/>
    <use xlink:href="#CMR17-65" transform="translate(144.878763 0)scale(0.996264)"/>
    <use xlink:href="#CMSY10-68" transform="translate(215.44039 0)scale(0.996264)"/>
    <use xlink:href="#CMMI12-45" transform="translate(254.184123 0)scale(0.996264)"/>
    <use xlink:href="#CMMI12-17" transform="translate(326.395341 -14.943915)scale(0.697382)"/>
    <use xlink:href="#CMSY10-69" transform="translate(365.031264 0)scale(0.996264)"/>
   </g>
  </g>
 </g>
 <defs>
  <clipPath id="p89235384c2">
   <rect x="43.853677" y="11.35109" width="446.4" height="277.2"/>
  </clipPath>
 </defs>
</svg>
