<?xml version="1.0" encoding="utf-8" standalone="no"?>
<!DOCTYPE svg PUBLIC "-//W3C//DTD SVG 1.1//EN"
  "http://www.w3.org/Graphics/SVG/1.1/DTD/svg11.dtd">
<svg xmlns:xlink="http://www.w3.org/1999/xlink" width="521.271619pt" height="379.856673pt" viewBox="0 0 521.271619 379.856673" xmlns="http://www.w3.org/2000/svg" version="1.1">
 <metadata>
  <rdf:RDF xmlns:dc="http://purl.org/dc/elements/1.1/" xmlns:cc="http://creativecommons.org/ns#" xmlns:rdf="http://www.w3.org/1999/02/22-rdf-syntax-ns#">
   <cc:Work>
    <dc:type rdf:resource="http://purl.org/dc/dcmitype/StillImage"/>
    <dc:date>2023-10-04T11:08:28.662476</dc:date>
    <dc:format>image/svg+xml</dc:format>
    <dc:creator>
     <cc:Agent>
      <dc:title>Matplotlib v3.5.3, https://matplotlib.org/</dc:title>
     </cc:Agent>
    </dc:creator>
   </cc:Work>
  </rdf:RDF>
 </metadata>
 <defs>
  <style type="text/css">*{stroke-linejoin: round; stroke-linecap: butt}</style>
 </defs>
 <g id="figure_1">
  <g id="patch_1">
   <path d="M 0 379.856673 
L 521.271619 379.856673 
L 521.271619 0 
L 0 0 
L 0 379.856673 
z
" style="fill: none; opacity: 0"/>
  </g>
  <g id="axes_1">
   <g id="patch_2">
    <path d="M 43.003031 338.8533 
L 489.403031 338.8533 
L 489.403031 61.6533 
L 43.003031 61.6533 
z
" style="fill: #ffffff; opacity: 0.2"/>
   </g>
   <g id="matplotlib.axis_1">
    <g id="xtick_1">
     <g id="line2d_1">
      <defs>
       <path id="m09086deeea" d="M 0 0 
L 0 3.5 
" style="stroke: #000000; stroke-width: 0.8"/>
      </defs>
      <g>
       <use xlink:href="#m09086deeea" x="44.747871" y="338.8533" style="stroke: #000000; stroke-width: 0.8"/>
      </g>
     </g>
     <g id="text_1">
      <!-- $\mathdefault{0}$ -->
      <g transform="translate(42.257203 352.771799)scale(0.1 -0.1)">
       <defs>
        <path id="CMR17-30" d="M 2688 2025 
C 2688 2416 2682 3080 2413 3591 
C 2176 4039 1798 4198 1466 4198 
C 1158 4198 768 4058 525 3597 
C 269 3118 243 2524 243 2025 
C 243 1661 250 1106 448 619 
C 723 -39 1216 -128 1466 -128 
C 1760 -128 2208 -7 2470 600 
C 2662 1042 2688 1559 2688 2025 
z
M 1466 -26 
C 1056 -26 813 325 723 812 
C 653 1188 653 1738 653 2096 
C 653 2588 653 2997 736 3387 
C 858 3929 1216 4096 1466 4096 
C 1728 4096 2067 3923 2189 3400 
C 2272 3036 2278 2607 2278 2096 
C 2278 1680 2278 1169 2202 792 
C 2067 95 1690 -26 1466 -26 
z
" transform="scale(0.015625)"/>
       </defs>
       <use xlink:href="#CMR17-30" transform="scale(0.996264)"/>
      </g>
     </g>
    </g>
    <g id="xtick_2">
     <g id="line2d_2">
      <g>
       <use xlink:href="#m09086deeea" x="114.541492" y="338.8533" style="stroke: #000000; stroke-width: 0.8"/>
      </g>
     </g>
     <g id="text_2">
      <!-- $\mathdefault{2000}$ -->
      <g transform="translate(104.578822 352.771799)scale(0.1 -0.1)">
       <defs>
        <path id="CMR17-32" d="M 2669 989 
L 2554 989 
C 2490 536 2438 459 2413 420 
C 2381 369 1920 369 1830 369 
L 602 369 
C 832 619 1280 1072 1824 1597 
C 2214 1967 2669 2402 2669 3035 
C 2669 3790 2067 4224 1395 4224 
C 691 4224 262 3604 262 3030 
C 262 2780 448 2748 525 2748 
C 589 2748 781 2787 781 3010 
C 781 3207 614 3264 525 3264 
C 486 3264 448 3258 422 3245 
C 544 3790 915 4058 1306 4058 
C 1862 4058 2227 3617 2227 3035 
C 2227 2479 1901 2000 1536 1584 
L 262 146 
L 262 0 
L 2515 0 
L 2669 989 
z
" transform="scale(0.015625)"/>
       </defs>
       <use xlink:href="#CMR17-32" transform="scale(0.996264)"/>
       <use xlink:href="#CMR17-30" transform="translate(45.690477 0)scale(0.996264)"/>
       <use xlink:href="#CMR17-30" transform="translate(91.380954 0)scale(0.996264)"/>
       <use xlink:href="#CMR17-30" transform="translate(137.071431 0)scale(0.996264)"/>
      </g>
     </g>
    </g>
    <g id="xtick_3">
     <g id="line2d_3">
      <g>
       <use xlink:href="#m09086deeea" x="184.335113" y="338.8533" style="stroke: #000000; stroke-width: 0.8"/>
      </g>
     </g>
     <g id="text_3">
      <!-- $\mathdefault{4000}$ -->
      <g transform="translate(174.372443 352.771799)scale(0.1 -0.1)">
       <defs>
        <path id="CMR17-34" d="M 2150 4122 
C 2150 4256 2144 4256 2029 4256 
L 128 1254 
L 128 1088 
L 1779 1088 
L 1779 457 
C 1779 224 1766 160 1318 160 
L 1197 160 
L 1197 0 
C 1402 0 1747 0 1965 0 
C 2182 0 2528 0 2733 0 
L 2733 160 
L 2611 160 
C 2163 160 2150 224 2150 457 
L 2150 1088 
L 2803 1088 
L 2803 1254 
L 2150 1254 
L 2150 4122 
z
M 1798 3703 
L 1798 1254 
L 256 1254 
L 1798 3703 
z
" transform="scale(0.015625)"/>
       </defs>
       <use xlink:href="#CMR17-34" transform="scale(0.996264)"/>
       <use xlink:href="#CMR17-30" transform="translate(45.690477 0)scale(0.996264)"/>
       <use xlink:href="#CMR17-30" transform="translate(91.380954 0)scale(0.996264)"/>
       <use xlink:href="#CMR17-30" transform="translate(137.071431 0)scale(0.996264)"/>
      </g>
     </g>
    </g>
    <g id="xtick_4">
     <g id="line2d_4">
      <g>
       <use xlink:href="#m09086deeea" x="254.128734" y="338.8533" style="stroke: #000000; stroke-width: 0.8"/>
      </g>
     </g>
     <g id="text_4">
      <!-- $\mathdefault{6000}$ -->
      <g transform="translate(244.166064 352.771799)scale(0.1 -0.1)">
       <defs>
        <path id="CMR17-36" d="M 678 2176 
C 678 3690 1395 4032 1811 4032 
C 1946 4032 2272 4009 2400 3776 
C 2298 3776 2106 3776 2106 3553 
C 2106 3381 2246 3323 2336 3323 
C 2394 3323 2566 3348 2566 3560 
C 2566 3954 2246 4179 1805 4179 
C 1043 4179 243 3390 243 1984 
C 243 253 966 -128 1478 -128 
C 2099 -128 2688 427 2688 1283 
C 2688 2081 2170 2662 1517 2662 
C 1126 2662 838 2407 678 1960 
L 678 2176 
z
M 1478 25 
C 691 25 691 1200 691 1436 
C 691 1896 909 2560 1504 2560 
C 1613 2560 1926 2560 2138 2120 
C 2253 1870 2253 1609 2253 1289 
C 2253 944 2253 690 2118 434 
C 1978 171 1773 25 1478 25 
z
" transform="scale(0.015625)"/>
       </defs>
       <use xlink:href="#CMR17-36" transform="scale(0.996264)"/>
       <use xlink:href="#CMR17-30" transform="translate(45.690477 0)scale(0.996264)"/>
       <use xlink:href="#CMR17-30" transform="translate(91.380954 0)scale(0.996264)"/>
       <use xlink:href="#CMR17-30" transform="translate(137.071431 0)scale(0.996264)"/>
      </g>
     </g>
    </g>
    <g id="xtick_5">
     <g id="line2d_5">
      <g>
       <use xlink:href="#m09086deeea" x="323.922355" y="338.8533" style="stroke: #000000; stroke-width: 0.8"/>
      </g>
     </g>
     <g id="text_5">
      <!-- $\mathdefault{8000}$ -->
      <g transform="translate(313.959685 352.771799)scale(0.1 -0.1)">
       <defs>
        <path id="CMR17-38" d="M 1741 2264 
C 2144 2467 2554 2773 2554 3263 
C 2554 3841 1990 4179 1472 4179 
C 890 4179 378 3759 378 3180 
C 378 3021 416 2747 666 2505 
C 730 2442 998 2251 1171 2130 
C 883 1983 211 1634 211 934 
C 211 279 838 -128 1459 -128 
C 2144 -128 2720 362 2720 1010 
C 2720 1590 2330 1857 2074 2029 
L 1741 2264 
z
M 902 2822 
C 851 2854 595 3051 595 3351 
C 595 3739 998 4032 1459 4032 
C 1965 4032 2336 3676 2336 3262 
C 2336 2669 1670 2331 1638 2331 
C 1632 2331 1626 2331 1574 2370 
L 902 2822 
z
M 2080 1519 
C 2176 1449 2483 1240 2483 851 
C 2483 381 2010 25 1472 25 
C 890 25 448 438 448 940 
C 448 1443 838 1862 1280 2060 
L 2080 1519 
z
" transform="scale(0.015625)"/>
       </defs>
       <use xlink:href="#CMR17-38" transform="scale(0.996264)"/>
       <use xlink:href="#CMR17-30" transform="translate(45.690477 0)scale(0.996264)"/>
       <use xlink:href="#CMR17-30" transform="translate(91.380954 0)scale(0.996264)"/>
       <use xlink:href="#CMR17-30" transform="translate(137.071431 0)scale(0.996264)"/>
      </g>
     </g>
    </g>
    <g id="xtick_6">
     <g id="line2d_6">
      <g>
       <use xlink:href="#m09086deeea" x="393.715976" y="338.8533" style="stroke: #000000; stroke-width: 0.8"/>
      </g>
     </g>
     <g id="text_6">
      <!-- $\mathdefault{10000}$ -->
      <g transform="translate(381.262638 352.771799)scale(0.1 -0.1)">
       <defs>
        <path id="CMR17-31" d="M 1702 4058 
C 1702 4192 1696 4192 1606 4192 
C 1357 3916 979 3827 621 3827 
C 602 3827 570 3827 563 3808 
C 557 3795 557 3782 557 3648 
C 755 3648 1088 3686 1344 3839 
L 1344 461 
C 1344 236 1331 160 781 160 
L 589 160 
L 589 0 
C 896 0 1216 0 1523 0 
C 1830 0 2150 0 2458 0 
L 2458 160 
L 2266 160 
C 1715 160 1702 230 1702 458 
L 1702 4058 
z
" transform="scale(0.015625)"/>
       </defs>
       <use xlink:href="#CMR17-31" transform="scale(0.996264)"/>
       <use xlink:href="#CMR17-30" transform="translate(45.690477 0)scale(0.996264)"/>
       <use xlink:href="#CMR17-30" transform="translate(91.380954 0)scale(0.996264)"/>
       <use xlink:href="#CMR17-30" transform="translate(137.071431 0)scale(0.996264)"/>
       <use xlink:href="#CMR17-30" transform="translate(182.761908 0)scale(0.996264)"/>
      </g>
     </g>
    </g>
    <g id="xtick_7">
     <g id="line2d_7">
      <g>
       <use xlink:href="#m09086deeea" x="463.509597" y="338.8533" style="stroke: #000000; stroke-width: 0.8"/>
      </g>
     </g>
     <g id="text_7">
      <!-- $\mathdefault{12000}$ -->
      <g transform="translate(451.056259 352.771799)scale(0.1 -0.1)">
       <use xlink:href="#CMR17-31" transform="scale(0.996264)"/>
       <use xlink:href="#CMR17-32" transform="translate(45.690477 0)scale(0.996264)"/>
       <use xlink:href="#CMR17-30" transform="translate(91.380954 0)scale(0.996264)"/>
       <use xlink:href="#CMR17-30" transform="translate(137.071431 0)scale(0.996264)"/>
       <use xlink:href="#CMR17-30" transform="translate(182.761908 0)scale(0.996264)"/>
      </g>
     </g>
    </g>
    <g id="text_8">
     <!-- Distance [km] -->
     <g transform="translate(225.100527 369.169749)scale(0.14 -0.14)">
      <defs>
       <path id="CMR17-44" d="M 333 4352 
L 333 4186 
C 774 4186 845 4186 845 3900 
L 845 452 
C 845 166 774 166 333 166 
L 333 0 
L 2368 0 
C 3398 0 4224 943 4224 2141 
C 4224 3346 3411 4352 2368 4352 
L 333 4352 
z
M 1523 166 
C 1267 166 1254 197 1254 414 
L 1254 3938 
C 1254 4155 1267 4186 1523 4186 
L 2240 4186 
C 2771 4186 3750 3874 3750 2141 
C 3750 1242 3488 879 3366 707 
C 3213 510 2848 166 2240 166 
L 1523 166 
z
" transform="scale(0.015625)"/>
       <path id="CMR17-69" d="M 992 3909 
C 992 4049 877 4170 730 4170 
C 589 4170 467 4056 467 3909 
C 467 3769 582 3648 730 3648 
C 870 3648 992 3763 992 3909 
z
M 243 2706 
L 243 2541 
C 602 2541 653 2502 653 2197 
L 653 427 
C 653 184 627 153 218 153 
L 218 -13 
C 371 0 646 0 806 0 
C 960 0 1222 0 1370 -13 
L 1370 153 
C 992 153 979 191 979 420 
L 979 2776 
L 243 2706 
z
" transform="scale(0.015625)"/>
       <path id="CMR17-73" d="M 1978 2697 
C 1978 2813 1971 2819 1933 2819 
C 1907 2819 1901 2813 1824 2717 
C 1805 2691 1747 2626 1728 2601 
C 1523 2819 1235 2819 1126 2819 
C 416 2819 160 2447 160 2076 
C 160 1498 813 1365 998 1325 
C 1402 1243 1542 1217 1677 1101 
C 1760 1025 1901 884 1901 654 
C 1901 384 1747 38 1158 38 
C 602 38 403 460 288 1021 
C 269 1110 269 1117 218 1117 
C 166 1117 160 1110 160 983 
L 160 63 
C 160 -51 166 -58 205 -58 
C 237 -58 243 -51 275 0 
C 314 57 410 211 448 276 
C 576 103 800 -64 1158 -64 
C 1792 -64 2131 283 2131 784 
C 2131 1112 1958 1285 1875 1362 
C 1683 1561 1459 1606 1190 1657 
C 838 1735 390 1825 390 2217 
C 390 2383 480 2737 1126 2737 
C 1811 2737 1850 2094 1862 1888 
C 1869 1856 1901 1849 1920 1849 
C 1978 1849 1978 1869 1978 1978 
L 1978 2697 
z
" transform="scale(0.015625)"/>
       <path id="CMR17-74" d="M 966 2560 
L 1862 2560 
L 1862 2725 
L 966 2725 
L 966 3904 
L 851 3904 
C 838 3245 614 2668 70 2668 
L 70 2560 
L 627 2560 
L 627 771 
C 627 650 627 -64 1370 -64 
C 1747 -64 1965 306 1965 777 
L 1965 1140 
L 1850 1140 
L 1850 783 
C 1850 344 1677 51 1408 51 
C 1222 51 966 178 966 758 
L 966 2560 
z
" transform="scale(0.015625)"/>
       <path id="CMR17-61" d="M 2304 1653 
C 2304 2072 2304 2294 2035 2543 
C 1798 2752 1523 2816 1306 2816 
C 800 2816 435 2407 435 1971 
C 435 1728 627 1728 666 1728 
C 749 1728 896 1778 896 1954 
C 896 2112 774 2181 666 2181 
C 640 2181 608 2174 589 2168 
C 723 2592 1069 2714 1293 2714 
C 1613 2714 1965 2429 1965 1885 
L 1965 1600 
C 1587 1600 1133 1549 774 1357 
C 371 1133 256 813 256 570 
C 256 77 832 -64 1171 -64 
C 1523 -64 1850 139 1990 511 
C 2003 233 2182 -18 2464 -18 
C 2598 -18 2938 70 2938 567 
L 2938 920 
L 2822 920 
L 2822 562 
C 2822 178 2650 128 2566 128 
C 2304 128 2304 458 2304 738 
L 2304 1653 
z
M 1965 870 
C 1965 317 1568 38 1216 38 
C 896 38 646 275 646 570 
C 646 761 730 1100 1101 1305 
C 1408 1478 1760 1504 1965 1504 
L 1965 870 
z
" transform="scale(0.015625)"/>
       <path id="CMR17-6e" d="M 2656 1933 
C 2656 2259 2592 2790 1837 2790 
C 1331 2790 1069 2400 973 2144 
L 966 2144 
L 966 2790 
L 211 2720 
L 211 2554 
C 589 2554 646 2515 646 2208 
L 646 428 
C 646 184 621 153 211 153 
L 211 -13 
C 365 0 646 0 813 0 
C 979 0 1267 0 1421 -13 
L 1421 153 
C 1011 153 986 178 986 428 
L 986 1658 
C 986 2247 1344 2688 1792 2688 
C 2266 2688 2317 2266 2317 1958 
L 2317 428 
C 2317 184 2291 153 1882 153 
L 1882 -13 
C 2035 0 2317 0 2483 0 
C 2650 0 2938 0 3091 -13 
L 3091 153 
C 2682 153 2656 178 2656 428 
L 2656 1933 
z
" transform="scale(0.015625)"/>
       <path id="CMR17-63" d="M 2234 2240 
C 2112 2240 1933 2240 1933 2017 
C 1933 1838 2080 1787 2163 1787 
C 2208 1787 2394 1807 2394 2024 
C 2394 2467 1958 2803 1466 2803 
C 787 2803 211 2178 211 1363 
C 211 516 813 -64 1466 -64 
C 2259 -64 2458 677 2458 748 
C 2458 774 2451 793 2406 793 
C 2362 793 2355 787 2330 703 
C 2163 180 1798 51 1523 51 
C 1114 51 621 427 621 1369 
C 621 2338 1094 2688 1472 2688 
C 1722 2688 2093 2573 2234 2240 
z
" transform="scale(0.015625)"/>
       <path id="CMR17-65" d="M 2438 1472 
C 2464 1498 2464 1511 2464 1576 
C 2464 2238 2118 2816 1389 2816 
C 710 2816 173 2169 173 1383 
C 173 551 781 -64 1459 -64 
C 2176 -64 2458 607 2458 740 
C 2458 784 2419 784 2406 784 
C 2362 784 2355 771 2330 696 
C 2189 265 1837 51 1504 51 
C 1229 51 954 203 781 480 
C 582 803 582 1176 582 1472 
L 2438 1472 
z
M 589 1568 
C 634 2505 1126 2714 1382 2714 
C 1818 2714 2112 2297 2118 1568 
L 589 1568 
z
" transform="scale(0.015625)"/>
       <path id="CMR17-5b" d="M 1504 -1600 
L 1504 -1377 
L 902 -1377 
L 902 4544 
L 1504 4544 
L 1504 4767 
L 678 4767 
L 678 -1600 
L 1504 -1600 
z
" transform="scale(0.015625)"/>
       <path id="CMR17-6b" d="M 1670 1673 
C 1664 1686 1632 1724 1632 1743 
C 1632 1756 2086 2171 2144 2222 
C 2509 2528 2739 2560 2906 2560 
L 2906 2733 
C 2867 2733 2854 2733 2848 2720 
L 2534 2720 
C 2355 2720 2080 2720 1907 2733 
L 1907 2566 
C 1997 2559 2061 2508 2061 2419 
C 2061 2291 1933 2170 1926 2170 
L 960 1289 
L 960 4396 
L 198 4326 
L 198 4160 
C 576 4160 634 4122 634 3817 
L 634 426 
C 634 184 608 153 198 153 
L 198 -13 
C 352 0 634 0 794 0 
C 954 0 1235 0 1389 -13 
L 1389 153 
C 979 153 954 178 954 428 
L 954 1130 
L 1395 1532 
L 2042 574 
C 2118 459 2182 369 2182 286 
C 2182 172 2067 153 1990 153 
L 1990 -13 
C 2144 0 2419 0 2579 0 
C 2694 0 2931 0 3040 0 
L 3040 153 
C 2739 153 2669 210 2477 491 
L 1670 1673 
z
" transform="scale(0.015625)"/>
       <path id="CMR17-6d" d="M 4326 1933 
C 4326 2252 4269 2790 3507 2790 
C 3072 2790 2771 2496 2656 2151 
L 2650 2151 
C 2573 2676 2195 2790 1837 2790 
C 1331 2790 1069 2400 973 2144 
L 966 2144 
L 966 2790 
L 211 2720 
L 211 2554 
C 589 2554 646 2515 646 2208 
L 646 428 
C 646 184 621 153 211 153 
L 211 -13 
C 365 0 646 0 813 0 
C 979 0 1267 0 1421 -13 
L 1421 153 
C 1011 153 986 178 986 428 
L 986 1658 
C 986 2247 1344 2688 1792 2688 
C 2266 2688 2317 2266 2317 1958 
L 2317 428 
C 2317 184 2291 153 1882 153 
L 1882 -13 
C 2035 0 2317 0 2483 0 
C 2650 0 2938 0 3091 -13 
L 3091 153 
C 2682 153 2656 178 2656 428 
L 2656 1658 
C 2656 2247 3014 2688 3462 2688 
C 3936 2688 3987 2266 3987 1958 
L 3987 428 
C 3987 184 3962 153 3552 153 
L 3552 -13 
C 3706 0 3987 0 4154 0 
C 4320 0 4608 0 4762 -13 
L 4762 153 
C 4352 153 4326 178 4326 428 
L 4326 1933 
z
" transform="scale(0.015625)"/>
       <path id="CMR17-5d" d="M 915 4767 
L 90 4767 
L 90 4544 
L 691 4544 
L 691 -1377 
L 90 -1377 
L 90 -1600 
L 915 -1600 
L 915 4767 
z
" transform="scale(0.015625)"/>
      </defs>
      <use xlink:href="#CMR17-44" transform="scale(0.996264)"/>
      <use xlink:href="#CMR17-69" transform="translate(70.393556 0)scale(0.996264)"/>
      <use xlink:href="#CMR17-73" transform="translate(95.264614 0)scale(0.996264)"/>
      <use xlink:href="#CMR17-74" transform="translate(131.065952 0)scale(0.996264)"/>
      <use xlink:href="#CMR17-61" transform="translate(166.34672 0)scale(0.996264)"/>
      <use xlink:href="#CMR17-6e" transform="translate(212.037197 0)scale(0.996264)"/>
      <use xlink:href="#CMR17-63" transform="translate(262.932567 0)scale(0.996264)"/>
      <use xlink:href="#CMR17-65" transform="translate(303.418227 0)scale(0.996264)"/>
      <use xlink:href="#CMR17-5b" transform="translate(373.979854 0)scale(0.996264)"/>
      <use xlink:href="#CMR17-6b" transform="translate(398.850912 0)scale(0.996264)"/>
      <use xlink:href="#CMR17-6d" transform="translate(447.143828 0)scale(0.996264)"/>
      <use xlink:href="#CMR17-5d" transform="translate(524.063418 0)scale(0.996264)"/>
     </g>
    </g>
   </g>
   <g id="matplotlib.axis_2">
    <g id="ytick_1">
     <g id="line2d_8">
      <defs>
       <path id="m0affb0abe6" d="M 0 0 
L -3.5 0 
" style="stroke: #000000; stroke-width: 0.8"/>
      </defs>
      <g>
       <use xlink:href="#m0affb0abe6" x="43.003031" y="338.8533" style="stroke: #000000; stroke-width: 0.8"/>
      </g>
     </g>
     <g id="text_9">
      <!-- $\mathdefault{2}$ -->
      <g transform="translate(31.021695 342.312549)scale(0.1 -0.1)">
       <use xlink:href="#CMR17-32" transform="scale(0.996264)"/>
      </g>
     </g>
    </g>
    <g id="ytick_2">
     <g id="line2d_9">
      <g>
       <use xlink:href="#m0affb0abe6" x="43.003031" y="292.6533" style="stroke: #000000; stroke-width: 0.8"/>
      </g>
     </g>
     <g id="text_10">
      <!-- $\mathdefault{4}$ -->
      <g transform="translate(31.021695 296.112549)scale(0.1 -0.1)">
       <use xlink:href="#CMR17-34" transform="scale(0.996264)"/>
      </g>
     </g>
    </g>
    <g id="ytick_3">
     <g id="line2d_10">
      <g>
       <use xlink:href="#m0affb0abe6" x="43.003031" y="246.4533" style="stroke: #000000; stroke-width: 0.8"/>
      </g>
     </g>
     <g id="text_11">
      <!-- $\mathdefault{6}$ -->
      <g transform="translate(31.021695 249.912549)scale(0.1 -0.1)">
       <use xlink:href="#CMR17-36" transform="scale(0.996264)"/>
      </g>
     </g>
    </g>
    <g id="ytick_4">
     <g id="line2d_11">
      <g>
       <use xlink:href="#m0affb0abe6" x="43.003031" y="200.2533" style="stroke: #000000; stroke-width: 0.8"/>
      </g>
     </g>
     <g id="text_12">
      <!-- $\mathdefault{8}$ -->
      <g transform="translate(31.021695 203.712549)scale(0.1 -0.1)">
       <use xlink:href="#CMR17-38" transform="scale(0.996264)"/>
      </g>
     </g>
    </g>
    <g id="ytick_5">
     <g id="line2d_12">
      <g>
       <use xlink:href="#m0affb0abe6" x="43.003031" y="154.0533" style="stroke: #000000; stroke-width: 0.8"/>
      </g>
     </g>
     <g id="text_13">
      <!-- $\mathdefault{10}$ -->
      <g transform="translate(26.04036 157.512549)scale(0.1 -0.1)">
       <use xlink:href="#CMR17-31" transform="scale(0.996264)"/>
       <use xlink:href="#CMR17-30" transform="translate(45.690477 0)scale(0.996264)"/>
      </g>
     </g>
    </g>
    <g id="ytick_6">
     <g id="line2d_13">
      <g>
       <use xlink:href="#m0affb0abe6" x="43.003031" y="107.8533" style="stroke: #000000; stroke-width: 0.8"/>
      </g>
     </g>
     <g id="text_14">
      <!-- $\mathdefault{12}$ -->
      <g transform="translate(26.04036 111.312549)scale(0.1 -0.1)">
       <use xlink:href="#CMR17-31" transform="scale(0.996264)"/>
       <use xlink:href="#CMR17-32" transform="translate(45.690477 0)scale(0.996264)"/>
      </g>
     </g>
    </g>
    <g id="ytick_7">
     <g id="line2d_14">
      <g>
       <use xlink:href="#m0affb0abe6" x="43.003031" y="61.6533" style="stroke: #000000; stroke-width: 0.8"/>
      </g>
     </g>
     <g id="text_15">
      <!-- $\mathdefault{14}$ -->
      <g transform="translate(26.04036 65.112549)scale(0.1 -0.1)">
       <use xlink:href="#CMR17-31" transform="scale(0.996264)"/>
       <use xlink:href="#CMR17-34" transform="translate(45.690477 0)scale(0.996264)"/>
      </g>
     </g>
    </g>
    <g id="text_16">
     <!-- Density [g/cm$^3$] -->
     <g transform="translate(18.553436 247.338047)rotate(-90)scale(0.14 -0.14)">
      <defs>
       <path id="CMR17-79" d="M 2496 2197 
C 2656 2586 2944 2586 3034 2586 
L 3034 2752 
C 2912 2752 2752 2752 2630 2752 
C 2496 2752 2285 2752 2157 2758 
L 2157 2592 
C 2400 2573 2406 2394 2406 2343 
C 2406 2280 2394 2248 2362 2171 
L 1664 449 
L 902 2306 
C 870 2382 870 2426 870 2433 
C 870 2573 1018 2586 1171 2586 
L 1171 2758 
C 1018 2752 742 2752 582 2752 
C 410 2752 205 2752 64 2758 
L 64 2586 
C 410 2586 448 2554 531 2350 
L 1485 15 
C 1197 -738 1030 -1178 627 -1178 
C 557 -1178 397 -1159 282 -1044 
C 429 -1031 493 -942 493 -833 
C 493 -725 416 -629 288 -629 
C 147 -629 77 -725 77 -840 
C 77 -1095 339 -1280 627 -1280 
C 998 -1280 1229 -922 1357 -604 
L 2496 2197 
z
" transform="scale(0.015625)"/>
       <path id="CMR17-67" d="M 710 1164 
C 832 1068 1043 960 1299 960 
C 1805 960 2240 1357 2240 1888 
C 2240 2054 2189 2310 1997 2509 
C 2176 2692 2438 2752 2586 2752 
C 2611 2752 2650 2752 2682 2734 
C 2656 2728 2598 2703 2598 2605 
C 2598 2527 2656 2471 2739 2471 
C 2835 2471 2886 2533 2886 2614 
C 2886 2731 2790 2854 2586 2854 
C 2330 2854 2106 2738 1926 2580 
C 1734 2753 1504 2816 1299 2816 
C 794 2816 358 2419 358 1888 
C 358 1522 570 1292 634 1228 
C 442 1004 442 743 442 711 
C 442 545 506 302 723 168 
C 390 85 128 -169 128 -486 
C 128 -943 736 -1280 1466 -1280 
C 2170 -1280 2803 -956 2803 -479 
C 2803 384 1856 384 1363 384 
C 1216 384 954 384 922 391 
C 723 423 589 602 589 826 
C 589 883 589 1024 710 1164 
z
M 1299 1068 
C 736 1068 736 1760 736 1889 
C 736 2016 736 2708 1299 2708 
C 1862 2708 1862 2016 1862 1889 
C 1862 1760 1862 1068 1299 1068 
z
M 1466 -1171 
C 826 -1171 384 -835 384 -486 
C 384 -289 493 -105 634 -4 
C 794 104 858 104 1293 104 
C 1818 104 2547 104 2547 -486 
C 2547 -835 2106 -1171 1466 -1171 
z
" transform="scale(0.015625)"/>
       <path id="CMR17-2f" d="M 2605 4545 
C 2637 4627 2637 4640 2637 4653 
C 2637 4729 2579 4768 2528 4768 
C 2451 4768 2426 4717 2400 4640 
L 326 -1377 
C 294 -1460 294 -1473 294 -1486 
C 294 -1562 352 -1600 403 -1600 
C 480 -1600 506 -1549 531 -1473 
L 2605 4545 
z
" transform="scale(0.015625)"/>
       <path id="CMR17-33" d="M 1414 2157 
C 1984 2157 2234 1662 2234 1090 
C 2234 320 1824 25 1453 25 
C 1114 25 563 194 390 693 
C 422 680 454 680 486 680 
C 640 680 755 782 755 948 
C 755 1133 614 1216 486 1216 
C 378 1216 211 1165 211 926 
C 211 335 787 -128 1466 -128 
C 2176 -128 2720 430 2720 1085 
C 2720 1707 2208 2157 1600 2227 
C 2086 2328 2554 2756 2554 3329 
C 2554 3820 2048 4179 1472 4179 
C 890 4179 378 3829 378 3329 
C 378 3110 544 3072 627 3072 
C 762 3072 877 3155 877 3321 
C 877 3486 762 3569 627 3569 
C 602 3569 570 3569 544 3557 
C 730 3959 1235 4032 1459 4032 
C 1683 4032 2106 3925 2106 3320 
C 2106 3143 2080 2828 1862 2550 
C 1670 2304 1453 2304 1242 2284 
C 1210 2284 1062 2269 1037 2269 
C 992 2263 966 2257 966 2208 
C 966 2163 973 2157 1101 2157 
L 1414 2157 
z
" transform="scale(0.015625)"/>
      </defs>
      <use xlink:href="#CMR17-44" transform="scale(0.996264)"/>
      <use xlink:href="#CMR17-65" transform="translate(70.393556 0)scale(0.996264)"/>
      <use xlink:href="#CMR17-6e" transform="translate(110.879216 0)scale(0.996264)"/>
      <use xlink:href="#CMR17-73" transform="translate(161.774586 0)scale(0.996264)"/>
      <use xlink:href="#CMR17-69" transform="translate(197.575924 0)scale(0.996264)"/>
      <use xlink:href="#CMR17-74" transform="translate(222.446982 0)scale(0.996264)"/>
      <use xlink:href="#CMR17-79" transform="translate(255.125296 0)scale(0.996264)"/>
      <use xlink:href="#CMR17-5b" transform="translate(333.494178 0)scale(0.996264)"/>
      <use xlink:href="#CMR17-67" transform="translate(358.365237 0)scale(0.996264)"/>
      <use xlink:href="#CMR17-2f" transform="translate(404.055714 0)scale(0.996264)"/>
      <use xlink:href="#CMR17-63" transform="translate(449.746191 0)scale(0.996264)"/>
      <use xlink:href="#CMR17-6d" transform="translate(490.231852 0)scale(0.996264)"/>
      <use xlink:href="#CMR17-33" transform="translate(567.151441 36.153639)scale(0.697382)"/>
      <use xlink:href="#CMR17-5d" transform="translate(599.632755 0)scale(0.996264)"/>
     </g>
    </g>
   </g>
   <g id="line2d_15">
    <path d="M 44.747871 333.420779 
L 45.014594 323.626139 
L 46.03703 307.547838 
L 48.570895 306.736077 
L 51.015851 306.255079 
L 54.972236 304.212005 
L 57.817277 302.284276 
L 60.92904 296.879615 
L 64.485341 294.01678 
L 66.574668 292.674372 
L 69.375255 283.415253 
L 73.553909 281.381956 
L 92.71348 274.175683 
L 105.960701 269.440524 
L 137.922956 258.750102 
L 141.790433 257.402502 
L 144.546567 256.04988 
L 144.813289 253.688946 
L 145.657911 245.803555 
L 145.791272 163.923072 
L 146.369171 156.034468 
L 149.258665 152.309714 
L 155.037654 146.796384 
L 161.172274 141.23168 
L 165.573196 137.488618 
L 172.552437 131.886195 
L 178.820417 127.270364 
L 184.955036 123.019636 
L 188.42243 120.812613 
L 195.623939 116.574228 
L 203.181079 112.558601 
L 206.826287 110.84838 
L 215.050233 107.369697 
L 218.739895 106.021224 
L 222.296196 104.780058 
L 223.185272 104.44 
L 225.452413 89.787799 
L 234.520981 87.081839 
L 241.455768 85.451897 
L 246.345682 84.528669 
L 253.324922 83.46213 
L 255.947694 83.225317 
L 259.192819 83.004954 
L 264.305001 82.558939 
L 271.328696 82.669528 
L 282.042052 83.646079 
L 287.109781 84.438631 
L 292.844317 85.517809 
L 298.267676 86.780187 
L 302.668598 87.999402 
L 308.580948 89.801623 
L 308.625402 89.873474 
L 310.892544 104.486161 
L 316.271449 106.34468 
L 318.138507 107.051868 
L 324.67321 109.766473 
L 330.496653 112.402103 
L 336.320096 115.453937 
L 342.676984 119.060413 
L 349.389502 123.259662 
L 355.657482 127.623036 
L 362.592269 132.78201 
L 369.038065 138.012175 
L 375.528314 143.63639 
L 384.10789 151.699356 
L 385.619318 153.33351 
L 387.708645 156.165091 
L 388.286544 165.333623 
L 388.419905 246.63359 
L 389.531249 256.093512 
L 393.398726 257.872405 
L 424.071822 268.089518 
L 446.343157 276.038735 
L 461.50189 281.809777 
L 464.747014 283.5593 
L 467.547601 292.779368 
L 470.748272 294.929986 
L 473.415498 297.314986 
L 476.438354 302.543396 
L 480.572553 305.089901 
L 483.639863 306.466472 
L 486.44045 306.99402 
L 487.996332 307.564127 
L 488.085239 308.611422 
L 489.15213 327.947805 
L 489.241037 333.420779 
L 489.241037 333.420779 
" clip-path="url(#pb64e78b6fd)" style="fill: none; stroke: #65156e; stroke-width: 2; stroke-linecap: square"/>
   </g>
   <g id="line2d_16">
    <path d="M 44.747871 333.420779 
L 45.063925 324.692393 
L 46.730392 307.552586 
L 50.63797 306.745516 
L 54.660477 306.251958 
L 61.38381 304.116562 
L 66.009693 302.207299 
L 71.095291 296.992833 
L 77.129051 294.218511 
L 81.640005 292.568848 
L 86.754335 283.462977 
L 94.339634 281.565797 
L 106.407155 279.441263 
L 116.463422 277.880402 
L 127.008136 276.413891 
L 137.495386 275.193434 
L 148.241226 274.173187 
L 158.757208 273.397084 
L 168.008974 272.924593 
L 178.553688 272.602243 
L 189.012206 272.504338 
L 199.470724 272.628446 
L 209.986706 272.975663 
L 219.899312 273.518461 
L 230.386562 274.331757 
L 241.10367 275.387167 
L 251.246134 276.602018 
L 260.871418 277.962396 
L 273.944565 280.044474 
L 283.885904 281.869007 
L 290.092057 283.520634 
L 295.493709 292.791801 
L 300.952826 294.749761 
L 305.980959 297.210754 
L 311.325147 302.550202 
L 318.651856 305.215483 
L 323.277739 306.472583 
L 327.673764 306.99517 
L 330.144732 307.572838 
L 330.690644 313.395261 
L 331.868664 326.564109 
L 332.041057 333.420779 
L 332.041057 333.420779 
" clip-path="url(#pb64e78b6fd)" style="fill: none; stroke-dasharray: 5.55,2.4; stroke-dashoffset: 0; stroke: #d44842; stroke-opacity: 0.5; stroke-width: 1.5"/>
   </g>
   <g id="patch_3">
    <path d="M 43.003031 338.8533 
L 43.003031 61.6533 
" style="fill: none; stroke: #000000; stroke-width: 0.8; stroke-linejoin: miter; stroke-linecap: square"/>
   </g>
   <g id="patch_4">
    <path d="M 489.403031 338.8533 
L 489.403031 61.6533 
" style="fill: none; stroke: #000000; stroke-width: 0.8; stroke-linejoin: miter; stroke-linecap: square"/>
   </g>
   <g id="patch_5">
    <path d="M 43.003031 338.8533 
L 489.403031 338.8533 
" style="fill: none; stroke: #000000; stroke-width: 0.8; stroke-linejoin: miter; stroke-linecap: square"/>
   </g>
   <g id="patch_6">
    <path d="M 43.003031 61.6533 
L 489.403031 61.6533 
" style="fill: none; stroke: #000000; stroke-width: 0.8; stroke-linejoin: miter; stroke-linecap: square"/>
   </g>
   <g id="text_17">
    <!-- SN 1987 -->
    <g style="fill: #d44842; opacity: 0.8" transform="translate(274.708601 258.0033)scale(0.12 -0.12)">
     <defs>
      <path id="CMR17-53" d="M 2803 4290 
C 2803 4404 2797 4411 2758 4411 
C 2720 4411 2707 4385 2682 4328 
L 2490 3907 
C 2246 4257 1875 4416 1472 4416 
C 819 4416 294 3901 294 3253 
C 294 3056 339 2776 557 2510 
C 794 2218 1018 2167 1530 2033 
C 1722 1982 2042 1899 2106 1874 
C 2470 1722 2662 1341 2662 985 
C 2662 527 2336 38 1779 38 
C 1094 38 454 419 410 1311 
C 403 1413 397 1419 352 1419 
C 301 1419 294 1413 294 1285 
L 294 -1 
C 294 -115 301 -122 339 -122 
C 384 -122 397 -90 486 108 
C 493 127 493 140 614 381 
C 934 -39 1472 -128 1779 -128 
C 2477 -128 2970 451 2970 1124 
C 2970 1454 2848 1708 2778 1823 
C 2509 2230 2221 2306 1914 2382 
C 1869 2402 1856 2402 1498 2490 
C 1152 2579 1005 2624 845 2796 
C 666 2992 602 3196 602 3399 
C 602 3812 934 4263 1478 4263 
C 2157 4263 2579 3786 2675 2993 
C 2694 2878 2701 2872 2746 2872 
C 2803 2872 2803 2891 2803 2999 
L 2803 4290 
z
" transform="scale(0.015625)"/>
      <path id="CMR17-4e" d="M 1312 4250 
C 1267 4320 1261 4320 1139 4320 
L 326 4320 
L 326 4160 
L 448 4160 
C 704 4160 819 4129 838 4122 
L 838 610 
C 838 451 838 153 326 153 
L 326 -13 
C 474 0 742 0 902 0 
C 1062 0 1331 0 1478 -13 
L 1478 153 
C 966 153 966 451 966 610 
L 966 4033 
C 1011 3995 1011 3982 1056 3919 
L 3430 76 
C 3475 0 3494 0 3526 0 
C 3590 0 3590 19 3590 139 
L 3590 3705 
C 3590 3863 3590 4160 4102 4160 
L 4102 4326 
C 3955 4320 3686 4320 3526 4320 
C 3366 4320 3098 4320 2950 4326 
L 2950 4160 
C 3462 4160 3462 3862 3462 3703 
L 3462 763 
L 1312 4250 
z
" transform="scale(0.015625)"/>
      <path id="CMR17-39" d="M 2253 1864 
C 2253 464 1670 31 1190 31 
C 1043 31 685 31 538 294 
C 704 268 826 357 826 518 
C 826 692 685 749 595 749 
C 538 749 365 723 365 506 
C 365 71 742 -128 1203 -128 
C 1939 -128 2688 674 2688 2073 
C 2688 3817 1971 4179 1485 4179 
C 851 4179 243 3628 243 2778 
C 243 1991 762 1408 1414 1408 
C 1952 1408 2189 1903 2253 2112 
L 2253 1864 
z
M 1427 1510 
C 1254 1510 1011 1542 813 1922 
C 678 2169 678 2461 678 2771 
C 678 3146 678 3405 858 3684 
C 947 3817 1114 4032 1485 4032 
C 2240 4032 2240 2885 2240 2632 
C 2240 2182 2035 1510 1427 1510 
z
" transform="scale(0.015625)"/>
      <path id="CMR17-37" d="M 2886 3941 
L 2886 4081 
L 1382 4081 
C 634 4081 621 4165 595 4288 
L 480 4288 
L 294 3094 
L 410 3094 
C 429 3215 474 3540 550 3661 
C 589 3712 1062 3712 1171 3712 
L 2579 3712 
L 1869 2661 
C 1395 1954 1069 999 1069 165 
C 1069 89 1069 -128 1299 -128 
C 1530 -128 1530 89 1530 171 
L 1530 465 
C 1530 1508 1709 2196 2003 2636 
L 2886 3941 
z
" transform="scale(0.015625)"/>
     </defs>
     <use xlink:href="#CMR17-53" transform="scale(0.996264)"/>
     <use xlink:href="#CMR17-4e" transform="translate(50.89537 0)scale(0.996264)"/>
     <use xlink:href="#CMR17-31" transform="translate(150.043766 0)scale(0.996264)"/>
     <use xlink:href="#CMR17-39" transform="translate(195.734243 0)scale(0.996264)"/>
     <use xlink:href="#CMR17-38" transform="translate(241.42472 0)scale(0.996264)"/>
     <use xlink:href="#CMR17-37" transform="translate(287.115197 0)scale(0.996264)"/>
    </g>
   </g>
   <g id="text_18">
    <!-- $\theta_{\mathrm{n}}$ = 40.25ยบ -->
    <g style="fill: #d44842; opacity: 0.8" transform="translate(266.289086 269.5533)scale(0.12 -0.12)">
     <defs>
      <path id="CMMI12-12" d="M 2835 3200 
C 2835 3850 2630 4480 2106 4480 
C 1210 4480 256 2615 256 1216 
C 256 923 320 -64 992 -64 
C 1862 -64 2835 1756 2835 3200 
z
M 896 2304 
C 992 2679 1126 3214 1382 3665 
C 1594 4047 1818 4352 2099 4352 
C 2310 4352 2451 4174 2451 3564 
C 2451 3334 2432 3017 2246 2304 
L 896 2304 
z
M 2202 2113 
C 2042 1490 1907 1088 1677 687 
C 1491 363 1267 64 998 64 
C 800 64 640 217 640 846 
C 640 1260 742 1693 845 2113 
L 2202 2113 
z
" transform="scale(0.015625)"/>
      <path id="CMR17-3d" d="M 4115 2017 
C 4211 2017 4307 2017 4307 2125 
C 4307 2240 4198 2240 4090 2240 
L 512 2240 
C 403 2240 294 2240 294 2125 
C 294 2017 390 2017 486 2017 
L 4115 2017 
z
M 4090 896 
C 4198 896 4307 896 4307 1011 
C 4307 1119 4211 1119 4115 1119 
L 486 1119 
C 390 1119 294 1119 294 1011 
C 294 896 403 896 512 896 
L 4090 896 
z
" transform="scale(0.015625)"/>
      <path id="CMR17-2e" d="M 1062 261 
C 1062 420 934 522 800 522 
C 672 522 538 420 538 261 
C 538 102 666 0 800 0 
C 928 0 1062 102 1062 261 
z
" transform="scale(0.015625)"/>
      <path id="CMR17-35" d="M 730 3692 
C 794 3666 1056 3584 1325 3584 
C 1920 3584 2246 3911 2432 4100 
C 2432 4157 2432 4192 2394 4192 
C 2387 4192 2374 4192 2323 4163 
C 2099 4058 1837 3973 1517 3973 
C 1325 3973 1037 3999 723 4139 
C 653 4171 640 4171 634 4171 
C 602 4171 595 4164 595 4037 
L 595 2203 
C 595 2089 595 2057 659 2057 
C 691 2057 704 2070 736 2114 
C 941 2401 1222 2522 1542 2522 
C 1766 2522 2246 2382 2246 1289 
C 2246 1085 2246 715 2054 421 
C 1894 159 1645 25 1370 25 
C 947 25 518 320 403 814 
C 429 807 480 795 506 795 
C 589 795 749 840 749 1038 
C 749 1210 627 1280 506 1280 
C 358 1280 262 1190 262 1011 
C 262 454 704 -128 1382 -128 
C 2042 -128 2669 440 2669 1264 
C 2669 2030 2170 2624 1549 2624 
C 1222 2624 947 2503 730 2274 
L 730 3692 
z
" transform="scale(0.015625)"/>
      <path id="SFRM3583-ba" d="M 1203 4857 
C 595 4774 237 4189 237 3597 
C 237 3018 627 2349 1267 2349 
C 1926 2349 2310 3005 2310 3597 
C 2310 4169 1926 4864 1280 4864 
C 1254 4864 1229 4857 1203 4857 
z
M 563 3468 
L 563 3571 
C 563 3989 589 4458 1011 4716 
C 1094 4761 1184 4780 1267 4780 
C 1805 4780 1984 4150 1984 3707 
C 1984 3249 1971 2670 1414 2458 
C 1370 2445 1318 2439 1274 2439 
C 864 2439 640 2857 582 3249 
C 576 3320 576 3397 563 3468 
z
M 307 2169 
C 294 2162 288 2149 288 2141 
C 288 2121 320 2100 339 2100 
L 2189 2100 
C 2227 2100 2259 2107 2259 2144 
C 2259 2176 2195 2176 2176 2176 
L 442 2176 
C 422 2176 390 2183 365 2183 
C 346 2183 326 2176 307 2169 
z
" transform="scale(0.015625)"/>
     </defs>
     <use xlink:href="#CMMI12-12" transform="scale(0.996264)"/>
     <use xlink:href="#CMR17-6e" transform="translate(45.45979 -14.943915)scale(0.697382)"/>
     <use xlink:href="#CMR17-3d" transform="translate(111.660497 0)scale(0.996264)"/>
     <use xlink:href="#CMR17-34" transform="translate(213.451252 0)scale(0.996264)"/>
     <use xlink:href="#CMR17-30" transform="translate(259.141729 0)scale(0.996264)"/>
     <use xlink:href="#CMR17-2e" transform="translate(304.832206 0)scale(0.996264)"/>
     <use xlink:href="#CMR17-32" transform="translate(329.703264 0)scale(0.996264)"/>
     <use xlink:href="#CMR17-35" transform="translate(375.393741 0)scale(0.996264)"/>
     <use xlink:href="#SFRM3583-ba" transform="translate(421.084218 0)scale(0.356961)"/>
    </g>
   </g>
   <g id="text_19">
    <!-- $\theta_{\mathrm{n}}$ = 88.45ยบ -->
    <g style="fill: #65156e" transform="translate(365.798528 130.9533)scale(0.12 -0.12)">
     <use xlink:href="#CMMI12-12" transform="scale(0.996264)"/>
     <use xlink:href="#CMR17-6e" transform="translate(45.45979 -14.943915)scale(0.697382)"/>
     <use xlink:href="#CMR17-3d" transform="translate(111.660497 0)scale(0.996264)"/>
     <use xlink:href="#CMR17-38" transform="translate(213.451252 0)scale(0.996264)"/>
     <use xlink:href="#CMR17-38" transform="translate(259.141729 0)scale(0.996264)"/>
     <use xlink:href="#CMR17-2e" transform="translate(304.832206 0)scale(0.996264)"/>
     <use xlink:href="#CMR17-34" transform="translate(329.703264 0)scale(0.996264)"/>
     <use xlink:href="#CMR17-35" transform="translate(375.393741 0)scale(0.996264)"/>
     <use xlink:href="#SFRM3583-ba" transform="translate(421.084218 0)scale(0.356961)"/>
    </g>
   </g>
   <g id="text_20">
    <!-- Earth profile for incoming neutrino from the Large Megallanic Cloud -->
    <g transform="translate(18.334442 19.6533)scale(0.18 -0.18)">
     <defs>
      <path id="CMR17-45" d="M 3885 1615 
L 3770 1615 
C 3629 676 3546 166 2419 166 
L 1530 166 
C 1274 166 1261 197 1261 414 
L 1261 2176 
L 1862 2176 
C 2464 2176 2522 1960 2522 1430 
L 2637 1430 
L 2637 3081 
L 2522 3081 
C 2522 2557 2464 2342 1862 2342 
L 1261 2342 
L 1261 3913 
C 1261 4128 1274 4160 1530 4160 
L 2406 4160 
C 3398 4160 3514 3769 3603 2929 
L 3718 2929 
L 3565 4325 
L 326 4325 
L 326 4160 
C 768 4160 838 4160 838 3874 
L 838 451 
C 838 166 768 166 326 166 
L 326 0 
L 3654 0 
L 3885 1615 
z
" transform="scale(0.015625)"/>
      <path id="CMR17-72" d="M 960 1497 
C 960 2112 1222 2688 1702 2688 
C 1747 2688 1792 2682 1837 2662 
C 1837 2662 1696 2617 1696 2452 
C 1696 2298 1818 2234 1914 2234 
C 1990 2234 2131 2279 2131 2458 
C 2131 2663 1926 2790 1709 2790 
C 1222 2790 1011 2317 947 2093 
L 941 2093 
L 941 2790 
L 198 2720 
L 198 2554 
C 576 2554 634 2515 634 2208 
L 634 428 
C 634 184 608 153 198 153 
L 198 -13 
C 352 0 646 0 813 0 
C 998 0 1325 0 1498 -13 
L 1498 153 
C 1037 153 960 153 960 440 
L 960 1497 
z
" transform="scale(0.015625)"/>
      <path id="CMR17-68" d="M 2656 1933 
C 2656 2259 2592 2790 1837 2790 
C 1312 2790 1056 2368 979 2157 
L 973 2157 
L 973 4396 
L 211 4326 
L 211 4160 
C 589 4160 646 4122 646 3817 
L 646 426 
C 646 184 621 153 211 153 
L 211 -13 
C 365 0 646 0 813 0 
C 979 0 1267 0 1421 -13 
L 1421 153 
C 1011 153 986 178 986 428 
L 986 1658 
C 986 2247 1344 2688 1792 2688 
C 2266 2688 2317 2266 2317 1958 
L 2317 428 
C 2317 184 2291 153 1882 153 
L 1882 -13 
C 2035 0 2317 0 2483 0 
C 2650 0 2938 0 3091 -13 
L 3091 153 
C 2682 153 2656 178 2656 428 
L 2656 1933 
z
" transform="scale(0.015625)"/>
      <path id="CMR17-70" d="M 1408 -1063 
C 998 -1063 973 -1037 973 -789 
L 973 402 
C 1158 134 1427 -38 1766 -38 
C 2406 -38 3053 523 3053 1388 
C 3053 2191 2496 2802 1837 2802 
C 1453 2802 1139 2592 960 2338 
L 960 2802 
L 198 2732 
L 198 2567 
C 576 2567 634 2528 634 2223 
L 634 -789 
C 634 -1031 608 -1063 198 -1063 
L 198 -1228 
C 352 -1216 634 -1216 800 -1216 
C 966 -1216 1254 -1216 1408 -1228 
L 1408 -1063 
z
M 973 2012 
C 973 2102 973 2235 1222 2471 
C 1254 2497 1472 2688 1792 2688 
C 2259 2688 2643 2108 2643 1382 
C 2643 656 2234 64 1728 64 
C 1498 64 1248 172 1056 472 
C 973 612 973 650 973 752 
L 973 2012 
z
" transform="scale(0.015625)"/>
      <path id="CMR17-6f" d="M 2758 1356 
C 2758 2176 2163 2816 1466 2816 
C 768 2816 173 2176 173 1356 
C 173 551 768 -64 1466 -64 
C 2163 -64 2758 551 2758 1356 
z
M 1466 51 
C 1165 51 909 230 762 480 
C 602 767 582 1126 582 1408 
C 582 1677 595 2010 762 2298 
C 890 2509 1139 2714 1466 2714 
C 1754 2714 1997 2554 2150 2330 
C 2349 2029 2349 1607 2349 1408 
C 2349 1158 2336 775 2163 467 
C 1984 173 1709 51 1466 51 
z
" transform="scale(0.015625)"/>
      <path id="CMR17-c" d="M 2554 2764 
C 2400 2764 1926 2764 1805 2739 
C 1766 2725 1754 2725 1677 2725 
L 947 2725 
L 947 3469 
C 947 4073 1434 4352 1818 4352 
C 1939 4352 2214 4320 2355 4101 
C 2291 4101 2086 4101 2086 3878 
C 2086 3725 2189 3648 2317 3648 
C 2432 3648 2547 3712 2547 3885 
C 2547 4205 2240 4454 1843 4454 
C 1338 4454 634 4168 634 3469 
L 634 2725 
L 122 2725 
L 122 2560 
L 634 2560 
L 634 427 
C 634 184 608 153 198 153 
L 198 -13 
C 352 0 634 0 794 0 
C 960 0 1242 0 1395 -13 
L 1395 153 
C 986 153 960 178 960 427 
L 960 2560 
L 1901 2560 
C 2176 2560 2227 2502 2227 2222 
L 2227 427 
C 2227 184 2202 153 1792 153 
L 1792 -13 
C 1946 0 2227 0 2387 0 
C 2554 0 2835 0 2989 -13 
L 2989 153 
C 2579 153 2554 178 2554 427 
L 2554 2764 
z
" transform="scale(0.015625)"/>
      <path id="CMR17-6c" d="M 979 4396 
L 218 4326 
L 218 4160 
C 595 4160 653 4122 653 3817 
L 653 426 
C 653 184 627 153 218 153 
L 218 -13 
C 371 0 653 0 813 0 
C 979 0 1261 0 1414 -13 
L 1414 153 
C 1005 153 979 178 979 426 
L 979 4396 
z
" transform="scale(0.015625)"/>
      <path id="CMR17-66" d="M 979 2560 
L 1709 2560 
L 1709 2725 
L 966 2725 
L 966 3494 
C 966 4022 1235 4352 1510 4352 
C 1594 4352 1690 4327 1754 4282 
C 1702 4269 1568 4225 1568 4067 
C 1568 3901 1696 3850 1786 3850 
C 1875 3850 2003 3901 2003 4067 
C 2003 4308 1773 4454 1517 4454 
C 1152 4454 653 4156 653 3481 
L 653 2725 
L 141 2725 
L 141 2560 
L 653 2560 
L 653 427 
C 653 184 627 153 218 153 
L 218 -13 
C 371 0 666 0 832 0 
C 1018 0 1344 0 1517 -13 
L 1517 153 
C 1056 153 979 153 979 439 
L 979 2560 
z
" transform="scale(0.015625)"/>
      <path id="CMR17-75" d="M 1882 2693 
L 1882 2528 
C 2259 2528 2317 2489 2317 2186 
L 2317 1032 
C 2317 500 2029 38 1555 38 
C 1030 38 986 348 986 678 
L 986 2763 
L 211 2693 
L 211 2528 
C 467 2528 640 2528 646 2274 
L 646 1058 
C 646 633 646 361 813 183 
C 896 101 1056 -64 1517 -64 
C 2061 -64 2272 377 2323 506 
L 2330 506 
L 2330 -63 
L 3091 -63 
L 3091 128 
C 2714 128 2656 166 2656 473 
L 2656 2763 
L 1882 2693 
z
" transform="scale(0.015625)"/>
      <path id="CMR17-4c" d="M 3469 1615 
L 3354 1615 
C 3302 983 3219 166 2125 166 
L 1530 166 
C 1274 166 1261 197 1261 414 
L 1261 3898 
C 1261 4129 1274 4192 1760 4192 
L 1901 4192 
L 1901 4352 
C 1638 4352 1331 4352 1069 4352 
C 870 4352 512 4352 326 4352 
L 326 4192 
C 768 4192 838 4192 838 3905 
L 838 452 
C 838 166 768 166 326 166 
L 326 0 
L 3315 0 
L 3469 1615 
z
" transform="scale(0.015625)"/>
      <path id="CMR17-4d" d="M 1338 4224 
C 1299 4320 1293 4320 1158 4320 
L 339 4320 
L 339 4160 
C 781 4160 851 4160 851 3875 
L 851 610 
C 851 451 851 153 339 153 
L 339 -13 
C 486 0 755 0 915 0 
C 1075 0 1344 0 1491 -13 
L 1491 153 
C 979 153 979 451 979 610 
L 979 4135 
L 986 4135 
L 2490 89 
C 2515 25 2528 -13 2579 -13 
C 2630 -13 2643 25 2669 89 
L 4186 4166 
L 4192 4166 
L 4192 438 
C 4192 153 4122 153 3680 153 
L 3680 -13 
C 3853 0 4198 0 4384 0 
C 4570 0 4922 0 5094 -13 
L 5094 153 
C 4653 153 4582 153 4582 438 
L 4582 3875 
C 4582 4160 4653 4160 5094 4160 
L 5094 4320 
L 4282 4320 
C 4147 4320 4141 4314 4102 4218 
L 2720 502 
L 1338 4224 
z
" transform="scale(0.015625)"/>
      <path id="CMR17-43" d="M 3974 4289 
C 3974 4403 3968 4410 3930 4410 
C 3904 4410 3898 4403 3853 4327 
L 3571 3792 
C 3258 4187 2874 4416 2381 4416 
C 1286 4416 294 3456 294 2148 
C 294 826 1286 -128 2387 -128 
C 3366 -128 3974 730 3974 1461 
C 3974 1524 3974 1550 3917 1550 
C 3866 1550 3866 1531 3859 1474 
C 3808 585 3168 38 2477 38 
C 1824 38 781 495 781 2147 
C 781 3805 1843 4250 2464 4250 
C 3187 4250 3712 3628 3834 2745 
C 3846 2668 3846 2655 3904 2655 
C 3974 2655 3974 2668 3974 2783 
L 3974 4289 
z
" transform="scale(0.015625)"/>
      <path id="CMR17-64" d="M 1869 4326 
L 1869 4160 
C 2246 4160 2304 4122 2304 3820 
L 2304 2345 
C 2278 2377 2016 2790 1498 2790 
C 845 2790 211 2208 211 1364 
C 211 525 806 -64 1434 -64 
C 1978 -64 2259 337 2291 380 
L 2291 -63 
L 3066 -63 
L 3066 128 
C 2688 128 2630 166 2630 473 
L 2630 4396 
L 1869 4326 
z
M 2291 755 
C 2291 563 2176 390 2029 262 
C 1811 70 1594 38 1472 38 
C 1286 38 621 134 621 1356 
C 621 2612 1363 2688 1530 2688 
C 1824 2688 2061 2522 2208 2291 
C 2291 2157 2291 2138 2291 2023 
L 2291 755 
z
" transform="scale(0.015625)"/>
     </defs>
     <use xlink:href="#CMR17-45" transform="scale(0.996264)"/>
     <use xlink:href="#CMR17-61" transform="translate(62.586301 0)scale(0.996264)"/>
     <use xlink:href="#CMR17-72" transform="translate(108.276778 0)scale(0.996264)"/>
     <use xlink:href="#CMR17-74" transform="translate(143.557545 0)scale(0.996264)"/>
     <use xlink:href="#CMR17-68" transform="translate(178.838313 0)scale(0.996264)"/>
     <use xlink:href="#CMR17-70" transform="translate(259.809649 0)scale(0.996264)"/>
     <use xlink:href="#CMR17-72" transform="translate(310.705019 0)scale(0.996264)"/>
     <use xlink:href="#CMR17-6f" transform="translate(345.985787 0)scale(0.996264)"/>
     <use xlink:href="#CMR17-c" transform="translate(391.676264 0)scale(0.996264)"/>
     <use xlink:href="#CMR17-6c" transform="translate(441.418487 0)scale(0.996264)"/>
     <use xlink:href="#CMR17-65" transform="translate(466.289546 0)scale(0.996264)"/>
     <use xlink:href="#CMR17-66" transform="translate(536.851173 0)scale(0.996264)"/>
     <use xlink:href="#CMR17-6f" transform="translate(564.324685 0)scale(0.996264)"/>
     <use xlink:href="#CMR17-72" transform="translate(610.015162 0)scale(0.996264)"/>
     <use xlink:href="#CMR17-69" transform="translate(675.371896 0)scale(0.996264)"/>
     <use xlink:href="#CMR17-6e" transform="translate(700.242955 0)scale(0.996264)"/>
     <use xlink:href="#CMR17-63" transform="translate(751.138325 0)scale(0.996264)"/>
     <use xlink:href="#CMR17-6f" transform="translate(791.623985 0)scale(0.996264)"/>
     <use xlink:href="#CMR17-6d" transform="translate(837.314462 0)scale(0.996264)"/>
     <use xlink:href="#CMR17-69" transform="translate(914.234052 0)scale(0.996264)"/>
     <use xlink:href="#CMR17-6e" transform="translate(939.105111 0)scale(0.996264)"/>
     <use xlink:href="#CMR17-67" transform="translate(990.00048 0)scale(0.996264)"/>
     <use xlink:href="#CMR17-6e" transform="translate(1065.766924 0)scale(0.996264)"/>
     <use xlink:href="#CMR17-65" transform="translate(1116.662294 0)scale(0.996264)"/>
     <use xlink:href="#CMR17-75" transform="translate(1157.147954 0)scale(0.996264)"/>
     <use xlink:href="#CMR17-74" transform="translate(1208.043324 0)scale(0.996264)"/>
     <use xlink:href="#CMR17-72" transform="translate(1243.324092 0)scale(0.996264)"/>
     <use xlink:href="#CMR17-69" transform="translate(1278.604859 0)scale(0.996264)"/>
     <use xlink:href="#CMR17-6e" transform="translate(1303.475918 0)scale(0.996264)"/>
     <use xlink:href="#CMR17-6f" transform="translate(1354.371288 0)scale(0.996264)"/>
     <use xlink:href="#CMR17-66" transform="translate(1430.137731 0)scale(0.996264)"/>
     <use xlink:href="#CMR17-72" transform="translate(1457.611244 0)scale(0.996264)"/>
     <use xlink:href="#CMR17-6f" transform="translate(1492.892011 0)scale(0.996264)"/>
     <use xlink:href="#CMR17-6d" transform="translate(1538.582489 0)scale(0.996264)"/>
     <use xlink:href="#CMR17-74" transform="translate(1645.578045 0)scale(0.996264)"/>
     <use xlink:href="#CMR17-68" transform="translate(1680.858813 0)scale(0.996264)"/>
     <use xlink:href="#CMR17-65" transform="translate(1731.754182 0)scale(0.996264)"/>
     <use xlink:href="#CMR17-4c" transform="translate(1802.315809 0)scale(0.996264)"/>
     <use xlink:href="#CMR17-61" transform="translate(1859.697217 0)scale(0.996264)"/>
     <use xlink:href="#CMR17-72" transform="translate(1905.387694 0)scale(0.996264)"/>
     <use xlink:href="#CMR17-67" transform="translate(1940.668462 0)scale(0.996264)"/>
     <use xlink:href="#CMR17-65" transform="translate(1986.358939 0)scale(0.996264)"/>
     <use xlink:href="#CMR17-4d" transform="translate(2056.920566 0)scale(0.996264)"/>
     <use xlink:href="#CMR17-65" transform="translate(2141.607506 0)scale(0.996264)"/>
     <use xlink:href="#CMR17-67" transform="translate(2182.093167 0)scale(0.996264)"/>
     <use xlink:href="#CMR17-61" transform="translate(2227.783644 0)scale(0.996264)"/>
     <use xlink:href="#CMR17-6c" transform="translate(2273.474121 0)scale(0.996264)"/>
     <use xlink:href="#CMR17-6c" transform="translate(2298.34518 0)scale(0.996264)"/>
     <use xlink:href="#CMR17-61" transform="translate(2323.216238 0)scale(0.996264)"/>
     <use xlink:href="#CMR17-6e" transform="translate(2368.906715 0)scale(0.996264)"/>
     <use xlink:href="#CMR17-69" transform="translate(2419.802085 0)scale(0.996264)"/>
     <use xlink:href="#CMR17-63" transform="translate(2444.673143 0)scale(0.996264)"/>
     <use xlink:href="#CMR17-43" transform="translate(2515.23477 0)scale(0.996264)"/>
     <use xlink:href="#CMR17-6c" transform="translate(2581.744651 0)scale(0.996264)"/>
     <use xlink:href="#CMR17-6f" transform="translate(2606.615709 0)scale(0.996264)"/>
     <use xlink:href="#CMR17-75" transform="translate(2652.306186 0)scale(0.996264)"/>
     <use xlink:href="#CMR17-64" transform="translate(2703.201556 0)scale(0.996264)"/>
    </g>
   </g>
  </g>
  <g id="text_21">
   <!-- RA = 80.75ยบ and DEC = -69.75ยบ -->
   <g transform="translate(159.333388 36.4533)scale(0.14 -0.14)">
    <defs>
     <path id="CMR17-52" d="M 2509 2146 
C 3117 2268 3629 2676 3629 3186 
C 3629 3785 2950 4326 2054 4326 
L 333 4326 
L 333 4160 
C 774 4160 845 4160 845 3873 
L 845 415 
C 845 128 774 128 333 128 
L 333 -26 
C 518 -26 851 -26 1050 -26 
C 1248 -26 1581 -26 1766 -26 
L 1766 128 
C 1325 128 1254 128 1254 417 
L 1254 2112 
L 2003 2112 
C 2368 2112 2573 1964 2662 1881 
C 2918 1632 2918 1459 2918 1024 
C 2918 595 2918 377 3110 160 
C 3354 -102 3680 -128 3821 -128 
C 4294 -128 4365 396 4365 503 
C 4365 540 4365 585 4307 585 
C 4256 585 4250 547 4250 522 
C 4218 112 4032 -26 3834 -26 
C 3482 -26 3443 375 3405 764 
C 3386 898 3373 993 3360 1133 
C 3322 1452 3270 1917 2509 2146 
z
M 1984 2214 
L 1254 2214 
L 1254 3913 
C 1254 4129 1267 4160 1523 4160 
L 1990 4160 
C 2522 4160 3142 3977 3142 3190 
C 3142 2372 2464 2214 1984 2214 
z
" transform="scale(0.015625)"/>
     <path id="CMR17-41" d="M 2323 4378 
C 2291 4461 2278 4480 2214 4480 
C 2150 4480 2138 4461 2106 4378 
L 749 566 
C 627 223 371 153 147 153 
L 147 -13 
C 262 0 518 0 640 0 
C 800 0 1056 0 1210 -13 
L 1210 153 
C 909 153 864 361 864 439 
C 864 497 877 530 890 569 
L 1229 1536 
L 2906 1536 
L 3290 442 
C 3322 365 3322 352 3322 327 
C 3322 153 3046 153 2925 153 
L 2925 0 
C 3110 0 3443 0 3642 0 
C 3808 0 4128 0 4282 -13 
L 4282 153 
C 3942 153 3827 153 3744 387 
L 2323 4378 
z
M 2067 3893 
L 2848 1702 
L 1286 1702 
L 2067 3893 
z
" transform="scale(0.015625)"/>
     <path id="CMR17-2d" d="M 1632 1216 
L 1632 1496 
L 26 1496 
L 26 1216 
L 1632 1216 
z
" transform="scale(0.015625)"/>
    </defs>
    <use xlink:href="#CMR17-52" transform="scale(0.996264)"/>
    <use xlink:href="#CMR17-41" transform="translate(67.791102 0)scale(0.996264)"/>
    <use xlink:href="#CMR17-3d" transform="translate(166.939498 0)scale(0.996264)"/>
    <use xlink:href="#CMR17-38" transform="translate(268.730253 0)scale(0.996264)"/>
    <use xlink:href="#CMR17-30" transform="translate(314.42073 0)scale(0.996264)"/>
    <use xlink:href="#CMR17-2e" transform="translate(360.111207 0)scale(0.996264)"/>
    <use xlink:href="#CMR17-37" transform="translate(384.982266 0)scale(0.996264)"/>
    <use xlink:href="#CMR17-35" transform="translate(430.672743 0)scale(0.996264)"/>
    <use xlink:href="#SFRM3583-ba" transform="translate(476.36322 0)scale(0.356961)"/>
    <use xlink:href="#CMR17-61" transform="translate(520.634459 0)scale(0.996264)"/>
    <use xlink:href="#CMR17-6e" transform="translate(566.324936 0)scale(0.996264)"/>
    <use xlink:href="#CMR17-64" transform="translate(617.220305 0)scale(0.996264)"/>
    <use xlink:href="#CMR17-44" transform="translate(698.191642 0)scale(0.996264)"/>
    <use xlink:href="#CMR17-45" transform="translate(768.585197 0)scale(0.996264)"/>
    <use xlink:href="#CMR17-43" transform="translate(831.171498 0)scale(0.996264)"/>
    <use xlink:href="#CMR17-3d" transform="translate(927.757345 0)scale(0.996264)"/>
    <use xlink:href="#CMR17-2d" transform="translate(1029.5481 0)scale(0.996264)"/>
    <use xlink:href="#CMR17-36" transform="translate(1059.624066 0)scale(0.996264)"/>
    <use xlink:href="#CMR17-39" transform="translate(1105.314543 0)scale(0.996264)"/>
    <use xlink:href="#CMR17-2e" transform="translate(1151.00502 0)scale(0.996264)"/>
    <use xlink:href="#CMR17-37" transform="translate(1175.876079 0)scale(0.996264)"/>
    <use xlink:href="#CMR17-35" transform="translate(1221.566556 0)scale(0.996264)"/>
    <use xlink:href="#SFRM3583-ba" transform="translate(1267.257033 0)scale(0.356961)"/>
   </g>
  </g>
  <g id="text_22">
   <!-- Detected by Super-Kamiokande in 27/9/2023 at 7:35:0 UCT time -->
   <g transform="translate(62.405501 54.4533)scale(0.14 -0.14)">
    <defs>
     <path id="CMR17-62" d="M 960 4396 
L 198 4326 
L 198 4160 
C 576 4160 634 4122 634 3817 
L 634 -13 
L 749 -13 
L 934 441 
C 1120 141 1395 -64 1766 -64 
C 2406 -64 3053 500 3053 1370 
C 3053 2188 2477 2790 1830 2790 
C 1434 2790 1152 2579 960 2330 
L 960 4396 
z
M 973 2004 
C 973 2118 973 2138 1062 2272 
C 1312 2657 1670 2688 1792 2688 
C 1984 2688 2643 2585 2643 1376 
C 2643 108 1888 38 1734 38 
C 1536 38 1248 114 1043 486 
C 973 608 973 621 973 735 
L 973 2004 
z
" transform="scale(0.015625)"/>
     <path id="CMR17-4b" d="M 2362 2675 
L 3469 3782 
C 3699 4006 3942 4186 4301 4186 
L 4301 4352 
C 4173 4352 4013 4352 3885 4352 
C 3712 4352 3411 4352 3245 4358 
L 3245 4192 
C 3411 4180 3437 4065 3437 4019 
C 3437 3975 3411 3905 3386 3867 
L 1261 1738 
L 1261 3900 
C 1261 4186 1331 4186 1773 4186 
L 1773 4352 
C 1587 4352 1248 4352 1050 4352 
C 851 4352 512 4352 326 4352 
L 326 4186 
C 768 4186 838 4186 838 3899 
L 838 446 
C 838 160 768 160 326 160 
L 326 0 
C 512 0 851 0 1050 0 
C 1248 0 1587 0 1773 0 
L 1773 160 
C 1331 160 1261 160 1261 447 
L 1261 1579 
L 2080 2390 
L 3290 537 
C 3328 473 3373 390 3373 326 
C 3373 160 3194 160 3110 160 
L 3110 0 
C 3315 0 3610 0 3821 0 
C 3974 0 4237 0 4384 -6 
L 4384 160 
C 4077 160 3981 198 3789 493 
L 2362 2675 
z
" transform="scale(0.015625)"/>
     <path id="CMR17-3a" d="M 1062 2491 
C 1062 2650 934 2752 800 2752 
C 672 2752 538 2650 538 2491 
C 538 2332 666 2230 800 2230 
C 928 2230 1062 2332 1062 2491 
z
M 1062 261 
C 1062 420 934 522 800 522 
C 672 522 538 420 538 261 
C 538 102 666 0 800 0 
C 928 0 1062 102 1062 261 
z
" transform="scale(0.015625)"/>
     <path id="CMR17-55" d="M 3456 1433 
C 3456 579 2899 38 2291 38 
C 1965 38 1670 210 1491 477 
C 1286 783 1261 1178 1261 1401 
L 1261 3874 
C 1261 4160 1331 4160 1773 4160 
L 1773 4320 
C 1587 4320 1248 4320 1050 4320 
C 851 4320 512 4320 326 4320 
L 326 4160 
C 768 4160 838 4160 838 3874 
L 838 1433 
C 838 516 1536 -128 2278 -128 
C 3110 -128 3590 719 3590 1344 
L 3590 3766 
C 3590 4122 3917 4160 4102 4160 
L 4102 4326 
C 3955 4320 3686 4320 3526 4320 
C 3366 4320 3091 4320 2944 4326 
L 2944 4160 
C 3456 4160 3456 3861 3456 3702 
L 3456 1433 
z
" transform="scale(0.015625)"/>
     <path id="CMR17-54" d="M 3981 4326 
L 288 4326 
L 179 2918 
L 294 2918 
C 378 3976 467 4160 1453 4160 
C 1568 4160 1754 4160 1805 4154 
C 1926 4135 1926 4058 1926 3912 
L 1926 459 
C 1926 230 1907 160 1376 160 
L 1197 160 
L 1197 0 
C 1504 0 1824 0 2138 0 
C 2451 0 2771 0 3078 0 
L 3078 160 
L 2899 160 
C 2368 160 2349 230 2349 459 
L 2349 3912 
C 2349 4052 2349 4129 2464 4154 
C 2515 4160 2701 4160 2816 4160 
C 3795 4160 3891 3976 3974 2918 
L 4090 2918 
L 3981 4326 
z
" transform="scale(0.015625)"/>
    </defs>
    <use xlink:href="#CMR17-44" transform="scale(0.996264)"/>
    <use xlink:href="#CMR17-65" transform="translate(70.393556 0)scale(0.996264)"/>
    <use xlink:href="#CMR17-74" transform="translate(110.879216 0)scale(0.996264)"/>
    <use xlink:href="#CMR17-65" transform="translate(146.159984 0)scale(0.996264)"/>
    <use xlink:href="#CMR17-63" transform="translate(186.645645 0)scale(0.996264)"/>
    <use xlink:href="#CMR17-74" transform="translate(227.131305 0)scale(0.996264)"/>
    <use xlink:href="#CMR17-65" transform="translate(262.412073 0)scale(0.996264)"/>
    <use xlink:href="#CMR17-64" transform="translate(302.897733 0)scale(0.996264)"/>
    <use xlink:href="#CMR17-62" transform="translate(383.869069 0)scale(0.996264)"/>
    <use xlink:href="#CMR17-79" transform="translate(432.161985 0)scale(0.996264)"/>
    <use xlink:href="#CMR17-53" transform="translate(510.530868 0)scale(0.996264)"/>
    <use xlink:href="#CMR17-75" transform="translate(561.426237 0)scale(0.996264)"/>
    <use xlink:href="#CMR17-70" transform="translate(612.321607 0)scale(0.996264)"/>
    <use xlink:href="#CMR17-65" transform="translate(665.819416 0)scale(0.996264)"/>
    <use xlink:href="#CMR17-72" transform="translate(706.305076 0)scale(0.996264)"/>
    <use xlink:href="#CMR17-2d" transform="translate(741.585844 0)scale(0.996264)"/>
    <use xlink:href="#CMR17-4b" transform="translate(771.66181 0)scale(0.996264)"/>
    <use xlink:href="#CMR17-61" transform="translate(843.336588 0)scale(0.996264)"/>
    <use xlink:href="#CMR17-6d" transform="translate(889.027065 0)scale(0.996264)"/>
    <use xlink:href="#CMR17-69" transform="translate(965.946655 0)scale(0.996264)"/>
    <use xlink:href="#CMR17-6f" transform="translate(990.817713 0)scale(0.996264)"/>
    <use xlink:href="#CMR17-6b" transform="translate(1036.50819 0)scale(0.996264)"/>
    <use xlink:href="#CMR17-61" transform="translate(1079.596289 0)scale(0.996264)"/>
    <use xlink:href="#CMR17-6e" transform="translate(1125.286766 0)scale(0.996264)"/>
    <use xlink:href="#CMR17-64" transform="translate(1176.182136 0)scale(0.996264)"/>
    <use xlink:href="#CMR17-65" transform="translate(1227.077506 0)scale(0.996264)"/>
    <use xlink:href="#CMR17-69" transform="translate(1297.639133 0)scale(0.996264)"/>
    <use xlink:href="#CMR17-6e" transform="translate(1322.510191 0)scale(0.996264)"/>
    <use xlink:href="#CMR17-32" transform="translate(1403.481527 0)scale(0.996264)"/>
    <use xlink:href="#CMR17-37" transform="translate(1449.172005 0)scale(0.996264)"/>
    <use xlink:href="#CMR17-2f" transform="translate(1494.862482 0)scale(0.996264)"/>
    <use xlink:href="#CMR17-39" transform="translate(1540.552959 0)scale(0.996264)"/>
    <use xlink:href="#CMR17-2f" transform="translate(1586.243436 0)scale(0.996264)"/>
    <use xlink:href="#CMR17-32" transform="translate(1631.933913 0)scale(0.996264)"/>
    <use xlink:href="#CMR17-30" transform="translate(1677.62439 0)scale(0.996264)"/>
    <use xlink:href="#CMR17-32" transform="translate(1723.314867 0)scale(0.996264)"/>
    <use xlink:href="#CMR17-33" transform="translate(1769.005344 0)scale(0.996264)"/>
    <use xlink:href="#CMR17-61" transform="translate(1844.771788 0)scale(0.996264)"/>
    <use xlink:href="#CMR17-74" transform="translate(1890.462265 0)scale(0.996264)"/>
    <use xlink:href="#CMR17-37" transform="translate(1955.818999 0)scale(0.996264)"/>
    <use xlink:href="#CMR17-3a" transform="translate(2001.509476 0)scale(0.996264)"/>
    <use xlink:href="#CMR17-33" transform="translate(2026.380535 0)scale(0.996264)"/>
    <use xlink:href="#CMR17-35" transform="translate(2072.071012 0)scale(0.996264)"/>
    <use xlink:href="#CMR17-3a" transform="translate(2117.761489 0)scale(0.996264)"/>
    <use xlink:href="#CMR17-30" transform="translate(2142.632547 0)scale(0.996264)"/>
    <use xlink:href="#CMR17-55" transform="translate(2218.398991 0)scale(0.996264)"/>
    <use xlink:href="#CMR17-43" transform="translate(2287.471421 0)scale(0.996264)"/>
    <use xlink:href="#CMR17-54" transform="translate(2353.981301 0)scale(0.996264)"/>
    <use xlink:href="#CMR17-74" transform="translate(2450.567148 0)scale(0.996264)"/>
    <use xlink:href="#CMR17-69" transform="translate(2485.847916 0)scale(0.996264)"/>
    <use xlink:href="#CMR17-6d" transform="translate(2510.718974 0)scale(0.996264)"/>
    <use xlink:href="#CMR17-65" transform="translate(2587.638564 0)scale(0.996264)"/>
   </g>
  </g>
 </g>
 <defs>
  <clipPath id="pb64e78b6fd">
   <rect x="43.003031" y="61.6533" width="446.4" height="277.2"/>
  </clipPath>
 </defs>
</svg>
