<?xml version="1.0" encoding="utf-8" standalone="no"?>
<!DOCTYPE svg PUBLIC "-//W3C//DTD SVG 1.1//EN"
  "http://www.w3.org/Graphics/SVG/1.1/DTD/svg11.dtd">
<svg xmlns:xlink="http://www.w3.org/1999/xlink" width="415.824726pt" height="307.80037pt" viewBox="0 0 415.824726 307.80037" xmlns="http://www.w3.org/2000/svg" version="1.1">
 <metadata>
  <rdf:RDF xmlns:dc="http://purl.org/dc/elements/1.1/" xmlns:cc="http://creativecommons.org/ns#" xmlns:rdf="http://www.w3.org/1999/02/22-rdf-syntax-ns#">
   <cc:Work>
    <dc:type rdf:resource="http://purl.org/dc/dcmitype/StillImage"/>
    <dc:date>2022-12-07T13:46:29.491122</dc:date>
    <dc:format>image/svg+xml</dc:format>
    <dc:creator>
     <cc:Agent>
      <dc:title>Matplotlib v3.5.1, https://matplotlib.org/</dc:title>
     </cc:Agent>
    </dc:creator>
   </cc:Work>
  </rdf:RDF>
 </metadata>
 <defs>
  <style type="text/css">*{stroke-linejoin: round; stroke-linecap: butt}</style>
 </defs>
 <g id="figure_1">
  <g id="patch_1">
   <path d="M 0 307.80037 
L 415.824726 307.80037 
L 415.824726 0 
L 0 0 
z
" style="fill: #ffffff"/>
  </g>
  <g id="axes_1">
   <g id="patch_2">
    <path d="M 43.003031 266.796997 
L 377.803031 266.796997 
L 377.803031 45.036997 
L 43.003031 45.036997 
z
" style="fill: #ffffff"/>
   </g>
   <g id="PolyCollection_1">
    <defs>
     <path id="m7e077b36da" d="M 43.003031 -248.428078 
L 43.003031 -41.003373 
L 45.439499 -41.003373 
L 49.901816 -41.003373 
L 52.741435 -41.003373 
L 59.232074 -41.003373 
L 63.01825 -41.003373 
L 68.156658 -41.003373 
L 73.430273 -41.003373 
L 78.501102 -41.003373 
L 83.115522 -41.003373 
L 87.882043 -41.003373 
L 92.554409 -41.003373 
L 97.725009 -41.003373 
L 102.232395 -41.003373 
L 105.072066 -41.003373 
L 105.072066 -243.454128 
L 105.072066 -243.454128 
L 102.232395 -243.868629 
L 97.725009 -244.513396 
L 92.554409 -245.230536 
L 87.882043 -245.785665 
L 83.115522 -246.303791 
L 78.501102 -246.770089 
L 73.430273 -247.18459 
L 68.156658 -247.599091 
L 63.01825 -247.944498 
L 59.232074 -248.013577 
L 52.741435 -248.428078 
L 49.901816 -248.428078 
L 45.439499 -248.428078 
L 43.003031 -248.428078 
z
" style="stroke: #fac228; stroke-opacity: 0.5"/>
    </defs>
    <g clip-path="url(#pc0533e06fb)">
     <use xlink:href="#m7e077b36da" x="0" y="307.80037" style="fill: #fac228; fill-opacity: 0.5; stroke: #fac228; stroke-opacity: 0.5"/>
    </g>
   </g>
   <g id="PolyCollection_2">
    <defs>
     <path id="m3f7e5333d3" d="M 105.072066 -243.454128 
L 105.072066 -41.003373 
L 108.272291 -41.003373 
L 112.895569 -41.003373 
L 116.894266 -41.003373 
L 121.356532 -41.003373 
L 125.934742 -41.003373 
L 130.628844 -41.003373 
L 135.023532 -41.003373 
L 139.806999 -41.003373 
L 145.029931 -41.003373 
L 149.897871 -41.003373 
L 154.495397 -41.003373 
L 159.315074 -41.003373 
L 164.125069 -41.003373 
L 169.398735 -41.003373 
L 173.696795 -41.003373 
L 179.389631 -41.003373 
L 183.481041 -41.003373 
L 188.23309 -41.003373 
L 193.101082 -41.003373 
L 198.374697 -41.003373 
L 203.126745 -41.003373 
L 208.110629 -41.003373 
L 213.130723 -41.003373 
L 217.711302 -41.003373 
L 221.396111 -41.003373 
L 222.308828 -41.003373 
L 222.308828 -41.003373 
L 222.308828 -41.003373 
L 222.308828 -41.003373 
L 222.308828 -41.003373 
L 222.308828 -41.003373 
L 222.308828 -41.003373 
L 222.308828 -41.003373 
L 222.308828 -41.003373 
L 222.308828 -41.003373 
L 222.308828 -41.003373 
L 222.308828 -41.003373 
L 222.308828 -41.003373 
L 222.308828 -136.514201 
L 222.308828 -136.514201 
L 222.308828 -141.073666 
L 222.308828 -145.633115 
L 222.308828 -150.192564 
L 222.308828 -154.752029 
L 222.308828 -159.311477 
L 222.308828 -163.870926 
L 222.308828 -168.430391 
L 222.308828 -172.98984 
L 222.308828 -177.549289 
L 222.308828 -182.108754 
L 222.308828 -186.668203 
L 222.308828 -191.227652 
L 221.396111 -197.963216 
L 217.711302 -200.277487 
L 213.130723 -202.367227 
L 208.110629 -204.543326 
L 203.126745 -206.682423 
L 198.374697 -208.636477 
L 193.101082 -210.708951 
L 188.23309 -212.57419 
L 183.481041 -214.320994 
L 179.389631 -215.765808 
L 173.696795 -217.686297 
L 169.398735 -219.117298 
L 164.125069 -220.775287 
L 159.315074 -222.19642 
L 154.495397 -223.558327 
L 149.897871 -224.801815 
L 145.029931 -226.045302 
L 139.806999 -227.340603 
L 135.023532 -228.463199 
L 130.628844 -229.361264 
L 125.934742 -230.308686 
L 121.356532 -231.196898 
L 116.894266 -232.025885 
L 112.895569 -232.618015 
L 108.272291 -233.414118 
L 105.072066 -243.454128 
z
" style="stroke: #f57d15; stroke-opacity: 0.5"/>
    </defs>
    <g clip-path="url(#pc0533e06fb)">
     <use xlink:href="#m3f7e5333d3" x="0" y="307.80037" style="fill: #f57d15; fill-opacity: 0.5; stroke: #f57d15; stroke-opacity: 0.5"/>
    </g>
   </g>
   <g id="PolyCollection_3">
    <defs>
     <path id="m197c81da51" d="M 222.308828 -136.514201 
L 222.308828 -41.003373 
L 223.931474 -41.003373 
L 228.698048 -41.003373 
L 233.622338 -41.003373 
L 239.346697 -41.003373 
L 245.071107 -41.003373 
L 250.299653 -41.003373 
L 255.528199 -41.003373 
L 260.801814 -41.003373 
L 266.323335 -41.003373 
L 271.394165 -41.003373 
L 276.464942 -41.003373 
L 281.738557 -41.003373 
L 286.606549 -41.003373 
L 291.387545 -41.003373 
L 296.748105 -41.003373 
L 301.616097 -41.003373 
L 306.484038 -41.003373 
L 311.091246 -41.003373 
L 316.075079 -41.003373 
L 320.682287 -41.003373 
L 325.347391 -41.003373 
L 330.012545 -41.003373 
L 334.981904 -41.003373 
L 334.981904 -110.660026 
L 334.981904 -110.660026 
L 330.012545 -111.851701 
L 325.347391 -112.680703 
L 320.682287 -113.50969 
L 316.075079 -114.309071 
L 311.091246 -115.197283 
L 306.484038 -115.996665 
L 301.616097 -116.825651 
L 296.748105 -117.654653 
L 291.387545 -118.513245 
L 286.606549 -119.312626 
L 281.738557 -120.141629 
L 276.464942 -120.970615 
L 271.394165 -121.799601 
L 266.323335 -122.628604 
L 260.801814 -123.480621 
L 255.528199 -124.309608 
L 250.299653 -125.115579 
L 245.071107 -125.921534 
L 239.346697 -126.773551 
L 233.622338 -127.625569 
L 228.698048 -128.379727 
L 223.931474 -129.467777 
L 222.308828 -136.514201 
z
" style="stroke: #d44842; stroke-opacity: 0.5"/>
    </defs>
    <g clip-path="url(#pc0533e06fb)">
     <use xlink:href="#m197c81da51" x="0" y="307.80037" style="fill: #d44842; fill-opacity: 0.5; stroke: #d44842; stroke-opacity: 0.5"/>
    </g>
   </g>
   <g id="PolyCollection_4">
    <defs>
     <path id="mf23bea9d02" d="M 334.981904 -110.660026 
L 334.981904 -41.003373 
L 338.966127 -41.003373 
L 342.993771 -41.003373 
L 347.60098 -41.003373 
L 347.60098 -101.341275 
L 347.60098 -101.341275 
L 342.993771 -103.147289 
L 338.966127 -104.331566 
L 334.981904 -110.660026 
z
" style="stroke: #9f2a63; stroke-opacity: 0.5"/>
    </defs>
    <g clip-path="url(#pc0533e06fb)">
     <use xlink:href="#mf23bea9d02" x="0" y="307.80037" style="fill: #9f2a63; fill-opacity: 0.5; stroke: #9f2a63; stroke-opacity: 0.5"/>
    </g>
   </g>
   <g id="PolyCollection_5">
    <defs>
     <path id="m82c1a587f0" d="M 347.60098 -101.341275 
L 347.60098 -41.003373 
L 351.985984 -41.003373 
L 357.192021 -41.003373 
L 362.398007 -41.003373 
L 366.319442 -41.003373 
L 369.361898 -41.003373 
L 369.361898 -94.132016 
L 369.361898 -94.132016 
L 366.319442 -94.650126 
L 362.398007 -94.926455 
L 357.192021 -96.100865 
L 351.985984 -97.666744 
L 347.60098 -101.341275 
z
" style="stroke: #65156e; stroke-opacity: 0.5"/>
    </defs>
    <g clip-path="url(#pc0533e06fb)">
     <use xlink:href="#m82c1a587f0" x="0" y="307.80037" style="fill: #65156e; fill-opacity: 0.5; stroke: #65156e; stroke-opacity: 0.5"/>
    </g>
   </g>
   <g id="PolyCollection_6">
    <defs>
     <path id="m4629010ed6" d="M 366.319442 -94.650126 
L 366.319442 -41.003373 
L 369.361898 -41.003373 
L 370.173248 -41.003373 
L 370.984545 -41.003373 
L 370.984545 -81.386265 
L 370.984545 -81.386265 
L 370.173248 -87.810953 
L 369.361898 -94.132016 
L 366.319442 -94.650126 
z
" style="stroke: #280b53; stroke-opacity: 0.5"/>
    </defs>
    <g clip-path="url(#pc0533e06fb)">
     <use xlink:href="#m4629010ed6" x="0" y="307.80037" style="fill: #280b53; fill-opacity: 0.5; stroke: #280b53; stroke-opacity: 0.5"/>
    </g>
   </g>
   <g id="matplotlib.axis_1">
    <g id="xtick_1">
     <g id="line2d_1">
      <defs>
       <path id="md53da88012" d="M 0 0 
L 0 3.5 
" style="stroke: #000000; stroke-width: 0.8"/>
      </defs>
      <g>
       <use xlink:href="#md53da88012" x="43.003031" y="266.796997" style="stroke: #000000; stroke-width: 0.8"/>
      </g>
     </g>
     <g id="text_1">
      <!-- $\mathdefault{0}$ -->
      <g transform="translate(40.512363 280.715495)scale(0.1 -0.1)">
       <defs>
        <path id="CMR17-30" d="M 2688 2038 
C 2688 2430 2682 3099 2413 3613 
C 2176 4063 1798 4224 1466 4224 
C 1158 4224 768 4082 525 3620 
C 269 3137 243 2539 243 2038 
C 243 1671 250 1112 448 623 
C 723 -39 1216 -128 1466 -128 
C 1760 -128 2208 -7 2470 604 
C 2662 1048 2688 1568 2688 2038 
z
M 1466 -26 
C 1056 -26 813 328 723 816 
C 653 1196 653 1749 653 2109 
C 653 2604 653 3015 736 3407 
C 858 3954 1216 4121 1466 4121 
C 1728 4121 2067 3947 2189 3420 
C 2272 3054 2278 2623 2278 2109 
C 2278 1691 2278 1176 2202 797 
C 2067 96 1690 -26 1466 -26 
z
" transform="scale(0.015625)"/>
       </defs>
       <use xlink:href="#CMR17-30" transform="scale(0.996264)"/>
      </g>
     </g>
    </g>
    <g id="xtick_2">
     <g id="line2d_2">
      <g>
       <use xlink:href="#md53da88012" x="94.510723" y="266.796997" style="stroke: #000000; stroke-width: 0.8"/>
      </g>
     </g>
     <g id="text_2">
      <!-- $\mathdefault{1000}$ -->
      <g transform="translate(84.548052 280.715495)scale(0.1 -0.1)">
       <defs>
        <path id="CMR17-31" d="M 1702 4083 
C 1702 4217 1696 4224 1606 4224 
C 1357 3927 979 3833 621 3820 
C 602 3820 570 3820 563 3808 
C 557 3795 557 3782 557 3648 
C 755 3648 1088 3686 1344 3839 
L 1344 467 
C 1344 243 1331 166 781 166 
L 589 166 
L 589 0 
C 896 6 1216 12 1523 12 
C 1830 12 2150 6 2458 0 
L 2458 166 
L 2266 166 
C 1715 166 1702 236 1702 467 
L 1702 4083 
z
" transform="scale(0.015625)"/>
       </defs>
       <use xlink:href="#CMR17-31" transform="scale(0.996264)"/>
       <use xlink:href="#CMR17-30" transform="translate(45.690477 0)scale(0.996264)"/>
       <use xlink:href="#CMR17-30" transform="translate(91.380954 0)scale(0.996264)"/>
       <use xlink:href="#CMR17-30" transform="translate(137.071431 0)scale(0.996264)"/>
      </g>
     </g>
    </g>
    <g id="xtick_3">
     <g id="line2d_3">
      <g>
       <use xlink:href="#md53da88012" x="146.018415" y="266.796997" style="stroke: #000000; stroke-width: 0.8"/>
      </g>
     </g>
     <g id="text_3">
      <!-- $\mathdefault{2000}$ -->
      <g transform="translate(136.055745 280.715495)scale(0.1 -0.1)">
       <defs>
        <path id="CMR17-32" d="M 2669 990 
L 2554 990 
C 2490 537 2438 460 2413 422 
C 2381 371 1920 371 1830 371 
L 602 371 
C 832 620 1280 1073 1824 1596 
C 2214 1966 2669 2400 2669 3033 
C 2669 3788 2067 4224 1395 4224 
C 691 4224 262 3603 262 3027 
C 262 2777 448 2745 525 2745 
C 589 2745 781 2783 781 3007 
C 781 3206 614 3264 525 3264 
C 486 3264 448 3257 422 3244 
C 544 3788 915 4057 1306 4057 
C 1862 4057 2227 3616 2227 3033 
C 2227 2477 1901 1998 1536 1583 
L 262 147 
L 262 0 
L 2515 0 
L 2669 990 
z
" transform="scale(0.015625)"/>
       </defs>
       <use xlink:href="#CMR17-32" transform="scale(0.996264)"/>
       <use xlink:href="#CMR17-30" transform="translate(45.690477 0)scale(0.996264)"/>
       <use xlink:href="#CMR17-30" transform="translate(91.380954 0)scale(0.996264)"/>
       <use xlink:href="#CMR17-30" transform="translate(137.071431 0)scale(0.996264)"/>
      </g>
     </g>
    </g>
    <g id="xtick_4">
     <g id="line2d_4">
      <g>
       <use xlink:href="#md53da88012" x="197.526107" y="266.796997" style="stroke: #000000; stroke-width: 0.8"/>
      </g>
     </g>
     <g id="text_4">
      <!-- $\mathdefault{3000}$ -->
      <g transform="translate(187.563437 280.715495)scale(0.1 -0.1)">
       <defs>
        <path id="CMR17-33" d="M 1414 2176 
C 1984 2176 2234 1673 2234 1094 
C 2234 322 1824 25 1453 25 
C 1114 25 563 193 390 691 
C 422 678 454 678 486 678 
C 640 678 755 780 755 947 
C 755 1132 614 1216 486 1216 
C 378 1216 211 1164 211 927 
C 211 335 787 -128 1466 -128 
C 2176 -128 2720 432 2720 1087 
C 2720 1718 2208 2176 1600 2246 
C 2086 2347 2554 2776 2554 3353 
C 2554 3856 2048 4224 1472 4224 
C 890 4224 378 3862 378 3347 
C 378 3123 544 3084 627 3084 
C 762 3084 877 3167 877 3334 
C 877 3500 762 3584 627 3584 
C 602 3584 570 3584 544 3571 
C 730 3999 1235 4076 1459 4076 
C 1683 4076 2106 3966 2106 3347 
C 2106 3167 2080 2851 1862 2574 
C 1670 2329 1453 2316 1242 2297 
C 1210 2297 1062 2284 1037 2284 
C 992 2278 966 2272 966 2227 
C 966 2182 973 2176 1101 2176 
L 1414 2176 
z
" transform="scale(0.015625)"/>
       </defs>
       <use xlink:href="#CMR17-33" transform="scale(0.996264)"/>
       <use xlink:href="#CMR17-30" transform="translate(45.690477 0)scale(0.996264)"/>
       <use xlink:href="#CMR17-30" transform="translate(91.380954 0)scale(0.996264)"/>
       <use xlink:href="#CMR17-30" transform="translate(137.071431 0)scale(0.996264)"/>
      </g>
     </g>
    </g>
    <g id="xtick_5">
     <g id="line2d_5">
      <g>
       <use xlink:href="#md53da88012" x="249.0338" y="266.796997" style="stroke: #000000; stroke-width: 0.8"/>
      </g>
     </g>
     <g id="text_5">
      <!-- $\mathdefault{4000}$ -->
      <g transform="translate(239.071129 280.715495)scale(0.1 -0.1)">
       <defs>
        <path id="CMR17-34" d="M 2150 4147 
C 2150 4281 2144 4288 2029 4288 
L 128 1254 
L 128 1088 
L 1779 1088 
L 1779 460 
C 1779 230 1766 166 1318 166 
L 1197 166 
L 1197 0 
C 1402 12 1747 12 1965 12 
C 2182 12 2528 12 2733 0 
L 2733 166 
L 2611 166 
C 2163 166 2150 230 2150 460 
L 2150 1088 
L 2803 1088 
L 2803 1254 
L 2150 1254 
L 2150 4147 
z
M 1798 3723 
L 1798 1254 
L 256 1254 
L 1798 3723 
z
" transform="scale(0.015625)"/>
       </defs>
       <use xlink:href="#CMR17-34" transform="scale(0.996264)"/>
       <use xlink:href="#CMR17-30" transform="translate(45.690477 0)scale(0.996264)"/>
       <use xlink:href="#CMR17-30" transform="translate(91.380954 0)scale(0.996264)"/>
       <use xlink:href="#CMR17-30" transform="translate(137.071431 0)scale(0.996264)"/>
      </g>
     </g>
    </g>
    <g id="xtick_6">
     <g id="line2d_6">
      <g>
       <use xlink:href="#md53da88012" x="300.541492" y="266.796997" style="stroke: #000000; stroke-width: 0.8"/>
      </g>
     </g>
     <g id="text_6">
      <!-- $\mathdefault{5000}$ -->
      <g transform="translate(290.578822 280.715495)scale(0.1 -0.1)">
       <defs>
        <path id="CMR17-35" d="M 730 3750 
C 794 3724 1056 3641 1325 3641 
C 1920 3641 2246 3961 2432 4140 
C 2432 4191 2432 4224 2394 4224 
C 2387 4224 2374 4224 2323 4198 
C 2099 4102 1837 4032 1517 4032 
C 1325 4032 1037 4055 723 4191 
C 653 4224 640 4224 634 4224 
C 602 4224 595 4217 595 4090 
L 595 2231 
C 595 2113 595 2080 659 2080 
C 691 2080 704 2093 736 2139 
C 941 2435 1222 2560 1542 2560 
C 1766 2560 2246 2415 2246 1293 
C 2246 1087 2246 716 2054 422 
C 1894 159 1645 25 1370 25 
C 947 25 518 319 403 812 
C 429 806 480 793 506 793 
C 589 793 749 838 749 1036 
C 749 1209 627 1280 506 1280 
C 358 1280 262 1190 262 1011 
C 262 454 704 -128 1382 -128 
C 2042 -128 2669 441 2669 1267 
C 2669 2054 2170 2662 1549 2662 
C 1222 2662 947 2540 730 2304 
L 730 3750 
z
" transform="scale(0.015625)"/>
       </defs>
       <use xlink:href="#CMR17-35" transform="scale(0.996264)"/>
       <use xlink:href="#CMR17-30" transform="translate(45.690477 0)scale(0.996264)"/>
       <use xlink:href="#CMR17-30" transform="translate(91.380954 0)scale(0.996264)"/>
       <use xlink:href="#CMR17-30" transform="translate(137.071431 0)scale(0.996264)"/>
      </g>
     </g>
    </g>
    <g id="xtick_7">
     <g id="line2d_7">
      <g>
       <use xlink:href="#md53da88012" x="352.049184" y="266.796997" style="stroke: #000000; stroke-width: 0.8"/>
      </g>
     </g>
     <g id="text_7">
      <!-- $\mathdefault{6000}$ -->
      <g transform="translate(342.086514 280.715495)scale(0.1 -0.1)">
       <defs>
        <path id="CMR17-36" d="M 678 2198 
C 678 3712 1395 4076 1811 4076 
C 1946 4076 2272 4049 2400 3782 
C 2298 3782 2106 3782 2106 3558 
C 2106 3385 2246 3328 2336 3328 
C 2394 3328 2566 3353 2566 3571 
C 2566 3987 2246 4224 1805 4224 
C 1043 4224 243 3411 243 2011 
C 243 257 966 -128 1478 -128 
C 2099 -128 2688 431 2688 1295 
C 2688 2101 2170 2688 1517 2688 
C 1126 2688 838 2430 678 1979 
L 678 2198 
z
M 1478 25 
C 691 25 691 1212 691 1450 
C 691 1914 909 2585 1504 2585 
C 1613 2585 1926 2585 2138 2140 
C 2253 1889 2253 1624 2253 1302 
C 2253 954 2253 696 2118 438 
C 1978 173 1773 25 1478 25 
z
" transform="scale(0.015625)"/>
       </defs>
       <use xlink:href="#CMR17-36" transform="scale(0.996264)"/>
       <use xlink:href="#CMR17-30" transform="translate(45.690477 0)scale(0.996264)"/>
       <use xlink:href="#CMR17-30" transform="translate(91.380954 0)scale(0.996264)"/>
       <use xlink:href="#CMR17-30" transform="translate(137.071431 0)scale(0.996264)"/>
      </g>
     </g>
    </g>
    <g id="text_8">
     <!-- Distance from center [km] -->
     <g transform="translate(132.881921 297.113446)scale(0.14 -0.14)">
      <defs>
       <path id="CMR17-44" d="M 333 4352 
L 333 4185 
C 774 4185 845 4185 845 3898 
L 845 453 
C 845 166 774 166 333 166 
L 333 0 
L 2368 0 
C 3398 0 4224 943 4224 2140 
C 4224 3344 3411 4352 2368 4352 
L 333 4352 
z
M 1523 166 
C 1267 166 1254 198 1254 414 
L 1254 3936 
C 1254 4153 1267 4185 1523 4185 
L 2240 4185 
C 2771 4185 3750 3873 3750 2140 
C 3750 1242 3488 879 3366 707 
C 3213 510 2848 166 2240 166 
L 1523 166 
z
" transform="scale(0.015625)"/>
       <path id="CMR17-69" d="M 992 3961 
C 992 4102 877 4224 730 4224 
C 589 4224 467 4108 467 3961 
C 467 3820 582 3699 730 3699 
C 870 3699 992 3814 992 3961 
z
M 243 2745 
L 243 2579 
C 602 2579 653 2540 653 2231 
L 653 443 
C 653 198 627 166 218 166 
L 218 0 
C 371 12 646 12 806 12 
C 960 12 1222 12 1370 0 
L 1370 166 
C 992 166 979 205 979 436 
L 979 2816 
L 243 2745 
z
" transform="scale(0.015625)"/>
       <path id="CMR17-73" d="M 1978 2688 
C 1978 2803 1971 2809 1933 2809 
C 1907 2809 1901 2803 1824 2707 
C 1805 2681 1747 2617 1728 2592 
C 1523 2809 1235 2816 1126 2816 
C 416 2816 160 2444 160 2073 
C 160 1497 813 1363 998 1324 
C 1402 1241 1542 1216 1677 1100 
C 1760 1024 1901 883 1901 652 
C 1901 384 1747 38 1158 38 
C 602 38 403 460 288 1024 
C 269 1113 269 1120 218 1120 
C 166 1120 160 1113 160 985 
L 160 64 
C 160 -52 166 -58 205 -58 
C 237 -58 243 -52 275 0 
C 314 57 410 211 448 275 
C 576 102 800 -64 1158 -64 
C 1792 -64 2131 281 2131 780 
C 2131 1107 1958 1280 1875 1356 
C 1683 1555 1459 1600 1190 1651 
C 838 1728 390 1817 390 2208 
C 390 2374 480 2726 1126 2726 
C 1811 2726 1850 2086 1862 1881 
C 1869 1849 1901 1843 1920 1843 
C 1978 1843 1978 1862 1978 1971 
L 1978 2688 
z
" transform="scale(0.015625)"/>
       <path id="CMR17-74" d="M 966 2585 
L 1862 2585 
L 1862 2752 
L 966 2752 
L 966 3968 
L 851 3968 
C 838 3292 614 2700 70 2687 
L 70 2585 
L 627 2585 
L 627 778 
C 627 655 627 -64 1370 -64 
C 1747 -64 1965 308 1965 784 
L 1965 1151 
L 1850 1151 
L 1850 790 
C 1850 347 1677 51 1408 51 
C 1222 51 966 179 966 765 
L 966 2585 
z
" transform="scale(0.015625)"/>
       <path id="CMR17-61" d="M 2304 1656 
C 2304 2048 2304 2275 2035 2534 
C 1798 2751 1523 2816 1306 2816 
C 800 2816 435 2408 435 1977 
C 435 1740 627 1728 666 1728 
C 749 1728 896 1779 896 1958 
C 896 2118 774 2188 666 2188 
C 640 2188 608 2182 589 2176 
C 723 2594 1069 2713 1293 2713 
C 1613 2713 1965 2421 1965 1875 
L 1965 1632 
C 1587 1619 1133 1568 774 1373 
C 371 1147 256 822 256 576 
C 256 77 832 -64 1171 -64 
C 1523 -64 1850 135 1990 505 
C 2003 219 2182 -39 2464 -39 
C 2598 -39 2938 51 2938 563 
L 2938 926 
L 2822 926 
L 2822 557 
C 2822 161 2650 109 2566 109 
C 2304 109 2304 446 2304 732 
L 2304 1656 
z
M 1965 887 
C 1965 323 1568 38 1216 38 
C 896 38 646 278 646 576 
C 646 771 730 1114 1101 1322 
C 1408 1497 1760 1523 1965 1536 
L 1965 887 
z
" transform="scale(0.015625)"/>
       <path id="CMR17-6e" d="M 2656 1954 
C 2656 2282 2592 2816 1837 2816 
C 1331 2816 1069 2424 973 2166 
L 966 2166 
L 966 2816 
L 211 2745 
L 211 2578 
C 589 2578 646 2540 646 2231 
L 646 443 
C 646 198 621 166 211 166 
L 211 0 
C 365 12 646 12 813 12 
C 979 12 1267 12 1421 0 
L 1421 166 
C 1011 166 986 192 986 443 
L 986 1678 
C 986 2269 1344 2713 1792 2713 
C 2266 2713 2317 2289 2317 1980 
L 2317 443 
C 2317 198 2291 166 1882 166 
L 1882 0 
C 2035 12 2317 12 2483 12 
C 2650 12 2938 12 3091 0 
L 3091 166 
C 2682 166 2656 192 2656 443 
L 2656 1954 
z
" transform="scale(0.015625)"/>
       <path id="CMR17-63" d="M 2234 2240 
C 2112 2240 1933 2240 1933 2015 
C 1933 1836 2080 1785 2163 1785 
C 2208 1785 2394 1804 2394 2028 
C 2394 2476 1958 2816 1466 2816 
C 787 2816 211 2201 211 1379 
C 211 521 813 -64 1466 -64 
C 2259 -64 2458 676 2458 747 
C 2458 773 2451 792 2406 792 
C 2362 792 2355 786 2330 702 
C 2163 180 1798 51 1523 51 
C 1114 51 621 431 621 1385 
C 621 2358 1094 2700 1472 2700 
C 1722 2700 2093 2582 2234 2240 
z
" transform="scale(0.015625)"/>
       <path id="CMR17-65" d="M 2438 1503 
C 2464 1529 2464 1542 2464 1606 
C 2464 2251 2118 2816 1389 2816 
C 710 2816 173 2175 173 1394 
C 173 554 781 -64 1459 -64 
C 2176 -64 2458 619 2458 755 
C 2458 800 2419 800 2406 800 
C 2362 800 2355 787 2330 709 
C 2189 270 1837 51 1504 51 
C 1229 51 954 206 781 490 
C 582 819 582 1200 582 1503 
L 2438 1503 
z
M 589 1600 
C 634 2511 1126 2713 1382 2713 
C 1818 2713 2112 2308 2118 1600 
L 589 1600 
z
" transform="scale(0.015625)"/>
       <path id="CMR17-66" d="M 979 2585 
L 1709 2585 
L 1709 2752 
L 966 2752 
L 966 3539 
C 966 4076 1235 4377 1510 4377 
C 1594 4377 1690 4363 1754 4339 
C 1702 4326 1568 4281 1568 4121 
C 1568 3955 1696 3904 1786 3904 
C 1875 3904 2003 3955 2003 4121 
C 2003 4353 1773 4480 1517 4480 
C 1152 4480 653 4211 653 3526 
L 653 2752 
L 141 2752 
L 141 2585 
L 653 2585 
L 653 441 
C 653 198 627 166 218 166 
L 218 0 
C 371 12 666 12 832 12 
C 1018 12 1344 12 1517 0 
L 1517 166 
C 1056 166 979 166 979 454 
L 979 2585 
z
" transform="scale(0.015625)"/>
       <path id="CMR17-72" d="M 960 1517 
C 960 2134 1222 2713 1702 2713 
C 1747 2713 1792 2707 1837 2687 
C 1837 2687 1696 2642 1696 2475 
C 1696 2321 1818 2257 1914 2257 
C 1990 2257 2131 2302 2131 2482 
C 2131 2687 1926 2816 1709 2816 
C 1222 2816 1011 2340 947 2115 
L 941 2115 
L 941 2816 
L 198 2745 
L 198 2578 
C 576 2578 634 2540 634 2231 
L 634 443 
C 634 198 608 166 198 166 
L 198 0 
C 352 12 646 12 813 12 
C 998 12 1325 12 1498 0 
L 1498 166 
C 1037 166 960 166 960 455 
L 960 1517 
z
" transform="scale(0.015625)"/>
       <path id="CMR17-6f" d="M 2758 1356 
C 2758 2176 2163 2816 1466 2816 
C 768 2816 173 2176 173 1356 
C 173 550 768 -64 1466 -64 
C 2163 -64 2758 550 2758 1356 
z
M 1466 51 
C 1165 51 909 230 762 480 
C 602 768 582 1126 582 1408 
C 582 1676 595 2009 762 2297 
C 890 2508 1139 2713 1466 2713 
C 1754 2713 1997 2553 2150 2329 
C 2349 2028 2349 1606 2349 1408 
C 2349 1158 2336 774 2163 467 
C 1984 172 1709 51 1466 51 
z
" transform="scale(0.015625)"/>
       <path id="CMR17-6d" d="M 4326 1954 
C 4326 2276 4269 2816 3507 2816 
C 3072 2816 2771 2520 2656 2173 
L 2650 2173 
C 2573 2700 2195 2816 1837 2816 
C 1331 2816 1069 2424 973 2166 
L 966 2166 
L 966 2816 
L 211 2745 
L 211 2578 
C 589 2578 646 2540 646 2231 
L 646 443 
C 646 198 621 166 211 166 
L 211 0 
C 365 12 646 12 813 12 
C 979 12 1267 12 1421 0 
L 1421 166 
C 1011 166 986 192 986 443 
L 986 1678 
C 986 2269 1344 2713 1792 2713 
C 2266 2713 2317 2289 2317 1980 
L 2317 443 
C 2317 198 2291 166 1882 166 
L 1882 0 
C 2035 12 2317 12 2483 12 
C 2650 12 2938 12 3091 0 
L 3091 166 
C 2682 166 2656 192 2656 443 
L 2656 1678 
C 2656 2269 3014 2713 3462 2713 
C 3936 2713 3987 2289 3987 1980 
L 3987 443 
C 3987 198 3962 166 3552 166 
L 3552 0 
C 3706 12 3987 12 4154 12 
C 4320 12 4608 12 4762 0 
L 4762 166 
C 4352 166 4326 192 4326 443 
L 4326 1954 
z
" transform="scale(0.015625)"/>
       <path id="CMR17-5b" d="M 1504 -1600 
L 1504 -1376 
L 902 -1376 
L 902 4575 
L 1504 4575 
L 1504 4800 
L 678 4800 
L 678 -1600 
L 1504 -1600 
z
" transform="scale(0.015625)"/>
       <path id="CMR17-6b" d="M 1670 1679 
C 1664 1692 1632 1730 1632 1749 
C 1632 1762 2086 2175 2144 2226 
C 2509 2532 2739 2563 2906 2570 
L 2906 2735 
C 2867 2735 2854 2735 2848 2729 
L 2534 2722 
C 2355 2722 2080 2722 1907 2735 
L 1907 2570 
C 1997 2563 2061 2513 2061 2423 
C 2061 2296 1933 2175 1926 2175 
L 960 1298 
L 960 4416 
L 198 4345 
L 198 4179 
C 576 4179 634 4141 634 3835 
L 634 439 
C 634 198 608 166 198 166 
L 198 0 
C 352 12 634 12 794 12 
C 954 12 1235 12 1389 0 
L 1389 166 
C 979 166 954 191 954 439 
L 954 1139 
L 1395 1540 
L 2042 586 
C 2118 471 2182 382 2182 299 
C 2182 185 2067 166 1990 166 
L 1990 0 
C 2144 12 2419 12 2579 12 
C 2694 12 2931 6 3040 0 
L 3040 166 
C 2739 166 2669 223 2477 503 
L 1670 1679 
z
" transform="scale(0.015625)"/>
       <path id="CMR17-5d" d="M 915 4800 
L 90 4800 
L 90 4575 
L 691 4575 
L 691 -1376 
L 90 -1376 
L 90 -1600 
L 915 -1600 
L 915 4800 
z
" transform="scale(0.015625)"/>
      </defs>
      <use xlink:href="#CMR17-44" transform="scale(0.996264)"/>
      <use xlink:href="#CMR17-69" transform="translate(70.393556 0)scale(0.996264)"/>
      <use xlink:href="#CMR17-73" transform="translate(95.264614 0)scale(0.996264)"/>
      <use xlink:href="#CMR17-74" transform="translate(131.065952 0)scale(0.996264)"/>
      <use xlink:href="#CMR17-61" transform="translate(166.34672 0)scale(0.996264)"/>
      <use xlink:href="#CMR17-6e" transform="translate(212.037197 0)scale(0.996264)"/>
      <use xlink:href="#CMR17-63" transform="translate(262.932567 0)scale(0.996264)"/>
      <use xlink:href="#CMR17-65" transform="translate(303.418227 0)scale(0.996264)"/>
      <use xlink:href="#CMR17-66" transform="translate(373.979854 0)scale(0.996264)"/>
      <use xlink:href="#CMR17-72" transform="translate(401.453366 0)scale(0.996264)"/>
      <use xlink:href="#CMR17-6f" transform="translate(436.734134 0)scale(0.996264)"/>
      <use xlink:href="#CMR17-6d" transform="translate(482.424611 0)scale(0.996264)"/>
      <use xlink:href="#CMR17-63" transform="translate(589.420168 0)scale(0.996264)"/>
      <use xlink:href="#CMR17-65" transform="translate(629.905828 0)scale(0.996264)"/>
      <use xlink:href="#CMR17-6e" transform="translate(670.391488 0)scale(0.996264)"/>
      <use xlink:href="#CMR17-74" transform="translate(718.684404 0)scale(0.996264)"/>
      <use xlink:href="#CMR17-65" transform="translate(753.965172 0)scale(0.996264)"/>
      <use xlink:href="#CMR17-72" transform="translate(794.450833 0)scale(0.996264)"/>
      <use xlink:href="#CMR17-5b" transform="translate(859.807567 0)scale(0.996264)"/>
      <use xlink:href="#CMR17-6b" transform="translate(884.678625 0)scale(0.996264)"/>
      <use xlink:href="#CMR17-6d" transform="translate(932.971541 0)scale(0.996264)"/>
      <use xlink:href="#CMR17-5d" transform="translate(1009.891131 0)scale(0.996264)"/>
     </g>
    </g>
   </g>
   <g id="matplotlib.axis_2">
    <g id="ytick_1">
     <g id="line2d_8">
      <defs>
       <path id="m85e62167e8" d="M 0 0 
L -3.5 0 
" style="stroke: #000000; stroke-width: 0.8"/>
      </defs>
      <g>
       <use xlink:href="#m85e62167e8" x="43.003031" y="266.796997" style="stroke: #000000; stroke-width: 0.8"/>
      </g>
     </g>
     <g id="text_9">
      <!-- $\mathdefault{0}$ -->
      <g transform="translate(31.021695 270.256246)scale(0.1 -0.1)">
       <use xlink:href="#CMR17-30" transform="scale(0.996264)"/>
      </g>
     </g>
    </g>
    <g id="ytick_2">
     <g id="line2d_9">
      <g>
       <use xlink:href="#m85e62167e8" x="43.003031" y="235.116997" style="stroke: #000000; stroke-width: 0.8"/>
      </g>
     </g>
     <g id="text_10">
      <!-- $\mathdefault{2}$ -->
      <g transform="translate(31.021695 238.576246)scale(0.1 -0.1)">
       <use xlink:href="#CMR17-32" transform="scale(0.996264)"/>
      </g>
     </g>
    </g>
    <g id="ytick_3">
     <g id="line2d_10">
      <g>
       <use xlink:href="#m85e62167e8" x="43.003031" y="203.436997" style="stroke: #000000; stroke-width: 0.8"/>
      </g>
     </g>
     <g id="text_11">
      <!-- $\mathdefault{4}$ -->
      <g transform="translate(31.021695 206.896246)scale(0.1 -0.1)">
       <use xlink:href="#CMR17-34" transform="scale(0.996264)"/>
      </g>
     </g>
    </g>
    <g id="ytick_4">
     <g id="line2d_11">
      <g>
       <use xlink:href="#m85e62167e8" x="43.003031" y="171.756997" style="stroke: #000000; stroke-width: 0.8"/>
      </g>
     </g>
     <g id="text_12">
      <!-- $\mathdefault{6}$ -->
      <g transform="translate(31.021695 175.216246)scale(0.1 -0.1)">
       <use xlink:href="#CMR17-36" transform="scale(0.996264)"/>
      </g>
     </g>
    </g>
    <g id="ytick_5">
     <g id="line2d_12">
      <g>
       <use xlink:href="#m85e62167e8" x="43.003031" y="140.076997" style="stroke: #000000; stroke-width: 0.8"/>
      </g>
     </g>
     <g id="text_13">
      <!-- $\mathdefault{8}$ -->
      <g transform="translate(31.021695 143.536246)scale(0.1 -0.1)">
       <defs>
        <path id="CMR17-38" d="M 1741 2289 
C 2144 2494 2554 2803 2554 3298 
C 2554 3884 1990 4224 1472 4224 
C 890 4224 378 3800 378 3215 
C 378 3054 416 2777 666 2533 
C 730 2469 998 2276 1171 2154 
C 883 2006 211 1652 211 945 
C 211 282 838 -128 1459 -128 
C 2144 -128 2720 366 2720 1022 
C 2720 1607 2330 1877 2074 2051 
L 1741 2289 
z
M 902 2855 
C 851 2887 595 3086 595 3388 
C 595 3781 998 4076 1459 4076 
C 1965 4076 2336 3716 2336 3298 
C 2336 2700 1670 2359 1638 2359 
C 1632 2359 1626 2359 1574 2398 
L 902 2855 
z
M 2080 1536 
C 2176 1466 2483 1253 2483 861 
C 2483 385 2010 25 1472 25 
C 890 25 448 443 448 951 
C 448 1459 838 1884 1280 2083 
L 2080 1536 
z
" transform="scale(0.015625)"/>
       </defs>
       <use xlink:href="#CMR17-38" transform="scale(0.996264)"/>
      </g>
     </g>
    </g>
    <g id="ytick_6">
     <g id="line2d_13">
      <g>
       <use xlink:href="#m85e62167e8" x="43.003031" y="108.396997" style="stroke: #000000; stroke-width: 0.8"/>
      </g>
     </g>
     <g id="text_14">
      <!-- $\mathdefault{10}$ -->
      <g transform="translate(26.04036 111.856246)scale(0.1 -0.1)">
       <use xlink:href="#CMR17-31" transform="scale(0.996264)"/>
       <use xlink:href="#CMR17-30" transform="translate(45.690477 0)scale(0.996264)"/>
      </g>
     </g>
    </g>
    <g id="ytick_7">
     <g id="line2d_14">
      <g>
       <use xlink:href="#m85e62167e8" x="43.003031" y="76.716997" style="stroke: #000000; stroke-width: 0.8"/>
      </g>
     </g>
     <g id="text_15">
      <!-- $\mathdefault{12}$ -->
      <g transform="translate(26.04036 80.176246)scale(0.1 -0.1)">
       <use xlink:href="#CMR17-31" transform="scale(0.996264)"/>
       <use xlink:href="#CMR17-32" transform="translate(45.690477 0)scale(0.996264)"/>
      </g>
     </g>
    </g>
    <g id="ytick_8">
     <g id="line2d_15">
      <g>
       <use xlink:href="#m85e62167e8" x="43.003031" y="45.036997" style="stroke: #000000; stroke-width: 0.8"/>
      </g>
     </g>
     <g id="text_16">
      <!-- $\mathdefault{14}$ -->
      <g transform="translate(26.04036 48.496246)scale(0.1 -0.1)">
       <use xlink:href="#CMR17-31" transform="scale(0.996264)"/>
       <use xlink:href="#CMR17-34" transform="translate(45.690477 0)scale(0.996264)"/>
      </g>
     </g>
    </g>
    <g id="text_17">
     <!-- Density [g/cm$^3$] -->
     <g transform="translate(18.553436 203.001743)rotate(-90)scale(0.14 -0.14)">
      <defs>
       <path id="CMR17-79" d="M 2496 2183 
C 2656 2579 2944 2585 3034 2585 
L 3034 2752 
C 2912 2745 2752 2739 2630 2739 
C 2496 2739 2285 2739 2157 2752 
L 2157 2585 
C 2400 2566 2406 2384 2406 2332 
C 2406 2268 2394 2235 2362 2158 
L 1664 409 
L 902 2300 
C 870 2378 870 2423 870 2430 
C 870 2572 1018 2585 1171 2585 
L 1171 2752 
C 1018 2739 742 2739 582 2739 
C 410 2739 205 2739 64 2752 
L 64 2585 
C 410 2585 448 2553 531 2345 
L 1485 -31 
C 1197 -795 1030 -1242 627 -1242 
C 557 -1242 397 -1223 282 -1106 
C 429 -1093 493 -1002 493 -892 
C 493 -782 416 -685 288 -685 
C 147 -685 77 -782 77 -899 
C 77 -1158 339 -1344 627 -1344 
C 998 -1344 1229 -983 1357 -659 
L 2496 2183 
z
" transform="scale(0.015625)"/>
       <path id="CMR17-67" d="M 710 1165 
C 832 1068 1043 960 1299 960 
C 1805 960 2240 1359 2240 1895 
C 2240 2063 2189 2321 1997 2521 
C 2176 2713 2438 2777 2586 2777 
C 2611 2777 2650 2777 2682 2758 
C 2656 2751 2598 2726 2598 2623 
C 2598 2540 2656 2483 2739 2483 
C 2835 2483 2886 2547 2886 2630 
C 2886 2751 2790 2880 2586 2880 
C 2330 2880 2106 2758 1926 2591 
C 1734 2764 1504 2828 1299 2828 
C 794 2828 358 2431 358 1895 
C 358 1527 570 1294 634 1230 
C 442 1004 442 742 442 710 
C 442 544 506 300 723 166 
C 390 82 128 -184 128 -517 
C 128 -996 736 -1344 1466 -1344 
C 2170 -1344 2803 -1009 2803 -510 
C 2803 384 1856 384 1363 384 
C 1216 384 954 384 922 390 
C 723 422 589 601 589 825 
C 589 883 589 1024 710 1165 
z
M 1299 1068 
C 736 1068 736 1766 736 1895 
C 736 2024 736 2719 1299 2719 
C 1862 2719 1862 2024 1862 1895 
C 1862 1766 1862 1068 1299 1068 
z
M 1466 -1236 
C 826 -1236 384 -883 384 -517 
C 384 -311 493 -118 634 -11 
C 794 102 858 102 1293 102 
C 1818 102 2547 102 2547 -517 
C 2547 -883 2106 -1236 1466 -1236 
z
" transform="scale(0.015625)"/>
       <path id="CMR17-2f" d="M 2605 4575 
C 2637 4658 2637 4671 2637 4684 
C 2637 4761 2579 4800 2528 4800 
C 2451 4800 2426 4748 2400 4671 
L 326 -1376 
C 294 -1460 294 -1472 294 -1485 
C 294 -1562 352 -1600 403 -1600 
C 480 -1600 506 -1549 531 -1472 
L 2605 4575 
z
" transform="scale(0.015625)"/>
      </defs>
      <use xlink:href="#CMR17-44" transform="scale(0.996264)"/>
      <use xlink:href="#CMR17-65" transform="translate(70.393556 0)scale(0.996264)"/>
      <use xlink:href="#CMR17-6e" transform="translate(110.879216 0)scale(0.996264)"/>
      <use xlink:href="#CMR17-73" transform="translate(161.774586 0)scale(0.996264)"/>
      <use xlink:href="#CMR17-69" transform="translate(197.575924 0)scale(0.996264)"/>
      <use xlink:href="#CMR17-74" transform="translate(222.446982 0)scale(0.996264)"/>
      <use xlink:href="#CMR17-79" transform="translate(255.125296 0)scale(0.996264)"/>
      <use xlink:href="#CMR17-5b" transform="translate(333.494178 0)scale(0.996264)"/>
      <use xlink:href="#CMR17-67" transform="translate(358.365237 0)scale(0.996264)"/>
      <use xlink:href="#CMR17-2f" transform="translate(404.055714 0)scale(0.996264)"/>
      <use xlink:href="#CMR17-63" transform="translate(449.746191 0)scale(0.996264)"/>
      <use xlink:href="#CMR17-6d" transform="translate(490.231852 0)scale(0.996264)"/>
      <use xlink:href="#CMR17-33" transform="translate(567.151441 36.153639)scale(0.697382)"/>
      <use xlink:href="#CMR17-5d" transform="translate(599.632755 0)scale(0.996264)"/>
     </g>
    </g>
   </g>
   <g id="line2d_16">
    <path d="M 43.003031 59.372292 
L 45.439499 59.372292 
L 49.901816 59.372292 
L 52.741435 59.372292 
L 59.232074 59.786793 
L 63.01825 59.855871 
L 68.156658 60.201278 
L 73.430273 60.615779 
L 78.501102 61.03028 
L 83.115522 61.496578 
L 87.882043 62.014705 
L 92.554409 62.569833 
L 97.725009 63.286974 
L 102.232395 63.931741 
L 105.072066 64.346242 
L 108.272291 74.386252 
L 112.895569 75.182354 
L 116.894266 75.774485 
L 121.356532 76.603471 
L 125.934742 77.491684 
L 130.628844 78.439106 
L 135.023532 79.33717 
L 139.806999 80.459767 
L 145.029931 81.755067 
L 149.897871 82.998555 
L 154.495397 84.242042 
L 159.315074 85.60395 
L 164.125069 87.025083 
L 169.398735 88.683071 
L 173.696795 90.114073 
L 179.389631 92.034562 
L 183.481041 93.479376 
L 188.23309 95.226179 
L 193.101082 97.091419 
L 198.374697 99.163892 
L 203.126745 101.117947 
L 208.110629 103.257043 
L 213.130723 105.433143 
L 217.711302 107.522882 
L 221.396111 109.837154 
L 222.308828 116.572718 
L 222.308828 121.132167 
L 222.308828 125.691616 
L 222.308828 130.25108 
L 222.308828 134.810529 
L 222.308828 139.369978 
L 222.308828 143.929443 
L 222.308828 148.488892 
L 222.308828 153.048341 
L 222.308828 157.607806 
L 222.308828 162.167255 
L 222.308828 166.726704 
L 222.308828 171.286169 
L 223.931474 178.332593 
L 228.698048 179.420642 
L 233.622338 180.1748 
L 239.346697 181.026818 
L 245.071107 181.878836 
L 250.299653 182.684791 
L 255.528199 183.490762 
L 260.801814 184.319748 
L 266.323335 185.171766 
L 271.394165 186.000768 
L 276.464942 186.829755 
L 281.738557 187.658741 
L 286.606549 188.487743 
L 291.387545 189.287125 
L 296.748105 190.145716 
L 301.616097 190.974718 
L 306.484038 191.803705 
L 311.091246 192.603086 
L 316.075079 193.491298 
L 320.682287 194.29068 
L 325.347391 195.119666 
L 330.012545 195.948668 
L 334.981904 197.140343 
L 338.966127 203.468803 
L 342.993771 204.653081 
L 347.60098 206.459095 
L 351.985984 210.133626 
L 357.192021 211.699505 
L 362.398007 212.873914 
L 366.319442 213.150243 
L 369.361898 213.668354 
L 370.173248 219.989417 
L 370.984545 226.414105 
L 371.187383 232.217041 
L 371.187383 236.776506 
L 371.187383 241.335955 
L 371.187383 247.657018 
" clip-path="url(#pc0533e06fb)" style="fill: none; stroke: #000000; stroke-width: 1.5; stroke-linecap: square"/>
   </g>
   <g id="LineCollection_1">
    <path d="M 43.003031 95.203757 
L 222.558846 95.203757 
" clip-path="url(#pc0533e06fb)" style="fill: none; stroke-dasharray: 5.55,2.4; stroke-dashoffset: 0; stroke: #9f2a63; stroke-width: 1.5"/>
   </g>
   <g id="LineCollection_2">
    <path d="M 222.558846 199.912958 
L 371.158538 199.912958 
" clip-path="url(#pc0533e06fb)" style="fill: none; stroke-dasharray: 5.55,2.4; stroke-dashoffset: 0; stroke: #9f2a63; stroke-width: 1.5"/>
   </g>
   <g id="LineCollection_3">
    <path d="M 222.558846 199.912958 
L 222.558846 95.203757 
" clip-path="url(#pc0533e06fb)" style="fill: none; stroke-dasharray: 5.55,2.4; stroke-dashoffset: 0; stroke: #9f2a63; stroke-width: 1.5"/>
   </g>
   <g id="LineCollection_4">
    <path d="M 371.158538 266.796997 
L 371.158538 199.912958 
" clip-path="url(#pc0533e06fb)" style="fill: none; stroke-dasharray: 5.55,2.4; stroke-dashoffset: 0; stroke: #9f2a63; stroke-width: 1.5"/>
   </g>
   <g id="patch_3">
    <path d="M 43.003031 266.796997 
L 43.003031 45.036997 
" style="fill: none; stroke: #000000; stroke-width: 0.8; stroke-linejoin: miter; stroke-linecap: square"/>
   </g>
   <g id="patch_4">
    <path d="M 377.803031 266.796997 
L 377.803031 45.036997 
" style="fill: none; stroke: #000000; stroke-width: 0.8; stroke-linejoin: miter; stroke-linecap: square"/>
   </g>
   <g id="patch_5">
    <path d="M 43.003031 266.796997 
L 377.803031 266.796997 
" style="fill: none; stroke: #000000; stroke-width: 0.8; stroke-linejoin: miter; stroke-linecap: square"/>
   </g>
   <g id="patch_6">
    <path d="M 43.003031 45.036997 
L 377.803031 45.036997 
" style="fill: none; stroke: #000000; stroke-width: 0.8; stroke-linejoin: miter; stroke-linecap: square"/>
   </g>
   <g id="text_18">
    <!-- Inner core -->
    <g transform="translate(48.059014 76.716997)scale(0.12 -0.12)">
     <defs>
      <path id="CMR17-49" d="M 1261 3898 
C 1261 4185 1338 4185 1798 4185 
L 1798 4352 
C 1594 4339 1267 4339 1050 4339 
C 832 4339 506 4339 301 4352 
L 301 4185 
C 762 4185 838 4185 838 3898 
L 838 453 
C 838 166 762 166 301 166 
L 301 0 
C 506 12 832 12 1050 12 
C 1267 12 1594 12 1798 0 
L 1798 166 
C 1338 166 1261 166 1261 453 
L 1261 3898 
z
" transform="scale(0.015625)"/>
     </defs>
     <use xlink:href="#CMR17-49" transform="scale(0.996264)"/>
     <use xlink:href="#CMR17-6e" transform="translate(32.638409 0)scale(0.996264)"/>
     <use xlink:href="#CMR17-6e" transform="translate(83.533779 0)scale(0.996264)"/>
     <use xlink:href="#CMR17-65" transform="translate(134.429149 0)scale(0.996264)"/>
     <use xlink:href="#CMR17-72" transform="translate(174.914809 0)scale(0.996264)"/>
     <use xlink:href="#CMR17-63" transform="translate(240.271543 0)scale(0.996264)"/>
     <use xlink:href="#CMR17-6f" transform="translate(280.757204 0)scale(0.996264)"/>
     <use xlink:href="#CMR17-72" transform="translate(326.447681 0)scale(0.996264)"/>
     <use xlink:href="#CMR17-65" transform="translate(361.728449 0)scale(0.996264)"/>
    </g>
   </g>
   <g id="text_19">
    <!-- Outer core -->
    <g transform="translate(149.609076 79.884997)scale(0.12 -0.12)">
     <defs>
      <path id="CMR17-4f" d="M 4307 2166 
C 4307 3488 3366 4480 2304 4480 
C 1216 4480 294 3475 294 2166 
C 294 857 1229 -128 2298 -128 
C 3392 -128 4307 876 4307 2166 
z
M 2304 -13 
C 1574 -13 781 722 781 2250 
C 781 3771 1651 4364 2298 4364 
C 2976 4364 3821 3752 3821 2250 
C 3821 696 3008 -13 2304 -13 
z
" transform="scale(0.015625)"/>
      <path id="CMR17-75" d="M 1882 2745 
L 1882 2579 
C 2259 2579 2317 2540 2317 2229 
L 2317 1053 
C 2317 510 2029 38 1555 38 
C 1030 38 986 355 986 691 
L 986 2816 
L 211 2745 
L 211 2579 
C 467 2579 640 2579 646 2320 
L 646 1079 
C 646 646 646 368 813 187 
C 896 103 1056 -64 1517 -64 
C 2061 -64 2272 400 2323 536 
L 2330 536 
L 2330 -64 
L 3091 -13 
L 3091 154 
C 2714 154 2656 193 2656 503 
L 2656 2816 
L 1882 2745 
z
" transform="scale(0.015625)"/>
     </defs>
     <use xlink:href="#CMR17-4f" transform="scale(0.996264)"/>
     <use xlink:href="#CMR17-75" transform="translate(71.714788 0)scale(0.996264)"/>
     <use xlink:href="#CMR17-74" transform="translate(122.610158 0)scale(0.996264)"/>
     <use xlink:href="#CMR17-65" transform="translate(157.890926 0)scale(0.996264)"/>
     <use xlink:href="#CMR17-72" transform="translate(198.376586 0)scale(0.996264)"/>
     <use xlink:href="#CMR17-63" transform="translate(263.733321 0)scale(0.996264)"/>
     <use xlink:href="#CMR17-6f" transform="translate(304.218981 0)scale(0.996264)"/>
     <use xlink:href="#CMR17-72" transform="translate(349.909458 0)scale(0.996264)"/>
     <use xlink:href="#CMR17-65" transform="translate(385.190226 0)scale(0.996264)"/>
    </g>
   </g>
   <g id="text_20">
    <!--  Lower mantle -->
    <g transform="translate(240.077196 176.508997)scale(0.12 -0.12)">
     <defs>
      <path id="CMR17-4c" d="M 3469 1612 
L 3354 1612 
C 3302 981 3219 166 2125 166 
L 1530 166 
C 1274 166 1261 198 1261 414 
L 1261 3892 
C 1261 4121 1274 4185 1760 4185 
L 1901 4185 
L 1901 4352 
C 1638 4339 1331 4339 1069 4339 
C 870 4339 512 4339 326 4352 
L 326 4185 
C 768 4185 838 4185 838 3898 
L 838 453 
C 838 166 768 166 326 166 
L 326 0 
L 3315 0 
L 3469 1612 
z
" transform="scale(0.015625)"/>
      <path id="CMR17-77" d="M 3725 2186 
C 3853 2566 4109 2579 4205 2585 
L 4205 2752 
C 4077 2745 3949 2739 3821 2739 
C 3699 2739 3424 2739 3315 2752 
L 3315 2585 
C 3514 2572 3622 2456 3622 2296 
C 3622 2251 3610 2193 3597 2148 
L 2995 398 
L 2342 2296 
C 2330 2341 2310 2392 2310 2418 
C 2310 2585 2528 2585 2630 2585 
L 2630 2752 
C 2483 2739 2214 2739 2061 2739 
C 1901 2739 1734 2739 1587 2752 
L 1587 2585 
C 1939 2585 1939 2572 2074 2167 
L 1485 443 
L 851 2302 
C 819 2386 819 2399 819 2418 
C 819 2585 1037 2585 1139 2585 
L 1139 2752 
C 986 2739 717 2739 557 2739 
C 416 2739 198 2739 64 2752 
L 64 2585 
C 346 2585 416 2566 486 2353 
L 1274 38 
C 1299 -45 1318 -64 1370 -64 
C 1414 -64 1440 -52 1472 44 
L 2131 1987 
L 2797 44 
C 2829 -52 2854 -64 2899 -64 
C 2950 -64 2970 -45 2995 38 
L 3725 2186 
z
" transform="scale(0.015625)"/>
      <path id="CMR17-6c" d="M 979 4416 
L 218 4345 
L 218 4179 
C 595 4179 653 4141 653 3835 
L 653 439 
C 653 198 627 166 218 166 
L 218 0 
C 371 12 653 12 813 12 
C 979 12 1261 12 1414 0 
L 1414 166 
C 1005 166 979 191 979 439 
L 979 4416 
z
" transform="scale(0.015625)"/>
     </defs>
     <use xlink:href="#CMR17-4c" transform="scale(0.996264)"/>
     <use xlink:href="#CMR17-6f" transform="translate(57.381408 0)scale(0.996264)"/>
     <use xlink:href="#CMR17-77" transform="translate(100.469431 0)scale(0.996264)"/>
     <use xlink:href="#CMR17-65" transform="translate(164.376858 0)scale(0.996264)"/>
     <use xlink:href="#CMR17-72" transform="translate(204.862518 0)scale(0.996264)"/>
     <use xlink:href="#CMR17-6d" transform="translate(270.219252 0)scale(0.996264)"/>
     <use xlink:href="#CMR17-61" transform="translate(347.138842 0)scale(0.996264)"/>
     <use xlink:href="#CMR17-6e" transform="translate(392.829319 0)scale(0.996264)"/>
     <use xlink:href="#CMR17-74" transform="translate(441.122235 0)scale(0.996264)"/>
     <use xlink:href="#CMR17-6c" transform="translate(476.403003 0)scale(0.996264)"/>
     <use xlink:href="#CMR17-65" transform="translate(501.274061 0)scale(0.996264)"/>
    </g>
   </g>
   <g id="text_21">
    <!--  Transition zone -->
    <g transform="translate(347.474441 189.921593)rotate(-90)scale(0.12 -0.12)">
     <defs>
      <path id="CMR17-54" d="M 3981 4332 
L 288 4332 
L 179 2924 
L 294 2924 
C 378 3981 467 4166 1453 4166 
C 1568 4166 1754 4166 1805 4159 
C 1926 4140 1926 4064 1926 3917 
L 1926 465 
C 1926 236 1907 166 1376 166 
L 1197 166 
L 1197 0 
C 1504 6 1824 12 2138 12 
C 2451 12 2771 6 3078 0 
L 3078 166 
L 2899 166 
C 2368 166 2349 236 2349 465 
L 2349 3917 
C 2349 4057 2349 4134 2464 4159 
C 2515 4166 2701 4166 2816 4166 
C 3795 4166 3891 3981 3974 2924 
L 4090 2924 
L 3981 4332 
z
" transform="scale(0.015625)"/>
      <path id="CMR17-7a" d="M 2310 2604 
C 2362 2668 2362 2681 2362 2694 
C 2362 2752 2336 2752 2221 2752 
L 275 2752 
L 211 1760 
L 326 1760 
C 371 2380 442 2649 1178 2649 
L 1958 2649 
L 128 96 
C 128 6 134 0 269 0 
L 2291 0 
L 2381 1152 
L 2266 1152 
C 2214 441 2131 115 1350 115 
L 531 115 
L 2310 2604 
z
" transform="scale(0.015625)"/>
     </defs>
     <use xlink:href="#CMR17-54" transform="scale(0.996264)"/>
     <use xlink:href="#CMR17-72" transform="translate(58.702625 0)scale(0.996264)"/>
     <use xlink:href="#CMR17-61" transform="translate(93.983393 0)scale(0.996264)"/>
     <use xlink:href="#CMR17-6e" transform="translate(139.67387 0)scale(0.996264)"/>
     <use xlink:href="#CMR17-73" transform="translate(190.56924 0)scale(0.996264)"/>
     <use xlink:href="#CMR17-69" transform="translate(226.370577 0)scale(0.996264)"/>
     <use xlink:href="#CMR17-74" transform="translate(251.241636 0)scale(0.996264)"/>
     <use xlink:href="#CMR17-69" transform="translate(286.522404 0)scale(0.996264)"/>
     <use xlink:href="#CMR17-6f" transform="translate(311.393462 0)scale(0.996264)"/>
     <use xlink:href="#CMR17-6e" transform="translate(357.083939 0)scale(0.996264)"/>
     <use xlink:href="#CMR17-7a" transform="translate(438.055276 0)scale(0.996264)"/>
     <use xlink:href="#CMR17-6f" transform="translate(478.540936 0)scale(0.996264)"/>
     <use xlink:href="#CMR17-6e" transform="translate(524.231413 0)scale(0.996264)"/>
     <use xlink:href="#CMR17-65" transform="translate(575.126783 0)scale(0.996264)"/>
    </g>
   </g>
   <g id="text_22">
    <!--  Upper mantle -->
    <g transform="translate(365.502133 194.673593)rotate(-90)scale(0.12 -0.12)">
     <defs>
      <path id="CMR17-55" d="M 3456 1442 
C 3456 583 2899 38 2291 38 
C 1965 38 1670 211 1491 480 
C 1286 788 1261 1185 1261 1410 
L 1261 3897 
C 1261 4185 1331 4185 1773 4185 
L 1773 4352 
C 1587 4339 1248 4339 1050 4339 
C 851 4339 512 4339 326 4352 
L 326 4185 
C 768 4185 838 4185 838 3897 
L 838 1442 
C 838 519 1536 -128 2278 -128 
C 3110 -128 3590 724 3590 1352 
L 3590 3788 
C 3590 4147 3917 4185 4102 4185 
L 4102 4352 
C 3955 4339 3686 4339 3526 4339 
C 3366 4339 3091 4339 2944 4352 
L 2944 4185 
C 3456 4185 3456 3884 3456 3724 
L 3456 1442 
z
" transform="scale(0.015625)"/>
      <path id="CMR17-70" d="M 1408 -1114 
C 998 -1114 973 -1088 973 -834 
L 973 380 
C 1158 109 1427 -64 1766 -64 
C 2406 -64 3053 503 3053 1382 
C 3053 2196 2496 2816 1837 2816 
C 1453 2816 1139 2603 960 2345 
L 960 2816 
L 198 2745 
L 198 2577 
C 576 2577 634 2539 634 2228 
L 634 -834 
C 634 -1081 608 -1114 198 -1114 
L 198 -1280 
C 352 -1268 634 -1268 800 -1268 
C 966 -1268 1254 -1268 1408 -1280 
L 1408 -1114 
z
M 973 2015 
C 973 2106 973 2241 1222 2481 
C 1254 2506 1472 2700 1792 2700 
C 2259 2700 2643 2112 2643 1376 
C 2643 639 2234 38 1728 38 
C 1498 38 1248 148 1056 451 
C 973 594 973 632 973 736 
L 973 2015 
z
" transform="scale(0.015625)"/>
     </defs>
     <use xlink:href="#CMR17-55" transform="scale(0.996264)"/>
     <use xlink:href="#CMR17-70" transform="translate(69.07243 0)scale(0.996264)"/>
     <use xlink:href="#CMR17-70" transform="translate(119.9678 0)scale(0.996264)"/>
     <use xlink:href="#CMR17-65" transform="translate(173.465608 0)scale(0.996264)"/>
     <use xlink:href="#CMR17-72" transform="translate(213.951269 0)scale(0.996264)"/>
     <use xlink:href="#CMR17-6d" transform="translate(279.308003 0)scale(0.996264)"/>
     <use xlink:href="#CMR17-61" transform="translate(356.227593 0)scale(0.996264)"/>
     <use xlink:href="#CMR17-6e" transform="translate(401.91807 0)scale(0.996264)"/>
     <use xlink:href="#CMR17-74" transform="translate(450.210986 0)scale(0.996264)"/>
     <use xlink:href="#CMR17-6c" transform="translate(485.491753 0)scale(0.996264)"/>
     <use xlink:href="#CMR17-65" transform="translate(510.362812 0)scale(0.996264)"/>
    </g>
   </g>
   <g id="text_23">
    <!-- Earth density profile -->
    <g transform="translate(128.325955 21.036997)scale(0.2 -0.2)">
     <defs>
      <path id="CMR17-45" d="M 3885 1614 
L 3770 1614 
C 3629 676 3546 166 2419 166 
L 1530 166 
C 1274 166 1261 198 1261 415 
L 1261 2176 
L 1862 2176 
C 2464 2176 2522 1959 2522 1429 
L 2637 1429 
L 2637 3086 
L 2522 3086 
C 2522 2558 2464 2342 1862 2342 
L 1261 2342 
L 1261 3924 
C 1261 4141 1274 4172 1530 4172 
L 2406 4172 
C 3398 4172 3514 3778 3603 2933 
L 3718 2933 
L 3565 4339 
L 326 4339 
L 326 4172 
C 768 4172 838 4172 838 3886 
L 838 453 
C 838 166 768 166 326 166 
L 326 0 
L 3654 0 
L 3885 1614 
z
" transform="scale(0.015625)"/>
      <path id="CMR17-68" d="M 2656 1954 
C 2656 2282 2592 2816 1837 2816 
C 1312 2816 1056 2392 979 2179 
L 973 2179 
L 973 4416 
L 211 4345 
L 211 4179 
C 589 4179 646 4141 646 3843 
L 646 443 
C 646 198 621 166 211 166 
L 211 0 
C 365 12 646 12 813 12 
C 979 12 1267 12 1421 0 
L 1421 166 
C 1011 166 986 192 986 443 
L 986 1678 
C 986 2269 1344 2713 1792 2713 
C 2266 2713 2317 2289 2317 1980 
L 2317 443 
C 2317 198 2291 166 1882 166 
L 1882 0 
C 2035 12 2317 12 2483 12 
C 2650 12 2938 12 3091 0 
L 3091 166 
C 2682 166 2656 192 2656 443 
L 2656 1954 
z
" transform="scale(0.015625)"/>
      <path id="CMR17-64" d="M 1869 4345 
L 1869 4179 
C 2246 4179 2304 4141 2304 3843 
L 2304 2371 
C 2278 2403 2016 2816 1498 2816 
C 845 2816 211 2228 211 1376 
C 211 529 806 -64 1434 -64 
C 1978 -64 2259 361 2291 406 
L 2291 -64 
L 3066 -13 
L 3066 154 
C 2688 154 2630 193 2630 503 
L 2630 4416 
L 1869 4345 
z
M 2291 762 
C 2291 568 2176 393 2029 264 
C 1811 70 1594 38 1472 38 
C 1286 38 621 135 621 1369 
C 621 2636 1363 2713 1530 2713 
C 1824 2713 2061 2545 2208 2313 
C 2291 2177 2291 2157 2291 2041 
L 2291 762 
z
" transform="scale(0.015625)"/>
      <path id="CMR17-c" d="M 2554 2816 
C 2400 2809 1926 2777 1805 2764 
C 1766 2758 1754 2758 1677 2758 
L 947 2758 
L 947 3517 
C 947 4127 1434 4416 1818 4416 
C 1939 4416 2214 4383 2355 4160 
C 2291 4160 2086 4160 2086 3935 
C 2086 3782 2189 3705 2317 3705 
C 2432 3705 2547 3769 2547 3942 
C 2547 4265 2240 4518 1843 4518 
C 1338 4518 634 4225 634 3517 
L 634 2758 
L 122 2758 
L 122 2591 
L 634 2591 
L 634 442 
C 634 198 608 166 198 166 
L 198 0 
C 352 12 634 12 794 12 
C 960 12 1242 12 1395 0 
L 1395 166 
C 986 166 960 192 960 442 
L 960 2591 
L 1901 2591 
C 2176 2591 2227 2534 2227 2251 
L 2227 442 
C 2227 198 2202 166 1792 166 
L 1792 0 
C 1946 12 2227 12 2387 12 
C 2554 12 2835 12 2989 0 
L 2989 166 
C 2579 166 2554 192 2554 442 
L 2554 2816 
z
" transform="scale(0.015625)"/>
     </defs>
     <use xlink:href="#CMR17-45" transform="scale(0.996264)"/>
     <use xlink:href="#CMR17-61" transform="translate(62.586301 0)scale(0.996264)"/>
     <use xlink:href="#CMR17-72" transform="translate(108.276778 0)scale(0.996264)"/>
     <use xlink:href="#CMR17-74" transform="translate(143.557545 0)scale(0.996264)"/>
     <use xlink:href="#CMR17-68" transform="translate(178.838313 0)scale(0.996264)"/>
     <use xlink:href="#CMR17-64" transform="translate(259.809649 0)scale(0.996264)"/>
     <use xlink:href="#CMR17-65" transform="translate(310.705019 0)scale(0.996264)"/>
     <use xlink:href="#CMR17-6e" transform="translate(351.19068 0)scale(0.996264)"/>
     <use xlink:href="#CMR17-73" transform="translate(402.086049 0)scale(0.996264)"/>
     <use xlink:href="#CMR17-69" transform="translate(437.887387 0)scale(0.996264)"/>
     <use xlink:href="#CMR17-74" transform="translate(462.758446 0)scale(0.996264)"/>
     <use xlink:href="#CMR17-79" transform="translate(495.436759 0)scale(0.996264)"/>
     <use xlink:href="#CMR17-70" transform="translate(573.805642 0)scale(0.996264)"/>
     <use xlink:href="#CMR17-72" transform="translate(624.701011 0)scale(0.996264)"/>
     <use xlink:href="#CMR17-6f" transform="translate(659.981779 0)scale(0.996264)"/>
     <use xlink:href="#CMR17-c" transform="translate(705.672256 0)scale(0.996264)"/>
     <use xlink:href="#CMR17-6c" transform="translate(755.41448 0)scale(0.996264)"/>
     <use xlink:href="#CMR17-65" transform="translate(780.285538 0)scale(0.996264)"/>
    </g>
   </g>
   <g id="legend_1">
    <g id="patch_7">
     <path d="M 245.48434 88.086188 
L 369.403031 88.086188 
Q 371.803031 88.086188 371.803031 85.686188 
L 371.803031 53.436997 
Q 371.803031 51.036997 369.403031 51.036997 
L 245.48434 51.036997 
Q 243.08434 51.036997 243.08434 53.436997 
L 243.08434 85.686188 
Q 243.08434 88.086188 245.48434 88.086188 
z
" style="fill: #ffffff; opacity: 0.8; stroke: #cccccc; stroke-linejoin: miter"/>
    </g>
    <g id="line2d_17">
     <path d="M 247.88434 60.036997 
L 259.88434 60.036997 
L 271.88434 60.036997 
" style="fill: none; stroke: #000000; stroke-width: 1.5; stroke-linecap: square"/>
    </g>
    <g id="text_24">
     <!-- PREM -->
     <g transform="translate(281.48434 64.236997)scale(0.12 -0.12)">
      <defs>
       <path id="CMR17-50" d="M 1267 2048 
L 2291 2048 
C 3117 2048 3718 2583 3718 3187 
C 3718 3791 3130 4352 2291 4352 
L 333 4352 
L 333 4185 
C 774 4185 845 4185 845 3899 
L 845 453 
C 845 166 774 166 333 166 
L 333 0 
C 518 12 858 12 1056 12 
C 1254 12 1594 12 1779 0 
L 1779 166 
C 1338 166 1267 166 1267 453 
L 1267 2048 
z
M 1254 2182 
L 1254 3937 
C 1254 4153 1267 4185 1523 4185 
L 2170 4185 
C 2995 4185 3232 3715 3232 3187 
C 3232 2608 2950 2182 2170 2182 
L 1254 2182 
z
" transform="scale(0.015625)"/>
       <path id="CMR17-52" d="M 2509 2156 
C 3117 2278 3629 2689 3629 3203 
C 3629 3806 2950 4352 2054 4352 
L 333 4352 
L 333 4185 
C 774 4185 845 4185 845 3896 
L 845 428 
C 845 140 774 140 333 140 
L 333 -26 
C 518 -13 851 -13 1050 -13 
C 1248 -13 1581 -13 1766 -26 
L 1766 140 
C 1325 140 1254 140 1254 428 
L 1254 2112 
L 2003 2112 
C 2368 2112 2573 1964 2662 1881 
C 2918 1632 2918 1459 2918 1024 
C 2918 595 2918 377 3110 160 
C 3354 -103 3680 -128 3821 -128 
C 4294 -128 4365 403 4365 512 
C 4365 550 4365 595 4307 595 
C 4256 595 4250 556 4250 531 
C 4218 115 4032 -26 3834 -26 
C 3482 -26 3443 377 3405 768 
C 3386 902 3373 998 3360 1139 
C 3322 1459 3270 1926 2509 2156 
z
M 1984 2214 
L 1254 2214 
L 1254 3935 
C 1254 4153 1267 4185 1523 4185 
L 1990 4185 
C 2522 4185 3142 3999 3142 3203 
C 3142 2374 2464 2214 1984 2214 
z
" transform="scale(0.015625)"/>
       <path id="CMR17-4d" d="M 1338 4249 
C 1299 4345 1293 4352 1158 4352 
L 339 4352 
L 339 4185 
C 781 4185 851 4185 851 3898 
L 851 624 
C 851 465 851 166 339 166 
L 339 0 
C 486 12 755 12 915 12 
C 1075 12 1344 12 1491 0 
L 1491 166 
C 979 166 979 465 979 624 
L 979 4159 
L 986 4159 
L 2490 102 
C 2515 38 2528 0 2579 0 
C 2630 0 2643 38 2669 102 
L 4186 4191 
L 4192 4191 
L 4192 453 
C 4192 166 4122 166 3680 166 
L 3680 0 
C 3853 12 4198 12 4384 12 
C 4570 12 4922 12 5094 0 
L 5094 166 
C 4653 166 4582 166 4582 453 
L 4582 3898 
C 4582 4185 4653 4185 5094 4185 
L 5094 4352 
L 4282 4352 
C 4147 4352 4141 4345 4102 4249 
L 2720 516 
L 1338 4249 
z
" transform="scale(0.015625)"/>
      </defs>
      <use xlink:href="#CMR17-50" transform="scale(0.996264)"/>
      <use xlink:href="#CMR17-52" transform="translate(62.586301 0)scale(0.996264)"/>
      <use xlink:href="#CMR17-45" transform="translate(130.377402 0)scale(0.996264)"/>
      <use xlink:href="#CMR17-4d" transform="translate(192.963703 0)scale(0.996264)"/>
     </g>
    </g>
    <g id="line2d_18">
     <path d="M 247.88434 76.761593 
L 271.88434 76.761593 
" style="fill: none; stroke-dasharray: 5.55,2.4; stroke-dashoffset: 0; stroke: #9f2a63; stroke-width: 1.5"/>
    </g>
    <g id="text_25">
     <!-- Two layer model -->
     <g transform="translate(281.48434 80.961593)scale(0.12 -0.12)">
      <use xlink:href="#CMR17-54" transform="scale(0.996264)"/>
      <use xlink:href="#CMR17-77" transform="translate(66.509881 0)scale(0.996264)"/>
      <use xlink:href="#CMR17-6f" transform="translate(130.417307 0)scale(0.996264)"/>
      <use xlink:href="#CMR17-6c" transform="translate(206.183751 0)scale(0.996264)"/>
      <use xlink:href="#CMR17-61" transform="translate(231.054809 0)scale(0.996264)"/>
      <use xlink:href="#CMR17-79" transform="translate(274.142832 0)scale(0.996264)"/>
      <use xlink:href="#CMR17-65" transform="translate(319.833294 0)scale(0.996264)"/>
      <use xlink:href="#CMR17-72" transform="translate(360.318955 0)scale(0.996264)"/>
      <use xlink:href="#CMR17-6d" transform="translate(425.675689 0)scale(0.996264)"/>
      <use xlink:href="#CMR17-6f" transform="translate(502.595279 0)scale(0.996264)"/>
      <use xlink:href="#CMR17-64" transform="translate(550.888195 0)scale(0.996264)"/>
      <use xlink:href="#CMR17-65" transform="translate(601.783564 0)scale(0.996264)"/>
      <use xlink:href="#CMR17-6c" transform="translate(642.269225 0)scale(0.996264)"/>
     </g>
    </g>
   </g>
  </g>
  <g id="axes_2">
   <g id="matplotlib.axis_3">
    <g id="ytick_9">
     <g id="line2d_19">
      <defs>
       <path id="mb6b9b37b7d" d="M 0 0 
L 3.5 0 
" style="stroke: #000000; stroke-width: 0.8"/>
      </defs>
      <g>
       <use xlink:href="#mb6b9b37b7d" x="377.803031" y="266.796997" style="stroke: #000000; stroke-width: 0.8"/>
      </g>
     </g>
     <g id="text_26">
      <!-- 0 -->
      <g transform="translate(384.803031 270.256246)scale(0.1 -0.1)">
       <use xlink:href="#CMR17-30" transform="scale(0.996264)"/>
      </g>
     </g>
    </g>
    <g id="ytick_10">
     <g id="line2d_20">
      <g>
       <use xlink:href="#mb6b9b37b7d" x="377.803031" y="235.116997" style="stroke: #000000; stroke-width: 0.8"/>
      </g>
     </g>
     <g id="text_27">
      <!-- 1 -->
      <g transform="translate(384.803031 238.576246)scale(0.1 -0.1)">
       <use xlink:href="#CMR17-31" transform="scale(0.996264)"/>
      </g>
     </g>
    </g>
    <g id="ytick_11">
     <g id="line2d_21">
      <g>
       <use xlink:href="#mb6b9b37b7d" x="377.803031" y="203.436997" style="stroke: #000000; stroke-width: 0.8"/>
      </g>
     </g>
     <g id="text_28">
      <!-- 2 -->
      <g transform="translate(384.803031 206.896246)scale(0.1 -0.1)">
       <use xlink:href="#CMR17-32" transform="scale(0.996264)"/>
      </g>
     </g>
    </g>
    <g id="ytick_12">
     <g id="line2d_22">
      <g>
       <use xlink:href="#mb6b9b37b7d" x="377.803031" y="171.756997" style="stroke: #000000; stroke-width: 0.8"/>
      </g>
     </g>
     <g id="text_29">
      <!-- 3 -->
      <g transform="translate(384.803031 175.216246)scale(0.1 -0.1)">
       <use xlink:href="#CMR17-33" transform="scale(0.996264)"/>
      </g>
     </g>
    </g>
    <g id="ytick_13">
     <g id="line2d_23">
      <g>
       <use xlink:href="#mb6b9b37b7d" x="377.803031" y="140.076997" style="stroke: #000000; stroke-width: 0.8"/>
      </g>
     </g>
     <g id="text_30">
      <!-- 4 -->
      <g transform="translate(384.803031 143.536246)scale(0.1 -0.1)">
       <use xlink:href="#CMR17-34" transform="scale(0.996264)"/>
      </g>
     </g>
    </g>
    <g id="ytick_14">
     <g id="line2d_24">
      <g>
       <use xlink:href="#mb6b9b37b7d" x="377.803031" y="108.396997" style="stroke: #000000; stroke-width: 0.8"/>
      </g>
     </g>
     <g id="text_31">
      <!-- 5 -->
      <g transform="translate(384.803031 111.856246)scale(0.1 -0.1)">
       <use xlink:href="#CMR17-35" transform="scale(0.996264)"/>
      </g>
     </g>
    </g>
    <g id="ytick_15">
     <g id="line2d_25">
      <g>
       <use xlink:href="#mb6b9b37b7d" x="377.803031" y="76.716997" style="stroke: #000000; stroke-width: 0.8"/>
      </g>
     </g>
     <g id="text_32">
      <!-- 6 -->
      <g transform="translate(384.803031 80.176246)scale(0.1 -0.1)">
       <use xlink:href="#CMR17-36" transform="scale(0.996264)"/>
      </g>
     </g>
    </g>
    <g id="ytick_16">
     <g id="line2d_26">
      <g>
       <use xlink:href="#mb6b9b37b7d" x="377.803031" y="45.036997" style="stroke: #000000; stroke-width: 0.8"/>
      </g>
     </g>
     <g id="text_33">
      <!-- 7 -->
      <g transform="translate(384.803031 48.496246)scale(0.1 -0.1)">
       <defs>
        <path id="CMR17-37" d="M 2886 3955 
L 2886 4096 
L 1382 4096 
C 634 4096 621 4166 595 4288 
L 480 4288 
L 294 3104 
L 410 3104 
C 429 3226 474 3552 550 3673 
C 589 3724 1062 3724 1171 3724 
L 2579 3724 
L 1869 2670 
C 1395 1961 1069 1003 1069 166 
C 1069 89 1069 -128 1299 -128 
C 1530 -128 1530 89 1530 172 
L 1530 466 
C 1530 1514 1709 2204 2003 2644 
L 2886 3955 
z
" transform="scale(0.015625)"/>
       </defs>
       <use xlink:href="#CMR17-37" transform="scale(0.996264)"/>
      </g>
     </g>
    </g>
    <g id="text_34">
     <!-- Electron density [moles of $e^-$/cm$^3$] -->
     <g transform="translate(405.137802 259.672742)rotate(-90)scale(0.14 -0.14)">
      <defs>
       <path id="CMMI12-65" d="M 1146 1472 
C 1318 1472 1754 1484 2061 1600 
C 2547 1786 2592 2160 2592 2275 
C 2592 2559 2349 2816 1926 2816 
C 1254 2816 288 2205 288 1066 
C 288 400 672 -64 1254 -64 
C 2125 -64 2675 609 2675 691 
C 2675 729 2637 761 2611 761 
C 2592 761 2586 755 2528 698 
C 2118 159 1510 64 1267 64 
C 902 64 710 349 710 818 
C 710 907 710 1066 806 1472 
L 1146 1472 
z
M 838 1600 
C 1114 2591 1722 2687 1926 2687 
C 2208 2687 2400 2520 2400 2275 
C 2400 1600 1376 1600 1107 1600 
L 838 1600 
z
" transform="scale(0.015625)"/>
       <path id="CMSY10-0" d="M 4218 1472 
C 4326 1472 4442 1472 4442 1600 
C 4442 1728 4326 1728 4218 1728 
L 755 1728 
C 646 1728 531 1728 531 1600 
C 531 1472 646 1472 755 1472 
L 4218 1472 
z
" transform="scale(0.015625)"/>
      </defs>
      <use xlink:href="#CMR17-45" transform="scale(0.996264)"/>
      <use xlink:href="#CMR17-6c" transform="translate(62.586301 0)scale(0.996264)"/>
      <use xlink:href="#CMR17-65" transform="translate(87.457359 0)scale(0.996264)"/>
      <use xlink:href="#CMR17-63" transform="translate(127.943019 0)scale(0.996264)"/>
      <use xlink:href="#CMR17-74" transform="translate(168.42868 0)scale(0.996264)"/>
      <use xlink:href="#CMR17-72" transform="translate(203.709448 0)scale(0.996264)"/>
      <use xlink:href="#CMR17-6f" transform="translate(238.990216 0)scale(0.996264)"/>
      <use xlink:href="#CMR17-6e" transform="translate(284.680693 0)scale(0.996264)"/>
      <use xlink:href="#CMR17-64" transform="translate(365.652029 0)scale(0.996264)"/>
      <use xlink:href="#CMR17-65" transform="translate(416.547399 0)scale(0.996264)"/>
      <use xlink:href="#CMR17-6e" transform="translate(457.033059 0)scale(0.996264)"/>
      <use xlink:href="#CMR17-73" transform="translate(507.928429 0)scale(0.996264)"/>
      <use xlink:href="#CMR17-69" transform="translate(543.729766 0)scale(0.996264)"/>
      <use xlink:href="#CMR17-74" transform="translate(568.600825 0)scale(0.996264)"/>
      <use xlink:href="#CMR17-79" transform="translate(601.279139 0)scale(0.996264)"/>
      <use xlink:href="#CMR17-5b" transform="translate(679.648021 0)scale(0.996264)"/>
      <use xlink:href="#CMR17-6d" transform="translate(704.519079 0)scale(0.996264)"/>
      <use xlink:href="#CMR17-6f" transform="translate(781.438669 0)scale(0.996264)"/>
      <use xlink:href="#CMR17-6c" transform="translate(827.129146 0)scale(0.996264)"/>
      <use xlink:href="#CMR17-65" transform="translate(852.000205 0)scale(0.996264)"/>
      <use xlink:href="#CMR17-73" transform="translate(892.485865 0)scale(0.996264)"/>
      <use xlink:href="#CMR17-6f" transform="translate(958.363169 0)scale(0.996264)"/>
      <use xlink:href="#CMR17-66" transform="translate(1004.053646 0)scale(0.996264)"/>
      <use xlink:href="#CMMI12-65" transform="translate(1061.603125 0)scale(0.996264)"/>
      <use xlink:href="#CMSY10-0" transform="translate(1106.815126 36.153639)scale(0.697382)"/>
      <use xlink:href="#CMR17-2f" transform="translate(1161.554252 0)scale(0.996264)"/>
      <use xlink:href="#CMR17-63" transform="translate(1207.244729 0)scale(0.996264)"/>
      <use xlink:href="#CMR17-6d" transform="translate(1247.730389 0)scale(0.996264)"/>
      <use xlink:href="#CMR17-33" transform="translate(1324.649979 36.153639)scale(0.697382)"/>
      <use xlink:href="#CMR17-5d" transform="translate(1357.131293 0)scale(0.996264)"/>
     </g>
    </g>
   </g>
   <g id="line2d_27">
    <path d="M 43.003031 59.372292 
L 45.439499 59.372292 
L 49.901816 59.372292 
L 52.741435 59.372292 
L 59.232074 59.786793 
L 63.01825 59.855871 
L 68.156658 60.201278 
L 73.430273 60.615779 
L 78.501102 61.03028 
L 83.115522 61.496578 
L 87.882043 62.014705 
L 92.554409 62.569833 
L 97.725009 63.286974 
L 102.232395 63.931741 
L 105.072066 64.346242 
L 108.272291 74.386252 
L 112.895569 75.182354 
L 116.894266 75.774485 
L 121.356532 76.603471 
L 125.934742 77.491684 
L 130.628844 78.439106 
L 135.023532 79.33717 
L 139.806999 80.459767 
L 145.029931 81.755067 
L 149.897871 82.998555 
L 154.495397 84.242042 
L 159.315074 85.60395 
L 164.125069 87.025083 
L 169.398735 88.683071 
L 173.696795 90.114073 
L 179.389631 92.034562 
L 183.481041 93.479376 
L 188.23309 95.226179 
L 193.101082 97.091419 
L 198.374697 99.163892 
L 203.126745 101.117947 
L 208.110629 103.257043 
L 213.130723 105.433143 
L 217.711302 107.522882 
L 221.396111 109.837154 
L 222.308828 116.572718 
L 222.308828 121.132167 
L 222.308828 125.691616 
L 222.308828 130.25108 
L 222.308828 134.810529 
L 222.308828 139.369978 
L 222.308828 143.929443 
L 222.308828 148.488892 
L 222.308828 153.048341 
L 222.308828 157.607806 
L 222.308828 162.167255 
L 222.308828 166.726704 
L 222.308828 171.286169 
L 223.931474 178.332593 
L 228.698048 179.420642 
L 233.622338 180.1748 
L 239.346697 181.026818 
L 245.071107 181.878836 
L 250.299653 182.684791 
L 255.528199 183.490762 
L 260.801814 184.319748 
L 266.323335 185.171766 
L 271.394165 186.000768 
L 276.464942 186.829755 
L 281.738557 187.658741 
L 286.606549 188.487743 
L 291.387545 189.287125 
L 296.748105 190.145716 
L 301.616097 190.974718 
L 306.484038 191.803705 
L 311.091246 192.603086 
L 316.075079 193.491298 
L 320.682287 194.29068 
L 325.347391 195.119666 
L 330.012545 195.948668 
L 334.981904 197.140343 
L 338.966127 203.468803 
L 342.993771 204.653081 
L 347.60098 206.459095 
L 351.985984 210.133626 
L 357.192021 211.699505 
L 362.398007 212.873914 
L 366.319442 213.150243 
L 369.361898 213.668354 
L 370.173248 219.989417 
L 370.984545 226.414105 
L 371.187383 232.217041 
L 371.187383 236.776506 
L 371.187383 241.335955 
L 371.187383 247.657018 
" clip-path="url(#pc0533e06fb)" style="fill: none; stroke: #000000; stroke-width: 1.5; stroke-linecap: square"/>
   </g>
   <g id="patch_8">
    <path d="M 43.003031 266.796997 
L 43.003031 45.036997 
" style="fill: none; stroke: #000000; stroke-width: 0.8; stroke-linejoin: miter; stroke-linecap: square"/>
   </g>
   <g id="patch_9">
    <path d="M 377.803031 266.796997 
L 377.803031 45.036997 
" style="fill: none; stroke: #000000; stroke-width: 0.8; stroke-linejoin: miter; stroke-linecap: square"/>
   </g>
   <g id="patch_10">
    <path d="M 43.003031 266.796997 
L 377.803031 266.796997 
" style="fill: none; stroke: #000000; stroke-width: 0.8; stroke-linejoin: miter; stroke-linecap: square"/>
   </g>
   <g id="patch_11">
    <path d="M 43.003031 45.036997 
L 377.803031 45.036997 
" style="fill: none; stroke: #000000; stroke-width: 0.8; stroke-linejoin: miter; stroke-linecap: square"/>
   </g>
  </g>
  <g id="text_35">
   <!-- PREM = Preliminary Reference Earth Model -->
   <g transform="translate(87.628412 39.276997)scale(0.12 -0.12)">
    <defs>
     <path id="CMR17-3d" d="M 4115 2048 
C 4211 2048 4307 2048 4307 2156 
C 4307 2272 4198 2272 4090 2272 
L 512 2272 
C 403 2272 294 2272 294 2156 
C 294 2048 390 2048 486 2048 
L 4115 2048 
z
M 4090 927 
C 4198 927 4307 927 4307 1043 
C 4307 1152 4211 1152 4115 1152 
L 486 1152 
C 390 1152 294 1152 294 1043 
C 294 927 403 927 512 927 
L 4090 927 
z
" transform="scale(0.015625)"/>
    </defs>
    <use xlink:href="#CMR17-50" transform="scale(0.996264)"/>
    <use xlink:href="#CMR17-52" transform="translate(62.586301 0)scale(0.996264)"/>
    <use xlink:href="#CMR17-45" transform="translate(130.377402 0)scale(0.996264)"/>
    <use xlink:href="#CMR17-4d" transform="translate(192.963703 0)scale(0.996264)"/>
    <use xlink:href="#CMR17-3d" transform="translate(307.72661 0)scale(0.996264)"/>
    <use xlink:href="#CMR17-50" transform="translate(409.517365 0)scale(0.996264)"/>
    <use xlink:href="#CMR17-72" transform="translate(472.103665 0)scale(0.996264)"/>
    <use xlink:href="#CMR17-65" transform="translate(507.384433 0)scale(0.996264)"/>
    <use xlink:href="#CMR17-6c" transform="translate(547.870093 0)scale(0.996264)"/>
    <use xlink:href="#CMR17-69" transform="translate(572.741152 0)scale(0.996264)"/>
    <use xlink:href="#CMR17-6d" transform="translate(597.61221 0)scale(0.996264)"/>
    <use xlink:href="#CMR17-69" transform="translate(674.5318 0)scale(0.996264)"/>
    <use xlink:href="#CMR17-6e" transform="translate(699.402859 0)scale(0.996264)"/>
    <use xlink:href="#CMR17-61" transform="translate(750.298229 0)scale(0.996264)"/>
    <use xlink:href="#CMR17-72" transform="translate(795.988706 0)scale(0.996264)"/>
    <use xlink:href="#CMR17-79" transform="translate(831.269473 0)scale(0.996264)"/>
    <use xlink:href="#CMR17-52" transform="translate(909.638356 0)scale(0.996264)"/>
    <use xlink:href="#CMR17-65" transform="translate(977.429458 0)scale(0.996264)"/>
    <use xlink:href="#CMR17-66" transform="translate(1017.915118 0)scale(0.996264)"/>
    <use xlink:href="#CMR17-65" transform="translate(1045.388631 0)scale(0.996264)"/>
    <use xlink:href="#CMR17-72" transform="translate(1085.874291 0)scale(0.996264)"/>
    <use xlink:href="#CMR17-65" transform="translate(1121.155059 0)scale(0.996264)"/>
    <use xlink:href="#CMR17-6e" transform="translate(1161.640719 0)scale(0.996264)"/>
    <use xlink:href="#CMR17-63" transform="translate(1212.536089 0)scale(0.996264)"/>
    <use xlink:href="#CMR17-65" transform="translate(1253.021749 0)scale(0.996264)"/>
    <use xlink:href="#CMR17-45" transform="translate(1323.583376 0)scale(0.996264)"/>
    <use xlink:href="#CMR17-61" transform="translate(1386.169677 0)scale(0.996264)"/>
    <use xlink:href="#CMR17-72" transform="translate(1431.860154 0)scale(0.996264)"/>
    <use xlink:href="#CMR17-74" transform="translate(1467.140922 0)scale(0.996264)"/>
    <use xlink:href="#CMR17-68" transform="translate(1502.42169 0)scale(0.996264)"/>
    <use xlink:href="#CMR17-4d" transform="translate(1583.393026 0)scale(0.996264)"/>
    <use xlink:href="#CMR17-6f" transform="translate(1668.079966 0)scale(0.996264)"/>
    <use xlink:href="#CMR17-64" transform="translate(1716.372882 0)scale(0.996264)"/>
    <use xlink:href="#CMR17-65" transform="translate(1767.268252 0)scale(0.996264)"/>
    <use xlink:href="#CMR17-6c" transform="translate(1807.753912 0)scale(0.996264)"/>
   </g>
  </g>
 </g>
 <defs>
  <clipPath id="pc0533e06fb">
   <rect x="43.003031" y="45.036997" width="334.8" height="221.76"/>
  </clipPath>
 </defs>
</svg>
