<?xml version="1.0" encoding="utf-8" standalone="no"?>
<!DOCTYPE svg PUBLIC "-//W3C//DTD SVG 1.1//EN"
  "http://www.w3.org/Graphics/SVG/1.1/DTD/svg11.dtd">
<svg xmlns:xlink="http://www.w3.org/1999/xlink" width="457.504281pt" height="292.416673pt" viewBox="0 0 457.504281 292.416673" xmlns="http://www.w3.org/2000/svg" version="1.1">
 <metadata>
  <rdf:RDF xmlns:dc="http://purl.org/dc/elements/1.1/" xmlns:cc="http://creativecommons.org/ns#" xmlns:rdf="http://www.w3.org/1999/02/22-rdf-syntax-ns#">
   <cc:Work>
    <dc:type rdf:resource="http://purl.org/dc/dcmitype/StillImage"/>
    <dc:date>2022-12-12T19:28:41.549837</dc:date>
    <dc:format>image/svg+xml</dc:format>
    <dc:creator>
     <cc:Agent>
      <dc:title>Matplotlib v3.5.1, https://matplotlib.org/</dc:title>
     </cc:Agent>
    </dc:creator>
   </cc:Work>
  </rdf:RDF>
 </metadata>
 <defs>
  <style type="text/css">*{stroke-linejoin: round; stroke-linecap: butt}</style>
 </defs>
 <g id="figure_1">
  <g id="patch_1">
   <path d="M 0 292.416673 
L 457.504281 292.416673 
L 457.504281 0 
L 0 0 
z
" style="fill: #ffffff"/>
  </g>
  <g id="axes_1">
   <g id="patch_2">
    <path d="M 43.003031 251.4133 
L 377.803031 251.4133 
L 377.803031 29.6533 
L 43.003031 29.6533 
z
" style="fill: #ffffff"/>
   </g>
   <g id="PolyCollection_1">
    <defs>
     <path id="ma6795b2ec0" d="M 43.003031 -262.763373 
L 43.003031 -240.587373 
L 377.803031 -240.587373 
L 377.803031 -262.763373 
L 377.803031 -262.763373 
L 43.003031 -262.763373 
z
" style="stroke: #fac228; stroke-opacity: 0.5"/>
    </defs>
    <g clip-path="url(#pe0c6f56447)">
     <use xlink:href="#ma6795b2ec0" x="0" y="292.416673" style="fill: #fac228; fill-opacity: 0.5; stroke: #fac228; stroke-opacity: 0.5"/>
    </g>
   </g>
   <g id="PolyCollection_2">
    <defs>
     <path id="mf728566534" d="M 43.003031 -240.587373 
L 43.003031 -191.117834 
L 377.803031 -191.117834 
L 377.803031 -240.587373 
L 377.803031 -240.587373 
L 43.003031 -240.587373 
z
" style="stroke: #f57d15; stroke-opacity: 0.5"/>
    </defs>
    <g clip-path="url(#pe0c6f56447)">
     <use xlink:href="#mf728566534" x="0" y="292.416673" style="fill: #f57d15; fill-opacity: 0.5; stroke: #f57d15; stroke-opacity: 0.5"/>
    </g>
   </g>
   <g id="PolyCollection_3">
    <defs>
     <path id="m02b6245b87" d="M 43.003031 -191.117834 
L 43.003031 -88.767065 
L 377.803031 -88.767065 
L 377.803031 -191.117834 
L 377.803031 -191.117834 
L 43.003031 -191.117834 
z
" style="stroke: #d44842; stroke-opacity: 0.5"/>
    </defs>
    <g clip-path="url(#pe0c6f56447)">
     <use xlink:href="#m02b6245b87" x="0" y="292.416673" style="fill: #d44842; fill-opacity: 0.5; stroke: #d44842; stroke-opacity: 0.5"/>
    </g>
   </g>
   <g id="PolyCollection_4">
    <defs>
     <path id="mcef5382181" d="M 43.003031 -99.002142 
L 43.003031 -41.003373 
L 377.803031 -41.003373 
L 377.803031 -99.002142 
L 377.803031 -99.002142 
L 43.003031 -99.002142 
z
" style="stroke: #65156e; stroke-opacity: 0.5"/>
    </defs>
    <g clip-path="url(#pe0c6f56447)">
     <use xlink:href="#mcef5382181" x="0" y="292.416673" style="fill: #65156e; fill-opacity: 0.5; stroke: #65156e; stroke-opacity: 0.5"/>
    </g>
   </g>
   <g id="matplotlib.axis_1">
    <g id="xtick_1">
     <g id="line2d_1">
      <defs>
       <path id="m67cf931082" d="M 0 0 
L 0 3.5 
" style="stroke: #000000; stroke-width: 0.8"/>
      </defs>
      <g>
       <use xlink:href="#m67cf931082" x="43.003031" y="251.4133" style="stroke: #000000; stroke-width: 0.8"/>
      </g>
     </g>
     <g id="text_1">
      <!-- $\mathdefault{0}$ -->
      <g transform="translate(40.512363 265.331799)scale(0.1 -0.1)">
       <defs>
        <path id="CMR17-30" d="M 2688 2038 
C 2688 2430 2682 3099 2413 3613 
C 2176 4063 1798 4224 1466 4224 
C 1158 4224 768 4082 525 3620 
C 269 3137 243 2539 243 2038 
C 243 1671 250 1112 448 623 
C 723 -39 1216 -128 1466 -128 
C 1760 -128 2208 -7 2470 604 
C 2662 1048 2688 1568 2688 2038 
z
M 1466 -26 
C 1056 -26 813 328 723 816 
C 653 1196 653 1749 653 2109 
C 653 2604 653 3015 736 3407 
C 858 3954 1216 4121 1466 4121 
C 1728 4121 2067 3947 2189 3420 
C 2272 3054 2278 2623 2278 2109 
C 2278 1691 2278 1176 2202 797 
C 2067 96 1690 -26 1466 -26 
z
" transform="scale(0.015625)"/>
       </defs>
       <use xlink:href="#CMR17-30" transform="scale(0.996264)"/>
      </g>
     </g>
    </g>
    <g id="xtick_2">
     <g id="line2d_2">
      <g>
       <use xlink:href="#m67cf931082" x="93.730303" y="251.4133" style="stroke: #000000; stroke-width: 0.8"/>
      </g>
     </g>
     <g id="text_2">
      <!-- $\mathdefault{2000}$ -->
      <g transform="translate(83.767633 265.331799)scale(0.1 -0.1)">
       <defs>
        <path id="CMR17-32" d="M 2669 990 
L 2554 990 
C 2490 537 2438 460 2413 422 
C 2381 371 1920 371 1830 371 
L 602 371 
C 832 620 1280 1073 1824 1596 
C 2214 1966 2669 2400 2669 3033 
C 2669 3788 2067 4224 1395 4224 
C 691 4224 262 3603 262 3027 
C 262 2777 448 2745 525 2745 
C 589 2745 781 2783 781 3007 
C 781 3206 614 3264 525 3264 
C 486 3264 448 3257 422 3244 
C 544 3788 915 4057 1306 4057 
C 1862 4057 2227 3616 2227 3033 
C 2227 2477 1901 1998 1536 1583 
L 262 147 
L 262 0 
L 2515 0 
L 2669 990 
z
" transform="scale(0.015625)"/>
       </defs>
       <use xlink:href="#CMR17-32" transform="scale(0.996264)"/>
       <use xlink:href="#CMR17-30" transform="translate(45.690477 0)scale(0.996264)"/>
       <use xlink:href="#CMR17-30" transform="translate(91.380954 0)scale(0.996264)"/>
       <use xlink:href="#CMR17-30" transform="translate(137.071431 0)scale(0.996264)"/>
      </g>
     </g>
    </g>
    <g id="xtick_3">
     <g id="line2d_3">
      <g>
       <use xlink:href="#m67cf931082" x="144.457576" y="251.4133" style="stroke: #000000; stroke-width: 0.8"/>
      </g>
     </g>
     <g id="text_3">
      <!-- $\mathdefault{4000}$ -->
      <g transform="translate(134.494905 265.331799)scale(0.1 -0.1)">
       <defs>
        <path id="CMR17-34" d="M 2150 4147 
C 2150 4281 2144 4288 2029 4288 
L 128 1254 
L 128 1088 
L 1779 1088 
L 1779 460 
C 1779 230 1766 166 1318 166 
L 1197 166 
L 1197 0 
C 1402 12 1747 12 1965 12 
C 2182 12 2528 12 2733 0 
L 2733 166 
L 2611 166 
C 2163 166 2150 230 2150 460 
L 2150 1088 
L 2803 1088 
L 2803 1254 
L 2150 1254 
L 2150 4147 
z
M 1798 3723 
L 1798 1254 
L 256 1254 
L 1798 3723 
z
" transform="scale(0.015625)"/>
       </defs>
       <use xlink:href="#CMR17-34" transform="scale(0.996264)"/>
       <use xlink:href="#CMR17-30" transform="translate(45.690477 0)scale(0.996264)"/>
       <use xlink:href="#CMR17-30" transform="translate(91.380954 0)scale(0.996264)"/>
       <use xlink:href="#CMR17-30" transform="translate(137.071431 0)scale(0.996264)"/>
      </g>
     </g>
    </g>
    <g id="xtick_4">
     <g id="line2d_4">
      <g>
       <use xlink:href="#m67cf931082" x="195.184849" y="251.4133" style="stroke: #000000; stroke-width: 0.8"/>
      </g>
     </g>
     <g id="text_4">
      <!-- $\mathdefault{6000}$ -->
      <g transform="translate(185.222178 265.331799)scale(0.1 -0.1)">
       <defs>
        <path id="CMR17-36" d="M 678 2198 
C 678 3712 1395 4076 1811 4076 
C 1946 4076 2272 4049 2400 3782 
C 2298 3782 2106 3782 2106 3558 
C 2106 3385 2246 3328 2336 3328 
C 2394 3328 2566 3353 2566 3571 
C 2566 3987 2246 4224 1805 4224 
C 1043 4224 243 3411 243 2011 
C 243 257 966 -128 1478 -128 
C 2099 -128 2688 431 2688 1295 
C 2688 2101 2170 2688 1517 2688 
C 1126 2688 838 2430 678 1979 
L 678 2198 
z
M 1478 25 
C 691 25 691 1212 691 1450 
C 691 1914 909 2585 1504 2585 
C 1613 2585 1926 2585 2138 2140 
C 2253 1889 2253 1624 2253 1302 
C 2253 954 2253 696 2118 438 
C 1978 173 1773 25 1478 25 
z
" transform="scale(0.015625)"/>
       </defs>
       <use xlink:href="#CMR17-36" transform="scale(0.996264)"/>
       <use xlink:href="#CMR17-30" transform="translate(45.690477 0)scale(0.996264)"/>
       <use xlink:href="#CMR17-30" transform="translate(91.380954 0)scale(0.996264)"/>
       <use xlink:href="#CMR17-30" transform="translate(137.071431 0)scale(0.996264)"/>
      </g>
     </g>
    </g>
    <g id="xtick_5">
     <g id="line2d_5">
      <g>
       <use xlink:href="#m67cf931082" x="245.912121" y="251.4133" style="stroke: #000000; stroke-width: 0.8"/>
      </g>
     </g>
     <g id="text_5">
      <!-- $\mathdefault{8000}$ -->
      <g transform="translate(235.949451 265.331799)scale(0.1 -0.1)">
       <defs>
        <path id="CMR17-38" d="M 1741 2289 
C 2144 2494 2554 2803 2554 3298 
C 2554 3884 1990 4224 1472 4224 
C 890 4224 378 3800 378 3215 
C 378 3054 416 2777 666 2533 
C 730 2469 998 2276 1171 2154 
C 883 2006 211 1652 211 945 
C 211 282 838 -128 1459 -128 
C 2144 -128 2720 366 2720 1022 
C 2720 1607 2330 1877 2074 2051 
L 1741 2289 
z
M 902 2855 
C 851 2887 595 3086 595 3388 
C 595 3781 998 4076 1459 4076 
C 1965 4076 2336 3716 2336 3298 
C 2336 2700 1670 2359 1638 2359 
C 1632 2359 1626 2359 1574 2398 
L 902 2855 
z
M 2080 1536 
C 2176 1466 2483 1253 2483 861 
C 2483 385 2010 25 1472 25 
C 890 25 448 443 448 951 
C 448 1459 838 1884 1280 2083 
L 2080 1536 
z
" transform="scale(0.015625)"/>
       </defs>
       <use xlink:href="#CMR17-38" transform="scale(0.996264)"/>
       <use xlink:href="#CMR17-30" transform="translate(45.690477 0)scale(0.996264)"/>
       <use xlink:href="#CMR17-30" transform="translate(91.380954 0)scale(0.996264)"/>
       <use xlink:href="#CMR17-30" transform="translate(137.071431 0)scale(0.996264)"/>
      </g>
     </g>
    </g>
    <g id="xtick_6">
     <g id="line2d_6">
      <g>
       <use xlink:href="#m67cf931082" x="296.639394" y="251.4133" style="stroke: #000000; stroke-width: 0.8"/>
      </g>
     </g>
     <g id="text_6">
      <!-- $\mathdefault{10000}$ -->
      <g transform="translate(284.186056 265.331799)scale(0.1 -0.1)">
       <defs>
        <path id="CMR17-31" d="M 1702 4083 
C 1702 4217 1696 4224 1606 4224 
C 1357 3927 979 3833 621 3820 
C 602 3820 570 3820 563 3808 
C 557 3795 557 3782 557 3648 
C 755 3648 1088 3686 1344 3839 
L 1344 467 
C 1344 243 1331 166 781 166 
L 589 166 
L 589 0 
C 896 6 1216 12 1523 12 
C 1830 12 2150 6 2458 0 
L 2458 166 
L 2266 166 
C 1715 166 1702 236 1702 467 
L 1702 4083 
z
" transform="scale(0.015625)"/>
       </defs>
       <use xlink:href="#CMR17-31" transform="scale(0.996264)"/>
       <use xlink:href="#CMR17-30" transform="translate(45.690477 0)scale(0.996264)"/>
       <use xlink:href="#CMR17-30" transform="translate(91.380954 0)scale(0.996264)"/>
       <use xlink:href="#CMR17-30" transform="translate(137.071431 0)scale(0.996264)"/>
       <use xlink:href="#CMR17-30" transform="translate(182.761908 0)scale(0.996264)"/>
      </g>
     </g>
    </g>
    <g id="xtick_7">
     <g id="line2d_7">
      <g>
       <use xlink:href="#m67cf931082" x="347.366667" y="251.4133" style="stroke: #000000; stroke-width: 0.8"/>
      </g>
     </g>
     <g id="text_7">
      <!-- $\mathdefault{12000}$ -->
      <g transform="translate(334.913329 265.331799)scale(0.1 -0.1)">
       <use xlink:href="#CMR17-31" transform="scale(0.996264)"/>
       <use xlink:href="#CMR17-32" transform="translate(45.690477 0)scale(0.996264)"/>
       <use xlink:href="#CMR17-30" transform="translate(91.380954 0)scale(0.996264)"/>
       <use xlink:href="#CMR17-30" transform="translate(137.071431 0)scale(0.996264)"/>
       <use xlink:href="#CMR17-30" transform="translate(182.761908 0)scale(0.996264)"/>
      </g>
     </g>
    </g>
    <g id="text_8">
     <!-- Neutrino path [km] -->
     <g transform="translate(152.742655 281.729749)scale(0.14 -0.14)">
      <defs>
       <path id="CMR17-4e" d="M 1312 4275 
C 1267 4345 1261 4352 1139 4352 
L 326 4352 
L 326 4185 
L 448 4185 
C 704 4185 819 4153 838 4147 
L 838 624 
C 838 465 838 166 326 166 
L 326 0 
C 474 12 742 12 902 12 
C 1062 12 1331 12 1478 0 
L 1478 166 
C 966 166 966 465 966 624 
L 966 4057 
C 1011 4019 1011 4007 1056 3943 
L 3430 76 
C 3475 0 3494 0 3526 0 
C 3590 0 3590 19 3590 140 
L 3590 3726 
C 3590 3885 3590 4185 4102 4185 
L 4102 4352 
C 3955 4339 3686 4339 3526 4339 
C 3366 4339 3098 4339 2950 4352 
L 2950 4185 
C 3462 4185 3462 3885 3462 3726 
L 3462 777 
L 1312 4275 
z
" transform="scale(0.015625)"/>
       <path id="CMR17-65" d="M 2438 1503 
C 2464 1529 2464 1542 2464 1606 
C 2464 2251 2118 2816 1389 2816 
C 710 2816 173 2175 173 1394 
C 173 554 781 -64 1459 -64 
C 2176 -64 2458 619 2458 755 
C 2458 800 2419 800 2406 800 
C 2362 800 2355 787 2330 709 
C 2189 270 1837 51 1504 51 
C 1229 51 954 206 781 490 
C 582 819 582 1200 582 1503 
L 2438 1503 
z
M 589 1600 
C 634 2511 1126 2713 1382 2713 
C 1818 2713 2112 2308 2118 1600 
L 589 1600 
z
" transform="scale(0.015625)"/>
       <path id="CMR17-75" d="M 1882 2745 
L 1882 2579 
C 2259 2579 2317 2540 2317 2229 
L 2317 1053 
C 2317 510 2029 38 1555 38 
C 1030 38 986 355 986 691 
L 986 2816 
L 211 2745 
L 211 2579 
C 467 2579 640 2579 646 2320 
L 646 1079 
C 646 646 646 368 813 187 
C 896 103 1056 -64 1517 -64 
C 2061 -64 2272 400 2323 536 
L 2330 536 
L 2330 -64 
L 3091 -13 
L 3091 154 
C 2714 154 2656 193 2656 503 
L 2656 2816 
L 1882 2745 
z
" transform="scale(0.015625)"/>
       <path id="CMR17-74" d="M 966 2585 
L 1862 2585 
L 1862 2752 
L 966 2752 
L 966 3968 
L 851 3968 
C 838 3292 614 2700 70 2687 
L 70 2585 
L 627 2585 
L 627 778 
C 627 655 627 -64 1370 -64 
C 1747 -64 1965 308 1965 784 
L 1965 1151 
L 1850 1151 
L 1850 790 
C 1850 347 1677 51 1408 51 
C 1222 51 966 179 966 765 
L 966 2585 
z
" transform="scale(0.015625)"/>
       <path id="CMR17-72" d="M 960 1517 
C 960 2134 1222 2713 1702 2713 
C 1747 2713 1792 2707 1837 2687 
C 1837 2687 1696 2642 1696 2475 
C 1696 2321 1818 2257 1914 2257 
C 1990 2257 2131 2302 2131 2482 
C 2131 2687 1926 2816 1709 2816 
C 1222 2816 1011 2340 947 2115 
L 941 2115 
L 941 2816 
L 198 2745 
L 198 2578 
C 576 2578 634 2540 634 2231 
L 634 443 
C 634 198 608 166 198 166 
L 198 0 
C 352 12 646 12 813 12 
C 998 12 1325 12 1498 0 
L 1498 166 
C 1037 166 960 166 960 455 
L 960 1517 
z
" transform="scale(0.015625)"/>
       <path id="CMR17-69" d="M 992 3961 
C 992 4102 877 4224 730 4224 
C 589 4224 467 4108 467 3961 
C 467 3820 582 3699 730 3699 
C 870 3699 992 3814 992 3961 
z
M 243 2745 
L 243 2579 
C 602 2579 653 2540 653 2231 
L 653 443 
C 653 198 627 166 218 166 
L 218 0 
C 371 12 646 12 806 12 
C 960 12 1222 12 1370 0 
L 1370 166 
C 992 166 979 205 979 436 
L 979 2816 
L 243 2745 
z
" transform="scale(0.015625)"/>
       <path id="CMR17-6e" d="M 2656 1954 
C 2656 2282 2592 2816 1837 2816 
C 1331 2816 1069 2424 973 2166 
L 966 2166 
L 966 2816 
L 211 2745 
L 211 2578 
C 589 2578 646 2540 646 2231 
L 646 443 
C 646 198 621 166 211 166 
L 211 0 
C 365 12 646 12 813 12 
C 979 12 1267 12 1421 0 
L 1421 166 
C 1011 166 986 192 986 443 
L 986 1678 
C 986 2269 1344 2713 1792 2713 
C 2266 2713 2317 2289 2317 1980 
L 2317 443 
C 2317 198 2291 166 1882 166 
L 1882 0 
C 2035 12 2317 12 2483 12 
C 2650 12 2938 12 3091 0 
L 3091 166 
C 2682 166 2656 192 2656 443 
L 2656 1954 
z
" transform="scale(0.015625)"/>
       <path id="CMR17-6f" d="M 2758 1356 
C 2758 2176 2163 2816 1466 2816 
C 768 2816 173 2176 173 1356 
C 173 550 768 -64 1466 -64 
C 2163 -64 2758 550 2758 1356 
z
M 1466 51 
C 1165 51 909 230 762 480 
C 602 768 582 1126 582 1408 
C 582 1676 595 2009 762 2297 
C 890 2508 1139 2713 1466 2713 
C 1754 2713 1997 2553 2150 2329 
C 2349 2028 2349 1606 2349 1408 
C 2349 1158 2336 774 2163 467 
C 1984 172 1709 51 1466 51 
z
" transform="scale(0.015625)"/>
       <path id="CMR17-70" d="M 1408 -1114 
C 998 -1114 973 -1088 973 -834 
L 973 380 
C 1158 109 1427 -64 1766 -64 
C 2406 -64 3053 503 3053 1382 
C 3053 2196 2496 2816 1837 2816 
C 1453 2816 1139 2603 960 2345 
L 960 2816 
L 198 2745 
L 198 2577 
C 576 2577 634 2539 634 2228 
L 634 -834 
C 634 -1081 608 -1114 198 -1114 
L 198 -1280 
C 352 -1268 634 -1268 800 -1268 
C 966 -1268 1254 -1268 1408 -1280 
L 1408 -1114 
z
M 973 2015 
C 973 2106 973 2241 1222 2481 
C 1254 2506 1472 2700 1792 2700 
C 2259 2700 2643 2112 2643 1376 
C 2643 639 2234 38 1728 38 
C 1498 38 1248 148 1056 451 
C 973 594 973 632 973 736 
L 973 2015 
z
" transform="scale(0.015625)"/>
       <path id="CMR17-61" d="M 2304 1656 
C 2304 2048 2304 2275 2035 2534 
C 1798 2751 1523 2816 1306 2816 
C 800 2816 435 2408 435 1977 
C 435 1740 627 1728 666 1728 
C 749 1728 896 1779 896 1958 
C 896 2118 774 2188 666 2188 
C 640 2188 608 2182 589 2176 
C 723 2594 1069 2713 1293 2713 
C 1613 2713 1965 2421 1965 1875 
L 1965 1632 
C 1587 1619 1133 1568 774 1373 
C 371 1147 256 822 256 576 
C 256 77 832 -64 1171 -64 
C 1523 -64 1850 135 1990 505 
C 2003 219 2182 -39 2464 -39 
C 2598 -39 2938 51 2938 563 
L 2938 926 
L 2822 926 
L 2822 557 
C 2822 161 2650 109 2566 109 
C 2304 109 2304 446 2304 732 
L 2304 1656 
z
M 1965 887 
C 1965 323 1568 38 1216 38 
C 896 38 646 278 646 576 
C 646 771 730 1114 1101 1322 
C 1408 1497 1760 1523 1965 1536 
L 1965 887 
z
" transform="scale(0.015625)"/>
       <path id="CMR17-68" d="M 2656 1954 
C 2656 2282 2592 2816 1837 2816 
C 1312 2816 1056 2392 979 2179 
L 973 2179 
L 973 4416 
L 211 4345 
L 211 4179 
C 589 4179 646 4141 646 3843 
L 646 443 
C 646 198 621 166 211 166 
L 211 0 
C 365 12 646 12 813 12 
C 979 12 1267 12 1421 0 
L 1421 166 
C 1011 166 986 192 986 443 
L 986 1678 
C 986 2269 1344 2713 1792 2713 
C 2266 2713 2317 2289 2317 1980 
L 2317 443 
C 2317 198 2291 166 1882 166 
L 1882 0 
C 2035 12 2317 12 2483 12 
C 2650 12 2938 12 3091 0 
L 3091 166 
C 2682 166 2656 192 2656 443 
L 2656 1954 
z
" transform="scale(0.015625)"/>
       <path id="CMR17-5b" d="M 1504 -1600 
L 1504 -1376 
L 902 -1376 
L 902 4575 
L 1504 4575 
L 1504 4800 
L 678 4800 
L 678 -1600 
L 1504 -1600 
z
" transform="scale(0.015625)"/>
       <path id="CMR17-6b" d="M 1670 1679 
C 1664 1692 1632 1730 1632 1749 
C 1632 1762 2086 2175 2144 2226 
C 2509 2532 2739 2563 2906 2570 
L 2906 2735 
C 2867 2735 2854 2735 2848 2729 
L 2534 2722 
C 2355 2722 2080 2722 1907 2735 
L 1907 2570 
C 1997 2563 2061 2513 2061 2423 
C 2061 2296 1933 2175 1926 2175 
L 960 1298 
L 960 4416 
L 198 4345 
L 198 4179 
C 576 4179 634 4141 634 3835 
L 634 439 
C 634 198 608 166 198 166 
L 198 0 
C 352 12 634 12 794 12 
C 954 12 1235 12 1389 0 
L 1389 166 
C 979 166 954 191 954 439 
L 954 1139 
L 1395 1540 
L 2042 586 
C 2118 471 2182 382 2182 299 
C 2182 185 2067 166 1990 166 
L 1990 0 
C 2144 12 2419 12 2579 12 
C 2694 12 2931 6 3040 0 
L 3040 166 
C 2739 166 2669 223 2477 503 
L 1670 1679 
z
" transform="scale(0.015625)"/>
       <path id="CMR17-6d" d="M 4326 1954 
C 4326 2276 4269 2816 3507 2816 
C 3072 2816 2771 2520 2656 2173 
L 2650 2173 
C 2573 2700 2195 2816 1837 2816 
C 1331 2816 1069 2424 973 2166 
L 966 2166 
L 966 2816 
L 211 2745 
L 211 2578 
C 589 2578 646 2540 646 2231 
L 646 443 
C 646 198 621 166 211 166 
L 211 0 
C 365 12 646 12 813 12 
C 979 12 1267 12 1421 0 
L 1421 166 
C 1011 166 986 192 986 443 
L 986 1678 
C 986 2269 1344 2713 1792 2713 
C 2266 2713 2317 2289 2317 1980 
L 2317 443 
C 2317 198 2291 166 1882 166 
L 1882 0 
C 2035 12 2317 12 2483 12 
C 2650 12 2938 12 3091 0 
L 3091 166 
C 2682 166 2656 192 2656 443 
L 2656 1678 
C 2656 2269 3014 2713 3462 2713 
C 3936 2713 3987 2289 3987 1980 
L 3987 443 
C 3987 198 3962 166 3552 166 
L 3552 0 
C 3706 12 3987 12 4154 12 
C 4320 12 4608 12 4762 0 
L 4762 166 
C 4352 166 4326 192 4326 443 
L 4326 1954 
z
" transform="scale(0.015625)"/>
       <path id="CMR17-5d" d="M 915 4800 
L 90 4800 
L 90 4575 
L 691 4575 
L 691 -1376 
L 90 -1376 
L 90 -1600 
L 915 -1600 
L 915 4800 
z
" transform="scale(0.015625)"/>
      </defs>
      <use xlink:href="#CMR17-4e" transform="scale(0.996264)"/>
      <use xlink:href="#CMR17-65" transform="translate(69.07243 0)scale(0.996264)"/>
      <use xlink:href="#CMR17-75" transform="translate(109.55809 0)scale(0.996264)"/>
      <use xlink:href="#CMR17-74" transform="translate(160.45346 0)scale(0.996264)"/>
      <use xlink:href="#CMR17-72" transform="translate(195.734228 0)scale(0.996264)"/>
      <use xlink:href="#CMR17-69" transform="translate(231.014996 0)scale(0.996264)"/>
      <use xlink:href="#CMR17-6e" transform="translate(255.886054 0)scale(0.996264)"/>
      <use xlink:href="#CMR17-6f" transform="translate(306.781424 0)scale(0.996264)"/>
      <use xlink:href="#CMR17-70" transform="translate(382.547867 0)scale(0.996264)"/>
      <use xlink:href="#CMR17-61" transform="translate(433.443237 0)scale(0.996264)"/>
      <use xlink:href="#CMR17-74" transform="translate(479.133714 0)scale(0.996264)"/>
      <use xlink:href="#CMR17-68" transform="translate(514.414482 0)scale(0.996264)"/>
      <use xlink:href="#CMR17-5b" transform="translate(595.385818 0)scale(0.996264)"/>
      <use xlink:href="#CMR17-6b" transform="translate(620.256877 0)scale(0.996264)"/>
      <use xlink:href="#CMR17-6d" transform="translate(668.549793 0)scale(0.996264)"/>
      <use xlink:href="#CMR17-5d" transform="translate(745.469382 0)scale(0.996264)"/>
     </g>
    </g>
   </g>
   <g id="matplotlib.axis_2">
    <g id="ytick_1">
     <g id="line2d_8">
      <defs>
       <path id="m16462372fa" d="M 0 0 
L -3.5 0 
" style="stroke: #000000; stroke-width: 0.8"/>
      </defs>
      <g>
       <use xlink:href="#m16462372fa" x="43.003031" y="234.354839" style="stroke: #000000; stroke-width: 0.8"/>
      </g>
     </g>
     <g id="text_9">
      <!-- $\mathdefault{2}$ -->
      <g transform="translate(31.021695 237.814088)scale(0.1 -0.1)">
       <use xlink:href="#CMR17-32" transform="scale(0.996264)"/>
      </g>
     </g>
    </g>
    <g id="ytick_2">
     <g id="line2d_9">
      <g>
       <use xlink:href="#m16462372fa" x="43.003031" y="200.237916" style="stroke: #000000; stroke-width: 0.8"/>
      </g>
     </g>
     <g id="text_10">
      <!-- $\mathdefault{4}$ -->
      <g transform="translate(31.021695 203.697165)scale(0.1 -0.1)">
       <use xlink:href="#CMR17-34" transform="scale(0.996264)"/>
      </g>
     </g>
    </g>
    <g id="ytick_3">
     <g id="line2d_10">
      <g>
       <use xlink:href="#m16462372fa" x="43.003031" y="166.120992" style="stroke: #000000; stroke-width: 0.8"/>
      </g>
     </g>
     <g id="text_11">
      <!-- $\mathdefault{6}$ -->
      <g transform="translate(31.021695 169.580242)scale(0.1 -0.1)">
       <use xlink:href="#CMR17-36" transform="scale(0.996264)"/>
      </g>
     </g>
    </g>
    <g id="ytick_4">
     <g id="line2d_11">
      <g>
       <use xlink:href="#m16462372fa" x="43.003031" y="132.004069" style="stroke: #000000; stroke-width: 0.8"/>
      </g>
     </g>
     <g id="text_12">
      <!-- $\mathdefault{8}$ -->
      <g transform="translate(31.021695 135.463319)scale(0.1 -0.1)">
       <use xlink:href="#CMR17-38" transform="scale(0.996264)"/>
      </g>
     </g>
    </g>
    <g id="ytick_5">
     <g id="line2d_12">
      <g>
       <use xlink:href="#m16462372fa" x="43.003031" y="97.887146" style="stroke: #000000; stroke-width: 0.8"/>
      </g>
     </g>
     <g id="text_13">
      <!-- $\mathdefault{10}$ -->
      <g transform="translate(26.04036 101.346395)scale(0.1 -0.1)">
       <use xlink:href="#CMR17-31" transform="scale(0.996264)"/>
       <use xlink:href="#CMR17-30" transform="translate(45.690477 0)scale(0.996264)"/>
      </g>
     </g>
    </g>
    <g id="ytick_6">
     <g id="line2d_13">
      <g>
       <use xlink:href="#m16462372fa" x="43.003031" y="63.770223" style="stroke: #000000; stroke-width: 0.8"/>
      </g>
     </g>
     <g id="text_14">
      <!-- $\mathdefault{12}$ -->
      <g transform="translate(26.04036 67.229472)scale(0.1 -0.1)">
       <use xlink:href="#CMR17-31" transform="scale(0.996264)"/>
       <use xlink:href="#CMR17-32" transform="translate(45.690477 0)scale(0.996264)"/>
      </g>
     </g>
    </g>
    <g id="ytick_7">
     <g id="line2d_14">
      <g>
       <use xlink:href="#m16462372fa" x="43.003031" y="29.6533" style="stroke: #000000; stroke-width: 0.8"/>
      </g>
     </g>
     <g id="text_15">
      <!-- $\mathdefault{14}$ -->
      <g transform="translate(26.04036 33.112549)scale(0.1 -0.1)">
       <use xlink:href="#CMR17-31" transform="scale(0.996264)"/>
       <use xlink:href="#CMR17-34" transform="translate(45.690477 0)scale(0.996264)"/>
      </g>
     </g>
    </g>
    <g id="text_16">
     <!-- Density [g/cm$^3$] -->
     <g transform="translate(18.553436 187.618047)rotate(-90)scale(0.14 -0.14)">
      <defs>
       <path id="CMR17-44" d="M 333 4352 
L 333 4185 
C 774 4185 845 4185 845 3898 
L 845 453 
C 845 166 774 166 333 166 
L 333 0 
L 2368 0 
C 3398 0 4224 943 4224 2140 
C 4224 3344 3411 4352 2368 4352 
L 333 4352 
z
M 1523 166 
C 1267 166 1254 198 1254 414 
L 1254 3936 
C 1254 4153 1267 4185 1523 4185 
L 2240 4185 
C 2771 4185 3750 3873 3750 2140 
C 3750 1242 3488 879 3366 707 
C 3213 510 2848 166 2240 166 
L 1523 166 
z
" transform="scale(0.015625)"/>
       <path id="CMR17-73" d="M 1978 2688 
C 1978 2803 1971 2809 1933 2809 
C 1907 2809 1901 2803 1824 2707 
C 1805 2681 1747 2617 1728 2592 
C 1523 2809 1235 2816 1126 2816 
C 416 2816 160 2444 160 2073 
C 160 1497 813 1363 998 1324 
C 1402 1241 1542 1216 1677 1100 
C 1760 1024 1901 883 1901 652 
C 1901 384 1747 38 1158 38 
C 602 38 403 460 288 1024 
C 269 1113 269 1120 218 1120 
C 166 1120 160 1113 160 985 
L 160 64 
C 160 -52 166 -58 205 -58 
C 237 -58 243 -52 275 0 
C 314 57 410 211 448 275 
C 576 102 800 -64 1158 -64 
C 1792 -64 2131 281 2131 780 
C 2131 1107 1958 1280 1875 1356 
C 1683 1555 1459 1600 1190 1651 
C 838 1728 390 1817 390 2208 
C 390 2374 480 2726 1126 2726 
C 1811 2726 1850 2086 1862 1881 
C 1869 1849 1901 1843 1920 1843 
C 1978 1843 1978 1862 1978 1971 
L 1978 2688 
z
" transform="scale(0.015625)"/>
       <path id="CMR17-79" d="M 2496 2183 
C 2656 2579 2944 2585 3034 2585 
L 3034 2752 
C 2912 2745 2752 2739 2630 2739 
C 2496 2739 2285 2739 2157 2752 
L 2157 2585 
C 2400 2566 2406 2384 2406 2332 
C 2406 2268 2394 2235 2362 2158 
L 1664 409 
L 902 2300 
C 870 2378 870 2423 870 2430 
C 870 2572 1018 2585 1171 2585 
L 1171 2752 
C 1018 2739 742 2739 582 2739 
C 410 2739 205 2739 64 2752 
L 64 2585 
C 410 2585 448 2553 531 2345 
L 1485 -31 
C 1197 -795 1030 -1242 627 -1242 
C 557 -1242 397 -1223 282 -1106 
C 429 -1093 493 -1002 493 -892 
C 493 -782 416 -685 288 -685 
C 147 -685 77 -782 77 -899 
C 77 -1158 339 -1344 627 -1344 
C 998 -1344 1229 -983 1357 -659 
L 2496 2183 
z
" transform="scale(0.015625)"/>
       <path id="CMR17-67" d="M 710 1165 
C 832 1068 1043 960 1299 960 
C 1805 960 2240 1359 2240 1895 
C 2240 2063 2189 2321 1997 2521 
C 2176 2713 2438 2777 2586 2777 
C 2611 2777 2650 2777 2682 2758 
C 2656 2751 2598 2726 2598 2623 
C 2598 2540 2656 2483 2739 2483 
C 2835 2483 2886 2547 2886 2630 
C 2886 2751 2790 2880 2586 2880 
C 2330 2880 2106 2758 1926 2591 
C 1734 2764 1504 2828 1299 2828 
C 794 2828 358 2431 358 1895 
C 358 1527 570 1294 634 1230 
C 442 1004 442 742 442 710 
C 442 544 506 300 723 166 
C 390 82 128 -184 128 -517 
C 128 -996 736 -1344 1466 -1344 
C 2170 -1344 2803 -1009 2803 -510 
C 2803 384 1856 384 1363 384 
C 1216 384 954 384 922 390 
C 723 422 589 601 589 825 
C 589 883 589 1024 710 1165 
z
M 1299 1068 
C 736 1068 736 1766 736 1895 
C 736 2024 736 2719 1299 2719 
C 1862 2719 1862 2024 1862 1895 
C 1862 1766 1862 1068 1299 1068 
z
M 1466 -1236 
C 826 -1236 384 -883 384 -517 
C 384 -311 493 -118 634 -11 
C 794 102 858 102 1293 102 
C 1818 102 2547 102 2547 -517 
C 2547 -883 2106 -1236 1466 -1236 
z
" transform="scale(0.015625)"/>
       <path id="CMR17-2f" d="M 2605 4575 
C 2637 4658 2637 4671 2637 4684 
C 2637 4761 2579 4800 2528 4800 
C 2451 4800 2426 4748 2400 4671 
L 326 -1376 
C 294 -1460 294 -1472 294 -1485 
C 294 -1562 352 -1600 403 -1600 
C 480 -1600 506 -1549 531 -1472 
L 2605 4575 
z
" transform="scale(0.015625)"/>
       <path id="CMR17-63" d="M 2234 2240 
C 2112 2240 1933 2240 1933 2015 
C 1933 1836 2080 1785 2163 1785 
C 2208 1785 2394 1804 2394 2028 
C 2394 2476 1958 2816 1466 2816 
C 787 2816 211 2201 211 1379 
C 211 521 813 -64 1466 -64 
C 2259 -64 2458 676 2458 747 
C 2458 773 2451 792 2406 792 
C 2362 792 2355 786 2330 702 
C 2163 180 1798 51 1523 51 
C 1114 51 621 431 621 1385 
C 621 2358 1094 2700 1472 2700 
C 1722 2700 2093 2582 2234 2240 
z
" transform="scale(0.015625)"/>
       <path id="CMR17-33" d="M 1414 2176 
C 1984 2176 2234 1673 2234 1094 
C 2234 322 1824 25 1453 25 
C 1114 25 563 193 390 691 
C 422 678 454 678 486 678 
C 640 678 755 780 755 947 
C 755 1132 614 1216 486 1216 
C 378 1216 211 1164 211 927 
C 211 335 787 -128 1466 -128 
C 2176 -128 2720 432 2720 1087 
C 2720 1718 2208 2176 1600 2246 
C 2086 2347 2554 2776 2554 3353 
C 2554 3856 2048 4224 1472 4224 
C 890 4224 378 3862 378 3347 
C 378 3123 544 3084 627 3084 
C 762 3084 877 3167 877 3334 
C 877 3500 762 3584 627 3584 
C 602 3584 570 3584 544 3571 
C 730 3999 1235 4076 1459 4076 
C 1683 4076 2106 3966 2106 3347 
C 2106 3167 2080 2851 1862 2574 
C 1670 2329 1453 2316 1242 2297 
C 1210 2297 1062 2284 1037 2284 
C 992 2278 966 2272 966 2227 
C 966 2182 973 2176 1101 2176 
L 1414 2176 
z
" transform="scale(0.015625)"/>
      </defs>
      <use xlink:href="#CMR17-44" transform="scale(0.996264)"/>
      <use xlink:href="#CMR17-65" transform="translate(70.393556 0)scale(0.996264)"/>
      <use xlink:href="#CMR17-6e" transform="translate(110.879216 0)scale(0.996264)"/>
      <use xlink:href="#CMR17-73" transform="translate(161.774586 0)scale(0.996264)"/>
      <use xlink:href="#CMR17-69" transform="translate(197.575924 0)scale(0.996264)"/>
      <use xlink:href="#CMR17-74" transform="translate(222.446982 0)scale(0.996264)"/>
      <use xlink:href="#CMR17-79" transform="translate(255.125296 0)scale(0.996264)"/>
      <use xlink:href="#CMR17-5b" transform="translate(333.494178 0)scale(0.996264)"/>
      <use xlink:href="#CMR17-67" transform="translate(358.365237 0)scale(0.996264)"/>
      <use xlink:href="#CMR17-2f" transform="translate(404.055714 0)scale(0.996264)"/>
      <use xlink:href="#CMR17-63" transform="translate(449.746191 0)scale(0.996264)"/>
      <use xlink:href="#CMR17-6d" transform="translate(490.231852 0)scale(0.996264)"/>
      <use xlink:href="#CMR17-33" transform="translate(567.151441 36.153639)scale(0.697382)"/>
      <use xlink:href="#CMR17-5d" transform="translate(599.632755 0)scale(0.996264)"/>
     </g>
    </g>
   </g>
   <g id="line2d_15">
    <path d="M 43.003031 230.343131 
L 43.229282 222.547947 
L 43.972678 211.224666 
L 45.911972 210.617265 
L 47.625016 210.248753 
L 50.630923 208.642359 
L 52.537896 207.277704 
L 54.832728 203.295833 
L 57.54774 201.113035 
L 58.872925 200.211131 
L 60.941506 193.391755 
L 64.173664 191.820163 
L 79.688021 185.908995 
L 109.391551 175.621737 
L 113.690321 174.106424 
L 115.500329 173.202841 
L 116.276047 165.843677 
L 116.405333 104.995586 
L 116.857835 99.289528 
L 119.055703 96.45537 
L 123.839296 91.837875 
L 128.816819 87.315678 
L 134.763989 82.349374 
L 138.610257 79.398749 
L 144.686714 75.05318 
L 147.821907 73.03055 
L 153.122645 69.88387 
L 158.778922 66.849963 
L 161.138397 65.762133 
L 167.408783 63.0803 
L 169.638972 62.292088 
L 172.386306 61.285906 
L 172.450949 61.261562 
L 173.420596 54.632258 
L 174.131671 50.415562 
L 181.210096 48.270915 
L 186.446192 47.024565 
L 189.775314 46.402317 
L 195.108375 45.597341 
L 197.694101 45.385334 
L 200.570721 45.09131 
L 210.17023 45.200254 
L 213.693282 45.581865 
L 215.470969 45.762073 
L 221.062602 46.695875 
L 224.617975 47.443393 
L 229.951035 48.824789 
L 235.154809 50.446516 
L 235.962849 55.962844 
L 236.835531 61.298077 
L 246.176467 64.932961 
L 251.412563 67.36422 
L 255.905262 69.793587 
L 260.36564 72.411352 
L 265.149233 75.497644 
L 269.900505 78.897977 
L 274.781064 82.635195 
L 279.596979 86.648979 
L 284.089678 90.654657 
L 290.553993 96.874601 
L 291.038817 97.513715 
L 292.428645 99.422714 
L 292.687218 103.430647 
L 292.881147 106.560524 
L 293.010433 166.764558 
L 293.786151 173.251247 
L 296.759736 174.616728 
L 321.388778 182.982906 
L 326.75416 184.94432 
L 341.525121 190.463571 
L 346.793538 192.62896 
L 348.409617 193.586766 
L 350.445877 200.344008 
L 352.902317 202.048928 
L 354.712325 203.723675 
L 356.942514 207.579296 
L 360.110028 209.531178 
L 362.210931 210.452892 
L 364.311834 210.887617 
L 365.281481 211.248741 
L 365.378446 212.562623 
L 366.121842 226.298603 
L 366.186485 230.343131 
L 366.186485 230.343131 
" clip-path="url(#pe0c6f56447)" style="fill: none; stroke: #231526; stroke-width: 2; stroke-linecap: square"/>
   </g>
   <g id="line2d_16">
    <path d="M 43.003031 230.343131 
L 43.226496 222.643903 
L 43.992664 211.221789 
L 45.940006 210.61862 
L 47.695806 210.243179 
L 50.728553 208.643824 
L 52.675895 207.256848 
L 54.974398 203.310772 
L 57.719831 201.130474 
L 59.092548 200.211841 
L 61.199508 193.388731 
L 64.45572 191.828776 
L 79.651375 186.138509 
L 89.132698 182.797317 
L 111.511173 175.404703 
L 115.278164 174.110309 
L 117.161659 173.207887 
L 117.385124 171.271864 
L 117.991673 165.750855 
L 118.119368 104.949896 
L 118.566299 99.319181 
L 120.864802 96.476256 
L 125.653348 92.065127 
L 130.92075 87.516015 
L 136.986242 82.742451 
L 141.359782 79.59994 
L 147.489122 75.554102 
L 151.447654 73.209432 
L 157.002368 70.257258 
L 163.004013 67.448256 
L 166.771004 65.939469 
L 172.708802 63.88891 
L 176.890799 62.649307 
L 182.76475 61.223931 
L 185.414412 50.487545 
L 185.574031 50.421155 
L 190.713738 49.616657 
L 195.37459 49.108716 
L 199.8439 48.846815 
L 204.153592 48.81557 
L 208.495208 49.006585 
L 212.996442 49.427406 
L 217.912683 50.12471 
L 219.796178 50.487545 
L 222.254299 60.414955 
L 222.573536 61.287949 
L 230.299058 63.206248 
L 235.342994 64.835688 
L 240.993479 66.925822 
L 246.133186 69.248999 
L 251.560206 71.994386 
L 257.051073 75.135573 
L 262.222703 78.491808 
L 267.649723 82.311628 
L 272.78943 86.301305 
L 277.737595 90.44432 
L 284.250018 96.384972 
L 285.239651 97.47291 
L 286.740063 99.521194 
L 287.186994 106.430773 
L 287.314688 166.622379 
L 288.144703 173.253735 
L 291.27322 174.628756 
L 313.07707 181.768527 
L 330.986235 188.127741 
L 341.967969 192.334184 
L 344.170701 193.55118 
L 346.277661 200.36209 
L 348.767706 202.070087 
L 350.587354 203.738378 
L 352.822009 207.566829 
L 356.046297 209.528236 
L 358.185181 210.453501 
L 360.292142 210.881321 
L 361.313698 211.288889 
L 362.143713 226.397599 
L 362.20756 230.343131 
L 362.20756 230.343131 
" clip-path="url(#pe0c6f56447)" style="fill: none; stroke: #35264c; stroke-width: 2; stroke-linecap: square"/>
   </g>
   <g id="line2d_17">
    <path d="M 43.003031 230.343131 
L 43.218208 222.922357 
L 44.017439 211.226601 
L 46.046256 210.619954 
L 47.890634 210.239312 
L 51.026078 208.653858 
L 53.054895 207.289987 
L 55.483327 203.304313 
L 58.342114 201.134111 
L 59.786878 200.210557 
L 61.969393 193.402237 
L 65.412233 191.831445 
L 79.61395 186.79061 
L 90.741702 183.095766 
L 110.93765 176.931896 
L 121.020255 173.983068 
L 122.895373 173.204766 
L 123.448687 168.900473 
L 123.848302 165.76752 
L 123.971261 105.316435 
L 124.524574 99.312633 
L 127.106705 96.559101 
L 131.84061 92.864317 
L 137.06635 89.076745 
L 141.554339 86.117483 
L 146.073067 83.369226 
L 151.175848 80.576495 
L 155.079783 78.669745 
L 160.028867 76.453821 
L 165.100908 74.510614 
L 170.019252 72.929262 
L 174.876116 71.630521 
L 179.79446 70.580264 
L 183.698395 69.953032 
L 188.340082 69.411871 
L 192.82807 69.110615 
L 197.346798 69.03228 
L 201.865526 69.175221 
L 206.261296 69.533189 
L 210.902982 70.133558 
L 215.237273 70.90862 
L 220.001918 72.002873 
L 225.01248 73.427824 
L 229.992303 75.132331 
L 234.910647 77.126603 
L 240.351564 79.65635 
L 244.562896 81.82504 
L 249.819376 84.876705 
L 254.829938 88.064766 
L 259.994199 91.721318 
L 265.158459 95.664524 
L 267.156536 97.410381 
L 268.970176 99.596329 
L 269.49275 106.543589 
L 269.615708 166.490025 
L 270.568637 173.242902 
L 274.226655 174.637888 
L 291.410118 179.591897 
L 303.736716 183.456412 
L 324.701156 190.649775 
L 329.773197 192.601663 
L 331.556097 193.595469 
L 333.738612 200.353622 
L 336.320742 202.038007 
L 338.25734 203.727661 
L 340.593553 207.564266 
L 343.974914 209.535174 
L 346.188169 210.453642 
L 348.401424 210.889389 
L 349.415832 211.248363 
L 349.477311 211.888865 
L 350.307282 226.684891 
L 350.368761 230.343131 
L 350.368761 230.343131 
" clip-path="url(#pe0c6f56447)" style="fill: none; stroke: #403974; stroke-width: 2; stroke-linecap: square"/>
   </g>
   <g id="line2d_18">
    <path d="M 43.003031 230.343131 
L 43.23342 222.911746 
L 44.097382 211.222931 
L 46.257288 210.61977 
L 48.215602 210.246478 
L 51.613853 208.645798 
L 53.802557 207.2621 
L 56.365644 203.335614 
L 59.447109 201.166057 
L 61.088637 200.166046 
L 63.450133 193.402333 
L 67.16517 191.847716 
L 80.412589 187.573702 
L 90.492147 184.597673 
L 100.658101 181.753863 
L 109.412917 179.483739 
L 119.434877 177.095241 
L 127.152939 175.446448 
L 133.719051 173.983274 
L 136.426132 173.202736 
L 137.83727 165.676608 
L 137.952465 105.764354 
L 138.758829 99.364566 
L 142.358672 96.782458 
L 147.283255 94.352914 
L 152.438229 92.149334 
L 157.391612 90.28783 
L 161.193045 89.070877 
L 165.772044 87.820879 
L 170.43744 86.822078 
L 174.958841 86.079715 
L 179.336249 85.583337 
L 183.771255 85.309205 
L 188.177461 85.258502 
L 192.583668 85.429277 
L 196.961076 85.819124 
L 201.42488 86.448746 
L 205.97508 87.317275 
L 210.237294 88.348446 
L 214.931488 89.738842 
L 218.790518 91.091282 
L 223.599907 93.005076 
L 228.294101 95.112683 
L 232.181931 97.134004 
L 235.292194 99.429791 
L 235.522584 101.38904 
L 236.098559 106.539623 
L 236.213754 166.13355 
L 237.653691 173.235394 
L 243.298243 174.723663 
L 255.796895 177.386044 
L 266.567622 179.984058 
L 273.968897 181.93461 
L 287.734693 185.81242 
L 293.609636 187.591373 
L 302.738835 190.508253 
L 308.642576 192.559921 
L 310.658488 193.525585 
L 313.048783 200.348545 
L 315.84226 202.024665 
L 317.944568 203.709515 
L 320.478857 207.564918 
L 324.107498 209.531446 
L 326.497793 210.454633 
L 328.830491 210.879704 
L 329.953641 211.251557 
L 330.097635 213.22238 
L 330.904 227.132342 
L 330.961597 230.343131 
L 330.961597 230.343131 
" clip-path="url(#pe0c6f56447)" style="fill: none; stroke: #3d5296; stroke-width: 2; stroke-linecap: square"/>
   </g>
   <g id="line2d_19">
    <path d="M 43.003031 230.343131 
L 43.238369 223.169996 
L 44.179722 211.231807 
L 46.585403 210.621074 
L 48.781894 210.240635 
L 52.573457 208.634507 
L 55.005286 207.256796 
L 57.855495 203.35443 
L 61.307124 201.196735 
L 63.242129 200.150601 
L 65.909297 193.412258 
L 70.119238 191.874468 
L 82.121494 188.551543 
L 92.345638 185.973171 
L 99.405788 184.376653 
L 108.427092 182.457761 
L 121.109214 180.100906 
L 131.281061 178.549755 
L 140.250067 177.428373 
L 148.277719 176.640603 
L 156.697602 176.042857 
L 164.908296 175.682654 
L 172.988246 175.550434 
L 181.042047 175.640877 
L 189.174295 175.955363 
L 197.463434 176.499797 
L 205.674128 177.259019 
L 214.407796 178.309453 
L 222.932274 179.553052 
L 232.319659 181.149792 
L 243.694346 183.397437 
L 257.736201 186.612638 
L 267.43737 189.120365 
L 278.890503 192.368381 
L 281.714564 193.570276 
L 284.40788 200.338955 
L 287.545725 201.989748 
L 289.977555 203.716562 
L 292.801615 207.555148 
L 296.906962 209.54409 
L 299.547981 210.456736 
L 302.136703 210.886774 
L 303.365692 211.255371 
L 304.176302 222.437755 
L 304.385491 226.372776 
L 304.463938 230.343131 
L 304.463938 230.343131 
" clip-path="url(#pe0c6f56447)" style="fill: none; stroke: #366da0; stroke-width: 2; stroke-linecap: square"/>
   </g>
   <g id="line2d_20">
    <path d="M 43.003031 230.343131 
L 43.277288 223.109735 
L 44.351464 211.231739 
L 47.116896 210.621374 
L 49.676634 210.235923 
L 54.156176 208.60527 
L 56.944463 207.271629 
L 60.304119 203.378276 
L 64.34942 201.25842 
L 66.863449 200.135394 
L 70.085976 193.428217 
L 75.159744 191.929701 
L 85.330133 189.737255 
L 96.688971 187.554292 
L 106.539393 185.948866 
L 113.235852 185.049242 
L 124.891803 183.693294 
L 132.776711 183.004693 
L 141.621521 182.479113 
L 150.557751 182.173363 
L 158.991175 182.107685 
L 167.424598 182.264175 
L 176.406537 182.659992 
L 185.182783 183.269946 
L 193.913319 184.153177 
L 203.626612 185.349578 
L 211.648649 186.517912 
L 221.133394 188.148565 
L 230.206752 189.941567 
L 239.211546 191.893443 
L 241.771284 192.585897 
L 244.582426 193.55598 
L 247.919227 200.347243 
L 251.621706 201.944486 
L 254.592831 203.68242 
L 257.998197 207.564514 
L 262.911981 209.582069 
L 265.860251 210.455764 
L 268.831376 210.87982 
L 270.271228 211.255676 
L 271.185421 222.271216 
L 271.436824 226.299412 
L 271.528243 230.343131 
L 271.528243 230.343131 
" clip-path="url(#pe0c6f56447)" style="fill: none; stroke: #3487a6; stroke-width: 2; stroke-linecap: square"/>
   </g>
   <g id="line2d_21">
    <path d="M 43.003031 230.343131 
L 43.288003 223.568252 
L 44.598875 211.23838 
L 47.942549 210.625876 
L 51.153235 210.233946 
L 56.985666 208.527711 
L 60.367337 207.238831 
L 64.584925 203.436715 
L 69.790417 201.370757 
L 73.666039 200.120932 
L 78.130604 193.468376 
L 78.415576 193.396544 
L 85.14092 192.04772 
L 94.753982 190.759876 
L 103.455133 189.810345 
L 113.182184 188.979578 
L 121.883335 188.458722 
L 130.698475 188.160884 
L 139.456621 188.087052 
L 148.214767 188.23557 
L 156.99191 188.606448 
L 165.80705 189.211874 
L 175.439111 190.105014 
L 184.083268 191.120299 
L 192.252471 192.287017 
L 197.875922 193.523336 
L 202.321488 200.150069 
L 202.549466 200.314392 
L 207.488984 201.835522 
L 211.668576 203.629323 
L 216.228132 207.585158 
L 222.80149 209.688707 
L 226.08817 210.457727 
L 229.697818 210.878619 
L 231.445647 211.254835 
L 231.673625 213.450164 
L 232.85151 226.152728 
L 232.965499 230.343131 
L 232.965499 230.343131 
" clip-path="url(#pe0c6f56447)" style="fill: none; stroke: #35a1ab; stroke-width: 2; stroke-linecap: square"/>
   </g>
   <g id="line2d_22">
    <path d="M 43.003031 230.343131 
L 43.340525 223.817615 
L 45.057347 211.242332 
L 49.430106 210.631815 
L 53.949603 210.226919 
L 64.059774 208.130331 
L 67.522765 207.242899 
L 72.379756 204.512258 
L 74.668852 203.409884 
L 81.213317 201.963586 
L 84.92576 201.321797 
L 92.233258 200.431671 
L 94.052795 200.127423 
L 97.339702 198.505139 
L 100.553239 197.164561 
L 103.722756 196.08202 
L 106.833578 195.252475 
L 109.915053 194.659408 
L 112.96718 194.297119 
L 116.004634 194.159494 
L 119.042088 194.244439 
L 122.079541 194.55184 
L 125.131669 195.084385 
L 128.213144 195.848764 
L 131.323966 196.850432 
L 134.478809 198.100891 
L 137.692347 199.615705 
L 139.291779 200.306881 
L 146.525908 201.150071 
L 150.883993 201.836381 
L 157.35509 203.243234 
L 158.793112 203.692956 
L 163.532713 206.273255 
L 165.968546 207.537821 
L 179.937898 210.418058 
L 185.367163 210.866518 
L 187.758974 211.283372 
L 189.563838 225.762298 
L 189.725249 230.343131 
L 189.725249 230.343131 
" clip-path="url(#pe0c6f56447)" style="fill: none; stroke: #44bcad; stroke-width: 2; stroke-linecap: square"/>
   </g>
   <g id="line2d_23">
    <path d="M 43.003031 230.343131 
L 43.432511 224.176794 
L 45.97943 211.252533 
L 52.521515 210.652037 
L 61.630495 210.184387 
L 70.180152 209.453933 
L 81.915954 208.71718 
L 89.147206 208.488279 
L 96.358482 208.482577 
L 103.569758 208.699173 
L 110.900889 209.143327 
L 119.340678 209.737971 
L 130.177568 210.532145 
L 136.150342 210.859883 
L 139.945751 211.332721 
L 142.592549 224.973438 
L 142.87221 230.343131 
L 142.87221 230.343131 
" clip-path="url(#pe0c6f56447)" style="fill: none; stroke: #6dd3ad; stroke-width: 2; stroke-linecap: square"/>
   </g>
   <g id="line2d_24">
    <path d="M 43.003031 230.343131 
L 43.700787 224.601407 
L 46.142936 218.476459 
L 48.175532 213.926152 
L 49.550821 211.252797 
L 59.385147 210.937129 
L 69.153742 210.845745 
L 78.917281 210.976692 
L 87.108339 211.287332 
L 89.287565 215.884989 
L 91.375779 220.798499 
L 93.024103 225.151647 
L 93.560061 230.343131 
L 93.560061 230.343131 
" clip-path="url(#pe0c6f56447)" style="fill: none; stroke: #aee3c0; stroke-width: 2; stroke-linecap: square"/>
   </g>
   <g id="line2d_25">
    <path d="M 43.003031 51.8293 
L 377.803031 51.8293 
" clip-path="url(#pe0c6f56447)" style="fill: none; stroke-dasharray: 3.7,1.6; stroke-dashoffset: 0; stroke: #000000"/>
   </g>
   <g id="line2d_26">
    <path d="M 43.003031 101.298839 
L 377.803031 101.298839 
" clip-path="url(#pe0c6f56447)" style="fill: none; stroke-dasharray: 3.7,1.6; stroke-dashoffset: 0; stroke: #000000"/>
   </g>
   <g id="line2d_27">
    <path d="M 43.003031 193.414531 
L 377.803031 193.414531 
" clip-path="url(#pe0c6f56447)" style="fill: none; stroke-dasharray: 3.7,1.6; stroke-dashoffset: 0; stroke: #000000"/>
   </g>
   <g id="patch_3">
    <path d="M 43.003031 251.4133 
L 43.003031 29.6533 
" style="fill: none; stroke: #000000; stroke-width: 0.8; stroke-linejoin: miter; stroke-linecap: square"/>
   </g>
   <g id="patch_4">
    <path d="M 377.803031 251.4133 
L 377.803031 29.6533 
" style="fill: none; stroke: #000000; stroke-width: 0.8; stroke-linejoin: miter; stroke-linecap: square"/>
   </g>
   <g id="patch_5">
    <path d="M 43.003031 251.4133 
L 377.803031 251.4133 
" style="fill: none; stroke: #000000; stroke-width: 0.8; stroke-linejoin: miter; stroke-linecap: square"/>
   </g>
   <g id="patch_6">
    <path d="M 43.003031 29.6533 
L 377.803031 29.6533 
" style="fill: none; stroke: #000000; stroke-width: 0.8; stroke-linejoin: miter; stroke-linecap: square"/>
   </g>
   <g id="text_17">
    <!-- Inner core -->
    <g transform="translate(321.033039 46.711762)scale(0.12 -0.12)">
     <defs>
      <path id="CMR17-49" d="M 1261 3898 
C 1261 4185 1338 4185 1798 4185 
L 1798 4352 
C 1594 4339 1267 4339 1050 4339 
C 832 4339 506 4339 301 4352 
L 301 4185 
C 762 4185 838 4185 838 3898 
L 838 453 
C 838 166 762 166 301 166 
L 301 0 
C 506 12 832 12 1050 12 
C 1267 12 1594 12 1798 0 
L 1798 166 
C 1338 166 1261 166 1261 453 
L 1261 3898 
z
" transform="scale(0.015625)"/>
     </defs>
     <use xlink:href="#CMR17-49" transform="scale(0.996264)"/>
     <use xlink:href="#CMR17-6e" transform="translate(32.638409 0)scale(0.996264)"/>
     <use xlink:href="#CMR17-6e" transform="translate(83.533779 0)scale(0.996264)"/>
     <use xlink:href="#CMR17-65" transform="translate(134.429149 0)scale(0.996264)"/>
     <use xlink:href="#CMR17-72" transform="translate(174.914809 0)scale(0.996264)"/>
     <use xlink:href="#CMR17-63" transform="translate(240.271543 0)scale(0.996264)"/>
     <use xlink:href="#CMR17-6f" transform="translate(280.757204 0)scale(0.996264)"/>
     <use xlink:href="#CMR17-72" transform="translate(326.447681 0)scale(0.996264)"/>
     <use xlink:href="#CMR17-65" transform="translate(361.728449 0)scale(0.996264)"/>
    </g>
   </g>
   <g id="text_18">
    <!-- Outer core -->
    <g transform="translate(318.102394 80.828685)scale(0.12 -0.12)">
     <defs>
      <path id="CMR17-4f" d="M 4307 2166 
C 4307 3488 3366 4480 2304 4480 
C 1216 4480 294 3475 294 2166 
C 294 857 1229 -128 2298 -128 
C 3392 -128 4307 876 4307 2166 
z
M 2304 -13 
C 1574 -13 781 722 781 2250 
C 781 3771 1651 4364 2298 4364 
C 2976 4364 3821 3752 3821 2250 
C 3821 696 3008 -13 2304 -13 
z
" transform="scale(0.015625)"/>
     </defs>
     <use xlink:href="#CMR17-4f" transform="scale(0.996264)"/>
     <use xlink:href="#CMR17-75" transform="translate(71.714788 0)scale(0.996264)"/>
     <use xlink:href="#CMR17-74" transform="translate(122.610158 0)scale(0.996264)"/>
     <use xlink:href="#CMR17-65" transform="translate(157.890926 0)scale(0.996264)"/>
     <use xlink:href="#CMR17-72" transform="translate(198.376586 0)scale(0.996264)"/>
     <use xlink:href="#CMR17-63" transform="translate(263.733321 0)scale(0.996264)"/>
     <use xlink:href="#CMR17-6f" transform="translate(304.218981 0)scale(0.996264)"/>
     <use xlink:href="#CMR17-72" transform="translate(349.909458 0)scale(0.996264)"/>
     <use xlink:href="#CMR17-65" transform="translate(385.190226 0)scale(0.996264)"/>
    </g>
   </g>
   <g id="text_19">
    <!-- Lower mantle -->
    <g transform="translate(303.309403 166.120992)scale(0.12 -0.12)">
     <defs>
      <path id="CMR17-4c" d="M 3469 1612 
L 3354 1612 
C 3302 981 3219 166 2125 166 
L 1530 166 
C 1274 166 1261 198 1261 414 
L 1261 3892 
C 1261 4121 1274 4185 1760 4185 
L 1901 4185 
L 1901 4352 
C 1638 4339 1331 4339 1069 4339 
C 870 4339 512 4339 326 4352 
L 326 4185 
C 768 4185 838 4185 838 3898 
L 838 453 
C 838 166 768 166 326 166 
L 326 0 
L 3315 0 
L 3469 1612 
z
" transform="scale(0.015625)"/>
      <path id="CMR17-77" d="M 3725 2186 
C 3853 2566 4109 2579 4205 2585 
L 4205 2752 
C 4077 2745 3949 2739 3821 2739 
C 3699 2739 3424 2739 3315 2752 
L 3315 2585 
C 3514 2572 3622 2456 3622 2296 
C 3622 2251 3610 2193 3597 2148 
L 2995 398 
L 2342 2296 
C 2330 2341 2310 2392 2310 2418 
C 2310 2585 2528 2585 2630 2585 
L 2630 2752 
C 2483 2739 2214 2739 2061 2739 
C 1901 2739 1734 2739 1587 2752 
L 1587 2585 
C 1939 2585 1939 2572 2074 2167 
L 1485 443 
L 851 2302 
C 819 2386 819 2399 819 2418 
C 819 2585 1037 2585 1139 2585 
L 1139 2752 
C 986 2739 717 2739 557 2739 
C 416 2739 198 2739 64 2752 
L 64 2585 
C 346 2585 416 2566 486 2353 
L 1274 38 
C 1299 -45 1318 -64 1370 -64 
C 1414 -64 1440 -52 1472 44 
L 2131 1987 
L 2797 44 
C 2829 -52 2854 -64 2899 -64 
C 2950 -64 2970 -45 2995 38 
L 3725 2186 
z
" transform="scale(0.015625)"/>
      <path id="CMR17-6c" d="M 979 4416 
L 218 4345 
L 218 4179 
C 595 4179 653 4141 653 3835 
L 653 439 
C 653 198 627 166 218 166 
L 218 0 
C 371 12 653 12 813 12 
C 979 12 1261 12 1414 0 
L 1414 166 
C 1005 166 979 191 979 439 
L 979 4416 
z
" transform="scale(0.015625)"/>
     </defs>
     <use xlink:href="#CMR17-4c" transform="scale(0.996264)"/>
     <use xlink:href="#CMR17-6f" transform="translate(57.381408 0)scale(0.996264)"/>
     <use xlink:href="#CMR17-77" transform="translate(100.469431 0)scale(0.996264)"/>
     <use xlink:href="#CMR17-65" transform="translate(164.376858 0)scale(0.996264)"/>
     <use xlink:href="#CMR17-72" transform="translate(204.862518 0)scale(0.996264)"/>
     <use xlink:href="#CMR17-6d" transform="translate(270.219252 0)scale(0.996264)"/>
     <use xlink:href="#CMR17-61" transform="translate(347.138842 0)scale(0.996264)"/>
     <use xlink:href="#CMR17-6e" transform="translate(392.829319 0)scale(0.996264)"/>
     <use xlink:href="#CMR17-74" transform="translate(441.122235 0)scale(0.996264)"/>
     <use xlink:href="#CMR17-6c" transform="translate(476.403003 0)scale(0.996264)"/>
     <use xlink:href="#CMR17-65" transform="translate(501.274061 0)scale(0.996264)"/>
    </g>
   </g>
   <g id="text_20">
    <!-- Upper mantle -->
    <g transform="translate(302.173404 248.001608)scale(0.12 -0.12)">
     <defs>
      <path id="CMR17-55" d="M 3456 1442 
C 3456 583 2899 38 2291 38 
C 1965 38 1670 211 1491 480 
C 1286 788 1261 1185 1261 1410 
L 1261 3897 
C 1261 4185 1331 4185 1773 4185 
L 1773 4352 
C 1587 4339 1248 4339 1050 4339 
C 851 4339 512 4339 326 4352 
L 326 4185 
C 768 4185 838 4185 838 3897 
L 838 1442 
C 838 519 1536 -128 2278 -128 
C 3110 -128 3590 724 3590 1352 
L 3590 3788 
C 3590 4147 3917 4185 4102 4185 
L 4102 4352 
C 3955 4339 3686 4339 3526 4339 
C 3366 4339 3091 4339 2944 4352 
L 2944 4185 
C 3456 4185 3456 3884 3456 3724 
L 3456 1442 
z
" transform="scale(0.015625)"/>
     </defs>
     <use xlink:href="#CMR17-55" transform="scale(0.996264)"/>
     <use xlink:href="#CMR17-70" transform="translate(69.07243 0)scale(0.996264)"/>
     <use xlink:href="#CMR17-70" transform="translate(119.9678 0)scale(0.996264)"/>
     <use xlink:href="#CMR17-65" transform="translate(173.465608 0)scale(0.996264)"/>
     <use xlink:href="#CMR17-72" transform="translate(213.951269 0)scale(0.996264)"/>
     <use xlink:href="#CMR17-6d" transform="translate(279.308003 0)scale(0.996264)"/>
     <use xlink:href="#CMR17-61" transform="translate(356.227593 0)scale(0.996264)"/>
     <use xlink:href="#CMR17-6e" transform="translate(401.91807 0)scale(0.996264)"/>
     <use xlink:href="#CMR17-74" transform="translate(450.210986 0)scale(0.996264)"/>
     <use xlink:href="#CMR17-6c" transform="translate(485.491753 0)scale(0.996264)"/>
     <use xlink:href="#CMR17-65" transform="translate(510.362812 0)scale(0.996264)"/>
    </g>
   </g>
   <g id="text_21">
    <!-- Earth matter density profile with different Nadir angles -->
    <g transform="translate(11.068701 19.6533)scale(0.18 -0.18)">
     <defs>
      <path id="CMR17-45" d="M 3885 1614 
L 3770 1614 
C 3629 676 3546 166 2419 166 
L 1530 166 
C 1274 166 1261 198 1261 415 
L 1261 2176 
L 1862 2176 
C 2464 2176 2522 1959 2522 1429 
L 2637 1429 
L 2637 3086 
L 2522 3086 
C 2522 2558 2464 2342 1862 2342 
L 1261 2342 
L 1261 3924 
C 1261 4141 1274 4172 1530 4172 
L 2406 4172 
C 3398 4172 3514 3778 3603 2933 
L 3718 2933 
L 3565 4339 
L 326 4339 
L 326 4172 
C 768 4172 838 4172 838 3886 
L 838 453 
C 838 166 768 166 326 166 
L 326 0 
L 3654 0 
L 3885 1614 
z
" transform="scale(0.015625)"/>
      <path id="CMR17-64" d="M 1869 4345 
L 1869 4179 
C 2246 4179 2304 4141 2304 3843 
L 2304 2371 
C 2278 2403 2016 2816 1498 2816 
C 845 2816 211 2228 211 1376 
C 211 529 806 -64 1434 -64 
C 1978 -64 2259 361 2291 406 
L 2291 -64 
L 3066 -13 
L 3066 154 
C 2688 154 2630 193 2630 503 
L 2630 4416 
L 1869 4345 
z
M 2291 762 
C 2291 568 2176 393 2029 264 
C 1811 70 1594 38 1472 38 
C 1286 38 621 135 621 1369 
C 621 2636 1363 2713 1530 2713 
C 1824 2713 2061 2545 2208 2313 
C 2291 2177 2291 2157 2291 2041 
L 2291 762 
z
" transform="scale(0.015625)"/>
      <path id="CMR17-c" d="M 2554 2816 
C 2400 2809 1926 2777 1805 2764 
C 1766 2758 1754 2758 1677 2758 
L 947 2758 
L 947 3517 
C 947 4127 1434 4416 1818 4416 
C 1939 4416 2214 4383 2355 4160 
C 2291 4160 2086 4160 2086 3935 
C 2086 3782 2189 3705 2317 3705 
C 2432 3705 2547 3769 2547 3942 
C 2547 4265 2240 4518 1843 4518 
C 1338 4518 634 4225 634 3517 
L 634 2758 
L 122 2758 
L 122 2591 
L 634 2591 
L 634 442 
C 634 198 608 166 198 166 
L 198 0 
C 352 12 634 12 794 12 
C 960 12 1242 12 1395 0 
L 1395 166 
C 986 166 960 192 960 442 
L 960 2591 
L 1901 2591 
C 2176 2591 2227 2534 2227 2251 
L 2227 442 
C 2227 198 2202 166 1792 166 
L 1792 0 
C 1946 12 2227 12 2387 12 
C 2554 12 2835 12 2989 0 
L 2989 166 
C 2579 166 2554 192 2554 442 
L 2554 2816 
z
" transform="scale(0.015625)"/>
      <path id="CMR17-b" d="M 2554 2585 
L 3283 2585 
L 3283 2752 
L 2541 2752 
L 2541 3520 
C 2541 4047 2810 4377 3085 4377 
C 3168 4377 3264 4352 3328 4307 
C 3277 4294 3142 4250 3142 4091 
C 3142 3926 3270 3875 3360 3875 
C 3450 3875 3578 3926 3578 4091 
C 3578 4333 3347 4480 3091 4480 
C 2842 4480 2637 4358 2477 4206 
C 2330 4415 2086 4480 1837 4480 
C 1338 4480 634 4193 634 3494 
L 634 2752 
L 122 2752 
L 122 2585 
L 634 2585 
L 634 441 
C 634 198 608 166 198 166 
L 198 0 
C 352 12 634 12 794 12 
C 960 12 1242 12 1395 0 
L 1395 166 
C 986 166 960 192 960 441 
L 960 2585 
L 2227 2585 
L 2227 441 
C 2227 198 2202 166 1792 166 
L 1792 0 
C 1946 12 2240 12 2406 12 
C 2592 12 2918 12 3091 0 
L 3091 166 
C 2630 166 2554 166 2554 454 
L 2554 2585 
z
M 947 2752 
L 947 3494 
C 947 4072 1395 4377 1824 4377 
C 1920 4377 2170 4358 2323 4218 
C 2208 4212 2099 4161 2099 4002 
C 2099 3837 2246 3793 2259 3793 
C 2227 3679 2227 3552 2227 3507 
L 2227 2752 
L 947 2752 
z
" transform="scale(0.015625)"/>
     </defs>
     <use xlink:href="#CMR17-45" transform="scale(0.996264)"/>
     <use xlink:href="#CMR17-61" transform="translate(62.586301 0)scale(0.996264)"/>
     <use xlink:href="#CMR17-72" transform="translate(108.276778 0)scale(0.996264)"/>
     <use xlink:href="#CMR17-74" transform="translate(143.557545 0)scale(0.996264)"/>
     <use xlink:href="#CMR17-68" transform="translate(178.838313 0)scale(0.996264)"/>
     <use xlink:href="#CMR17-6d" transform="translate(259.809649 0)scale(0.996264)"/>
     <use xlink:href="#CMR17-61" transform="translate(336.729239 0)scale(0.996264)"/>
     <use xlink:href="#CMR17-74" transform="translate(382.419716 0)scale(0.996264)"/>
     <use xlink:href="#CMR17-74" transform="translate(417.700484 0)scale(0.996264)"/>
     <use xlink:href="#CMR17-65" transform="translate(452.981252 0)scale(0.996264)"/>
     <use xlink:href="#CMR17-72" transform="translate(493.466912 0)scale(0.996264)"/>
     <use xlink:href="#CMR17-64" transform="translate(558.823647 0)scale(0.996264)"/>
     <use xlink:href="#CMR17-65" transform="translate(609.719016 0)scale(0.996264)"/>
     <use xlink:href="#CMR17-6e" transform="translate(650.204677 0)scale(0.996264)"/>
     <use xlink:href="#CMR17-73" transform="translate(701.100047 0)scale(0.996264)"/>
     <use xlink:href="#CMR17-69" transform="translate(736.901384 0)scale(0.996264)"/>
     <use xlink:href="#CMR17-74" transform="translate(761.772443 0)scale(0.996264)"/>
     <use xlink:href="#CMR17-79" transform="translate(794.450757 0)scale(0.996264)"/>
     <use xlink:href="#CMR17-70" transform="translate(872.819639 0)scale(0.996264)"/>
     <use xlink:href="#CMR17-72" transform="translate(923.715009 0)scale(0.996264)"/>
     <use xlink:href="#CMR17-6f" transform="translate(958.995776 0)scale(0.996264)"/>
     <use xlink:href="#CMR17-c" transform="translate(1004.686253 0)scale(0.996264)"/>
     <use xlink:href="#CMR17-6c" transform="translate(1054.428477 0)scale(0.996264)"/>
     <use xlink:href="#CMR17-65" transform="translate(1079.299535 0)scale(0.996264)"/>
     <use xlink:href="#CMR17-77" transform="translate(1149.861162 0)scale(0.996264)"/>
     <use xlink:href="#CMR17-69" transform="translate(1216.371043 0)scale(0.996264)"/>
     <use xlink:href="#CMR17-74" transform="translate(1241.242101 0)scale(0.996264)"/>
     <use xlink:href="#CMR17-68" transform="translate(1276.522869 0)scale(0.996264)"/>
     <use xlink:href="#CMR17-64" transform="translate(1357.494205 0)scale(0.996264)"/>
     <use xlink:href="#CMR17-69" transform="translate(1408.389575 0)scale(0.996264)"/>
     <use xlink:href="#CMR17-b" transform="translate(1433.260633 0)scale(0.996264)"/>
     <use xlink:href="#CMR17-65" transform="translate(1485.605311 0)scale(0.996264)"/>
     <use xlink:href="#CMR17-72" transform="translate(1526.090971 0)scale(0.996264)"/>
     <use xlink:href="#CMR17-65" transform="translate(1561.371739 0)scale(0.996264)"/>
     <use xlink:href="#CMR17-6e" transform="translate(1601.857399 0)scale(0.996264)"/>
     <use xlink:href="#CMR17-74" transform="translate(1650.150315 0)scale(0.996264)"/>
     <use xlink:href="#CMR17-4e" transform="translate(1715.507049 0)scale(0.996264)"/>
     <use xlink:href="#CMR17-61" transform="translate(1784.579479 0)scale(0.996264)"/>
     <use xlink:href="#CMR17-64" transform="translate(1830.269956 0)scale(0.996264)"/>
     <use xlink:href="#CMR17-69" transform="translate(1881.165326 0)scale(0.996264)"/>
     <use xlink:href="#CMR17-72" transform="translate(1906.036385 0)scale(0.996264)"/>
     <use xlink:href="#CMR17-61" transform="translate(1971.393119 0)scale(0.996264)"/>
     <use xlink:href="#CMR17-6e" transform="translate(2017.083596 0)scale(0.996264)"/>
     <use xlink:href="#CMR17-67" transform="translate(2067.978966 0)scale(0.996264)"/>
     <use xlink:href="#CMR17-6c" transform="translate(2113.669443 0)scale(0.996264)"/>
     <use xlink:href="#CMR17-65" transform="translate(2138.540501 0)scale(0.996264)"/>
     <use xlink:href="#CMR17-73" transform="translate(2179.026162 0)scale(0.996264)"/>
    </g>
   </g>
   <g id="legend_1">
    <g id="patch_7">
     <path d="M 384.803031 185.999059 
L 448.304281 185.999059 
Q 450.304281 185.999059 450.304281 183.999059 
L 450.304281 30.0005 
Q 450.304281 28.0005 448.304281 28.0005 
L 384.803031 28.0005 
Q 382.803031 28.0005 382.803031 30.0005 
L 382.803031 183.999059 
Q 382.803031 185.999059 384.803031 185.999059 
z
" style="fill: #808080; opacity: 0.8; stroke: #cccccc; stroke-linejoin: miter"/>
    </g>
    <g id="text_22">
     <!-- Nadir angle -->
     <g transform="translate(386.803031 40.30268)scale(0.12 -0.12)">
      <use xlink:href="#CMR17-4e" transform="scale(0.996264)"/>
      <use xlink:href="#CMR17-61" transform="translate(69.07243 0)scale(0.996264)"/>
      <use xlink:href="#CMR17-64" transform="translate(114.762907 0)scale(0.996264)"/>
      <use xlink:href="#CMR17-69" transform="translate(165.658277 0)scale(0.996264)"/>
      <use xlink:href="#CMR17-72" transform="translate(190.529335 0)scale(0.996264)"/>
      <use xlink:href="#CMR17-61" transform="translate(255.886069 0)scale(0.996264)"/>
      <use xlink:href="#CMR17-6e" transform="translate(301.576546 0)scale(0.996264)"/>
      <use xlink:href="#CMR17-67" transform="translate(352.471916 0)scale(0.996264)"/>
      <use xlink:href="#CMR17-6c" transform="translate(398.162393 0)scale(0.996264)"/>
      <use xlink:href="#CMR17-65" transform="translate(423.033452 0)scale(0.996264)"/>
     </g>
    </g>
    <g id="line2d_28">
     <path d="M 391.484569 51.127276 
L 401.484569 51.127276 
L 411.484569 51.127276 
" style="fill: none; stroke: #231526; stroke-width: 2; stroke-linecap: square"/>
    </g>
    <g id="text_23">
     <!-- 90.0 -->
     <g transform="translate(419.484569 54.627276)scale(0.1 -0.1)">
      <defs>
       <path id="CMR17-39" d="M 2253 1871 
C 2253 448 1670 25 1190 25 
C 1043 25 685 43 538 281 
C 704 256 826 345 826 505 
C 826 678 685 736 595 736 
C 538 736 365 710 365 492 
C 365 68 742 -128 1203 -128 
C 1939 -128 2688 665 2688 2090 
C 2688 3857 1971 4224 1485 4224 
C 851 4224 243 3664 243 2800 
C 243 2000 762 1408 1414 1408 
C 1952 1408 2189 1910 2253 2122 
L 2253 1871 
z
M 1427 1510 
C 1254 1510 1011 1542 813 1929 
C 678 2181 678 2477 678 2793 
C 678 3174 678 3438 858 3722 
C 947 3857 1114 4076 1485 4076 
C 2240 4076 2240 2909 2240 2651 
C 2240 2193 2035 1510 1427 1510 
z
" transform="scale(0.015625)"/>
       <path id="CMR17-2e" d="M 1062 262 
C 1062 422 934 524 800 524 
C 672 524 538 422 538 262 
C 538 102 666 0 800 0 
C 928 0 1062 102 1062 262 
z
" transform="scale(0.015625)"/>
       <path id="SFRM3583-ba" d="M 1203 4864 
C 595 4780 237 4193 237 3599 
C 237 3019 627 2348 1267 2348 
C 1926 2348 2310 3006 2310 3599 
C 2310 4169 1926 4864 1280 4864 
C 1254 4870 1229 4864 1203 4864 
z
M 563 3470 
L 563 3573 
C 563 3993 589 4464 1011 4722 
C 1094 4767 1184 4786 1267 4786 
C 1805 4786 1984 4154 1984 3709 
C 1984 3251 1971 2670 1414 2457 
C 1370 2444 1318 2438 1274 2438 
C 864 2438 640 2857 582 3251 
C 576 3322 576 3399 563 3470 
z
M 307 2182 
C 294 2176 288 2163 288 2156 
C 288 2137 320 2118 339 2112 
L 2189 2112 
C 2227 2112 2259 2118 2259 2156 
C 2259 2188 2195 2188 2176 2188 
L 442 2188 
C 422 2188 390 2195 365 2195 
C 346 2195 326 2188 307 2182 
z
" transform="scale(0.015625)"/>
      </defs>
      <use xlink:href="#CMR17-39" transform="scale(0.996264)"/>
      <use xlink:href="#CMR17-30" transform="translate(45.690477 0)scale(0.996264)"/>
      <use xlink:href="#CMR17-2e" transform="translate(91.380954 0)scale(0.996264)"/>
      <use xlink:href="#CMR17-30" transform="translate(116.252013 0)scale(0.996264)"/>
      <use xlink:href="#SFRM3583-ba" transform="translate(161.94249 0)scale(0.356961)"/>
     </g>
    </g>
    <g id="line2d_29">
     <path d="M 391.484569 65.064454 
L 401.484569 65.064454 
L 411.484569 65.064454 
" style="fill: none; stroke: #35264c; stroke-width: 2; stroke-linecap: square"/>
    </g>
    <g id="text_24">
     <!-- 81.0 -->
     <g transform="translate(419.484569 68.564454)scale(0.1 -0.1)">
      <use xlink:href="#CMR17-38" transform="scale(0.996264)"/>
      <use xlink:href="#CMR17-31" transform="translate(45.690477 0)scale(0.996264)"/>
      <use xlink:href="#CMR17-2e" transform="translate(91.380954 0)scale(0.996264)"/>
      <use xlink:href="#CMR17-30" transform="translate(116.252013 0)scale(0.996264)"/>
      <use xlink:href="#SFRM3583-ba" transform="translate(161.94249 0)scale(0.356961)"/>
     </g>
    </g>
    <g id="line2d_30">
     <path d="M 391.484569 79.001632 
L 401.484569 79.001632 
L 411.484569 79.001632 
" style="fill: none; stroke: #403974; stroke-width: 2; stroke-linecap: square"/>
    </g>
    <g id="text_25">
     <!-- 72.0 -->
     <g transform="translate(419.484569 82.501632)scale(0.1 -0.1)">
      <defs>
       <path id="CMR17-37" d="M 2886 3955 
L 2886 4096 
L 1382 4096 
C 634 4096 621 4166 595 4288 
L 480 4288 
L 294 3104 
L 410 3104 
C 429 3226 474 3552 550 3673 
C 589 3724 1062 3724 1171 3724 
L 2579 3724 
L 1869 2670 
C 1395 1961 1069 1003 1069 166 
C 1069 89 1069 -128 1299 -128 
C 1530 -128 1530 89 1530 172 
L 1530 466 
C 1530 1514 1709 2204 2003 2644 
L 2886 3955 
z
" transform="scale(0.015625)"/>
      </defs>
      <use xlink:href="#CMR17-37" transform="scale(0.996264)"/>
      <use xlink:href="#CMR17-32" transform="translate(45.690477 0)scale(0.996264)"/>
      <use xlink:href="#CMR17-2e" transform="translate(91.380954 0)scale(0.996264)"/>
      <use xlink:href="#CMR17-30" transform="translate(116.252013 0)scale(0.996264)"/>
      <use xlink:href="#SFRM3583-ba" transform="translate(161.94249 0)scale(0.356961)"/>
     </g>
    </g>
    <g id="line2d_31">
     <path d="M 391.484569 92.938811 
L 401.484569 92.938811 
L 411.484569 92.938811 
" style="fill: none; stroke: #3d5296; stroke-width: 2; stroke-linecap: square"/>
    </g>
    <g id="text_26">
     <!-- 63.0 -->
     <g transform="translate(419.484569 96.438811)scale(0.1 -0.1)">
      <use xlink:href="#CMR17-36" transform="scale(0.996264)"/>
      <use xlink:href="#CMR17-33" transform="translate(45.690477 0)scale(0.996264)"/>
      <use xlink:href="#CMR17-2e" transform="translate(91.380954 0)scale(0.996264)"/>
      <use xlink:href="#CMR17-30" transform="translate(116.252013 0)scale(0.996264)"/>
      <use xlink:href="#SFRM3583-ba" transform="translate(161.94249 0)scale(0.356961)"/>
     </g>
    </g>
    <g id="line2d_32">
     <path d="M 391.484569 106.875989 
L 401.484569 106.875989 
L 411.484569 106.875989 
" style="fill: none; stroke: #366da0; stroke-width: 2; stroke-linecap: square"/>
    </g>
    <g id="text_27">
     <!-- 54.0 -->
     <g transform="translate(419.484569 110.375989)scale(0.1 -0.1)">
      <defs>
       <path id="CMR17-35" d="M 730 3750 
C 794 3724 1056 3641 1325 3641 
C 1920 3641 2246 3961 2432 4140 
C 2432 4191 2432 4224 2394 4224 
C 2387 4224 2374 4224 2323 4198 
C 2099 4102 1837 4032 1517 4032 
C 1325 4032 1037 4055 723 4191 
C 653 4224 640 4224 634 4224 
C 602 4224 595 4217 595 4090 
L 595 2231 
C 595 2113 595 2080 659 2080 
C 691 2080 704 2093 736 2139 
C 941 2435 1222 2560 1542 2560 
C 1766 2560 2246 2415 2246 1293 
C 2246 1087 2246 716 2054 422 
C 1894 159 1645 25 1370 25 
C 947 25 518 319 403 812 
C 429 806 480 793 506 793 
C 589 793 749 838 749 1036 
C 749 1209 627 1280 506 1280 
C 358 1280 262 1190 262 1011 
C 262 454 704 -128 1382 -128 
C 2042 -128 2669 441 2669 1267 
C 2669 2054 2170 2662 1549 2662 
C 1222 2662 947 2540 730 2304 
L 730 3750 
z
" transform="scale(0.015625)"/>
      </defs>
      <use xlink:href="#CMR17-35" transform="scale(0.996264)"/>
      <use xlink:href="#CMR17-34" transform="translate(45.690477 0)scale(0.996264)"/>
      <use xlink:href="#CMR17-2e" transform="translate(91.380954 0)scale(0.996264)"/>
      <use xlink:href="#CMR17-30" transform="translate(116.252013 0)scale(0.996264)"/>
      <use xlink:href="#SFRM3583-ba" transform="translate(161.94249 0)scale(0.356961)"/>
     </g>
    </g>
    <g id="line2d_33">
     <path d="M 391.484569 120.813167 
L 401.484569 120.813167 
L 411.484569 120.813167 
" style="fill: none; stroke: #3487a6; stroke-width: 2; stroke-linecap: square"/>
    </g>
    <g id="text_28">
     <!-- 45.0 -->
     <g transform="translate(419.484569 124.313167)scale(0.1 -0.1)">
      <use xlink:href="#CMR17-34" transform="scale(0.996264)"/>
      <use xlink:href="#CMR17-35" transform="translate(45.690477 0)scale(0.996264)"/>
      <use xlink:href="#CMR17-2e" transform="translate(91.380954 0)scale(0.996264)"/>
      <use xlink:href="#CMR17-30" transform="translate(116.252013 0)scale(0.996264)"/>
      <use xlink:href="#SFRM3583-ba" transform="translate(161.94249 0)scale(0.356961)"/>
     </g>
    </g>
    <g id="line2d_34">
     <path d="M 391.484569 134.750346 
L 401.484569 134.750346 
L 411.484569 134.750346 
" style="fill: none; stroke: #35a1ab; stroke-width: 2; stroke-linecap: square"/>
    </g>
    <g id="text_29">
     <!-- 36.0 -->
     <g transform="translate(419.484569 138.250346)scale(0.1 -0.1)">
      <use xlink:href="#CMR17-33" transform="scale(0.996264)"/>
      <use xlink:href="#CMR17-36" transform="translate(45.690477 0)scale(0.996264)"/>
      <use xlink:href="#CMR17-2e" transform="translate(91.380954 0)scale(0.996264)"/>
      <use xlink:href="#CMR17-30" transform="translate(116.252013 0)scale(0.996264)"/>
      <use xlink:href="#SFRM3583-ba" transform="translate(161.94249 0)scale(0.356961)"/>
     </g>
    </g>
    <g id="line2d_35">
     <path d="M 391.484569 148.687524 
L 401.484569 148.687524 
L 411.484569 148.687524 
" style="fill: none; stroke: #44bcad; stroke-width: 2; stroke-linecap: square"/>
    </g>
    <g id="text_30">
     <!-- 27.0 -->
     <g transform="translate(419.484569 152.187524)scale(0.1 -0.1)">
      <use xlink:href="#CMR17-32" transform="scale(0.996264)"/>
      <use xlink:href="#CMR17-37" transform="translate(45.690477 0)scale(0.996264)"/>
      <use xlink:href="#CMR17-2e" transform="translate(91.380954 0)scale(0.996264)"/>
      <use xlink:href="#CMR17-30" transform="translate(116.252013 0)scale(0.996264)"/>
      <use xlink:href="#SFRM3583-ba" transform="translate(161.94249 0)scale(0.356961)"/>
     </g>
    </g>
    <g id="line2d_36">
     <path d="M 391.484569 162.624702 
L 401.484569 162.624702 
L 411.484569 162.624702 
" style="fill: none; stroke: #6dd3ad; stroke-width: 2; stroke-linecap: square"/>
    </g>
    <g id="text_31">
     <!-- 18.0 -->
     <g transform="translate(419.484569 166.124702)scale(0.1 -0.1)">
      <use xlink:href="#CMR17-31" transform="scale(0.996264)"/>
      <use xlink:href="#CMR17-38" transform="translate(45.690477 0)scale(0.996264)"/>
      <use xlink:href="#CMR17-2e" transform="translate(91.380954 0)scale(0.996264)"/>
      <use xlink:href="#CMR17-30" transform="translate(116.252013 0)scale(0.996264)"/>
      <use xlink:href="#SFRM3583-ba" transform="translate(161.94249 0)scale(0.356961)"/>
     </g>
    </g>
    <g id="line2d_37">
     <path d="M 391.484569 176.561881 
L 401.484569 176.561881 
L 411.484569 176.561881 
" style="fill: none; stroke: #aee3c0; stroke-width: 2; stroke-linecap: square"/>
    </g>
    <g id="text_32">
     <!-- 9.0 -->
     <g transform="translate(419.484569 180.061881)scale(0.1 -0.1)">
      <use xlink:href="#CMR17-39" transform="scale(0.996264)"/>
      <use xlink:href="#CMR17-2e" transform="translate(45.690477 0)scale(0.996264)"/>
      <use xlink:href="#CMR17-30" transform="translate(70.561536 0)scale(0.996264)"/>
      <use xlink:href="#SFRM3583-ba" transform="translate(116.252013 0)scale(0.356961)"/>
     </g>
    </g>
   </g>
  </g>
 </g>
 <defs>
  <clipPath id="pe0c6f56447">
   <rect x="43.003031" y="29.6533" width="334.8" height="221.76"/>
  </clipPath>
 </defs>
</svg>
