<?xml version="1.0" encoding="utf-8" standalone="no"?>
<!DOCTYPE svg PUBLIC "-//W3C//DTD SVG 1.1//EN"
  "http://www.w3.org/Graphics/SVG/1.1/DTD/svg11.dtd">
<svg xmlns:xlink="http://www.w3.org/1999/xlink" width="568.8pt" height="453.756997pt" viewBox="0 0 568.8 453.756997" xmlns="http://www.w3.org/2000/svg" version="1.1">
 <metadata>
  <rdf:RDF xmlns:dc="http://purl.org/dc/elements/1.1/" xmlns:cc="http://creativecommons.org/ns#" xmlns:rdf="http://www.w3.org/1999/02/22-rdf-syntax-ns#">
   <cc:Work>
    <dc:type rdf:resource="http://purl.org/dc/dcmitype/StillImage"/>
    <dc:date>2023-03-28T22:42:45.667162</dc:date>
    <dc:format>image/svg+xml</dc:format>
    <dc:creator>
     <cc:Agent>
      <dc:title>Matplotlib v3.5.2, https://matplotlib.org/</dc:title>
     </cc:Agent>
    </dc:creator>
   </cc:Work>
  </rdf:RDF>
 </metadata>
 <defs>
  <style type="text/css">*{stroke-linejoin: round; stroke-linecap: butt}</style>
 </defs>
 <g id="figure_1">
  <g id="patch_1">
   <path d="M 0 453.756997 
L 568.8 453.756997 
L 568.8 0 
L 0 0 
z
" style="fill: #ffffff"/>
  </g>
  <g id="axes_1">
   <g id="patch_2">
    <path d="M 67.829274 204.146152 
L 556.618665 204.146152 
L 556.618665 51.842873 
L 67.829274 51.842873 
z
" style="fill: #ffffff"/>
   </g>
   <g id="matplotlib.axis_1">
    <g id="xtick_1">
     <g id="line2d_1">
      <defs>
       <path id="m05cbffed54" d="M 0 0 
L 0 3.5 
" style="stroke: #000000; stroke-width: 0.8"/>
      </defs>
      <g>
       <use xlink:href="#m05cbffed54" x="67.829274" y="204.146152" style="stroke: #000000; stroke-width: 0.8"/>
      </g>
     </g>
     <g id="text_1">
      <!-- $\mathdefault{0}$ -->
      <g transform="translate(65.338607 218.06465)scale(0.1 -0.1)">
       <defs>
        <path id="CMR17-30" d="M 2688 2038 
C 2688 2430 2682 3099 2413 3613 
C 2176 4063 1798 4224 1466 4224 
C 1158 4224 768 4082 525 3620 
C 269 3137 243 2539 243 2038 
C 243 1671 250 1112 448 623 
C 723 -39 1216 -128 1466 -128 
C 1760 -128 2208 -7 2470 604 
C 2662 1048 2688 1568 2688 2038 
z
M 1466 -26 
C 1056 -26 813 328 723 816 
C 653 1196 653 1749 653 2109 
C 653 2604 653 3015 736 3407 
C 858 3954 1216 4121 1466 4121 
C 1728 4121 2067 3947 2189 3420 
C 2272 3054 2278 2623 2278 2109 
C 2278 1691 2278 1176 2202 797 
C 2067 96 1690 -26 1466 -26 
z
" transform="scale(0.015625)"/>
       </defs>
       <use xlink:href="#CMR17-30" transform="scale(0.996264)"/>
      </g>
     </g>
    </g>
    <g id="xtick_2">
     <g id="line2d_2">
      <g>
       <use xlink:href="#m05cbffed54" x="165.587152" y="204.146152" style="stroke: #000000; stroke-width: 0.8"/>
      </g>
     </g>
     <g id="text_2">
      <!-- $\mathdefault{10}$ -->
      <g transform="translate(160.605817 218.06465)scale(0.1 -0.1)">
       <defs>
        <path id="CMR17-31" d="M 1702 4083 
C 1702 4217 1696 4224 1606 4224 
C 1357 3927 979 3833 621 3820 
C 602 3820 570 3820 563 3808 
C 557 3795 557 3782 557 3648 
C 755 3648 1088 3686 1344 3839 
L 1344 467 
C 1344 243 1331 166 781 166 
L 589 166 
L 589 0 
C 896 6 1216 12 1523 12 
C 1830 12 2150 6 2458 0 
L 2458 166 
L 2266 166 
C 1715 166 1702 236 1702 467 
L 1702 4083 
z
" transform="scale(0.015625)"/>
       </defs>
       <use xlink:href="#CMR17-31" transform="scale(0.996264)"/>
       <use xlink:href="#CMR17-30" transform="translate(45.690477 0)scale(0.996264)"/>
      </g>
     </g>
    </g>
    <g id="xtick_3">
     <g id="line2d_3">
      <g>
       <use xlink:href="#m05cbffed54" x="263.34503" y="204.146152" style="stroke: #000000; stroke-width: 0.8"/>
      </g>
     </g>
     <g id="text_3">
      <!-- $\mathdefault{20}$ -->
      <g transform="translate(258.363695 218.06465)scale(0.1 -0.1)">
       <defs>
        <path id="CMR17-32" d="M 2669 990 
L 2554 990 
C 2490 537 2438 460 2413 422 
C 2381 371 1920 371 1830 371 
L 602 371 
C 832 620 1280 1073 1824 1596 
C 2214 1966 2669 2400 2669 3033 
C 2669 3788 2067 4224 1395 4224 
C 691 4224 262 3603 262 3027 
C 262 2777 448 2745 525 2745 
C 589 2745 781 2783 781 3007 
C 781 3206 614 3264 525 3264 
C 486 3264 448 3257 422 3244 
C 544 3788 915 4057 1306 4057 
C 1862 4057 2227 3616 2227 3033 
C 2227 2477 1901 1998 1536 1583 
L 262 147 
L 262 0 
L 2515 0 
L 2669 990 
z
" transform="scale(0.015625)"/>
       </defs>
       <use xlink:href="#CMR17-32" transform="scale(0.996264)"/>
       <use xlink:href="#CMR17-30" transform="translate(45.690477 0)scale(0.996264)"/>
      </g>
     </g>
    </g>
    <g id="xtick_4">
     <g id="line2d_4">
      <g>
       <use xlink:href="#m05cbffed54" x="361.102909" y="204.146152" style="stroke: #000000; stroke-width: 0.8"/>
      </g>
     </g>
     <g id="text_4">
      <!-- $\mathdefault{30}$ -->
      <g transform="translate(356.121573 218.06465)scale(0.1 -0.1)">
       <defs>
        <path id="CMR17-33" d="M 1414 2176 
C 1984 2176 2234 1673 2234 1094 
C 2234 322 1824 25 1453 25 
C 1114 25 563 193 390 691 
C 422 678 454 678 486 678 
C 640 678 755 780 755 947 
C 755 1132 614 1216 486 1216 
C 378 1216 211 1164 211 927 
C 211 335 787 -128 1466 -128 
C 2176 -128 2720 432 2720 1087 
C 2720 1718 2208 2176 1600 2246 
C 2086 2347 2554 2776 2554 3353 
C 2554 3856 2048 4224 1472 4224 
C 890 4224 378 3862 378 3347 
C 378 3123 544 3084 627 3084 
C 762 3084 877 3167 877 3334 
C 877 3500 762 3584 627 3584 
C 602 3584 570 3584 544 3571 
C 730 3999 1235 4076 1459 4076 
C 1683 4076 2106 3966 2106 3347 
C 2106 3167 2080 2851 1862 2574 
C 1670 2329 1453 2316 1242 2297 
C 1210 2297 1062 2284 1037 2284 
C 992 2278 966 2272 966 2227 
C 966 2182 973 2176 1101 2176 
L 1414 2176 
z
" transform="scale(0.015625)"/>
       </defs>
       <use xlink:href="#CMR17-33" transform="scale(0.996264)"/>
       <use xlink:href="#CMR17-30" transform="translate(45.690477 0)scale(0.996264)"/>
      </g>
     </g>
    </g>
    <g id="xtick_5">
     <g id="line2d_5">
      <g>
       <use xlink:href="#m05cbffed54" x="458.860787" y="204.146152" style="stroke: #000000; stroke-width: 0.8"/>
      </g>
     </g>
     <g id="text_5">
      <!-- $\mathdefault{40}$ -->
      <g transform="translate(453.879451 218.06465)scale(0.1 -0.1)">
       <defs>
        <path id="CMR17-34" d="M 2150 4147 
C 2150 4281 2144 4288 2029 4288 
L 128 1254 
L 128 1088 
L 1779 1088 
L 1779 460 
C 1779 230 1766 166 1318 166 
L 1197 166 
L 1197 0 
C 1402 12 1747 12 1965 12 
C 2182 12 2528 12 2733 0 
L 2733 166 
L 2611 166 
C 2163 166 2150 230 2150 460 
L 2150 1088 
L 2803 1088 
L 2803 1254 
L 2150 1254 
L 2150 4147 
z
M 1798 3723 
L 1798 1254 
L 256 1254 
L 1798 3723 
z
" transform="scale(0.015625)"/>
       </defs>
       <use xlink:href="#CMR17-34" transform="scale(0.996264)"/>
       <use xlink:href="#CMR17-30" transform="translate(45.690477 0)scale(0.996264)"/>
      </g>
     </g>
    </g>
    <g id="xtick_6">
     <g id="line2d_6">
      <g>
       <use xlink:href="#m05cbffed54" x="556.618665" y="204.146152" style="stroke: #000000; stroke-width: 0.8"/>
      </g>
     </g>
     <g id="text_6">
      <!-- $\mathdefault{50}$ -->
      <g transform="translate(551.637329 218.06465)scale(0.1 -0.1)">
       <defs>
        <path id="CMR17-35" d="M 730 3750 
C 794 3724 1056 3641 1325 3641 
C 1920 3641 2246 3961 2432 4140 
C 2432 4191 2432 4224 2394 4224 
C 2387 4224 2374 4224 2323 4198 
C 2099 4102 1837 4032 1517 4032 
C 1325 4032 1037 4055 723 4191 
C 653 4224 640 4224 634 4224 
C 602 4224 595 4217 595 4090 
L 595 2231 
C 595 2113 595 2080 659 2080 
C 691 2080 704 2093 736 2139 
C 941 2435 1222 2560 1542 2560 
C 1766 2560 2246 2415 2246 1293 
C 2246 1087 2246 716 2054 422 
C 1894 159 1645 25 1370 25 
C 947 25 518 319 403 812 
C 429 806 480 793 506 793 
C 589 793 749 838 749 1036 
C 749 1209 627 1280 506 1280 
C 358 1280 262 1190 262 1011 
C 262 454 704 -128 1382 -128 
C 2042 -128 2669 441 2669 1267 
C 2669 2054 2170 2662 1549 2662 
C 1222 2662 947 2540 730 2304 
L 730 3750 
z
" transform="scale(0.015625)"/>
       </defs>
       <use xlink:href="#CMR17-35" transform="scale(0.996264)"/>
       <use xlink:href="#CMR17-30" transform="translate(45.690477 0)scale(0.996264)"/>
      </g>
     </g>
    </g>
    <g id="text_7">
     <!-- $E_\nu [\mathrm{MeV}]$ -->
     <g transform="translate(289.615179 232.968205)scale(0.12 -0.12)">
      <defs>
       <path id="CMMI12-45" d="M 4448 1489 
C 4454 1508 4474 1553 4474 1578 
C 4474 1611 4448 1643 4410 1643 
C 4384 1643 4371 1636 4352 1617 
C 4339 1611 4339 1598 4282 1469 
C 3904 570 3629 185 2605 185 
L 1670 185 
C 1581 185 1568 185 1530 192 
C 1459 198 1453 211 1453 262 
C 1453 307 1466 346 1478 403 
L 1920 2176 
L 2554 2176 
C 3053 2176 3091 2066 3091 1874 
C 3091 1810 3091 1752 3046 1559 
C 3034 1534 3027 1508 3027 1489 
C 3027 1444 3059 1424 3098 1424 
C 3155 1424 3162 1469 3187 1559 
L 3552 3036 
C 3552 3068 3526 3099 3488 3099 
C 3430 3099 3424 3074 3398 2986 
C 3270 2500 3142 2361 2573 2361 
L 1965 2361 
L 2362 3913 
C 2419 4134 2432 4153 2694 4153 
L 3610 4153 
C 4397 4153 4557 3945 4557 3465 
C 4557 3459 4557 3282 4531 3074 
C 4525 3049 4518 3011 4518 2998 
C 4518 2948 4550 2929 4589 2929 
C 4634 2929 4659 2954 4672 3068 
L 4806 4172 
C 4806 4191 4819 4255 4819 4268 
C 4819 4339 4762 4339 4646 4339 
L 1523 4339 
C 1402 4339 1338 4339 1338 4223 
C 1338 4153 1382 4153 1491 4153 
C 1888 4153 1888 4109 1888 4039 
C 1888 4008 1882 3983 1862 3913 
L 998 474 
C 941 249 928 185 480 185 
C 358 185 294 185 294 70 
C 294 0 333 0 461 0 
L 3674 0 
C 3814 0 3821 6 3866 108 
L 4448 1489 
z
" transform="scale(0.015625)"/>
       <path id="CMMI12-17" d="M 1408 2751 
C 1408 2777 1389 2816 1338 2816 
C 1293 2816 691 2758 595 2751 
C 525 2745 461 2739 461 2623 
C 461 2559 512 2559 602 2559 
C 902 2559 922 2515 922 2445 
C 922 2419 909 2343 902 2317 
L 339 64 
C 339 38 358 0 403 0 
L 538 0 
C 627 0 1600 230 2349 996 
C 3174 1845 3290 2630 3290 2655 
C 3290 2758 3206 2816 3123 2816 
C 2938 2816 2893 2643 2880 2598 
C 2502 1264 1626 472 774 192 
L 1408 2751 
z
" transform="scale(0.015625)"/>
       <path id="CMR17-5b" d="M 1504 -1600 
L 1504 -1376 
L 902 -1376 
L 902 4575 
L 1504 4575 
L 1504 4800 
L 678 4800 
L 678 -1600 
L 1504 -1600 
z
" transform="scale(0.015625)"/>
       <path id="CMR17-4d" d="M 1338 4249 
C 1299 4345 1293 4352 1158 4352 
L 339 4352 
L 339 4185 
C 781 4185 851 4185 851 3898 
L 851 624 
C 851 465 851 166 339 166 
L 339 0 
C 486 12 755 12 915 12 
C 1075 12 1344 12 1491 0 
L 1491 166 
C 979 166 979 465 979 624 
L 979 4159 
L 986 4159 
L 2490 102 
C 2515 38 2528 0 2579 0 
C 2630 0 2643 38 2669 102 
L 4186 4191 
L 4192 4191 
L 4192 453 
C 4192 166 4122 166 3680 166 
L 3680 0 
C 3853 12 4198 12 4384 12 
C 4570 12 4922 12 5094 0 
L 5094 166 
C 4653 166 4582 166 4582 453 
L 4582 3898 
C 4582 4185 4653 4185 5094 4185 
L 5094 4352 
L 4282 4352 
C 4147 4352 4141 4345 4102 4249 
L 2720 516 
L 1338 4249 
z
" transform="scale(0.015625)"/>
       <path id="CMR17-65" d="M 2438 1503 
C 2464 1529 2464 1542 2464 1606 
C 2464 2251 2118 2816 1389 2816 
C 710 2816 173 2175 173 1394 
C 173 554 781 -64 1459 -64 
C 2176 -64 2458 619 2458 755 
C 2458 800 2419 800 2406 800 
C 2362 800 2355 787 2330 709 
C 2189 270 1837 51 1504 51 
C 1229 51 954 206 781 490 
C 582 819 582 1200 582 1503 
L 2438 1503 
z
M 589 1600 
C 634 2511 1126 2713 1382 2713 
C 1818 2713 2112 2308 2118 1600 
L 589 1600 
z
" transform="scale(0.015625)"/>
       <path id="CMR17-56" d="M 3776 3762 
C 3834 3903 3936 4179 4365 4185 
L 4365 4352 
C 4218 4339 4051 4339 3891 4339 
C 3738 4339 3475 4339 3328 4352 
L 3328 4185 
C 3648 4166 3661 3942 3661 3903 
C 3661 3833 3642 3788 3622 3737 
L 2362 448 
L 1043 3903 
C 1024 3948 1011 3980 1011 4012 
C 1011 4185 1267 4185 1402 4185 
L 1402 4352 
C 1197 4339 896 4339 685 4339 
C 518 4339 218 4339 64 4352 
L 64 4185 
C 435 4185 506 4160 582 3955 
L 2106 -26 
C 2138 -116 2144 -128 2214 -128 
C 2285 -128 2291 -116 2323 -26 
L 3776 3762 
z
" transform="scale(0.015625)"/>
       <path id="CMR17-5d" d="M 915 4800 
L 90 4800 
L 90 4575 
L 691 4575 
L 691 -1376 
L 90 -1376 
L 90 -1600 
L 915 -1600 
L 915 4800 
z
" transform="scale(0.015625)"/>
      </defs>
      <use xlink:href="#CMMI12-45" transform="scale(0.996264)"/>
      <use xlink:href="#CMMI12-17" transform="translate(72.211218 -14.943915)scale(0.697382)"/>
      <use xlink:href="#CMR17-5b" transform="translate(110.847141 0)scale(0.996264)"/>
      <use xlink:href="#CMR17-4d" transform="translate(135.718199 0)scale(0.996264)"/>
      <use xlink:href="#CMR17-65" transform="translate(220.40514 0)scale(0.996264)"/>
      <use xlink:href="#CMR17-56" transform="translate(260.8908 0)scale(0.996264)"/>
      <use xlink:href="#CMR17-5d" transform="translate(331.264396 0)scale(0.996264)"/>
     </g>
    </g>
   </g>
   <g id="matplotlib.axis_2">
    <g id="ytick_1">
     <g id="line2d_7">
      <defs>
       <path id="m27c2cb9437" d="M 0 0 
L -3.5 0 
" style="stroke: #000000; stroke-width: 0.8"/>
      </defs>
      <g>
       <use xlink:href="#m27c2cb9437" x="67.829274" y="204.146152" style="stroke: #000000; stroke-width: 0.8"/>
      </g>
     </g>
     <g id="text_8">
      <!-- 0 -->
      <g transform="translate(55.847939 207.605401)scale(0.1 -0.1)">
       <use xlink:href="#CMR17-30" transform="scale(0.996264)"/>
      </g>
     </g>
    </g>
    <g id="ytick_2">
     <g id="line2d_8">
      <g>
       <use xlink:href="#m27c2cb9437" x="67.829274" y="173.685496" style="stroke: #000000; stroke-width: 0.8"/>
      </g>
     </g>
     <g id="text_9">
      <!-- 1 -->
      <g transform="translate(55.847939 177.144745)scale(0.1 -0.1)">
       <use xlink:href="#CMR17-31" transform="scale(0.996264)"/>
      </g>
     </g>
    </g>
    <g id="ytick_3">
     <g id="line2d_9">
      <g>
       <use xlink:href="#m27c2cb9437" x="67.829274" y="143.22484" style="stroke: #000000; stroke-width: 0.8"/>
      </g>
     </g>
     <g id="text_10">
      <!-- 2 -->
      <g transform="translate(55.847939 146.68409)scale(0.1 -0.1)">
       <use xlink:href="#CMR17-32" transform="scale(0.996264)"/>
      </g>
     </g>
    </g>
    <g id="ytick_4">
     <g id="line2d_10">
      <g>
       <use xlink:href="#m27c2cb9437" x="67.829274" y="112.764185" style="stroke: #000000; stroke-width: 0.8"/>
      </g>
     </g>
     <g id="text_11">
      <!-- 3 -->
      <g transform="translate(55.847939 116.223434)scale(0.1 -0.1)">
       <use xlink:href="#CMR17-33" transform="scale(0.996264)"/>
      </g>
     </g>
    </g>
    <g id="ytick_5">
     <g id="line2d_11">
      <g>
       <use xlink:href="#m27c2cb9437" x="67.829274" y="82.303529" style="stroke: #000000; stroke-width: 0.8"/>
      </g>
     </g>
     <g id="text_12">
      <!-- 4 -->
      <g transform="translate(55.847939 85.762778)scale(0.1 -0.1)">
       <use xlink:href="#CMR17-34" transform="scale(0.996264)"/>
      </g>
     </g>
    </g>
    <g id="ytick_6">
     <g id="line2d_12">
      <g>
       <use xlink:href="#m27c2cb9437" x="67.829274" y="51.842873" style="stroke: #000000; stroke-width: 0.8"/>
      </g>
     </g>
     <g id="text_13">
      <!-- 5 -->
      <g transform="translate(55.847939 55.302122)scale(0.1 -0.1)">
       <use xlink:href="#CMR17-35" transform="scale(0.996264)"/>
      </g>
     </g>
    </g>
    <g id="text_14">
     <!-- $\phi(E) \left[\times 10^{11} \mathrm{MeV}^{-1}.\mathrm{cm}^{-2} \right]$ -->
     <g transform="translate(47.663557 194.51397)rotate(-90)scale(0.12 -0.12)">
      <defs>
       <path id="CMMI12-1e" d="M 2752 4358 
C 2752 4416 2707 4416 2688 4416 
C 2630 4416 2624 4403 2598 4294 
L 2253 2924 
C 2234 2841 2227 2835 2221 2828 
C 2214 2816 2170 2809 2157 2809 
C 1107 2720 301 1863 301 1071 
C 301 387 832 -32 1498 -71 
C 1446 -266 1402 -467 1350 -662 
C 1261 -995 1210 -1204 1210 -1229 
C 1210 -1242 1210 -1280 1274 -1280 
C 1293 -1280 1318 -1280 1331 -1255 
C 1344 -1242 1382 -1089 1408 -1008 
L 1645 -71 
C 2739 -13 3571 875 3571 1673 
C 3571 2313 3085 2771 2374 2816 
L 2752 4358 
z
M 2336 2688 
C 2758 2662 3181 2428 3181 1806 
C 3181 1090 2675 140 1677 64 
L 2336 2688 
z
M 1530 57 
C 1216 76 691 241 691 938 
C 691 1737 1274 2624 2195 2681 
L 1530 57 
z
" transform="scale(0.015625)"/>
       <path id="CMR17-28" d="M 1958 -1562 
C 1958 -1556 1958 -1543 1939 -1524 
C 1645 -1223 858 -403 858 1596 
C 858 3595 1632 4408 1946 4729 
C 1946 4735 1958 4748 1958 4767 
C 1958 4787 1939 4800 1914 4800 
C 1843 4800 1299 4325 986 3620 
C 666 2909 576 2218 576 1603 
C 576 1141 621 360 1005 -467 
C 1312 -1133 1837 -1600 1914 -1600 
C 1946 -1600 1958 -1588 1958 -1562 
z
" transform="scale(0.015625)"/>
       <path id="CMR17-29" d="M 1683 1596 
C 1683 2057 1638 2839 1254 3665 
C 947 4332 422 4800 346 4800 
C 326 4800 301 4793 301 4761 
C 301 4748 307 4742 314 4729 
C 621 4408 1402 3595 1402 1603 
C 1402 -396 627 -1210 314 -1530 
C 307 -1543 301 -1549 301 -1562 
C 301 -1594 326 -1600 346 -1600 
C 416 -1600 960 -1127 1274 -422 
C 1594 289 1683 981 1683 1596 
z
" transform="scale(0.015625)"/>
       <path id="CMEX10-2" d="M 1293 -7424 
L 2522 -7424 
L 2522 -7168 
L 1549 -7168 
L 1549 0 
L 2522 0 
L 2522 256 
L 1293 256 
L 1293 -7424 
z
" transform="scale(0.015625)"/>
       <path id="CMSY10-2" d="M 2490 1775 
L 1210 3046 
C 1133 3123 1120 3136 1069 3136 
C 1005 3136 941 3078 941 3008 
C 941 2963 954 2950 1024 2880 
L 2304 1596 
L 1024 313 
C 954 243 941 230 941 185 
C 941 115 1005 57 1069 57 
C 1120 57 1133 70 1210 147 
L 2483 1418 
L 3808 95 
C 3821 89 3866 57 3904 57 
C 3981 57 4032 115 4032 185 
C 4032 198 4032 223 4013 255 
C 4006 268 2989 1271 2669 1596 
L 3840 2765 
C 3872 2803 3968 2886 4000 2925 
C 4006 2937 4032 2963 4032 3008 
C 4032 3078 3981 3136 3904 3136 
C 3853 3136 3827 3110 3757 3040 
L 2490 1775 
z
" transform="scale(0.015625)"/>
       <path id="CMSY10-0" d="M 4218 1472 
C 4326 1472 4442 1472 4442 1600 
C 4442 1728 4326 1728 4218 1728 
L 755 1728 
C 646 1728 531 1728 531 1600 
C 531 1472 646 1472 755 1472 
L 4218 1472 
z
" transform="scale(0.015625)"/>
       <path id="CMMI12-3a" d="M 1178 307 
C 1178 492 1024 620 870 620 
C 685 620 557 467 557 313 
C 557 128 710 0 864 0 
C 1050 0 1178 153 1178 307 
z
" transform="scale(0.015625)"/>
       <path id="CMR17-63" d="M 2234 2240 
C 2112 2240 1933 2240 1933 2015 
C 1933 1836 2080 1785 2163 1785 
C 2208 1785 2394 1804 2394 2028 
C 2394 2476 1958 2816 1466 2816 
C 787 2816 211 2201 211 1379 
C 211 521 813 -64 1466 -64 
C 2259 -64 2458 676 2458 747 
C 2458 773 2451 792 2406 792 
C 2362 792 2355 786 2330 702 
C 2163 180 1798 51 1523 51 
C 1114 51 621 431 621 1385 
C 621 2358 1094 2700 1472 2700 
C 1722 2700 2093 2582 2234 2240 
z
" transform="scale(0.015625)"/>
       <path id="CMR17-6d" d="M 4326 1954 
C 4326 2276 4269 2816 3507 2816 
C 3072 2816 2771 2520 2656 2173 
L 2650 2173 
C 2573 2700 2195 2816 1837 2816 
C 1331 2816 1069 2424 973 2166 
L 966 2166 
L 966 2816 
L 211 2745 
L 211 2578 
C 589 2578 646 2540 646 2231 
L 646 443 
C 646 198 621 166 211 166 
L 211 0 
C 365 12 646 12 813 12 
C 979 12 1267 12 1421 0 
L 1421 166 
C 1011 166 986 192 986 443 
L 986 1678 
C 986 2269 1344 2713 1792 2713 
C 2266 2713 2317 2289 2317 1980 
L 2317 443 
C 2317 198 2291 166 1882 166 
L 1882 0 
C 2035 12 2317 12 2483 12 
C 2650 12 2938 12 3091 0 
L 3091 166 
C 2682 166 2656 192 2656 443 
L 2656 1678 
C 2656 2269 3014 2713 3462 2713 
C 3936 2713 3987 2289 3987 1980 
L 3987 443 
C 3987 198 3962 166 3552 166 
L 3552 0 
C 3706 12 3987 12 4154 12 
C 4320 12 4608 12 4762 0 
L 4762 166 
C 4352 166 4326 192 4326 443 
L 4326 1954 
z
" transform="scale(0.015625)"/>
       <path id="CMEX10-3" d="M 1370 -7424 
L 1370 256 
L 141 256 
L 141 0 
L 1114 0 
L 1114 -7168 
L 141 -7168 
L 141 -7424 
L 1370 -7424 
z
" transform="scale(0.015625)"/>
      </defs>
      <use xlink:href="#CMMI12-1e" transform="scale(0.996264)"/>
      <use xlink:href="#CMR17-28" transform="translate(57.73418 0)scale(0.996264)"/>
      <use xlink:href="#CMMI12-45" transform="translate(93.014948 0)scale(0.996264)"/>
      <use xlink:href="#CMR17-29" transform="translate(171.066584 0)scale(0.996264)"/>
      <use xlink:href="#CMEX10-2" transform="translate(222.951757 80.698084)scale(0.996264)"/>
      <use xlink:href="#CMSY10-2" transform="translate(264.462976 0)scale(0.996264)"/>
      <use xlink:href="#CMR17-31" transform="translate(341.950443 0)scale(0.996264)"/>
      <use xlink:href="#CMR17-30" transform="translate(387.640921 0)scale(0.996264)"/>
      <use xlink:href="#CMR17-31" transform="translate(433.331398 36.153639)scale(0.697382)"/>
      <use xlink:href="#CMR17-31" transform="translate(465.31458 36.153639)scale(0.697382)"/>
      <use xlink:href="#CMR17-4d" transform="translate(497.795894 0)scale(0.996264)"/>
      <use xlink:href="#CMR17-65" transform="translate(582.482834 0)scale(0.996264)"/>
      <use xlink:href="#CMR17-56" transform="translate(622.968495 0)scale(0.996264)"/>
      <use xlink:href="#CMSY10-0" transform="translate(693.342091 41.137482)scale(0.697382)"/>
      <use xlink:href="#CMR17-31" transform="translate(747.583084 41.137482)scale(0.697382)"/>
      <use xlink:href="#CMMI12-3a" transform="translate(780.064398 0)scale(0.996264)"/>
      <use xlink:href="#CMR17-63" transform="translate(807.161575 0)scale(0.996264)"/>
      <use xlink:href="#CMR17-6d" transform="translate(847.647235 0)scale(0.996264)"/>
      <use xlink:href="#CMSY10-0" transform="translate(924.566825 36.153639)scale(0.697382)"/>
      <use xlink:href="#CMR17-32" transform="translate(978.807818 36.153639)scale(0.697382)"/>
      <use xlink:href="#CMEX10-3" transform="translate(1011.289132 80.698084)scale(0.996264)"/>
     </g>
    </g>
   </g>
   <g id="line2d_13">
    <path d="M 68.806853 204.103123 
L 73.694747 202.328917 
L 78.582641 197.40839 
L 83.470535 189.480383 
L 88.358429 179.106619 
L 93.246322 166.996797 
L 98.134216 153.878844 
L 103.02211 140.431276 
L 107.910004 127.247332 
L 112.797898 114.815957 
L 117.685792 103.513607 
L 122.573686 93.604766 
L 127.46158 85.24971 
L 132.349474 78.517663 
L 137.237368 73.403063 
L 142.125262 69.842786 
L 147.013155 67.732569 
L 151.901049 66.941509 
L 156.788943 67.324057 
L 161.676837 68.729382 
L 166.564731 71.008301 
L 171.452625 74.018101 
L 176.340519 77.625655 
L 181.228413 81.709223 
L 186.116307 86.159284 
L 191.004201 90.878677 
L 195.892094 95.782276 
L 200.779988 100.796372 
L 205.667882 105.857869 
L 210.555776 110.913393 
L 215.44367 115.91837 
L 220.331564 120.836102 
L 225.219458 125.636888 
L 230.107352 130.297182 
L 234.995246 134.798813 
L 239.88314 139.128265 
L 244.771034 143.276027 
L 249.658927 147.235995 
L 254.546821 151.004946 
L 259.434715 154.582064 
L 264.322609 157.968522 
L 269.210503 161.167119 
L 274.098397 164.181954 
L 278.986291 167.018156 
L 283.874185 169.68164 
L 288.762079 172.178908 
L 293.649973 174.516871 
L 298.537867 176.70271 
L 303.42576 178.743749 
L 308.313654 180.647354 
L 313.201548 182.420859 
L 318.089442 184.07149 
L 322.977336 185.606318 
L 327.86523 187.032216 
L 332.753124 188.355829 
L 337.641018 189.583549 
L 342.528912 190.721502 
L 347.416806 191.775533 
L 352.304699 192.751208 
L 357.192593 193.653805 
L 362.080487 194.48832 
L 366.968381 195.259471 
L 371.856275 195.971703 
L 376.744169 196.629197 
L 381.632063 197.235876 
L 386.519957 197.795422 
L 391.407851 198.311277 
L 396.295745 198.786662 
L 401.183639 199.224583 
L 406.071532 199.627842 
L 410.959426 199.999053 
L 415.84732 200.340646 
L 420.735214 200.654882 
L 425.623108 200.943861 
L 430.511002 201.209534 
L 435.398896 201.453709 
L 440.28679 201.678062 
L 445.174684 201.884148 
L 450.062578 202.073405 
L 454.950472 202.247163 
L 459.838365 202.406654 
L 464.726259 202.553014 
L 469.614153 202.687294 
L 474.502047 202.810464 
L 479.389941 202.92342 
L 484.277835 203.026987 
L 489.165729 203.121927 
L 494.053623 203.208942 
L 498.941517 203.288679 
L 503.829411 203.361734 
L 508.717304 203.428654 
L 513.605198 203.489945 
L 518.493092 203.54607 
L 523.380986 203.597458 
L 528.26888 203.6445 
L 533.156774 203.687559 
L 538.044668 203.726965 
L 542.932562 203.763023 
L 547.820456 203.796014 
L 552.70835 203.826193 
" clip-path="url(#p6587104a62)" style="fill: none; stroke: #65156e; stroke-width: 2; stroke-linecap: square"/>
   </g>
   <g id="line2d_14">
    <path d="M 68.806853 204.112986 
L 73.694747 202.080065 
L 78.582641 196.499536 
L 83.470535 187.836727 
L 88.358429 176.910562 
L 93.246322 164.565676 
L 98.134216 151.562095 
L 103.02211 138.536537 
L 107.910004 125.994772 
L 112.797898 114.318512 
L 117.685792 103.778887 
L 122.573686 94.552355 
L 127.46158 86.736862 
L 132.349474 80.367061 
L 137.237368 75.428033 
L 142.125262 71.867269 
L 147.013155 69.604897 
L 151.901049 68.542214 
L 156.788943 68.568693 
L 161.676837 69.567606 
L 166.564731 71.420462 
L 171.452625 74.010422 
L 176.340519 77.224848 
L 181.228413 80.957139 
L 186.116307 85.107982 
L 191.004201 89.586124 
L 195.892094 94.308767 
L 200.779988 99.201675 
L 205.667882 104.199049 
L 210.555776 109.243235 
L 215.44367 114.284314 
L 220.331564 119.279612 
L 225.219458 124.193152 
L 230.107352 128.99509 
L 234.995246 133.661135 
L 239.88314 138.171982 
L 244.771034 142.51276 
L 249.658927 146.672509 
L 254.546821 150.643688 
L 259.434715 154.421712 
L 264.322609 158.004537 
L 269.210503 161.392272 
L 274.098397 164.586829 
L 278.986291 167.591616 
L 283.874185 170.411254 
L 288.762079 173.051332 
L 293.649973 175.518194 
L 298.537867 177.818747 
L 303.42576 179.960297 
L 308.313654 181.950414 
L 313.201548 183.796808 
L 318.089442 185.50723 
L 322.977336 187.089391 
L 327.86523 188.550887 
L 332.753124 189.899151 
L 337.641018 191.1414 
L 342.528912 192.284608 
L 347.416806 193.335475 
L 352.304699 194.30041 
L 357.192593 195.18552 
L 362.080487 195.996601 
L 366.968381 196.739135 
L 371.856275 197.418294 
L 376.744169 198.03894 
L 381.632063 198.605636 
L 386.519957 199.122651 
L 391.407851 199.593972 
L 396.295745 200.023313 
L 401.183639 200.414129 
L 406.071532 200.769628 
L 410.959426 201.092782 
L 415.84732 201.386343 
L 420.735214 201.652851 
L 425.623108 201.894652 
L 430.511002 202.113906 
L 435.398896 202.312603 
L 440.28679 202.492569 
L 445.174684 202.655482 
L 450.062578 202.802882 
L 454.950472 202.936178 
L 459.838365 203.056661 
L 464.726259 203.165509 
L 469.614153 203.263802 
L 474.502047 203.352522 
L 479.389941 203.432567 
L 484.277835 203.504754 
L 489.165729 203.569828 
L 494.053623 203.628465 
L 498.941517 203.681282 
L 503.829411 203.728839 
L 508.717304 203.771642 
L 513.605198 203.810153 
L 518.493092 203.844791 
L 523.380986 203.875933 
L 528.26888 203.903924 
L 533.156774 203.929073 
L 538.044668 203.951663 
L 542.932562 203.971947 
L 547.820456 203.990154 
L 552.70835 204.006493 
" clip-path="url(#p6587104a62)" style="fill: none; stroke-dasharray: 7.4,3.2; stroke-dashoffset: 0; stroke: #f57d15; stroke-width: 2"/>
   </g>
   <g id="patch_3">
    <path d="M 67.829274 204.146152 
L 67.829274 51.842873 
" style="fill: none; stroke: #000000; stroke-width: 0.8; stroke-linejoin: miter; stroke-linecap: square"/>
   </g>
   <g id="patch_4">
    <path d="M 556.618665 204.146152 
L 556.618665 51.842873 
" style="fill: none; stroke: #000000; stroke-width: 0.8; stroke-linejoin: miter; stroke-linecap: square"/>
   </g>
   <g id="patch_5">
    <path d="M 67.829274 204.146152 
L 556.618665 204.146152 
" style="fill: none; stroke: #000000; stroke-width: 0.8; stroke-linejoin: miter; stroke-linecap: square"/>
   </g>
   <g id="patch_6">
    <path d="M 67.829274 51.842873 
L 556.618665 51.842873 
" style="fill: none; stroke: #000000; stroke-width: 0.8; stroke-linejoin: miter; stroke-linecap: square"/>
   </g>
   <g id="text_15">
    <!-- Fitted and numerical curves -->
    <g transform="translate(228.253732 45.842873)scale(0.14 -0.14)">
     <defs>
      <path id="CMR17-46" d="M 3482 4339 
L 326 4339 
L 326 4172 
C 768 4172 838 4172 838 3883 
L 838 450 
C 838 166 768 166 326 166 
L 326 0 
C 512 12 870 12 1069 12 
C 1331 12 1638 12 1901 0 
L 1901 166 
L 1760 166 
C 1274 166 1261 229 1261 456 
L 1261 2073 
L 1837 2073 
C 2432 2073 2490 1865 2490 1334 
L 2605 1334 
L 2605 2991 
L 2490 2991 
C 2490 2451 2432 2240 1837 2240 
L 1261 2240 
L 1261 3922 
C 1261 4140 1274 4172 1530 4172 
L 2355 4172 
C 3322 4172 3430 3774 3520 2920 
L 3635 2920 
L 3482 4339 
z
" transform="scale(0.015625)"/>
      <path id="CMR17-69" d="M 992 3961 
C 992 4102 877 4224 730 4224 
C 589 4224 467 4108 467 3961 
C 467 3820 582 3699 730 3699 
C 870 3699 992 3814 992 3961 
z
M 243 2745 
L 243 2579 
C 602 2579 653 2540 653 2231 
L 653 443 
C 653 198 627 166 218 166 
L 218 0 
C 371 12 646 12 806 12 
C 960 12 1222 12 1370 0 
L 1370 166 
C 992 166 979 205 979 436 
L 979 2816 
L 243 2745 
z
" transform="scale(0.015625)"/>
      <path id="CMR17-74" d="M 966 2585 
L 1862 2585 
L 1862 2752 
L 966 2752 
L 966 3968 
L 851 3968 
C 838 3292 614 2700 70 2687 
L 70 2585 
L 627 2585 
L 627 778 
C 627 655 627 -64 1370 -64 
C 1747 -64 1965 308 1965 784 
L 1965 1151 
L 1850 1151 
L 1850 790 
C 1850 347 1677 51 1408 51 
C 1222 51 966 179 966 765 
L 966 2585 
z
" transform="scale(0.015625)"/>
      <path id="CMR17-64" d="M 1869 4345 
L 1869 4179 
C 2246 4179 2304 4141 2304 3843 
L 2304 2371 
C 2278 2403 2016 2816 1498 2816 
C 845 2816 211 2228 211 1376 
C 211 529 806 -64 1434 -64 
C 1978 -64 2259 361 2291 406 
L 2291 -64 
L 3066 -13 
L 3066 154 
C 2688 154 2630 193 2630 503 
L 2630 4416 
L 1869 4345 
z
M 2291 762 
C 2291 568 2176 393 2029 264 
C 1811 70 1594 38 1472 38 
C 1286 38 621 135 621 1369 
C 621 2636 1363 2713 1530 2713 
C 1824 2713 2061 2545 2208 2313 
C 2291 2177 2291 2157 2291 2041 
L 2291 762 
z
" transform="scale(0.015625)"/>
      <path id="CMR17-61" d="M 2304 1656 
C 2304 2048 2304 2275 2035 2534 
C 1798 2751 1523 2816 1306 2816 
C 800 2816 435 2408 435 1977 
C 435 1740 627 1728 666 1728 
C 749 1728 896 1779 896 1958 
C 896 2118 774 2188 666 2188 
C 640 2188 608 2182 589 2176 
C 723 2594 1069 2713 1293 2713 
C 1613 2713 1965 2421 1965 1875 
L 1965 1632 
C 1587 1619 1133 1568 774 1373 
C 371 1147 256 822 256 576 
C 256 77 832 -64 1171 -64 
C 1523 -64 1850 135 1990 505 
C 2003 219 2182 -39 2464 -39 
C 2598 -39 2938 51 2938 563 
L 2938 926 
L 2822 926 
L 2822 557 
C 2822 161 2650 109 2566 109 
C 2304 109 2304 446 2304 732 
L 2304 1656 
z
M 1965 887 
C 1965 323 1568 38 1216 38 
C 896 38 646 278 646 576 
C 646 771 730 1114 1101 1322 
C 1408 1497 1760 1523 1965 1536 
L 1965 887 
z
" transform="scale(0.015625)"/>
      <path id="CMR17-6e" d="M 2656 1954 
C 2656 2282 2592 2816 1837 2816 
C 1331 2816 1069 2424 973 2166 
L 966 2166 
L 966 2816 
L 211 2745 
L 211 2578 
C 589 2578 646 2540 646 2231 
L 646 443 
C 646 198 621 166 211 166 
L 211 0 
C 365 12 646 12 813 12 
C 979 12 1267 12 1421 0 
L 1421 166 
C 1011 166 986 192 986 443 
L 986 1678 
C 986 2269 1344 2713 1792 2713 
C 2266 2713 2317 2289 2317 1980 
L 2317 443 
C 2317 198 2291 166 1882 166 
L 1882 0 
C 2035 12 2317 12 2483 12 
C 2650 12 2938 12 3091 0 
L 3091 166 
C 2682 166 2656 192 2656 443 
L 2656 1954 
z
" transform="scale(0.015625)"/>
      <path id="CMR17-75" d="M 1882 2745 
L 1882 2579 
C 2259 2579 2317 2540 2317 2229 
L 2317 1053 
C 2317 510 2029 38 1555 38 
C 1030 38 986 355 986 691 
L 986 2816 
L 211 2745 
L 211 2579 
C 467 2579 640 2579 646 2320 
L 646 1079 
C 646 646 646 368 813 187 
C 896 103 1056 -64 1517 -64 
C 2061 -64 2272 400 2323 536 
L 2330 536 
L 2330 -64 
L 3091 -13 
L 3091 154 
C 2714 154 2656 193 2656 503 
L 2656 2816 
L 1882 2745 
z
" transform="scale(0.015625)"/>
      <path id="CMR17-72" d="M 960 1517 
C 960 2134 1222 2713 1702 2713 
C 1747 2713 1792 2707 1837 2687 
C 1837 2687 1696 2642 1696 2475 
C 1696 2321 1818 2257 1914 2257 
C 1990 2257 2131 2302 2131 2482 
C 2131 2687 1926 2816 1709 2816 
C 1222 2816 1011 2340 947 2115 
L 941 2115 
L 941 2816 
L 198 2745 
L 198 2578 
C 576 2578 634 2540 634 2231 
L 634 443 
C 634 198 608 166 198 166 
L 198 0 
C 352 12 646 12 813 12 
C 998 12 1325 12 1498 0 
L 1498 166 
C 1037 166 960 166 960 455 
L 960 1517 
z
" transform="scale(0.015625)"/>
      <path id="CMR17-6c" d="M 979 4416 
L 218 4345 
L 218 4179 
C 595 4179 653 4141 653 3835 
L 653 439 
C 653 198 627 166 218 166 
L 218 0 
C 371 12 653 12 813 12 
C 979 12 1261 12 1414 0 
L 1414 166 
C 1005 166 979 191 979 439 
L 979 4416 
z
" transform="scale(0.015625)"/>
      <path id="CMR17-76" d="M 2502 2173 
C 2560 2315 2662 2572 3034 2585 
L 3034 2752 
C 2912 2745 2752 2739 2630 2739 
C 2496 2739 2285 2739 2157 2752 
L 2157 2585 
C 2317 2572 2406 2495 2406 2328 
C 2406 2270 2406 2257 2368 2167 
L 1664 379 
L 902 2308 
C 864 2392 864 2405 864 2431 
C 864 2585 1075 2585 1171 2585 
L 1171 2752 
C 1018 2739 736 2739 576 2739 
C 403 2739 205 2739 64 2752 
L 64 2585 
C 307 2585 442 2585 518 2386 
L 1446 44 
C 1485 -52 1491 -64 1549 -64 
C 1606 -64 1613 -52 1651 44 
L 2502 2173 
z
" transform="scale(0.015625)"/>
      <path id="CMR17-73" d="M 1978 2688 
C 1978 2803 1971 2809 1933 2809 
C 1907 2809 1901 2803 1824 2707 
C 1805 2681 1747 2617 1728 2592 
C 1523 2809 1235 2816 1126 2816 
C 416 2816 160 2444 160 2073 
C 160 1497 813 1363 998 1324 
C 1402 1241 1542 1216 1677 1100 
C 1760 1024 1901 883 1901 652 
C 1901 384 1747 38 1158 38 
C 602 38 403 460 288 1024 
C 269 1113 269 1120 218 1120 
C 166 1120 160 1113 160 985 
L 160 64 
C 160 -52 166 -58 205 -58 
C 237 -58 243 -52 275 0 
C 314 57 410 211 448 275 
C 576 102 800 -64 1158 -64 
C 1792 -64 2131 281 2131 780 
C 2131 1107 1958 1280 1875 1356 
C 1683 1555 1459 1600 1190 1651 
C 838 1728 390 1817 390 2208 
C 390 2374 480 2726 1126 2726 
C 1811 2726 1850 2086 1862 1881 
C 1869 1849 1901 1843 1920 1843 
C 1978 1843 1978 1862 1978 1971 
L 1978 2688 
z
" transform="scale(0.015625)"/>
     </defs>
     <use xlink:href="#CMR17-46" transform="scale(0.996264)"/>
     <use xlink:href="#CMR17-69" transform="translate(59.983847 0)scale(0.996264)"/>
     <use xlink:href="#CMR17-74" transform="translate(84.854905 0)scale(0.996264)"/>
     <use xlink:href="#CMR17-74" transform="translate(120.135673 0)scale(0.996264)"/>
     <use xlink:href="#CMR17-65" transform="translate(155.416441 0)scale(0.996264)"/>
     <use xlink:href="#CMR17-64" transform="translate(195.902101 0)scale(0.996264)"/>
     <use xlink:href="#CMR17-61" transform="translate(276.873437 0)scale(0.996264)"/>
     <use xlink:href="#CMR17-6e" transform="translate(322.563914 0)scale(0.996264)"/>
     <use xlink:href="#CMR17-64" transform="translate(373.459284 0)scale(0.996264)"/>
     <use xlink:href="#CMR17-6e" transform="translate(454.43062 0)scale(0.996264)"/>
     <use xlink:href="#CMR17-75" transform="translate(502.723536 0)scale(0.996264)"/>
     <use xlink:href="#CMR17-6d" transform="translate(553.618906 0)scale(0.996264)"/>
     <use xlink:href="#CMR17-65" transform="translate(630.538496 0)scale(0.996264)"/>
     <use xlink:href="#CMR17-72" transform="translate(671.024156 0)scale(0.996264)"/>
     <use xlink:href="#CMR17-69" transform="translate(706.304924 0)scale(0.996264)"/>
     <use xlink:href="#CMR17-63" transform="translate(731.175983 0)scale(0.996264)"/>
     <use xlink:href="#CMR17-61" transform="translate(771.661643 0)scale(0.996264)"/>
     <use xlink:href="#CMR17-6c" transform="translate(817.35212 0)scale(0.996264)"/>
     <use xlink:href="#CMR17-63" transform="translate(872.299145 0)scale(0.996264)"/>
     <use xlink:href="#CMR17-75" transform="translate(912.784805 0)scale(0.996264)"/>
     <use xlink:href="#CMR17-72" transform="translate(963.680175 0)scale(0.996264)"/>
     <use xlink:href="#CMR17-76" transform="translate(998.960943 0)scale(0.996264)"/>
     <use xlink:href="#CMR17-65" transform="translate(1044.651405 0)scale(0.996264)"/>
     <use xlink:href="#CMR17-73" transform="translate(1085.137065 0)scale(0.996264)"/>
    </g>
   </g>
   <g id="legend_1">
    <g id="patch_7">
     <path d="M 394.828658 98.768435 
L 548.218665 98.768435 
Q 550.618665 98.768435 550.618665 96.368435 
L 550.618665 60.242873 
Q 550.618665 57.842873 548.218665 57.842873 
L 394.828658 57.842873 
Q 392.428658 57.842873 392.428658 60.242873 
L 392.428658 96.368435 
Q 392.428658 98.768435 394.828658 98.768435 
z
" style="fill: #ffffff; opacity: 0.8; stroke: #cccccc; stroke-linejoin: miter"/>
    </g>
    <g id="line2d_15">
     <path d="M 397.228658 67.917612 
L 409.228658 67.917612 
L 421.228658 67.917612 
" style="fill: none; stroke: #65156e; stroke-width: 2; stroke-linecap: square"/>
    </g>
    <g id="text_16">
     <!-- Total spectrum $\mathcal{F}^0(E)$ -->
     <g transform="translate(430.828658 72.117612)scale(0.12 -0.12)">
      <defs>
       <path id="CMR17-54" d="M 3981 4332 
L 288 4332 
L 179 2924 
L 294 2924 
C 378 3981 467 4166 1453 4166 
C 1568 4166 1754 4166 1805 4159 
C 1926 4140 1926 4064 1926 3917 
L 1926 465 
C 1926 236 1907 166 1376 166 
L 1197 166 
L 1197 0 
C 1504 6 1824 12 2138 12 
C 2451 12 2771 6 3078 0 
L 3078 166 
L 2899 166 
C 2368 166 2349 236 2349 465 
L 2349 3917 
C 2349 4057 2349 4134 2464 4159 
C 2515 4166 2701 4166 2816 4166 
C 3795 4166 3891 3981 3974 2924 
L 4090 2924 
L 3981 4332 
z
" transform="scale(0.015625)"/>
       <path id="CMR17-6f" d="M 2758 1356 
C 2758 2176 2163 2816 1466 2816 
C 768 2816 173 2176 173 1356 
C 173 550 768 -64 1466 -64 
C 2163 -64 2758 550 2758 1356 
z
M 1466 51 
C 1165 51 909 230 762 480 
C 602 768 582 1126 582 1408 
C 582 1676 595 2009 762 2297 
C 890 2508 1139 2713 1466 2713 
C 1754 2713 1997 2553 2150 2329 
C 2349 2028 2349 1606 2349 1408 
C 2349 1158 2336 774 2163 467 
C 1984 172 1709 51 1466 51 
z
" transform="scale(0.015625)"/>
       <path id="CMR17-70" d="M 1408 -1114 
C 998 -1114 973 -1088 973 -834 
L 973 380 
C 1158 109 1427 -64 1766 -64 
C 2406 -64 3053 503 3053 1382 
C 3053 2196 2496 2816 1837 2816 
C 1453 2816 1139 2603 960 2345 
L 960 2816 
L 198 2745 
L 198 2577 
C 576 2577 634 2539 634 2228 
L 634 -834 
C 634 -1081 608 -1114 198 -1114 
L 198 -1280 
C 352 -1268 634 -1268 800 -1268 
C 966 -1268 1254 -1268 1408 -1280 
L 1408 -1114 
z
M 973 2015 
C 973 2106 973 2241 1222 2481 
C 1254 2506 1472 2700 1792 2700 
C 2259 2700 2643 2112 2643 1376 
C 2643 639 2234 38 1728 38 
C 1498 38 1248 148 1056 451 
C 973 594 973 632 973 736 
L 973 2015 
z
" transform="scale(0.015625)"/>
       <path id="CMSY10-46" d="M 5312 4102 
C 5312 4396 4819 4352 4621 4352 
L 2208 4352 
C 1888 4352 1318 4166 1216 3820 
C 1229 3782 1242 3775 1280 3775 
C 1421 3775 1613 3891 1702 3987 
C 1901 3987 2093 3999 2291 3999 
L 2688 3999 
C 2688 3999 2662 3884 2662 3878 
C 2413 2707 2035 1721 1754 1112 
C 1715 1031 1370 243 1280 166 
C 998 166 787 320 672 569 
C 653 608 653 633 608 633 
C 461 633 109 428 109 320 
C 109 307 115 294 122 281 
C 237 -20 525 -192 838 -192 
C 1165 -192 1542 44 1747 281 
C 1958 524 2381 1547 2547 1920 
L 3782 1920 
C 3776 1913 3770 1907 3770 1900 
C 3770 1876 3808 1857 3834 1857 
C 3974 1857 4339 2035 4339 2233 
C 4339 2278 4294 2272 4218 2272 
L 2682 2272 
C 2848 2847 3066 3411 3181 3999 
L 4026 3999 
C 4186 3999 4634 4031 4749 3891 
C 4762 3852 4742 3788 4762 3756 
C 4774 3743 4794 3737 4813 3737 
C 4966 3737 5312 3929 5312 4102 
z
" transform="scale(0.015625)"/>
      </defs>
      <use xlink:href="#CMR17-54" transform="scale(0.996264)"/>
      <use xlink:href="#CMR17-6f" transform="translate(58.702625 0)scale(0.996264)"/>
      <use xlink:href="#CMR17-74" transform="translate(104.393102 0)scale(0.996264)"/>
      <use xlink:href="#CMR17-61" transform="translate(139.67387 0)scale(0.996264)"/>
      <use xlink:href="#CMR17-6c" transform="translate(185.364347 0)scale(0.996264)"/>
      <use xlink:href="#CMR17-73" transform="translate(240.311372 0)scale(0.996264)"/>
      <use xlink:href="#CMR17-70" transform="translate(276.11271 0)scale(0.996264)"/>
      <use xlink:href="#CMR17-65" transform="translate(329.610518 0)scale(0.996264)"/>
      <use xlink:href="#CMR17-63" transform="translate(370.096179 0)scale(0.996264)"/>
      <use xlink:href="#CMR17-74" transform="translate(410.581839 0)scale(0.996264)"/>
      <use xlink:href="#CMR17-72" transform="translate(445.862607 0)scale(0.996264)"/>
      <use xlink:href="#CMR17-75" transform="translate(481.143375 0)scale(0.996264)"/>
      <use xlink:href="#CMR17-6d" transform="translate(532.038744 0)scale(0.996264)"/>
      <use xlink:href="#CMSY10-46" transform="translate(639.034301 0)scale(0.996264)"/>
      <use xlink:href="#CMR17-30" transform="translate(720.534081 36.153639)scale(0.697382)"/>
      <use xlink:href="#CMR17-28" transform="translate(753.015395 0)scale(0.996264)"/>
      <use xlink:href="#CMMI12-45" transform="translate(788.296163 0)scale(0.996264)"/>
      <use xlink:href="#CMR17-29" transform="translate(866.347799 0)scale(0.996264)"/>
     </g>
    </g>
    <g id="line2d_16">
     <path d="M 397.228658 86.779643 
L 409.228658 86.779643 
L 421.228658 86.779643 
" style="fill: none; stroke-dasharray: 7.4,3.2; stroke-dashoffset: 0; stroke: #f57d15; stroke-width: 2"/>
    </g>
    <g id="text_17">
     <!-- Best fit $\mathcal{F}^{0,\mathrm{fitted}}(E)$ -->
     <g transform="translate(430.828658 90.979643)scale(0.12 -0.12)">
      <defs>
       <path id="CMR17-42" d="M 333 4352 
L 333 4185 
C 774 4185 845 4185 845 3897 
L 845 451 
C 845 166 774 166 333 166 
L 333 0 
L 2534 0 
C 3354 0 3885 578 3885 1155 
C 3885 1726 3360 2214 2675 2259 
C 3290 2380 3718 2790 3718 3276 
C 3718 3808 3194 4352 2368 4352 
L 333 4352 
z
M 1248 2304 
L 1248 3936 
C 1248 4153 1261 4185 1517 4185 
L 2336 4185 
C 2970 4185 3251 3673 3251 3276 
C 3251 2790 2861 2304 2170 2304 
L 1248 2304 
z
M 1517 166 
C 1261 166 1248 198 1248 413 
L 1248 2201 
L 2432 2201 
C 3091 2201 3411 1624 3411 1161 
C 3411 698 3046 166 2349 166 
L 1517 166 
z
" transform="scale(0.015625)"/>
       <path id="CMR17-c" d="M 2554 2816 
C 2400 2809 1926 2777 1805 2764 
C 1766 2758 1754 2758 1677 2758 
L 947 2758 
L 947 3517 
C 947 4127 1434 4416 1818 4416 
C 1939 4416 2214 4383 2355 4160 
C 2291 4160 2086 4160 2086 3935 
C 2086 3782 2189 3705 2317 3705 
C 2432 3705 2547 3769 2547 3942 
C 2547 4265 2240 4518 1843 4518 
C 1338 4518 634 4225 634 3517 
L 634 2758 
L 122 2758 
L 122 2591 
L 634 2591 
L 634 442 
C 634 198 608 166 198 166 
L 198 0 
C 352 12 634 12 794 12 
C 960 12 1242 12 1395 0 
L 1395 166 
C 986 166 960 192 960 442 
L 960 2591 
L 1901 2591 
C 2176 2591 2227 2534 2227 2251 
L 2227 442 
C 2227 198 2202 166 1792 166 
L 1792 0 
C 1946 12 2227 12 2387 12 
C 2554 12 2835 12 2989 0 
L 2989 166 
C 2579 166 2554 192 2554 442 
L 2554 2816 
z
" transform="scale(0.015625)"/>
       <path id="CMMI12-3b" d="M 1248 -26 
C 1248 345 1126 620 864 620 
C 659 620 557 454 557 313 
C 557 172 653 0 870 0 
C 954 0 1024 25 1082 83 
C 1094 96 1101 96 1107 96 
C 1120 96 1120 6 1120 -26 
C 1120 -233 1082 -642 710 -1051 
C 640 -1127 640 -1140 640 -1152 
C 640 -1184 672 -1216 704 -1216 
C 755 -1216 1248 -749 1248 -26 
z
" transform="scale(0.015625)"/>
      </defs>
      <use xlink:href="#CMR17-42" transform="scale(0.996264)"/>
      <use xlink:href="#CMR17-65" transform="translate(65.188754 0)scale(0.996264)"/>
      <use xlink:href="#CMR17-73" transform="translate(105.674415 0)scale(0.996264)"/>
      <use xlink:href="#CMR17-74" transform="translate(141.475753 0)scale(0.996264)"/>
      <use xlink:href="#CMR17-c" transform="translate(206.832487 0)scale(0.996264)"/>
      <use xlink:href="#CMR17-74" transform="translate(256.57471 0)scale(0.996264)"/>
      <use xlink:href="#CMSY10-46" transform="translate(321.931444 0)scale(0.996264)"/>
      <use xlink:href="#CMR17-30" transform="translate(403.431225 36.153639)scale(0.697382)"/>
      <use xlink:href="#CMMI12-3b" transform="translate(435.414407 36.153639)scale(0.697382)"/>
      <use xlink:href="#CMR17-c" transform="translate(454.382339 36.153639)scale(0.697382)"/>
      <use xlink:href="#CMR17-74" transform="translate(489.201733 36.153639)scale(0.697382)"/>
      <use xlink:href="#CMR17-74" transform="translate(513.898154 36.153639)scale(0.697382)"/>
      <use xlink:href="#CMR17-65" transform="translate(538.594574 36.153639)scale(0.697382)"/>
      <use xlink:href="#CMR17-64" transform="translate(566.934406 36.153639)scale(0.697382)"/>
      <use xlink:href="#CMR17-28" transform="translate(603.059146 0)scale(0.996264)"/>
      <use xlink:href="#CMMI12-45" transform="translate(638.339914 0)scale(0.996264)"/>
      <use xlink:href="#CMR17-29" transform="translate(716.39155 0)scale(0.996264)"/>
     </g>
    </g>
   </g>
  </g>
  <g id="axes_2">
   <g id="patch_8">
    <path d="M 67.829274 414.746152 
L 286.524282 414.746152 
L 286.524282 262.442873 
L 67.829274 262.442873 
z
" style="fill: #ffffff"/>
   </g>
   <g id="matplotlib.axis_3">
    <g id="xtick_7">
     <g id="line2d_17">
      <g>
       <use xlink:href="#m05cbffed54" x="67.829274" y="414.746152" style="stroke: #000000; stroke-width: 0.8"/>
      </g>
     </g>
     <g id="text_18">
      <!-- $\mathdefault{0}$ -->
      <g transform="translate(65.338607 428.66465)scale(0.1 -0.1)">
       <use xlink:href="#CMR17-30" transform="scale(0.996264)"/>
      </g>
     </g>
    </g>
    <g id="xtick_8">
     <g id="line2d_18">
      <g>
       <use xlink:href="#m05cbffed54" x="111.568276" y="414.746152" style="stroke: #000000; stroke-width: 0.8"/>
      </g>
     </g>
     <g id="text_19">
      <!-- $\mathdefault{10}$ -->
      <g transform="translate(106.58694 428.66465)scale(0.1 -0.1)">
       <use xlink:href="#CMR17-31" transform="scale(0.996264)"/>
       <use xlink:href="#CMR17-30" transform="translate(45.690477 0)scale(0.996264)"/>
      </g>
     </g>
    </g>
    <g id="xtick_9">
     <g id="line2d_19">
      <g>
       <use xlink:href="#m05cbffed54" x="155.307277" y="414.746152" style="stroke: #000000; stroke-width: 0.8"/>
      </g>
     </g>
     <g id="text_20">
      <!-- $\mathdefault{20}$ -->
      <g transform="translate(150.325942 428.66465)scale(0.1 -0.1)">
       <use xlink:href="#CMR17-32" transform="scale(0.996264)"/>
       <use xlink:href="#CMR17-30" transform="translate(45.690477 0)scale(0.996264)"/>
      </g>
     </g>
    </g>
    <g id="xtick_10">
     <g id="line2d_20">
      <g>
       <use xlink:href="#m05cbffed54" x="199.046279" y="414.746152" style="stroke: #000000; stroke-width: 0.8"/>
      </g>
     </g>
     <g id="text_21">
      <!-- $\mathdefault{30}$ -->
      <g transform="translate(194.064943 428.66465)scale(0.1 -0.1)">
       <use xlink:href="#CMR17-33" transform="scale(0.996264)"/>
       <use xlink:href="#CMR17-30" transform="translate(45.690477 0)scale(0.996264)"/>
      </g>
     </g>
    </g>
    <g id="xtick_11">
     <g id="line2d_21">
      <g>
       <use xlink:href="#m05cbffed54" x="242.78528" y="414.746152" style="stroke: #000000; stroke-width: 0.8"/>
      </g>
     </g>
     <g id="text_22">
      <!-- $\mathdefault{40}$ -->
      <g transform="translate(237.803945 428.66465)scale(0.1 -0.1)">
       <use xlink:href="#CMR17-34" transform="scale(0.996264)"/>
       <use xlink:href="#CMR17-30" transform="translate(45.690477 0)scale(0.996264)"/>
      </g>
     </g>
    </g>
    <g id="xtick_12">
     <g id="line2d_22">
      <g>
       <use xlink:href="#m05cbffed54" x="286.524282" y="414.746152" style="stroke: #000000; stroke-width: 0.8"/>
      </g>
     </g>
     <g id="text_23">
      <!-- $\mathdefault{50}$ -->
      <g transform="translate(281.542947 428.66465)scale(0.1 -0.1)">
       <use xlink:href="#CMR17-35" transform="scale(0.996264)"/>
       <use xlink:href="#CMR17-30" transform="translate(45.690477 0)scale(0.996264)"/>
      </g>
     </g>
    </g>
    <g id="text_24">
     <!-- $E_\nu [\mathrm{MeV}]$ -->
     <g transform="translate(154.567988 443.568205)scale(0.12 -0.12)">
      <use xlink:href="#CMMI12-45" transform="scale(0.996264)"/>
      <use xlink:href="#CMMI12-17" transform="translate(72.211218 -14.943915)scale(0.697382)"/>
      <use xlink:href="#CMR17-5b" transform="translate(110.847141 0)scale(0.996264)"/>
      <use xlink:href="#CMR17-4d" transform="translate(135.718199 0)scale(0.996264)"/>
      <use xlink:href="#CMR17-65" transform="translate(220.40514 0)scale(0.996264)"/>
      <use xlink:href="#CMR17-56" transform="translate(260.8908 0)scale(0.996264)"/>
      <use xlink:href="#CMR17-5d" transform="translate(331.264396 0)scale(0.996264)"/>
     </g>
    </g>
   </g>
   <g id="matplotlib.axis_4">
    <g id="ytick_7">
     <g id="line2d_23">
      <g>
       <use xlink:href="#m27c2cb9437" x="67.829274" y="414.746152" style="stroke: #000000; stroke-width: 0.8"/>
      </g>
     </g>
     <g id="text_25">
      <!-- $\mathdefault{−0.2}$ -->
      <g transform="translate(40.350451 418.205401)scale(0.1 -0.1)">
       <use xlink:href="#CMSY10-0" transform="scale(0.996264)"/>
       <use xlink:href="#CMR17-30" transform="translate(77.487468 0)scale(0.996264)"/>
       <use xlink:href="#CMMI12-3a" transform="translate(123.177945 0)scale(0.996264)"/>
       <use xlink:href="#CMR17-32" transform="translate(150.275122 0)scale(0.996264)"/>
      </g>
     </g>
    </g>
    <g id="ytick_8">
     <g id="line2d_24">
      <g>
       <use xlink:href="#m27c2cb9437" x="67.829274" y="395.708242" style="stroke: #000000; stroke-width: 0.8"/>
      </g>
     </g>
     <g id="text_26">
      <!-- $\mathdefault{0.0}$ -->
      <g transform="translate(48.099195 399.167491)scale(0.1 -0.1)">
       <use xlink:href="#CMR17-30" transform="scale(0.996264)"/>
       <use xlink:href="#CMMI12-3a" transform="translate(45.690477 0)scale(0.996264)"/>
       <use xlink:href="#CMR17-30" transform="translate(72.787654 0)scale(0.996264)"/>
      </g>
     </g>
    </g>
    <g id="ytick_9">
     <g id="line2d_25">
      <g>
       <use xlink:href="#m27c2cb9437" x="67.829274" y="376.670332" style="stroke: #000000; stroke-width: 0.8"/>
      </g>
     </g>
     <g id="text_27">
      <!-- $\mathdefault{0.2}$ -->
      <g transform="translate(48.099195 380.129581)scale(0.1 -0.1)">
       <use xlink:href="#CMR17-30" transform="scale(0.996264)"/>
       <use xlink:href="#CMMI12-3a" transform="translate(45.690477 0)scale(0.996264)"/>
       <use xlink:href="#CMR17-32" transform="translate(72.787654 0)scale(0.996264)"/>
      </g>
     </g>
    </g>
    <g id="ytick_10">
     <g id="line2d_26">
      <g>
       <use xlink:href="#m27c2cb9437" x="67.829274" y="357.632422" style="stroke: #000000; stroke-width: 0.8"/>
      </g>
     </g>
     <g id="text_28">
      <!-- $\mathdefault{0.4}$ -->
      <g transform="translate(48.099195 361.091672)scale(0.1 -0.1)">
       <use xlink:href="#CMR17-30" transform="scale(0.996264)"/>
       <use xlink:href="#CMMI12-3a" transform="translate(45.690477 0)scale(0.996264)"/>
       <use xlink:href="#CMR17-34" transform="translate(72.787654 0)scale(0.996264)"/>
      </g>
     </g>
    </g>
    <g id="ytick_11">
     <g id="line2d_27">
      <g>
       <use xlink:href="#m27c2cb9437" x="67.829274" y="338.594513" style="stroke: #000000; stroke-width: 0.8"/>
      </g>
     </g>
     <g id="text_29">
      <!-- $\mathdefault{0.6}$ -->
      <g transform="translate(48.099195 342.053762)scale(0.1 -0.1)">
       <defs>
        <path id="CMR17-36" d="M 678 2198 
C 678 3712 1395 4076 1811 4076 
C 1946 4076 2272 4049 2400 3782 
C 2298 3782 2106 3782 2106 3558 
C 2106 3385 2246 3328 2336 3328 
C 2394 3328 2566 3353 2566 3571 
C 2566 3987 2246 4224 1805 4224 
C 1043 4224 243 3411 243 2011 
C 243 257 966 -128 1478 -128 
C 2099 -128 2688 431 2688 1295 
C 2688 2101 2170 2688 1517 2688 
C 1126 2688 838 2430 678 1979 
L 678 2198 
z
M 1478 25 
C 691 25 691 1212 691 1450 
C 691 1914 909 2585 1504 2585 
C 1613 2585 1926 2585 2138 2140 
C 2253 1889 2253 1624 2253 1302 
C 2253 954 2253 696 2118 438 
C 1978 173 1773 25 1478 25 
z
" transform="scale(0.015625)"/>
       </defs>
       <use xlink:href="#CMR17-30" transform="scale(0.996264)"/>
       <use xlink:href="#CMMI12-3a" transform="translate(45.690477 0)scale(0.996264)"/>
       <use xlink:href="#CMR17-36" transform="translate(72.787654 0)scale(0.996264)"/>
      </g>
     </g>
    </g>
    <g id="ytick_12">
     <g id="line2d_28">
      <g>
       <use xlink:href="#m27c2cb9437" x="67.829274" y="319.556603" style="stroke: #000000; stroke-width: 0.8"/>
      </g>
     </g>
     <g id="text_30">
      <!-- $\mathdefault{0.8}$ -->
      <g transform="translate(48.099195 323.015852)scale(0.1 -0.1)">
       <defs>
        <path id="CMR17-38" d="M 1741 2289 
C 2144 2494 2554 2803 2554 3298 
C 2554 3884 1990 4224 1472 4224 
C 890 4224 378 3800 378 3215 
C 378 3054 416 2777 666 2533 
C 730 2469 998 2276 1171 2154 
C 883 2006 211 1652 211 945 
C 211 282 838 -128 1459 -128 
C 2144 -128 2720 366 2720 1022 
C 2720 1607 2330 1877 2074 2051 
L 1741 2289 
z
M 902 2855 
C 851 2887 595 3086 595 3388 
C 595 3781 998 4076 1459 4076 
C 1965 4076 2336 3716 2336 3298 
C 2336 2700 1670 2359 1638 2359 
C 1632 2359 1626 2359 1574 2398 
L 902 2855 
z
M 2080 1536 
C 2176 1466 2483 1253 2483 861 
C 2483 385 2010 25 1472 25 
C 890 25 448 443 448 951 
C 448 1459 838 1884 1280 2083 
L 2080 1536 
z
" transform="scale(0.015625)"/>
       </defs>
       <use xlink:href="#CMR17-30" transform="scale(0.996264)"/>
       <use xlink:href="#CMMI12-3a" transform="translate(45.690477 0)scale(0.996264)"/>
       <use xlink:href="#CMR17-38" transform="translate(72.787654 0)scale(0.996264)"/>
      </g>
     </g>
    </g>
    <g id="ytick_13">
     <g id="line2d_29">
      <g>
       <use xlink:href="#m27c2cb9437" x="67.829274" y="300.518693" style="stroke: #000000; stroke-width: 0.8"/>
      </g>
     </g>
     <g id="text_31">
      <!-- $\mathdefault{1.0}$ -->
      <g transform="translate(48.099195 303.977942)scale(0.1 -0.1)">
       <use xlink:href="#CMR17-31" transform="scale(0.996264)"/>
       <use xlink:href="#CMMI12-3a" transform="translate(45.690477 0)scale(0.996264)"/>
       <use xlink:href="#CMR17-30" transform="translate(72.787654 0)scale(0.996264)"/>
      </g>
     </g>
    </g>
    <g id="ytick_14">
     <g id="line2d_30">
      <g>
       <use xlink:href="#m27c2cb9437" x="67.829274" y="281.480783" style="stroke: #000000; stroke-width: 0.8"/>
      </g>
     </g>
     <g id="text_32">
      <!-- $\mathdefault{1.2}$ -->
      <g transform="translate(48.099195 284.940032)scale(0.1 -0.1)">
       <use xlink:href="#CMR17-31" transform="scale(0.996264)"/>
       <use xlink:href="#CMMI12-3a" transform="translate(45.690477 0)scale(0.996264)"/>
       <use xlink:href="#CMR17-32" transform="translate(72.787654 0)scale(0.996264)"/>
      </g>
     </g>
    </g>
    <g id="ytick_15">
     <g id="line2d_31">
      <g>
       <use xlink:href="#m27c2cb9437" x="67.829274" y="262.442873" style="stroke: #000000; stroke-width: 0.8"/>
      </g>
     </g>
     <g id="text_33">
      <!-- $\mathdefault{1.4}$ -->
      <g transform="translate(48.099195 265.902122)scale(0.1 -0.1)">
       <use xlink:href="#CMR17-31" transform="scale(0.996264)"/>
       <use xlink:href="#CMMI12-3a" transform="translate(45.690477 0)scale(0.996264)"/>
       <use xlink:href="#CMR17-34" transform="translate(72.787654 0)scale(0.996264)"/>
      </g>
     </g>
    </g>
    <g id="text_34">
     <!-- $\displaystyle \frac{\mathcal{F}^0(E) - \mathcal{F}^{0,\mathrm{fitted}}(E)}{\mathcal{F}^{0,\mathrm{fitted}}(E)}$ -->
     <g transform="translate(25.160997 389.939452)rotate(-90)scale(0.12 -0.12)">
      <use xlink:href="#CMSY10-46" transform="translate(0 67.398045)scale(0.996264)"/>
      <use xlink:href="#CMR17-30" transform="translate(81.49978 103.551684)scale(0.697382)"/>
      <use xlink:href="#CMR17-28" transform="translate(113.981094 67.398045)scale(0.996264)"/>
      <use xlink:href="#CMMI12-45" transform="translate(149.261862 67.398045)scale(0.996264)"/>
      <use xlink:href="#CMR17-29" transform="translate(227.313498 67.398045)scale(0.996264)"/>
      <use xlink:href="#CMSY10-0" transform="translate(284.733473 67.398045)scale(0.996264)"/>
      <use xlink:href="#CMSY10-46" transform="translate(384.360148 67.398045)scale(0.996264)"/>
      <use xlink:href="#CMR17-30" transform="translate(465.859928 103.551684)scale(0.697382)"/>
      <use xlink:href="#CMMI12-3b" transform="translate(497.84311 103.551684)scale(0.697382)"/>
      <use xlink:href="#CMR17-c" transform="translate(516.811043 103.551684)scale(0.697382)"/>
      <use xlink:href="#CMR17-74" transform="translate(551.630437 103.551684)scale(0.697382)"/>
      <use xlink:href="#CMR17-74" transform="translate(576.326857 103.551684)scale(0.697382)"/>
      <use xlink:href="#CMR17-65" transform="translate(601.023278 103.551684)scale(0.697382)"/>
      <use xlink:href="#CMR17-64" transform="translate(629.363109 103.551684)scale(0.697382)"/>
      <use xlink:href="#CMR17-28" transform="translate(665.48785 67.398045)scale(0.996264)"/>
      <use xlink:href="#CMMI12-45" transform="translate(700.768617 67.398045)scale(0.996264)"/>
      <use xlink:href="#CMR17-29" transform="translate(778.820254 67.398045)scale(0.996264)"/>
      <use xlink:href="#CMSY10-46" transform="translate(192.180082 -68.338837)scale(0.996264)"/>
      <use xlink:href="#CMR17-30" transform="translate(273.679862 -39.55788)scale(0.697382)"/>
      <use xlink:href="#CMMI12-3b" transform="translate(305.663044 -39.55788)scale(0.697382)"/>
      <use xlink:href="#CMR17-c" transform="translate(324.630977 -39.55788)scale(0.697382)"/>
      <use xlink:href="#CMR17-74" transform="translate(359.45037 -39.55788)scale(0.697382)"/>
      <use xlink:href="#CMR17-74" transform="translate(384.146791 -39.55788)scale(0.697382)"/>
      <use xlink:href="#CMR17-65" transform="translate(408.843211 -39.55788)scale(0.697382)"/>
      <use xlink:href="#CMR17-64" transform="translate(437.183043 -39.55788)scale(0.697382)"/>
      <use xlink:href="#CMR17-28" transform="translate(473.307783 -68.338837)scale(0.996264)"/>
      <use xlink:href="#CMMI12-45" transform="translate(508.588551 -68.338837)scale(0.996264)"/>
      <use xlink:href="#CMR17-29" transform="translate(586.640187 -68.338837)scale(0.996264)"/>
      <path d="M 0 22.914133 
L 814.101021 22.914133 
L 814.101021 26.899083 
L 0 26.899083 
L 0 22.914133 
z
"/>
     </g>
    </g>
   </g>
   <g id="line2d_32">
    <path d="M 68.266664 367.399776 
L 70.453614 407.173444 
L 72.640564 407.02218 
L 74.827514 405.301403 
L 77.014464 403.383554 
L 79.201415 401.554996 
L 81.388365 399.902105 
L 83.575315 398.457219 
L 85.762265 397.233879 
L 87.949215 396.235379 
L 90.136165 395.456648 
L 92.323115 394.885198 
L 94.510065 394.502534 
L 96.697015 394.286004 
L 98.883965 394.210738 
L 101.070915 394.251398 
L 103.257865 394.383547 
L 105.444815 394.584599 
L 107.631766 394.834377 
L 109.818716 395.115353 
L 112.005666 395.412644 
L 114.192616 395.713859 
L 116.379566 396.008843 
L 118.566516 396.289386 
L 120.753466 396.548922 
L 122.940416 396.782243 
L 125.127366 396.985245 
L 127.314316 397.154707 
L 129.501266 397.288101 
L 131.688216 397.383445 
L 133.875166 397.439177 
L 136.062117 397.454061 
L 138.249067 397.42711 
L 140.436017 397.357528 
L 142.622967 397.244668 
L 144.809917 397.087997 
L 146.996867 396.887068 
L 149.183817 396.641504 
L 151.370767 396.350979 
L 153.557717 396.01521 
L 155.744667 395.633943 
L 157.931617 395.206948 
L 160.118567 394.734011 
L 162.305517 394.214927 
L 164.492468 393.649495 
L 166.679418 393.037518 
L 168.866368 392.378788 
L 171.053318 391.673094 
L 173.240268 390.920208 
L 175.427218 390.119887 
L 177.614168 389.27187 
L 179.801118 388.375872 
L 181.988068 387.43158 
L 184.175018 386.438657 
L 186.361968 385.396732 
L 188.548918 384.305403 
L 190.735868 383.16423 
L 192.922819 381.972739 
L 195.109769 380.730415 
L 197.296719 379.436704 
L 199.483669 378.091009 
L 201.670619 376.692689 
L 203.857569 375.241061 
L 206.044519 373.735391 
L 208.231469 372.174903 
L 210.418419 370.55877 
L 212.605369 368.886115 
L 214.792319 367.156012 
L 216.979269 365.367483 
L 219.166219 363.519498 
L 221.35317 361.610971 
L 223.54012 359.640764 
L 225.72707 357.607681 
L 227.91402 355.510471 
L 230.10097 353.347824 
L 232.28792 351.118369 
L 234.47487 348.820678 
L 236.66182 346.453258 
L 238.84877 344.014555 
L 241.03572 341.502947 
L 243.22267 338.916749 
L 245.40962 336.254208 
L 247.59657 333.5135 
L 249.783521 330.69273 
L 251.970471 327.789931 
L 254.157421 324.80306 
L 256.344371 321.73 
L 258.531321 318.568551 
L 260.718271 315.316434 
L 262.905221 311.971286 
L 265.092171 308.53066 
L 267.279121 304.992017 
L 269.466071 301.352732 
L 271.653021 297.610081 
L 273.839971 293.761247 
L 276.026921 289.803312 
L 278.213872 285.733258 
L 280.400822 281.547958 
L 282.587772 277.244177 
L 284.774722 272.818568 
" clip-path="url(#pb69dd341ae)" style="fill: none; stroke: #9f2a63; stroke-width: 2; stroke-linecap: square"/>
   </g>
   <g id="line2d_33">
    <path d="M 67.829274 395.708242 
L 286.524282 395.708242 
" clip-path="url(#pb69dd341ae)" style="fill: none; stroke: #000000; stroke-linecap: square"/>
   </g>
   <g id="patch_9">
    <path d="M 67.829274 414.746152 
L 67.829274 262.442873 
" style="fill: none; stroke: #000000; stroke-width: 0.8; stroke-linejoin: miter; stroke-linecap: square"/>
   </g>
   <g id="patch_10">
    <path d="M 286.524282 414.746152 
L 286.524282 262.442873 
" style="fill: none; stroke: #000000; stroke-width: 0.8; stroke-linejoin: miter; stroke-linecap: square"/>
   </g>
   <g id="patch_11">
    <path d="M 67.829274 414.746152 
L 286.524282 414.746152 
" style="fill: none; stroke: #000000; stroke-width: 0.8; stroke-linejoin: miter; stroke-linecap: square"/>
   </g>
   <g id="patch_12">
    <path d="M 67.829274 262.442873 
L 286.524282 262.442873 
" style="fill: none; stroke: #000000; stroke-width: 0.8; stroke-linejoin: miter; stroke-linecap: square"/>
   </g>
   <g id="text_35">
    <!-- Fractional difference -->
    <g transform="translate(116.575146 256.442873)scale(0.14 -0.14)">
     <defs>
      <path id="CMR17-b" d="M 2554 2585 
L 3283 2585 
L 3283 2752 
L 2541 2752 
L 2541 3520 
C 2541 4047 2810 4377 3085 4377 
C 3168 4377 3264 4352 3328 4307 
C 3277 4294 3142 4250 3142 4091 
C 3142 3926 3270 3875 3360 3875 
C 3450 3875 3578 3926 3578 4091 
C 3578 4333 3347 4480 3091 4480 
C 2842 4480 2637 4358 2477 4206 
C 2330 4415 2086 4480 1837 4480 
C 1338 4480 634 4193 634 3494 
L 634 2752 
L 122 2752 
L 122 2585 
L 634 2585 
L 634 441 
C 634 198 608 166 198 166 
L 198 0 
C 352 12 634 12 794 12 
C 960 12 1242 12 1395 0 
L 1395 166 
C 986 166 960 192 960 441 
L 960 2585 
L 2227 2585 
L 2227 441 
C 2227 198 2202 166 1792 166 
L 1792 0 
C 1946 12 2240 12 2406 12 
C 2592 12 2918 12 3091 0 
L 3091 166 
C 2630 166 2554 166 2554 454 
L 2554 2585 
z
M 947 2752 
L 947 3494 
C 947 4072 1395 4377 1824 4377 
C 1920 4377 2170 4358 2323 4218 
C 2208 4212 2099 4161 2099 4002 
C 2099 3837 2246 3793 2259 3793 
C 2227 3679 2227 3552 2227 3507 
L 2227 2752 
L 947 2752 
z
" transform="scale(0.015625)"/>
     </defs>
     <use xlink:href="#CMR17-46" transform="scale(0.996264)"/>
     <use xlink:href="#CMR17-72" transform="translate(52.176591 0)scale(0.996264)"/>
     <use xlink:href="#CMR17-61" transform="translate(87.457359 0)scale(0.996264)"/>
     <use xlink:href="#CMR17-63" transform="translate(133.147836 0)scale(0.996264)"/>
     <use xlink:href="#CMR17-74" transform="translate(173.633497 0)scale(0.996264)"/>
     <use xlink:href="#CMR17-69" transform="translate(208.914264 0)scale(0.996264)"/>
     <use xlink:href="#CMR17-6f" transform="translate(233.785323 0)scale(0.996264)"/>
     <use xlink:href="#CMR17-6e" transform="translate(279.4758 0)scale(0.996264)"/>
     <use xlink:href="#CMR17-61" transform="translate(330.37117 0)scale(0.996264)"/>
     <use xlink:href="#CMR17-6c" transform="translate(376.061647 0)scale(0.996264)"/>
     <use xlink:href="#CMR17-64" transform="translate(431.008672 0)scale(0.996264)"/>
     <use xlink:href="#CMR17-69" transform="translate(481.904041 0)scale(0.996264)"/>
     <use xlink:href="#CMR17-b" transform="translate(506.7751 0)scale(0.996264)"/>
     <use xlink:href="#CMR17-65" transform="translate(559.119777 0)scale(0.996264)"/>
     <use xlink:href="#CMR17-72" transform="translate(599.605438 0)scale(0.996264)"/>
     <use xlink:href="#CMR17-65" transform="translate(634.886206 0)scale(0.996264)"/>
     <use xlink:href="#CMR17-6e" transform="translate(675.371866 0)scale(0.996264)"/>
     <use xlink:href="#CMR17-63" transform="translate(726.267236 0)scale(0.996264)"/>
     <use xlink:href="#CMR17-65" transform="translate(766.752896 0)scale(0.996264)"/>
    </g>
   </g>
  </g>
  <g id="axes_3">
   <g id="patch_13">
    <path d="M 337.923657 414.746152 
L 556.618665 414.746152 
L 556.618665 262.442873 
L 337.923657 262.442873 
z
" style="fill: #ffffff"/>
   </g>
   <g id="matplotlib.axis_5">
    <g id="xtick_13">
     <g id="line2d_34">
      <g>
       <use xlink:href="#m05cbffed54" x="337.923657" y="414.746152" style="stroke: #000000; stroke-width: 0.8"/>
      </g>
     </g>
     <g id="text_36">
      <!-- $\mathdefault{0}$ -->
      <g transform="translate(335.432989 428.66465)scale(0.1 -0.1)">
       <use xlink:href="#CMR17-30" transform="scale(0.996264)"/>
      </g>
     </g>
    </g>
    <g id="xtick_14">
     <g id="line2d_35">
      <g>
       <use xlink:href="#m05cbffed54" x="381.662659" y="414.746152" style="stroke: #000000; stroke-width: 0.8"/>
      </g>
     </g>
     <g id="text_37">
      <!-- $\mathdefault{10}$ -->
      <g transform="translate(376.681323 428.66465)scale(0.1 -0.1)">
       <use xlink:href="#CMR17-31" transform="scale(0.996264)"/>
       <use xlink:href="#CMR17-30" transform="translate(45.690477 0)scale(0.996264)"/>
      </g>
     </g>
    </g>
    <g id="xtick_15">
     <g id="line2d_36">
      <g>
       <use xlink:href="#m05cbffed54" x="425.40166" y="414.746152" style="stroke: #000000; stroke-width: 0.8"/>
      </g>
     </g>
     <g id="text_38">
      <!-- $\mathdefault{20}$ -->
      <g transform="translate(420.420325 428.66465)scale(0.1 -0.1)">
       <use xlink:href="#CMR17-32" transform="scale(0.996264)"/>
       <use xlink:href="#CMR17-30" transform="translate(45.690477 0)scale(0.996264)"/>
      </g>
     </g>
    </g>
    <g id="xtick_16">
     <g id="line2d_37">
      <g>
       <use xlink:href="#m05cbffed54" x="469.140662" y="414.746152" style="stroke: #000000; stroke-width: 0.8"/>
      </g>
     </g>
     <g id="text_39">
      <!-- $\mathdefault{30}$ -->
      <g transform="translate(464.159326 428.66465)scale(0.1 -0.1)">
       <use xlink:href="#CMR17-33" transform="scale(0.996264)"/>
       <use xlink:href="#CMR17-30" transform="translate(45.690477 0)scale(0.996264)"/>
      </g>
     </g>
    </g>
    <g id="xtick_17">
     <g id="line2d_38">
      <g>
       <use xlink:href="#m05cbffed54" x="512.879663" y="414.746152" style="stroke: #000000; stroke-width: 0.8"/>
      </g>
     </g>
     <g id="text_40">
      <!-- $\mathdefault{40}$ -->
      <g transform="translate(507.898328 428.66465)scale(0.1 -0.1)">
       <use xlink:href="#CMR17-34" transform="scale(0.996264)"/>
       <use xlink:href="#CMR17-30" transform="translate(45.690477 0)scale(0.996264)"/>
      </g>
     </g>
    </g>
    <g id="xtick_18">
     <g id="line2d_39">
      <g>
       <use xlink:href="#m05cbffed54" x="556.618665" y="414.746152" style="stroke: #000000; stroke-width: 0.8"/>
      </g>
     </g>
     <g id="text_41">
      <!-- $\mathdefault{50}$ -->
      <g transform="translate(551.637329 428.66465)scale(0.1 -0.1)">
       <use xlink:href="#CMR17-35" transform="scale(0.996264)"/>
       <use xlink:href="#CMR17-30" transform="translate(45.690477 0)scale(0.996264)"/>
      </g>
     </g>
    </g>
    <g id="text_42">
     <!-- $E_\nu [\mathrm{MeV}]$ -->
     <g transform="translate(424.662371 443.568205)scale(0.12 -0.12)">
      <use xlink:href="#CMMI12-45" transform="scale(0.996264)"/>
      <use xlink:href="#CMMI12-17" transform="translate(72.211218 -14.943915)scale(0.697382)"/>
      <use xlink:href="#CMR17-5b" transform="translate(110.847141 0)scale(0.996264)"/>
      <use xlink:href="#CMR17-4d" transform="translate(135.718199 0)scale(0.996264)"/>
      <use xlink:href="#CMR17-65" transform="translate(220.40514 0)scale(0.996264)"/>
      <use xlink:href="#CMR17-56" transform="translate(260.8908 0)scale(0.996264)"/>
      <use xlink:href="#CMR17-5d" transform="translate(331.264396 0)scale(0.996264)"/>
     </g>
    </g>
   </g>
   <g id="matplotlib.axis_6">
    <g id="ytick_16">
     <g id="line2d_40">
      <g>
       <use xlink:href="#m27c2cb9437" x="337.923657" y="414.746152" style="stroke: #000000; stroke-width: 0.8"/>
      </g>
     </g>
     <g id="text_43">
      <!-- 0 -->
      <g transform="translate(325.942322 418.205401)scale(0.1 -0.1)">
       <use xlink:href="#CMR17-30" transform="scale(0.996264)"/>
      </g>
     </g>
    </g>
    <g id="ytick_17">
     <g id="line2d_41">
      <g>
       <use xlink:href="#m27c2cb9437" x="337.923657" y="384.285496" style="stroke: #000000; stroke-width: 0.8"/>
      </g>
     </g>
     <g id="text_44">
      <!-- 2 -->
      <g transform="translate(325.942322 387.744745)scale(0.1 -0.1)">
       <use xlink:href="#CMR17-32" transform="scale(0.996264)"/>
      </g>
     </g>
    </g>
    <g id="ytick_18">
     <g id="line2d_42">
      <g>
       <use xlink:href="#m27c2cb9437" x="337.923657" y="353.82484" style="stroke: #000000; stroke-width: 0.8"/>
      </g>
     </g>
     <g id="text_45">
      <!-- 4 -->
      <g transform="translate(325.942322 357.28409)scale(0.1 -0.1)">
       <use xlink:href="#CMR17-34" transform="scale(0.996264)"/>
      </g>
     </g>
    </g>
    <g id="ytick_19">
     <g id="line2d_43">
      <g>
       <use xlink:href="#m27c2cb9437" x="337.923657" y="323.364185" style="stroke: #000000; stroke-width: 0.8"/>
      </g>
     </g>
     <g id="text_46">
      <!-- 6 -->
      <g transform="translate(325.942322 326.823434)scale(0.1 -0.1)">
       <use xlink:href="#CMR17-36" transform="scale(0.996264)"/>
      </g>
     </g>
    </g>
    <g id="ytick_20">
     <g id="line2d_44">
      <g>
       <use xlink:href="#m27c2cb9437" x="337.923657" y="292.903529" style="stroke: #000000; stroke-width: 0.8"/>
      </g>
     </g>
     <g id="text_47">
      <!-- 8 -->
      <g transform="translate(325.942322 296.362778)scale(0.1 -0.1)">
       <use xlink:href="#CMR17-38" transform="scale(0.996264)"/>
      </g>
     </g>
    </g>
    <g id="ytick_21">
     <g id="line2d_45">
      <g>
       <use xlink:href="#m27c2cb9437" x="337.923657" y="262.442873" style="stroke: #000000; stroke-width: 0.8"/>
      </g>
     </g>
     <g id="text_48">
      <!-- 10 -->
      <g transform="translate(320.960987 265.902122)scale(0.1 -0.1)">
       <use xlink:href="#CMR17-31" transform="scale(0.996264)"/>
       <use xlink:href="#CMR17-30" transform="translate(45.690477 0)scale(0.996264)"/>
      </g>
     </g>
    </g>
    <g id="text_49">
     <!-- $\displaystyle \left| \mathcal{F}^0(E) - \mathcal{F}^{0,\mathrm{fitted}}(E) \right| \left[\times 10^9 \right]$ -->
     <g transform="translate(312.776605 412.770485)rotate(-90)scale(0.12 -0.12)">
      <defs>
       <path id="CMEX10-c" d="M 928 -3738 
C 928 -3840 928 -3975 1062 -3975 
C 1203 -3975 1203 -3847 1203 -3738 
L 1203 -103 
C 1203 0 1203 134 1069 134 
C 928 134 928 6 928 -103 
L 928 -3738 
z
" transform="scale(0.015625)"/>
       <path id="CMR17-39" d="M 2253 1871 
C 2253 448 1670 25 1190 25 
C 1043 25 685 43 538 281 
C 704 256 826 345 826 505 
C 826 678 685 736 595 736 
C 538 736 365 710 365 492 
C 365 68 742 -128 1203 -128 
C 1939 -128 2688 665 2688 2090 
C 2688 3857 1971 4224 1485 4224 
C 851 4224 243 3664 243 2800 
C 243 2000 762 1408 1414 1408 
C 1952 1408 2189 1910 2253 2122 
L 2253 1871 
z
M 1427 1510 
C 1254 1510 1011 1542 813 1929 
C 678 2181 678 2477 678 2793 
C 678 3174 678 3438 858 3722 
C 947 3857 1114 4076 1485 4076 
C 2240 4076 2240 2909 2240 2651 
C 2240 2193 2035 1510 1427 1510 
z
" transform="scale(0.015625)"/>
      </defs>
      <use xlink:href="#CMEX10-c" transform="translate(0 114.571273)scale(0.996264)"/>
      <use xlink:href="#CMEX10-c" transform="translate(0 54.794825)scale(0.996264)"/>
      <use xlink:href="#CMEX10-c" transform="translate(0 -4.981624)scale(0.996264)"/>
      <use xlink:href="#CMSY10-46" transform="translate(33.208856 0)scale(0.996264)"/>
      <use xlink:href="#CMR17-30" transform="translate(114.708637 41.134974)scale(0.697382)"/>
      <use xlink:href="#CMR17-28" transform="translate(147.189951 0)scale(0.996264)"/>
      <use xlink:href="#CMMI12-45" transform="translate(182.470718 0)scale(0.996264)"/>
      <use xlink:href="#CMR17-29" transform="translate(260.522355 0)scale(0.996264)"/>
      <use xlink:href="#CMSY10-0" transform="translate(317.942329 0)scale(0.996264)"/>
      <use xlink:href="#CMSY10-46" transform="translate(417.569004 0)scale(0.996264)"/>
      <use xlink:href="#CMR17-30" transform="translate(499.068784 41.134974)scale(0.697382)"/>
      <use xlink:href="#CMMI12-3b" transform="translate(531.051966 41.134974)scale(0.697382)"/>
      <use xlink:href="#CMR17-c" transform="translate(550.019899 41.134974)scale(0.697382)"/>
      <use xlink:href="#CMR17-74" transform="translate(584.839293 41.134974)scale(0.697382)"/>
      <use xlink:href="#CMR17-74" transform="translate(609.535713 41.134974)scale(0.697382)"/>
      <use xlink:href="#CMR17-65" transform="translate(634.232134 41.134974)scale(0.697382)"/>
      <use xlink:href="#CMR17-64" transform="translate(662.571965 41.134974)scale(0.697382)"/>
      <use xlink:href="#CMR17-28" transform="translate(698.696706 0)scale(0.996264)"/>
      <use xlink:href="#CMMI12-45" transform="translate(733.977473 0)scale(0.996264)"/>
      <use xlink:href="#CMR17-29" transform="translate(812.02911 0)scale(0.996264)"/>
      <use xlink:href="#CMEX10-c" transform="translate(847.309877 114.571273)scale(0.996264)"/>
      <use xlink:href="#CMEX10-c" transform="translate(847.309877 54.794825)scale(0.996264)"/>
      <use xlink:href="#CMEX10-c" transform="translate(847.309877 -4.981624)scale(0.996264)"/>
      <use xlink:href="#CMEX10-2" transform="translate(897.123139 80.698084)scale(0.996264)"/>
      <use xlink:href="#CMSY10-2" transform="translate(938.634357 0)scale(0.996264)"/>
      <use xlink:href="#CMR17-31" transform="translate(1016.121825 0)scale(0.996264)"/>
      <use xlink:href="#CMR17-30" transform="translate(1061.812302 0)scale(0.996264)"/>
      <use xlink:href="#CMR17-39" transform="translate(1107.502779 41.134974)scale(0.697382)"/>
      <use xlink:href="#CMEX10-3" transform="translate(1139.984093 80.698084)scale(0.996264)"/>
     </g>
    </g>
   </g>
   <g id="line2d_46">
    <path d="M 338.361047 414.252994 
L 340.547997 402.303554 
L 342.734947 369.303487 
L 344.921897 332.563319 
L 347.108847 304.943324 
L 349.295797 293.190102 
L 351.482748 298.908679 
L 353.669698 320.009219 
L 355.856648 352.11815 
L 358.043598 389.873932 
L 360.230548 401.482193 
L 362.417498 367.366712 
L 364.604448 340.38858 
L 366.791398 322.276262 
L 368.978348 313.497696 
L 371.165298 313.521983 
L 373.352248 321.129739 
L 375.539198 334.710894 
L 377.726148 352.514337 
L 379.913099 372.834942 
L 382.100049 394.138089 
L 384.286999 414.362202 
L 386.473949 394.705793 
L 388.660899 377.141955 
L 390.847849 362.181063 
L 393.034799 350.118501 
L 395.221749 341.070682 
L 397.408699 335.011293 
L 399.595649 331.80514 
L 401.782599 331.238211 
L 403.969549 333.043368 
L 406.156499 336.921633 
L 408.34345 342.559334 
L 410.5304 349.641539 
L 412.71735 357.862268 
L 414.9043 366.931981 
L 417.09125 376.582797 
L 419.2782 386.571862 
L 421.46515 396.68323 
L 423.6521 406.728559 
L 425.83905 412.945397 
L 428.026 403.488483 
L 430.21295 394.502372 
L 432.3999 386.073121 
L 434.58685 378.265461 
L 436.773801 371.124925 
L 438.960751 364.680013 
L 441.147701 358.94434 
L 443.334651 353.918725 
L 445.521601 349.593171 
L 447.708551 345.948714 
L 449.895501 342.959134 
L 452.082451 340.592506 
L 454.269401 338.81259 
L 456.456351 337.580069 
L 458.643301 336.85362 
L 460.830251 336.590852 
L 463.017201 336.749095 
L 465.204152 337.286063 
L 467.391102 338.160402 
L 469.578052 339.332128 
L 471.765002 340.762968 
L 473.951952 342.416629 
L 476.138902 344.258974 
L 478.325852 346.258154 
L 480.512802 348.384672 
L 482.699752 350.611408 
L 484.886702 352.913606 
L 487.073652 355.268824 
L 489.260602 357.656867 
L 491.447552 360.059699 
L 493.634503 362.461334 
L 495.821453 364.847725 
L 498.008403 367.206641 
L 500.195353 369.527542 
L 502.382303 371.801451 
L 504.569253 374.020832 
L 506.756203 376.179461 
L 508.943153 378.272308 
L 511.130103 380.295422 
L 513.317053 382.245819 
L 515.504003 384.121379 
L 517.690953 385.92075 
L 519.877903 387.643251 
L 522.064854 389.288793 
L 524.251804 390.857797 
L 526.438754 392.351125 
L 528.625704 393.77001 
L 530.812654 395.116001 
L 532.999604 396.390908 
L 535.186554 397.596749 
L 537.373504 398.735714 
L 539.560454 399.81012 
L 541.747404 400.82238 
L 543.934354 401.774973 
L 546.121304 402.670415 
L 548.308254 403.51124 
L 550.495205 404.299975 
L 552.682155 405.039128 
L 554.869105 405.731173 
" clip-path="url(#p16c8d175e2)" style="fill: none; stroke: #d44842; stroke-width: 2; stroke-linecap: square"/>
   </g>
   <g id="patch_14">
    <path d="M 337.923657 414.746152 
L 337.923657 262.442873 
" style="fill: none; stroke: #000000; stroke-width: 0.8; stroke-linejoin: miter; stroke-linecap: square"/>
   </g>
   <g id="patch_15">
    <path d="M 556.618665 414.746152 
L 556.618665 262.442873 
" style="fill: none; stroke: #000000; stroke-width: 0.8; stroke-linejoin: miter; stroke-linecap: square"/>
   </g>
   <g id="patch_16">
    <path d="M 337.923657 414.746152 
L 556.618665 414.746152 
" style="fill: none; stroke: #000000; stroke-width: 0.8; stroke-linejoin: miter; stroke-linecap: square"/>
   </g>
   <g id="patch_17">
    <path d="M 337.923657 262.442873 
L 556.618665 262.442873 
" style="fill: none; stroke: #000000; stroke-width: 0.8; stroke-linejoin: miter; stroke-linecap: square"/>
   </g>
   <g id="text_50">
    <!-- Absolute difference -->
    <g transform="translate(390.33157 256.442873)scale(0.14 -0.14)">
     <defs>
      <path id="CMR17-41" d="M 2323 4441 
C 2291 4524 2278 4544 2214 4544 
C 2150 4544 2138 4524 2106 4441 
L 749 580 
C 627 236 371 166 147 166 
L 147 0 
C 262 12 518 12 640 12 
C 800 12 1056 12 1210 0 
L 1210 166 
C 909 179 864 382 864 459 
C 864 516 877 548 890 586 
L 1229 1536 
L 2906 1536 
L 3290 453 
C 3322 376 3322 363 3322 338 
C 3322 166 3046 166 2925 166 
L 2925 0 
C 3110 12 3443 12 3642 12 
C 3808 12 4128 12 4282 0 
L 4282 166 
C 3942 166 3827 166 3744 402 
L 2323 4441 
z
M 2067 3924 
L 2848 1702 
L 1286 1702 
L 2067 3924 
z
" transform="scale(0.015625)"/>
      <path id="CMR17-62" d="M 960 4416 
L 198 4345 
L 198 4179 
C 576 4179 634 4141 634 3843 
L 634 -13 
L 749 -13 
L 934 445 
C 1120 141 1395 -64 1766 -64 
C 2406 -64 3053 503 3053 1382 
C 3053 2209 2477 2816 1830 2816 
C 1434 2816 1152 2603 960 2351 
L 960 4416 
z
M 973 2022 
C 973 2138 973 2157 1062 2293 
C 1312 2681 1670 2713 1792 2713 
C 1984 2713 2643 2610 2643 1388 
C 2643 109 1888 38 1734 38 
C 1536 38 1248 115 1043 490 
C 973 613 973 626 973 742 
L 973 2022 
z
" transform="scale(0.015625)"/>
     </defs>
     <use xlink:href="#CMR17-41" transform="scale(0.996264)"/>
     <use xlink:href="#CMR17-62" transform="translate(69.07243 0)scale(0.996264)"/>
     <use xlink:href="#CMR17-73" transform="translate(119.9678 0)scale(0.996264)"/>
     <use xlink:href="#CMR17-6f" transform="translate(155.769137 0)scale(0.996264)"/>
     <use xlink:href="#CMR17-6c" transform="translate(201.459614 0)scale(0.996264)"/>
     <use xlink:href="#CMR17-75" transform="translate(226.330673 0)scale(0.996264)"/>
     <use xlink:href="#CMR17-74" transform="translate(277.226043 0)scale(0.996264)"/>
     <use xlink:href="#CMR17-65" transform="translate(312.50681 0)scale(0.996264)"/>
     <use xlink:href="#CMR17-64" transform="translate(383.068437 0)scale(0.996264)"/>
     <use xlink:href="#CMR17-69" transform="translate(433.963807 0)scale(0.996264)"/>
     <use xlink:href="#CMR17-b" transform="translate(458.834865 0)scale(0.996264)"/>
     <use xlink:href="#CMR17-65" transform="translate(511.179543 0)scale(0.996264)"/>
     <use xlink:href="#CMR17-72" transform="translate(551.665203 0)scale(0.996264)"/>
     <use xlink:href="#CMR17-65" transform="translate(586.945971 0)scale(0.996264)"/>
     <use xlink:href="#CMR17-6e" transform="translate(627.431632 0)scale(0.996264)"/>
     <use xlink:href="#CMR17-63" transform="translate(678.327001 0)scale(0.996264)"/>
     <use xlink:href="#CMR17-65" transform="translate(718.812662 0)scale(0.996264)"/>
    </g>
   </g>
  </g>
  <g id="text_51">
   <!-- Time Integrated fluxes at 10 kpc - Garching data LS220-s27 vs Fit -->
   <g transform="translate(17.648039 21.036997)scale(0.2 -0.2)">
    <defs>
     <path id="CMR17-49" d="M 1261 3898 
C 1261 4185 1338 4185 1798 4185 
L 1798 4352 
C 1594 4339 1267 4339 1050 4339 
C 832 4339 506 4339 301 4352 
L 301 4185 
C 762 4185 838 4185 838 3898 
L 838 453 
C 838 166 762 166 301 166 
L 301 0 
C 506 12 832 12 1050 12 
C 1267 12 1594 12 1798 0 
L 1798 166 
C 1338 166 1261 166 1261 453 
L 1261 3898 
z
" transform="scale(0.015625)"/>
     <path id="CMR17-67" d="M 710 1165 
C 832 1068 1043 960 1299 960 
C 1805 960 2240 1359 2240 1895 
C 2240 2063 2189 2321 1997 2521 
C 2176 2713 2438 2777 2586 2777 
C 2611 2777 2650 2777 2682 2758 
C 2656 2751 2598 2726 2598 2623 
C 2598 2540 2656 2483 2739 2483 
C 2835 2483 2886 2547 2886 2630 
C 2886 2751 2790 2880 2586 2880 
C 2330 2880 2106 2758 1926 2591 
C 1734 2764 1504 2828 1299 2828 
C 794 2828 358 2431 358 1895 
C 358 1527 570 1294 634 1230 
C 442 1004 442 742 442 710 
C 442 544 506 300 723 166 
C 390 82 128 -184 128 -517 
C 128 -996 736 -1344 1466 -1344 
C 2170 -1344 2803 -1009 2803 -510 
C 2803 384 1856 384 1363 384 
C 1216 384 954 384 922 390 
C 723 422 589 601 589 825 
C 589 883 589 1024 710 1165 
z
M 1299 1068 
C 736 1068 736 1766 736 1895 
C 736 2024 736 2719 1299 2719 
C 1862 2719 1862 2024 1862 1895 
C 1862 1766 1862 1068 1299 1068 
z
M 1466 -1236 
C 826 -1236 384 -883 384 -517 
C 384 -311 493 -118 634 -11 
C 794 102 858 102 1293 102 
C 1818 102 2547 102 2547 -517 
C 2547 -883 2106 -1236 1466 -1236 
z
" transform="scale(0.015625)"/>
     <path id="CMR17-d" d="M 2554 4428 
C 2483 4415 2426 4403 2342 4383 
C 2157 4480 1914 4480 1850 4480 
C 1306 4480 634 4174 634 3494 
L 634 2752 
L 122 2752 
L 122 2585 
L 634 2585 
L 634 441 
C 634 198 608 166 198 166 
L 198 0 
C 352 12 634 12 794 12 
C 960 12 1242 12 1395 0 
L 1395 166 
C 986 166 960 192 960 441 
L 960 2585 
L 2227 2585 
L 2227 441 
C 2227 198 2202 166 1792 166 
L 1792 0 
C 1946 12 2227 12 2387 12 
C 2554 12 2835 12 2989 0 
L 2989 166 
C 2579 166 2554 192 2554 441 
L 2554 4428 
z
M 947 2752 
L 947 3494 
C 947 4053 1370 4377 1837 4377 
C 1869 4377 2221 4364 2221 4301 
C 2221 4294 2214 4288 2182 4256 
C 2125 4218 2099 4155 2099 4091 
C 2099 4002 2144 3926 2227 3894 
L 2227 2752 
L 947 2752 
z
" transform="scale(0.015625)"/>
     <path id="CMR17-78" d="M 1664 1491 
C 1856 1740 2074 2022 2253 2233 
C 2464 2476 2707 2579 2989 2585 
L 2989 2752 
C 2880 2745 2656 2739 2541 2739 
C 2368 2739 2170 2739 2022 2752 
L 2022 2585 
C 2112 2572 2163 2508 2163 2419 
C 2163 2304 2099 2233 2067 2188 
L 1594 1587 
L 1030 2323 
C 973 2393 973 2406 973 2438 
C 973 2515 1037 2579 1146 2585 
L 1146 2752 
C 992 2739 717 2739 557 2739 
C 384 2739 179 2739 38 2752 
L 38 2585 
C 384 2585 461 2560 614 2368 
L 1350 1414 
C 1363 1401 1395 1363 1395 1344 
C 1395 1318 838 633 768 544 
C 480 198 179 172 6 166 
L 6 0 
C 115 6 339 12 454 12 
C 582 12 864 12 979 0 
L 979 166 
C 941 172 838 185 838 332 
C 838 448 890 518 947 595 
L 1478 1248 
L 2035 524 
C 2086 454 2163 358 2163 313 
C 2163 224 2086 172 1984 166 
L 1984 0 
C 2138 12 2413 12 2573 12 
C 2746 12 2950 12 3091 0 
L 3091 166 
C 2771 166 2675 179 2522 377 
L 1664 1491 
z
" transform="scale(0.015625)"/>
     <path id="CMR17-6b" d="M 1670 1679 
C 1664 1692 1632 1730 1632 1749 
C 1632 1762 2086 2175 2144 2226 
C 2509 2532 2739 2563 2906 2570 
L 2906 2735 
C 2867 2735 2854 2735 2848 2729 
L 2534 2722 
C 2355 2722 2080 2722 1907 2735 
L 1907 2570 
C 1997 2563 2061 2513 2061 2423 
C 2061 2296 1933 2175 1926 2175 
L 960 1298 
L 960 4416 
L 198 4345 
L 198 4179 
C 576 4179 634 4141 634 3835 
L 634 439 
C 634 198 608 166 198 166 
L 198 0 
C 352 12 634 12 794 12 
C 954 12 1235 12 1389 0 
L 1389 166 
C 979 166 954 191 954 439 
L 954 1139 
L 1395 1540 
L 2042 586 
C 2118 471 2182 382 2182 299 
C 2182 185 2067 166 1990 166 
L 1990 0 
C 2144 12 2419 12 2579 12 
C 2694 12 2931 6 3040 0 
L 3040 166 
C 2739 166 2669 223 2477 503 
L 1670 1679 
z
" transform="scale(0.015625)"/>
     <path id="CMR17-2d" d="M 1632 1254 
L 1632 1536 
L 26 1536 
L 26 1254 
L 1632 1254 
z
" transform="scale(0.015625)"/>
     <path id="CMR17-47" d="M 3974 1258 
C 3974 1503 3994 1536 4390 1536 
L 4390 1702 
C 4237 1689 3891 1689 3718 1689 
C 3539 1689 3040 1696 2797 1702 
L 2797 1536 
L 2989 1536 
C 3539 1536 3552 1464 3552 1232 
L 3552 806 
C 3552 96 2720 38 2522 38 
C 1862 38 781 496 781 2179 
C 781 3862 1843 4313 2464 4313 
C 3187 4313 3712 3681 3834 2785 
C 3846 2708 3846 2695 3904 2695 
C 3974 2695 3974 2708 3974 2824 
L 3974 4351 
C 3974 4467 3968 4473 3930 4473 
C 3904 4473 3898 4467 3853 4390 
L 3571 3849 
C 3258 4249 2874 4480 2381 4480 
C 1286 4480 294 3507 294 2179 
C 294 858 1267 -128 2394 -128 
C 2912 -128 3418 57 3616 425 
C 3725 161 3904 -20 3936 -20 
C 3968 -20 3974 -13 3974 102 
L 3974 1258 
z
" transform="scale(0.015625)"/>
     <path id="CMR17-68" d="M 2656 1954 
C 2656 2282 2592 2816 1837 2816 
C 1312 2816 1056 2392 979 2179 
L 973 2179 
L 973 4416 
L 211 4345 
L 211 4179 
C 589 4179 646 4141 646 3843 
L 646 443 
C 646 198 621 166 211 166 
L 211 0 
C 365 12 646 12 813 12 
C 979 12 1267 12 1421 0 
L 1421 166 
C 1011 166 986 192 986 443 
L 986 1678 
C 986 2269 1344 2713 1792 2713 
C 2266 2713 2317 2289 2317 1980 
L 2317 443 
C 2317 198 2291 166 1882 166 
L 1882 0 
C 2035 12 2317 12 2483 12 
C 2650 12 2938 12 3091 0 
L 3091 166 
C 2682 166 2656 192 2656 443 
L 2656 1954 
z
" transform="scale(0.015625)"/>
     <path id="CMR17-4c" d="M 3469 1612 
L 3354 1612 
C 3302 981 3219 166 2125 166 
L 1530 166 
C 1274 166 1261 198 1261 414 
L 1261 3892 
C 1261 4121 1274 4185 1760 4185 
L 1901 4185 
L 1901 4352 
C 1638 4339 1331 4339 1069 4339 
C 870 4339 512 4339 326 4352 
L 326 4185 
C 768 4185 838 4185 838 3898 
L 838 453 
C 838 166 768 166 326 166 
L 326 0 
L 3315 0 
L 3469 1612 
z
" transform="scale(0.015625)"/>
     <path id="CMR17-53" d="M 2803 4351 
C 2803 4467 2797 4473 2758 4473 
C 2720 4473 2707 4447 2682 4390 
L 2490 3965 
C 2246 4320 1875 4480 1472 4480 
C 819 4480 294 3958 294 3301 
C 294 3101 339 2817 557 2546 
C 794 2250 1018 2198 1530 2063 
C 1722 2011 2042 1927 2106 1901 
C 2470 1747 2662 1360 2662 999 
C 2662 534 2336 38 1779 38 
C 1094 38 454 425 410 1328 
C 403 1431 397 1437 352 1437 
C 301 1437 294 1431 294 1302 
L 294 0 
C 294 -116 301 -122 339 -122 
C 384 -122 397 -90 486 109 
C 493 128 493 141 614 386 
C 934 -39 1472 -128 1779 -128 
C 2477 -128 2970 457 2970 1141 
C 2970 1476 2848 1734 2778 1850 
C 2509 2263 2221 2340 1914 2417 
C 1869 2437 1856 2437 1498 2527 
C 1152 2617 1005 2662 845 2836 
C 666 3036 602 3243 602 3449 
C 602 3868 934 4326 1478 4326 
C 2157 4326 2579 3842 2675 3036 
C 2694 2920 2701 2914 2746 2914 
C 2803 2914 2803 2933 2803 3043 
L 2803 4351 
z
" transform="scale(0.015625)"/>
     <path id="CMR17-37" d="M 2886 3955 
L 2886 4096 
L 1382 4096 
C 634 4096 621 4166 595 4288 
L 480 4288 
L 294 3104 
L 410 3104 
C 429 3226 474 3552 550 3673 
C 589 3724 1062 3724 1171 3724 
L 2579 3724 
L 1869 2670 
C 1395 1961 1069 1003 1069 166 
C 1069 89 1069 -128 1299 -128 
C 1530 -128 1530 89 1530 172 
L 1530 466 
C 1530 1514 1709 2204 2003 2644 
L 2886 3955 
z
" transform="scale(0.015625)"/>
    </defs>
    <use xlink:href="#CMR17-54" transform="scale(0.996264)"/>
    <use xlink:href="#CMR17-69" transform="translate(66.509881 0)scale(0.996264)"/>
    <use xlink:href="#CMR17-6d" transform="translate(91.380939 0)scale(0.996264)"/>
    <use xlink:href="#CMR17-65" transform="translate(168.300529 0)scale(0.996264)"/>
    <use xlink:href="#CMR17-49" transform="translate(238.862156 0)scale(0.996264)"/>
    <use xlink:href="#CMR17-6e" transform="translate(271.500565 0)scale(0.996264)"/>
    <use xlink:href="#CMR17-74" transform="translate(319.793481 0)scale(0.996264)"/>
    <use xlink:href="#CMR17-65" transform="translate(355.074249 0)scale(0.996264)"/>
    <use xlink:href="#CMR17-67" transform="translate(395.559909 0)scale(0.996264)"/>
    <use xlink:href="#CMR17-72" transform="translate(441.250386 0)scale(0.996264)"/>
    <use xlink:href="#CMR17-61" transform="translate(476.531154 0)scale(0.996264)"/>
    <use xlink:href="#CMR17-74" transform="translate(522.221631 0)scale(0.996264)"/>
    <use xlink:href="#CMR17-65" transform="translate(557.502399 0)scale(0.996264)"/>
    <use xlink:href="#CMR17-64" transform="translate(597.988059 0)scale(0.996264)"/>
    <use xlink:href="#CMR17-d" transform="translate(678.959395 0)scale(0.996264)"/>
    <use xlink:href="#CMR17-75" transform="translate(728.701619 0)scale(0.996264)"/>
    <use xlink:href="#CMR17-78" transform="translate(779.596989 0)scale(0.996264)"/>
    <use xlink:href="#CMR17-65" transform="translate(827.889904 0)scale(0.996264)"/>
    <use xlink:href="#CMR17-73" transform="translate(868.375565 0)scale(0.996264)"/>
    <use xlink:href="#CMR17-61" transform="translate(934.252869 0)scale(0.996264)"/>
    <use xlink:href="#CMR17-74" transform="translate(979.943346 0)scale(0.996264)"/>
    <use xlink:href="#CMR17-31" transform="translate(1045.30008 0)scale(0.996264)"/>
    <use xlink:href="#CMR17-30" transform="translate(1090.990557 0)scale(0.996264)"/>
    <use xlink:href="#CMR17-6b" transform="translate(1166.757001 0)scale(0.996264)"/>
    <use xlink:href="#CMR17-70" transform="translate(1215.049917 0)scale(0.996264)"/>
    <use xlink:href="#CMR17-63" transform="translate(1268.547725 0)scale(0.996264)"/>
    <use xlink:href="#CMR17-2d" transform="translate(1339.109352 0)scale(0.996264)"/>
    <use xlink:href="#CMR17-47" transform="translate(1399.261285 0)scale(0.996264)"/>
    <use xlink:href="#CMR17-61" transform="translate(1471.616631 0)scale(0.996264)"/>
    <use xlink:href="#CMR17-72" transform="translate(1517.307108 0)scale(0.996264)"/>
    <use xlink:href="#CMR17-63" transform="translate(1552.587875 0)scale(0.996264)"/>
    <use xlink:href="#CMR17-68" transform="translate(1590.471082 0)scale(0.996264)"/>
    <use xlink:href="#CMR17-69" transform="translate(1641.366452 0)scale(0.996264)"/>
    <use xlink:href="#CMR17-6e" transform="translate(1666.23751 0)scale(0.996264)"/>
    <use xlink:href="#CMR17-67" transform="translate(1717.13288 0)scale(0.996264)"/>
    <use xlink:href="#CMR17-64" transform="translate(1792.899323 0)scale(0.996264)"/>
    <use xlink:href="#CMR17-61" transform="translate(1843.794693 0)scale(0.996264)"/>
    <use xlink:href="#CMR17-74" transform="translate(1889.48517 0)scale(0.996264)"/>
    <use xlink:href="#CMR17-61" transform="translate(1924.765938 0)scale(0.996264)"/>
    <use xlink:href="#CMR17-4c" transform="translate(2000.532382 0)scale(0.996264)"/>
    <use xlink:href="#CMR17-53" transform="translate(2057.913789 0)scale(0.996264)"/>
    <use xlink:href="#CMR17-32" transform="translate(2108.809159 0)scale(0.996264)"/>
    <use xlink:href="#CMR17-32" transform="translate(2154.499636 0)scale(0.996264)"/>
    <use xlink:href="#CMR17-30" transform="translate(2200.190113 0)scale(0.996264)"/>
    <use xlink:href="#CMR17-2d" transform="translate(2245.880591 0)scale(0.996264)"/>
    <use xlink:href="#CMR17-73" transform="translate(2275.956557 0)scale(0.996264)"/>
    <use xlink:href="#CMR17-32" transform="translate(2311.757895 0)scale(0.996264)"/>
    <use xlink:href="#CMR17-37" transform="translate(2357.448372 0)scale(0.996264)"/>
    <use xlink:href="#CMR17-76" transform="translate(2433.214815 0)scale(0.996264)"/>
    <use xlink:href="#CMR17-73" transform="translate(2481.507731 0)scale(0.996264)"/>
    <use xlink:href="#CMR17-46" transform="translate(2547.385035 0)scale(0.996264)"/>
    <use xlink:href="#CMR17-69" transform="translate(2607.368882 0)scale(0.996264)"/>
    <use xlink:href="#CMR17-74" transform="translate(2632.23994 0)scale(0.996264)"/>
   </g>
  </g>
 </g>
 <defs>
  <clipPath id="p6587104a62">
   <rect x="67.829274" y="51.842873" width="488.789391" height="152.303279"/>
  </clipPath>
  <clipPath id="pb69dd341ae">
   <rect x="67.829274" y="262.442873" width="218.695008" height="152.303279"/>
  </clipPath>
  <clipPath id="p16c8d175e2">
   <rect x="337.923657" y="262.442873" width="218.695008" height="152.303279"/>
  </clipPath>
 </defs>
</svg>
