<?xml version="1.0" encoding="utf-8" standalone="no"?>
<!DOCTYPE svg PUBLIC "-//W3C//DTD SVG 1.1//EN"
  "http://www.w3.org/Graphics/SVG/1.1/DTD/svg11.dtd">
<svg xmlns:xlink="http://www.w3.org/1999/xlink" width="496.927984pt" height="418.276793pt" viewBox="0 0 496.927984 418.276793" xmlns="http://www.w3.org/2000/svg" version="1.1">
 <metadata>
  <rdf:RDF xmlns:dc="http://purl.org/dc/elements/1.1/" xmlns:cc="http://creativecommons.org/ns#" xmlns:rdf="http://www.w3.org/1999/02/22-rdf-syntax-ns#">
   <cc:Work>
    <dc:type rdf:resource="http://purl.org/dc/dcmitype/StillImage"/>
    <dc:date>2022-11-21T20:56:30.290513</dc:date>
    <dc:format>image/svg+xml</dc:format>
    <dc:creator>
     <cc:Agent>
      <dc:title>Matplotlib v3.5.1, https://matplotlib.org/</dc:title>
     </cc:Agent>
    </dc:creator>
   </cc:Work>
  </rdf:RDF>
 </metadata>
 <defs>
  <style type="text/css">*{stroke-linejoin: round; stroke-linecap: butt}</style>
 </defs>
 <g id="figure_1">
  <g id="patch_1">
   <path d="M 0 418.276793 
L 496.927984 418.276793 
L 496.927984 0 
L 0 0 
z
" style="fill: #ffffff"/>
  </g>
  <g id="axes_1">
   <g id="patch_2">
    <path d="M 43.327984 377.27342 
L 489.727984 377.27342 
L 489.727984 44.63342 
L 43.327984 44.63342 
z
" style="fill: #ffffff"/>
   </g>
   <g id="PolyCollection_1">
    <defs>
     <path id="m6404bb8d50" d="M 43.327984 -333.129519 
L 43.327984 -261.379867 
L 73.087984 -261.379867 
L 73.087984 -333.129519 
L 73.087984 -333.129519 
L 43.327984 -333.129519 
z
" style="stroke: #000000; stroke-opacity: 0.3"/>
    </defs>
    <g clip-path="url(#p266f96824c)">
     <use xlink:href="#m6404bb8d50" x="0" y="418.276793" style="fill-opacity: 0.3; stroke: #000000; stroke-opacity: 0.3"/>
    </g>
   </g>
   <g id="PolyCollection_2">
    <defs>
     <path id="mbf7b1d01bf" d="M 43.327984 -142.409466 
L 43.327984 -105.645583 
L 73.087984 -105.645583 
L 73.087984 -142.409466 
L 73.087984 -142.409466 
L 43.327984 -142.409466 
z
" style="stroke: #dc143c; stroke-opacity: 0.5"/>
    </defs>
    <g clip-path="url(#p266f96824c)">
     <use xlink:href="#mbf7b1d01bf" x="0" y="418.276793" style="fill: #dc143c; fill-opacity: 0.5; stroke: #dc143c; stroke-opacity: 0.5"/>
    </g>
   </g>
   <g id="PolyCollection_3">
    <defs>
     <path id="ma494966ef5" d="M 43.327984 -96.888342 
L 43.327984 -75.285422 
L 73.087984 -75.285422 
L 73.087984 -96.888342 
L 73.087984 -96.888342 
L 43.327984 -96.888342 
z
" style="stroke: #008080; stroke-opacity: 0.5"/>
    </defs>
    <g clip-path="url(#p266f96824c)">
     <use xlink:href="#ma494966ef5" x="0" y="418.276793" style="fill: #008080; fill-opacity: 0.5; stroke: #008080; stroke-opacity: 0.5"/>
    </g>
   </g>
   <g id="PolyCollection_4">
    <defs>
     <path id="m1bb8ebbaf5" d="M 73.087984 -182.640661 
L 73.087984 -164.392736 
L 102.847984 -164.392736 
L 102.847984 -182.640661 
L 102.847984 -182.640661 
L 73.087984 -182.640661 
z
" style="stroke: #000000; stroke-opacity: 0.3"/>
    </defs>
    <g clip-path="url(#p266f96824c)">
     <use xlink:href="#m1bb8ebbaf5" x="0" y="418.276793" style="fill-opacity: 0.3; stroke: #000000; stroke-opacity: 0.3"/>
    </g>
   </g>
   <g id="PolyCollection_5">
    <defs>
     <path id="m2ff511a31b" d="M 73.087984 -80.456889 
L 73.087984 -74.363735 
L 102.847984 -74.363735 
L 102.847984 -80.456889 
L 102.847984 -80.456889 
L 73.087984 -80.456889 
z
" style="stroke: #dc143c; stroke-opacity: 0.5"/>
    </defs>
    <g clip-path="url(#p266f96824c)">
     <use xlink:href="#m2ff511a31b" x="0" y="418.276793" style="fill: #dc143c; fill-opacity: 0.5; stroke: #dc143c; stroke-opacity: 0.5"/>
    </g>
   </g>
   <g id="PolyCollection_6">
    <defs>
     <path id="m1cf73c1f7f" d="M 73.087984 -61.75525 
L 73.087984 -58.445847 
L 102.847984 -58.445847 
L 102.847984 -61.75525 
L 102.847984 -61.75525 
L 73.087984 -61.75525 
z
" style="stroke: #008080; stroke-opacity: 0.5"/>
    </defs>
    <g clip-path="url(#p266f96824c)">
     <use xlink:href="#m1cf73c1f7f" x="0" y="418.276793" style="fill: #008080; fill-opacity: 0.5; stroke: #008080; stroke-opacity: 0.5"/>
    </g>
   </g>
   <g id="PolyCollection_7">
    <defs>
     <path id="m1ad39f54ff" d="M 102.847984 -101.384403 
L 102.847984 -93.333421 
L 132.607984 -93.333421 
L 132.607984 -101.384403 
L 132.607984 -101.384403 
L 102.847984 -101.384403 
z
" style="stroke: #000000; stroke-opacity: 0.3"/>
    </defs>
    <g clip-path="url(#p266f96824c)">
     <use xlink:href="#m1ad39f54ff" x="0" y="418.276793" style="fill-opacity: 0.3; stroke: #000000; stroke-opacity: 0.3"/>
    </g>
   </g>
   <g id="PolyCollection_8">
    <defs>
     <path id="mb6af3f466c" d="M 102.847984 -60.718115 
L 102.847984 -57.991019 
L 132.607984 -57.991019 
L 132.607984 -60.718115 
L 132.607984 -60.718115 
L 102.847984 -60.718115 
z
" style="stroke: #dc143c; stroke-opacity: 0.5"/>
    </defs>
    <g clip-path="url(#p266f96824c)">
     <use xlink:href="#mb6af3f466c" x="0" y="418.276793" style="fill: #dc143c; fill-opacity: 0.5; stroke: #dc143c; stroke-opacity: 0.5"/>
    </g>
   </g>
   <g id="PolyCollection_9">
    <defs>
     <path id="m9ac0a50f74" d="M 102.847984 -51.709426 
L 102.847984 -50.212927 
L 132.607984 -50.212927 
L 132.607984 -51.709426 
L 132.607984 -51.709426 
L 102.847984 -51.709426 
z
" style="stroke: #008080; stroke-opacity: 0.5"/>
    </defs>
    <g clip-path="url(#p266f96824c)">
     <use xlink:href="#m9ac0a50f74" x="0" y="418.276793" style="fill: #008080; fill-opacity: 0.5; stroke: #008080; stroke-opacity: 0.5"/>
    </g>
   </g>
   <g id="PolyCollection_10">
    <defs>
     <path id="m7b228859c8" d="M 132.607984 -68.346616 
L 132.607984 -63.569006 
L 162.367984 -63.569006 
L 162.367984 -68.346616 
L 162.367984 -68.346616 
L 132.607984 -68.346616 
z
" style="stroke: #000000; stroke-opacity: 0.3"/>
    </defs>
    <g clip-path="url(#p266f96824c)">
     <use xlink:href="#m7b228859c8" x="0" y="418.276793" style="fill-opacity: 0.3; stroke: #000000; stroke-opacity: 0.3"/>
    </g>
   </g>
   <g id="PolyCollection_11">
    <defs>
     <path id="macbca6b98e" d="M 132.607984 -52.26878 
L 132.607984 -50.26055 
L 162.367984 -50.26055 
L 162.367984 -52.26878 
L 162.367984 -52.26878 
L 132.607984 -52.26878 
z
" style="stroke: #dc143c; stroke-opacity: 0.5"/>
    </defs>
    <g clip-path="url(#p266f96824c)">
     <use xlink:href="#macbca6b98e" x="0" y="418.276793" style="fill: #dc143c; fill-opacity: 0.5; stroke: #dc143c; stroke-opacity: 0.5"/>
    </g>
   </g>
   <g id="PolyCollection_12">
    <defs>
     <path id="m3a8120bef3" d="M 132.607984 -47.497349 
L 132.607984 -46.331485 
L 162.367984 -46.331485 
L 162.367984 -47.497349 
L 162.367984 -47.497349 
L 132.607984 -47.497349 
z
" style="stroke: #008080; stroke-opacity: 0.5"/>
    </defs>
    <g clip-path="url(#p266f96824c)">
     <use xlink:href="#m3a8120bef3" x="0" y="418.276793" style="fill: #008080; fill-opacity: 0.5; stroke: #008080; stroke-opacity: 0.5"/>
    </g>
   </g>
   <g id="PolyCollection_13">
    <defs>
     <path id="m4dfbebff2d" d="M 162.367984 -56.048476 
L 162.367984 -53.836846 
L 192.127984 -53.836846 
L 192.127984 -56.048476 
L 192.127984 -56.048476 
L 162.367984 -56.048476 
z
" style="stroke: #000000; stroke-opacity: 0.3"/>
    </defs>
    <g clip-path="url(#p266f96824c)">
     <use xlink:href="#m4dfbebff2d" x="0" y="418.276793" style="fill-opacity: 0.3; stroke: #000000; stroke-opacity: 0.3"/>
    </g>
   </g>
   <g id="PolyCollection_14">
    <defs>
     <path id="m994bc1983d" d="M 162.367984 -48.283167 
L 162.367984 -47.177087 
L 192.127984 -47.177087 
L 192.127984 -48.283167 
L 192.127984 -48.283167 
L 162.367984 -48.283167 
z
" style="stroke: #dc143c; stroke-opacity: 0.5"/>
    </defs>
    <g clip-path="url(#p266f96824c)">
     <use xlink:href="#m994bc1983d" x="0" y="418.276793" style="fill: #dc143c; fill-opacity: 0.5; stroke: #dc143c; stroke-opacity: 0.5"/>
    </g>
   </g>
   <g id="PolyCollection_15">
    <defs>
     <path id="ma80697556f" d="M 162.367984 -45.429626 
L 162.367984 -44.747063 
L 192.127984 -44.747063 
L 192.127984 -45.429626 
L 192.127984 -45.429626 
L 162.367984 -45.429626 
z
" style="stroke: #008080; stroke-opacity: 0.5"/>
    </defs>
    <g clip-path="url(#p266f96824c)">
     <use xlink:href="#ma80697556f" x="0" y="418.276793" style="fill: #008080; fill-opacity: 0.5; stroke: #008080; stroke-opacity: 0.5"/>
    </g>
   </g>
   <g id="PolyCollection_16">
    <defs>
     <path id="mad2044ac96" d="M 192.127984 -50.71417 
L 192.127984 -48.20127 
L 221.887984 -48.20127 
L 221.887984 -50.71417 
L 221.887984 -50.71417 
L 192.127984 -50.71417 
z
" style="stroke: #000000; stroke-opacity: 0.3"/>
    </defs>
    <g clip-path="url(#p266f96824c)">
     <use xlink:href="#mad2044ac96" x="0" y="418.276793" style="fill-opacity: 0.3; stroke: #000000; stroke-opacity: 0.3"/>
    </g>
   </g>
   <g id="PolyCollection_17">
    <defs>
     <path id="m6212c63770" d="M 192.127984 -46.243881 
L 192.127984 -44.884559 
L 221.887984 -44.884559 
L 221.887984 -46.243881 
L 221.887984 -46.243881 
L 192.127984 -46.243881 
z
" style="stroke: #dc143c; stroke-opacity: 0.5"/>
    </defs>
    <g clip-path="url(#p266f96824c)">
     <use xlink:href="#m6212c63770" x="0" y="418.276793" style="fill: #dc143c; fill-opacity: 0.5; stroke: #dc143c; stroke-opacity: 0.5"/>
    </g>
   </g>
   <g id="PolyCollection_18">
    <defs>
     <path id="m4c937d5775" d="M 192.127984 -44.330289 
L 192.127984 -43.465754 
L 221.887984 -43.465754 
L 221.887984 -44.330289 
L 221.887984 -44.330289 
L 192.127984 -44.330289 
z
" style="stroke: #008080; stroke-opacity: 0.5"/>
    </defs>
    <g clip-path="url(#p266f96824c)">
     <use xlink:href="#m4c937d5775" x="0" y="418.276793" style="fill: #008080; fill-opacity: 0.5; stroke: #008080; stroke-opacity: 0.5"/>
    </g>
   </g>
   <g id="PolyCollection_19">
    <defs>
     <path id="m1407bc2b6a" d="M 221.887984 -47.712763 
L 221.887984 -45.514026 
L 251.647984 -45.514026 
L 251.647984 -47.712763 
L 251.647984 -47.712763 
L 221.887984 -47.712763 
z
" style="stroke: #000000; stroke-opacity: 0.3"/>
    </defs>
    <g clip-path="url(#p266f96824c)">
     <use xlink:href="#m1407bc2b6a" x="0" y="418.276793" style="fill-opacity: 0.3; stroke: #000000; stroke-opacity: 0.3"/>
    </g>
   </g>
   <g id="PolyCollection_20">
    <defs>
     <path id="mce847f1c2a" d="M 221.887984 -44.928138 
L 221.887984 -43.644885 
L 251.647984 -43.644885 
L 251.647984 -44.928138 
L 251.647984 -44.928138 
L 221.887984 -44.928138 
z
" style="stroke: #dc143c; stroke-opacity: 0.5"/>
    </defs>
    <g clip-path="url(#p266f96824c)">
     <use xlink:href="#mce847f1c2a" x="0" y="418.276793" style="fill: #dc143c; fill-opacity: 0.5; stroke: #dc143c; stroke-opacity: 0.5"/>
    </g>
   </g>
   <g id="PolyCollection_21">
    <defs>
     <path id="m3847937041" d="M 221.887984 -43.588155 
L 221.887984 -42.743206 
L 251.647984 -42.743206 
L 251.647984 -43.588155 
L 251.647984 -43.588155 
L 221.887984 -43.588155 
z
" style="stroke: #008080; stroke-opacity: 0.5"/>
    </defs>
    <g clip-path="url(#p266f96824c)">
     <use xlink:href="#m3847937041" x="0" y="418.276793" style="fill: #008080; fill-opacity: 0.5; stroke: #008080; stroke-opacity: 0.5"/>
    </g>
   </g>
   <g id="PolyCollection_22">
    <defs>
     <path id="m9b23bea7f1" d="M 251.647984 -46.935878 
L 251.647984 -43.044827 
L 281.407984 -43.044827 
L 281.407984 -46.935878 
L 281.407984 -46.935878 
L 251.647984 -46.935878 
z
" style="stroke: #000000; stroke-opacity: 0.3"/>
    </defs>
    <g clip-path="url(#p266f96824c)">
     <use xlink:href="#m9b23bea7f1" x="0" y="418.276793" style="fill-opacity: 0.3; stroke: #000000; stroke-opacity: 0.3"/>
    </g>
   </g>
   <g id="PolyCollection_23">
    <defs>
     <path id="me390c8856f" d="M 251.647984 -44.709449 
L 251.647984 -42.292644 
L 281.407984 -42.292644 
L 281.407984 -44.709449 
L 281.407984 -44.709449 
L 251.647984 -44.709449 
z
" style="stroke: #dc143c; stroke-opacity: 0.5"/>
    </defs>
    <g clip-path="url(#p266f96824c)">
     <use xlink:href="#me390c8856f" x="0" y="418.276793" style="fill: #dc143c; fill-opacity: 0.5; stroke: #dc143c; stroke-opacity: 0.5"/>
    </g>
   </g>
   <g id="PolyCollection_24">
    <defs>
     <path id="m20d239be0f" d="M 251.647984 -43.526347 
L 251.647984 -41.886048 
L 281.407984 -41.886048 
L 281.407984 -43.526347 
L 281.407984 -43.526347 
L 251.647984 -43.526347 
z
" style="stroke: #008080; stroke-opacity: 0.5"/>
    </defs>
    <g clip-path="url(#p266f96824c)">
     <use xlink:href="#m20d239be0f" x="0" y="418.276793" style="fill: #008080; fill-opacity: 0.5; stroke: #008080; stroke-opacity: 0.5"/>
    </g>
   </g>
   <g id="PolyCollection_25">
    <defs>
     <path id="mf1e1217678" d="M 281.407984 -46.02535 
L 281.407984 -42.324106 
L 311.167984 -42.324106 
L 311.167984 -46.02535 
L 311.167984 -46.02535 
L 281.407984 -46.02535 
z
" style="stroke: #000000; stroke-opacity: 0.3"/>
    </defs>
    <g clip-path="url(#p266f96824c)">
     <use xlink:href="#mf1e1217678" x="0" y="418.276793" style="fill-opacity: 0.3; stroke: #000000; stroke-opacity: 0.3"/>
    </g>
   </g>
   <g id="PolyCollection_26">
    <defs>
     <path id="m860f8eab81" d="M 281.407984 -44.304895 
L 281.407984 -41.873427 
L 311.167984 -41.873427 
L 311.167984 -44.304895 
L 311.167984 -44.304895 
L 281.407984 -44.304895 
z
" style="stroke: #dc143c; stroke-opacity: 0.5"/>
    </defs>
    <g clip-path="url(#p266f96824c)">
     <use xlink:href="#m860f8eab81" x="0" y="418.276793" style="fill: #dc143c; fill-opacity: 0.5; stroke: #dc143c; stroke-opacity: 0.5"/>
    </g>
   </g>
   <g id="PolyCollection_27">
    <defs>
     <path id="m993d2555f6" d="M 281.407984 -43.315571 
L 281.407984 -41.613085 
L 311.167984 -41.613085 
L 311.167984 -43.315571 
L 311.167984 -43.315571 
L 281.407984 -43.315571 
z
" style="stroke: #008080; stroke-opacity: 0.5"/>
    </defs>
    <g clip-path="url(#p266f96824c)">
     <use xlink:href="#m993d2555f6" x="0" y="418.276793" style="fill: #008080; fill-opacity: 0.5; stroke: #008080; stroke-opacity: 0.5"/>
    </g>
   </g>
   <g id="PolyCollection_28">
    <defs>
     <path id="mc603096fab" d="M 311.167984 -44.759512 
L 311.167984 -41.974902 
L 340.927984 -41.974902 
L 340.927984 -44.759512 
L 340.927984 -44.759512 
L 311.167984 -44.759512 
z
" style="stroke: #000000; stroke-opacity: 0.3"/>
    </defs>
    <g clip-path="url(#p266f96824c)">
     <use xlink:href="#mc603096fab" x="0" y="418.276793" style="fill-opacity: 0.3; stroke: #000000; stroke-opacity: 0.3"/>
    </g>
   </g>
   <g id="PolyCollection_29">
    <defs>
     <path id="mc4a7d1a36a" d="M 311.167984 -43.583397 
L 311.167984 -41.677113 
L 340.927984 -41.677113 
L 340.927984 -43.583397 
L 340.927984 -43.583397 
L 311.167984 -43.583397 
z
" style="stroke: #dc143c; stroke-opacity: 0.5"/>
    </defs>
    <g clip-path="url(#p266f96824c)">
     <use xlink:href="#mc4a7d1a36a" x="0" y="418.276793" style="fill: #dc143c; fill-opacity: 0.5; stroke: #dc143c; stroke-opacity: 0.5"/>
    </g>
   </g>
   <g id="PolyCollection_30">
    <defs>
     <path id="mc6fcbf7a4c" d="M 311.167984 -42.858095 
L 311.167984 -41.490354 
L 340.927984 -41.490354 
L 340.927984 -42.858095 
L 340.927984 -42.858095 
L 311.167984 -42.858095 
z
" style="stroke: #008080; stroke-opacity: 0.5"/>
    </defs>
    <g clip-path="url(#p266f96824c)">
     <use xlink:href="#mc6fcbf7a4c" x="0" y="418.276793" style="fill: #008080; fill-opacity: 0.5; stroke: #008080; stroke-opacity: 0.5"/>
    </g>
   </g>
   <g id="PolyCollection_31">
    <defs>
     <path id="md70c613448" d="M 340.927984 -43.440429 
L 340.927984 -40.983933 
L 370.687984 -40.983933 
L 370.687984 -43.440429 
L 370.687984 -43.440429 
L 340.927984 -43.440429 
z
" style="stroke: #000000; stroke-opacity: 0.3"/>
    </defs>
    <g clip-path="url(#p266f96824c)">
     <use xlink:href="#md70c613448" x="0" y="418.276793" style="fill-opacity: 0.3; stroke: #000000; stroke-opacity: 0.3"/>
    </g>
   </g>
   <g id="PolyCollection_32">
    <defs>
     <path id="mda39fbcd29" d="M 340.927984 -42.729711 
L 340.927984 -40.991283 
L 370.687984 -40.991283 
L 370.687984 -42.729711 
L 370.687984 -42.729711 
L 340.927984 -42.729711 
z
" style="stroke: #dc143c; stroke-opacity: 0.5"/>
    </defs>
    <g clip-path="url(#p266f96824c)">
     <use xlink:href="#mda39fbcd29" x="0" y="418.276793" style="fill: #dc143c; fill-opacity: 0.5; stroke: #dc143c; stroke-opacity: 0.5"/>
    </g>
   </g>
   <g id="PolyCollection_33">
    <defs>
     <path id="m102f7fa079" d="M 340.927984 -42.269862 
L 340.927984 -40.994792 
L 370.687984 -40.994792 
L 370.687984 -42.269862 
L 370.687984 -42.269862 
L 340.927984 -42.269862 
z
" style="stroke: #008080; stroke-opacity: 0.5"/>
    </defs>
    <g clip-path="url(#p266f96824c)">
     <use xlink:href="#m102f7fa079" x="0" y="418.276793" style="fill: #008080; fill-opacity: 0.5; stroke: #008080; stroke-opacity: 0.5"/>
    </g>
   </g>
   <g id="PolyCollection_34">
    <defs>
     <path id="m7461ed3965" d="M 370.687984 -44.517933 
L 370.687984 -40.556909 
L 400.447984 -40.556909 
L 400.447984 -44.517933 
L 400.447984 -44.517933 
L 370.687984 -44.517933 
z
" style="stroke: #000000; stroke-opacity: 0.3"/>
    </defs>
    <g clip-path="url(#p266f96824c)">
     <use xlink:href="#m7461ed3965" x="0" y="418.276793" style="fill-opacity: 0.3; stroke: #000000; stroke-opacity: 0.3"/>
    </g>
   </g>
   <g id="PolyCollection_35">
    <defs>
     <path id="m3ae6686ecb" d="M 370.687984 -43.581774 
L 370.687984 -40.676409 
L 400.447984 -40.676409 
L 400.447984 -43.581774 
L 400.447984 -43.581774 
L 370.687984 -43.581774 
z
" style="stroke: #dc143c; stroke-opacity: 0.5"/>
    </defs>
    <g clip-path="url(#p266f96824c)">
     <use xlink:href="#m3ae6686ecb" x="0" y="418.276793" style="fill: #dc143c; fill-opacity: 0.5; stroke: #dc143c; stroke-opacity: 0.5"/>
    </g>
   </g>
   <g id="PolyCollection_36">
    <defs>
     <path id="m979fedbbaf" d="M 370.687984 -42.938647 
L 370.687984 -40.758102 
L 400.447984 -40.758102 
L 400.447984 -42.938647 
L 400.447984 -42.938647 
L 370.687984 -42.938647 
z
" style="stroke: #008080; stroke-opacity: 0.5"/>
    </defs>
    <g clip-path="url(#p266f96824c)">
     <use xlink:href="#m979fedbbaf" x="0" y="418.276793" style="fill: #008080; fill-opacity: 0.5; stroke: #008080; stroke-opacity: 0.5"/>
    </g>
   </g>
   <g id="PolyCollection_37">
    <defs>
     <path id="mad3f0d4426" d="M 400.447984 -45.051802 
L 400.447984 -39.649652 
L 430.207984 -39.649652 
L 430.207984 -45.051802 
L 430.207984 -45.051802 
L 400.447984 -45.051802 
z
" style="stroke: #000000; stroke-opacity: 0.3"/>
    </defs>
    <g clip-path="url(#p266f96824c)">
     <use xlink:href="#mad3f0d4426" x="0" y="418.276793" style="fill-opacity: 0.3; stroke: #000000; stroke-opacity: 0.3"/>
    </g>
   </g>
   <g id="PolyCollection_38">
    <defs>
     <path id="m78354f6fdc" d="M 400.447984 -44.14268 
L 400.447984 -39.950389 
L 430.207984 -39.950389 
L 430.207984 -44.14268 
L 430.207984 -44.14268 
L 400.447984 -44.14268 
z
" style="stroke: #dc143c; stroke-opacity: 0.5"/>
    </defs>
    <g clip-path="url(#p266f96824c)">
     <use xlink:href="#m78354f6fdc" x="0" y="418.276793" style="fill: #dc143c; fill-opacity: 0.5; stroke: #dc143c; stroke-opacity: 0.5"/>
    </g>
   </g>
   <g id="PolyCollection_39">
    <defs>
     <path id="m733c8125a7" d="M 400.447984 -43.459096 
L 400.447984 -40.176822 
L 430.207984 -40.176822 
L 430.207984 -43.459096 
L 430.207984 -43.459096 
L 400.447984 -43.459096 
z
" style="stroke: #008080; stroke-opacity: 0.5"/>
    </defs>
    <g clip-path="url(#p266f96824c)">
     <use xlink:href="#m733c8125a7" x="0" y="418.276793" style="fill: #008080; fill-opacity: 0.5; stroke: #008080; stroke-opacity: 0.5"/>
    </g>
   </g>
   <g id="PolyCollection_40">
    <defs>
     <path id="me03ef74720" d="M 430.207984 -52.615642 
L 430.207984 -36.690795 
L 459.967984 -36.690795 
L 459.967984 -52.615642 
L 459.967984 -52.615642 
L 430.207984 -52.615642 
z
" style="stroke: #000000; stroke-opacity: 0.3"/>
    </defs>
    <g clip-path="url(#p266f96824c)">
     <use xlink:href="#me03ef74720" x="0" y="418.276793" style="fill-opacity: 0.3; stroke: #000000; stroke-opacity: 0.3"/>
    </g>
   </g>
   <g id="PolyCollection_41">
    <defs>
     <path id="md210579270" d="M 430.207984 -49.673424 
L 430.207984 -37.763322 
L 459.967984 -37.763322 
L 459.967984 -49.673424 
L 459.967984 -49.673424 
L 430.207984 -49.673424 
z
" style="stroke: #dc143c; stroke-opacity: 0.5"/>
    </defs>
    <g clip-path="url(#p266f96824c)">
     <use xlink:href="#md210579270" x="0" y="418.276793" style="fill: #dc143c; fill-opacity: 0.5; stroke: #dc143c; stroke-opacity: 0.5"/>
    </g>
   </g>
   <g id="PolyCollection_42">
    <defs>
     <path id="m0a350951fd" d="M 430.207984 -47.644532 
L 430.207984 -38.501997 
L 459.967984 -38.501997 
L 459.967984 -47.644532 
L 459.967984 -47.644532 
L 430.207984 -47.644532 
z
" style="stroke: #008080; stroke-opacity: 0.5"/>
    </defs>
    <g clip-path="url(#p266f96824c)">
     <use xlink:href="#m0a350951fd" x="0" y="418.276793" style="fill: #008080; fill-opacity: 0.5; stroke: #008080; stroke-opacity: 0.5"/>
    </g>
   </g>
   <g id="PolyCollection_43">
    <defs>
     <path id="mfa7ab6cb3d" d="M 459.967984 -51.762689 
L 459.967984 -35.558663 
L 489.727984 -35.558663 
L 489.727984 -51.762689 
L 489.727984 -51.762689 
L 459.967984 -51.762689 
z
" style="stroke: #000000; stroke-opacity: 0.3"/>
    </defs>
    <g clip-path="url(#p266f96824c)">
     <use xlink:href="#mfa7ab6cb3d" x="0" y="418.276793" style="fill-opacity: 0.3; stroke: #000000; stroke-opacity: 0.3"/>
    </g>
   </g>
   <g id="PolyCollection_44">
    <defs>
     <path id="m775e0b7531" d="M 459.967984 -49.162509 
L 459.967984 -36.909837 
L 489.727984 -36.909837 
L 489.727984 -49.162509 
L 489.727984 -49.162509 
L 459.967984 -49.162509 
z
" style="stroke: #dc143c; stroke-opacity: 0.5"/>
    </defs>
    <g clip-path="url(#p266f96824c)">
     <use xlink:href="#m775e0b7531" x="0" y="418.276793" style="fill: #dc143c; fill-opacity: 0.5; stroke: #dc143c; stroke-opacity: 0.5"/>
    </g>
   </g>
   <g id="PolyCollection_45">
    <defs>
     <path id="m9d0a94f0e6" d="M 459.967984 -47.346706 
L 459.967984 -37.830628 
L 489.727984 -37.830628 
L 489.727984 -47.346706 
L 489.727984 -47.346706 
L 459.967984 -47.346706 
z
" style="stroke: #008080; stroke-opacity: 0.5"/>
    </defs>
    <g clip-path="url(#p266f96824c)">
     <use xlink:href="#m9d0a94f0e6" x="0" y="418.276793" style="fill: #008080; fill-opacity: 0.5; stroke: #008080; stroke-opacity: 0.5"/>
    </g>
   </g>
   <g id="matplotlib.axis_1">
    <g id="xtick_1">
     <g id="line2d_1">
      <defs>
       <path id="mb58f0a719e" d="M 0 0 
L 0 3.5 
" style="stroke: #000000; stroke-width: 0.8"/>
      </defs>
      <g>
       <use xlink:href="#mb58f0a719e" x="43.327984" y="377.27342" style="stroke: #000000; stroke-width: 0.8"/>
      </g>
     </g>
     <g id="text_1">
      <!-- $\mathdefault{0}$ -->
      <g transform="translate(40.837316 391.191918)scale(0.1 -0.1)">
       <defs>
        <path id="CMR17-30" d="M 2688 2038 
C 2688 2430 2682 3099 2413 3613 
C 2176 4063 1798 4224 1466 4224 
C 1158 4224 768 4082 525 3620 
C 269 3137 243 2539 243 2038 
C 243 1671 250 1112 448 623 
C 723 -39 1216 -128 1466 -128 
C 1760 -128 2208 -7 2470 604 
C 2662 1048 2688 1568 2688 2038 
z
M 1466 -26 
C 1056 -26 813 328 723 816 
C 653 1196 653 1749 653 2109 
C 653 2604 653 3015 736 3407 
C 858 3954 1216 4121 1466 4121 
C 1728 4121 2067 3947 2189 3420 
C 2272 3054 2278 2623 2278 2109 
C 2278 1691 2278 1176 2202 797 
C 2067 96 1690 -26 1466 -26 
z
" transform="scale(0.015625)"/>
       </defs>
       <use xlink:href="#CMR17-30" transform="scale(0.996264)"/>
      </g>
     </g>
    </g>
    <g id="xtick_2">
     <g id="line2d_2">
      <g>
       <use xlink:href="#mb58f0a719e" x="102.847984" y="377.27342" style="stroke: #000000; stroke-width: 0.8"/>
      </g>
     </g>
     <g id="text_2">
      <!-- $\mathdefault{10}$ -->
      <g transform="translate(97.866649 391.191918)scale(0.1 -0.1)">
       <defs>
        <path id="CMR17-31" d="M 1702 4083 
C 1702 4217 1696 4224 1606 4224 
C 1357 3927 979 3833 621 3820 
C 602 3820 570 3820 563 3808 
C 557 3795 557 3782 557 3648 
C 755 3648 1088 3686 1344 3839 
L 1344 467 
C 1344 243 1331 166 781 166 
L 589 166 
L 589 0 
C 896 6 1216 12 1523 12 
C 1830 12 2150 6 2458 0 
L 2458 166 
L 2266 166 
C 1715 166 1702 236 1702 467 
L 1702 4083 
z
" transform="scale(0.015625)"/>
       </defs>
       <use xlink:href="#CMR17-31" transform="scale(0.996264)"/>
       <use xlink:href="#CMR17-30" transform="translate(45.690477 0)scale(0.996264)"/>
      </g>
     </g>
    </g>
    <g id="xtick_3">
     <g id="line2d_3">
      <g>
       <use xlink:href="#mb58f0a719e" x="162.367984" y="377.27342" style="stroke: #000000; stroke-width: 0.8"/>
      </g>
     </g>
     <g id="text_3">
      <!-- $\mathdefault{20}$ -->
      <g transform="translate(157.386649 391.191918)scale(0.1 -0.1)">
       <defs>
        <path id="CMR17-32" d="M 2669 990 
L 2554 990 
C 2490 537 2438 460 2413 422 
C 2381 371 1920 371 1830 371 
L 602 371 
C 832 620 1280 1073 1824 1596 
C 2214 1966 2669 2400 2669 3033 
C 2669 3788 2067 4224 1395 4224 
C 691 4224 262 3603 262 3027 
C 262 2777 448 2745 525 2745 
C 589 2745 781 2783 781 3007 
C 781 3206 614 3264 525 3264 
C 486 3264 448 3257 422 3244 
C 544 3788 915 4057 1306 4057 
C 1862 4057 2227 3616 2227 3033 
C 2227 2477 1901 1998 1536 1583 
L 262 147 
L 262 0 
L 2515 0 
L 2669 990 
z
" transform="scale(0.015625)"/>
       </defs>
       <use xlink:href="#CMR17-32" transform="scale(0.996264)"/>
       <use xlink:href="#CMR17-30" transform="translate(45.690477 0)scale(0.996264)"/>
      </g>
     </g>
    </g>
    <g id="xtick_4">
     <g id="line2d_4">
      <g>
       <use xlink:href="#mb58f0a719e" x="221.887984" y="377.27342" style="stroke: #000000; stroke-width: 0.8"/>
      </g>
     </g>
     <g id="text_4">
      <!-- $\mathdefault{30}$ -->
      <g transform="translate(216.906649 391.191918)scale(0.1 -0.1)">
       <defs>
        <path id="CMR17-33" d="M 1414 2176 
C 1984 2176 2234 1673 2234 1094 
C 2234 322 1824 25 1453 25 
C 1114 25 563 193 390 691 
C 422 678 454 678 486 678 
C 640 678 755 780 755 947 
C 755 1132 614 1216 486 1216 
C 378 1216 211 1164 211 927 
C 211 335 787 -128 1466 -128 
C 2176 -128 2720 432 2720 1087 
C 2720 1718 2208 2176 1600 2246 
C 2086 2347 2554 2776 2554 3353 
C 2554 3856 2048 4224 1472 4224 
C 890 4224 378 3862 378 3347 
C 378 3123 544 3084 627 3084 
C 762 3084 877 3167 877 3334 
C 877 3500 762 3584 627 3584 
C 602 3584 570 3584 544 3571 
C 730 3999 1235 4076 1459 4076 
C 1683 4076 2106 3966 2106 3347 
C 2106 3167 2080 2851 1862 2574 
C 1670 2329 1453 2316 1242 2297 
C 1210 2297 1062 2284 1037 2284 
C 992 2278 966 2272 966 2227 
C 966 2182 973 2176 1101 2176 
L 1414 2176 
z
" transform="scale(0.015625)"/>
       </defs>
       <use xlink:href="#CMR17-33" transform="scale(0.996264)"/>
       <use xlink:href="#CMR17-30" transform="translate(45.690477 0)scale(0.996264)"/>
      </g>
     </g>
    </g>
    <g id="xtick_5">
     <g id="line2d_5">
      <g>
       <use xlink:href="#mb58f0a719e" x="281.407984" y="377.27342" style="stroke: #000000; stroke-width: 0.8"/>
      </g>
     </g>
     <g id="text_5">
      <!-- $\mathdefault{40}$ -->
      <g transform="translate(276.426649 391.191918)scale(0.1 -0.1)">
       <defs>
        <path id="CMR17-34" d="M 2150 4147 
C 2150 4281 2144 4288 2029 4288 
L 128 1254 
L 128 1088 
L 1779 1088 
L 1779 460 
C 1779 230 1766 166 1318 166 
L 1197 166 
L 1197 0 
C 1402 12 1747 12 1965 12 
C 2182 12 2528 12 2733 0 
L 2733 166 
L 2611 166 
C 2163 166 2150 230 2150 460 
L 2150 1088 
L 2803 1088 
L 2803 1254 
L 2150 1254 
L 2150 4147 
z
M 1798 3723 
L 1798 1254 
L 256 1254 
L 1798 3723 
z
" transform="scale(0.015625)"/>
       </defs>
       <use xlink:href="#CMR17-34" transform="scale(0.996264)"/>
       <use xlink:href="#CMR17-30" transform="translate(45.690477 0)scale(0.996264)"/>
      </g>
     </g>
    </g>
    <g id="xtick_6">
     <g id="line2d_6">
      <g>
       <use xlink:href="#mb58f0a719e" x="340.927984" y="377.27342" style="stroke: #000000; stroke-width: 0.8"/>
      </g>
     </g>
     <g id="text_6">
      <!-- $\mathdefault{50}$ -->
      <g transform="translate(335.946649 391.191918)scale(0.1 -0.1)">
       <defs>
        <path id="CMR17-35" d="M 730 3750 
C 794 3724 1056 3641 1325 3641 
C 1920 3641 2246 3961 2432 4140 
C 2432 4191 2432 4224 2394 4224 
C 2387 4224 2374 4224 2323 4198 
C 2099 4102 1837 4032 1517 4032 
C 1325 4032 1037 4055 723 4191 
C 653 4224 640 4224 634 4224 
C 602 4224 595 4217 595 4090 
L 595 2231 
C 595 2113 595 2080 659 2080 
C 691 2080 704 2093 736 2139 
C 941 2435 1222 2560 1542 2560 
C 1766 2560 2246 2415 2246 1293 
C 2246 1087 2246 716 2054 422 
C 1894 159 1645 25 1370 25 
C 947 25 518 319 403 812 
C 429 806 480 793 506 793 
C 589 793 749 838 749 1036 
C 749 1209 627 1280 506 1280 
C 358 1280 262 1190 262 1011 
C 262 454 704 -128 1382 -128 
C 2042 -128 2669 441 2669 1267 
C 2669 2054 2170 2662 1549 2662 
C 1222 2662 947 2540 730 2304 
L 730 3750 
z
" transform="scale(0.015625)"/>
       </defs>
       <use xlink:href="#CMR17-35" transform="scale(0.996264)"/>
       <use xlink:href="#CMR17-30" transform="translate(45.690477 0)scale(0.996264)"/>
      </g>
     </g>
    </g>
    <g id="xtick_7">
     <g id="line2d_7">
      <g>
       <use xlink:href="#mb58f0a719e" x="400.447984" y="377.27342" style="stroke: #000000; stroke-width: 0.8"/>
      </g>
     </g>
     <g id="text_7">
      <!-- $\mathdefault{60}$ -->
      <g transform="translate(395.466649 391.191918)scale(0.1 -0.1)">
       <defs>
        <path id="CMR17-36" d="M 678 2198 
C 678 3712 1395 4076 1811 4076 
C 1946 4076 2272 4049 2400 3782 
C 2298 3782 2106 3782 2106 3558 
C 2106 3385 2246 3328 2336 3328 
C 2394 3328 2566 3353 2566 3571 
C 2566 3987 2246 4224 1805 4224 
C 1043 4224 243 3411 243 2011 
C 243 257 966 -128 1478 -128 
C 2099 -128 2688 431 2688 1295 
C 2688 2101 2170 2688 1517 2688 
C 1126 2688 838 2430 678 1979 
L 678 2198 
z
M 1478 25 
C 691 25 691 1212 691 1450 
C 691 1914 909 2585 1504 2585 
C 1613 2585 1926 2585 2138 2140 
C 2253 1889 2253 1624 2253 1302 
C 2253 954 2253 696 2118 438 
C 1978 173 1773 25 1478 25 
z
" transform="scale(0.015625)"/>
       </defs>
       <use xlink:href="#CMR17-36" transform="scale(0.996264)"/>
       <use xlink:href="#CMR17-30" transform="translate(45.690477 0)scale(0.996264)"/>
      </g>
     </g>
    </g>
    <g id="xtick_8">
     <g id="line2d_8">
      <g>
       <use xlink:href="#mb58f0a719e" x="459.967984" y="377.27342" style="stroke: #000000; stroke-width: 0.8"/>
      </g>
     </g>
     <g id="text_8">
      <!-- $\mathdefault{70}$ -->
      <g transform="translate(454.986649 391.191918)scale(0.1 -0.1)">
       <defs>
        <path id="CMR17-37" d="M 2886 3955 
L 2886 4096 
L 1382 4096 
C 634 4096 621 4166 595 4288 
L 480 4288 
L 294 3104 
L 410 3104 
C 429 3226 474 3552 550 3673 
C 589 3724 1062 3724 1171 3724 
L 2579 3724 
L 1869 2670 
C 1395 1961 1069 1003 1069 166 
C 1069 89 1069 -128 1299 -128 
C 1530 -128 1530 89 1530 172 
L 1530 466 
C 1530 1514 1709 2204 2003 2644 
L 2886 3955 
z
" transform="scale(0.015625)"/>
       </defs>
       <use xlink:href="#CMR17-37" transform="scale(0.996264)"/>
       <use xlink:href="#CMR17-30" transform="translate(45.690477 0)scale(0.996264)"/>
      </g>
     </g>
    </g>
    <g id="text_9">
     <!-- Energy [MeV] -->
     <g transform="translate(224.89921 407.589869)scale(0.14 -0.14)">
      <defs>
       <path id="CMR17-45" d="M 3885 1614 
L 3770 1614 
C 3629 676 3546 166 2419 166 
L 1530 166 
C 1274 166 1261 198 1261 415 
L 1261 2176 
L 1862 2176 
C 2464 2176 2522 1959 2522 1429 
L 2637 1429 
L 2637 3086 
L 2522 3086 
C 2522 2558 2464 2342 1862 2342 
L 1261 2342 
L 1261 3924 
C 1261 4141 1274 4172 1530 4172 
L 2406 4172 
C 3398 4172 3514 3778 3603 2933 
L 3718 2933 
L 3565 4339 
L 326 4339 
L 326 4172 
C 768 4172 838 4172 838 3886 
L 838 453 
C 838 166 768 166 326 166 
L 326 0 
L 3654 0 
L 3885 1614 
z
" transform="scale(0.015625)"/>
       <path id="CMR17-6e" d="M 2656 1954 
C 2656 2282 2592 2816 1837 2816 
C 1331 2816 1069 2424 973 2166 
L 966 2166 
L 966 2816 
L 211 2745 
L 211 2578 
C 589 2578 646 2540 646 2231 
L 646 443 
C 646 198 621 166 211 166 
L 211 0 
C 365 12 646 12 813 12 
C 979 12 1267 12 1421 0 
L 1421 166 
C 1011 166 986 192 986 443 
L 986 1678 
C 986 2269 1344 2713 1792 2713 
C 2266 2713 2317 2289 2317 1980 
L 2317 443 
C 2317 198 2291 166 1882 166 
L 1882 0 
C 2035 12 2317 12 2483 12 
C 2650 12 2938 12 3091 0 
L 3091 166 
C 2682 166 2656 192 2656 443 
L 2656 1954 
z
" transform="scale(0.015625)"/>
       <path id="CMR17-65" d="M 2438 1503 
C 2464 1529 2464 1542 2464 1606 
C 2464 2251 2118 2816 1389 2816 
C 710 2816 173 2175 173 1394 
C 173 554 781 -64 1459 -64 
C 2176 -64 2458 619 2458 755 
C 2458 800 2419 800 2406 800 
C 2362 800 2355 787 2330 709 
C 2189 270 1837 51 1504 51 
C 1229 51 954 206 781 490 
C 582 819 582 1200 582 1503 
L 2438 1503 
z
M 589 1600 
C 634 2511 1126 2713 1382 2713 
C 1818 2713 2112 2308 2118 1600 
L 589 1600 
z
" transform="scale(0.015625)"/>
       <path id="CMR17-72" d="M 960 1517 
C 960 2134 1222 2713 1702 2713 
C 1747 2713 1792 2707 1837 2687 
C 1837 2687 1696 2642 1696 2475 
C 1696 2321 1818 2257 1914 2257 
C 1990 2257 2131 2302 2131 2482 
C 2131 2687 1926 2816 1709 2816 
C 1222 2816 1011 2340 947 2115 
L 941 2115 
L 941 2816 
L 198 2745 
L 198 2578 
C 576 2578 634 2540 634 2231 
L 634 443 
C 634 198 608 166 198 166 
L 198 0 
C 352 12 646 12 813 12 
C 998 12 1325 12 1498 0 
L 1498 166 
C 1037 166 960 166 960 455 
L 960 1517 
z
" transform="scale(0.015625)"/>
       <path id="CMR17-67" d="M 710 1165 
C 832 1068 1043 960 1299 960 
C 1805 960 2240 1359 2240 1895 
C 2240 2063 2189 2321 1997 2521 
C 2176 2713 2438 2777 2586 2777 
C 2611 2777 2650 2777 2682 2758 
C 2656 2751 2598 2726 2598 2623 
C 2598 2540 2656 2483 2739 2483 
C 2835 2483 2886 2547 2886 2630 
C 2886 2751 2790 2880 2586 2880 
C 2330 2880 2106 2758 1926 2591 
C 1734 2764 1504 2828 1299 2828 
C 794 2828 358 2431 358 1895 
C 358 1527 570 1294 634 1230 
C 442 1004 442 742 442 710 
C 442 544 506 300 723 166 
C 390 82 128 -184 128 -517 
C 128 -996 736 -1344 1466 -1344 
C 2170 -1344 2803 -1009 2803 -510 
C 2803 384 1856 384 1363 384 
C 1216 384 954 384 922 390 
C 723 422 589 601 589 825 
C 589 883 589 1024 710 1165 
z
M 1299 1068 
C 736 1068 736 1766 736 1895 
C 736 2024 736 2719 1299 2719 
C 1862 2719 1862 2024 1862 1895 
C 1862 1766 1862 1068 1299 1068 
z
M 1466 -1236 
C 826 -1236 384 -883 384 -517 
C 384 -311 493 -118 634 -11 
C 794 102 858 102 1293 102 
C 1818 102 2547 102 2547 -517 
C 2547 -883 2106 -1236 1466 -1236 
z
" transform="scale(0.015625)"/>
       <path id="CMR17-79" d="M 2496 2183 
C 2656 2579 2944 2585 3034 2585 
L 3034 2752 
C 2912 2745 2752 2739 2630 2739 
C 2496 2739 2285 2739 2157 2752 
L 2157 2585 
C 2400 2566 2406 2384 2406 2332 
C 2406 2268 2394 2235 2362 2158 
L 1664 409 
L 902 2300 
C 870 2378 870 2423 870 2430 
C 870 2572 1018 2585 1171 2585 
L 1171 2752 
C 1018 2739 742 2739 582 2739 
C 410 2739 205 2739 64 2752 
L 64 2585 
C 410 2585 448 2553 531 2345 
L 1485 -31 
C 1197 -795 1030 -1242 627 -1242 
C 557 -1242 397 -1223 282 -1106 
C 429 -1093 493 -1002 493 -892 
C 493 -782 416 -685 288 -685 
C 147 -685 77 -782 77 -899 
C 77 -1158 339 -1344 627 -1344 
C 998 -1344 1229 -983 1357 -659 
L 2496 2183 
z
" transform="scale(0.015625)"/>
       <path id="CMR17-5b" d="M 1504 -1600 
L 1504 -1376 
L 902 -1376 
L 902 4575 
L 1504 4575 
L 1504 4800 
L 678 4800 
L 678 -1600 
L 1504 -1600 
z
" transform="scale(0.015625)"/>
       <path id="CMR17-4d" d="M 1338 4249 
C 1299 4345 1293 4352 1158 4352 
L 339 4352 
L 339 4185 
C 781 4185 851 4185 851 3898 
L 851 624 
C 851 465 851 166 339 166 
L 339 0 
C 486 12 755 12 915 12 
C 1075 12 1344 12 1491 0 
L 1491 166 
C 979 166 979 465 979 624 
L 979 4159 
L 986 4159 
L 2490 102 
C 2515 38 2528 0 2579 0 
C 2630 0 2643 38 2669 102 
L 4186 4191 
L 4192 4191 
L 4192 453 
C 4192 166 4122 166 3680 166 
L 3680 0 
C 3853 12 4198 12 4384 12 
C 4570 12 4922 12 5094 0 
L 5094 166 
C 4653 166 4582 166 4582 453 
L 4582 3898 
C 4582 4185 4653 4185 5094 4185 
L 5094 4352 
L 4282 4352 
C 4147 4352 4141 4345 4102 4249 
L 2720 516 
L 1338 4249 
z
" transform="scale(0.015625)"/>
       <path id="CMR17-56" d="M 3776 3762 
C 3834 3903 3936 4179 4365 4185 
L 4365 4352 
C 4218 4339 4051 4339 3891 4339 
C 3738 4339 3475 4339 3328 4352 
L 3328 4185 
C 3648 4166 3661 3942 3661 3903 
C 3661 3833 3642 3788 3622 3737 
L 2362 448 
L 1043 3903 
C 1024 3948 1011 3980 1011 4012 
C 1011 4185 1267 4185 1402 4185 
L 1402 4352 
C 1197 4339 896 4339 685 4339 
C 518 4339 218 4339 64 4352 
L 64 4185 
C 435 4185 506 4160 582 3955 
L 2106 -26 
C 2138 -116 2144 -128 2214 -128 
C 2285 -128 2291 -116 2323 -26 
L 3776 3762 
z
" transform="scale(0.015625)"/>
       <path id="CMR17-5d" d="M 915 4800 
L 90 4800 
L 90 4575 
L 691 4575 
L 691 -1376 
L 90 -1376 
L 90 -1600 
L 915 -1600 
L 915 4800 
z
" transform="scale(0.015625)"/>
      </defs>
      <use xlink:href="#CMR17-45" transform="scale(0.996264)"/>
      <use xlink:href="#CMR17-6e" transform="translate(62.586301 0)scale(0.996264)"/>
      <use xlink:href="#CMR17-65" transform="translate(113.48167 0)scale(0.996264)"/>
      <use xlink:href="#CMR17-72" transform="translate(153.967331 0)scale(0.996264)"/>
      <use xlink:href="#CMR17-67" transform="translate(189.248099 0)scale(0.996264)"/>
      <use xlink:href="#CMR17-79" transform="translate(234.938576 0)scale(0.996264)"/>
      <use xlink:href="#CMR17-5b" transform="translate(313.307458 0)scale(0.996264)"/>
      <use xlink:href="#CMR17-4d" transform="translate(338.178516 0)scale(0.996264)"/>
      <use xlink:href="#CMR17-65" transform="translate(422.865457 0)scale(0.996264)"/>
      <use xlink:href="#CMR17-56" transform="translate(463.351117 0)scale(0.996264)"/>
      <use xlink:href="#CMR17-5d" transform="translate(532.423547 0)scale(0.996264)"/>
     </g>
    </g>
   </g>
   <g id="matplotlib.axis_2">
    <g id="ytick_1">
     <g id="line2d_9">
      <defs>
       <path id="m180d4c8572" d="M 0 0 
L -3.5 0 
" style="stroke: #000000; stroke-width: 0.8"/>
      </defs>
      <g>
       <use xlink:href="#m180d4c8572" x="43.327984" y="377.27342" style="stroke: #000000; stroke-width: 0.8"/>
      </g>
     </g>
     <g id="text_10">
      <!-- $\mathdefault{0.0}$ -->
      <g transform="translate(23.597905 380.732669)scale(0.1 -0.1)">
       <defs>
        <path id="CMMI12-3a" d="M 1178 307 
C 1178 492 1024 620 870 620 
C 685 620 557 467 557 313 
C 557 128 710 0 864 0 
C 1050 0 1178 153 1178 307 
z
" transform="scale(0.015625)"/>
       </defs>
       <use xlink:href="#CMR17-30" transform="scale(0.996264)"/>
       <use xlink:href="#CMMI12-3a" transform="translate(45.690477 0)scale(0.996264)"/>
       <use xlink:href="#CMR17-30" transform="translate(72.787654 0)scale(0.996264)"/>
      </g>
     </g>
    </g>
    <g id="ytick_2">
     <g id="line2d_10">
      <g>
       <use xlink:href="#m180d4c8572" x="43.327984" y="321.83342" style="stroke: #000000; stroke-width: 0.8"/>
      </g>
     </g>
     <g id="text_11">
      <!-- $\mathdefault{0.1}$ -->
      <g transform="translate(23.597905 325.292669)scale(0.1 -0.1)">
       <use xlink:href="#CMR17-30" transform="scale(0.996264)"/>
       <use xlink:href="#CMMI12-3a" transform="translate(45.690477 0)scale(0.996264)"/>
       <use xlink:href="#CMR17-31" transform="translate(72.787654 0)scale(0.996264)"/>
      </g>
     </g>
    </g>
    <g id="ytick_3">
     <g id="line2d_11">
      <g>
       <use xlink:href="#m180d4c8572" x="43.327984" y="266.39342" style="stroke: #000000; stroke-width: 0.8"/>
      </g>
     </g>
     <g id="text_12">
      <!-- $\mathdefault{0.2}$ -->
      <g transform="translate(23.597905 269.852669)scale(0.1 -0.1)">
       <use xlink:href="#CMR17-30" transform="scale(0.996264)"/>
       <use xlink:href="#CMMI12-3a" transform="translate(45.690477 0)scale(0.996264)"/>
       <use xlink:href="#CMR17-32" transform="translate(72.787654 0)scale(0.996264)"/>
      </g>
     </g>
    </g>
    <g id="ytick_4">
     <g id="line2d_12">
      <g>
       <use xlink:href="#m180d4c8572" x="43.327984" y="210.95342" style="stroke: #000000; stroke-width: 0.8"/>
      </g>
     </g>
     <g id="text_13">
      <!-- $\mathdefault{0.3}$ -->
      <g transform="translate(23.597905 214.412669)scale(0.1 -0.1)">
       <use xlink:href="#CMR17-30" transform="scale(0.996264)"/>
       <use xlink:href="#CMMI12-3a" transform="translate(45.690477 0)scale(0.996264)"/>
       <use xlink:href="#CMR17-33" transform="translate(72.787654 0)scale(0.996264)"/>
      </g>
     </g>
    </g>
    <g id="ytick_5">
     <g id="line2d_13">
      <g>
       <use xlink:href="#m180d4c8572" x="43.327984" y="155.51342" style="stroke: #000000; stroke-width: 0.8"/>
      </g>
     </g>
     <g id="text_14">
      <!-- $\mathdefault{0.4}$ -->
      <g transform="translate(23.597905 158.972669)scale(0.1 -0.1)">
       <use xlink:href="#CMR17-30" transform="scale(0.996264)"/>
       <use xlink:href="#CMMI12-3a" transform="translate(45.690477 0)scale(0.996264)"/>
       <use xlink:href="#CMR17-34" transform="translate(72.787654 0)scale(0.996264)"/>
      </g>
     </g>
    </g>
    <g id="ytick_6">
     <g id="line2d_14">
      <g>
       <use xlink:href="#m180d4c8572" x="43.327984" y="100.07342" style="stroke: #000000; stroke-width: 0.8"/>
      </g>
     </g>
     <g id="text_15">
      <!-- $\mathdefault{0.5}$ -->
      <g transform="translate(23.597905 103.532669)scale(0.1 -0.1)">
       <use xlink:href="#CMR17-30" transform="scale(0.996264)"/>
       <use xlink:href="#CMMI12-3a" transform="translate(45.690477 0)scale(0.996264)"/>
       <use xlink:href="#CMR17-35" transform="translate(72.787654 0)scale(0.996264)"/>
      </g>
     </g>
    </g>
    <g id="ytick_7">
     <g id="line2d_15">
      <g>
       <use xlink:href="#m180d4c8572" x="43.327984" y="44.63342" style="stroke: #000000; stroke-width: 0.8"/>
      </g>
     </g>
     <g id="text_16">
      <!-- $\mathdefault{0.6}$ -->
      <g transform="translate(23.597905 48.092669)scale(0.1 -0.1)">
       <use xlink:href="#CMR17-30" transform="scale(0.996264)"/>
       <use xlink:href="#CMMI12-3a" transform="translate(45.690477 0)scale(0.996264)"/>
       <use xlink:href="#CMR17-36" transform="translate(72.787654 0)scale(0.996264)"/>
      </g>
     </g>
    </g>
    <g id="text_17">
     <!-- Fraction of ES neutrinos -->
     <g transform="translate(16.885876 284.205519)rotate(-90)scale(0.14 -0.14)">
      <defs>
       <path id="CMR17-46" d="M 3482 4339 
L 326 4339 
L 326 4172 
C 768 4172 838 4172 838 3883 
L 838 450 
C 838 166 768 166 326 166 
L 326 0 
C 512 12 870 12 1069 12 
C 1331 12 1638 12 1901 0 
L 1901 166 
L 1760 166 
C 1274 166 1261 229 1261 456 
L 1261 2073 
L 1837 2073 
C 2432 2073 2490 1865 2490 1334 
L 2605 1334 
L 2605 2991 
L 2490 2991 
C 2490 2451 2432 2240 1837 2240 
L 1261 2240 
L 1261 3922 
C 1261 4140 1274 4172 1530 4172 
L 2355 4172 
C 3322 4172 3430 3774 3520 2920 
L 3635 2920 
L 3482 4339 
z
" transform="scale(0.015625)"/>
       <path id="CMR17-61" d="M 2304 1656 
C 2304 2048 2304 2275 2035 2534 
C 1798 2751 1523 2816 1306 2816 
C 800 2816 435 2408 435 1977 
C 435 1740 627 1728 666 1728 
C 749 1728 896 1779 896 1958 
C 896 2118 774 2188 666 2188 
C 640 2188 608 2182 589 2176 
C 723 2594 1069 2713 1293 2713 
C 1613 2713 1965 2421 1965 1875 
L 1965 1632 
C 1587 1619 1133 1568 774 1373 
C 371 1147 256 822 256 576 
C 256 77 832 -64 1171 -64 
C 1523 -64 1850 135 1990 505 
C 2003 219 2182 -39 2464 -39 
C 2598 -39 2938 51 2938 563 
L 2938 926 
L 2822 926 
L 2822 557 
C 2822 161 2650 109 2566 109 
C 2304 109 2304 446 2304 732 
L 2304 1656 
z
M 1965 887 
C 1965 323 1568 38 1216 38 
C 896 38 646 278 646 576 
C 646 771 730 1114 1101 1322 
C 1408 1497 1760 1523 1965 1536 
L 1965 887 
z
" transform="scale(0.015625)"/>
       <path id="CMR17-63" d="M 2234 2240 
C 2112 2240 1933 2240 1933 2015 
C 1933 1836 2080 1785 2163 1785 
C 2208 1785 2394 1804 2394 2028 
C 2394 2476 1958 2816 1466 2816 
C 787 2816 211 2201 211 1379 
C 211 521 813 -64 1466 -64 
C 2259 -64 2458 676 2458 747 
C 2458 773 2451 792 2406 792 
C 2362 792 2355 786 2330 702 
C 2163 180 1798 51 1523 51 
C 1114 51 621 431 621 1385 
C 621 2358 1094 2700 1472 2700 
C 1722 2700 2093 2582 2234 2240 
z
" transform="scale(0.015625)"/>
       <path id="CMR17-74" d="M 966 2585 
L 1862 2585 
L 1862 2752 
L 966 2752 
L 966 3968 
L 851 3968 
C 838 3292 614 2700 70 2687 
L 70 2585 
L 627 2585 
L 627 778 
C 627 655 627 -64 1370 -64 
C 1747 -64 1965 308 1965 784 
L 1965 1151 
L 1850 1151 
L 1850 790 
C 1850 347 1677 51 1408 51 
C 1222 51 966 179 966 765 
L 966 2585 
z
" transform="scale(0.015625)"/>
       <path id="CMR17-69" d="M 992 3961 
C 992 4102 877 4224 730 4224 
C 589 4224 467 4108 467 3961 
C 467 3820 582 3699 730 3699 
C 870 3699 992 3814 992 3961 
z
M 243 2745 
L 243 2579 
C 602 2579 653 2540 653 2231 
L 653 443 
C 653 198 627 166 218 166 
L 218 0 
C 371 12 646 12 806 12 
C 960 12 1222 12 1370 0 
L 1370 166 
C 992 166 979 205 979 436 
L 979 2816 
L 243 2745 
z
" transform="scale(0.015625)"/>
       <path id="CMR17-6f" d="M 2758 1356 
C 2758 2176 2163 2816 1466 2816 
C 768 2816 173 2176 173 1356 
C 173 550 768 -64 1466 -64 
C 2163 -64 2758 550 2758 1356 
z
M 1466 51 
C 1165 51 909 230 762 480 
C 602 768 582 1126 582 1408 
C 582 1676 595 2009 762 2297 
C 890 2508 1139 2713 1466 2713 
C 1754 2713 1997 2553 2150 2329 
C 2349 2028 2349 1606 2349 1408 
C 2349 1158 2336 774 2163 467 
C 1984 172 1709 51 1466 51 
z
" transform="scale(0.015625)"/>
       <path id="CMR17-66" d="M 979 2585 
L 1709 2585 
L 1709 2752 
L 966 2752 
L 966 3539 
C 966 4076 1235 4377 1510 4377 
C 1594 4377 1690 4363 1754 4339 
C 1702 4326 1568 4281 1568 4121 
C 1568 3955 1696 3904 1786 3904 
C 1875 3904 2003 3955 2003 4121 
C 2003 4353 1773 4480 1517 4480 
C 1152 4480 653 4211 653 3526 
L 653 2752 
L 141 2752 
L 141 2585 
L 653 2585 
L 653 441 
C 653 198 627 166 218 166 
L 218 0 
C 371 12 666 12 832 12 
C 1018 12 1344 12 1517 0 
L 1517 166 
C 1056 166 979 166 979 454 
L 979 2585 
z
" transform="scale(0.015625)"/>
       <path id="CMR17-53" d="M 2803 4351 
C 2803 4467 2797 4473 2758 4473 
C 2720 4473 2707 4447 2682 4390 
L 2490 3965 
C 2246 4320 1875 4480 1472 4480 
C 819 4480 294 3958 294 3301 
C 294 3101 339 2817 557 2546 
C 794 2250 1018 2198 1530 2063 
C 1722 2011 2042 1927 2106 1901 
C 2470 1747 2662 1360 2662 999 
C 2662 534 2336 38 1779 38 
C 1094 38 454 425 410 1328 
C 403 1431 397 1437 352 1437 
C 301 1437 294 1431 294 1302 
L 294 0 
C 294 -116 301 -122 339 -122 
C 384 -122 397 -90 486 109 
C 493 128 493 141 614 386 
C 934 -39 1472 -128 1779 -128 
C 2477 -128 2970 457 2970 1141 
C 2970 1476 2848 1734 2778 1850 
C 2509 2263 2221 2340 1914 2417 
C 1869 2437 1856 2437 1498 2527 
C 1152 2617 1005 2662 845 2836 
C 666 3036 602 3243 602 3449 
C 602 3868 934 4326 1478 4326 
C 2157 4326 2579 3842 2675 3036 
C 2694 2920 2701 2914 2746 2914 
C 2803 2914 2803 2933 2803 3043 
L 2803 4351 
z
" transform="scale(0.015625)"/>
       <path id="CMR17-75" d="M 1882 2745 
L 1882 2579 
C 2259 2579 2317 2540 2317 2229 
L 2317 1053 
C 2317 510 2029 38 1555 38 
C 1030 38 986 355 986 691 
L 986 2816 
L 211 2745 
L 211 2579 
C 467 2579 640 2579 646 2320 
L 646 1079 
C 646 646 646 368 813 187 
C 896 103 1056 -64 1517 -64 
C 2061 -64 2272 400 2323 536 
L 2330 536 
L 2330 -64 
L 3091 -13 
L 3091 154 
C 2714 154 2656 193 2656 503 
L 2656 2816 
L 1882 2745 
z
" transform="scale(0.015625)"/>
       <path id="CMR17-73" d="M 1978 2688 
C 1978 2803 1971 2809 1933 2809 
C 1907 2809 1901 2803 1824 2707 
C 1805 2681 1747 2617 1728 2592 
C 1523 2809 1235 2816 1126 2816 
C 416 2816 160 2444 160 2073 
C 160 1497 813 1363 998 1324 
C 1402 1241 1542 1216 1677 1100 
C 1760 1024 1901 883 1901 652 
C 1901 384 1747 38 1158 38 
C 602 38 403 460 288 1024 
C 269 1113 269 1120 218 1120 
C 166 1120 160 1113 160 985 
L 160 64 
C 160 -52 166 -58 205 -58 
C 237 -58 243 -52 275 0 
C 314 57 410 211 448 275 
C 576 102 800 -64 1158 -64 
C 1792 -64 2131 281 2131 780 
C 2131 1107 1958 1280 1875 1356 
C 1683 1555 1459 1600 1190 1651 
C 838 1728 390 1817 390 2208 
C 390 2374 480 2726 1126 2726 
C 1811 2726 1850 2086 1862 1881 
C 1869 1849 1901 1843 1920 1843 
C 1978 1843 1978 1862 1978 1971 
L 1978 2688 
z
" transform="scale(0.015625)"/>
      </defs>
      <use xlink:href="#CMR17-46" transform="scale(0.996264)"/>
      <use xlink:href="#CMR17-72" transform="translate(52.176591 0)scale(0.996264)"/>
      <use xlink:href="#CMR17-61" transform="translate(87.457359 0)scale(0.996264)"/>
      <use xlink:href="#CMR17-63" transform="translate(133.147836 0)scale(0.996264)"/>
      <use xlink:href="#CMR17-74" transform="translate(173.633497 0)scale(0.996264)"/>
      <use xlink:href="#CMR17-69" transform="translate(208.914264 0)scale(0.996264)"/>
      <use xlink:href="#CMR17-6f" transform="translate(233.785323 0)scale(0.996264)"/>
      <use xlink:href="#CMR17-6e" transform="translate(279.4758 0)scale(0.996264)"/>
      <use xlink:href="#CMR17-6f" transform="translate(360.447136 0)scale(0.996264)"/>
      <use xlink:href="#CMR17-66" transform="translate(406.137613 0)scale(0.996264)"/>
      <use xlink:href="#CMR17-45" transform="translate(463.687092 0)scale(0.996264)"/>
      <use xlink:href="#CMR17-53" transform="translate(526.273393 0)scale(0.996264)"/>
      <use xlink:href="#CMR17-6e" transform="translate(607.244729 0)scale(0.996264)"/>
      <use xlink:href="#CMR17-65" transform="translate(658.140098 0)scale(0.996264)"/>
      <use xlink:href="#CMR17-75" transform="translate(698.625759 0)scale(0.996264)"/>
      <use xlink:href="#CMR17-74" transform="translate(749.521129 0)scale(0.996264)"/>
      <use xlink:href="#CMR17-72" transform="translate(784.801896 0)scale(0.996264)"/>
      <use xlink:href="#CMR17-69" transform="translate(820.082664 0)scale(0.996264)"/>
      <use xlink:href="#CMR17-6e" transform="translate(844.953723 0)scale(0.996264)"/>
      <use xlink:href="#CMR17-6f" transform="translate(895.849093 0)scale(0.996264)"/>
      <use xlink:href="#CMR17-73" transform="translate(941.53957 0)scale(0.996264)"/>
     </g>
    </g>
   </g>
   <g id="LineCollection_1">
    <path d="M 43.327984 121.0221 
L 73.087984 121.0221 
" clip-path="url(#p266f96824c)" style="fill: none; stroke: #000000; stroke-width: 2"/>
   </g>
   <g id="LineCollection_2">
    <path d="M 43.327984 294.249268 
L 73.087984 294.249268 
" clip-path="url(#p266f96824c)" style="fill: none; stroke: #dc143c; stroke-width: 2"/>
   </g>
   <g id="LineCollection_3">
    <path d="M 43.327984 332.189911 
L 73.087984 332.189911 
" clip-path="url(#p266f96824c)" style="fill: none; stroke: #008080; stroke-width: 2"/>
   </g>
   <g id="LineCollection_4">
    <path d="M 73.087984 121.0221 
L 73.087984 244.760094 
" clip-path="url(#p266f96824c)" style="fill: none; stroke: #000000; stroke-width: 2"/>
   </g>
   <g id="LineCollection_5">
    <path d="M 73.087984 294.249268 
L 73.087984 340.866481 
" clip-path="url(#p266f96824c)" style="fill: none; stroke: #dc143c; stroke-width: 2"/>
   </g>
   <g id="LineCollection_6">
    <path d="M 73.087984 332.189911 
L 73.087984 358.176244 
" clip-path="url(#p266f96824c)" style="fill: none; stroke: #008080; stroke-width: 2"/>
   </g>
   <g id="LineCollection_7">
    <path d="M 43.327984 377.27342 
L 43.327984 121.0221 
" clip-path="url(#p266f96824c)" style="fill: none; stroke: #000000; stroke-width: 2"/>
   </g>
   <g id="LineCollection_8">
    <path d="M 43.327984 377.27342 
L 43.327984 294.249268 
" clip-path="url(#p266f96824c)" style="fill: none; stroke: #dc143c; stroke-width: 2"/>
   </g>
   <g id="LineCollection_9">
    <path d="M 43.327984 377.27342 
L 43.327984 332.189911 
" clip-path="url(#p266f96824c)" style="fill: none; stroke: #008080; stroke-width: 2"/>
   </g>
   <g id="LineCollection_10">
    <path d="M 73.087984 244.760094 
L 102.847984 244.760094 
" clip-path="url(#p266f96824c)" style="fill: none; stroke: #000000; stroke-width: 2"/>
   </g>
   <g id="LineCollection_11">
    <path d="M 73.087984 340.866481 
L 102.847984 340.866481 
" clip-path="url(#p266f96824c)" style="fill: none; stroke: #dc143c; stroke-width: 2"/>
   </g>
   <g id="LineCollection_12">
    <path d="M 73.087984 358.176244 
L 102.847984 358.176244 
" clip-path="url(#p266f96824c)" style="fill: none; stroke: #008080; stroke-width: 2"/>
   </g>
   <g id="LineCollection_13">
    <path d="M 102.847984 244.760094 
L 102.847984 320.917881 
" clip-path="url(#p266f96824c)" style="fill: none; stroke: #000000; stroke-width: 2"/>
   </g>
   <g id="LineCollection_14">
    <path d="M 102.847984 340.866481 
L 102.847984 358.922225 
" clip-path="url(#p266f96824c)" style="fill: none; stroke: #dc143c; stroke-width: 2"/>
   </g>
   <g id="LineCollection_15">
    <path d="M 102.847984 358.176244 
L 102.847984 367.315616 
" clip-path="url(#p266f96824c)" style="fill: none; stroke: #008080; stroke-width: 2"/>
   </g>
   <g id="LineCollection_16">
    <path d="M 102.847984 320.917881 
L 132.607984 320.917881 
" clip-path="url(#p266f96824c)" style="fill: none; stroke: #000000; stroke-width: 2"/>
   </g>
   <g id="LineCollection_17">
    <path d="M 102.847984 358.922225 
L 132.607984 358.922225 
" clip-path="url(#p266f96824c)" style="fill: none; stroke: #dc143c; stroke-width: 2"/>
   </g>
   <g id="LineCollection_18">
    <path d="M 102.847984 367.315616 
L 132.607984 367.315616 
" clip-path="url(#p266f96824c)" style="fill: none; stroke: #008080; stroke-width: 2"/>
   </g>
   <g id="LineCollection_19">
    <path d="M 132.607984 320.917881 
L 132.607984 352.318982 
" clip-path="url(#p266f96824c)" style="fill: none; stroke: #000000; stroke-width: 2"/>
   </g>
   <g id="LineCollection_20">
    <path d="M 132.607984 358.922225 
L 132.607984 367.012127 
" clip-path="url(#p266f96824c)" style="fill: none; stroke: #dc143c; stroke-width: 2"/>
   </g>
   <g id="LineCollection_21">
    <path d="M 132.607984 367.315616 
L 132.607984 371.362376 
" clip-path="url(#p266f96824c)" style="fill: none; stroke: #008080; stroke-width: 2"/>
   </g>
   <g id="LineCollection_22">
    <path d="M 132.607984 352.318982 
L 162.367984 352.318982 
" clip-path="url(#p266f96824c)" style="fill: none; stroke: #000000; stroke-width: 2"/>
   </g>
   <g id="LineCollection_23">
    <path d="M 132.607984 367.012127 
L 162.367984 367.012127 
" clip-path="url(#p266f96824c)" style="fill: none; stroke: #dc143c; stroke-width: 2"/>
   </g>
   <g id="LineCollection_24">
    <path d="M 132.607984 371.362376 
L 162.367984 371.362376 
" clip-path="url(#p266f96824c)" style="fill: none; stroke: #008080; stroke-width: 2"/>
   </g>
   <g id="LineCollection_25">
    <path d="M 162.367984 352.318982 
L 162.367984 363.334131 
" clip-path="url(#p266f96824c)" style="fill: none; stroke: #000000; stroke-width: 2"/>
   </g>
   <g id="LineCollection_26">
    <path d="M 162.367984 367.012127 
L 162.367984 370.546666 
" clip-path="url(#p266f96824c)" style="fill: none; stroke: #dc143c; stroke-width: 2"/>
   </g>
   <g id="LineCollection_27">
    <path d="M 162.367984 371.362376 
L 162.367984 373.188448 
" clip-path="url(#p266f96824c)" style="fill: none; stroke: #008080; stroke-width: 2"/>
   </g>
   <g id="LineCollection_28">
    <path d="M 162.367984 363.334131 
L 192.127984 363.334131 
" clip-path="url(#p266f96824c)" style="fill: none; stroke: #000000; stroke-width: 2"/>
   </g>
   <g id="LineCollection_29">
    <path d="M 162.367984 370.546666 
L 192.127984 370.546666 
" clip-path="url(#p266f96824c)" style="fill: none; stroke: #dc143c; stroke-width: 2"/>
   </g>
   <g id="LineCollection_30">
    <path d="M 162.367984 373.188448 
L 192.127984 373.188448 
" clip-path="url(#p266f96824c)" style="fill: none; stroke: #008080; stroke-width: 2"/>
   </g>
   <g id="LineCollection_31">
    <path d="M 192.127984 363.334131 
L 192.127984 368.819072 
" clip-path="url(#p266f96824c)" style="fill: none; stroke: #000000; stroke-width: 2"/>
   </g>
   <g id="LineCollection_32">
    <path d="M 192.127984 370.546666 
L 192.127984 372.712573 
" clip-path="url(#p266f96824c)" style="fill: none; stroke: #dc143c; stroke-width: 2"/>
   </g>
   <g id="LineCollection_33">
    <path d="M 192.127984 373.188448 
L 192.127984 374.378771 
" clip-path="url(#p266f96824c)" style="fill: none; stroke: #008080; stroke-width: 2"/>
   </g>
   <g id="LineCollection_34">
    <path d="M 192.127984 368.819072 
L 221.887984 368.819072 
" clip-path="url(#p266f96824c)" style="fill: none; stroke: #000000; stroke-width: 2"/>
   </g>
   <g id="LineCollection_35">
    <path d="M 192.127984 372.712573 
L 221.887984 372.712573 
" clip-path="url(#p266f96824c)" style="fill: none; stroke: #dc143c; stroke-width: 2"/>
   </g>
   <g id="LineCollection_36">
    <path d="M 192.127984 374.378771 
L 221.887984 374.378771 
" clip-path="url(#p266f96824c)" style="fill: none; stroke: #008080; stroke-width: 2"/>
   </g>
   <g id="LineCollection_37">
    <path d="M 221.887984 368.819072 
L 221.887984 371.663398 
" clip-path="url(#p266f96824c)" style="fill: none; stroke: #000000; stroke-width: 2"/>
   </g>
   <g id="LineCollection_38">
    <path d="M 221.887984 372.712573 
L 221.887984 373.990281 
" clip-path="url(#p266f96824c)" style="fill: none; stroke: #dc143c; stroke-width: 2"/>
   </g>
   <g id="LineCollection_39">
    <path d="M 221.887984 374.378771 
L 221.887984 375.111112 
" clip-path="url(#p266f96824c)" style="fill: none; stroke: #008080; stroke-width: 2"/>
   </g>
   <g id="LineCollection_40">
    <path d="M 221.887984 371.663398 
L 251.647984 371.663398 
" clip-path="url(#p266f96824c)" style="fill: none; stroke: #000000; stroke-width: 2"/>
   </g>
   <g id="LineCollection_41">
    <path d="M 221.887984 373.990281 
L 251.647984 373.990281 
" clip-path="url(#p266f96824c)" style="fill: none; stroke: #dc143c; stroke-width: 2"/>
   </g>
   <g id="LineCollection_42">
    <path d="M 221.887984 375.111112 
L 251.647984 375.111112 
" clip-path="url(#p266f96824c)" style="fill: none; stroke: #008080; stroke-width: 2"/>
   </g>
   <g id="LineCollection_43">
    <path d="M 251.647984 371.663398 
L 251.647984 373.28644 
" clip-path="url(#p266f96824c)" style="fill: none; stroke: #000000; stroke-width: 2"/>
   </g>
   <g id="LineCollection_44">
    <path d="M 251.647984 373.990281 
L 251.647984 374.775746 
" clip-path="url(#p266f96824c)" style="fill: none; stroke: #dc143c; stroke-width: 2"/>
   </g>
   <g id="LineCollection_45">
    <path d="M 251.647984 375.111112 
L 251.647984 375.570595 
" clip-path="url(#p266f96824c)" style="fill: none; stroke: #008080; stroke-width: 2"/>
   </g>
   <g id="LineCollection_46">
    <path d="M 251.647984 373.28644 
L 281.407984 373.28644 
" clip-path="url(#p266f96824c)" style="fill: none; stroke: #000000; stroke-width: 2"/>
   </g>
   <g id="LineCollection_47">
    <path d="M 251.647984 374.775746 
L 281.407984 374.775746 
" clip-path="url(#p266f96824c)" style="fill: none; stroke: #dc143c; stroke-width: 2"/>
   </g>
   <g id="LineCollection_48">
    <path d="M 251.647984 375.570595 
L 281.407984 375.570595 
" clip-path="url(#p266f96824c)" style="fill: none; stroke: #008080; stroke-width: 2"/>
   </g>
   <g id="LineCollection_49">
    <path d="M 281.407984 373.28644 
L 281.407984 374.102065 
" clip-path="url(#p266f96824c)" style="fill: none; stroke: #000000; stroke-width: 2"/>
   </g>
   <g id="LineCollection_50">
    <path d="M 281.407984 374.775746 
L 281.407984 375.187632 
" clip-path="url(#p266f96824c)" style="fill: none; stroke: #dc143c; stroke-width: 2"/>
   </g>
   <g id="LineCollection_51">
    <path d="M 281.407984 375.570595 
L 281.407984 375.812465 
" clip-path="url(#p266f96824c)" style="fill: none; stroke: #008080; stroke-width: 2"/>
   </g>
   <g id="LineCollection_52">
    <path d="M 281.407984 374.102065 
L 311.167984 374.102065 
" clip-path="url(#p266f96824c)" style="fill: none; stroke: #000000; stroke-width: 2"/>
   </g>
   <g id="LineCollection_53">
    <path d="M 281.407984 375.187632 
L 311.167984 375.187632 
" clip-path="url(#p266f96824c)" style="fill: none; stroke: #dc143c; stroke-width: 2"/>
   </g>
   <g id="LineCollection_54">
    <path d="M 281.407984 375.812465 
L 311.167984 375.812465 
" clip-path="url(#p266f96824c)" style="fill: none; stroke: #008080; stroke-width: 2"/>
   </g>
   <g id="LineCollection_55">
    <path d="M 311.167984 374.102065 
L 311.167984 374.909586 
" clip-path="url(#p266f96824c)" style="fill: none; stroke: #000000; stroke-width: 2"/>
   </g>
   <g id="LineCollection_56">
    <path d="M 311.167984 375.187632 
L 311.167984 375.646538 
" clip-path="url(#p266f96824c)" style="fill: none; stroke: #dc143c; stroke-width: 2"/>
   </g>
   <g id="LineCollection_57">
    <path d="M 311.167984 375.812465 
L 311.167984 376.102569 
" clip-path="url(#p266f96824c)" style="fill: none; stroke: #008080; stroke-width: 2"/>
   </g>
   <g id="LineCollection_58">
    <path d="M 311.167984 374.909586 
L 340.927984 374.909586 
" clip-path="url(#p266f96824c)" style="fill: none; stroke: #000000; stroke-width: 2"/>
   </g>
   <g id="LineCollection_59">
    <path d="M 311.167984 375.646538 
L 340.927984 375.646538 
" clip-path="url(#p266f96824c)" style="fill: none; stroke: #dc143c; stroke-width: 2"/>
   </g>
   <g id="LineCollection_60">
    <path d="M 311.167984 376.102569 
L 340.927984 376.102569 
" clip-path="url(#p266f96824c)" style="fill: none; stroke: #008080; stroke-width: 2"/>
   </g>
   <g id="LineCollection_61">
    <path d="M 340.927984 374.909586 
L 340.927984 376.064612 
" clip-path="url(#p266f96824c)" style="fill: none; stroke: #000000; stroke-width: 2"/>
   </g>
   <g id="LineCollection_62">
    <path d="M 340.927984 375.646538 
L 340.927984 376.416296 
" clip-path="url(#p266f96824c)" style="fill: none; stroke: #dc143c; stroke-width: 2"/>
   </g>
   <g id="LineCollection_63">
    <path d="M 340.927984 376.102569 
L 340.927984 376.644466 
" clip-path="url(#p266f96824c)" style="fill: none; stroke: #008080; stroke-width: 2"/>
   </g>
   <g id="LineCollection_64">
    <path d="M 340.927984 376.064612 
L 370.687984 376.064612 
" clip-path="url(#p266f96824c)" style="fill: none; stroke: #000000; stroke-width: 2"/>
   </g>
   <g id="LineCollection_65">
    <path d="M 340.927984 376.416296 
L 370.687984 376.416296 
" clip-path="url(#p266f96824c)" style="fill: none; stroke: #dc143c; stroke-width: 2"/>
   </g>
   <g id="LineCollection_66">
    <path d="M 340.927984 376.644466 
L 370.687984 376.644466 
" clip-path="url(#p266f96824c)" style="fill: none; stroke: #008080; stroke-width: 2"/>
   </g>
   <g id="LineCollection_67">
    <path d="M 370.687984 376.064612 
L 370.687984 375.739372 
" clip-path="url(#p266f96824c)" style="fill: none; stroke: #000000; stroke-width: 2"/>
   </g>
   <g id="LineCollection_68">
    <path d="M 370.687984 376.416296 
L 370.687984 376.147701 
" clip-path="url(#p266f96824c)" style="fill: none; stroke: #dc143c; stroke-width: 2"/>
   </g>
   <g id="LineCollection_69">
    <path d="M 370.687984 376.644466 
L 370.687984 376.428418 
" clip-path="url(#p266f96824c)" style="fill: none; stroke: #008080; stroke-width: 2"/>
   </g>
   <g id="LineCollection_70">
    <path d="M 370.687984 375.739372 
L 400.447984 375.739372 
" clip-path="url(#p266f96824c)" style="fill: none; stroke: #000000; stroke-width: 2"/>
   </g>
   <g id="LineCollection_71">
    <path d="M 370.687984 376.147701 
L 400.447984 376.147701 
" clip-path="url(#p266f96824c)" style="fill: none; stroke: #dc143c; stroke-width: 2"/>
   </g>
   <g id="LineCollection_72">
    <path d="M 370.687984 376.428418 
L 400.447984 376.428418 
" clip-path="url(#p266f96824c)" style="fill: none; stroke: #008080; stroke-width: 2"/>
   </g>
   <g id="LineCollection_73">
    <path d="M 400.447984 375.739372 
L 400.447984 375.926066 
" clip-path="url(#p266f96824c)" style="fill: none; stroke: #000000; stroke-width: 2"/>
   </g>
   <g id="LineCollection_74">
    <path d="M 400.447984 376.147701 
L 400.447984 376.230258 
" clip-path="url(#p266f96824c)" style="fill: none; stroke: #dc143c; stroke-width: 2"/>
   </g>
   <g id="LineCollection_75">
    <path d="M 400.447984 376.428418 
L 400.447984 376.458834 
" clip-path="url(#p266f96824c)" style="fill: none; stroke: #008080; stroke-width: 2"/>
   </g>
   <g id="LineCollection_76">
    <path d="M 400.447984 375.926066 
L 430.207984 375.926066 
" clip-path="url(#p266f96824c)" style="fill: none; stroke: #000000; stroke-width: 2"/>
   </g>
   <g id="LineCollection_77">
    <path d="M 400.447984 376.230258 
L 430.207984 376.230258 
" clip-path="url(#p266f96824c)" style="fill: none; stroke: #dc143c; stroke-width: 2"/>
   </g>
   <g id="LineCollection_78">
    <path d="M 400.447984 376.458834 
L 430.207984 376.458834 
" clip-path="url(#p266f96824c)" style="fill: none; stroke: #008080; stroke-width: 2"/>
   </g>
   <g id="LineCollection_79">
    <path d="M 430.207984 375.926066 
L 430.207984 373.623574 
" clip-path="url(#p266f96824c)" style="fill: none; stroke: #000000; stroke-width: 2"/>
   </g>
   <g id="LineCollection_80">
    <path d="M 430.207984 376.230258 
L 430.207984 374.55842 
" clip-path="url(#p266f96824c)" style="fill: none; stroke: #dc143c; stroke-width: 2"/>
   </g>
   <g id="LineCollection_81">
    <path d="M 430.207984 376.458834 
L 430.207984 375.203528 
" clip-path="url(#p266f96824c)" style="fill: none; stroke: #008080; stroke-width: 2"/>
   </g>
   <g id="LineCollection_82">
    <path d="M 430.207984 373.623574 
L 459.967984 373.623574 
" clip-path="url(#p266f96824c)" style="fill: none; stroke: #000000; stroke-width: 2"/>
   </g>
   <g id="LineCollection_83">
    <path d="M 430.207984 374.55842 
L 459.967984 374.55842 
" clip-path="url(#p266f96824c)" style="fill: none; stroke: #dc143c; stroke-width: 2"/>
   </g>
   <g id="LineCollection_84">
    <path d="M 430.207984 375.203528 
L 459.967984 375.203528 
" clip-path="url(#p266f96824c)" style="fill: none; stroke: #008080; stroke-width: 2"/>
   </g>
   <g id="LineCollection_85">
    <path d="M 459.967984 373.623574 
L 459.967984 374.616116 
" clip-path="url(#p266f96824c)" style="fill: none; stroke: #000000; stroke-width: 2"/>
   </g>
   <g id="LineCollection_86">
    <path d="M 459.967984 374.55842 
L 459.967984 375.24062 
" clip-path="url(#p266f96824c)" style="fill: none; stroke: #dc143c; stroke-width: 2"/>
   </g>
   <g id="LineCollection_87">
    <path d="M 459.967984 375.203528 
L 459.967984 375.688126 
" clip-path="url(#p266f96824c)" style="fill: none; stroke: #008080; stroke-width: 2"/>
   </g>
   <g id="LineCollection_88">
    <path d="M 459.967984 374.616116 
L 489.727984 374.616116 
" clip-path="url(#p266f96824c)" style="fill: none; stroke: #000000; stroke-width: 2"/>
   </g>
   <g id="LineCollection_89">
    <path d="M 459.967984 375.24062 
L 489.727984 375.24062 
" clip-path="url(#p266f96824c)" style="fill: none; stroke: #dc143c; stroke-width: 2"/>
   </g>
   <g id="LineCollection_90">
    <path d="M 459.967984 375.688126 
L 489.727984 375.688126 
" clip-path="url(#p266f96824c)" style="fill: none; stroke: #008080; stroke-width: 2"/>
   </g>
   <g id="patch_3">
    <path d="M 43.327984 377.27342 
L 43.327984 44.63342 
" style="fill: none; stroke: #000000; stroke-width: 0.8; stroke-linejoin: miter; stroke-linecap: square"/>
   </g>
   <g id="patch_4">
    <path d="M 489.727984 377.27342 
L 489.727984 44.63342 
" style="fill: none; stroke: #000000; stroke-width: 0.8; stroke-linejoin: miter; stroke-linecap: square"/>
   </g>
   <g id="patch_5">
    <path d="M 43.327984 377.27342 
L 489.727984 377.27342 
" style="fill: none; stroke: #000000; stroke-width: 0.8; stroke-linejoin: miter; stroke-linecap: square"/>
   </g>
   <g id="patch_6">
    <path d="M 43.327984 44.63342 
L 489.727984 44.63342 
" style="fill: none; stroke: #000000; stroke-width: 0.8; stroke-linejoin: miter; stroke-linecap: square"/>
   </g>
   <g id="text_18">
    <!-- Fraction of Elastic Scattering (ES) neutrinos per energy bin -->
    <g transform="translate(51.447755 20.63342)scale(0.18 -0.18)">
     <defs>
      <path id="CMR17-6c" d="M 979 4416 
L 218 4345 
L 218 4179 
C 595 4179 653 4141 653 3835 
L 653 439 
C 653 198 627 166 218 166 
L 218 0 
C 371 12 653 12 813 12 
C 979 12 1261 12 1414 0 
L 1414 166 
C 1005 166 979 191 979 439 
L 979 4416 
z
" transform="scale(0.015625)"/>
      <path id="CMR17-28" d="M 1958 -1562 
C 1958 -1556 1958 -1543 1939 -1524 
C 1645 -1223 858 -403 858 1596 
C 858 3595 1632 4408 1946 4729 
C 1946 4735 1958 4748 1958 4767 
C 1958 4787 1939 4800 1914 4800 
C 1843 4800 1299 4325 986 3620 
C 666 2909 576 2218 576 1603 
C 576 1141 621 360 1005 -467 
C 1312 -1133 1837 -1600 1914 -1600 
C 1946 -1600 1958 -1588 1958 -1562 
z
" transform="scale(0.015625)"/>
      <path id="CMR17-29" d="M 1683 1596 
C 1683 2057 1638 2839 1254 3665 
C 947 4332 422 4800 346 4800 
C 326 4800 301 4793 301 4761 
C 301 4748 307 4742 314 4729 
C 621 4408 1402 3595 1402 1603 
C 1402 -396 627 -1210 314 -1530 
C 307 -1543 301 -1549 301 -1562 
C 301 -1594 326 -1600 346 -1600 
C 416 -1600 960 -1127 1274 -422 
C 1594 289 1683 981 1683 1596 
z
" transform="scale(0.015625)"/>
      <path id="CMR17-70" d="M 1408 -1114 
C 998 -1114 973 -1088 973 -834 
L 973 380 
C 1158 109 1427 -64 1766 -64 
C 2406 -64 3053 503 3053 1382 
C 3053 2196 2496 2816 1837 2816 
C 1453 2816 1139 2603 960 2345 
L 960 2816 
L 198 2745 
L 198 2577 
C 576 2577 634 2539 634 2228 
L 634 -834 
C 634 -1081 608 -1114 198 -1114 
L 198 -1280 
C 352 -1268 634 -1268 800 -1268 
C 966 -1268 1254 -1268 1408 -1280 
L 1408 -1114 
z
M 973 2015 
C 973 2106 973 2241 1222 2481 
C 1254 2506 1472 2700 1792 2700 
C 2259 2700 2643 2112 2643 1376 
C 2643 639 2234 38 1728 38 
C 1498 38 1248 148 1056 451 
C 973 594 973 632 973 736 
L 973 2015 
z
" transform="scale(0.015625)"/>
      <path id="CMR17-62" d="M 960 4416 
L 198 4345 
L 198 4179 
C 576 4179 634 4141 634 3843 
L 634 -13 
L 749 -13 
L 934 445 
C 1120 141 1395 -64 1766 -64 
C 2406 -64 3053 503 3053 1382 
C 3053 2209 2477 2816 1830 2816 
C 1434 2816 1152 2603 960 2351 
L 960 4416 
z
M 973 2022 
C 973 2138 973 2157 1062 2293 
C 1312 2681 1670 2713 1792 2713 
C 1984 2713 2643 2610 2643 1388 
C 2643 109 1888 38 1734 38 
C 1536 38 1248 115 1043 490 
C 973 613 973 626 973 742 
L 973 2022 
z
" transform="scale(0.015625)"/>
     </defs>
     <use xlink:href="#CMR17-46" transform="scale(0.996264)"/>
     <use xlink:href="#CMR17-72" transform="translate(52.176591 0)scale(0.996264)"/>
     <use xlink:href="#CMR17-61" transform="translate(87.457359 0)scale(0.996264)"/>
     <use xlink:href="#CMR17-63" transform="translate(133.147836 0)scale(0.996264)"/>
     <use xlink:href="#CMR17-74" transform="translate(173.633497 0)scale(0.996264)"/>
     <use xlink:href="#CMR17-69" transform="translate(208.914264 0)scale(0.996264)"/>
     <use xlink:href="#CMR17-6f" transform="translate(233.785323 0)scale(0.996264)"/>
     <use xlink:href="#CMR17-6e" transform="translate(279.4758 0)scale(0.996264)"/>
     <use xlink:href="#CMR17-6f" transform="translate(360.447136 0)scale(0.996264)"/>
     <use xlink:href="#CMR17-66" transform="translate(406.137613 0)scale(0.996264)"/>
     <use xlink:href="#CMR17-45" transform="translate(463.687092 0)scale(0.996264)"/>
     <use xlink:href="#CMR17-6c" transform="translate(526.273393 0)scale(0.996264)"/>
     <use xlink:href="#CMR17-61" transform="translate(551.144451 0)scale(0.996264)"/>
     <use xlink:href="#CMR17-73" transform="translate(596.834928 0)scale(0.996264)"/>
     <use xlink:href="#CMR17-74" transform="translate(632.636266 0)scale(0.996264)"/>
     <use xlink:href="#CMR17-69" transform="translate(667.917034 0)scale(0.996264)"/>
     <use xlink:href="#CMR17-63" transform="translate(692.788092 0)scale(0.996264)"/>
     <use xlink:href="#CMR17-53" transform="translate(763.349719 0)scale(0.996264)"/>
     <use xlink:href="#CMR17-63" transform="translate(814.245089 0)scale(0.996264)"/>
     <use xlink:href="#CMR17-61" transform="translate(854.730749 0)scale(0.996264)"/>
     <use xlink:href="#CMR17-74" transform="translate(900.421226 0)scale(0.996264)"/>
     <use xlink:href="#CMR17-74" transform="translate(935.701994 0)scale(0.996264)"/>
     <use xlink:href="#CMR17-65" transform="translate(970.982762 0)scale(0.996264)"/>
     <use xlink:href="#CMR17-72" transform="translate(1011.468422 0)scale(0.996264)"/>
     <use xlink:href="#CMR17-69" transform="translate(1046.74919 0)scale(0.996264)"/>
     <use xlink:href="#CMR17-6e" transform="translate(1071.620249 0)scale(0.996264)"/>
     <use xlink:href="#CMR17-67" transform="translate(1122.515618 0)scale(0.996264)"/>
     <use xlink:href="#CMR17-28" transform="translate(1198.282062 0)scale(0.996264)"/>
     <use xlink:href="#CMR17-45" transform="translate(1233.56283 0)scale(0.996264)"/>
     <use xlink:href="#CMR17-53" transform="translate(1296.14913 0)scale(0.996264)"/>
     <use xlink:href="#CMR17-29" transform="translate(1347.0445 0)scale(0.996264)"/>
     <use xlink:href="#CMR17-6e" transform="translate(1412.401234 0)scale(0.996264)"/>
     <use xlink:href="#CMR17-65" transform="translate(1463.296604 0)scale(0.996264)"/>
     <use xlink:href="#CMR17-75" transform="translate(1503.782264 0)scale(0.996264)"/>
     <use xlink:href="#CMR17-74" transform="translate(1554.677634 0)scale(0.996264)"/>
     <use xlink:href="#CMR17-72" transform="translate(1589.958402 0)scale(0.996264)"/>
     <use xlink:href="#CMR17-69" transform="translate(1625.23917 0)scale(0.996264)"/>
     <use xlink:href="#CMR17-6e" transform="translate(1650.110228 0)scale(0.996264)"/>
     <use xlink:href="#CMR17-6f" transform="translate(1701.005598 0)scale(0.996264)"/>
     <use xlink:href="#CMR17-73" transform="translate(1746.696075 0)scale(0.996264)"/>
     <use xlink:href="#CMR17-70" transform="translate(1812.573379 0)scale(0.996264)"/>
     <use xlink:href="#CMR17-65" transform="translate(1866.071188 0)scale(0.996264)"/>
     <use xlink:href="#CMR17-72" transform="translate(1906.556848 0)scale(0.996264)"/>
     <use xlink:href="#CMR17-65" transform="translate(1971.913582 0)scale(0.996264)"/>
     <use xlink:href="#CMR17-6e" transform="translate(2012.399243 0)scale(0.996264)"/>
     <use xlink:href="#CMR17-65" transform="translate(2063.294612 0)scale(0.996264)"/>
     <use xlink:href="#CMR17-72" transform="translate(2103.780273 0)scale(0.996264)"/>
     <use xlink:href="#CMR17-67" transform="translate(2139.061041 0)scale(0.996264)"/>
     <use xlink:href="#CMR17-79" transform="translate(2184.751518 0)scale(0.996264)"/>
     <use xlink:href="#CMR17-62" transform="translate(2263.1204 0)scale(0.996264)"/>
     <use xlink:href="#CMR17-69" transform="translate(2314.01577 0)scale(0.996264)"/>
     <use xlink:href="#CMR17-6e" transform="translate(2338.886828 0)scale(0.996264)"/>
    </g>
   </g>
   <g id="legend_1">
    <g id="patch_7">
     <path d="M 309.204441 124.50424 
L 481.327984 124.50424 
Q 483.727984 124.50424 483.727984 122.10424 
L 483.727984 53.03342 
Q 483.727984 50.63342 481.327984 50.63342 
L 309.204441 50.63342 
Q 306.804441 50.63342 306.804441 53.03342 
L 306.804441 122.10424 
Q 306.804441 124.50424 309.204441 124.50424 
z
" style="fill: #ffffff; opacity: 0.8; stroke: #cccccc; stroke-linejoin: miter"/>
    </g>
    <g id="text_19">
     <!-- Neutron tagging -->
     <g transform="translate(346.520808 65.119296)scale(0.14 -0.14)">
      <defs>
       <path id="CMR17-4e" d="M 1312 4275 
C 1267 4345 1261 4352 1139 4352 
L 326 4352 
L 326 4185 
L 448 4185 
C 704 4185 819 4153 838 4147 
L 838 624 
C 838 465 838 166 326 166 
L 326 0 
C 474 12 742 12 902 12 
C 1062 12 1331 12 1478 0 
L 1478 166 
C 966 166 966 465 966 624 
L 966 4057 
C 1011 4019 1011 4007 1056 3943 
L 3430 76 
C 3475 0 3494 0 3526 0 
C 3590 0 3590 19 3590 140 
L 3590 3726 
C 3590 3885 3590 4185 4102 4185 
L 4102 4352 
C 3955 4339 3686 4339 3526 4339 
C 3366 4339 3098 4339 2950 4352 
L 2950 4185 
C 3462 4185 3462 3885 3462 3726 
L 3462 777 
L 1312 4275 
z
" transform="scale(0.015625)"/>
      </defs>
      <use xlink:href="#CMR17-4e" transform="scale(0.996264)"/>
      <use xlink:href="#CMR17-65" transform="translate(69.07243 0)scale(0.996264)"/>
      <use xlink:href="#CMR17-75" transform="translate(109.55809 0)scale(0.996264)"/>
      <use xlink:href="#CMR17-74" transform="translate(160.45346 0)scale(0.996264)"/>
      <use xlink:href="#CMR17-72" transform="translate(195.734228 0)scale(0.996264)"/>
      <use xlink:href="#CMR17-6f" transform="translate(231.014996 0)scale(0.996264)"/>
      <use xlink:href="#CMR17-6e" transform="translate(276.705473 0)scale(0.996264)"/>
      <use xlink:href="#CMR17-74" transform="translate(357.676809 0)scale(0.996264)"/>
      <use xlink:href="#CMR17-61" transform="translate(392.957577 0)scale(0.996264)"/>
      <use xlink:href="#CMR17-67" transform="translate(438.648054 0)scale(0.996264)"/>
      <use xlink:href="#CMR17-67" transform="translate(484.338531 0)scale(0.996264)"/>
      <use xlink:href="#CMR17-69" transform="translate(530.029008 0)scale(0.996264)"/>
      <use xlink:href="#CMR17-6e" transform="translate(554.900067 0)scale(0.996264)"/>
      <use xlink:href="#CMR17-67" transform="translate(605.795436 0)scale(0.996264)"/>
     </g>
    </g>
    <g id="line2d_16">
     <path d="M 311.604441 78.597701 
L 335.604441 78.597701 
" style="fill: none; stroke: #000000; stroke-width: 2"/>
    </g>
    <g id="text_20">
     <!-- 0.2\% Gd - 90\% efficiency -->
     <g transform="translate(345.204441 82.797701)scale(0.12 -0.12)">
      <defs>
       <path id="CMR17-2e" d="M 1062 262 
C 1062 422 934 524 800 524 
C 672 524 538 422 538 262 
C 538 102 666 0 800 0 
C 928 0 1062 102 1062 262 
z
" transform="scale(0.015625)"/>
       <path id="CMR17-25" d="M 4640 928 
C 4640 1670 4275 2214 3846 2214 
C 3411 2214 2970 1708 2970 928 
C 2970 147 3405 -359 3846 -359 
C 4275 -359 4640 179 4640 928 
z
M 3853 -256 
C 3686 -256 3270 -103 3270 928 
C 3270 1964 3686 2112 3853 2112 
C 4205 2112 4525 1606 4525 928 
C 4525 249 4205 -256 3853 -256 
z
M 4083 4572 
C 4128 4644 4134 4651 4134 4684 
C 4134 4761 4077 4800 4026 4800 
C 3962 4800 3936 4755 3891 4703 
C 3520 4155 3008 4096 2746 4096 
C 2106 4096 1715 4479 1594 4598 
C 1510 4677 1389 4800 1171 4800 
C 736 4800 294 4281 294 3496 
C 294 2718 730 2214 1171 2214 
C 1600 2214 1965 2750 1965 3496 
C 1965 3936 1830 4241 1811 4281 
C 2202 4025 2586 3993 2752 3993 
C 3162 3993 3456 4148 3616 4261 
L 3622 4254 
L 858 -122 
C 800 -212 800 -224 800 -244 
C 800 -314 858 -359 915 -359 
C 973 -359 992 -327 1037 -256 
L 4083 4572 
z
M 1178 2316 
C 1011 2316 595 2469 595 3496 
C 595 4545 1011 4697 1178 4697 
C 1530 4697 1850 4175 1850 3496 
C 1850 2820 1530 2316 1178 2316 
z
" transform="scale(0.015625)"/>
       <path id="CMR17-47" d="M 3974 1258 
C 3974 1503 3994 1536 4390 1536 
L 4390 1702 
C 4237 1689 3891 1689 3718 1689 
C 3539 1689 3040 1696 2797 1702 
L 2797 1536 
L 2989 1536 
C 3539 1536 3552 1464 3552 1232 
L 3552 806 
C 3552 96 2720 38 2522 38 
C 1862 38 781 496 781 2179 
C 781 3862 1843 4313 2464 4313 
C 3187 4313 3712 3681 3834 2785 
C 3846 2708 3846 2695 3904 2695 
C 3974 2695 3974 2708 3974 2824 
L 3974 4351 
C 3974 4467 3968 4473 3930 4473 
C 3904 4473 3898 4467 3853 4390 
L 3571 3849 
C 3258 4249 2874 4480 2381 4480 
C 1286 4480 294 3507 294 2179 
C 294 858 1267 -128 2394 -128 
C 2912 -128 3418 57 3616 425 
C 3725 161 3904 -20 3936 -20 
C 3968 -20 3974 -13 3974 102 
L 3974 1258 
z
" transform="scale(0.015625)"/>
       <path id="CMR17-64" d="M 1869 4345 
L 1869 4179 
C 2246 4179 2304 4141 2304 3843 
L 2304 2371 
C 2278 2403 2016 2816 1498 2816 
C 845 2816 211 2228 211 1376 
C 211 529 806 -64 1434 -64 
C 1978 -64 2259 361 2291 406 
L 2291 -64 
L 3066 -13 
L 3066 154 
C 2688 154 2630 193 2630 503 
L 2630 4416 
L 1869 4345 
z
M 2291 762 
C 2291 568 2176 393 2029 264 
C 1811 70 1594 38 1472 38 
C 1286 38 621 135 621 1369 
C 621 2636 1363 2713 1530 2713 
C 1824 2713 2061 2545 2208 2313 
C 2291 2177 2291 2157 2291 2041 
L 2291 762 
z
" transform="scale(0.015625)"/>
       <path id="CMR17-2d" d="M 1632 1254 
L 1632 1536 
L 26 1536 
L 26 1254 
L 1632 1254 
z
" transform="scale(0.015625)"/>
       <path id="CMR17-39" d="M 2253 1871 
C 2253 448 1670 25 1190 25 
C 1043 25 685 43 538 281 
C 704 256 826 345 826 505 
C 826 678 685 736 595 736 
C 538 736 365 710 365 492 
C 365 68 742 -128 1203 -128 
C 1939 -128 2688 665 2688 2090 
C 2688 3857 1971 4224 1485 4224 
C 851 4224 243 3664 243 2800 
C 243 2000 762 1408 1414 1408 
C 1952 1408 2189 1910 2253 2122 
L 2253 1871 
z
M 1427 1510 
C 1254 1510 1011 1542 813 1929 
C 678 2181 678 2477 678 2793 
C 678 3174 678 3438 858 3722 
C 947 3857 1114 4076 1485 4076 
C 2240 4076 2240 2909 2240 2651 
C 2240 2193 2035 1510 1427 1510 
z
" transform="scale(0.015625)"/>
       <path id="CMR17-e" d="M 4154 2810 
C 4000 2804 3526 2771 3405 2758 
C 3366 2752 3354 2752 3277 2752 
L 2547 2752 
L 2547 3516 
C 2547 4127 3034 4377 3418 4377 
C 3539 4377 3814 4349 3955 4160 
C 3891 4160 3686 4160 3686 3935 
C 3686 3782 3789 3705 3917 3705 
C 4032 3705 4147 3769 4147 3942 
C 4147 4249 3840 4480 3443 4480 
C 3245 4480 2829 4435 2496 4153 
C 2413 4299 2202 4480 1837 4480 
C 1344 4480 634 4215 634 3516 
L 634 2752 
L 122 2752 
L 122 2585 
L 634 2585 
L 634 441 
C 634 198 608 166 198 166 
L 198 0 
C 352 12 634 12 794 12 
C 960 12 1242 12 1395 0 
L 1395 166 
C 986 166 960 192 960 441 
L 960 2585 
L 2234 2585 
L 2234 441 
C 2234 198 2208 166 1798 166 
L 1798 0 
C 1952 12 2234 12 2394 12 
C 2560 12 2842 12 2995 0 
L 2995 166 
C 2586 166 2560 192 2560 441 
L 2560 2585 
L 3501 2585 
C 3776 2585 3827 2528 3827 2246 
L 3827 441 
C 3827 198 3802 166 3392 166 
L 3392 0 
C 3546 12 3827 12 3987 12 
C 4154 12 4435 12 4589 0 
L 4589 166 
C 4179 166 4154 192 4154 441 
L 4154 2810 
z
M 947 2752 
L 947 3516 
C 947 4121 1421 4377 1818 4377 
C 2042 4377 2259 4293 2355 4160 
C 2291 4160 2080 4160 2080 3935 
C 2080 3820 2144 3743 2246 3711 
C 2234 3653 2234 3522 2234 3516 
L 2234 2752 
L 947 2752 
z
" transform="scale(0.015625)"/>
      </defs>
      <use xlink:href="#CMR17-30" transform="scale(0.996264)"/>
      <use xlink:href="#CMR17-2e" transform="translate(45.690477 0)scale(0.996264)"/>
      <use xlink:href="#CMR17-32" transform="translate(70.561536 0)scale(0.996264)"/>
      <use xlink:href="#CMR17-25" transform="translate(116.252013 0)scale(0.996264)"/>
      <use xlink:href="#CMR17-47" transform="translate(223.247569 0)scale(0.996264)"/>
      <use xlink:href="#CMR17-64" transform="translate(295.602915 0)scale(0.996264)"/>
      <use xlink:href="#CMR17-2d" transform="translate(376.574251 0)scale(0.996264)"/>
      <use xlink:href="#CMR17-39" transform="translate(436.726184 0)scale(0.996264)"/>
      <use xlink:href="#CMR17-30" transform="translate(482.416661 0)scale(0.996264)"/>
      <use xlink:href="#CMR17-25" transform="translate(528.107138 0)scale(0.996264)"/>
      <use xlink:href="#CMR17-65" transform="translate(635.102694 0)scale(0.996264)"/>
      <use xlink:href="#CMR17-e" transform="translate(675.588355 0)scale(0.996264)"/>
      <use xlink:href="#CMR17-63" transform="translate(750.201636 0)scale(0.996264)"/>
      <use xlink:href="#CMR17-69" transform="translate(790.687297 0)scale(0.996264)"/>
      <use xlink:href="#CMR17-65" transform="translate(815.558355 0)scale(0.996264)"/>
      <use xlink:href="#CMR17-6e" transform="translate(856.044016 0)scale(0.996264)"/>
      <use xlink:href="#CMR17-63" transform="translate(906.939386 0)scale(0.996264)"/>
      <use xlink:href="#CMR17-79" transform="translate(947.425046 0)scale(0.996264)"/>
     </g>
    </g>
    <g id="line2d_17">
     <path d="M 311.604441 95.888673 
L 335.604441 95.888673 
" style="fill: none; stroke: #dc143c; stroke-width: 2"/>
    </g>
    <g id="text_21">
     <!-- 0.02\% Gd - 50\% efficiency -->
     <g transform="translate(345.204441 100.088673)scale(0.12 -0.12)">
      <use xlink:href="#CMR17-30" transform="scale(0.996264)"/>
      <use xlink:href="#CMR17-2e" transform="translate(45.690477 0)scale(0.996264)"/>
      <use xlink:href="#CMR17-30" transform="translate(70.561536 0)scale(0.996264)"/>
      <use xlink:href="#CMR17-32" transform="translate(116.252013 0)scale(0.996264)"/>
      <use xlink:href="#CMR17-25" transform="translate(161.94249 0)scale(0.996264)"/>
      <use xlink:href="#CMR17-47" transform="translate(268.938046 0)scale(0.996264)"/>
      <use xlink:href="#CMR17-64" transform="translate(341.293392 0)scale(0.996264)"/>
      <use xlink:href="#CMR17-2d" transform="translate(422.264728 0)scale(0.996264)"/>
      <use xlink:href="#CMR17-35" transform="translate(482.416661 0)scale(0.996264)"/>
      <use xlink:href="#CMR17-30" transform="translate(528.107138 0)scale(0.996264)"/>
      <use xlink:href="#CMR17-25" transform="translate(573.797615 0)scale(0.996264)"/>
      <use xlink:href="#CMR17-65" transform="translate(680.793171 0)scale(0.996264)"/>
      <use xlink:href="#CMR17-e" transform="translate(721.278832 0)scale(0.996264)"/>
      <use xlink:href="#CMR17-63" transform="translate(795.892114 0)scale(0.996264)"/>
      <use xlink:href="#CMR17-69" transform="translate(836.377774 0)scale(0.996264)"/>
      <use xlink:href="#CMR17-65" transform="translate(861.248833 0)scale(0.996264)"/>
      <use xlink:href="#CMR17-6e" transform="translate(901.734493 0)scale(0.996264)"/>
      <use xlink:href="#CMR17-63" transform="translate(952.629863 0)scale(0.996264)"/>
      <use xlink:href="#CMR17-79" transform="translate(993.115523 0)scale(0.996264)"/>
     </g>
    </g>
    <g id="line2d_18">
     <path d="M 311.604441 113.179644 
L 335.604441 113.179644 
" style="fill: none; stroke: #008080; stroke-width: 2"/>
    </g>
    <g id="text_22">
     <!-- 0.0\% Gd - 0\% efficiecny -->
     <g transform="translate(345.204441 117.379644)scale(0.12 -0.12)">
      <use xlink:href="#CMR17-30" transform="scale(0.996264)"/>
      <use xlink:href="#CMR17-2e" transform="translate(45.690477 0)scale(0.996264)"/>
      <use xlink:href="#CMR17-30" transform="translate(70.561536 0)scale(0.996264)"/>
      <use xlink:href="#CMR17-25" transform="translate(116.252013 0)scale(0.996264)"/>
      <use xlink:href="#CMR17-47" transform="translate(223.247569 0)scale(0.996264)"/>
      <use xlink:href="#CMR17-64" transform="translate(295.602915 0)scale(0.996264)"/>
      <use xlink:href="#CMR17-2d" transform="translate(376.574251 0)scale(0.996264)"/>
      <use xlink:href="#CMR17-30" transform="translate(436.726184 0)scale(0.996264)"/>
      <use xlink:href="#CMR17-25" transform="translate(482.416661 0)scale(0.996264)"/>
      <use xlink:href="#CMR17-65" transform="translate(589.412217 0)scale(0.996264)"/>
      <use xlink:href="#CMR17-e" transform="translate(629.897877 0)scale(0.996264)"/>
      <use xlink:href="#CMR17-63" transform="translate(704.511159 0)scale(0.996264)"/>
      <use xlink:href="#CMR17-69" transform="translate(744.99682 0)scale(0.996264)"/>
      <use xlink:href="#CMR17-65" transform="translate(769.867878 0)scale(0.996264)"/>
      <use xlink:href="#CMR17-63" transform="translate(810.353539 0)scale(0.996264)"/>
      <use xlink:href="#CMR17-6e" transform="translate(850.839199 0)scale(0.996264)"/>
      <use xlink:href="#CMR17-79" transform="translate(899.132115 0)scale(0.996264)"/>
     </g>
    </g>
   </g>
  </g>
  <g id="text_23">
   <!-- Considering neutron tagging by gadolinium (Gd) addition -->
   <g transform="translate(85.875487 40.31342)scale(0.14 -0.14)">
    <defs>
     <path id="CMR17-43" d="M 3974 4351 
C 3974 4467 3968 4473 3930 4473 
C 3904 4473 3898 4467 3853 4390 
L 3571 3849 
C 3258 4249 2874 4480 2381 4480 
C 1286 4480 294 3507 294 2179 
C 294 837 1286 -128 2387 -128 
C 3366 -128 3974 741 3974 1482 
C 3974 1547 3974 1573 3917 1573 
C 3866 1573 3866 1553 3859 1495 
C 3808 592 3168 38 2477 38 
C 1824 38 781 502 781 2179 
C 781 3862 1843 4313 2464 4313 
C 3187 4313 3712 3681 3834 2785 
C 3846 2707 3846 2695 3904 2695 
C 3974 2695 3974 2707 3974 2824 
L 3974 4351 
z
" transform="scale(0.015625)"/>
     <path id="CMR17-6d" d="M 4326 1954 
C 4326 2276 4269 2816 3507 2816 
C 3072 2816 2771 2520 2656 2173 
L 2650 2173 
C 2573 2700 2195 2816 1837 2816 
C 1331 2816 1069 2424 973 2166 
L 966 2166 
L 966 2816 
L 211 2745 
L 211 2578 
C 589 2578 646 2540 646 2231 
L 646 443 
C 646 198 621 166 211 166 
L 211 0 
C 365 12 646 12 813 12 
C 979 12 1267 12 1421 0 
L 1421 166 
C 1011 166 986 192 986 443 
L 986 1678 
C 986 2269 1344 2713 1792 2713 
C 2266 2713 2317 2289 2317 1980 
L 2317 443 
C 2317 198 2291 166 1882 166 
L 1882 0 
C 2035 12 2317 12 2483 12 
C 2650 12 2938 12 3091 0 
L 3091 166 
C 2682 166 2656 192 2656 443 
L 2656 1678 
C 2656 2269 3014 2713 3462 2713 
C 3936 2713 3987 2289 3987 1980 
L 3987 443 
C 3987 198 3962 166 3552 166 
L 3552 0 
C 3706 12 3987 12 4154 12 
C 4320 12 4608 12 4762 0 
L 4762 166 
C 4352 166 4326 192 4326 443 
L 4326 1954 
z
" transform="scale(0.015625)"/>
    </defs>
    <use xlink:href="#CMR17-43" transform="scale(0.996264)"/>
    <use xlink:href="#CMR17-6f" transform="translate(66.509881 0)scale(0.996264)"/>
    <use xlink:href="#CMR17-6e" transform="translate(112.200358 0)scale(0.996264)"/>
    <use xlink:href="#CMR17-73" transform="translate(163.095727 0)scale(0.996264)"/>
    <use xlink:href="#CMR17-69" transform="translate(198.897065 0)scale(0.996264)"/>
    <use xlink:href="#CMR17-64" transform="translate(223.768124 0)scale(0.996264)"/>
    <use xlink:href="#CMR17-65" transform="translate(274.663493 0)scale(0.996264)"/>
    <use xlink:href="#CMR17-72" transform="translate(315.149154 0)scale(0.996264)"/>
    <use xlink:href="#CMR17-69" transform="translate(350.429922 0)scale(0.996264)"/>
    <use xlink:href="#CMR17-6e" transform="translate(375.30098 0)scale(0.996264)"/>
    <use xlink:href="#CMR17-67" transform="translate(426.19635 0)scale(0.996264)"/>
    <use xlink:href="#CMR17-6e" transform="translate(501.962793 0)scale(0.996264)"/>
    <use xlink:href="#CMR17-65" transform="translate(552.858163 0)scale(0.996264)"/>
    <use xlink:href="#CMR17-75" transform="translate(593.343824 0)scale(0.996264)"/>
    <use xlink:href="#CMR17-74" transform="translate(644.239193 0)scale(0.996264)"/>
    <use xlink:href="#CMR17-72" transform="translate(679.519961 0)scale(0.996264)"/>
    <use xlink:href="#CMR17-6f" transform="translate(714.800729 0)scale(0.996264)"/>
    <use xlink:href="#CMR17-6e" transform="translate(760.491206 0)scale(0.996264)"/>
    <use xlink:href="#CMR17-74" transform="translate(841.462542 0)scale(0.996264)"/>
    <use xlink:href="#CMR17-61" transform="translate(876.74331 0)scale(0.996264)"/>
    <use xlink:href="#CMR17-67" transform="translate(922.433787 0)scale(0.996264)"/>
    <use xlink:href="#CMR17-67" transform="translate(968.124264 0)scale(0.996264)"/>
    <use xlink:href="#CMR17-69" transform="translate(1013.814741 0)scale(0.996264)"/>
    <use xlink:href="#CMR17-6e" transform="translate(1038.6858 0)scale(0.996264)"/>
    <use xlink:href="#CMR17-67" transform="translate(1089.58117 0)scale(0.996264)"/>
    <use xlink:href="#CMR17-62" transform="translate(1165.347613 0)scale(0.996264)"/>
    <use xlink:href="#CMR17-79" transform="translate(1213.640529 0)scale(0.996264)"/>
    <use xlink:href="#CMR17-67" transform="translate(1292.009411 0)scale(0.996264)"/>
    <use xlink:href="#CMR17-61" transform="translate(1337.699888 0)scale(0.996264)"/>
    <use xlink:href="#CMR17-64" transform="translate(1383.390365 0)scale(0.996264)"/>
    <use xlink:href="#CMR17-6f" transform="translate(1434.285735 0)scale(0.996264)"/>
    <use xlink:href="#CMR17-6c" transform="translate(1479.976212 0)scale(0.996264)"/>
    <use xlink:href="#CMR17-69" transform="translate(1504.847271 0)scale(0.996264)"/>
    <use xlink:href="#CMR17-6e" transform="translate(1529.718329 0)scale(0.996264)"/>
    <use xlink:href="#CMR17-69" transform="translate(1580.613699 0)scale(0.996264)"/>
    <use xlink:href="#CMR17-75" transform="translate(1605.484757 0)scale(0.996264)"/>
    <use xlink:href="#CMR17-6d" transform="translate(1656.380127 0)scale(0.996264)"/>
    <use xlink:href="#CMR17-28" transform="translate(1763.375683 0)scale(0.996264)"/>
    <use xlink:href="#CMR17-47" transform="translate(1798.656451 0)scale(0.996264)"/>
    <use xlink:href="#CMR17-64" transform="translate(1871.011797 0)scale(0.996264)"/>
    <use xlink:href="#CMR17-29" transform="translate(1921.907167 0)scale(0.996264)"/>
    <use xlink:href="#CMR17-61" transform="translate(1987.263901 0)scale(0.996264)"/>
    <use xlink:href="#CMR17-64" transform="translate(2032.954378 0)scale(0.996264)"/>
    <use xlink:href="#CMR17-64" transform="translate(2083.849748 0)scale(0.996264)"/>
    <use xlink:href="#CMR17-69" transform="translate(2134.745118 0)scale(0.996264)"/>
    <use xlink:href="#CMR17-74" transform="translate(2159.616176 0)scale(0.996264)"/>
    <use xlink:href="#CMR17-69" transform="translate(2194.896944 0)scale(0.996264)"/>
    <use xlink:href="#CMR17-6f" transform="translate(2219.768003 0)scale(0.996264)"/>
    <use xlink:href="#CMR17-6e" transform="translate(2265.45848 0)scale(0.996264)"/>
   </g>
  </g>
 </g>
 <defs>
  <clipPath id="p266f96824c">
   <rect x="43.327984" y="44.63342" width="446.4" height="332.64"/>
  </clipPath>
 </defs>
</svg>
