<?xml version="1.0" encoding="utf-8" standalone="no"?>
<!DOCTYPE svg PUBLIC "-//W3C//DTD SVG 1.1//EN"
  "http://www.w3.org/Graphics/SVG/1.1/DTD/svg11.dtd">
<svg xmlns:xlink="http://www.w3.org/1999/xlink" width="502.475707pt" height="374.402162pt" viewBox="0 0 502.475707 374.402162" xmlns="http://www.w3.org/2000/svg" version="1.1">
 <metadata>
  <rdf:RDF xmlns:dc="http://purl.org/dc/elements/1.1/" xmlns:cc="http://creativecommons.org/ns#" xmlns:rdf="http://www.w3.org/1999/02/22-rdf-syntax-ns#">
   <cc:Work>
    <dc:type rdf:resource="http://purl.org/dc/dcmitype/StillImage"/>
    <dc:date>2023-05-03T09:26:26.746415</dc:date>
    <dc:format>image/svg+xml</dc:format>
    <dc:creator>
     <cc:Agent>
      <dc:title>Matplotlib v3.5.1, https://matplotlib.org/</dc:title>
     </cc:Agent>
    </dc:creator>
   </cc:Work>
  </rdf:RDF>
 </metadata>
 <defs>
  <style type="text/css">*{stroke-linejoin: round; stroke-linecap: butt}</style>
 </defs>
 <g id="figure_1">
  <g id="patch_1">
   <path d="M 0 374.402162 
L 502.475707 374.402162 
L 502.475707 -0 
L 0 -0 
z
" style="fill: #ffffff"/>
  </g>
  <g id="axes_1">
   <g id="patch_2">
    <path d="M 45.555547 330.299298 
L 491.955547 330.299298 
L 491.955547 53.099298 
L 45.555547 53.099298 
z
" style="fill: #ffffff"/>
   </g>
   <g id="matplotlib.axis_1">
    <g id="xtick_1">
     <g id="line2d_1">
      <defs>
       <path id="m9755b45fd6" d="M 0 0 
L 0 3.5 
" style="stroke: #000000; stroke-width: 0.8"/>
      </defs>
      <g>
       <use xlink:href="#m9755b45fd6" x="45.555547" y="330.299298" style="stroke: #000000; stroke-width: 0.8"/>
      </g>
     </g>
     <g id="text_1">
      <!-- 0 -->
      <g transform="translate(42.629051 345.601478)scale(0.12 -0.12)">
       <defs>
        <path id="CMR17-30" d="M 2688 2038 
C 2688 2430 2682 3099 2413 3613 
C 2176 4063 1798 4224 1466 4224 
C 1158 4224 768 4082 525 3620 
C 269 3137 243 2539 243 2038 
C 243 1671 250 1112 448 623 
C 723 -39 1216 -128 1466 -128 
C 1760 -128 2208 -7 2470 604 
C 2662 1048 2688 1568 2688 2038 
z
M 1466 -26 
C 1056 -26 813 328 723 816 
C 653 1196 653 1749 653 2109 
C 653 2604 653 3015 736 3407 
C 858 3954 1216 4121 1466 4121 
C 1728 4121 2067 3947 2189 3420 
C 2272 3054 2278 2623 2278 2109 
C 2278 1691 2278 1176 2202 797 
C 2067 96 1690 -26 1466 -26 
z
" transform="scale(0.015625)"/>
       </defs>
       <use xlink:href="#CMR17-30" transform="scale(0.996264)"/>
      </g>
     </g>
    </g>
    <g id="xtick_2">
     <g id="line2d_2">
      <g>
       <use xlink:href="#m9755b45fd6" x="157.155547" y="330.299298" style="stroke: #000000; stroke-width: 0.8"/>
      </g>
     </g>
     <g id="text_2">
      <!-- $\pi/4$ -->
      <g transform="translate(147.767922 346.265674)scale(0.12 -0.12)">
       <defs>
        <path id="CMMI12-19" d="M 1658 2406 
L 2381 2406 
C 2208 1691 2099 1225 2099 715 
C 2099 625 2099 -64 2362 -64 
C 2496 -64 2611 57 2611 166 
C 2611 198 2611 210 2566 306 
C 2394 746 2394 1295 2394 1340 
C 2394 1378 2394 1832 2528 2406 
L 3245 2406 
C 3328 2406 3539 2406 3539 2611 
C 3539 2752 3418 2752 3302 2752 
L 1197 2752 
C 1050 2752 832 2752 538 2438 
C 371 2253 166 1915 166 1876 
C 166 1838 198 1825 237 1825 
C 282 1825 288 1844 320 1883 
C 653 2406 986 2406 1146 2406 
L 1510 2406 
C 1370 1927 1210 1372 685 255 
C 634 153 634 140 634 102 
C 634 -32 749 -64 806 -64 
C 992 -64 1043 102 1120 370 
C 1222 695 1222 708 1286 964 
L 1658 2406 
z
" transform="scale(0.015625)"/>
        <path id="CMMI12-3d" d="M 2746 4563 
C 2746 4569 2784 4665 2784 4678 
C 2784 4755 2720 4800 2669 4800 
C 2637 4800 2579 4800 2528 4659 
L 384 -1364 
C 384 -1370 346 -1466 346 -1479 
C 346 -1556 410 -1600 461 -1600 
C 499 -1600 557 -1594 602 -1460 
L 2746 4563 
z
" transform="scale(0.015625)"/>
        <path id="CMR17-34" d="M 2150 4147 
C 2150 4281 2144 4288 2029 4288 
L 128 1254 
L 128 1088 
L 1779 1088 
L 1779 460 
C 1779 230 1766 166 1318 166 
L 1197 166 
L 1197 0 
C 1402 12 1747 12 1965 12 
C 2182 12 2528 12 2733 0 
L 2733 166 
L 2611 166 
C 2163 166 2150 230 2150 460 
L 2150 1088 
L 2803 1088 
L 2803 1254 
L 2150 1254 
L 2150 4147 
z
M 1798 3723 
L 1798 1254 
L 256 1254 
L 1798 3723 
z
" transform="scale(0.015625)"/>
       </defs>
       <use xlink:href="#CMMI12-19" transform="scale(0.996264)"/>
       <use xlink:href="#CMMI12-3d" transform="translate(58.910601 0)scale(0.996264)"/>
       <use xlink:href="#CMR17-34" transform="translate(107.68552 0)scale(0.996264)"/>
      </g>
     </g>
    </g>
    <g id="xtick_3">
     <g id="line2d_3">
      <g>
       <use xlink:href="#m9755b45fd6" x="268.755547" y="330.299298" style="stroke: #000000; stroke-width: 0.8"/>
      </g>
     </g>
     <g id="text_3">
      <!-- $\pi/2$ -->
      <g transform="translate(259.367922 346.265674)scale(0.12 -0.12)">
       <defs>
        <path id="CMR17-32" d="M 2669 990 
L 2554 990 
C 2490 537 2438 460 2413 422 
C 2381 371 1920 371 1830 371 
L 602 371 
C 832 620 1280 1073 1824 1596 
C 2214 1966 2669 2400 2669 3033 
C 2669 3788 2067 4224 1395 4224 
C 691 4224 262 3603 262 3027 
C 262 2777 448 2745 525 2745 
C 589 2745 781 2783 781 3007 
C 781 3206 614 3264 525 3264 
C 486 3264 448 3257 422 3244 
C 544 3788 915 4057 1306 4057 
C 1862 4057 2227 3616 2227 3033 
C 2227 2477 1901 1998 1536 1583 
L 262 147 
L 262 0 
L 2515 0 
L 2669 990 
z
" transform="scale(0.015625)"/>
       </defs>
       <use xlink:href="#CMMI12-19" transform="scale(0.996264)"/>
       <use xlink:href="#CMMI12-3d" transform="translate(58.910601 0)scale(0.996264)"/>
       <use xlink:href="#CMR17-32" transform="translate(107.68552 0)scale(0.996264)"/>
      </g>
     </g>
    </g>
    <g id="xtick_4">
     <g id="line2d_4">
      <g>
       <use xlink:href="#m9755b45fd6" x="380.355547" y="330.299298" style="stroke: #000000; stroke-width: 0.8"/>
      </g>
     </g>
     <g id="text_4">
      <!-- $3 \pi/4$ -->
      <g transform="translate(368.041426 346.265674)scale(0.12 -0.12)">
       <defs>
        <path id="CMR17-33" d="M 1414 2176 
C 1984 2176 2234 1673 2234 1094 
C 2234 322 1824 25 1453 25 
C 1114 25 563 193 390 691 
C 422 678 454 678 486 678 
C 640 678 755 780 755 947 
C 755 1132 614 1216 486 1216 
C 378 1216 211 1164 211 927 
C 211 335 787 -128 1466 -128 
C 2176 -128 2720 432 2720 1087 
C 2720 1718 2208 2176 1600 2246 
C 2086 2347 2554 2776 2554 3353 
C 2554 3856 2048 4224 1472 4224 
C 890 4224 378 3862 378 3347 
C 378 3123 544 3084 627 3084 
C 762 3084 877 3167 877 3334 
C 877 3500 762 3584 627 3584 
C 602 3584 570 3584 544 3571 
C 730 3999 1235 4076 1459 4076 
C 1683 4076 2106 3966 2106 3347 
C 2106 3167 2080 2851 1862 2574 
C 1670 2329 1453 2316 1242 2297 
C 1210 2297 1062 2284 1037 2284 
C 992 2278 966 2272 966 2227 
C 966 2182 973 2176 1101 2176 
L 1414 2176 
z
" transform="scale(0.015625)"/>
       </defs>
       <use xlink:href="#CMR17-33" transform="scale(0.996264)"/>
       <use xlink:href="#CMMI12-19" transform="translate(45.690477 0)scale(0.996264)"/>
       <use xlink:href="#CMMI12-3d" transform="translate(104.601078 0)scale(0.996264)"/>
       <use xlink:href="#CMR17-34" transform="translate(153.375997 0)scale(0.996264)"/>
      </g>
     </g>
    </g>
    <g id="xtick_5">
     <g id="line2d_5">
      <g>
       <use xlink:href="#m9755b45fd6" x="491.955547" y="330.299298" style="stroke: #000000; stroke-width: 0.8"/>
      </g>
     </g>
     <g id="text_5">
      <!-- $\pi$ -->
      <g transform="translate(488.635386 345.601478)scale(0.12 -0.12)">
       <use xlink:href="#CMMI12-19" transform="scale(0.996264)"/>
      </g>
     </g>
    </g>
    <g id="text_6">
     <!-- Supernova azimuthal angle ($\phi$) [rad] -->
     <g transform="translate(160.769389 363.715238)scale(0.14 -0.14)">
      <defs>
       <path id="CMR17-53" d="M 2803 4351 
C 2803 4467 2797 4473 2758 4473 
C 2720 4473 2707 4447 2682 4390 
L 2490 3965 
C 2246 4320 1875 4480 1472 4480 
C 819 4480 294 3958 294 3301 
C 294 3101 339 2817 557 2546 
C 794 2250 1018 2198 1530 2063 
C 1722 2011 2042 1927 2106 1901 
C 2470 1747 2662 1360 2662 999 
C 2662 534 2336 38 1779 38 
C 1094 38 454 425 410 1328 
C 403 1431 397 1437 352 1437 
C 301 1437 294 1431 294 1302 
L 294 0 
C 294 -116 301 -122 339 -122 
C 384 -122 397 -90 486 109 
C 493 128 493 141 614 386 
C 934 -39 1472 -128 1779 -128 
C 2477 -128 2970 457 2970 1141 
C 2970 1476 2848 1734 2778 1850 
C 2509 2263 2221 2340 1914 2417 
C 1869 2437 1856 2437 1498 2527 
C 1152 2617 1005 2662 845 2836 
C 666 3036 602 3243 602 3449 
C 602 3868 934 4326 1478 4326 
C 2157 4326 2579 3842 2675 3036 
C 2694 2920 2701 2914 2746 2914 
C 2803 2914 2803 2933 2803 3043 
L 2803 4351 
z
" transform="scale(0.015625)"/>
       <path id="CMR17-75" d="M 1882 2745 
L 1882 2579 
C 2259 2579 2317 2540 2317 2229 
L 2317 1053 
C 2317 510 2029 38 1555 38 
C 1030 38 986 355 986 691 
L 986 2816 
L 211 2745 
L 211 2579 
C 467 2579 640 2579 646 2320 
L 646 1079 
C 646 646 646 368 813 187 
C 896 103 1056 -64 1517 -64 
C 2061 -64 2272 400 2323 536 
L 2330 536 
L 2330 -64 
L 3091 -13 
L 3091 154 
C 2714 154 2656 193 2656 503 
L 2656 2816 
L 1882 2745 
z
" transform="scale(0.015625)"/>
       <path id="CMR17-70" d="M 1408 -1114 
C 998 -1114 973 -1088 973 -834 
L 973 380 
C 1158 109 1427 -64 1766 -64 
C 2406 -64 3053 503 3053 1382 
C 3053 2196 2496 2816 1837 2816 
C 1453 2816 1139 2603 960 2345 
L 960 2816 
L 198 2745 
L 198 2577 
C 576 2577 634 2539 634 2228 
L 634 -834 
C 634 -1081 608 -1114 198 -1114 
L 198 -1280 
C 352 -1268 634 -1268 800 -1268 
C 966 -1268 1254 -1268 1408 -1280 
L 1408 -1114 
z
M 973 2015 
C 973 2106 973 2241 1222 2481 
C 1254 2506 1472 2700 1792 2700 
C 2259 2700 2643 2112 2643 1376 
C 2643 639 2234 38 1728 38 
C 1498 38 1248 148 1056 451 
C 973 594 973 632 973 736 
L 973 2015 
z
" transform="scale(0.015625)"/>
       <path id="CMR17-65" d="M 2438 1503 
C 2464 1529 2464 1542 2464 1606 
C 2464 2251 2118 2816 1389 2816 
C 710 2816 173 2175 173 1394 
C 173 554 781 -64 1459 -64 
C 2176 -64 2458 619 2458 755 
C 2458 800 2419 800 2406 800 
C 2362 800 2355 787 2330 709 
C 2189 270 1837 51 1504 51 
C 1229 51 954 206 781 490 
C 582 819 582 1200 582 1503 
L 2438 1503 
z
M 589 1600 
C 634 2511 1126 2713 1382 2713 
C 1818 2713 2112 2308 2118 1600 
L 589 1600 
z
" transform="scale(0.015625)"/>
       <path id="CMR17-72" d="M 960 1517 
C 960 2134 1222 2713 1702 2713 
C 1747 2713 1792 2707 1837 2687 
C 1837 2687 1696 2642 1696 2475 
C 1696 2321 1818 2257 1914 2257 
C 1990 2257 2131 2302 2131 2482 
C 2131 2687 1926 2816 1709 2816 
C 1222 2816 1011 2340 947 2115 
L 941 2115 
L 941 2816 
L 198 2745 
L 198 2578 
C 576 2578 634 2540 634 2231 
L 634 443 
C 634 198 608 166 198 166 
L 198 0 
C 352 12 646 12 813 12 
C 998 12 1325 12 1498 0 
L 1498 166 
C 1037 166 960 166 960 455 
L 960 1517 
z
" transform="scale(0.015625)"/>
       <path id="CMR17-6e" d="M 2656 1954 
C 2656 2282 2592 2816 1837 2816 
C 1331 2816 1069 2424 973 2166 
L 966 2166 
L 966 2816 
L 211 2745 
L 211 2578 
C 589 2578 646 2540 646 2231 
L 646 443 
C 646 198 621 166 211 166 
L 211 0 
C 365 12 646 12 813 12 
C 979 12 1267 12 1421 0 
L 1421 166 
C 1011 166 986 192 986 443 
L 986 1678 
C 986 2269 1344 2713 1792 2713 
C 2266 2713 2317 2289 2317 1980 
L 2317 443 
C 2317 198 2291 166 1882 166 
L 1882 0 
C 2035 12 2317 12 2483 12 
C 2650 12 2938 12 3091 0 
L 3091 166 
C 2682 166 2656 192 2656 443 
L 2656 1954 
z
" transform="scale(0.015625)"/>
       <path id="CMR17-6f" d="M 2758 1356 
C 2758 2176 2163 2816 1466 2816 
C 768 2816 173 2176 173 1356 
C 173 550 768 -64 1466 -64 
C 2163 -64 2758 550 2758 1356 
z
M 1466 51 
C 1165 51 909 230 762 480 
C 602 768 582 1126 582 1408 
C 582 1676 595 2009 762 2297 
C 890 2508 1139 2713 1466 2713 
C 1754 2713 1997 2553 2150 2329 
C 2349 2028 2349 1606 2349 1408 
C 2349 1158 2336 774 2163 467 
C 1984 172 1709 51 1466 51 
z
" transform="scale(0.015625)"/>
       <path id="CMR17-76" d="M 2502 2173 
C 2560 2315 2662 2572 3034 2585 
L 3034 2752 
C 2912 2745 2752 2739 2630 2739 
C 2496 2739 2285 2739 2157 2752 
L 2157 2585 
C 2317 2572 2406 2495 2406 2328 
C 2406 2270 2406 2257 2368 2167 
L 1664 379 
L 902 2308 
C 864 2392 864 2405 864 2431 
C 864 2585 1075 2585 1171 2585 
L 1171 2752 
C 1018 2739 736 2739 576 2739 
C 403 2739 205 2739 64 2752 
L 64 2585 
C 307 2585 442 2585 518 2386 
L 1446 44 
C 1485 -52 1491 -64 1549 -64 
C 1606 -64 1613 -52 1651 44 
L 2502 2173 
z
" transform="scale(0.015625)"/>
       <path id="CMR17-61" d="M 2304 1656 
C 2304 2048 2304 2275 2035 2534 
C 1798 2751 1523 2816 1306 2816 
C 800 2816 435 2408 435 1977 
C 435 1740 627 1728 666 1728 
C 749 1728 896 1779 896 1958 
C 896 2118 774 2188 666 2188 
C 640 2188 608 2182 589 2176 
C 723 2594 1069 2713 1293 2713 
C 1613 2713 1965 2421 1965 1875 
L 1965 1632 
C 1587 1619 1133 1568 774 1373 
C 371 1147 256 822 256 576 
C 256 77 832 -64 1171 -64 
C 1523 -64 1850 135 1990 505 
C 2003 219 2182 -39 2464 -39 
C 2598 -39 2938 51 2938 563 
L 2938 926 
L 2822 926 
L 2822 557 
C 2822 161 2650 109 2566 109 
C 2304 109 2304 446 2304 732 
L 2304 1656 
z
M 1965 887 
C 1965 323 1568 38 1216 38 
C 896 38 646 278 646 576 
C 646 771 730 1114 1101 1322 
C 1408 1497 1760 1523 1965 1536 
L 1965 887 
z
" transform="scale(0.015625)"/>
       <path id="CMR17-7a" d="M 2310 2604 
C 2362 2668 2362 2681 2362 2694 
C 2362 2752 2336 2752 2221 2752 
L 275 2752 
L 211 1760 
L 326 1760 
C 371 2380 442 2649 1178 2649 
L 1958 2649 
L 128 96 
C 128 6 134 0 269 0 
L 2291 0 
L 2381 1152 
L 2266 1152 
C 2214 441 2131 115 1350 115 
L 531 115 
L 2310 2604 
z
" transform="scale(0.015625)"/>
       <path id="CMR17-69" d="M 992 3961 
C 992 4102 877 4224 730 4224 
C 589 4224 467 4108 467 3961 
C 467 3820 582 3699 730 3699 
C 870 3699 992 3814 992 3961 
z
M 243 2745 
L 243 2579 
C 602 2579 653 2540 653 2231 
L 653 443 
C 653 198 627 166 218 166 
L 218 0 
C 371 12 646 12 806 12 
C 960 12 1222 12 1370 0 
L 1370 166 
C 992 166 979 205 979 436 
L 979 2816 
L 243 2745 
z
" transform="scale(0.015625)"/>
       <path id="CMR17-6d" d="M 4326 1954 
C 4326 2276 4269 2816 3507 2816 
C 3072 2816 2771 2520 2656 2173 
L 2650 2173 
C 2573 2700 2195 2816 1837 2816 
C 1331 2816 1069 2424 973 2166 
L 966 2166 
L 966 2816 
L 211 2745 
L 211 2578 
C 589 2578 646 2540 646 2231 
L 646 443 
C 646 198 621 166 211 166 
L 211 0 
C 365 12 646 12 813 12 
C 979 12 1267 12 1421 0 
L 1421 166 
C 1011 166 986 192 986 443 
L 986 1678 
C 986 2269 1344 2713 1792 2713 
C 2266 2713 2317 2289 2317 1980 
L 2317 443 
C 2317 198 2291 166 1882 166 
L 1882 0 
C 2035 12 2317 12 2483 12 
C 2650 12 2938 12 3091 0 
L 3091 166 
C 2682 166 2656 192 2656 443 
L 2656 1678 
C 2656 2269 3014 2713 3462 2713 
C 3936 2713 3987 2289 3987 1980 
L 3987 443 
C 3987 198 3962 166 3552 166 
L 3552 0 
C 3706 12 3987 12 4154 12 
C 4320 12 4608 12 4762 0 
L 4762 166 
C 4352 166 4326 192 4326 443 
L 4326 1954 
z
" transform="scale(0.015625)"/>
       <path id="CMR17-74" d="M 966 2585 
L 1862 2585 
L 1862 2752 
L 966 2752 
L 966 3968 
L 851 3968 
C 838 3292 614 2700 70 2687 
L 70 2585 
L 627 2585 
L 627 778 
C 627 655 627 -64 1370 -64 
C 1747 -64 1965 308 1965 784 
L 1965 1151 
L 1850 1151 
L 1850 790 
C 1850 347 1677 51 1408 51 
C 1222 51 966 179 966 765 
L 966 2585 
z
" transform="scale(0.015625)"/>
       <path id="CMR17-68" d="M 2656 1954 
C 2656 2282 2592 2816 1837 2816 
C 1312 2816 1056 2392 979 2179 
L 973 2179 
L 973 4416 
L 211 4345 
L 211 4179 
C 589 4179 646 4141 646 3843 
L 646 443 
C 646 198 621 166 211 166 
L 211 0 
C 365 12 646 12 813 12 
C 979 12 1267 12 1421 0 
L 1421 166 
C 1011 166 986 192 986 443 
L 986 1678 
C 986 2269 1344 2713 1792 2713 
C 2266 2713 2317 2289 2317 1980 
L 2317 443 
C 2317 198 2291 166 1882 166 
L 1882 0 
C 2035 12 2317 12 2483 12 
C 2650 12 2938 12 3091 0 
L 3091 166 
C 2682 166 2656 192 2656 443 
L 2656 1954 
z
" transform="scale(0.015625)"/>
       <path id="CMR17-6c" d="M 979 4416 
L 218 4345 
L 218 4179 
C 595 4179 653 4141 653 3835 
L 653 439 
C 653 198 627 166 218 166 
L 218 0 
C 371 12 653 12 813 12 
C 979 12 1261 12 1414 0 
L 1414 166 
C 1005 166 979 191 979 439 
L 979 4416 
z
" transform="scale(0.015625)"/>
       <path id="CMR17-67" d="M 710 1165 
C 832 1068 1043 960 1299 960 
C 1805 960 2240 1359 2240 1895 
C 2240 2063 2189 2321 1997 2521 
C 2176 2713 2438 2777 2586 2777 
C 2611 2777 2650 2777 2682 2758 
C 2656 2751 2598 2726 2598 2623 
C 2598 2540 2656 2483 2739 2483 
C 2835 2483 2886 2547 2886 2630 
C 2886 2751 2790 2880 2586 2880 
C 2330 2880 2106 2758 1926 2591 
C 1734 2764 1504 2828 1299 2828 
C 794 2828 358 2431 358 1895 
C 358 1527 570 1294 634 1230 
C 442 1004 442 742 442 710 
C 442 544 506 300 723 166 
C 390 82 128 -184 128 -517 
C 128 -996 736 -1344 1466 -1344 
C 2170 -1344 2803 -1009 2803 -510 
C 2803 384 1856 384 1363 384 
C 1216 384 954 384 922 390 
C 723 422 589 601 589 825 
C 589 883 589 1024 710 1165 
z
M 1299 1068 
C 736 1068 736 1766 736 1895 
C 736 2024 736 2719 1299 2719 
C 1862 2719 1862 2024 1862 1895 
C 1862 1766 1862 1068 1299 1068 
z
M 1466 -1236 
C 826 -1236 384 -883 384 -517 
C 384 -311 493 -118 634 -11 
C 794 102 858 102 1293 102 
C 1818 102 2547 102 2547 -517 
C 2547 -883 2106 -1236 1466 -1236 
z
" transform="scale(0.015625)"/>
       <path id="CMR17-28" d="M 1958 -1562 
C 1958 -1556 1958 -1543 1939 -1524 
C 1645 -1223 858 -403 858 1596 
C 858 3595 1632 4408 1946 4729 
C 1946 4735 1958 4748 1958 4767 
C 1958 4787 1939 4800 1914 4800 
C 1843 4800 1299 4325 986 3620 
C 666 2909 576 2218 576 1603 
C 576 1141 621 360 1005 -467 
C 1312 -1133 1837 -1600 1914 -1600 
C 1946 -1600 1958 -1588 1958 -1562 
z
" transform="scale(0.015625)"/>
       <path id="CMMI12-1e" d="M 2752 4358 
C 2752 4416 2707 4416 2688 4416 
C 2630 4416 2624 4403 2598 4294 
L 2253 2924 
C 2234 2841 2227 2835 2221 2828 
C 2214 2816 2170 2809 2157 2809 
C 1107 2720 301 1863 301 1071 
C 301 387 832 -32 1498 -71 
C 1446 -266 1402 -467 1350 -662 
C 1261 -995 1210 -1204 1210 -1229 
C 1210 -1242 1210 -1280 1274 -1280 
C 1293 -1280 1318 -1280 1331 -1255 
C 1344 -1242 1382 -1089 1408 -1008 
L 1645 -71 
C 2739 -13 3571 875 3571 1673 
C 3571 2313 3085 2771 2374 2816 
L 2752 4358 
z
M 2336 2688 
C 2758 2662 3181 2428 3181 1806 
C 3181 1090 2675 140 1677 64 
L 2336 2688 
z
M 1530 57 
C 1216 76 691 241 691 938 
C 691 1737 1274 2624 2195 2681 
L 1530 57 
z
" transform="scale(0.015625)"/>
       <path id="CMR17-29" d="M 1683 1596 
C 1683 2057 1638 2839 1254 3665 
C 947 4332 422 4800 346 4800 
C 326 4800 301 4793 301 4761 
C 301 4748 307 4742 314 4729 
C 621 4408 1402 3595 1402 1603 
C 1402 -396 627 -1210 314 -1530 
C 307 -1543 301 -1549 301 -1562 
C 301 -1594 326 -1600 346 -1600 
C 416 -1600 960 -1127 1274 -422 
C 1594 289 1683 981 1683 1596 
z
" transform="scale(0.015625)"/>
       <path id="CMR17-5b" d="M 1504 -1600 
L 1504 -1376 
L 902 -1376 
L 902 4575 
L 1504 4575 
L 1504 4800 
L 678 4800 
L 678 -1600 
L 1504 -1600 
z
" transform="scale(0.015625)"/>
       <path id="CMR17-64" d="M 1869 4345 
L 1869 4179 
C 2246 4179 2304 4141 2304 3843 
L 2304 2371 
C 2278 2403 2016 2816 1498 2816 
C 845 2816 211 2228 211 1376 
C 211 529 806 -64 1434 -64 
C 1978 -64 2259 361 2291 406 
L 2291 -64 
L 3066 -13 
L 3066 154 
C 2688 154 2630 193 2630 503 
L 2630 4416 
L 1869 4345 
z
M 2291 762 
C 2291 568 2176 393 2029 264 
C 1811 70 1594 38 1472 38 
C 1286 38 621 135 621 1369 
C 621 2636 1363 2713 1530 2713 
C 1824 2713 2061 2545 2208 2313 
C 2291 2177 2291 2157 2291 2041 
L 2291 762 
z
" transform="scale(0.015625)"/>
       <path id="CMR17-5d" d="M 915 4800 
L 90 4800 
L 90 4575 
L 691 4575 
L 691 -1376 
L 90 -1376 
L 90 -1600 
L 915 -1600 
L 915 4800 
z
" transform="scale(0.015625)"/>
      </defs>
      <use xlink:href="#CMR17-53" transform="scale(0.996264)"/>
      <use xlink:href="#CMR17-75" transform="translate(50.89537 0)scale(0.996264)"/>
      <use xlink:href="#CMR17-70" transform="translate(101.79074 0)scale(0.996264)"/>
      <use xlink:href="#CMR17-65" transform="translate(155.288548 0)scale(0.996264)"/>
      <use xlink:href="#CMR17-72" transform="translate(195.774209 0)scale(0.996264)"/>
      <use xlink:href="#CMR17-6e" transform="translate(231.054976 0)scale(0.996264)"/>
      <use xlink:href="#CMR17-6f" transform="translate(281.950346 0)scale(0.996264)"/>
      <use xlink:href="#CMR17-76" transform="translate(325.038369 0)scale(0.996264)"/>
      <use xlink:href="#CMR17-61" transform="translate(368.126468 0)scale(0.996264)"/>
      <use xlink:href="#CMR17-61" transform="translate(443.892912 0)scale(0.996264)"/>
      <use xlink:href="#CMR17-7a" transform="translate(489.583389 0)scale(0.996264)"/>
      <use xlink:href="#CMR17-69" transform="translate(530.06905 0)scale(0.996264)"/>
      <use xlink:href="#CMR17-6d" transform="translate(554.940108 0)scale(0.996264)"/>
      <use xlink:href="#CMR17-75" transform="translate(629.257244 0)scale(0.996264)"/>
      <use xlink:href="#CMR17-74" transform="translate(680.152614 0)scale(0.996264)"/>
      <use xlink:href="#CMR17-68" transform="translate(715.433382 0)scale(0.996264)"/>
      <use xlink:href="#CMR17-61" transform="translate(766.328751 0)scale(0.996264)"/>
      <use xlink:href="#CMR17-6c" transform="translate(812.019228 0)scale(0.996264)"/>
      <use xlink:href="#CMR17-61" transform="translate(866.966253 0)scale(0.996264)"/>
      <use xlink:href="#CMR17-6e" transform="translate(912.65673 0)scale(0.996264)"/>
      <use xlink:href="#CMR17-67" transform="translate(963.5521 0)scale(0.996264)"/>
      <use xlink:href="#CMR17-6c" transform="translate(1009.242577 0)scale(0.996264)"/>
      <use xlink:href="#CMR17-65" transform="translate(1034.113636 0)scale(0.996264)"/>
      <use xlink:href="#CMR17-28" transform="translate(1104.675263 0)scale(0.996264)"/>
      <use xlink:href="#CMMI12-1e" transform="translate(1139.95603 0)scale(0.996264)"/>
      <use xlink:href="#CMR17-29" transform="translate(1197.690211 0)scale(0.996264)"/>
      <use xlink:href="#CMR17-5b" transform="translate(1263.046945 0)scale(0.996264)"/>
      <use xlink:href="#CMR17-72" transform="translate(1287.918003 0)scale(0.996264)"/>
      <use xlink:href="#CMR17-61" transform="translate(1323.198771 0)scale(0.996264)"/>
      <use xlink:href="#CMR17-64" transform="translate(1368.889248 0)scale(0.996264)"/>
      <use xlink:href="#CMR17-5d" transform="translate(1419.784618 0)scale(0.996264)"/>
     </g>
    </g>
   </g>
   <g id="matplotlib.axis_2">
    <g id="ytick_1">
     <g id="line2d_6">
      <defs>
       <path id="mabec57061d" d="M 0 0 
L -3.5 0 
" style="stroke: #000000; stroke-width: 0.8"/>
      </defs>
      <g>
       <use xlink:href="#mabec57061d" x="45.555547" y="330.299298" style="stroke: #000000; stroke-width: 0.8"/>
      </g>
     </g>
     <g id="text_7">
      <!-- $\mathdefault{0.0}$ -->
      <g transform="translate(23.597905 334.450388)scale(0.12 -0.12)">
       <defs>
        <path id="CMMI12-3a" d="M 1178 307 
C 1178 492 1024 620 870 620 
C 685 620 557 467 557 313 
C 557 128 710 0 864 0 
C 1050 0 1178 153 1178 307 
z
" transform="scale(0.015625)"/>
       </defs>
       <use xlink:href="#CMR17-30" transform="scale(0.996264)"/>
       <use xlink:href="#CMMI12-3a" transform="translate(45.690477 0)scale(0.996264)"/>
       <use xlink:href="#CMR17-30" transform="translate(72.787654 0)scale(0.996264)"/>
      </g>
     </g>
    </g>
    <g id="ytick_2">
     <g id="line2d_7">
      <g>
       <use xlink:href="#mabec57061d" x="45.555547" y="290.699298" style="stroke: #000000; stroke-width: 0.8"/>
      </g>
     </g>
     <g id="text_8">
      <!-- $\mathdefault{0.1}$ -->
      <g transform="translate(23.597905 294.850388)scale(0.12 -0.12)">
       <defs>
        <path id="CMR17-31" d="M 1702 4083 
C 1702 4217 1696 4224 1606 4224 
C 1357 3927 979 3833 621 3820 
C 602 3820 570 3820 563 3808 
C 557 3795 557 3782 557 3648 
C 755 3648 1088 3686 1344 3839 
L 1344 467 
C 1344 243 1331 166 781 166 
L 589 166 
L 589 0 
C 896 6 1216 12 1523 12 
C 1830 12 2150 6 2458 0 
L 2458 166 
L 2266 166 
C 1715 166 1702 236 1702 467 
L 1702 4083 
z
" transform="scale(0.015625)"/>
       </defs>
       <use xlink:href="#CMR17-30" transform="scale(0.996264)"/>
       <use xlink:href="#CMMI12-3a" transform="translate(45.690477 0)scale(0.996264)"/>
       <use xlink:href="#CMR17-31" transform="translate(72.787654 0)scale(0.996264)"/>
      </g>
     </g>
    </g>
    <g id="ytick_3">
     <g id="line2d_8">
      <g>
       <use xlink:href="#mabec57061d" x="45.555547" y="251.099298" style="stroke: #000000; stroke-width: 0.8"/>
      </g>
     </g>
     <g id="text_9">
      <!-- $\mathdefault{0.2}$ -->
      <g transform="translate(23.597905 255.250388)scale(0.12 -0.12)">
       <use xlink:href="#CMR17-30" transform="scale(0.996264)"/>
       <use xlink:href="#CMMI12-3a" transform="translate(45.690477 0)scale(0.996264)"/>
       <use xlink:href="#CMR17-32" transform="translate(72.787654 0)scale(0.996264)"/>
      </g>
     </g>
    </g>
    <g id="ytick_4">
     <g id="line2d_9">
      <g>
       <use xlink:href="#mabec57061d" x="45.555547" y="211.499298" style="stroke: #000000; stroke-width: 0.8"/>
      </g>
     </g>
     <g id="text_10">
      <!-- $\mathdefault{0.3}$ -->
      <g transform="translate(23.597905 215.650388)scale(0.12 -0.12)">
       <use xlink:href="#CMR17-30" transform="scale(0.996264)"/>
       <use xlink:href="#CMMI12-3a" transform="translate(45.690477 0)scale(0.996264)"/>
       <use xlink:href="#CMR17-33" transform="translate(72.787654 0)scale(0.996264)"/>
      </g>
     </g>
    </g>
    <g id="ytick_5">
     <g id="line2d_10">
      <g>
       <use xlink:href="#mabec57061d" x="45.555547" y="171.899298" style="stroke: #000000; stroke-width: 0.8"/>
      </g>
     </g>
     <g id="text_11">
      <!-- $\mathdefault{0.4}$ -->
      <g transform="translate(23.597905 176.050388)scale(0.12 -0.12)">
       <use xlink:href="#CMR17-30" transform="scale(0.996264)"/>
       <use xlink:href="#CMMI12-3a" transform="translate(45.690477 0)scale(0.996264)"/>
       <use xlink:href="#CMR17-34" transform="translate(72.787654 0)scale(0.996264)"/>
      </g>
     </g>
    </g>
    <g id="ytick_6">
     <g id="line2d_11">
      <g>
       <use xlink:href="#mabec57061d" x="45.555547" y="132.299298" style="stroke: #000000; stroke-width: 0.8"/>
      </g>
     </g>
     <g id="text_12">
      <!-- $\mathdefault{0.5}$ -->
      <g transform="translate(23.597905 136.450388)scale(0.12 -0.12)">
       <defs>
        <path id="CMR17-35" d="M 730 3750 
C 794 3724 1056 3641 1325 3641 
C 1920 3641 2246 3961 2432 4140 
C 2432 4191 2432 4224 2394 4224 
C 2387 4224 2374 4224 2323 4198 
C 2099 4102 1837 4032 1517 4032 
C 1325 4032 1037 4055 723 4191 
C 653 4224 640 4224 634 4224 
C 602 4224 595 4217 595 4090 
L 595 2231 
C 595 2113 595 2080 659 2080 
C 691 2080 704 2093 736 2139 
C 941 2435 1222 2560 1542 2560 
C 1766 2560 2246 2415 2246 1293 
C 2246 1087 2246 716 2054 422 
C 1894 159 1645 25 1370 25 
C 947 25 518 319 403 812 
C 429 806 480 793 506 793 
C 589 793 749 838 749 1036 
C 749 1209 627 1280 506 1280 
C 358 1280 262 1190 262 1011 
C 262 454 704 -128 1382 -128 
C 2042 -128 2669 441 2669 1267 
C 2669 2054 2170 2662 1549 2662 
C 1222 2662 947 2540 730 2304 
L 730 3750 
z
" transform="scale(0.015625)"/>
       </defs>
       <use xlink:href="#CMR17-30" transform="scale(0.996264)"/>
       <use xlink:href="#CMMI12-3a" transform="translate(45.690477 0)scale(0.996264)"/>
       <use xlink:href="#CMR17-35" transform="translate(72.787654 0)scale(0.996264)"/>
      </g>
     </g>
    </g>
    <g id="ytick_7">
     <g id="line2d_12">
      <g>
       <use xlink:href="#mabec57061d" x="45.555547" y="92.699298" style="stroke: #000000; stroke-width: 0.8"/>
      </g>
     </g>
     <g id="text_13">
      <!-- $\mathdefault{0.6}$ -->
      <g transform="translate(23.597905 96.850388)scale(0.12 -0.12)">
       <defs>
        <path id="CMR17-36" d="M 678 2198 
C 678 3712 1395 4076 1811 4076 
C 1946 4076 2272 4049 2400 3782 
C 2298 3782 2106 3782 2106 3558 
C 2106 3385 2246 3328 2336 3328 
C 2394 3328 2566 3353 2566 3571 
C 2566 3987 2246 4224 1805 4224 
C 1043 4224 243 3411 243 2011 
C 243 257 966 -128 1478 -128 
C 2099 -128 2688 431 2688 1295 
C 2688 2101 2170 2688 1517 2688 
C 1126 2688 838 2430 678 1979 
L 678 2198 
z
M 1478 25 
C 691 25 691 1212 691 1450 
C 691 1914 909 2585 1504 2585 
C 1613 2585 1926 2585 2138 2140 
C 2253 1889 2253 1624 2253 1302 
C 2253 954 2253 696 2118 438 
C 1978 173 1773 25 1478 25 
z
" transform="scale(0.015625)"/>
       </defs>
       <use xlink:href="#CMR17-30" transform="scale(0.996264)"/>
       <use xlink:href="#CMMI12-3a" transform="translate(45.690477 0)scale(0.996264)"/>
       <use xlink:href="#CMR17-36" transform="translate(72.787654 0)scale(0.996264)"/>
      </g>
     </g>
    </g>
    <g id="ytick_8">
     <g id="line2d_13">
      <g>
       <use xlink:href="#mabec57061d" x="45.555547" y="53.099298" style="stroke: #000000; stroke-width: 0.8"/>
      </g>
     </g>
     <g id="text_14">
      <!-- $\mathdefault{0.7}$ -->
      <g transform="translate(23.597905 57.250388)scale(0.12 -0.12)">
       <defs>
        <path id="CMR17-37" d="M 2886 3955 
L 2886 4096 
L 1382 4096 
C 634 4096 621 4166 595 4288 
L 480 4288 
L 294 3104 
L 410 3104 
C 429 3226 474 3552 550 3673 
C 589 3724 1062 3724 1171 3724 
L 2579 3724 
L 1869 2670 
C 1395 1961 1069 1003 1069 166 
C 1069 89 1069 -128 1299 -128 
C 1530 -128 1530 89 1530 172 
L 1530 466 
C 1530 1514 1709 2204 2003 2644 
L 2886 3955 
z
" transform="scale(0.015625)"/>
       </defs>
       <use xlink:href="#CMR17-30" transform="scale(0.996264)"/>
       <use xlink:href="#CMMI12-3a" transform="translate(45.690477 0)scale(0.996264)"/>
       <use xlink:href="#CMR17-37" transform="translate(72.787654 0)scale(0.996264)"/>
      </g>
     </g>
    </g>
    <g id="text_15">
     <!-- Probability density -->
     <g transform="translate(16.885876 248.734941)rotate(-90)scale(0.14 -0.14)">
      <defs>
       <path id="CMR17-50" d="M 1267 2048 
L 2291 2048 
C 3117 2048 3718 2583 3718 3187 
C 3718 3791 3130 4352 2291 4352 
L 333 4352 
L 333 4185 
C 774 4185 845 4185 845 3899 
L 845 453 
C 845 166 774 166 333 166 
L 333 0 
C 518 12 858 12 1056 12 
C 1254 12 1594 12 1779 0 
L 1779 166 
C 1338 166 1267 166 1267 453 
L 1267 2048 
z
M 1254 2182 
L 1254 3937 
C 1254 4153 1267 4185 1523 4185 
L 2170 4185 
C 2995 4185 3232 3715 3232 3187 
C 3232 2608 2950 2182 2170 2182 
L 1254 2182 
z
" transform="scale(0.015625)"/>
       <path id="CMR17-62" d="M 960 4416 
L 198 4345 
L 198 4179 
C 576 4179 634 4141 634 3843 
L 634 -13 
L 749 -13 
L 934 445 
C 1120 141 1395 -64 1766 -64 
C 2406 -64 3053 503 3053 1382 
C 3053 2209 2477 2816 1830 2816 
C 1434 2816 1152 2603 960 2351 
L 960 4416 
z
M 973 2022 
C 973 2138 973 2157 1062 2293 
C 1312 2681 1670 2713 1792 2713 
C 1984 2713 2643 2610 2643 1388 
C 2643 109 1888 38 1734 38 
C 1536 38 1248 115 1043 490 
C 973 613 973 626 973 742 
L 973 2022 
z
" transform="scale(0.015625)"/>
       <path id="CMR17-79" d="M 2496 2183 
C 2656 2579 2944 2585 3034 2585 
L 3034 2752 
C 2912 2745 2752 2739 2630 2739 
C 2496 2739 2285 2739 2157 2752 
L 2157 2585 
C 2400 2566 2406 2384 2406 2332 
C 2406 2268 2394 2235 2362 2158 
L 1664 409 
L 902 2300 
C 870 2378 870 2423 870 2430 
C 870 2572 1018 2585 1171 2585 
L 1171 2752 
C 1018 2739 742 2739 582 2739 
C 410 2739 205 2739 64 2752 
L 64 2585 
C 410 2585 448 2553 531 2345 
L 1485 -31 
C 1197 -795 1030 -1242 627 -1242 
C 557 -1242 397 -1223 282 -1106 
C 429 -1093 493 -1002 493 -892 
C 493 -782 416 -685 288 -685 
C 147 -685 77 -782 77 -899 
C 77 -1158 339 -1344 627 -1344 
C 998 -1344 1229 -983 1357 -659 
L 2496 2183 
z
" transform="scale(0.015625)"/>
       <path id="CMR17-73" d="M 1978 2688 
C 1978 2803 1971 2809 1933 2809 
C 1907 2809 1901 2803 1824 2707 
C 1805 2681 1747 2617 1728 2592 
C 1523 2809 1235 2816 1126 2816 
C 416 2816 160 2444 160 2073 
C 160 1497 813 1363 998 1324 
C 1402 1241 1542 1216 1677 1100 
C 1760 1024 1901 883 1901 652 
C 1901 384 1747 38 1158 38 
C 602 38 403 460 288 1024 
C 269 1113 269 1120 218 1120 
C 166 1120 160 1113 160 985 
L 160 64 
C 160 -52 166 -58 205 -58 
C 237 -58 243 -52 275 0 
C 314 57 410 211 448 275 
C 576 102 800 -64 1158 -64 
C 1792 -64 2131 281 2131 780 
C 2131 1107 1958 1280 1875 1356 
C 1683 1555 1459 1600 1190 1651 
C 838 1728 390 1817 390 2208 
C 390 2374 480 2726 1126 2726 
C 1811 2726 1850 2086 1862 1881 
C 1869 1849 1901 1843 1920 1843 
C 1978 1843 1978 1862 1978 1971 
L 1978 2688 
z
" transform="scale(0.015625)"/>
      </defs>
      <use xlink:href="#CMR17-50" transform="scale(0.996264)"/>
      <use xlink:href="#CMR17-72" transform="translate(62.586301 0)scale(0.996264)"/>
      <use xlink:href="#CMR17-6f" transform="translate(97.867068 0)scale(0.996264)"/>
      <use xlink:href="#CMR17-62" transform="translate(143.557545 0)scale(0.996264)"/>
      <use xlink:href="#CMR17-61" transform="translate(194.452915 0)scale(0.996264)"/>
      <use xlink:href="#CMR17-62" transform="translate(240.143392 0)scale(0.996264)"/>
      <use xlink:href="#CMR17-69" transform="translate(291.038762 0)scale(0.996264)"/>
      <use xlink:href="#CMR17-6c" transform="translate(315.909821 0)scale(0.996264)"/>
      <use xlink:href="#CMR17-69" transform="translate(340.780879 0)scale(0.996264)"/>
      <use xlink:href="#CMR17-74" transform="translate(365.651938 0)scale(0.996264)"/>
      <use xlink:href="#CMR17-79" transform="translate(398.330251 0)scale(0.996264)"/>
      <use xlink:href="#CMR17-64" transform="translate(476.699134 0)scale(0.996264)"/>
      <use xlink:href="#CMR17-65" transform="translate(527.594503 0)scale(0.996264)"/>
      <use xlink:href="#CMR17-6e" transform="translate(568.080164 0)scale(0.996264)"/>
      <use xlink:href="#CMR17-73" transform="translate(618.975534 0)scale(0.996264)"/>
      <use xlink:href="#CMR17-69" transform="translate(654.776871 0)scale(0.996264)"/>
      <use xlink:href="#CMR17-74" transform="translate(679.64793 0)scale(0.996264)"/>
      <use xlink:href="#CMR17-79" transform="translate(712.326244 0)scale(0.996264)"/>
     </g>
    </g>
   </g>
   <g id="line2d_14">
    <path d="M 45.555547 218.982381 
L 51.364556 213.616172 
L 54.93933 210.387869 
L 58.067258 207.083193 
L 60.301493 204.77315 
L 62.08888 203.216958 
L 63.876267 201.940715 
L 65.216808 201.025495 
L 67.004195 199.683002 
L 69.238429 198.313349 
L 76.834826 194.317741 
L 79.962754 193.179062 
L 98.730321 186.928975 
L 102.305096 185.194779 
L 103.645637 184.599983 
L 105.879871 183.279556 
L 108.114105 181.980172 
L 109.901493 180.600524 
L 117.497889 172.208336 
L 121.519511 167.508588 
L 128.66906 159.568026 
L 129.562754 158.545372 
L 134.924916 151.331916 
L 138.052844 147.461772 
L 140.733925 144.495562 
L 142.968159 142.343425 
L 145.202393 140.53373 
L 146.096087 139.828006 
L 147.883475 138.28698 
L 149.670862 137.03334 
L 151.458249 136.092127 
L 152.79879 135.603973 
L 154.13933 135.309959 
L 155.479871 135.214342 
L 156.820411 135.318852 
L 158.160952 135.62266 
L 159.501493 136.122561 
L 160.842033 136.813364 
L 162.62942 138.019857 
L 163.523114 138.645174 
L 164.863655 139.19609 
L 166.651042 140.079252 
L 168.438429 141.257235 
L 170.225817 142.727043 
L 172.013204 144.484868 
L 173.800592 146.525033 
L 176.034826 149.459358 
L 178.26906 152.798637 
L 180.503294 156.511726 
L 186.75915 167.333094 
L 191.227619 174.489711 
L 193.9087 178.771778 
L 195.24924 180.483944 
L 201.058249 187.230638 
L 205.973565 193.274729 
L 208.207799 196.006611 
L 213.569961 201.416049 
L 214.463655 201.857385 
L 217.144736 202.559168 
L 218.932123 202.542521 
L 223.400592 201.548897 
L 226.975366 200.300685 
L 230.996988 199.157437 
L 232.337529 198.803085 
L 237.699691 195.934358 
L 241.721312 193.201438 
L 243.955547 191.914247 
L 246.189781 190.707867 
L 249.317709 188.587973 
L 251.105096 187.483174 
L 253.33933 186.44231 
L 255.126718 185.929733 
L 256.914105 185.661376 
L 258.701493 185.664459 
L 260.48888 185.931176 
L 262.276267 186.43635 
L 263.616808 186.874731 
L 265.404195 187.227778 
L 267.638429 187.907234 
L 269.872664 188.823242 
L 272.106898 189.956384 
L 274.787979 191.593373 
L 277.46906 193.526587 
L 280.150141 195.712772 
L 282.384375 197.74416 
L 284.61861 200.041612 
L 287.299691 203.145979 
L 289.087078 205.189944 
L 291.321312 207.349937 
L 292.215006 208.019468 
L 295.342934 209.891183 
L 298.470862 211.981003 
L 310.535727 220.411265 
L 314.110502 222.440774 
L 318.57897 224.695572 
L 323.047438 226.767013 
L 328.856447 227.902109 
L 342.261853 230.993604 
L 359.242033 234.93071 
L 365.944736 236.571249 
L 387.393384 242.105536 
L 391.861853 242.701671 
L 395.436628 242.974551 
L 399.011402 243.043915 
L 403.479871 242.885844 
L 407.948339 242.517464 
L 415.991583 241.826368 
L 417.332123 241.665229 
L 422.247438 240.175301 
L 424.92852 239.61754 
L 428.056447 239.213254 
L 431.631222 239.013628 
L 435.652844 238.944008 
L 437.887078 238.847377 
L 442.802393 238.343154 
L 449.505096 237.290856 
L 453.973565 236.683668 
L 458.88888 236.28829 
L 462.910502 236.096814 
L 464.251042 235.729184 
L 466.932123 234.567352 
L 470.060051 233.489181 
L 474.081673 232.383907 
L 474.975366 232.120582 
L 478.996988 230.068258 
L 484.35915 225.824136 
L 487.933925 222.729956 
L 491.955547 218.982381 
L 491.955547 218.982381 
" clip-path="url(#p561d5a6db3)" style="fill: none; stroke: #210c4a; stroke-width: 1.5; stroke-linecap: square"/>
   </g>
   <g id="line2d_15">
    <path d="M 45.555547 200.006056 
L 50.024015 196.903369 
L 52.705096 195.251201 
L 54.93933 194.127569 
L 58.067258 192.732252 
L 59.407799 191.818246 
L 63.42942 186.905507 
L 66.110502 184.115933 
L 68.791583 181.668318 
L 71.919511 179.133413 
L 74.600592 177.208255 
L 77.281673 175.554474 
L 79.962754 174.181003 
L 83.537529 172.472371 
L 83.984375 172.147245 
L 84.431222 171.640312 
L 90.687078 161.419231 
L 92.921312 158.349506 
L 95.155547 155.694407 
L 95.602393 155.1986 
L 96.04924 154.288695 
L 99.624015 144.002004 
L 103.19879 134.421121 
L 107.667258 123.139003 
L 109.901493 117.986535 
L 111.68888 114.365928 
L 114.816808 108.778015 
L 115.710502 107.626811 
L 116.604195 106.745662 
L 117.497889 106.146753 
L 118.391583 105.837404 
L 119.285276 105.820162 
L 119.732123 105.920643 
L 121.072664 105.694943 
L 121.966357 105.86479 
L 122.860051 106.308775 
L 123.753745 107.015485 
L 124.647438 107.97042 
L 125.987979 109.830378 
L 127.32852 112.145367 
L 129.115907 115.823699 
L 130.903294 120.046921 
L 135.81861 132.694362 
L 138.052844 139.224458 
L 141.180772 148.804059 
L 143.415006 154.259175 
L 145.64924 156.900384 
L 148.330321 160.334907 
L 157.714105 160.033234 
L 158.607799 158.409192 
L 161.28888 153.328053 
L 163.076267 150.362748 
L 164.416808 148.245821 
L 166.651042 143.85584 
L 167.991583 141.417213 
L 169.332123 139.374315 
L 170.672664 137.753973 
L 172.460051 135.703512 
L 173.353745 134.954555 
L 174.247438 134.286319 
L 175.141132 133.616464 
L 176.034826 133.179428 
L 176.92852 132.977712 
L 177.822213 133.011 
L 178.715907 133.275919 
L 179.609601 133.765914 
L 180.503294 134.471222 
L 181.843835 135.903933 
L 183.184375 137.736181 
L 184.971763 140.68436 
L 187.205997 144.937557 
L 190.333925 151.080564 
L 195.696087 160.26743 
L 197.483475 162.593915 
L 200.611402 166.91298 
L 202.845637 165.822852 
L 205.079871 165.024814 
L 205.973565 164.70733 
L 207.314105 163.983905 
L 209.995186 162.039483 
L 211.782574 160.467341 
L 214.016808 158.185592 
L 219.37897 152.460737 
L 219.825817 152.040562 
L 221.613204 149.854935 
L 222.953745 148.479131 
L 224.294285 147.359259 
L 225.634826 146.495371 
L 226.975366 145.88917 
L 228.315907 145.549307 
L 229.656447 145.445822 
L 230.996988 145.570111 
L 232.337529 145.916369 
L 233.678069 146.468429 
L 235.465456 147.500812 
L 237.252844 148.85002 
L 239.040231 150.503085 
L 240.827619 152.458106 
L 242.615006 154.722037 
L 244.402393 157.307115 
L 246.189781 160.226273 
L 248.424015 164.356895 
L 250.658249 169.014835 
L 253.33933 175.233426 
L 256.467258 183.142883 
L 261.382574 195.752437 
L 273.000592 222.904225 
L 277.46906 228.916277 
L 282.831222 236.478105 
L 285.95915 238.612755 
L 289.533925 240.756182 
L 294.44924 243.383423 
L 299.811402 246.287918 
L 302.492484 247.994414 
L 304.726718 249.658727 
L 306.960952 251.579681 
L 309.642033 253.93453 
L 311.42942 255.137497 
L 313.663655 255.756465 
L 315.897889 256.590531 
L 318.57897 257.831399 
L 326.622213 261.813439 
L 327.962754 262.091784 
L 331.090682 262.47667 
L 334.665456 262.669968 
L 338.687078 262.678659 
L 347.177168 262.730059 
L 352.092484 262.996823 
L 357.901493 263.573633 
L 364.604195 264.447097 
L 369.072664 264.906161 
L 374.434826 265.257788 
L 379.350141 265.37261 
L 382.478069 265.200156 
L 388.733925 264.537755 
L 396.330321 263.520196 
L 400.79879 263.16114 
L 403.479871 263.176831 
L 406.160952 263.411872 
L 408.842033 263.877685 
L 411.523114 264.562819 
L 415.991583 266.006754 
L 422.247438 268.289043 
L 428.056447 270.697921 
L 433.41861 273.104071 
L 433.865456 273.153535 
L 436.546538 272.425601 
L 438.780772 271.605894 
L 441.015006 270.568754 
L 443.24924 269.311375 
L 445.930321 267.507345 
L 448.164556 265.844812 
L 451.292484 262.421882 
L 452.186177 261.257653 
L 461.569961 242.059817 
L 469.166357 227.200441 
L 472.294285 221.490109 
L 474.975366 217.058338 
L 477.209601 213.787746 
L 479.443835 210.931237 
L 481.678069 208.469734 
L 484.35915 205.92896 
L 487.040231 203.692938 
L 491.061853 200.655847 
L 491.955547 200.006056 
L 491.955547 200.006056 
" clip-path="url(#p561d5a6db3)" style="fill: none; stroke: #8a226a; stroke-width: 1.5; stroke-linecap: square"/>
   </g>
   <g id="line2d_16">
    <path d="M 45.555547 208.338413 
L 50.024015 207.417894 
L 53.59879 206.842488 
L 55.833024 206.466075 
L 59.407799 205.932896 
L 63.42942 205.592449 
L 67.451042 205.311834 
L 72.813204 204.854708 
L 76.387979 204.752936 
L 78.622213 204.700198 
L 82.196988 204.566381 
L 84.431222 204.472022 
L 91.133925 204.071308 
L 96.942934 204.061202 
L 103.645637 204.3149 
L 109.901493 204.500203 
L 121.519511 203.982705 
L 128.222213 203.573246 
L 132.690682 202.873443 
L 134.924916 202.204678 
L 142.521312 198.934877 
L 144.3087 198.002081 
L 152.79879 193.269958 
L 155.926718 191.159232 
L 162.62942 185.730475 
L 168.885276 180.518363 
L 172.906898 177.325394 
L 177.375366 174.100017 
L 180.503294 172.042176 
L 183.184375 170.543078 
L 188.099691 168.198503 
L 191.227619 167.027736 
L 193.015006 166.37983 
L 197.036628 164.874018 
L 199.270862 164.214314 
L 204.186177 163.105094 
L 206.867258 162.638819 
L 215.357348 160.441691 
L 221.166357 159.029683 
L 223.400592 158.28834 
L 228.762754 156.613316 
L 230.996988 156.076899 
L 233.678069 155.695168 
L 236.35915 155.181916 
L 249.317709 151.983107 
L 251.551943 151.784178 
L 253.786177 151.874515 
L 256.020411 152.148333 
L 263.169961 153.342402 
L 268.085276 154.786438 
L 270.766357 155.859662 
L 273.000592 156.901481 
L 275.681673 158.247381 
L 277.46906 159.411994 
L 280.150141 161.449814 
L 282.384375 163.477293 
L 285.95915 167.16965 
L 288.640231 170.350348 
L 294.002393 177.010736 
L 300.705096 185.721105 
L 308.301493 196.679128 
L 310.535727 199.025015 
L 315.004195 203.39155 
L 318.132123 205.86735 
L 321.706898 208.21668 
L 327.06906 211.140617 
L 329.750141 212.087791 
L 332.878069 212.59715 
L 334.665456 212.442919 
L 336.899691 211.680911 
L 344.942934 208.510019 
L 348.070862 207.01978 
L 352.092484 205.156569 
L 354.773565 204.175523 
L 358.348339 203.110535 
L 361.02942 202.414674 
L 367.285276 200.933287 
L 369.072664 200.762035 
L 371.753745 200.742996 
L 373.541132 200.880991 
L 375.32852 201.235073 
L 377.115907 201.799964 
L 379.350141 202.777195 
L 381.584375 203.987898 
L 383.81861 205.459854 
L 386.052844 207.187315 
L 390.968159 211.432329 
L 393.64924 214.143767 
L 396.330321 217.187259 
L 399.011402 220.552395 
L 404.373565 227.780572 
L 408.395186 233.741226 
L 418.672664 249.155973 
L 421.353745 252.936158 
L 427.609601 261.372034 
L 431.184375 265.94869 
L 432.971763 267.918039 
L 434.75915 269.704745 
L 440.568159 274.539396 
L 442.355547 275.844679 
L 445.930321 278.174916 
L 448.611402 279.597014 
L 450.845637 280.315409 
L 454.420411 280.960028 
L 457.995186 281.384308 
L 460.676267 281.512364 
L 464.251042 281.151232 
L 466.485276 280.767562 
L 474.081673 279.106561 
L 478.550141 277.716736 
L 483.912303 276.302857 
L 491.955547 274.428758 
L 491.955547 274.428758 
" clip-path="url(#p561d5a6db3)" style="fill: none; stroke: #e45a31; stroke-width: 1.5; stroke-linecap: square"/>
   </g>
   <g id="line2d_17">
    <path d="M 45.555547 66.700137 
L 49.577168 66.597389 
L 53.151943 66.704913 
L 64.323114 67.470331 
L 69.238429 68.003186 
L 79.06906 69.104875 
L 86.665456 69.803769 
L 90.687078 70.032799 
L 97.389781 70.6353 
L 111.242033 70.953999 
L 115.710502 70.956758 
L 122.413204 71.104741 
L 124.647438 71.160565 
L 127.775366 71.235083 
L 130.456447 71.344522 
L 133.137529 71.587939 
L 137.605997 72.271082 
L 144.3087 73.776145 
L 147.436628 74.623513 
L 154.13933 76.611866 
L 166.204195 80.944451 
L 168.885276 81.98082 
L 171.566357 83.251099 
L 180.503294 87.868253 
L 184.524916 89.916898 
L 192.568159 94.05036 
L 202.39879 97.823192 
L 205.526718 98.973801 
L 211.335727 101.177284 
L 213.569961 102.015374 
L 222.060051 104.731895 
L 223.847438 105.548357 
L 226.081673 106.735256 
L 229.209601 108.375845 
L 231.890682 109.883539 
L 233.678069 111.124644 
L 235.912303 112.927001 
L 238.593384 115.401061 
L 240.827619 117.76491 
L 243.5087 120.947016 
L 250.658249 130.328156 
L 253.33933 134.111234 
L 255.573565 137.542963 
L 260.042033 144.812113 
L 264.063655 151.725633 
L 268.532123 159.323927 
L 273.000592 166.234799 
L 280.150141 177.478377 
L 282.831222 181.636287 
L 292.215006 195.245495 
L 295.789781 200.930704 
L 299.811402 207.658759 
L 303.386177 213.959317 
L 306.514105 219.644915 
L 310.982574 227.654409 
L 314.110502 233.393105 
L 318.132123 240.878571 
L 325.281673 253.156312 
L 329.303294 259.587266 
L 332.431222 264.24884 
L 336.452844 269.843848 
L 339.133925 273.16895 
L 345.836628 281.344456 
L 349.858249 286.383831 
L 352.986177 290.030049 
L 356.114105 293.8495 
L 360.582574 299.88791 
L 363.710502 304.313572 
L 369.072664 312.384991 
L 374.434826 320.527161 
L 378.456447 326.65822 
L 391.861853 347.232339 
L 410.696183 375.402162 
L 410.696183 375.402162 
" clip-path="url(#p561d5a6db3)" style="fill: none; stroke: #f9cb35; stroke-width: 1.5; stroke-linecap: square"/>
   </g>
   <g id="line2d_18">
    <path d="M 157.155547 330.299298 
L 157.155547 53.099298 
" clip-path="url(#p561d5a6db3)" style="fill: none; stroke-dasharray: 5.55,2.4; stroke-dashoffset: 0; stroke: #000000; stroke-width: 1.5"/>
   </g>
   <g id="patch_3">
    <path d="M 45.555547 330.299298 
L 45.555547 53.099298 
" style="fill: none; stroke: #000000; stroke-width: 0.8; stroke-linejoin: miter; stroke-linecap: square"/>
   </g>
   <g id="patch_4">
    <path d="M 491.955547 330.299298 
L 491.955547 53.099298 
" style="fill: none; stroke: #000000; stroke-width: 0.8; stroke-linejoin: miter; stroke-linecap: square"/>
   </g>
   <g id="patch_5">
    <path d="M 45.555547 330.299298 
L 491.955547 330.299298 
" style="fill: none; stroke: #000000; stroke-width: 0.8; stroke-linejoin: miter; stroke-linecap: square"/>
   </g>
   <g id="patch_6">
    <path d="M 45.555547 53.099298 
L 491.955547 53.099298 
" style="fill: none; stroke: #000000; stroke-width: 0.8; stroke-linejoin: miter; stroke-linecap: square"/>
   </g>
   <g id="text_16">
    <!-- $\phi^{\mathrm{True}}$ -->
    <g transform="translate(164.260223 290.699298)scale(0.14 -0.14)">
     <defs>
      <path id="CMR17-54" d="M 3981 4332 
L 288 4332 
L 179 2924 
L 294 2924 
C 378 3981 467 4166 1453 4166 
C 1568 4166 1754 4166 1805 4159 
C 1926 4140 1926 4064 1926 3917 
L 1926 465 
C 1926 236 1907 166 1376 166 
L 1197 166 
L 1197 0 
C 1504 6 1824 12 2138 12 
C 2451 12 2771 6 3078 0 
L 3078 166 
L 2899 166 
C 2368 166 2349 236 2349 465 
L 2349 3917 
C 2349 4057 2349 4134 2464 4159 
C 2515 4166 2701 4166 2816 4166 
C 3795 4166 3891 3981 3974 2924 
L 4090 2924 
L 3981 4332 
z
" transform="scale(0.015625)"/>
     </defs>
     <use xlink:href="#CMMI12-1e" transform="scale(0.996264)"/>
     <use xlink:href="#CMR17-54" transform="translate(57.73418 36.153639)scale(0.697382)"/>
     <use xlink:href="#CMR17-72" transform="translate(98.82583 36.153639)scale(0.697382)"/>
     <use xlink:href="#CMR17-75" transform="translate(123.52225 36.153639)scale(0.697382)"/>
     <use xlink:href="#CMR17-65" transform="translate(159.148858 36.153639)scale(0.697382)"/>
    </g>
   </g>
   <g id="text_17">
    <!-- $\phi$ likelihood given detected events by a 27 $M_\odot$ CCSN -->
    <g transform="translate(54.93873 21.036997)scale(0.2 -0.2)">
     <defs>
      <path id="CMR17-6b" d="M 1670 1679 
C 1664 1692 1632 1730 1632 1749 
C 1632 1762 2086 2175 2144 2226 
C 2509 2532 2739 2563 2906 2570 
L 2906 2735 
C 2867 2735 2854 2735 2848 2729 
L 2534 2722 
C 2355 2722 2080 2722 1907 2735 
L 1907 2570 
C 1997 2563 2061 2513 2061 2423 
C 2061 2296 1933 2175 1926 2175 
L 960 1298 
L 960 4416 
L 198 4345 
L 198 4179 
C 576 4179 634 4141 634 3835 
L 634 439 
C 634 198 608 166 198 166 
L 198 0 
C 352 12 634 12 794 12 
C 954 12 1235 12 1389 0 
L 1389 166 
C 979 166 954 191 954 439 
L 954 1139 
L 1395 1540 
L 2042 586 
C 2118 471 2182 382 2182 299 
C 2182 185 2067 166 1990 166 
L 1990 0 
C 2144 12 2419 12 2579 12 
C 2694 12 2931 6 3040 0 
L 3040 166 
C 2739 166 2669 223 2477 503 
L 1670 1679 
z
" transform="scale(0.015625)"/>
      <path id="CMR17-63" d="M 2234 2240 
C 2112 2240 1933 2240 1933 2015 
C 1933 1836 2080 1785 2163 1785 
C 2208 1785 2394 1804 2394 2028 
C 2394 2476 1958 2816 1466 2816 
C 787 2816 211 2201 211 1379 
C 211 521 813 -64 1466 -64 
C 2259 -64 2458 676 2458 747 
C 2458 773 2451 792 2406 792 
C 2362 792 2355 786 2330 702 
C 2163 180 1798 51 1523 51 
C 1114 51 621 431 621 1385 
C 621 2358 1094 2700 1472 2700 
C 1722 2700 2093 2582 2234 2240 
z
" transform="scale(0.015625)"/>
      <path id="CMMI12-4d" d="M 5811 3886 
C 5869 4102 5882 4166 6336 4166 
C 6458 4166 6515 4166 6515 4287 
C 6515 4352 6470 4352 6349 4352 
L 5581 4352 
C 5421 4352 5414 4345 5344 4243 
L 3008 567 
L 2528 4211 
C 2509 4352 2502 4352 2336 4352 
L 1542 4352 
C 1421 4352 1363 4352 1363 4230 
C 1363 4166 1421 4166 1517 4166 
C 1907 4166 1907 4115 1907 4045 
C 1907 4032 1907 3994 1882 3898 
L 1062 650 
C 986 344 838 204 410 185 
C 390 185 314 179 314 70 
C 314 0 371 0 397 0 
C 525 0 851 12 979 12 
L 1286 12 
C 1376 12 1485 0 1574 0 
C 1619 0 1690 0 1690 121 
C 1690 179 1626 185 1600 185 
C 1389 191 1184 230 1184 459 
C 1184 523 1184 529 1210 618 
L 2093 4128 
L 2099 4128 
L 2630 172 
C 2650 19 2656 0 2714 0 
C 2784 0 2816 51 2848 108 
L 5421 4159 
L 5427 4159 
L 4499 472 
C 4442 249 4429 185 3981 185 
C 3859 185 3795 185 3795 70 
C 3795 0 3853 0 3891 0 
C 4000 0 4128 12 4237 12 
L 4992 12 
C 5101 12 5235 0 5344 0 
C 5395 0 5466 0 5466 121 
C 5466 185 5408 185 5312 185 
C 4922 185 4922 236 4922 300 
C 4922 306 4922 351 4934 402 
L 5811 3886 
z
" transform="scale(0.015625)"/>
      <path id="CMSY10-c" d="M 4621 1606 
C 4621 2787 3661 3744 2490 3744 
C 1299 3744 352 2774 352 1606 
C 352 419 1312 -545 2483 -545 
C 3674 -545 4621 432 4621 1606 
z
M 2490 -384 
C 1389 -384 512 516 512 1606 
C 512 2709 1408 3584 2483 3584 
C 3584 3584 4461 2690 4461 1606 
C 4461 497 3565 -384 2490 -384 
z
M 2925 1606 
C 2925 1849 2726 2048 2490 2048 
C 2234 2048 2048 1836 2048 1606 
C 2048 1363 2246 1164 2483 1164 
C 2739 1164 2925 1375 2925 1606 
z
" transform="scale(0.015625)"/>
      <path id="CMR17-43" d="M 3974 4351 
C 3974 4467 3968 4473 3930 4473 
C 3904 4473 3898 4467 3853 4390 
L 3571 3849 
C 3258 4249 2874 4480 2381 4480 
C 1286 4480 294 3507 294 2179 
C 294 837 1286 -128 2387 -128 
C 3366 -128 3974 741 3974 1482 
C 3974 1547 3974 1573 3917 1573 
C 3866 1573 3866 1553 3859 1495 
C 3808 592 3168 38 2477 38 
C 1824 38 781 502 781 2179 
C 781 3862 1843 4313 2464 4313 
C 3187 4313 3712 3681 3834 2785 
C 3846 2707 3846 2695 3904 2695 
C 3974 2695 3974 2707 3974 2824 
L 3974 4351 
z
" transform="scale(0.015625)"/>
      <path id="CMR17-4e" d="M 1312 4275 
C 1267 4345 1261 4352 1139 4352 
L 326 4352 
L 326 4185 
L 448 4185 
C 704 4185 819 4153 838 4147 
L 838 624 
C 838 465 838 166 326 166 
L 326 0 
C 474 12 742 12 902 12 
C 1062 12 1331 12 1478 0 
L 1478 166 
C 966 166 966 465 966 624 
L 966 4057 
C 1011 4019 1011 4007 1056 3943 
L 3430 76 
C 3475 0 3494 0 3526 0 
C 3590 0 3590 19 3590 140 
L 3590 3726 
C 3590 3885 3590 4185 4102 4185 
L 4102 4352 
C 3955 4339 3686 4339 3526 4339 
C 3366 4339 3098 4339 2950 4352 
L 2950 4185 
C 3462 4185 3462 3885 3462 3726 
L 3462 777 
L 1312 4275 
z
" transform="scale(0.015625)"/>
     </defs>
     <use xlink:href="#CMMI12-1e" transform="scale(0.996264)"/>
     <use xlink:href="#CMR17-6c" transform="translate(87.810147 0)scale(0.996264)"/>
     <use xlink:href="#CMR17-69" transform="translate(112.681205 0)scale(0.996264)"/>
     <use xlink:href="#CMR17-6b" transform="translate(137.552264 0)scale(0.996264)"/>
     <use xlink:href="#CMR17-65" transform="translate(183.242726 0)scale(0.996264)"/>
     <use xlink:href="#CMR17-6c" transform="translate(223.728386 0)scale(0.996264)"/>
     <use xlink:href="#CMR17-69" transform="translate(248.599445 0)scale(0.996264)"/>
     <use xlink:href="#CMR17-68" transform="translate(273.470503 0)scale(0.996264)"/>
     <use xlink:href="#CMR17-6f" transform="translate(324.365873 0)scale(0.996264)"/>
     <use xlink:href="#CMR17-6f" transform="translate(372.658789 0)scale(0.996264)"/>
     <use xlink:href="#CMR17-64" transform="translate(420.951705 0)scale(0.996264)"/>
     <use xlink:href="#CMR17-67" transform="translate(501.923041 0)scale(0.996264)"/>
     <use xlink:href="#CMR17-69" transform="translate(547.613518 0)scale(0.996264)"/>
     <use xlink:href="#CMR17-76" transform="translate(572.484576 0)scale(0.996264)"/>
     <use xlink:href="#CMR17-65" transform="translate(618.175038 0)scale(0.996264)"/>
     <use xlink:href="#CMR17-6e" transform="translate(658.660699 0)scale(0.996264)"/>
     <use xlink:href="#CMR17-64" transform="translate(739.632035 0)scale(0.996264)"/>
     <use xlink:href="#CMR17-65" transform="translate(790.527405 0)scale(0.996264)"/>
     <use xlink:href="#CMR17-74" transform="translate(831.013065 0)scale(0.996264)"/>
     <use xlink:href="#CMR17-65" transform="translate(866.293833 0)scale(0.996264)"/>
     <use xlink:href="#CMR17-63" transform="translate(906.779493 0)scale(0.996264)"/>
     <use xlink:href="#CMR17-74" transform="translate(947.265154 0)scale(0.996264)"/>
     <use xlink:href="#CMR17-65" transform="translate(982.545922 0)scale(0.996264)"/>
     <use xlink:href="#CMR17-64" transform="translate(1023.031582 0)scale(0.996264)"/>
     <use xlink:href="#CMR17-65" transform="translate(1104.002918 0)scale(0.996264)"/>
     <use xlink:href="#CMR17-76" transform="translate(1144.488579 0)scale(0.996264)"/>
     <use xlink:href="#CMR17-65" transform="translate(1190.179041 0)scale(0.996264)"/>
     <use xlink:href="#CMR17-6e" transform="translate(1230.664701 0)scale(0.996264)"/>
     <use xlink:href="#CMR17-74" transform="translate(1278.957617 0)scale(0.996264)"/>
     <use xlink:href="#CMR17-73" transform="translate(1314.238385 0)scale(0.996264)"/>
     <use xlink:href="#CMR17-62" transform="translate(1380.115689 0)scale(0.996264)"/>
     <use xlink:href="#CMR17-79" transform="translate(1428.408604 0)scale(0.996264)"/>
     <use xlink:href="#CMR17-61" transform="translate(1506.777487 0)scale(0.996264)"/>
     <use xlink:href="#CMR17-32" transform="translate(1582.54393 0)scale(0.996264)"/>
     <use xlink:href="#CMR17-37" transform="translate(1628.234407 0)scale(0.996264)"/>
     <use xlink:href="#CMMI12-4d" transform="translate(1704.000851 0)scale(0.996264)"/>
     <use xlink:href="#CMSY10-c" transform="translate(1798.374276 -14.943915)scale(0.697382)"/>
     <use xlink:href="#CMR17-43" transform="translate(1883.189367 0)scale(0.996264)"/>
     <use xlink:href="#CMR17-43" transform="translate(1949.699248 0)scale(0.996264)"/>
     <use xlink:href="#CMR17-53" transform="translate(2016.209128 0)scale(0.996264)"/>
     <use xlink:href="#CMR17-4e" transform="translate(2067.104498 0)scale(0.996264)"/>
    </g>
    <!-- at 40 kpc, $\delta_\theta \neq 0$ (Normal Hierarchy) -->
    <g transform="translate(119.227288 43.099298)scale(0.2 -0.2)">
     <defs>
      <path id="CMR17-2c" d="M 1011 102 
C 1024 44 1024 25 1024 -76 
C 1024 -451 896 -795 627 -1108 
C 595 -1140 595 -1152 595 -1165 
C 595 -1191 621 -1216 646 -1216 
C 685 -1216 1126 -776 1126 -82 
C 1126 128 1101 524 800 524 
C 659 524 538 428 538 262 
C 538 96 659 0 800 0 
C 877 0 960 32 1011 102 
z
" transform="scale(0.015625)"/>
      <path id="CMMI12-e" d="M 1664 2795 
C 845 2597 256 1748 256 1001 
C 256 319 717 -64 1229 -64 
C 1984 -64 2496 970 2496 1818 
C 2496 2393 2227 2743 2067 2954 
C 1830 3254 1446 3745 1446 4052 
C 1446 4160 1530 4352 1811 4352 
C 2010 4352 2131 4281 2323 4173 
C 2381 4134 2528 4052 2611 4052 
C 2746 4052 2842 4186 2842 4288 
C 2842 4409 2746 4428 2522 4480 
C 2221 4544 2131 4544 2022 4544 
C 1914 4544 1286 4544 1286 3892 
C 1286 3579 1446 3216 1664 2795 
z
M 1734 2673 
C 1978 2169 2074 1978 2074 1563 
C 2074 1065 1805 64 1235 64 
C 986 64 627 229 627 823 
C 627 1238 864 2444 1734 2673 
z
" transform="scale(0.015625)"/>
      <path id="CMMI12-12" d="M 2835 3200 
C 2835 3849 2630 4480 2106 4480 
C 1210 4480 256 2615 256 1215 
C 256 922 320 -64 992 -64 
C 1862 -64 2835 1755 2835 3200 
z
M 896 2304 
C 992 2679 1126 3213 1382 3665 
C 1594 4046 1818 4351 2099 4351 
C 2310 4351 2451 4173 2451 3563 
C 2451 3334 2432 3016 2246 2304 
L 896 2304 
z
M 2202 2112 
C 2042 1488 1907 1088 1677 687 
C 1491 362 1267 64 998 64 
C 800 64 640 216 640 846 
C 640 1259 742 1692 845 2112 
L 2202 2112 
z
" transform="scale(0.015625)"/>
      <path id="CMSY10-36" d="M 4032 4356 
C 4083 4447 4083 4460 4083 4479 
C 4083 4524 4045 4608 3955 4608 
C 3878 4608 3859 4569 3814 4479 
L 941 -1158 
C 890 -1248 890 -1261 890 -1280 
C 890 -1332 934 -1408 1018 -1408 
C 1094 -1408 1114 -1370 1158 -1280 
L 4032 4356 
z
" transform="scale(0.015625)"/>
      <path id="CMR17-3d" d="M 4115 2048 
C 4211 2048 4307 2048 4307 2156 
C 4307 2272 4198 2272 4090 2272 
L 512 2272 
C 403 2272 294 2272 294 2156 
C 294 2048 390 2048 486 2048 
L 4115 2048 
z
M 4090 927 
C 4198 927 4307 927 4307 1043 
C 4307 1152 4211 1152 4115 1152 
L 486 1152 
C 390 1152 294 1152 294 1043 
C 294 927 403 927 512 927 
L 4090 927 
z
" transform="scale(0.015625)"/>
      <path id="CMR17-48" d="M 3590 3898 
C 3590 4185 3661 4185 4102 4185 
L 4102 4352 
C 3917 4339 3578 4339 3379 4339 
C 3181 4339 2842 4339 2656 4352 
L 2656 4185 
C 3098 4185 3168 4185 3168 3898 
L 3168 2342 
L 1261 2342 
L 1261 3898 
C 1261 4185 1331 4185 1773 4185 
L 1773 4352 
C 1587 4339 1248 4339 1050 4339 
C 851 4339 512 4339 326 4352 
L 326 4185 
C 768 4185 838 4185 838 3898 
L 838 452 
C 838 166 768 166 326 166 
L 326 0 
C 512 12 851 12 1050 12 
C 1248 12 1587 12 1773 0 
L 1773 166 
C 1331 166 1261 166 1261 452 
L 1261 2176 
L 3168 2176 
L 3168 452 
C 3168 166 3098 166 2656 166 
L 2656 0 
C 2842 12 3181 12 3379 12 
C 3578 12 3917 12 4102 0 
L 4102 166 
C 3661 166 3590 166 3590 452 
L 3590 3898 
z
" transform="scale(0.015625)"/>
     </defs>
     <use xlink:href="#CMR17-61" transform="scale(0.996264)"/>
     <use xlink:href="#CMR17-74" transform="translate(45.690477 0)scale(0.996264)"/>
     <use xlink:href="#CMR17-34" transform="translate(111.047211 0)scale(0.996264)"/>
     <use xlink:href="#CMR17-30" transform="translate(156.737688 0)scale(0.996264)"/>
     <use xlink:href="#CMR17-6b" transform="translate(232.504132 0)scale(0.996264)"/>
     <use xlink:href="#CMR17-70" transform="translate(280.797048 0)scale(0.996264)"/>
     <use xlink:href="#CMR17-63" transform="translate(334.294856 0)scale(0.996264)"/>
     <use xlink:href="#CMR17-2c" transform="translate(374.780517 0)scale(0.996264)"/>
     <use xlink:href="#CMMI12-e" transform="translate(429.727541 0)scale(0.996264)"/>
     <use xlink:href="#CMMI12-12" transform="translate(472.932998 -14.943915)scale(0.697382)"/>
     <use xlink:href="#CMSY10-36" transform="translate(534.823635 0)scale(0.996264)"/>
     <use xlink:href="#CMR17-3d" transform="translate(534.823635 0)scale(0.996264)"/>
     <use xlink:href="#CMR17-30" transform="translate(634.212432 0)scale(0.996264)"/>
     <use xlink:href="#CMR17-28" transform="translate(709.978876 0)scale(0.996264)"/>
     <use xlink:href="#CMR17-4e" transform="translate(745.259643 0)scale(0.996264)"/>
     <use xlink:href="#CMR17-6f" transform="translate(814.332073 0)scale(0.996264)"/>
     <use xlink:href="#CMR17-72" transform="translate(860.02255 0)scale(0.996264)"/>
     <use xlink:href="#CMR17-6d" transform="translate(895.303318 0)scale(0.996264)"/>
     <use xlink:href="#CMR17-61" transform="translate(972.222908 0)scale(0.996264)"/>
     <use xlink:href="#CMR17-6c" transform="translate(1017.913385 0)scale(0.996264)"/>
     <use xlink:href="#CMR17-48" transform="translate(1072.86041 0)scale(0.996264)"/>
     <use xlink:href="#CMR17-69" transform="translate(1141.93284 0)scale(0.996264)"/>
     <use xlink:href="#CMR17-65" transform="translate(1166.803898 0)scale(0.996264)"/>
     <use xlink:href="#CMR17-72" transform="translate(1207.289559 0)scale(0.996264)"/>
     <use xlink:href="#CMR17-61" transform="translate(1242.570326 0)scale(0.996264)"/>
     <use xlink:href="#CMR17-72" transform="translate(1288.260804 0)scale(0.996264)"/>
     <use xlink:href="#CMR17-63" transform="translate(1323.541571 0)scale(0.996264)"/>
     <use xlink:href="#CMR17-68" transform="translate(1361.424778 0)scale(0.996264)"/>
     <use xlink:href="#CMR17-79" transform="translate(1409.717694 0)scale(0.996264)"/>
     <use xlink:href="#CMR17-29" transform="translate(1458.01061 0)scale(0.996264)"/>
    </g>
   </g>
   <g id="legend_1">
    <g id="patch_7">
     <path d="M 358.116552 158.778672 
L 484.955547 158.778672 
Q 486.955547 158.778672 486.955547 156.778672 
L 486.955547 60.099298 
Q 486.955547 58.099298 484.955547 58.099298 
L 358.116552 58.099298 
Q 356.116552 58.099298 356.116552 60.099298 
L 356.116552 156.778672 
Q 356.116552 158.778672 358.116552 158.778672 
z
" style="fill: #ffffff; opacity: 0.8; stroke: #cccccc; stroke-linejoin: miter"/>
    </g>
    <g id="line2d_19">
     <path d="M 360.116552 72.214904 
L 370.116552 72.214904 
L 380.116552 72.214904 
" style="fill: none; stroke: #210c4a; stroke-width: 1.5; stroke-linecap: square"/>
    </g>
    <g id="text_18">
     <!-- Purely monoenergetic  -->
     <g transform="translate(388.116552 69.017796)scale(0.1 -0.1)">
      <use xlink:href="#CMR17-50" transform="scale(0.996264)"/>
      <use xlink:href="#CMR17-75" transform="translate(62.586301 0)scale(0.996264)"/>
      <use xlink:href="#CMR17-72" transform="translate(113.48167 0)scale(0.996264)"/>
      <use xlink:href="#CMR17-65" transform="translate(148.762438 0)scale(0.996264)"/>
      <use xlink:href="#CMR17-6c" transform="translate(189.248099 0)scale(0.996264)"/>
      <use xlink:href="#CMR17-79" transform="translate(214.119157 0)scale(0.996264)"/>
      <use xlink:href="#CMR17-6d" transform="translate(292.488039 0)scale(0.996264)"/>
      <use xlink:href="#CMR17-6f" transform="translate(369.407629 0)scale(0.996264)"/>
      <use xlink:href="#CMR17-6e" transform="translate(415.098106 0)scale(0.996264)"/>
      <use xlink:href="#CMR17-6f" transform="translate(465.993476 0)scale(0.996264)"/>
      <use xlink:href="#CMR17-65" transform="translate(514.286392 0)scale(0.996264)"/>
      <use xlink:href="#CMR17-6e" transform="translate(554.772052 0)scale(0.996264)"/>
      <use xlink:href="#CMR17-65" transform="translate(605.667422 0)scale(0.996264)"/>
      <use xlink:href="#CMR17-72" transform="translate(646.153083 0)scale(0.996264)"/>
      <use xlink:href="#CMR17-67" transform="translate(681.43385 0)scale(0.996264)"/>
      <use xlink:href="#CMR17-65" transform="translate(727.124327 0)scale(0.996264)"/>
      <use xlink:href="#CMR17-74" transform="translate(767.609988 0)scale(0.996264)"/>
      <use xlink:href="#CMR17-69" transform="translate(802.890756 0)scale(0.996264)"/>
      <use xlink:href="#CMR17-63" transform="translate(827.761814 0)scale(0.996264)"/>
     </g>
     <!--  (10 MeV) ES events -->
     <g transform="translate(388.116552 79.921351)scale(0.1 -0.1)">
      <defs>
       <path id="CMR17-4d" d="M 1338 4249 
C 1299 4345 1293 4352 1158 4352 
L 339 4352 
L 339 4185 
C 781 4185 851 4185 851 3898 
L 851 624 
C 851 465 851 166 339 166 
L 339 0 
C 486 12 755 12 915 12 
C 1075 12 1344 12 1491 0 
L 1491 166 
C 979 166 979 465 979 624 
L 979 4159 
L 986 4159 
L 2490 102 
C 2515 38 2528 0 2579 0 
C 2630 0 2643 38 2669 102 
L 4186 4191 
L 4192 4191 
L 4192 453 
C 4192 166 4122 166 3680 166 
L 3680 0 
C 3853 12 4198 12 4384 12 
C 4570 12 4922 12 5094 0 
L 5094 166 
C 4653 166 4582 166 4582 453 
L 4582 3898 
C 4582 4185 4653 4185 5094 4185 
L 5094 4352 
L 4282 4352 
C 4147 4352 4141 4345 4102 4249 
L 2720 516 
L 1338 4249 
z
" transform="scale(0.015625)"/>
       <path id="CMR17-56" d="M 3776 3762 
C 3834 3903 3936 4179 4365 4185 
L 4365 4352 
C 4218 4339 4051 4339 3891 4339 
C 3738 4339 3475 4339 3328 4352 
L 3328 4185 
C 3648 4166 3661 3942 3661 3903 
C 3661 3833 3642 3788 3622 3737 
L 2362 448 
L 1043 3903 
C 1024 3948 1011 3980 1011 4012 
C 1011 4185 1267 4185 1402 4185 
L 1402 4352 
C 1197 4339 896 4339 685 4339 
C 518 4339 218 4339 64 4352 
L 64 4185 
C 435 4185 506 4160 582 3955 
L 2106 -26 
C 2138 -116 2144 -128 2214 -128 
C 2285 -128 2291 -116 2323 -26 
L 3776 3762 
z
" transform="scale(0.015625)"/>
       <path id="CMR17-45" d="M 3885 1614 
L 3770 1614 
C 3629 676 3546 166 2419 166 
L 1530 166 
C 1274 166 1261 198 1261 415 
L 1261 2176 
L 1862 2176 
C 2464 2176 2522 1959 2522 1429 
L 2637 1429 
L 2637 3086 
L 2522 3086 
C 2522 2558 2464 2342 1862 2342 
L 1261 2342 
L 1261 3924 
C 1261 4141 1274 4172 1530 4172 
L 2406 4172 
C 3398 4172 3514 3778 3603 2933 
L 3718 2933 
L 3565 4339 
L 326 4339 
L 326 4172 
C 768 4172 838 4172 838 3886 
L 838 453 
C 838 166 768 166 326 166 
L 326 0 
L 3654 0 
L 3885 1614 
z
" transform="scale(0.015625)"/>
      </defs>
      <use xlink:href="#CMR17-28" transform="scale(0.996264)"/>
      <use xlink:href="#CMR17-31" transform="translate(35.280768 0)scale(0.996264)"/>
      <use xlink:href="#CMR17-30" transform="translate(80.971245 0)scale(0.996264)"/>
      <use xlink:href="#CMR17-4d" transform="translate(156.737688 0)scale(0.996264)"/>
      <use xlink:href="#CMR17-65" transform="translate(241.424629 0)scale(0.996264)"/>
      <use xlink:href="#CMR17-56" transform="translate(281.910289 0)scale(0.996264)"/>
      <use xlink:href="#CMR17-29" transform="translate(350.982719 0)scale(0.996264)"/>
      <use xlink:href="#CMR17-45" transform="translate(416.339453 0)scale(0.996264)"/>
      <use xlink:href="#CMR17-53" transform="translate(478.925754 0)scale(0.996264)"/>
      <use xlink:href="#CMR17-65" transform="translate(559.89709 0)scale(0.996264)"/>
      <use xlink:href="#CMR17-76" transform="translate(600.38275 0)scale(0.996264)"/>
      <use xlink:href="#CMR17-65" transform="translate(646.073212 0)scale(0.996264)"/>
      <use xlink:href="#CMR17-6e" transform="translate(686.558873 0)scale(0.996264)"/>
      <use xlink:href="#CMR17-74" transform="translate(734.851789 0)scale(0.996264)"/>
      <use xlink:href="#CMR17-73" transform="translate(770.132557 0)scale(0.996264)"/>
     </g>
    </g>
    <g id="line2d_20">
     <path d="M 360.116552 90.912011 
L 370.116552 90.912011 
L 380.116552 90.912011 
" style="fill: none; stroke: #8a226a; stroke-width: 1.5; stroke-linecap: square"/>
    </g>
    <g id="text_19">
     <!-- Only ES -->
     <g transform="translate(388.116552 94.412011)scale(0.1 -0.1)">
      <defs>
       <path id="CMR17-4f" d="M 4307 2166 
C 4307 3488 3366 4480 2304 4480 
C 1216 4480 294 3475 294 2166 
C 294 857 1229 -128 2298 -128 
C 3392 -128 4307 876 4307 2166 
z
M 2304 -13 
C 1574 -13 781 722 781 2250 
C 781 3771 1651 4364 2298 4364 
C 2976 4364 3821 3752 3821 2250 
C 3821 696 3008 -13 2304 -13 
z
" transform="scale(0.015625)"/>
      </defs>
      <use xlink:href="#CMR17-4f" transform="scale(0.996264)"/>
      <use xlink:href="#CMR17-6e" transform="translate(71.714788 0)scale(0.996264)"/>
      <use xlink:href="#CMR17-6c" transform="translate(122.610158 0)scale(0.996264)"/>
      <use xlink:href="#CMR17-79" transform="translate(147.481217 0)scale(0.996264)"/>
      <use xlink:href="#CMR17-45" transform="translate(225.850099 0)scale(0.996264)"/>
      <use xlink:href="#CMR17-53" transform="translate(288.436399 0)scale(0.996264)"/>
     </g>
    </g>
    <g id="line2d_21">
     <path d="M 360.116552 115.975653 
L 370.116552 115.975653 
L 380.116552 115.975653 
" style="fill: none; stroke: #e45a31; stroke-width: 1.5; stroke-linecap: square"/>
    </g>
    <g id="text_20">
     <!-- All data + IBD  -->
     <g transform="translate(388.116552 108.267687)scale(0.1 -0.1)">
      <defs>
       <path id="CMR17-41" d="M 2323 4441 
C 2291 4524 2278 4544 2214 4544 
C 2150 4544 2138 4524 2106 4441 
L 749 580 
C 627 236 371 166 147 166 
L 147 0 
C 262 12 518 12 640 12 
C 800 12 1056 12 1210 0 
L 1210 166 
C 909 179 864 382 864 459 
C 864 516 877 548 890 586 
L 1229 1536 
L 2906 1536 
L 3290 453 
C 3322 376 3322 363 3322 338 
C 3322 166 3046 166 2925 166 
L 2925 0 
C 3110 12 3443 12 3642 12 
C 3808 12 4128 12 4282 0 
L 4282 166 
C 3942 166 3827 166 3744 402 
L 2323 4441 
z
M 2067 3924 
L 2848 1702 
L 1286 1702 
L 2067 3924 
z
" transform="scale(0.015625)"/>
       <path id="CMR17-2b" d="M 2413 1472 
L 4109 1472 
C 4198 1472 4307 1472 4307 1580 
C 4307 1696 4205 1696 4109 1696 
L 2413 1696 
L 2413 3385 
C 2413 3475 2413 3584 2304 3584 
C 2189 3584 2189 3481 2189 3385 
L 2189 1696 
L 493 1696 
C 403 1696 294 1696 294 1587 
C 294 1472 397 1472 493 1472 
L 2189 1472 
L 2189 -194 
C 2189 -282 2189 -391 2298 -391 
C 2413 -391 2413 -289 2413 -194 
L 2413 1472 
z
" transform="scale(0.015625)"/>
       <path id="CMR17-49" d="M 1261 3898 
C 1261 4185 1338 4185 1798 4185 
L 1798 4352 
C 1594 4339 1267 4339 1050 4339 
C 832 4339 506 4339 301 4352 
L 301 4185 
C 762 4185 838 4185 838 3898 
L 838 453 
C 838 166 762 166 301 166 
L 301 0 
C 506 12 832 12 1050 12 
C 1267 12 1594 12 1798 0 
L 1798 166 
C 1338 166 1261 166 1261 453 
L 1261 3898 
z
" transform="scale(0.015625)"/>
       <path id="CMR17-42" d="M 333 4352 
L 333 4185 
C 774 4185 845 4185 845 3897 
L 845 451 
C 845 166 774 166 333 166 
L 333 0 
L 2534 0 
C 3354 0 3885 578 3885 1155 
C 3885 1726 3360 2214 2675 2259 
C 3290 2380 3718 2790 3718 3276 
C 3718 3808 3194 4352 2368 4352 
L 333 4352 
z
M 1248 2304 
L 1248 3936 
C 1248 4153 1261 4185 1517 4185 
L 2336 4185 
C 2970 4185 3251 3673 3251 3276 
C 3251 2790 2861 2304 2170 2304 
L 1248 2304 
z
M 1517 166 
C 1261 166 1248 198 1248 413 
L 1248 2201 
L 2432 2201 
C 3091 2201 3411 1624 3411 1161 
C 3411 698 3046 166 2349 166 
L 1517 166 
z
" transform="scale(0.015625)"/>
       <path id="CMR17-44" d="M 333 4352 
L 333 4185 
C 774 4185 845 4185 845 3898 
L 845 453 
C 845 166 774 166 333 166 
L 333 0 
L 2368 0 
C 3398 0 4224 943 4224 2140 
C 4224 3344 3411 4352 2368 4352 
L 333 4352 
z
M 1523 166 
C 1267 166 1254 198 1254 414 
L 1254 3936 
C 1254 4153 1267 4185 1523 4185 
L 2240 4185 
C 2771 4185 3750 3873 3750 2140 
C 3750 1242 3488 879 3366 707 
C 3213 510 2848 166 2240 166 
L 1523 166 
z
" transform="scale(0.015625)"/>
      </defs>
      <use xlink:href="#CMR17-41" transform="scale(0.996264)"/>
      <use xlink:href="#CMR17-6c" transform="translate(69.07243 0)scale(0.996264)"/>
      <use xlink:href="#CMR17-6c" transform="translate(93.943488 0)scale(0.996264)"/>
      <use xlink:href="#CMR17-64" transform="translate(148.890513 0)scale(0.996264)"/>
      <use xlink:href="#CMR17-61" transform="translate(199.785883 0)scale(0.996264)"/>
      <use xlink:href="#CMR17-74" transform="translate(245.47636 0)scale(0.996264)"/>
      <use xlink:href="#CMR17-61" transform="translate(280.757128 0)scale(0.996264)"/>
      <use xlink:href="#CMR17-2b" transform="translate(356.523571 0)scale(0.996264)"/>
      <use xlink:href="#CMR17-49" transform="translate(458.314326 0)scale(0.996264)"/>
      <use xlink:href="#CMR17-42" transform="translate(490.952735 0)scale(0.996264)"/>
      <use xlink:href="#CMR17-44" transform="translate(556.14149 0)scale(0.996264)"/>
     </g>
     <!--  tagging + energy  -->
     <g transform="translate(388.116552 118.507064)scale(0.1 -0.1)">
      <use xlink:href="#CMR17-74" transform="scale(0.996264)"/>
      <use xlink:href="#CMR17-61" transform="translate(35.280768 0)scale(0.996264)"/>
      <use xlink:href="#CMR17-67" transform="translate(80.971245 0)scale(0.996264)"/>
      <use xlink:href="#CMR17-67" transform="translate(126.661722 0)scale(0.996264)"/>
      <use xlink:href="#CMR17-69" transform="translate(172.352199 0)scale(0.996264)"/>
      <use xlink:href="#CMR17-6e" transform="translate(197.223258 0)scale(0.996264)"/>
      <use xlink:href="#CMR17-67" transform="translate(248.118627 0)scale(0.996264)"/>
      <use xlink:href="#CMR17-2b" transform="translate(323.885071 0)scale(0.996264)"/>
      <use xlink:href="#CMR17-65" transform="translate(425.675826 0)scale(0.996264)"/>
      <use xlink:href="#CMR17-6e" transform="translate(466.161486 0)scale(0.996264)"/>
      <use xlink:href="#CMR17-65" transform="translate(517.056856 0)scale(0.996264)"/>
      <use xlink:href="#CMR17-72" transform="translate(557.542516 0)scale(0.996264)"/>
      <use xlink:href="#CMR17-67" transform="translate(592.823284 0)scale(0.996264)"/>
      <use xlink:href="#CMR17-79" transform="translate(638.513761 0)scale(0.996264)"/>
     </g>
     <!--  truncation -->
     <g transform="translate(388.116552 128.74644)scale(0.1 -0.1)">
      <use xlink:href="#CMR17-74" transform="scale(0.996264)"/>
      <use xlink:href="#CMR17-72" transform="translate(35.280768 0)scale(0.996264)"/>
      <use xlink:href="#CMR17-75" transform="translate(70.561536 0)scale(0.996264)"/>
      <use xlink:href="#CMR17-6e" transform="translate(121.456905 0)scale(0.996264)"/>
      <use xlink:href="#CMR17-63" transform="translate(172.352275 0)scale(0.996264)"/>
      <use xlink:href="#CMR17-61" transform="translate(212.837936 0)scale(0.996264)"/>
      <use xlink:href="#CMR17-74" transform="translate(258.528413 0)scale(0.996264)"/>
      <use xlink:href="#CMR17-69" transform="translate(293.809181 0)scale(0.996264)"/>
      <use xlink:href="#CMR17-6f" transform="translate(318.680239 0)scale(0.996264)"/>
      <use xlink:href="#CMR17-6e" transform="translate(364.370716 0)scale(0.996264)"/>
     </g>
    </g>
    <g id="line2d_22">
     <path d="M 360.116552 145.190394 
L 370.116552 145.190394 
L 380.116552 145.190394 
" style="fill: none; stroke: #f9cb35; stroke-width: 1.5; stroke-linecap: square"/>
    </g>
    <g id="text_21">
     <!-- All data + IBD  -->
     <g transform="translate(388.116552 142.602117)scale(0.1 -0.1)">
      <use xlink:href="#CMR17-41" transform="scale(0.996264)"/>
      <use xlink:href="#CMR17-6c" transform="translate(69.07243 0)scale(0.996264)"/>
      <use xlink:href="#CMR17-6c" transform="translate(93.943488 0)scale(0.996264)"/>
      <use xlink:href="#CMR17-64" transform="translate(148.890513 0)scale(0.996264)"/>
      <use xlink:href="#CMR17-61" transform="translate(199.785883 0)scale(0.996264)"/>
      <use xlink:href="#CMR17-74" transform="translate(245.47636 0)scale(0.996264)"/>
      <use xlink:href="#CMR17-61" transform="translate(280.757128 0)scale(0.996264)"/>
      <use xlink:href="#CMR17-2b" transform="translate(356.523571 0)scale(0.996264)"/>
      <use xlink:href="#CMR17-49" transform="translate(458.314326 0)scale(0.996264)"/>
      <use xlink:href="#CMR17-42" transform="translate(490.952735 0)scale(0.996264)"/>
      <use xlink:href="#CMR17-44" transform="translate(556.14149 0)scale(0.996264)"/>
     </g>
     <!--  tagging -->
     <g transform="translate(388.116552 152.841493)scale(0.1 -0.1)">
      <use xlink:href="#CMR17-74" transform="scale(0.996264)"/>
      <use xlink:href="#CMR17-61" transform="translate(35.280768 0)scale(0.996264)"/>
      <use xlink:href="#CMR17-67" transform="translate(80.971245 0)scale(0.996264)"/>
      <use xlink:href="#CMR17-67" transform="translate(126.661722 0)scale(0.996264)"/>
      <use xlink:href="#CMR17-69" transform="translate(172.352199 0)scale(0.996264)"/>
      <use xlink:href="#CMR17-6e" transform="translate(197.223258 0)scale(0.996264)"/>
      <use xlink:href="#CMR17-67" transform="translate(248.118627 0)scale(0.996264)"/>
     </g>
    </g>
   </g>
  </g>
 </g>
 <defs>
  <clipPath id="p561d5a6db3">
   <rect x="45.555547" y="53.099298" width="446.4" height="277.2"/>
  </clipPath>
 </defs>
</svg>
