<?xml version="1.0" encoding="utf-8" standalone="no"?>
<!DOCTYPE svg PUBLIC "-//W3C//DTD SVG 1.1//EN"
  "http://www.w3.org/Graphics/SVG/1.1/DTD/svg11.dtd">
<svg xmlns:xlink="http://www.w3.org/1999/xlink" width="502.475707pt" height="374.402162pt" viewBox="0 0 502.475707 374.402162" xmlns="http://www.w3.org/2000/svg" version="1.1">
 <metadata>
  <rdf:RDF xmlns:dc="http://purl.org/dc/elements/1.1/" xmlns:cc="http://creativecommons.org/ns#" xmlns:rdf="http://www.w3.org/1999/02/22-rdf-syntax-ns#">
   <cc:Work>
    <dc:type rdf:resource="http://purl.org/dc/dcmitype/StillImage"/>
    <dc:date>2023-04-30T22:17:17.235636</dc:date>
    <dc:format>image/svg+xml</dc:format>
    <dc:creator>
     <cc:Agent>
      <dc:title>Matplotlib v3.5.1, https://matplotlib.org/</dc:title>
     </cc:Agent>
    </dc:creator>
   </cc:Work>
  </rdf:RDF>
 </metadata>
 <defs>
  <style type="text/css">*{stroke-linejoin: round; stroke-linecap: butt}</style>
 </defs>
 <g id="figure_1">
  <g id="patch_1">
   <path d="M 0 374.402162 
L 502.475707 374.402162 
L 502.475707 -0 
L 0 -0 
z
" style="fill: #ffffff"/>
  </g>
  <g id="axes_1">
   <g id="patch_2">
    <path d="M 45.555547 330.299298 
L 491.955547 330.299298 
L 491.955547 53.099298 
L 45.555547 53.099298 
z
" style="fill: #ffffff"/>
   </g>
   <g id="matplotlib.axis_1">
    <g id="xtick_1">
     <g id="line2d_1">
      <defs>
       <path id="m4b4083140b" d="M 0 0 
L 0 3.5 
" style="stroke: #000000; stroke-width: 0.8"/>
      </defs>
      <g>
       <use xlink:href="#m4b4083140b" x="45.555547" y="330.299298" style="stroke: #000000; stroke-width: 0.8"/>
      </g>
     </g>
     <g id="text_1">
      <!-- 0 -->
      <g transform="translate(42.629051 345.601478)scale(0.12 -0.12)">
       <defs>
        <path id="CMR17-30" d="M 2688 2038 
C 2688 2430 2682 3099 2413 3613 
C 2176 4063 1798 4224 1466 4224 
C 1158 4224 768 4082 525 3620 
C 269 3137 243 2539 243 2038 
C 243 1671 250 1112 448 623 
C 723 -39 1216 -128 1466 -128 
C 1760 -128 2208 -7 2470 604 
C 2662 1048 2688 1568 2688 2038 
z
M 1466 -26 
C 1056 -26 813 328 723 816 
C 653 1196 653 1749 653 2109 
C 653 2604 653 3015 736 3407 
C 858 3954 1216 4121 1466 4121 
C 1728 4121 2067 3947 2189 3420 
C 2272 3054 2278 2623 2278 2109 
C 2278 1691 2278 1176 2202 797 
C 2067 96 1690 -26 1466 -26 
z
" transform="scale(0.015625)"/>
       </defs>
       <use xlink:href="#CMR17-30" transform="scale(0.996264)"/>
      </g>
     </g>
    </g>
    <g id="xtick_2">
     <g id="line2d_2">
      <g>
       <use xlink:href="#m4b4083140b" x="157.155547" y="330.299298" style="stroke: #000000; stroke-width: 0.8"/>
      </g>
     </g>
     <g id="text_2">
      <!-- $\pi/4$ -->
      <g transform="translate(147.767922 346.265674)scale(0.12 -0.12)">
       <defs>
        <path id="CMMI12-19" d="M 1658 2406 
L 2381 2406 
C 2208 1691 2099 1225 2099 715 
C 2099 625 2099 -64 2362 -64 
C 2496 -64 2611 57 2611 166 
C 2611 198 2611 210 2566 306 
C 2394 746 2394 1295 2394 1340 
C 2394 1378 2394 1832 2528 2406 
L 3245 2406 
C 3328 2406 3539 2406 3539 2611 
C 3539 2752 3418 2752 3302 2752 
L 1197 2752 
C 1050 2752 832 2752 538 2438 
C 371 2253 166 1915 166 1876 
C 166 1838 198 1825 237 1825 
C 282 1825 288 1844 320 1883 
C 653 2406 986 2406 1146 2406 
L 1510 2406 
C 1370 1927 1210 1372 685 255 
C 634 153 634 140 634 102 
C 634 -32 749 -64 806 -64 
C 992 -64 1043 102 1120 370 
C 1222 695 1222 708 1286 964 
L 1658 2406 
z
" transform="scale(0.015625)"/>
        <path id="CMMI12-3d" d="M 2746 4563 
C 2746 4569 2784 4665 2784 4678 
C 2784 4755 2720 4800 2669 4800 
C 2637 4800 2579 4800 2528 4659 
L 384 -1364 
C 384 -1370 346 -1466 346 -1479 
C 346 -1556 410 -1600 461 -1600 
C 499 -1600 557 -1594 602 -1460 
L 2746 4563 
z
" transform="scale(0.015625)"/>
        <path id="CMR17-34" d="M 2150 4147 
C 2150 4281 2144 4288 2029 4288 
L 128 1254 
L 128 1088 
L 1779 1088 
L 1779 460 
C 1779 230 1766 166 1318 166 
L 1197 166 
L 1197 0 
C 1402 12 1747 12 1965 12 
C 2182 12 2528 12 2733 0 
L 2733 166 
L 2611 166 
C 2163 166 2150 230 2150 460 
L 2150 1088 
L 2803 1088 
L 2803 1254 
L 2150 1254 
L 2150 4147 
z
M 1798 3723 
L 1798 1254 
L 256 1254 
L 1798 3723 
z
" transform="scale(0.015625)"/>
       </defs>
       <use xlink:href="#CMMI12-19" transform="scale(0.996264)"/>
       <use xlink:href="#CMMI12-3d" transform="translate(58.910601 0)scale(0.996264)"/>
       <use xlink:href="#CMR17-34" transform="translate(107.68552 0)scale(0.996264)"/>
      </g>
     </g>
    </g>
    <g id="xtick_3">
     <g id="line2d_3">
      <g>
       <use xlink:href="#m4b4083140b" x="268.755547" y="330.299298" style="stroke: #000000; stroke-width: 0.8"/>
      </g>
     </g>
     <g id="text_3">
      <!-- $\pi/2$ -->
      <g transform="translate(259.367922 346.265674)scale(0.12 -0.12)">
       <defs>
        <path id="CMR17-32" d="M 2669 990 
L 2554 990 
C 2490 537 2438 460 2413 422 
C 2381 371 1920 371 1830 371 
L 602 371 
C 832 620 1280 1073 1824 1596 
C 2214 1966 2669 2400 2669 3033 
C 2669 3788 2067 4224 1395 4224 
C 691 4224 262 3603 262 3027 
C 262 2777 448 2745 525 2745 
C 589 2745 781 2783 781 3007 
C 781 3206 614 3264 525 3264 
C 486 3264 448 3257 422 3244 
C 544 3788 915 4057 1306 4057 
C 1862 4057 2227 3616 2227 3033 
C 2227 2477 1901 1998 1536 1583 
L 262 147 
L 262 0 
L 2515 0 
L 2669 990 
z
" transform="scale(0.015625)"/>
       </defs>
       <use xlink:href="#CMMI12-19" transform="scale(0.996264)"/>
       <use xlink:href="#CMMI12-3d" transform="translate(58.910601 0)scale(0.996264)"/>
       <use xlink:href="#CMR17-32" transform="translate(107.68552 0)scale(0.996264)"/>
      </g>
     </g>
    </g>
    <g id="xtick_4">
     <g id="line2d_4">
      <g>
       <use xlink:href="#m4b4083140b" x="380.355547" y="330.299298" style="stroke: #000000; stroke-width: 0.8"/>
      </g>
     </g>
     <g id="text_4">
      <!-- $3 \pi/4$ -->
      <g transform="translate(368.041426 346.265674)scale(0.12 -0.12)">
       <defs>
        <path id="CMR17-33" d="M 1414 2176 
C 1984 2176 2234 1673 2234 1094 
C 2234 322 1824 25 1453 25 
C 1114 25 563 193 390 691 
C 422 678 454 678 486 678 
C 640 678 755 780 755 947 
C 755 1132 614 1216 486 1216 
C 378 1216 211 1164 211 927 
C 211 335 787 -128 1466 -128 
C 2176 -128 2720 432 2720 1087 
C 2720 1718 2208 2176 1600 2246 
C 2086 2347 2554 2776 2554 3353 
C 2554 3856 2048 4224 1472 4224 
C 890 4224 378 3862 378 3347 
C 378 3123 544 3084 627 3084 
C 762 3084 877 3167 877 3334 
C 877 3500 762 3584 627 3584 
C 602 3584 570 3584 544 3571 
C 730 3999 1235 4076 1459 4076 
C 1683 4076 2106 3966 2106 3347 
C 2106 3167 2080 2851 1862 2574 
C 1670 2329 1453 2316 1242 2297 
C 1210 2297 1062 2284 1037 2284 
C 992 2278 966 2272 966 2227 
C 966 2182 973 2176 1101 2176 
L 1414 2176 
z
" transform="scale(0.015625)"/>
       </defs>
       <use xlink:href="#CMR17-33" transform="scale(0.996264)"/>
       <use xlink:href="#CMMI12-19" transform="translate(45.690477 0)scale(0.996264)"/>
       <use xlink:href="#CMMI12-3d" transform="translate(104.601078 0)scale(0.996264)"/>
       <use xlink:href="#CMR17-34" transform="translate(153.375997 0)scale(0.996264)"/>
      </g>
     </g>
    </g>
    <g id="xtick_5">
     <g id="line2d_5">
      <g>
       <use xlink:href="#m4b4083140b" x="491.955547" y="330.299298" style="stroke: #000000; stroke-width: 0.8"/>
      </g>
     </g>
     <g id="text_5">
      <!-- $\pi$ -->
      <g transform="translate(488.635386 345.601478)scale(0.12 -0.12)">
       <use xlink:href="#CMMI12-19" transform="scale(0.996264)"/>
      </g>
     </g>
    </g>
    <g id="text_6">
     <!-- Supernova azimuthal angle ($\phi$) [rad] -->
     <g transform="translate(160.769389 363.715238)scale(0.14 -0.14)">
      <defs>
       <path id="CMR17-53" d="M 2803 4351 
C 2803 4467 2797 4473 2758 4473 
C 2720 4473 2707 4447 2682 4390 
L 2490 3965 
C 2246 4320 1875 4480 1472 4480 
C 819 4480 294 3958 294 3301 
C 294 3101 339 2817 557 2546 
C 794 2250 1018 2198 1530 2063 
C 1722 2011 2042 1927 2106 1901 
C 2470 1747 2662 1360 2662 999 
C 2662 534 2336 38 1779 38 
C 1094 38 454 425 410 1328 
C 403 1431 397 1437 352 1437 
C 301 1437 294 1431 294 1302 
L 294 0 
C 294 -116 301 -122 339 -122 
C 384 -122 397 -90 486 109 
C 493 128 493 141 614 386 
C 934 -39 1472 -128 1779 -128 
C 2477 -128 2970 457 2970 1141 
C 2970 1476 2848 1734 2778 1850 
C 2509 2263 2221 2340 1914 2417 
C 1869 2437 1856 2437 1498 2527 
C 1152 2617 1005 2662 845 2836 
C 666 3036 602 3243 602 3449 
C 602 3868 934 4326 1478 4326 
C 2157 4326 2579 3842 2675 3036 
C 2694 2920 2701 2914 2746 2914 
C 2803 2914 2803 2933 2803 3043 
L 2803 4351 
z
" transform="scale(0.015625)"/>
       <path id="CMR17-75" d="M 1882 2745 
L 1882 2579 
C 2259 2579 2317 2540 2317 2229 
L 2317 1053 
C 2317 510 2029 38 1555 38 
C 1030 38 986 355 986 691 
L 986 2816 
L 211 2745 
L 211 2579 
C 467 2579 640 2579 646 2320 
L 646 1079 
C 646 646 646 368 813 187 
C 896 103 1056 -64 1517 -64 
C 2061 -64 2272 400 2323 536 
L 2330 536 
L 2330 -64 
L 3091 -13 
L 3091 154 
C 2714 154 2656 193 2656 503 
L 2656 2816 
L 1882 2745 
z
" transform="scale(0.015625)"/>
       <path id="CMR17-70" d="M 1408 -1114 
C 998 -1114 973 -1088 973 -834 
L 973 380 
C 1158 109 1427 -64 1766 -64 
C 2406 -64 3053 503 3053 1382 
C 3053 2196 2496 2816 1837 2816 
C 1453 2816 1139 2603 960 2345 
L 960 2816 
L 198 2745 
L 198 2577 
C 576 2577 634 2539 634 2228 
L 634 -834 
C 634 -1081 608 -1114 198 -1114 
L 198 -1280 
C 352 -1268 634 -1268 800 -1268 
C 966 -1268 1254 -1268 1408 -1280 
L 1408 -1114 
z
M 973 2015 
C 973 2106 973 2241 1222 2481 
C 1254 2506 1472 2700 1792 2700 
C 2259 2700 2643 2112 2643 1376 
C 2643 639 2234 38 1728 38 
C 1498 38 1248 148 1056 451 
C 973 594 973 632 973 736 
L 973 2015 
z
" transform="scale(0.015625)"/>
       <path id="CMR17-65" d="M 2438 1503 
C 2464 1529 2464 1542 2464 1606 
C 2464 2251 2118 2816 1389 2816 
C 710 2816 173 2175 173 1394 
C 173 554 781 -64 1459 -64 
C 2176 -64 2458 619 2458 755 
C 2458 800 2419 800 2406 800 
C 2362 800 2355 787 2330 709 
C 2189 270 1837 51 1504 51 
C 1229 51 954 206 781 490 
C 582 819 582 1200 582 1503 
L 2438 1503 
z
M 589 1600 
C 634 2511 1126 2713 1382 2713 
C 1818 2713 2112 2308 2118 1600 
L 589 1600 
z
" transform="scale(0.015625)"/>
       <path id="CMR17-72" d="M 960 1517 
C 960 2134 1222 2713 1702 2713 
C 1747 2713 1792 2707 1837 2687 
C 1837 2687 1696 2642 1696 2475 
C 1696 2321 1818 2257 1914 2257 
C 1990 2257 2131 2302 2131 2482 
C 2131 2687 1926 2816 1709 2816 
C 1222 2816 1011 2340 947 2115 
L 941 2115 
L 941 2816 
L 198 2745 
L 198 2578 
C 576 2578 634 2540 634 2231 
L 634 443 
C 634 198 608 166 198 166 
L 198 0 
C 352 12 646 12 813 12 
C 998 12 1325 12 1498 0 
L 1498 166 
C 1037 166 960 166 960 455 
L 960 1517 
z
" transform="scale(0.015625)"/>
       <path id="CMR17-6e" d="M 2656 1954 
C 2656 2282 2592 2816 1837 2816 
C 1331 2816 1069 2424 973 2166 
L 966 2166 
L 966 2816 
L 211 2745 
L 211 2578 
C 589 2578 646 2540 646 2231 
L 646 443 
C 646 198 621 166 211 166 
L 211 0 
C 365 12 646 12 813 12 
C 979 12 1267 12 1421 0 
L 1421 166 
C 1011 166 986 192 986 443 
L 986 1678 
C 986 2269 1344 2713 1792 2713 
C 2266 2713 2317 2289 2317 1980 
L 2317 443 
C 2317 198 2291 166 1882 166 
L 1882 0 
C 2035 12 2317 12 2483 12 
C 2650 12 2938 12 3091 0 
L 3091 166 
C 2682 166 2656 192 2656 443 
L 2656 1954 
z
" transform="scale(0.015625)"/>
       <path id="CMR17-6f" d="M 2758 1356 
C 2758 2176 2163 2816 1466 2816 
C 768 2816 173 2176 173 1356 
C 173 550 768 -64 1466 -64 
C 2163 -64 2758 550 2758 1356 
z
M 1466 51 
C 1165 51 909 230 762 480 
C 602 768 582 1126 582 1408 
C 582 1676 595 2009 762 2297 
C 890 2508 1139 2713 1466 2713 
C 1754 2713 1997 2553 2150 2329 
C 2349 2028 2349 1606 2349 1408 
C 2349 1158 2336 774 2163 467 
C 1984 172 1709 51 1466 51 
z
" transform="scale(0.015625)"/>
       <path id="CMR17-76" d="M 2502 2173 
C 2560 2315 2662 2572 3034 2585 
L 3034 2752 
C 2912 2745 2752 2739 2630 2739 
C 2496 2739 2285 2739 2157 2752 
L 2157 2585 
C 2317 2572 2406 2495 2406 2328 
C 2406 2270 2406 2257 2368 2167 
L 1664 379 
L 902 2308 
C 864 2392 864 2405 864 2431 
C 864 2585 1075 2585 1171 2585 
L 1171 2752 
C 1018 2739 736 2739 576 2739 
C 403 2739 205 2739 64 2752 
L 64 2585 
C 307 2585 442 2585 518 2386 
L 1446 44 
C 1485 -52 1491 -64 1549 -64 
C 1606 -64 1613 -52 1651 44 
L 2502 2173 
z
" transform="scale(0.015625)"/>
       <path id="CMR17-61" d="M 2304 1656 
C 2304 2048 2304 2275 2035 2534 
C 1798 2751 1523 2816 1306 2816 
C 800 2816 435 2408 435 1977 
C 435 1740 627 1728 666 1728 
C 749 1728 896 1779 896 1958 
C 896 2118 774 2188 666 2188 
C 640 2188 608 2182 589 2176 
C 723 2594 1069 2713 1293 2713 
C 1613 2713 1965 2421 1965 1875 
L 1965 1632 
C 1587 1619 1133 1568 774 1373 
C 371 1147 256 822 256 576 
C 256 77 832 -64 1171 -64 
C 1523 -64 1850 135 1990 505 
C 2003 219 2182 -39 2464 -39 
C 2598 -39 2938 51 2938 563 
L 2938 926 
L 2822 926 
L 2822 557 
C 2822 161 2650 109 2566 109 
C 2304 109 2304 446 2304 732 
L 2304 1656 
z
M 1965 887 
C 1965 323 1568 38 1216 38 
C 896 38 646 278 646 576 
C 646 771 730 1114 1101 1322 
C 1408 1497 1760 1523 1965 1536 
L 1965 887 
z
" transform="scale(0.015625)"/>
       <path id="CMR17-7a" d="M 2310 2604 
C 2362 2668 2362 2681 2362 2694 
C 2362 2752 2336 2752 2221 2752 
L 275 2752 
L 211 1760 
L 326 1760 
C 371 2380 442 2649 1178 2649 
L 1958 2649 
L 128 96 
C 128 6 134 0 269 0 
L 2291 0 
L 2381 1152 
L 2266 1152 
C 2214 441 2131 115 1350 115 
L 531 115 
L 2310 2604 
z
" transform="scale(0.015625)"/>
       <path id="CMR17-69" d="M 992 3961 
C 992 4102 877 4224 730 4224 
C 589 4224 467 4108 467 3961 
C 467 3820 582 3699 730 3699 
C 870 3699 992 3814 992 3961 
z
M 243 2745 
L 243 2579 
C 602 2579 653 2540 653 2231 
L 653 443 
C 653 198 627 166 218 166 
L 218 0 
C 371 12 646 12 806 12 
C 960 12 1222 12 1370 0 
L 1370 166 
C 992 166 979 205 979 436 
L 979 2816 
L 243 2745 
z
" transform="scale(0.015625)"/>
       <path id="CMR17-6d" d="M 4326 1954 
C 4326 2276 4269 2816 3507 2816 
C 3072 2816 2771 2520 2656 2173 
L 2650 2173 
C 2573 2700 2195 2816 1837 2816 
C 1331 2816 1069 2424 973 2166 
L 966 2166 
L 966 2816 
L 211 2745 
L 211 2578 
C 589 2578 646 2540 646 2231 
L 646 443 
C 646 198 621 166 211 166 
L 211 0 
C 365 12 646 12 813 12 
C 979 12 1267 12 1421 0 
L 1421 166 
C 1011 166 986 192 986 443 
L 986 1678 
C 986 2269 1344 2713 1792 2713 
C 2266 2713 2317 2289 2317 1980 
L 2317 443 
C 2317 198 2291 166 1882 166 
L 1882 0 
C 2035 12 2317 12 2483 12 
C 2650 12 2938 12 3091 0 
L 3091 166 
C 2682 166 2656 192 2656 443 
L 2656 1678 
C 2656 2269 3014 2713 3462 2713 
C 3936 2713 3987 2289 3987 1980 
L 3987 443 
C 3987 198 3962 166 3552 166 
L 3552 0 
C 3706 12 3987 12 4154 12 
C 4320 12 4608 12 4762 0 
L 4762 166 
C 4352 166 4326 192 4326 443 
L 4326 1954 
z
" transform="scale(0.015625)"/>
       <path id="CMR17-74" d="M 966 2585 
L 1862 2585 
L 1862 2752 
L 966 2752 
L 966 3968 
L 851 3968 
C 838 3292 614 2700 70 2687 
L 70 2585 
L 627 2585 
L 627 778 
C 627 655 627 -64 1370 -64 
C 1747 -64 1965 308 1965 784 
L 1965 1151 
L 1850 1151 
L 1850 790 
C 1850 347 1677 51 1408 51 
C 1222 51 966 179 966 765 
L 966 2585 
z
" transform="scale(0.015625)"/>
       <path id="CMR17-68" d="M 2656 1954 
C 2656 2282 2592 2816 1837 2816 
C 1312 2816 1056 2392 979 2179 
L 973 2179 
L 973 4416 
L 211 4345 
L 211 4179 
C 589 4179 646 4141 646 3843 
L 646 443 
C 646 198 621 166 211 166 
L 211 0 
C 365 12 646 12 813 12 
C 979 12 1267 12 1421 0 
L 1421 166 
C 1011 166 986 192 986 443 
L 986 1678 
C 986 2269 1344 2713 1792 2713 
C 2266 2713 2317 2289 2317 1980 
L 2317 443 
C 2317 198 2291 166 1882 166 
L 1882 0 
C 2035 12 2317 12 2483 12 
C 2650 12 2938 12 3091 0 
L 3091 166 
C 2682 166 2656 192 2656 443 
L 2656 1954 
z
" transform="scale(0.015625)"/>
       <path id="CMR17-6c" d="M 979 4416 
L 218 4345 
L 218 4179 
C 595 4179 653 4141 653 3835 
L 653 439 
C 653 198 627 166 218 166 
L 218 0 
C 371 12 653 12 813 12 
C 979 12 1261 12 1414 0 
L 1414 166 
C 1005 166 979 191 979 439 
L 979 4416 
z
" transform="scale(0.015625)"/>
       <path id="CMR17-67" d="M 710 1165 
C 832 1068 1043 960 1299 960 
C 1805 960 2240 1359 2240 1895 
C 2240 2063 2189 2321 1997 2521 
C 2176 2713 2438 2777 2586 2777 
C 2611 2777 2650 2777 2682 2758 
C 2656 2751 2598 2726 2598 2623 
C 2598 2540 2656 2483 2739 2483 
C 2835 2483 2886 2547 2886 2630 
C 2886 2751 2790 2880 2586 2880 
C 2330 2880 2106 2758 1926 2591 
C 1734 2764 1504 2828 1299 2828 
C 794 2828 358 2431 358 1895 
C 358 1527 570 1294 634 1230 
C 442 1004 442 742 442 710 
C 442 544 506 300 723 166 
C 390 82 128 -184 128 -517 
C 128 -996 736 -1344 1466 -1344 
C 2170 -1344 2803 -1009 2803 -510 
C 2803 384 1856 384 1363 384 
C 1216 384 954 384 922 390 
C 723 422 589 601 589 825 
C 589 883 589 1024 710 1165 
z
M 1299 1068 
C 736 1068 736 1766 736 1895 
C 736 2024 736 2719 1299 2719 
C 1862 2719 1862 2024 1862 1895 
C 1862 1766 1862 1068 1299 1068 
z
M 1466 -1236 
C 826 -1236 384 -883 384 -517 
C 384 -311 493 -118 634 -11 
C 794 102 858 102 1293 102 
C 1818 102 2547 102 2547 -517 
C 2547 -883 2106 -1236 1466 -1236 
z
" transform="scale(0.015625)"/>
       <path id="CMR17-28" d="M 1958 -1562 
C 1958 -1556 1958 -1543 1939 -1524 
C 1645 -1223 858 -403 858 1596 
C 858 3595 1632 4408 1946 4729 
C 1946 4735 1958 4748 1958 4767 
C 1958 4787 1939 4800 1914 4800 
C 1843 4800 1299 4325 986 3620 
C 666 2909 576 2218 576 1603 
C 576 1141 621 360 1005 -467 
C 1312 -1133 1837 -1600 1914 -1600 
C 1946 -1600 1958 -1588 1958 -1562 
z
" transform="scale(0.015625)"/>
       <path id="CMMI12-1e" d="M 2752 4358 
C 2752 4416 2707 4416 2688 4416 
C 2630 4416 2624 4403 2598 4294 
L 2253 2924 
C 2234 2841 2227 2835 2221 2828 
C 2214 2816 2170 2809 2157 2809 
C 1107 2720 301 1863 301 1071 
C 301 387 832 -32 1498 -71 
C 1446 -266 1402 -467 1350 -662 
C 1261 -995 1210 -1204 1210 -1229 
C 1210 -1242 1210 -1280 1274 -1280 
C 1293 -1280 1318 -1280 1331 -1255 
C 1344 -1242 1382 -1089 1408 -1008 
L 1645 -71 
C 2739 -13 3571 875 3571 1673 
C 3571 2313 3085 2771 2374 2816 
L 2752 4358 
z
M 2336 2688 
C 2758 2662 3181 2428 3181 1806 
C 3181 1090 2675 140 1677 64 
L 2336 2688 
z
M 1530 57 
C 1216 76 691 241 691 938 
C 691 1737 1274 2624 2195 2681 
L 1530 57 
z
" transform="scale(0.015625)"/>
       <path id="CMR17-29" d="M 1683 1596 
C 1683 2057 1638 2839 1254 3665 
C 947 4332 422 4800 346 4800 
C 326 4800 301 4793 301 4761 
C 301 4748 307 4742 314 4729 
C 621 4408 1402 3595 1402 1603 
C 1402 -396 627 -1210 314 -1530 
C 307 -1543 301 -1549 301 -1562 
C 301 -1594 326 -1600 346 -1600 
C 416 -1600 960 -1127 1274 -422 
C 1594 289 1683 981 1683 1596 
z
" transform="scale(0.015625)"/>
       <path id="CMR17-5b" d="M 1504 -1600 
L 1504 -1376 
L 902 -1376 
L 902 4575 
L 1504 4575 
L 1504 4800 
L 678 4800 
L 678 -1600 
L 1504 -1600 
z
" transform="scale(0.015625)"/>
       <path id="CMR17-64" d="M 1869 4345 
L 1869 4179 
C 2246 4179 2304 4141 2304 3843 
L 2304 2371 
C 2278 2403 2016 2816 1498 2816 
C 845 2816 211 2228 211 1376 
C 211 529 806 -64 1434 -64 
C 1978 -64 2259 361 2291 406 
L 2291 -64 
L 3066 -13 
L 3066 154 
C 2688 154 2630 193 2630 503 
L 2630 4416 
L 1869 4345 
z
M 2291 762 
C 2291 568 2176 393 2029 264 
C 1811 70 1594 38 1472 38 
C 1286 38 621 135 621 1369 
C 621 2636 1363 2713 1530 2713 
C 1824 2713 2061 2545 2208 2313 
C 2291 2177 2291 2157 2291 2041 
L 2291 762 
z
" transform="scale(0.015625)"/>
       <path id="CMR17-5d" d="M 915 4800 
L 90 4800 
L 90 4575 
L 691 4575 
L 691 -1376 
L 90 -1376 
L 90 -1600 
L 915 -1600 
L 915 4800 
z
" transform="scale(0.015625)"/>
      </defs>
      <use xlink:href="#CMR17-53" transform="scale(0.996264)"/>
      <use xlink:href="#CMR17-75" transform="translate(50.89537 0)scale(0.996264)"/>
      <use xlink:href="#CMR17-70" transform="translate(101.79074 0)scale(0.996264)"/>
      <use xlink:href="#CMR17-65" transform="translate(155.288548 0)scale(0.996264)"/>
      <use xlink:href="#CMR17-72" transform="translate(195.774209 0)scale(0.996264)"/>
      <use xlink:href="#CMR17-6e" transform="translate(231.054976 0)scale(0.996264)"/>
      <use xlink:href="#CMR17-6f" transform="translate(281.950346 0)scale(0.996264)"/>
      <use xlink:href="#CMR17-76" transform="translate(325.038369 0)scale(0.996264)"/>
      <use xlink:href="#CMR17-61" transform="translate(368.126468 0)scale(0.996264)"/>
      <use xlink:href="#CMR17-61" transform="translate(443.892912 0)scale(0.996264)"/>
      <use xlink:href="#CMR17-7a" transform="translate(489.583389 0)scale(0.996264)"/>
      <use xlink:href="#CMR17-69" transform="translate(530.06905 0)scale(0.996264)"/>
      <use xlink:href="#CMR17-6d" transform="translate(554.940108 0)scale(0.996264)"/>
      <use xlink:href="#CMR17-75" transform="translate(629.257244 0)scale(0.996264)"/>
      <use xlink:href="#CMR17-74" transform="translate(680.152614 0)scale(0.996264)"/>
      <use xlink:href="#CMR17-68" transform="translate(715.433382 0)scale(0.996264)"/>
      <use xlink:href="#CMR17-61" transform="translate(766.328751 0)scale(0.996264)"/>
      <use xlink:href="#CMR17-6c" transform="translate(812.019228 0)scale(0.996264)"/>
      <use xlink:href="#CMR17-61" transform="translate(866.966253 0)scale(0.996264)"/>
      <use xlink:href="#CMR17-6e" transform="translate(912.65673 0)scale(0.996264)"/>
      <use xlink:href="#CMR17-67" transform="translate(963.5521 0)scale(0.996264)"/>
      <use xlink:href="#CMR17-6c" transform="translate(1009.242577 0)scale(0.996264)"/>
      <use xlink:href="#CMR17-65" transform="translate(1034.113636 0)scale(0.996264)"/>
      <use xlink:href="#CMR17-28" transform="translate(1104.675263 0)scale(0.996264)"/>
      <use xlink:href="#CMMI12-1e" transform="translate(1139.95603 0)scale(0.996264)"/>
      <use xlink:href="#CMR17-29" transform="translate(1197.690211 0)scale(0.996264)"/>
      <use xlink:href="#CMR17-5b" transform="translate(1263.046945 0)scale(0.996264)"/>
      <use xlink:href="#CMR17-72" transform="translate(1287.918003 0)scale(0.996264)"/>
      <use xlink:href="#CMR17-61" transform="translate(1323.198771 0)scale(0.996264)"/>
      <use xlink:href="#CMR17-64" transform="translate(1368.889248 0)scale(0.996264)"/>
      <use xlink:href="#CMR17-5d" transform="translate(1419.784618 0)scale(0.996264)"/>
     </g>
    </g>
   </g>
   <g id="matplotlib.axis_2">
    <g id="ytick_1">
     <g id="line2d_6">
      <defs>
       <path id="m488f5d3a34" d="M 0 0 
L -3.5 0 
" style="stroke: #000000; stroke-width: 0.8"/>
      </defs>
      <g>
       <use xlink:href="#m488f5d3a34" x="45.555547" y="330.299298" style="stroke: #000000; stroke-width: 0.8"/>
      </g>
     </g>
     <g id="text_7">
      <!-- $\mathdefault{0.0}$ -->
      <g transform="translate(23.597905 334.450388)scale(0.12 -0.12)">
       <defs>
        <path id="CMMI12-3a" d="M 1178 307 
C 1178 492 1024 620 870 620 
C 685 620 557 467 557 313 
C 557 128 710 0 864 0 
C 1050 0 1178 153 1178 307 
z
" transform="scale(0.015625)"/>
       </defs>
       <use xlink:href="#CMR17-30" transform="scale(0.996264)"/>
       <use xlink:href="#CMMI12-3a" transform="translate(45.690477 0)scale(0.996264)"/>
       <use xlink:href="#CMR17-30" transform="translate(72.787654 0)scale(0.996264)"/>
      </g>
     </g>
    </g>
    <g id="ytick_2">
     <g id="line2d_7">
      <g>
       <use xlink:href="#m488f5d3a34" x="45.555547" y="290.699298" style="stroke: #000000; stroke-width: 0.8"/>
      </g>
     </g>
     <g id="text_8">
      <!-- $\mathdefault{0.1}$ -->
      <g transform="translate(23.597905 294.850388)scale(0.12 -0.12)">
       <defs>
        <path id="CMR17-31" d="M 1702 4083 
C 1702 4217 1696 4224 1606 4224 
C 1357 3927 979 3833 621 3820 
C 602 3820 570 3820 563 3808 
C 557 3795 557 3782 557 3648 
C 755 3648 1088 3686 1344 3839 
L 1344 467 
C 1344 243 1331 166 781 166 
L 589 166 
L 589 0 
C 896 6 1216 12 1523 12 
C 1830 12 2150 6 2458 0 
L 2458 166 
L 2266 166 
C 1715 166 1702 236 1702 467 
L 1702 4083 
z
" transform="scale(0.015625)"/>
       </defs>
       <use xlink:href="#CMR17-30" transform="scale(0.996264)"/>
       <use xlink:href="#CMMI12-3a" transform="translate(45.690477 0)scale(0.996264)"/>
       <use xlink:href="#CMR17-31" transform="translate(72.787654 0)scale(0.996264)"/>
      </g>
     </g>
    </g>
    <g id="ytick_3">
     <g id="line2d_8">
      <g>
       <use xlink:href="#m488f5d3a34" x="45.555547" y="251.099298" style="stroke: #000000; stroke-width: 0.8"/>
      </g>
     </g>
     <g id="text_9">
      <!-- $\mathdefault{0.2}$ -->
      <g transform="translate(23.597905 255.250388)scale(0.12 -0.12)">
       <use xlink:href="#CMR17-30" transform="scale(0.996264)"/>
       <use xlink:href="#CMMI12-3a" transform="translate(45.690477 0)scale(0.996264)"/>
       <use xlink:href="#CMR17-32" transform="translate(72.787654 0)scale(0.996264)"/>
      </g>
     </g>
    </g>
    <g id="ytick_4">
     <g id="line2d_9">
      <g>
       <use xlink:href="#m488f5d3a34" x="45.555547" y="211.499298" style="stroke: #000000; stroke-width: 0.8"/>
      </g>
     </g>
     <g id="text_10">
      <!-- $\mathdefault{0.3}$ -->
      <g transform="translate(23.597905 215.650388)scale(0.12 -0.12)">
       <use xlink:href="#CMR17-30" transform="scale(0.996264)"/>
       <use xlink:href="#CMMI12-3a" transform="translate(45.690477 0)scale(0.996264)"/>
       <use xlink:href="#CMR17-33" transform="translate(72.787654 0)scale(0.996264)"/>
      </g>
     </g>
    </g>
    <g id="ytick_5">
     <g id="line2d_10">
      <g>
       <use xlink:href="#m488f5d3a34" x="45.555547" y="171.899298" style="stroke: #000000; stroke-width: 0.8"/>
      </g>
     </g>
     <g id="text_11">
      <!-- $\mathdefault{0.4}$ -->
      <g transform="translate(23.597905 176.050388)scale(0.12 -0.12)">
       <use xlink:href="#CMR17-30" transform="scale(0.996264)"/>
       <use xlink:href="#CMMI12-3a" transform="translate(45.690477 0)scale(0.996264)"/>
       <use xlink:href="#CMR17-34" transform="translate(72.787654 0)scale(0.996264)"/>
      </g>
     </g>
    </g>
    <g id="ytick_6">
     <g id="line2d_11">
      <g>
       <use xlink:href="#m488f5d3a34" x="45.555547" y="132.299298" style="stroke: #000000; stroke-width: 0.8"/>
      </g>
     </g>
     <g id="text_12">
      <!-- $\mathdefault{0.5}$ -->
      <g transform="translate(23.597905 136.450388)scale(0.12 -0.12)">
       <defs>
        <path id="CMR17-35" d="M 730 3750 
C 794 3724 1056 3641 1325 3641 
C 1920 3641 2246 3961 2432 4140 
C 2432 4191 2432 4224 2394 4224 
C 2387 4224 2374 4224 2323 4198 
C 2099 4102 1837 4032 1517 4032 
C 1325 4032 1037 4055 723 4191 
C 653 4224 640 4224 634 4224 
C 602 4224 595 4217 595 4090 
L 595 2231 
C 595 2113 595 2080 659 2080 
C 691 2080 704 2093 736 2139 
C 941 2435 1222 2560 1542 2560 
C 1766 2560 2246 2415 2246 1293 
C 2246 1087 2246 716 2054 422 
C 1894 159 1645 25 1370 25 
C 947 25 518 319 403 812 
C 429 806 480 793 506 793 
C 589 793 749 838 749 1036 
C 749 1209 627 1280 506 1280 
C 358 1280 262 1190 262 1011 
C 262 454 704 -128 1382 -128 
C 2042 -128 2669 441 2669 1267 
C 2669 2054 2170 2662 1549 2662 
C 1222 2662 947 2540 730 2304 
L 730 3750 
z
" transform="scale(0.015625)"/>
       </defs>
       <use xlink:href="#CMR17-30" transform="scale(0.996264)"/>
       <use xlink:href="#CMMI12-3a" transform="translate(45.690477 0)scale(0.996264)"/>
       <use xlink:href="#CMR17-35" transform="translate(72.787654 0)scale(0.996264)"/>
      </g>
     </g>
    </g>
    <g id="ytick_7">
     <g id="line2d_12">
      <g>
       <use xlink:href="#m488f5d3a34" x="45.555547" y="92.699298" style="stroke: #000000; stroke-width: 0.8"/>
      </g>
     </g>
     <g id="text_13">
      <!-- $\mathdefault{0.6}$ -->
      <g transform="translate(23.597905 96.850388)scale(0.12 -0.12)">
       <defs>
        <path id="CMR17-36" d="M 678 2198 
C 678 3712 1395 4076 1811 4076 
C 1946 4076 2272 4049 2400 3782 
C 2298 3782 2106 3782 2106 3558 
C 2106 3385 2246 3328 2336 3328 
C 2394 3328 2566 3353 2566 3571 
C 2566 3987 2246 4224 1805 4224 
C 1043 4224 243 3411 243 2011 
C 243 257 966 -128 1478 -128 
C 2099 -128 2688 431 2688 1295 
C 2688 2101 2170 2688 1517 2688 
C 1126 2688 838 2430 678 1979 
L 678 2198 
z
M 1478 25 
C 691 25 691 1212 691 1450 
C 691 1914 909 2585 1504 2585 
C 1613 2585 1926 2585 2138 2140 
C 2253 1889 2253 1624 2253 1302 
C 2253 954 2253 696 2118 438 
C 1978 173 1773 25 1478 25 
z
" transform="scale(0.015625)"/>
       </defs>
       <use xlink:href="#CMR17-30" transform="scale(0.996264)"/>
       <use xlink:href="#CMMI12-3a" transform="translate(45.690477 0)scale(0.996264)"/>
       <use xlink:href="#CMR17-36" transform="translate(72.787654 0)scale(0.996264)"/>
      </g>
     </g>
    </g>
    <g id="ytick_8">
     <g id="line2d_13">
      <g>
       <use xlink:href="#m488f5d3a34" x="45.555547" y="53.099298" style="stroke: #000000; stroke-width: 0.8"/>
      </g>
     </g>
     <g id="text_14">
      <!-- $\mathdefault{0.7}$ -->
      <g transform="translate(23.597905 57.250388)scale(0.12 -0.12)">
       <defs>
        <path id="CMR17-37" d="M 2886 3955 
L 2886 4096 
L 1382 4096 
C 634 4096 621 4166 595 4288 
L 480 4288 
L 294 3104 
L 410 3104 
C 429 3226 474 3552 550 3673 
C 589 3724 1062 3724 1171 3724 
L 2579 3724 
L 1869 2670 
C 1395 1961 1069 1003 1069 166 
C 1069 89 1069 -128 1299 -128 
C 1530 -128 1530 89 1530 172 
L 1530 466 
C 1530 1514 1709 2204 2003 2644 
L 2886 3955 
z
" transform="scale(0.015625)"/>
       </defs>
       <use xlink:href="#CMR17-30" transform="scale(0.996264)"/>
       <use xlink:href="#CMMI12-3a" transform="translate(45.690477 0)scale(0.996264)"/>
       <use xlink:href="#CMR17-37" transform="translate(72.787654 0)scale(0.996264)"/>
      </g>
     </g>
    </g>
    <g id="text_15">
     <!-- Probability density -->
     <g transform="translate(16.885876 248.734941)rotate(-90)scale(0.14 -0.14)">
      <defs>
       <path id="CMR17-50" d="M 1267 2048 
L 2291 2048 
C 3117 2048 3718 2583 3718 3187 
C 3718 3791 3130 4352 2291 4352 
L 333 4352 
L 333 4185 
C 774 4185 845 4185 845 3899 
L 845 453 
C 845 166 774 166 333 166 
L 333 0 
C 518 12 858 12 1056 12 
C 1254 12 1594 12 1779 0 
L 1779 166 
C 1338 166 1267 166 1267 453 
L 1267 2048 
z
M 1254 2182 
L 1254 3937 
C 1254 4153 1267 4185 1523 4185 
L 2170 4185 
C 2995 4185 3232 3715 3232 3187 
C 3232 2608 2950 2182 2170 2182 
L 1254 2182 
z
" transform="scale(0.015625)"/>
       <path id="CMR17-62" d="M 960 4416 
L 198 4345 
L 198 4179 
C 576 4179 634 4141 634 3843 
L 634 -13 
L 749 -13 
L 934 445 
C 1120 141 1395 -64 1766 -64 
C 2406 -64 3053 503 3053 1382 
C 3053 2209 2477 2816 1830 2816 
C 1434 2816 1152 2603 960 2351 
L 960 4416 
z
M 973 2022 
C 973 2138 973 2157 1062 2293 
C 1312 2681 1670 2713 1792 2713 
C 1984 2713 2643 2610 2643 1388 
C 2643 109 1888 38 1734 38 
C 1536 38 1248 115 1043 490 
C 973 613 973 626 973 742 
L 973 2022 
z
" transform="scale(0.015625)"/>
       <path id="CMR17-79" d="M 2496 2183 
C 2656 2579 2944 2585 3034 2585 
L 3034 2752 
C 2912 2745 2752 2739 2630 2739 
C 2496 2739 2285 2739 2157 2752 
L 2157 2585 
C 2400 2566 2406 2384 2406 2332 
C 2406 2268 2394 2235 2362 2158 
L 1664 409 
L 902 2300 
C 870 2378 870 2423 870 2430 
C 870 2572 1018 2585 1171 2585 
L 1171 2752 
C 1018 2739 742 2739 582 2739 
C 410 2739 205 2739 64 2752 
L 64 2585 
C 410 2585 448 2553 531 2345 
L 1485 -31 
C 1197 -795 1030 -1242 627 -1242 
C 557 -1242 397 -1223 282 -1106 
C 429 -1093 493 -1002 493 -892 
C 493 -782 416 -685 288 -685 
C 147 -685 77 -782 77 -899 
C 77 -1158 339 -1344 627 -1344 
C 998 -1344 1229 -983 1357 -659 
L 2496 2183 
z
" transform="scale(0.015625)"/>
       <path id="CMR17-73" d="M 1978 2688 
C 1978 2803 1971 2809 1933 2809 
C 1907 2809 1901 2803 1824 2707 
C 1805 2681 1747 2617 1728 2592 
C 1523 2809 1235 2816 1126 2816 
C 416 2816 160 2444 160 2073 
C 160 1497 813 1363 998 1324 
C 1402 1241 1542 1216 1677 1100 
C 1760 1024 1901 883 1901 652 
C 1901 384 1747 38 1158 38 
C 602 38 403 460 288 1024 
C 269 1113 269 1120 218 1120 
C 166 1120 160 1113 160 985 
L 160 64 
C 160 -52 166 -58 205 -58 
C 237 -58 243 -52 275 0 
C 314 57 410 211 448 275 
C 576 102 800 -64 1158 -64 
C 1792 -64 2131 281 2131 780 
C 2131 1107 1958 1280 1875 1356 
C 1683 1555 1459 1600 1190 1651 
C 838 1728 390 1817 390 2208 
C 390 2374 480 2726 1126 2726 
C 1811 2726 1850 2086 1862 1881 
C 1869 1849 1901 1843 1920 1843 
C 1978 1843 1978 1862 1978 1971 
L 1978 2688 
z
" transform="scale(0.015625)"/>
      </defs>
      <use xlink:href="#CMR17-50" transform="scale(0.996264)"/>
      <use xlink:href="#CMR17-72" transform="translate(62.586301 0)scale(0.996264)"/>
      <use xlink:href="#CMR17-6f" transform="translate(97.867068 0)scale(0.996264)"/>
      <use xlink:href="#CMR17-62" transform="translate(143.557545 0)scale(0.996264)"/>
      <use xlink:href="#CMR17-61" transform="translate(194.452915 0)scale(0.996264)"/>
      <use xlink:href="#CMR17-62" transform="translate(240.143392 0)scale(0.996264)"/>
      <use xlink:href="#CMR17-69" transform="translate(291.038762 0)scale(0.996264)"/>
      <use xlink:href="#CMR17-6c" transform="translate(315.909821 0)scale(0.996264)"/>
      <use xlink:href="#CMR17-69" transform="translate(340.780879 0)scale(0.996264)"/>
      <use xlink:href="#CMR17-74" transform="translate(365.651938 0)scale(0.996264)"/>
      <use xlink:href="#CMR17-79" transform="translate(398.330251 0)scale(0.996264)"/>
      <use xlink:href="#CMR17-64" transform="translate(476.699134 0)scale(0.996264)"/>
      <use xlink:href="#CMR17-65" transform="translate(527.594503 0)scale(0.996264)"/>
      <use xlink:href="#CMR17-6e" transform="translate(568.080164 0)scale(0.996264)"/>
      <use xlink:href="#CMR17-73" transform="translate(618.975534 0)scale(0.996264)"/>
      <use xlink:href="#CMR17-69" transform="translate(654.776871 0)scale(0.996264)"/>
      <use xlink:href="#CMR17-74" transform="translate(679.64793 0)scale(0.996264)"/>
      <use xlink:href="#CMR17-79" transform="translate(712.326244 0)scale(0.996264)"/>
     </g>
    </g>
   </g>
   <g id="line2d_14">
    <path d="M 45.555547 229.581654 
L 48.683475 228.346884 
L 54.045637 226.546909 
L 54.93933 226.226964 
L 61.195186 222.383696 
L 64.323114 220.699061 
L 66.110502 219.804162 
L 68.791583 217.875737 
L 70.57897 216.602288 
L 73.706898 213.892667 
L 75.941132 212.031146 
L 78.622213 209.463292 
L 81.303294 207.233107 
L 84.878069 204.371421 
L 88.452844 201.007867 
L 92.027619 197.932959 
L 96.04924 194.772758 
L 97.836628 193.313232 
L 104.986177 185.782149 
L 108.560952 181.519948 
L 112.582574 176.914385 
L 113.476267 175.486337 
L 117.944736 168.051577 
L 121.966357 161.784613 
L 125.541132 156.642161 
L 128.66906 152.52271 
L 131.796988 148.58262 
L 135.81861 141.849755 
L 138.052844 138.553111 
L 140.287078 135.65252 
L 142.074466 133.64638 
L 143.861853 131.936862 
L 145.64924 130.5342 
L 147.436628 129.444237 
L 149.224015 128.669461 
L 150.564556 128.295276 
L 151.905096 128.097603 
L 153.245637 128.075002 
L 154.586177 128.225335 
L 156.373565 128.689591 
L 158.160952 129.446484 
L 159.948339 130.483346 
L 161.735727 131.784267 
L 163.523114 133.330436 
L 165.757348 135.575968 
L 167.991583 138.128926 
L 170.672664 141.539898 
L 173.800592 145.920887 
L 177.375366 151.37104 
L 180.950141 157.237324 
L 185.865456 165.408161 
L 188.993384 169.313863 
L 191.674466 173.005125 
L 193.9087 176.05963 
L 196.589781 178.588614 
L 199.270862 181.430442 
L 201.505096 183.796968 
L 202.39879 184.544511 
L 207.314105 187.041591 
L 213.569961 188.271562 
L 221.613204 189.757577 
L 224.294285 190.502868 
L 226.975366 191.309144 
L 228.762754 191.621706 
L 230.550141 192.015718 
L 232.337529 192.18261 
L 234.124916 192.612408 
L 235.912303 193.31851 
L 236.805997 193.64033 
L 238.593384 194.166983 
L 240.827619 195.141047 
L 242.615006 196.173132 
L 244.402393 197.233066 
L 246.636628 198.325733 
L 248.870862 199.679942 
L 251.551943 201.595538 
L 253.786177 203.242427 
L 256.467258 204.725721 
L 259.148339 206.439049 
L 264.063655 209.762674 
L 264.957348 210.123614 
L 268.085276 210.612126 
L 270.319511 211.12821 
L 272.553745 211.840491 
L 273.894285 212.341413 
L 276.575366 212.684592 
L 280.150141 213.43988 
L 281.043835 213.623956 
L 283.724916 213.591187 
L 286.405997 213.780134 
L 289.533925 214.26296 
L 292.215006 214.80582 
L 295.342934 215.506601 
L 298.917709 215.394993 
L 302.045637 215.409224 
L 305.173565 215.654413 
L 309.195186 216.261984 
L 311.876267 216.874436 
L 314.557348 217.712366 
L 317.238429 218.784595 
L 319.919511 220.090815 
L 321.706898 221.029627 
L 324.387979 221.700979 
L 327.515907 222.732424 
L 330.643835 223.927283 
L 334.21861 225.556422 
L 337.793384 227.187081 
L 350.305096 232.544592 
L 355.220411 234.422977 
L 363.710502 236.847231 
L 369.966357 238.420218 
L 374.881673 239.431456 
L 378.903294 240.04998 
L 382.924916 240.437877 
L 386.499691 240.564531 
L 390.074466 240.471978 
L 393.64924 240.155706 
L 397.224015 239.620464 
L 401.245637 238.775076 
L 405.714105 237.577101 
L 408.842033 236.564703 
L 416.438429 233.39822 
L 420.013204 231.656347 
L 428.950141 227.474742 
L 434.75915 225.030062 
L 437.887078 224.000442 
L 441.015006 223.218729 
L 443.696087 222.768452 
L 446.377168 222.545261 
L 449.058249 222.574304 
L 452.633024 222.912711 
L 456.207799 223.620064 
L 458.88888 224.43256 
L 462.910502 225.788987 
L 466.485276 226.157868 
L 472.741132 227.115227 
L 475.86906 227.885722 
L 480.337529 229.26663 
L 483.465456 230.535785 
L 484.805997 231.086354 
L 485.699691 231.158537 
L 490.168159 230.393351 
L 491.955547 229.581654 
L 491.955547 229.581654 
" clip-path="url(#pe17bf0b2e1)" style="fill: none; stroke: #210c4a; stroke-width: 1.5; stroke-linecap: square"/>
   </g>
   <g id="line2d_15">
    <path d="M 45.555547 199.261115 
L 53.59879 176.094753 
L 56.279871 169.153682 
L 58.514105 163.943971 
L 64.323114 151.550085 
L 66.110502 148.258011 
L 67.897889 145.41784 
L 69.685276 143.03767 
L 71.472664 141.109729 
L 72.813204 139.944528 
L 74.600592 138.722961 
L 76.387979 137.793258 
L 76.834826 137.568189 
L 79.06906 134.99046 
L 81.303294 132.779009 
L 83.090682 131.28149 
L 84.878069 130.04601 
L 86.665456 129.108551 
L 88.005997 128.633883 
L 89.346538 128.388523 
L 90.687078 128.407234 
L 92.027619 128.725938 
L 93.368159 129.205659 
L 95.602393 129.152216 
L 96.496087 129.409952 
L 97.389781 129.857692 
L 97.836628 130.153113 
L 98.730321 130.105313 
L 99.624015 130.11547 
L 100.517709 130.315497 
L 101.411402 130.698769 
L 102.751943 131.58889 
L 104.092484 132.797944 
L 105.879871 134.753245 
L 108.560952 137.754122 
L 111.242033 138.991744 
L 115.263655 140.712064 
L 117.051042 141.603287 
L 117.944736 141.815534 
L 118.838429 141.560371 
L 120.625817 140.917273 
L 122.413204 136.352795 
L 127.32852 124.997675 
L 129.115907 121.673555 
L 130.456447 119.184174 
L 132.243835 115.868752 
L 135.371763 106.930545 
L 137.15915 102.519532 
L 138.946538 98.781649 
L 140.287078 96.431985 
L 141.627619 94.457062 
L 142.968159 92.843436 
L 144.3087 91.596513 
L 145.202393 90.890074 
L 146.096087 89.522055 
L 147.436628 87.455923 
L 148.330321 86.430766 
L 149.224015 85.725882 
L 150.117709 85.365228 
L 151.011402 85.361319 
L 151.905096 85.713867 
L 153.245637 86.586696 
L 154.13933 85.361587 
L 155.033024 84.454141 
L 155.926718 83.861092 
L 156.820411 83.568157 
L 157.714105 83.549318 
L 158.607799 83.768016 
L 159.501493 84.180079 
L 159.948339 84.443751 
L 162.182574 84.854806 
L 165.310502 85.762984 
L 167.544736 86.600594 
L 168.885276 87.315184 
L 170.225817 88.294324 
L 171.566357 89.613494 
L 172.906898 91.328199 
L 173.353745 91.994311 
L 174.694285 91.622489 
L 175.587979 91.648082 
L 176.481673 91.928707 
L 177.375366 92.472145 
L 178.26906 93.273905 
L 179.162754 94.317219 
L 180.503294 96.273026 
L 180.950141 97.011416 
L 181.396988 97.098147 
L 182.737529 96.980624 
L 184.078069 97.109153 
L 185.41861 97.440027 
L 187.205997 98.125916 
L 189.440231 99.26587 
L 191.674466 100.65923 
L 193.461853 102.009696 
L 194.802393 103.234677 
L 196.142934 104.715871 
L 197.483475 106.525398 
L 198.824015 108.730012 
L 200.164556 111.382921 
L 203.292484 118.566653 
L 204.633024 122.15747 
L 206.867258 128.359897 
L 208.654646 133.381846 
L 210.88888 140.436118 
L 214.016808 151.203015 
L 219.825817 171.363047 
L 223.400592 182.866278 
L 228.315907 197.318966 
L 229.209601 199.357514 
L 235.912303 212.706625 
L 237.699691 215.008864 
L 239.933925 217.583435 
L 241.274466 218.643749 
L 247.977168 223.457232 
L 249.317709 224.304495 
L 255.573565 224.153667 
L 258.254646 224.314197 
L 260.935727 224.698123 
L 264.063655 225.367794 
L 266.744736 226.208972 
L 268.97897 227.141758 
L 271.213204 228.324774 
L 273.447438 229.788764 
L 275.681673 231.550221 
L 277.915907 233.608478 
L 280.150141 235.947419 
L 282.831222 239.086419 
L 286.405997 243.691507 
L 288.640231 246.557012 
L 292.215006 251.041434 
L 298.470862 259.075087 
L 303.386177 263.785804 
L 307.407799 267.391638 
L 310.982574 270.296804 
L 314.110502 272.548609 
L 317.238429 274.508763 
L 320.813204 276.362196 
L 324.834826 278.181472 
L 334.665456 282.622628 
L 350.305096 289.914851 
L 355.220411 291.800011 
L 358.348339 292.779732 
L 363.263655 294.078971 
L 367.732123 295.025287 
L 369.966357 295.345565 
L 373.987979 295.679649 
L 377.562754 295.75434 
L 381.137529 295.58171 
L 384.265456 295.239848 
L 387.840231 294.596021 
L 391.415006 293.726207 
L 394.989781 292.617047 
L 397.670862 291.594154 
L 401.245637 289.948302 
L 404.373565 288.27316 
L 407.501493 286.300413 
L 410.62942 284.086009 
L 413.757348 281.618651 
L 416.885276 278.889315 
L 420.013204 275.893158 
L 423.587979 272.145368 
L 426.715907 268.554854 
L 430.290682 264.13 
L 436.546538 255.895299 
L 441.461853 249.567648 
L 444.142934 246.430628 
L 446.377168 244.112617 
L 448.164556 242.473944 
L 449.951943 241.100806 
L 451.73933 240.021803 
L 453.526718 239.212185 
L 455.314105 238.703976 
L 457.101493 238.467397 
L 459.335727 238.448007 
L 464.251042 238.515586 
L 466.485276 238.210299 
L 468.272664 237.75166 
L 470.506898 236.929994 
L 473.187979 235.696078 
L 477.209601 233.655489 
L 484.35915 220.432593 
L 487.933925 210.6997 
L 491.955547 199.261115 
L 491.955547 199.261115 
" clip-path="url(#pe17bf0b2e1)" style="fill: none; stroke: #8a226a; stroke-width: 1.5; stroke-linecap: square"/>
   </g>
   <g id="line2d_16">
    <path d="M 45.555547 186.031319 
L 48.683475 184.661764 
L 51.811402 183.533297 
L 54.93933 182.648892 
L 57.620411 182.1194 
L 60.301493 181.820549 
L 62.982574 181.764365 
L 66.110502 181.977455 
L 82.196988 183.990648 
L 86.665456 184.948219 
L 90.240231 185.914495 
L 95.155547 187.362187 
L 98.283475 187.806958 
L 100.517709 188.113946 
L 103.19879 188.300761 
L 105.879871 187.926809 
L 113.923114 185.662197 
L 117.051042 184.579377 
L 118.838429 183.703438 
L 125.094285 180.366863 
L 126.881673 179.132183 
L 128.66906 177.471057 
L 130.009601 175.920147 
L 143.415006 159.159496 
L 149.670862 151.919148 
L 152.351943 148.731094 
L 155.033024 145.894997 
L 157.267258 143.837618 
L 161.28888 140.607786 
L 163.076267 139.37729 
L 164.863655 138.409157 
L 167.991583 137.105979 
L 170.225817 136.42536 
L 171.566357 136.132703 
L 172.906898 136.024635 
L 174.247438 136.105505 
L 175.587979 136.377815 
L 177.822213 137.150079 
L 179.162754 137.731974 
L 181.843835 139.235346 
L 183.631222 140.508878 
L 184.971763 141.445933 
L 186.75915 142.712471 
L 188.546538 144.260848 
L 190.333925 146.074767 
L 193.015006 149.182016 
L 195.24924 151.920159 
L 197.930321 155.542724 
L 199.717709 157.951647 
L 202.845637 161.979469 
L 206.420411 166.976679 
L 214.463655 178.579756 
L 216.251042 180.699419 
L 221.613204 186.976252 
L 223.400592 188.526762 
L 225.634826 189.893023 
L 229.656447 191.514474 
L 231.443835 191.905153 
L 237.252844 193.146175 
L 238.593384 193.052153 
L 239.933925 192.835021 
L 240.827619 192.412099 
L 243.955547 190.430239 
L 246.636628 188.154515 
L 247.977168 186.835845 
L 253.33933 181.39671 
L 261.382574 173.816598 
L 263.169961 172.269649 
L 268.532123 166.892447 
L 270.319511 165.540658 
L 272.106898 164.478413 
L 273.894285 163.703437 
L 276.575366 162.922087 
L 278.362754 162.613981 
L 280.150141 162.5687 
L 281.937529 162.783691 
L 283.724916 163.25881 
L 285.512303 163.995955 
L 287.299691 164.99822 
L 290.427619 166.934819 
L 293.1087 169.061455 
L 294.896087 170.711386 
L 297.130321 173.129003 
L 298.470862 174.603481 
L 301.151943 177.521078 
L 303.833024 180.570987 
L 310.982574 189.377675 
L 319.472664 200.426779 
L 323.494285 205.000716 
L 328.409601 209.728899 
L 331.537529 212.598113 
L 334.21861 215.071187 
L 337.346538 218.028875 
L 340.027619 220.565321 
L 343.602393 223.985211 
L 348.964556 229.327375 
L 352.986177 233.000169 
L 356.560952 236.52877 
L 365.497889 245.380291 
L 370.860051 250.364935 
L 373.094285 252.403898 
L 376.66906 255.032709 
L 378.456447 256.293098 
L 382.031222 258.542217 
L 384.712303 259.747472 
L 390.074466 261.666361 
L 393.202393 262.324424 
L 401.692484 263.332137 
L 403.926718 263.532652 
L 405.267258 263.461053 
L 408.842033 263.291612 
L 411.523114 263.366987 
L 414.204195 263.694618 
L 416.885276 264.274589 
L 424.034826 266.288078 
L 426.715907 267.35417 
L 429.843835 268.844754 
L 434.312303 271.038387 
L 442.355547 274.884668 
L 445.930321 276.125495 
L 448.164556 276.728516 
L 449.058249 276.855668 
L 453.079871 276.786101 
L 458.442033 276.328209 
L 462.463655 275.7999 
L 464.251042 275.482173 
L 465.591583 274.996037 
L 470.060051 272.650681 
L 478.550141 267.432207 
L 487.933925 262.045203 
L 491.955547 259.845927 
L 491.955547 259.845927 
" clip-path="url(#pe17bf0b2e1)" style="fill: none; stroke: #e45a31; stroke-width: 1.5; stroke-linecap: square"/>
   </g>
   <g id="line2d_17">
    <path d="M 45.555547 43.2726 
L 49.577168 42.371721 
L 53.59879 41.707229 
L 56.726718 41.331508 
L 67.451042 40.552619 
L 74.153745 40.52066 
L 81.750141 40.460933 
L 92.921312 40.933581 
L 95.602393 41.049558 
L 104.092484 41.557722 
L 109.454646 42.061665 
L 113.02942 42.641039 
L 115.710502 43.178381 
L 119.285276 43.949676 
L 121.519511 44.481372 
L 130.456447 46.986796 
L 133.584375 47.642117 
L 136.265456 47.784232 
L 141.180772 48.293871 
L 145.202393 48.95294 
L 147.883475 49.361388 
L 151.011402 49.752065 
L 155.479871 50.103715 
L 158.607799 50.411295 
L 165.757348 51.481525 
L 168.885276 52.214475 
L 172.013204 52.937142 
L 176.034826 54.069727 
L 179.609601 55.466246 
L 181.843835 56.465956 
L 184.524916 57.835633 
L 186.312303 59.081376 
L 188.099691 60.63573 
L 192.568159 64.922997 
L 194.355547 66.753388 
L 197.930321 70.843585 
L 201.058249 75.029524 
L 206.420411 82.749636 
L 209.548339 87.76643 
L 215.804195 97.828804 
L 226.081673 113.392477 
L 230.550141 119.689027 
L 240.380772 132.05919 
L 245.296087 137.422562 
L 247.083475 139.134309 
L 251.551943 142.695168 
L 253.786177 144.640629 
L 267.638429 157.818354 
L 270.766357 161.38327 
L 273.000592 164.220106 
L 277.915907 171.16742 
L 280.150141 174.730528 
L 284.171763 181.691419 
L 288.640231 190.152934 
L 291.768159 196.28374 
L 306.067258 224.010172 
L 313.216808 237.207168 
L 317.685276 245.138362 
L 321.260051 251.019202 
L 325.281673 257.548105 
L 329.750141 265.202596 
L 335.55915 275.570658 
L 338.240231 280.639688 
L 340.921312 286.168361 
L 349.411402 304.13312 
L 355.667258 317.087523 
L 358.795186 323.435097 
L 364.604195 334.085863 
L 368.17897 340.010768 
L 373.541132 348.131796 
L 376.222213 351.739635 
L 384.265456 361.633854 
L 390.074466 368.511501 
L 395.745351 375.402162 
L 395.745351 375.402162 
" clip-path="url(#pe17bf0b2e1)" style="fill: none; stroke: #f9cb35; stroke-width: 1.5; stroke-linecap: square"/>
   </g>
   <g id="line2d_18">
    <path d="M 157.155547 330.299298 
L 157.155547 53.099298 
" clip-path="url(#pe17bf0b2e1)" style="fill: none; stroke-dasharray: 5.55,2.4; stroke-dashoffset: 0; stroke: #000000; stroke-width: 1.5"/>
   </g>
   <g id="patch_3">
    <path d="M 45.555547 330.299298 
L 45.555547 53.099298 
" style="fill: none; stroke: #000000; stroke-width: 0.8; stroke-linejoin: miter; stroke-linecap: square"/>
   </g>
   <g id="patch_4">
    <path d="M 491.955547 330.299298 
L 491.955547 53.099298 
" style="fill: none; stroke: #000000; stroke-width: 0.8; stroke-linejoin: miter; stroke-linecap: square"/>
   </g>
   <g id="patch_5">
    <path d="M 45.555547 330.299298 
L 491.955547 330.299298 
" style="fill: none; stroke: #000000; stroke-width: 0.8; stroke-linejoin: miter; stroke-linecap: square"/>
   </g>
   <g id="patch_6">
    <path d="M 45.555547 53.099298 
L 491.955547 53.099298 
" style="fill: none; stroke: #000000; stroke-width: 0.8; stroke-linejoin: miter; stroke-linecap: square"/>
   </g>
   <g id="text_16">
    <!-- $\phi^{\mathrm{True}}$ -->
    <g transform="translate(164.260223 290.699298)scale(0.14 -0.14)">
     <defs>
      <path id="CMR17-54" d="M 3981 4332 
L 288 4332 
L 179 2924 
L 294 2924 
C 378 3981 467 4166 1453 4166 
C 1568 4166 1754 4166 1805 4159 
C 1926 4140 1926 4064 1926 3917 
L 1926 465 
C 1926 236 1907 166 1376 166 
L 1197 166 
L 1197 0 
C 1504 6 1824 12 2138 12 
C 2451 12 2771 6 3078 0 
L 3078 166 
L 2899 166 
C 2368 166 2349 236 2349 465 
L 2349 3917 
C 2349 4057 2349 4134 2464 4159 
C 2515 4166 2701 4166 2816 4166 
C 3795 4166 3891 3981 3974 2924 
L 4090 2924 
L 3981 4332 
z
" transform="scale(0.015625)"/>
     </defs>
     <use xlink:href="#CMMI12-1e" transform="scale(0.996264)"/>
     <use xlink:href="#CMR17-54" transform="translate(57.73418 36.153639)scale(0.697382)"/>
     <use xlink:href="#CMR17-72" transform="translate(98.82583 36.153639)scale(0.697382)"/>
     <use xlink:href="#CMR17-75" transform="translate(123.52225 36.153639)scale(0.697382)"/>
     <use xlink:href="#CMR17-65" transform="translate(159.148858 36.153639)scale(0.697382)"/>
    </g>
   </g>
   <g id="text_17">
    <!-- $\phi$ likelihood given detected events by a 27 $M_\odot$ CCSN -->
    <g transform="translate(54.93873 21.036997)scale(0.2 -0.2)">
     <defs>
      <path id="CMR17-6b" d="M 1670 1679 
C 1664 1692 1632 1730 1632 1749 
C 1632 1762 2086 2175 2144 2226 
C 2509 2532 2739 2563 2906 2570 
L 2906 2735 
C 2867 2735 2854 2735 2848 2729 
L 2534 2722 
C 2355 2722 2080 2722 1907 2735 
L 1907 2570 
C 1997 2563 2061 2513 2061 2423 
C 2061 2296 1933 2175 1926 2175 
L 960 1298 
L 960 4416 
L 198 4345 
L 198 4179 
C 576 4179 634 4141 634 3835 
L 634 439 
C 634 198 608 166 198 166 
L 198 0 
C 352 12 634 12 794 12 
C 954 12 1235 12 1389 0 
L 1389 166 
C 979 166 954 191 954 439 
L 954 1139 
L 1395 1540 
L 2042 586 
C 2118 471 2182 382 2182 299 
C 2182 185 2067 166 1990 166 
L 1990 0 
C 2144 12 2419 12 2579 12 
C 2694 12 2931 6 3040 0 
L 3040 166 
C 2739 166 2669 223 2477 503 
L 1670 1679 
z
" transform="scale(0.015625)"/>
      <path id="CMR17-63" d="M 2234 2240 
C 2112 2240 1933 2240 1933 2015 
C 1933 1836 2080 1785 2163 1785 
C 2208 1785 2394 1804 2394 2028 
C 2394 2476 1958 2816 1466 2816 
C 787 2816 211 2201 211 1379 
C 211 521 813 -64 1466 -64 
C 2259 -64 2458 676 2458 747 
C 2458 773 2451 792 2406 792 
C 2362 792 2355 786 2330 702 
C 2163 180 1798 51 1523 51 
C 1114 51 621 431 621 1385 
C 621 2358 1094 2700 1472 2700 
C 1722 2700 2093 2582 2234 2240 
z
" transform="scale(0.015625)"/>
      <path id="CMMI12-4d" d="M 5811 3886 
C 5869 4102 5882 4166 6336 4166 
C 6458 4166 6515 4166 6515 4287 
C 6515 4352 6470 4352 6349 4352 
L 5581 4352 
C 5421 4352 5414 4345 5344 4243 
L 3008 567 
L 2528 4211 
C 2509 4352 2502 4352 2336 4352 
L 1542 4352 
C 1421 4352 1363 4352 1363 4230 
C 1363 4166 1421 4166 1517 4166 
C 1907 4166 1907 4115 1907 4045 
C 1907 4032 1907 3994 1882 3898 
L 1062 650 
C 986 344 838 204 410 185 
C 390 185 314 179 314 70 
C 314 0 371 0 397 0 
C 525 0 851 12 979 12 
L 1286 12 
C 1376 12 1485 0 1574 0 
C 1619 0 1690 0 1690 121 
C 1690 179 1626 185 1600 185 
C 1389 191 1184 230 1184 459 
C 1184 523 1184 529 1210 618 
L 2093 4128 
L 2099 4128 
L 2630 172 
C 2650 19 2656 0 2714 0 
C 2784 0 2816 51 2848 108 
L 5421 4159 
L 5427 4159 
L 4499 472 
C 4442 249 4429 185 3981 185 
C 3859 185 3795 185 3795 70 
C 3795 0 3853 0 3891 0 
C 4000 0 4128 12 4237 12 
L 4992 12 
C 5101 12 5235 0 5344 0 
C 5395 0 5466 0 5466 121 
C 5466 185 5408 185 5312 185 
C 4922 185 4922 236 4922 300 
C 4922 306 4922 351 4934 402 
L 5811 3886 
z
" transform="scale(0.015625)"/>
      <path id="CMSY10-c" d="M 4621 1606 
C 4621 2787 3661 3744 2490 3744 
C 1299 3744 352 2774 352 1606 
C 352 419 1312 -545 2483 -545 
C 3674 -545 4621 432 4621 1606 
z
M 2490 -384 
C 1389 -384 512 516 512 1606 
C 512 2709 1408 3584 2483 3584 
C 3584 3584 4461 2690 4461 1606 
C 4461 497 3565 -384 2490 -384 
z
M 2925 1606 
C 2925 1849 2726 2048 2490 2048 
C 2234 2048 2048 1836 2048 1606 
C 2048 1363 2246 1164 2483 1164 
C 2739 1164 2925 1375 2925 1606 
z
" transform="scale(0.015625)"/>
      <path id="CMR17-43" d="M 3974 4351 
C 3974 4467 3968 4473 3930 4473 
C 3904 4473 3898 4467 3853 4390 
L 3571 3849 
C 3258 4249 2874 4480 2381 4480 
C 1286 4480 294 3507 294 2179 
C 294 837 1286 -128 2387 -128 
C 3366 -128 3974 741 3974 1482 
C 3974 1547 3974 1573 3917 1573 
C 3866 1573 3866 1553 3859 1495 
C 3808 592 3168 38 2477 38 
C 1824 38 781 502 781 2179 
C 781 3862 1843 4313 2464 4313 
C 3187 4313 3712 3681 3834 2785 
C 3846 2707 3846 2695 3904 2695 
C 3974 2695 3974 2707 3974 2824 
L 3974 4351 
z
" transform="scale(0.015625)"/>
      <path id="CMR17-4e" d="M 1312 4275 
C 1267 4345 1261 4352 1139 4352 
L 326 4352 
L 326 4185 
L 448 4185 
C 704 4185 819 4153 838 4147 
L 838 624 
C 838 465 838 166 326 166 
L 326 0 
C 474 12 742 12 902 12 
C 1062 12 1331 12 1478 0 
L 1478 166 
C 966 166 966 465 966 624 
L 966 4057 
C 1011 4019 1011 4007 1056 3943 
L 3430 76 
C 3475 0 3494 0 3526 0 
C 3590 0 3590 19 3590 140 
L 3590 3726 
C 3590 3885 3590 4185 4102 4185 
L 4102 4352 
C 3955 4339 3686 4339 3526 4339 
C 3366 4339 3098 4339 2950 4352 
L 2950 4185 
C 3462 4185 3462 3885 3462 3726 
L 3462 777 
L 1312 4275 
z
" transform="scale(0.015625)"/>
     </defs>
     <use xlink:href="#CMMI12-1e" transform="scale(0.996264)"/>
     <use xlink:href="#CMR17-6c" transform="translate(87.810147 0)scale(0.996264)"/>
     <use xlink:href="#CMR17-69" transform="translate(112.681205 0)scale(0.996264)"/>
     <use xlink:href="#CMR17-6b" transform="translate(137.552264 0)scale(0.996264)"/>
     <use xlink:href="#CMR17-65" transform="translate(183.242726 0)scale(0.996264)"/>
     <use xlink:href="#CMR17-6c" transform="translate(223.728386 0)scale(0.996264)"/>
     <use xlink:href="#CMR17-69" transform="translate(248.599445 0)scale(0.996264)"/>
     <use xlink:href="#CMR17-68" transform="translate(273.470503 0)scale(0.996264)"/>
     <use xlink:href="#CMR17-6f" transform="translate(324.365873 0)scale(0.996264)"/>
     <use xlink:href="#CMR17-6f" transform="translate(372.658789 0)scale(0.996264)"/>
     <use xlink:href="#CMR17-64" transform="translate(420.951705 0)scale(0.996264)"/>
     <use xlink:href="#CMR17-67" transform="translate(501.923041 0)scale(0.996264)"/>
     <use xlink:href="#CMR17-69" transform="translate(547.613518 0)scale(0.996264)"/>
     <use xlink:href="#CMR17-76" transform="translate(572.484576 0)scale(0.996264)"/>
     <use xlink:href="#CMR17-65" transform="translate(618.175038 0)scale(0.996264)"/>
     <use xlink:href="#CMR17-6e" transform="translate(658.660699 0)scale(0.996264)"/>
     <use xlink:href="#CMR17-64" transform="translate(739.632035 0)scale(0.996264)"/>
     <use xlink:href="#CMR17-65" transform="translate(790.527405 0)scale(0.996264)"/>
     <use xlink:href="#CMR17-74" transform="translate(831.013065 0)scale(0.996264)"/>
     <use xlink:href="#CMR17-65" transform="translate(866.293833 0)scale(0.996264)"/>
     <use xlink:href="#CMR17-63" transform="translate(906.779493 0)scale(0.996264)"/>
     <use xlink:href="#CMR17-74" transform="translate(947.265154 0)scale(0.996264)"/>
     <use xlink:href="#CMR17-65" transform="translate(982.545922 0)scale(0.996264)"/>
     <use xlink:href="#CMR17-64" transform="translate(1023.031582 0)scale(0.996264)"/>
     <use xlink:href="#CMR17-65" transform="translate(1104.002918 0)scale(0.996264)"/>
     <use xlink:href="#CMR17-76" transform="translate(1144.488579 0)scale(0.996264)"/>
     <use xlink:href="#CMR17-65" transform="translate(1190.179041 0)scale(0.996264)"/>
     <use xlink:href="#CMR17-6e" transform="translate(1230.664701 0)scale(0.996264)"/>
     <use xlink:href="#CMR17-74" transform="translate(1278.957617 0)scale(0.996264)"/>
     <use xlink:href="#CMR17-73" transform="translate(1314.238385 0)scale(0.996264)"/>
     <use xlink:href="#CMR17-62" transform="translate(1380.115689 0)scale(0.996264)"/>
     <use xlink:href="#CMR17-79" transform="translate(1428.408604 0)scale(0.996264)"/>
     <use xlink:href="#CMR17-61" transform="translate(1506.777487 0)scale(0.996264)"/>
     <use xlink:href="#CMR17-32" transform="translate(1582.54393 0)scale(0.996264)"/>
     <use xlink:href="#CMR17-37" transform="translate(1628.234407 0)scale(0.996264)"/>
     <use xlink:href="#CMMI12-4d" transform="translate(1704.000851 0)scale(0.996264)"/>
     <use xlink:href="#CMSY10-c" transform="translate(1798.374276 -14.943915)scale(0.697382)"/>
     <use xlink:href="#CMR17-43" transform="translate(1883.189367 0)scale(0.996264)"/>
     <use xlink:href="#CMR17-43" transform="translate(1949.699248 0)scale(0.996264)"/>
     <use xlink:href="#CMR17-53" transform="translate(2016.209128 0)scale(0.996264)"/>
     <use xlink:href="#CMR17-4e" transform="translate(2067.104498 0)scale(0.996264)"/>
    </g>
    <!-- at 40 kpc (Inverted Hierarchy) -->
    <g transform="translate(146.786204 43.099298)scale(0.2 -0.2)">
     <defs>
      <path id="CMR17-49" d="M 1261 3898 
C 1261 4185 1338 4185 1798 4185 
L 1798 4352 
C 1594 4339 1267 4339 1050 4339 
C 832 4339 506 4339 301 4352 
L 301 4185 
C 762 4185 838 4185 838 3898 
L 838 453 
C 838 166 762 166 301 166 
L 301 0 
C 506 12 832 12 1050 12 
C 1267 12 1594 12 1798 0 
L 1798 166 
C 1338 166 1261 166 1261 453 
L 1261 3898 
z
" transform="scale(0.015625)"/>
      <path id="CMR17-48" d="M 3590 3898 
C 3590 4185 3661 4185 4102 4185 
L 4102 4352 
C 3917 4339 3578 4339 3379 4339 
C 3181 4339 2842 4339 2656 4352 
L 2656 4185 
C 3098 4185 3168 4185 3168 3898 
L 3168 2342 
L 1261 2342 
L 1261 3898 
C 1261 4185 1331 4185 1773 4185 
L 1773 4352 
C 1587 4339 1248 4339 1050 4339 
C 851 4339 512 4339 326 4352 
L 326 4185 
C 768 4185 838 4185 838 3898 
L 838 452 
C 838 166 768 166 326 166 
L 326 0 
C 512 12 851 12 1050 12 
C 1248 12 1587 12 1773 0 
L 1773 166 
C 1331 166 1261 166 1261 452 
L 1261 2176 
L 3168 2176 
L 3168 452 
C 3168 166 3098 166 2656 166 
L 2656 0 
C 2842 12 3181 12 3379 12 
C 3578 12 3917 12 4102 0 
L 4102 166 
C 3661 166 3590 166 3590 452 
L 3590 3898 
z
" transform="scale(0.015625)"/>
     </defs>
     <use xlink:href="#CMR17-61" transform="scale(0.996264)"/>
     <use xlink:href="#CMR17-74" transform="translate(45.690477 0)scale(0.996264)"/>
     <use xlink:href="#CMR17-34" transform="translate(111.047211 0)scale(0.996264)"/>
     <use xlink:href="#CMR17-30" transform="translate(156.737688 0)scale(0.996264)"/>
     <use xlink:href="#CMR17-6b" transform="translate(232.504132 0)scale(0.996264)"/>
     <use xlink:href="#CMR17-70" transform="translate(280.797048 0)scale(0.996264)"/>
     <use xlink:href="#CMR17-63" transform="translate(334.294856 0)scale(0.996264)"/>
     <use xlink:href="#CMR17-28" transform="translate(404.856483 0)scale(0.996264)"/>
     <use xlink:href="#CMR17-49" transform="translate(440.137251 0)scale(0.996264)"/>
     <use xlink:href="#CMR17-6e" transform="translate(472.77566 0)scale(0.996264)"/>
     <use xlink:href="#CMR17-76" transform="translate(521.068576 0)scale(0.996264)"/>
     <use xlink:href="#CMR17-65" transform="translate(566.759038 0)scale(0.996264)"/>
     <use xlink:href="#CMR17-72" transform="translate(607.244698 0)scale(0.996264)"/>
     <use xlink:href="#CMR17-74" transform="translate(642.525466 0)scale(0.996264)"/>
     <use xlink:href="#CMR17-65" transform="translate(677.806234 0)scale(0.996264)"/>
     <use xlink:href="#CMR17-64" transform="translate(718.291894 0)scale(0.996264)"/>
     <use xlink:href="#CMR17-48" transform="translate(799.26323 0)scale(0.996264)"/>
     <use xlink:href="#CMR17-69" transform="translate(868.33566 0)scale(0.996264)"/>
     <use xlink:href="#CMR17-65" transform="translate(893.206719 0)scale(0.996264)"/>
     <use xlink:href="#CMR17-72" transform="translate(933.692379 0)scale(0.996264)"/>
     <use xlink:href="#CMR17-61" transform="translate(968.973147 0)scale(0.996264)"/>
     <use xlink:href="#CMR17-72" transform="translate(1014.663624 0)scale(0.996264)"/>
     <use xlink:href="#CMR17-63" transform="translate(1049.944392 0)scale(0.996264)"/>
     <use xlink:href="#CMR17-68" transform="translate(1087.827598 0)scale(0.996264)"/>
     <use xlink:href="#CMR17-79" transform="translate(1136.120514 0)scale(0.996264)"/>
     <use xlink:href="#CMR17-29" transform="translate(1184.41343 0)scale(0.996264)"/>
    </g>
   </g>
   <g id="legend_1">
    <g id="patch_7">
     <path d="M 362.580552 156.006672 
L 489.419547 156.006672 
Q 491.419547 156.006672 491.419547 154.006672 
L 491.419547 57.327298 
Q 491.419547 55.327298 489.419547 55.327298 
L 362.580552 55.327298 
Q 360.580552 55.327298 360.580552 57.327298 
L 360.580552 154.006672 
Q 360.580552 156.006672 362.580552 156.006672 
z
" style="fill: #ffffff; opacity: 0.8; stroke: #cccccc; stroke-linejoin: miter"/>
    </g>
    <g id="line2d_19">
     <path d="M 364.580552 69.442904 
L 374.580552 69.442904 
L 384.580552 69.442904 
" style="fill: none; stroke: #210c4a; stroke-width: 1.5; stroke-linecap: square"/>
    </g>
    <g id="text_18">
     <!-- Purely monoenergetic  -->
     <g transform="translate(392.580552 66.245796)scale(0.1 -0.1)">
      <use xlink:href="#CMR17-50" transform="scale(0.996264)"/>
      <use xlink:href="#CMR17-75" transform="translate(62.586301 0)scale(0.996264)"/>
      <use xlink:href="#CMR17-72" transform="translate(113.48167 0)scale(0.996264)"/>
      <use xlink:href="#CMR17-65" transform="translate(148.762438 0)scale(0.996264)"/>
      <use xlink:href="#CMR17-6c" transform="translate(189.248099 0)scale(0.996264)"/>
      <use xlink:href="#CMR17-79" transform="translate(214.119157 0)scale(0.996264)"/>
      <use xlink:href="#CMR17-6d" transform="translate(292.488039 0)scale(0.996264)"/>
      <use xlink:href="#CMR17-6f" transform="translate(369.407629 0)scale(0.996264)"/>
      <use xlink:href="#CMR17-6e" transform="translate(415.098106 0)scale(0.996264)"/>
      <use xlink:href="#CMR17-6f" transform="translate(465.993476 0)scale(0.996264)"/>
      <use xlink:href="#CMR17-65" transform="translate(514.286392 0)scale(0.996264)"/>
      <use xlink:href="#CMR17-6e" transform="translate(554.772052 0)scale(0.996264)"/>
      <use xlink:href="#CMR17-65" transform="translate(605.667422 0)scale(0.996264)"/>
      <use xlink:href="#CMR17-72" transform="translate(646.153083 0)scale(0.996264)"/>
      <use xlink:href="#CMR17-67" transform="translate(681.43385 0)scale(0.996264)"/>
      <use xlink:href="#CMR17-65" transform="translate(727.124327 0)scale(0.996264)"/>
      <use xlink:href="#CMR17-74" transform="translate(767.609988 0)scale(0.996264)"/>
      <use xlink:href="#CMR17-69" transform="translate(802.890756 0)scale(0.996264)"/>
      <use xlink:href="#CMR17-63" transform="translate(827.761814 0)scale(0.996264)"/>
     </g>
     <!--  (10 MeV) ES events -->
     <g transform="translate(392.580552 77.149351)scale(0.1 -0.1)">
      <defs>
       <path id="CMR17-4d" d="M 1338 4249 
C 1299 4345 1293 4352 1158 4352 
L 339 4352 
L 339 4185 
C 781 4185 851 4185 851 3898 
L 851 624 
C 851 465 851 166 339 166 
L 339 0 
C 486 12 755 12 915 12 
C 1075 12 1344 12 1491 0 
L 1491 166 
C 979 166 979 465 979 624 
L 979 4159 
L 986 4159 
L 2490 102 
C 2515 38 2528 0 2579 0 
C 2630 0 2643 38 2669 102 
L 4186 4191 
L 4192 4191 
L 4192 453 
C 4192 166 4122 166 3680 166 
L 3680 0 
C 3853 12 4198 12 4384 12 
C 4570 12 4922 12 5094 0 
L 5094 166 
C 4653 166 4582 166 4582 453 
L 4582 3898 
C 4582 4185 4653 4185 5094 4185 
L 5094 4352 
L 4282 4352 
C 4147 4352 4141 4345 4102 4249 
L 2720 516 
L 1338 4249 
z
" transform="scale(0.015625)"/>
       <path id="CMR17-56" d="M 3776 3762 
C 3834 3903 3936 4179 4365 4185 
L 4365 4352 
C 4218 4339 4051 4339 3891 4339 
C 3738 4339 3475 4339 3328 4352 
L 3328 4185 
C 3648 4166 3661 3942 3661 3903 
C 3661 3833 3642 3788 3622 3737 
L 2362 448 
L 1043 3903 
C 1024 3948 1011 3980 1011 4012 
C 1011 4185 1267 4185 1402 4185 
L 1402 4352 
C 1197 4339 896 4339 685 4339 
C 518 4339 218 4339 64 4352 
L 64 4185 
C 435 4185 506 4160 582 3955 
L 2106 -26 
C 2138 -116 2144 -128 2214 -128 
C 2285 -128 2291 -116 2323 -26 
L 3776 3762 
z
" transform="scale(0.015625)"/>
       <path id="CMR17-45" d="M 3885 1614 
L 3770 1614 
C 3629 676 3546 166 2419 166 
L 1530 166 
C 1274 166 1261 198 1261 415 
L 1261 2176 
L 1862 2176 
C 2464 2176 2522 1959 2522 1429 
L 2637 1429 
L 2637 3086 
L 2522 3086 
C 2522 2558 2464 2342 1862 2342 
L 1261 2342 
L 1261 3924 
C 1261 4141 1274 4172 1530 4172 
L 2406 4172 
C 3398 4172 3514 3778 3603 2933 
L 3718 2933 
L 3565 4339 
L 326 4339 
L 326 4172 
C 768 4172 838 4172 838 3886 
L 838 453 
C 838 166 768 166 326 166 
L 326 0 
L 3654 0 
L 3885 1614 
z
" transform="scale(0.015625)"/>
      </defs>
      <use xlink:href="#CMR17-28" transform="scale(0.996264)"/>
      <use xlink:href="#CMR17-31" transform="translate(35.280768 0)scale(0.996264)"/>
      <use xlink:href="#CMR17-30" transform="translate(80.971245 0)scale(0.996264)"/>
      <use xlink:href="#CMR17-4d" transform="translate(156.737688 0)scale(0.996264)"/>
      <use xlink:href="#CMR17-65" transform="translate(241.424629 0)scale(0.996264)"/>
      <use xlink:href="#CMR17-56" transform="translate(281.910289 0)scale(0.996264)"/>
      <use xlink:href="#CMR17-29" transform="translate(350.982719 0)scale(0.996264)"/>
      <use xlink:href="#CMR17-45" transform="translate(416.339453 0)scale(0.996264)"/>
      <use xlink:href="#CMR17-53" transform="translate(478.925754 0)scale(0.996264)"/>
      <use xlink:href="#CMR17-65" transform="translate(559.89709 0)scale(0.996264)"/>
      <use xlink:href="#CMR17-76" transform="translate(600.38275 0)scale(0.996264)"/>
      <use xlink:href="#CMR17-65" transform="translate(646.073212 0)scale(0.996264)"/>
      <use xlink:href="#CMR17-6e" transform="translate(686.558873 0)scale(0.996264)"/>
      <use xlink:href="#CMR17-74" transform="translate(734.851789 0)scale(0.996264)"/>
      <use xlink:href="#CMR17-73" transform="translate(770.132557 0)scale(0.996264)"/>
     </g>
    </g>
    <g id="line2d_20">
     <path d="M 364.580552 88.140011 
L 374.580552 88.140011 
L 384.580552 88.140011 
" style="fill: none; stroke: #8a226a; stroke-width: 1.5; stroke-linecap: square"/>
    </g>
    <g id="text_19">
     <!-- Only ES -->
     <g transform="translate(392.580552 91.640011)scale(0.1 -0.1)">
      <defs>
       <path id="CMR17-4f" d="M 4307 2166 
C 4307 3488 3366 4480 2304 4480 
C 1216 4480 294 3475 294 2166 
C 294 857 1229 -128 2298 -128 
C 3392 -128 4307 876 4307 2166 
z
M 2304 -13 
C 1574 -13 781 722 781 2250 
C 781 3771 1651 4364 2298 4364 
C 2976 4364 3821 3752 3821 2250 
C 3821 696 3008 -13 2304 -13 
z
" transform="scale(0.015625)"/>
      </defs>
      <use xlink:href="#CMR17-4f" transform="scale(0.996264)"/>
      <use xlink:href="#CMR17-6e" transform="translate(71.714788 0)scale(0.996264)"/>
      <use xlink:href="#CMR17-6c" transform="translate(122.610158 0)scale(0.996264)"/>
      <use xlink:href="#CMR17-79" transform="translate(147.481217 0)scale(0.996264)"/>
      <use xlink:href="#CMR17-45" transform="translate(225.850099 0)scale(0.996264)"/>
      <use xlink:href="#CMR17-53" transform="translate(288.436399 0)scale(0.996264)"/>
     </g>
    </g>
    <g id="line2d_21">
     <path d="M 364.580552 113.203653 
L 374.580552 113.203653 
L 384.580552 113.203653 
" style="fill: none; stroke: #e45a31; stroke-width: 1.5; stroke-linecap: square"/>
    </g>
    <g id="text_20">
     <!-- All data + IBD  -->
     <g transform="translate(392.580552 105.495687)scale(0.1 -0.1)">
      <defs>
       <path id="CMR17-41" d="M 2323 4441 
C 2291 4524 2278 4544 2214 4544 
C 2150 4544 2138 4524 2106 4441 
L 749 580 
C 627 236 371 166 147 166 
L 147 0 
C 262 12 518 12 640 12 
C 800 12 1056 12 1210 0 
L 1210 166 
C 909 179 864 382 864 459 
C 864 516 877 548 890 586 
L 1229 1536 
L 2906 1536 
L 3290 453 
C 3322 376 3322 363 3322 338 
C 3322 166 3046 166 2925 166 
L 2925 0 
C 3110 12 3443 12 3642 12 
C 3808 12 4128 12 4282 0 
L 4282 166 
C 3942 166 3827 166 3744 402 
L 2323 4441 
z
M 2067 3924 
L 2848 1702 
L 1286 1702 
L 2067 3924 
z
" transform="scale(0.015625)"/>
       <path id="CMR17-2b" d="M 2413 1472 
L 4109 1472 
C 4198 1472 4307 1472 4307 1580 
C 4307 1696 4205 1696 4109 1696 
L 2413 1696 
L 2413 3385 
C 2413 3475 2413 3584 2304 3584 
C 2189 3584 2189 3481 2189 3385 
L 2189 1696 
L 493 1696 
C 403 1696 294 1696 294 1587 
C 294 1472 397 1472 493 1472 
L 2189 1472 
L 2189 -194 
C 2189 -282 2189 -391 2298 -391 
C 2413 -391 2413 -289 2413 -194 
L 2413 1472 
z
" transform="scale(0.015625)"/>
       <path id="CMR17-42" d="M 333 4352 
L 333 4185 
C 774 4185 845 4185 845 3897 
L 845 451 
C 845 166 774 166 333 166 
L 333 0 
L 2534 0 
C 3354 0 3885 578 3885 1155 
C 3885 1726 3360 2214 2675 2259 
C 3290 2380 3718 2790 3718 3276 
C 3718 3808 3194 4352 2368 4352 
L 333 4352 
z
M 1248 2304 
L 1248 3936 
C 1248 4153 1261 4185 1517 4185 
L 2336 4185 
C 2970 4185 3251 3673 3251 3276 
C 3251 2790 2861 2304 2170 2304 
L 1248 2304 
z
M 1517 166 
C 1261 166 1248 198 1248 413 
L 1248 2201 
L 2432 2201 
C 3091 2201 3411 1624 3411 1161 
C 3411 698 3046 166 2349 166 
L 1517 166 
z
" transform="scale(0.015625)"/>
       <path id="CMR17-44" d="M 333 4352 
L 333 4185 
C 774 4185 845 4185 845 3898 
L 845 453 
C 845 166 774 166 333 166 
L 333 0 
L 2368 0 
C 3398 0 4224 943 4224 2140 
C 4224 3344 3411 4352 2368 4352 
L 333 4352 
z
M 1523 166 
C 1267 166 1254 198 1254 414 
L 1254 3936 
C 1254 4153 1267 4185 1523 4185 
L 2240 4185 
C 2771 4185 3750 3873 3750 2140 
C 3750 1242 3488 879 3366 707 
C 3213 510 2848 166 2240 166 
L 1523 166 
z
" transform="scale(0.015625)"/>
      </defs>
      <use xlink:href="#CMR17-41" transform="scale(0.996264)"/>
      <use xlink:href="#CMR17-6c" transform="translate(69.07243 0)scale(0.996264)"/>
      <use xlink:href="#CMR17-6c" transform="translate(93.943488 0)scale(0.996264)"/>
      <use xlink:href="#CMR17-64" transform="translate(148.890513 0)scale(0.996264)"/>
      <use xlink:href="#CMR17-61" transform="translate(199.785883 0)scale(0.996264)"/>
      <use xlink:href="#CMR17-74" transform="translate(245.47636 0)scale(0.996264)"/>
      <use xlink:href="#CMR17-61" transform="translate(280.757128 0)scale(0.996264)"/>
      <use xlink:href="#CMR17-2b" transform="translate(356.523571 0)scale(0.996264)"/>
      <use xlink:href="#CMR17-49" transform="translate(458.314326 0)scale(0.996264)"/>
      <use xlink:href="#CMR17-42" transform="translate(490.952735 0)scale(0.996264)"/>
      <use xlink:href="#CMR17-44" transform="translate(556.14149 0)scale(0.996264)"/>
     </g>
     <!--  tagging + energy  -->
     <g transform="translate(392.580552 115.735064)scale(0.1 -0.1)">
      <use xlink:href="#CMR17-74" transform="scale(0.996264)"/>
      <use xlink:href="#CMR17-61" transform="translate(35.280768 0)scale(0.996264)"/>
      <use xlink:href="#CMR17-67" transform="translate(80.971245 0)scale(0.996264)"/>
      <use xlink:href="#CMR17-67" transform="translate(126.661722 0)scale(0.996264)"/>
      <use xlink:href="#CMR17-69" transform="translate(172.352199 0)scale(0.996264)"/>
      <use xlink:href="#CMR17-6e" transform="translate(197.223258 0)scale(0.996264)"/>
      <use xlink:href="#CMR17-67" transform="translate(248.118627 0)scale(0.996264)"/>
      <use xlink:href="#CMR17-2b" transform="translate(323.885071 0)scale(0.996264)"/>
      <use xlink:href="#CMR17-65" transform="translate(425.675826 0)scale(0.996264)"/>
      <use xlink:href="#CMR17-6e" transform="translate(466.161486 0)scale(0.996264)"/>
      <use xlink:href="#CMR17-65" transform="translate(517.056856 0)scale(0.996264)"/>
      <use xlink:href="#CMR17-72" transform="translate(557.542516 0)scale(0.996264)"/>
      <use xlink:href="#CMR17-67" transform="translate(592.823284 0)scale(0.996264)"/>
      <use xlink:href="#CMR17-79" transform="translate(638.513761 0)scale(0.996264)"/>
     </g>
     <!--  truncation -->
     <g transform="translate(392.580552 125.97444)scale(0.1 -0.1)">
      <use xlink:href="#CMR17-74" transform="scale(0.996264)"/>
      <use xlink:href="#CMR17-72" transform="translate(35.280768 0)scale(0.996264)"/>
      <use xlink:href="#CMR17-75" transform="translate(70.561536 0)scale(0.996264)"/>
      <use xlink:href="#CMR17-6e" transform="translate(121.456905 0)scale(0.996264)"/>
      <use xlink:href="#CMR17-63" transform="translate(172.352275 0)scale(0.996264)"/>
      <use xlink:href="#CMR17-61" transform="translate(212.837936 0)scale(0.996264)"/>
      <use xlink:href="#CMR17-74" transform="translate(258.528413 0)scale(0.996264)"/>
      <use xlink:href="#CMR17-69" transform="translate(293.809181 0)scale(0.996264)"/>
      <use xlink:href="#CMR17-6f" transform="translate(318.680239 0)scale(0.996264)"/>
      <use xlink:href="#CMR17-6e" transform="translate(364.370716 0)scale(0.996264)"/>
     </g>
    </g>
    <g id="line2d_22">
     <path d="M 364.580552 142.418394 
L 374.580552 142.418394 
L 384.580552 142.418394 
" style="fill: none; stroke: #f9cb35; stroke-width: 1.5; stroke-linecap: square"/>
    </g>
    <g id="text_21">
     <!-- All data + IBD  -->
     <g transform="translate(392.580552 139.830117)scale(0.1 -0.1)">
      <use xlink:href="#CMR17-41" transform="scale(0.996264)"/>
      <use xlink:href="#CMR17-6c" transform="translate(69.07243 0)scale(0.996264)"/>
      <use xlink:href="#CMR17-6c" transform="translate(93.943488 0)scale(0.996264)"/>
      <use xlink:href="#CMR17-64" transform="translate(148.890513 0)scale(0.996264)"/>
      <use xlink:href="#CMR17-61" transform="translate(199.785883 0)scale(0.996264)"/>
      <use xlink:href="#CMR17-74" transform="translate(245.47636 0)scale(0.996264)"/>
      <use xlink:href="#CMR17-61" transform="translate(280.757128 0)scale(0.996264)"/>
      <use xlink:href="#CMR17-2b" transform="translate(356.523571 0)scale(0.996264)"/>
      <use xlink:href="#CMR17-49" transform="translate(458.314326 0)scale(0.996264)"/>
      <use xlink:href="#CMR17-42" transform="translate(490.952735 0)scale(0.996264)"/>
      <use xlink:href="#CMR17-44" transform="translate(556.14149 0)scale(0.996264)"/>
     </g>
     <!--  tagging -->
     <g transform="translate(392.580552 150.069493)scale(0.1 -0.1)">
      <use xlink:href="#CMR17-74" transform="scale(0.996264)"/>
      <use xlink:href="#CMR17-61" transform="translate(35.280768 0)scale(0.996264)"/>
      <use xlink:href="#CMR17-67" transform="translate(80.971245 0)scale(0.996264)"/>
      <use xlink:href="#CMR17-67" transform="translate(126.661722 0)scale(0.996264)"/>
      <use xlink:href="#CMR17-69" transform="translate(172.352199 0)scale(0.996264)"/>
      <use xlink:href="#CMR17-6e" transform="translate(197.223258 0)scale(0.996264)"/>
      <use xlink:href="#CMR17-67" transform="translate(248.118627 0)scale(0.996264)"/>
     </g>
    </g>
   </g>
  </g>
 </g>
 <defs>
  <clipPath id="pe17bf0b2e1">
   <rect x="45.555547" y="53.099298" width="446.4" height="277.2"/>
  </clipPath>
 </defs>
</svg>
