<?xml version="1.0" encoding="utf-8" standalone="no"?>
<!DOCTYPE svg PUBLIC "-//W3C//DTD SVG 1.1//EN"
  "http://www.w3.org/Graphics/SVG/1.1/DTD/svg11.dtd">
<svg xmlns:xlink="http://www.w3.org/1999/xlink" width="551.089136pt" height="331.325562pt" viewBox="0 0 551.089136 331.325562" xmlns="http://www.w3.org/2000/svg" version="1.1">
 <metadata>
  <rdf:RDF xmlns:dc="http://purl.org/dc/elements/1.1/" xmlns:cc="http://creativecommons.org/ns#" xmlns:rdf="http://www.w3.org/1999/02/22-rdf-syntax-ns#">
   <cc:Work>
    <dc:type rdf:resource="http://purl.org/dc/dcmitype/StillImage"/>
    <dc:date>2023-07-28T08:08:20.212235</dc:date>
    <dc:format>image/svg+xml</dc:format>
    <dc:creator>
     <cc:Agent>
      <dc:title>Matplotlib v3.5.2, https://matplotlib.org/</dc:title>
     </cc:Agent>
    </dc:creator>
   </cc:Work>
  </rdf:RDF>
 </metadata>
 <defs>
  <style type="text/css">*{stroke-linejoin: round; stroke-linecap: butt}</style>
 </defs>
 <g id="figure_1">
  <g id="patch_1">
   <path d="M 0 331.325562 
L 551.089136 331.325562 
L 551.089136 0 
L 0 0 
z
" style="fill: #ffffff"/>
  </g>
  <g id="axes_1">
   <g id="patch_2">
    <path d="M 36.450895 288.55109 
L 482.850895 288.55109 
L 482.850895 11.35109 
L 36.450895 11.35109 
z
" style="fill: #ffffff"/>
   </g>
   <g id="matplotlib.axis_1">
    <g id="xtick_1">
     <g id="line2d_1">
      <path d="M 36.450895 288.55109 
L 36.450895 11.35109 
" clip-path="url(#pf391a54a96)" style="fill: none; stroke-dasharray: 2.96,1.28; stroke-dashoffset: 0; stroke: #808080; stroke-opacity: 0.4; stroke-width: 0.8"/>
     </g>
     <g id="line2d_2">
      <defs>
       <path id="mb745e71851" d="M 0 0 
L 0 3.5 
" style="stroke: #000000; stroke-width: 0.8"/>
      </defs>
      <g>
       <use xlink:href="#mb745e71851" x="36.450895" y="288.55109" style="stroke: #000000; stroke-width: 0.8"/>
      </g>
     </g>
     <g id="text_1">
      <!-- $\mathdefault{0}$ -->
      <g transform="translate(33.5244 303.85327)scale(0.12 -0.12)">
       <defs>
        <path id="CMR17-30" d="M 2688 2038 
C 2688 2430 2682 3099 2413 3613 
C 2176 4063 1798 4224 1466 4224 
C 1158 4224 768 4082 525 3620 
C 269 3137 243 2539 243 2038 
C 243 1671 250 1112 448 623 
C 723 -39 1216 -128 1466 -128 
C 1760 -128 2208 -7 2470 604 
C 2662 1048 2688 1568 2688 2038 
z
M 1466 -26 
C 1056 -26 813 328 723 816 
C 653 1196 653 1749 653 2109 
C 653 2604 653 3015 736 3407 
C 858 3954 1216 4121 1466 4121 
C 1728 4121 2067 3947 2189 3420 
C 2272 3054 2278 2623 2278 2109 
C 2278 1691 2278 1176 2202 797 
C 2067 96 1690 -26 1466 -26 
z
" transform="scale(0.015625)"/>
       </defs>
       <use xlink:href="#CMR17-30" transform="scale(0.996264)"/>
      </g>
     </g>
    </g>
    <g id="xtick_2">
     <g id="line2d_3">
      <path d="M 125.730895 288.55109 
L 125.730895 11.35109 
" clip-path="url(#pf391a54a96)" style="fill: none; stroke-dasharray: 2.96,1.28; stroke-dashoffset: 0; stroke: #808080; stroke-opacity: 0.4; stroke-width: 0.8"/>
     </g>
     <g id="line2d_4">
      <g>
       <use xlink:href="#mb745e71851" x="125.730895" y="288.55109" style="stroke: #000000; stroke-width: 0.8"/>
      </g>
     </g>
     <g id="text_2">
      <!-- $\mathdefault{20}$ -->
      <g transform="translate(119.877905 303.85327)scale(0.12 -0.12)">
       <defs>
        <path id="CMR17-32" d="M 2669 990 
L 2554 990 
C 2490 537 2438 460 2413 422 
C 2381 371 1920 371 1830 371 
L 602 371 
C 832 620 1280 1073 1824 1596 
C 2214 1966 2669 2400 2669 3033 
C 2669 3788 2067 4224 1395 4224 
C 691 4224 262 3603 262 3027 
C 262 2777 448 2745 525 2745 
C 589 2745 781 2783 781 3007 
C 781 3206 614 3264 525 3264 
C 486 3264 448 3257 422 3244 
C 544 3788 915 4057 1306 4057 
C 1862 4057 2227 3616 2227 3033 
C 2227 2477 1901 1998 1536 1583 
L 262 147 
L 262 0 
L 2515 0 
L 2669 990 
z
" transform="scale(0.015625)"/>
       </defs>
       <use xlink:href="#CMR17-32" transform="scale(0.996264)"/>
       <use xlink:href="#CMR17-30" transform="translate(45.690477 0)scale(0.996264)"/>
      </g>
     </g>
    </g>
    <g id="xtick_3">
     <g id="line2d_5">
      <path d="M 215.010895 288.55109 
L 215.010895 11.35109 
" clip-path="url(#pf391a54a96)" style="fill: none; stroke-dasharray: 2.96,1.28; stroke-dashoffset: 0; stroke: #808080; stroke-opacity: 0.4; stroke-width: 0.8"/>
     </g>
     <g id="line2d_6">
      <g>
       <use xlink:href="#mb745e71851" x="215.010895" y="288.55109" style="stroke: #000000; stroke-width: 0.8"/>
      </g>
     </g>
     <g id="text_3">
      <!-- $\mathdefault{40}$ -->
      <g transform="translate(209.157905 303.85327)scale(0.12 -0.12)">
       <defs>
        <path id="CMR17-34" d="M 2150 4147 
C 2150 4281 2144 4288 2029 4288 
L 128 1254 
L 128 1088 
L 1779 1088 
L 1779 460 
C 1779 230 1766 166 1318 166 
L 1197 166 
L 1197 0 
C 1402 12 1747 12 1965 12 
C 2182 12 2528 12 2733 0 
L 2733 166 
L 2611 166 
C 2163 166 2150 230 2150 460 
L 2150 1088 
L 2803 1088 
L 2803 1254 
L 2150 1254 
L 2150 4147 
z
M 1798 3723 
L 1798 1254 
L 256 1254 
L 1798 3723 
z
" transform="scale(0.015625)"/>
       </defs>
       <use xlink:href="#CMR17-34" transform="scale(0.996264)"/>
       <use xlink:href="#CMR17-30" transform="translate(45.690477 0)scale(0.996264)"/>
      </g>
     </g>
    </g>
    <g id="xtick_4">
     <g id="line2d_7">
      <path d="M 304.290895 288.55109 
L 304.290895 11.35109 
" clip-path="url(#pf391a54a96)" style="fill: none; stroke-dasharray: 2.96,1.28; stroke-dashoffset: 0; stroke: #808080; stroke-opacity: 0.4; stroke-width: 0.8"/>
     </g>
     <g id="line2d_8">
      <g>
       <use xlink:href="#mb745e71851" x="304.290895" y="288.55109" style="stroke: #000000; stroke-width: 0.8"/>
      </g>
     </g>
     <g id="text_4">
      <!-- $\mathdefault{60}$ -->
      <g transform="translate(298.437905 303.85327)scale(0.12 -0.12)">
       <defs>
        <path id="CMR17-36" d="M 678 2198 
C 678 3712 1395 4076 1811 4076 
C 1946 4076 2272 4049 2400 3782 
C 2298 3782 2106 3782 2106 3558 
C 2106 3385 2246 3328 2336 3328 
C 2394 3328 2566 3353 2566 3571 
C 2566 3987 2246 4224 1805 4224 
C 1043 4224 243 3411 243 2011 
C 243 257 966 -128 1478 -128 
C 2099 -128 2688 431 2688 1295 
C 2688 2101 2170 2688 1517 2688 
C 1126 2688 838 2430 678 1979 
L 678 2198 
z
M 1478 25 
C 691 25 691 1212 691 1450 
C 691 1914 909 2585 1504 2585 
C 1613 2585 1926 2585 2138 2140 
C 2253 1889 2253 1624 2253 1302 
C 2253 954 2253 696 2118 438 
C 1978 173 1773 25 1478 25 
z
" transform="scale(0.015625)"/>
       </defs>
       <use xlink:href="#CMR17-36" transform="scale(0.996264)"/>
       <use xlink:href="#CMR17-30" transform="translate(45.690477 0)scale(0.996264)"/>
      </g>
     </g>
    </g>
    <g id="xtick_5">
     <g id="line2d_9">
      <path d="M 393.570895 288.55109 
L 393.570895 11.35109 
" clip-path="url(#pf391a54a96)" style="fill: none; stroke-dasharray: 2.96,1.28; stroke-dashoffset: 0; stroke: #808080; stroke-opacity: 0.4; stroke-width: 0.8"/>
     </g>
     <g id="line2d_10">
      <g>
       <use xlink:href="#mb745e71851" x="393.570895" y="288.55109" style="stroke: #000000; stroke-width: 0.8"/>
      </g>
     </g>
     <g id="text_5">
      <!-- $\mathdefault{80}$ -->
      <g transform="translate(387.717905 303.85327)scale(0.12 -0.12)">
       <defs>
        <path id="CMR17-38" d="M 1741 2289 
C 2144 2494 2554 2803 2554 3298 
C 2554 3884 1990 4224 1472 4224 
C 890 4224 378 3800 378 3215 
C 378 3054 416 2777 666 2533 
C 730 2469 998 2276 1171 2154 
C 883 2006 211 1652 211 945 
C 211 282 838 -128 1459 -128 
C 2144 -128 2720 366 2720 1022 
C 2720 1607 2330 1877 2074 2051 
L 1741 2289 
z
M 902 2855 
C 851 2887 595 3086 595 3388 
C 595 3781 998 4076 1459 4076 
C 1965 4076 2336 3716 2336 3298 
C 2336 2700 1670 2359 1638 2359 
C 1632 2359 1626 2359 1574 2398 
L 902 2855 
z
M 2080 1536 
C 2176 1466 2483 1253 2483 861 
C 2483 385 2010 25 1472 25 
C 890 25 448 443 448 951 
C 448 1459 838 1884 1280 2083 
L 2080 1536 
z
" transform="scale(0.015625)"/>
       </defs>
       <use xlink:href="#CMR17-38" transform="scale(0.996264)"/>
       <use xlink:href="#CMR17-30" transform="translate(45.690477 0)scale(0.996264)"/>
      </g>
     </g>
    </g>
    <g id="xtick_6">
     <g id="line2d_11">
      <path d="M 482.850895 288.55109 
L 482.850895 11.35109 
" clip-path="url(#pf391a54a96)" style="fill: none; stroke-dasharray: 2.96,1.28; stroke-dashoffset: 0; stroke: #808080; stroke-opacity: 0.4; stroke-width: 0.8"/>
     </g>
     <g id="line2d_12">
      <g>
       <use xlink:href="#mb745e71851" x="482.850895" y="288.55109" style="stroke: #000000; stroke-width: 0.8"/>
      </g>
     </g>
     <g id="text_6">
      <!-- $\mathdefault{100}$ -->
      <g transform="translate(474.07141 303.85327)scale(0.12 -0.12)">
       <defs>
        <path id="CMR17-31" d="M 1702 4083 
C 1702 4217 1696 4224 1606 4224 
C 1357 3927 979 3833 621 3820 
C 602 3820 570 3820 563 3808 
C 557 3795 557 3782 557 3648 
C 755 3648 1088 3686 1344 3839 
L 1344 467 
C 1344 243 1331 166 781 166 
L 589 166 
L 589 0 
C 896 6 1216 12 1523 12 
C 1830 12 2150 6 2458 0 
L 2458 166 
L 2266 166 
C 1715 166 1702 236 1702 467 
L 1702 4083 
z
" transform="scale(0.015625)"/>
       </defs>
       <use xlink:href="#CMR17-31" transform="scale(0.996264)"/>
       <use xlink:href="#CMR17-30" transform="translate(45.690477 0)scale(0.996264)"/>
       <use xlink:href="#CMR17-30" transform="translate(91.380954 0)scale(0.996264)"/>
      </g>
     </g>
    </g>
    <g id="text_7">
     <!-- Distance [kpc] -->
     <g transform="translate(217.22063 320.638638)scale(0.14 -0.14)">
      <defs>
       <path id="CMR17-44" d="M 333 4352 
L 333 4185 
C 774 4185 845 4185 845 3898 
L 845 453 
C 845 166 774 166 333 166 
L 333 0 
L 2368 0 
C 3398 0 4224 943 4224 2140 
C 4224 3344 3411 4352 2368 4352 
L 333 4352 
z
M 1523 166 
C 1267 166 1254 198 1254 414 
L 1254 3936 
C 1254 4153 1267 4185 1523 4185 
L 2240 4185 
C 2771 4185 3750 3873 3750 2140 
C 3750 1242 3488 879 3366 707 
C 3213 510 2848 166 2240 166 
L 1523 166 
z
" transform="scale(0.015625)"/>
       <path id="CMR17-69" d="M 992 3961 
C 992 4102 877 4224 730 4224 
C 589 4224 467 4108 467 3961 
C 467 3820 582 3699 730 3699 
C 870 3699 992 3814 992 3961 
z
M 243 2745 
L 243 2579 
C 602 2579 653 2540 653 2231 
L 653 443 
C 653 198 627 166 218 166 
L 218 0 
C 371 12 646 12 806 12 
C 960 12 1222 12 1370 0 
L 1370 166 
C 992 166 979 205 979 436 
L 979 2816 
L 243 2745 
z
" transform="scale(0.015625)"/>
       <path id="CMR17-73" d="M 1978 2688 
C 1978 2803 1971 2809 1933 2809 
C 1907 2809 1901 2803 1824 2707 
C 1805 2681 1747 2617 1728 2592 
C 1523 2809 1235 2816 1126 2816 
C 416 2816 160 2444 160 2073 
C 160 1497 813 1363 998 1324 
C 1402 1241 1542 1216 1677 1100 
C 1760 1024 1901 883 1901 652 
C 1901 384 1747 38 1158 38 
C 602 38 403 460 288 1024 
C 269 1113 269 1120 218 1120 
C 166 1120 160 1113 160 985 
L 160 64 
C 160 -52 166 -58 205 -58 
C 237 -58 243 -52 275 0 
C 314 57 410 211 448 275 
C 576 102 800 -64 1158 -64 
C 1792 -64 2131 281 2131 780 
C 2131 1107 1958 1280 1875 1356 
C 1683 1555 1459 1600 1190 1651 
C 838 1728 390 1817 390 2208 
C 390 2374 480 2726 1126 2726 
C 1811 2726 1850 2086 1862 1881 
C 1869 1849 1901 1843 1920 1843 
C 1978 1843 1978 1862 1978 1971 
L 1978 2688 
z
" transform="scale(0.015625)"/>
       <path id="CMR17-74" d="M 966 2585 
L 1862 2585 
L 1862 2752 
L 966 2752 
L 966 3968 
L 851 3968 
C 838 3292 614 2700 70 2687 
L 70 2585 
L 627 2585 
L 627 778 
C 627 655 627 -64 1370 -64 
C 1747 -64 1965 308 1965 784 
L 1965 1151 
L 1850 1151 
L 1850 790 
C 1850 347 1677 51 1408 51 
C 1222 51 966 179 966 765 
L 966 2585 
z
" transform="scale(0.015625)"/>
       <path id="CMR17-61" d="M 2304 1656 
C 2304 2048 2304 2275 2035 2534 
C 1798 2751 1523 2816 1306 2816 
C 800 2816 435 2408 435 1977 
C 435 1740 627 1728 666 1728 
C 749 1728 896 1779 896 1958 
C 896 2118 774 2188 666 2188 
C 640 2188 608 2182 589 2176 
C 723 2594 1069 2713 1293 2713 
C 1613 2713 1965 2421 1965 1875 
L 1965 1632 
C 1587 1619 1133 1568 774 1373 
C 371 1147 256 822 256 576 
C 256 77 832 -64 1171 -64 
C 1523 -64 1850 135 1990 505 
C 2003 219 2182 -39 2464 -39 
C 2598 -39 2938 51 2938 563 
L 2938 926 
L 2822 926 
L 2822 557 
C 2822 161 2650 109 2566 109 
C 2304 109 2304 446 2304 732 
L 2304 1656 
z
M 1965 887 
C 1965 323 1568 38 1216 38 
C 896 38 646 278 646 576 
C 646 771 730 1114 1101 1322 
C 1408 1497 1760 1523 1965 1536 
L 1965 887 
z
" transform="scale(0.015625)"/>
       <path id="CMR17-6e" d="M 2656 1954 
C 2656 2282 2592 2816 1837 2816 
C 1331 2816 1069 2424 973 2166 
L 966 2166 
L 966 2816 
L 211 2745 
L 211 2578 
C 589 2578 646 2540 646 2231 
L 646 443 
C 646 198 621 166 211 166 
L 211 0 
C 365 12 646 12 813 12 
C 979 12 1267 12 1421 0 
L 1421 166 
C 1011 166 986 192 986 443 
L 986 1678 
C 986 2269 1344 2713 1792 2713 
C 2266 2713 2317 2289 2317 1980 
L 2317 443 
C 2317 198 2291 166 1882 166 
L 1882 0 
C 2035 12 2317 12 2483 12 
C 2650 12 2938 12 3091 0 
L 3091 166 
C 2682 166 2656 192 2656 443 
L 2656 1954 
z
" transform="scale(0.015625)"/>
       <path id="CMR17-63" d="M 2234 2240 
C 2112 2240 1933 2240 1933 2015 
C 1933 1836 2080 1785 2163 1785 
C 2208 1785 2394 1804 2394 2028 
C 2394 2476 1958 2816 1466 2816 
C 787 2816 211 2201 211 1379 
C 211 521 813 -64 1466 -64 
C 2259 -64 2458 676 2458 747 
C 2458 773 2451 792 2406 792 
C 2362 792 2355 786 2330 702 
C 2163 180 1798 51 1523 51 
C 1114 51 621 431 621 1385 
C 621 2358 1094 2700 1472 2700 
C 1722 2700 2093 2582 2234 2240 
z
" transform="scale(0.015625)"/>
       <path id="CMR17-65" d="M 2438 1503 
C 2464 1529 2464 1542 2464 1606 
C 2464 2251 2118 2816 1389 2816 
C 710 2816 173 2175 173 1394 
C 173 554 781 -64 1459 -64 
C 2176 -64 2458 619 2458 755 
C 2458 800 2419 800 2406 800 
C 2362 800 2355 787 2330 709 
C 2189 270 1837 51 1504 51 
C 1229 51 954 206 781 490 
C 582 819 582 1200 582 1503 
L 2438 1503 
z
M 589 1600 
C 634 2511 1126 2713 1382 2713 
C 1818 2713 2112 2308 2118 1600 
L 589 1600 
z
" transform="scale(0.015625)"/>
       <path id="CMR17-5b" d="M 1504 -1600 
L 1504 -1376 
L 902 -1376 
L 902 4575 
L 1504 4575 
L 1504 4800 
L 678 4800 
L 678 -1600 
L 1504 -1600 
z
" transform="scale(0.015625)"/>
       <path id="CMR17-6b" d="M 1670 1679 
C 1664 1692 1632 1730 1632 1749 
C 1632 1762 2086 2175 2144 2226 
C 2509 2532 2739 2563 2906 2570 
L 2906 2735 
C 2867 2735 2854 2735 2848 2729 
L 2534 2722 
C 2355 2722 2080 2722 1907 2735 
L 1907 2570 
C 1997 2563 2061 2513 2061 2423 
C 2061 2296 1933 2175 1926 2175 
L 960 1298 
L 960 4416 
L 198 4345 
L 198 4179 
C 576 4179 634 4141 634 3835 
L 634 439 
C 634 198 608 166 198 166 
L 198 0 
C 352 12 634 12 794 12 
C 954 12 1235 12 1389 0 
L 1389 166 
C 979 166 954 191 954 439 
L 954 1139 
L 1395 1540 
L 2042 586 
C 2118 471 2182 382 2182 299 
C 2182 185 2067 166 1990 166 
L 1990 0 
C 2144 12 2419 12 2579 12 
C 2694 12 2931 6 3040 0 
L 3040 166 
C 2739 166 2669 223 2477 503 
L 1670 1679 
z
" transform="scale(0.015625)"/>
       <path id="CMR17-70" d="M 1408 -1114 
C 998 -1114 973 -1088 973 -834 
L 973 380 
C 1158 109 1427 -64 1766 -64 
C 2406 -64 3053 503 3053 1382 
C 3053 2196 2496 2816 1837 2816 
C 1453 2816 1139 2603 960 2345 
L 960 2816 
L 198 2745 
L 198 2577 
C 576 2577 634 2539 634 2228 
L 634 -834 
C 634 -1081 608 -1114 198 -1114 
L 198 -1280 
C 352 -1268 634 -1268 800 -1268 
C 966 -1268 1254 -1268 1408 -1280 
L 1408 -1114 
z
M 973 2015 
C 973 2106 973 2241 1222 2481 
C 1254 2506 1472 2700 1792 2700 
C 2259 2700 2643 2112 2643 1376 
C 2643 639 2234 38 1728 38 
C 1498 38 1248 148 1056 451 
C 973 594 973 632 973 736 
L 973 2015 
z
" transform="scale(0.015625)"/>
       <path id="CMR17-5d" d="M 915 4800 
L 90 4800 
L 90 4575 
L 691 4575 
L 691 -1376 
L 90 -1376 
L 90 -1600 
L 915 -1600 
L 915 4800 
z
" transform="scale(0.015625)"/>
      </defs>
      <use xlink:href="#CMR17-44" transform="scale(0.996264)"/>
      <use xlink:href="#CMR17-69" transform="translate(70.393556 0)scale(0.996264)"/>
      <use xlink:href="#CMR17-73" transform="translate(95.264614 0)scale(0.996264)"/>
      <use xlink:href="#CMR17-74" transform="translate(131.065952 0)scale(0.996264)"/>
      <use xlink:href="#CMR17-61" transform="translate(166.34672 0)scale(0.996264)"/>
      <use xlink:href="#CMR17-6e" transform="translate(212.037197 0)scale(0.996264)"/>
      <use xlink:href="#CMR17-63" transform="translate(262.932567 0)scale(0.996264)"/>
      <use xlink:href="#CMR17-65" transform="translate(303.418227 0)scale(0.996264)"/>
      <use xlink:href="#CMR17-5b" transform="translate(373.979854 0)scale(0.996264)"/>
      <use xlink:href="#CMR17-6b" transform="translate(398.850912 0)scale(0.996264)"/>
      <use xlink:href="#CMR17-70" transform="translate(447.143828 0)scale(0.996264)"/>
      <use xlink:href="#CMR17-63" transform="translate(500.641637 0)scale(0.996264)"/>
      <use xlink:href="#CMR17-5d" transform="translate(541.127297 0)scale(0.996264)"/>
     </g>
    </g>
   </g>
   <g id="matplotlib.axis_2">
    <g id="ytick_1">
     <g id="line2d_13">
      <path d="M 36.450895 288.55109 
L 482.850895 288.55109 
" clip-path="url(#pf391a54a96)" style="fill: none; stroke-dasharray: 2.96,1.28; stroke-dashoffset: 0; stroke: #808080; stroke-opacity: 0.4; stroke-width: 0.8"/>
     </g>
     <g id="line2d_14">
      <defs>
       <path id="m26f6763dd2" d="M 0 0 
L -3.5 0 
" style="stroke: #000000; stroke-width: 0.8"/>
      </defs>
      <g>
       <use xlink:href="#m26f6763dd2" x="36.450895" y="288.55109" style="stroke: #000000; stroke-width: 0.8"/>
      </g>
     </g>
     <g id="text_8">
      <!-- $\mathdefault{0}$ -->
      <g transform="translate(23.597905 292.70218)scale(0.12 -0.12)">
       <use xlink:href="#CMR17-30" transform="scale(0.996264)"/>
      </g>
     </g>
    </g>
    <g id="ytick_2">
     <g id="line2d_15">
      <path d="M 36.450895 242.35109 
L 482.850895 242.35109 
" clip-path="url(#pf391a54a96)" style="fill: none; stroke-dasharray: 2.96,1.28; stroke-dashoffset: 0; stroke: #808080; stroke-opacity: 0.4; stroke-width: 0.8"/>
     </g>
     <g id="line2d_16">
      <g>
       <use xlink:href="#m26f6763dd2" x="36.450895" y="242.35109" style="stroke: #000000; stroke-width: 0.8"/>
      </g>
     </g>
     <g id="text_9">
      <!-- $\mathdefault{1}$ -->
      <g transform="translate(23.597905 246.50218)scale(0.12 -0.12)">
       <use xlink:href="#CMR17-31" transform="scale(0.996264)"/>
      </g>
     </g>
    </g>
    <g id="ytick_3">
     <g id="line2d_17">
      <path d="M 36.450895 196.15109 
L 482.850895 196.15109 
" clip-path="url(#pf391a54a96)" style="fill: none; stroke-dasharray: 2.96,1.28; stroke-dashoffset: 0; stroke: #808080; stroke-opacity: 0.4; stroke-width: 0.8"/>
     </g>
     <g id="line2d_18">
      <g>
       <use xlink:href="#m26f6763dd2" x="36.450895" y="196.15109" style="stroke: #000000; stroke-width: 0.8"/>
      </g>
     </g>
     <g id="text_10">
      <!-- $\mathdefault{2}$ -->
      <g transform="translate(23.597905 200.30218)scale(0.12 -0.12)">
       <use xlink:href="#CMR17-32" transform="scale(0.996264)"/>
      </g>
     </g>
    </g>
    <g id="ytick_4">
     <g id="line2d_19">
      <path d="M 36.450895 149.95109 
L 482.850895 149.95109 
" clip-path="url(#pf391a54a96)" style="fill: none; stroke-dasharray: 2.96,1.28; stroke-dashoffset: 0; stroke: #808080; stroke-opacity: 0.4; stroke-width: 0.8"/>
     </g>
     <g id="line2d_20">
      <g>
       <use xlink:href="#m26f6763dd2" x="36.450895" y="149.95109" style="stroke: #000000; stroke-width: 0.8"/>
      </g>
     </g>
     <g id="text_11">
      <!-- $\mathdefault{3}$ -->
      <g transform="translate(23.597905 154.10218)scale(0.12 -0.12)">
       <defs>
        <path id="CMR17-33" d="M 1414 2176 
C 1984 2176 2234 1673 2234 1094 
C 2234 322 1824 25 1453 25 
C 1114 25 563 193 390 691 
C 422 678 454 678 486 678 
C 640 678 755 780 755 947 
C 755 1132 614 1216 486 1216 
C 378 1216 211 1164 211 927 
C 211 335 787 -128 1466 -128 
C 2176 -128 2720 432 2720 1087 
C 2720 1718 2208 2176 1600 2246 
C 2086 2347 2554 2776 2554 3353 
C 2554 3856 2048 4224 1472 4224 
C 890 4224 378 3862 378 3347 
C 378 3123 544 3084 627 3084 
C 762 3084 877 3167 877 3334 
C 877 3500 762 3584 627 3584 
C 602 3584 570 3584 544 3571 
C 730 3999 1235 4076 1459 4076 
C 1683 4076 2106 3966 2106 3347 
C 2106 3167 2080 2851 1862 2574 
C 1670 2329 1453 2316 1242 2297 
C 1210 2297 1062 2284 1037 2284 
C 992 2278 966 2272 966 2227 
C 966 2182 973 2176 1101 2176 
L 1414 2176 
z
" transform="scale(0.015625)"/>
       </defs>
       <use xlink:href="#CMR17-33" transform="scale(0.996264)"/>
      </g>
     </g>
    </g>
    <g id="ytick_5">
     <g id="line2d_21">
      <path d="M 36.450895 103.75109 
L 482.850895 103.75109 
" clip-path="url(#pf391a54a96)" style="fill: none; stroke-dasharray: 2.96,1.28; stroke-dashoffset: 0; stroke: #808080; stroke-opacity: 0.4; stroke-width: 0.8"/>
     </g>
     <g id="line2d_22">
      <g>
       <use xlink:href="#m26f6763dd2" x="36.450895" y="103.75109" style="stroke: #000000; stroke-width: 0.8"/>
      </g>
     </g>
     <g id="text_12">
      <!-- $\mathdefault{4}$ -->
      <g transform="translate(23.597905 107.90218)scale(0.12 -0.12)">
       <use xlink:href="#CMR17-34" transform="scale(0.996264)"/>
      </g>
     </g>
    </g>
    <g id="ytick_6">
     <g id="line2d_23">
      <path d="M 36.450895 57.55109 
L 482.850895 57.55109 
" clip-path="url(#pf391a54a96)" style="fill: none; stroke-dasharray: 2.96,1.28; stroke-dashoffset: 0; stroke: #808080; stroke-opacity: 0.4; stroke-width: 0.8"/>
     </g>
     <g id="line2d_24">
      <g>
       <use xlink:href="#m26f6763dd2" x="36.450895" y="57.55109" style="stroke: #000000; stroke-width: 0.8"/>
      </g>
     </g>
     <g id="text_13">
      <!-- $\mathdefault{5}$ -->
      <g transform="translate(23.597905 61.70218)scale(0.12 -0.12)">
       <defs>
        <path id="CMR17-35" d="M 730 3750 
C 794 3724 1056 3641 1325 3641 
C 1920 3641 2246 3961 2432 4140 
C 2432 4191 2432 4224 2394 4224 
C 2387 4224 2374 4224 2323 4198 
C 2099 4102 1837 4032 1517 4032 
C 1325 4032 1037 4055 723 4191 
C 653 4224 640 4224 634 4224 
C 602 4224 595 4217 595 4090 
L 595 2231 
C 595 2113 595 2080 659 2080 
C 691 2080 704 2093 736 2139 
C 941 2435 1222 2560 1542 2560 
C 1766 2560 2246 2415 2246 1293 
C 2246 1087 2246 716 2054 422 
C 1894 159 1645 25 1370 25 
C 947 25 518 319 403 812 
C 429 806 480 793 506 793 
C 589 793 749 838 749 1036 
C 749 1209 627 1280 506 1280 
C 358 1280 262 1190 262 1011 
C 262 454 704 -128 1382 -128 
C 2042 -128 2669 441 2669 1267 
C 2669 2054 2170 2662 1549 2662 
C 1222 2662 947 2540 730 2304 
L 730 3750 
z
" transform="scale(0.015625)"/>
       </defs>
       <use xlink:href="#CMR17-35" transform="scale(0.996264)"/>
      </g>
     </g>
    </g>
    <g id="ytick_7">
     <g id="line2d_25">
      <path d="M 36.450895 11.35109 
L 482.850895 11.35109 
" clip-path="url(#pf391a54a96)" style="fill: none; stroke-dasharray: 2.96,1.28; stroke-dashoffset: 0; stroke: #808080; stroke-opacity: 0.4; stroke-width: 0.8"/>
     </g>
     <g id="line2d_26">
      <g>
       <use xlink:href="#m26f6763dd2" x="36.450895" y="11.35109" style="stroke: #000000; stroke-width: 0.8"/>
      </g>
     </g>
     <g id="text_14">
      <!-- $\mathdefault{6}$ -->
      <g transform="translate(23.597905 15.50218)scale(0.12 -0.12)">
       <use xlink:href="#CMR17-36" transform="scale(0.996264)"/>
      </g>
     </g>
    </g>
    <g id="text_15">
     <!-- Pinch $\alpha$ -->
     <g transform="translate(16.885876 173.5457)rotate(-90)scale(0.14 -0.14)">
      <defs>
       <path id="CMR17-50" d="M 1267 2048 
L 2291 2048 
C 3117 2048 3718 2583 3718 3187 
C 3718 3791 3130 4352 2291 4352 
L 333 4352 
L 333 4185 
C 774 4185 845 4185 845 3899 
L 845 453 
C 845 166 774 166 333 166 
L 333 0 
C 518 12 858 12 1056 12 
C 1254 12 1594 12 1779 0 
L 1779 166 
C 1338 166 1267 166 1267 453 
L 1267 2048 
z
M 1254 2182 
L 1254 3937 
C 1254 4153 1267 4185 1523 4185 
L 2170 4185 
C 2995 4185 3232 3715 3232 3187 
C 3232 2608 2950 2182 2170 2182 
L 1254 2182 
z
" transform="scale(0.015625)"/>
       <path id="CMR17-68" d="M 2656 1954 
C 2656 2282 2592 2816 1837 2816 
C 1312 2816 1056 2392 979 2179 
L 973 2179 
L 973 4416 
L 211 4345 
L 211 4179 
C 589 4179 646 4141 646 3843 
L 646 443 
C 646 198 621 166 211 166 
L 211 0 
C 365 12 646 12 813 12 
C 979 12 1267 12 1421 0 
L 1421 166 
C 1011 166 986 192 986 443 
L 986 1678 
C 986 2269 1344 2713 1792 2713 
C 2266 2713 2317 2289 2317 1980 
L 2317 443 
C 2317 198 2291 166 1882 166 
L 1882 0 
C 2035 12 2317 12 2483 12 
C 2650 12 2938 12 3091 0 
L 3091 166 
C 2682 166 2656 192 2656 443 
L 2656 1954 
z
" transform="scale(0.015625)"/>
       <path id="CMMI12-b" d="M 2963 1615 
C 2963 2234 2611 2816 1933 2816 
C 1094 2816 256 1902 256 996 
C 256 440 602 -64 1254 -64 
C 1651 -64 2125 89 2579 472 
C 2669 115 2867 -64 3142 -64 
C 3488 -64 3661 293 3661 376 
C 3661 434 3616 434 3597 434 
C 3546 434 3539 415 3520 364 
C 3462 204 3315 64 3162 64 
C 2963 64 2963 472 2963 862 
C 3616 1641 3770 2445 3770 2451 
C 3770 2509 3718 2509 3699 2509 
C 3642 2509 3635 2490 3610 2375 
C 3526 2094 3360 1596 2963 1072 
L 2963 1615 
z
M 2560 625 
C 1997 121 1491 64 1267 64 
C 813 64 685 466 685 766 
C 685 1040 826 1692 1024 2043 
C 1286 2490 1645 2687 1933 2687 
C 2554 2687 2554 1877 2554 1340 
C 2554 1181 2547 1015 2547 855 
C 2547 728 2554 696 2560 625 
z
" transform="scale(0.015625)"/>
      </defs>
      <use xlink:href="#CMR17-50" transform="scale(0.996264)"/>
      <use xlink:href="#CMR17-69" transform="translate(62.586301 0)scale(0.996264)"/>
      <use xlink:href="#CMR17-6e" transform="translate(87.457359 0)scale(0.996264)"/>
      <use xlink:href="#CMR17-63" transform="translate(138.352729 0)scale(0.996264)"/>
      <use xlink:href="#CMR17-68" transform="translate(176.235935 0)scale(0.996264)"/>
      <use xlink:href="#CMMI12-b" transform="translate(257.207271 0)scale(0.996264)"/>
     </g>
    </g>
   </g>
   <g id="PolyCollection_1">
    <path d="M 40.914895 227.819626 
L 40.914895 261.958444 
L 45.378895 264.195712 
L 54.306895 265.084119 
L 63.234895 264.27089 
L 72.162895 264.320857 
L 81.090895 267.426914 
L 90.018895 263.721583 
L 98.946895 269.908453 
L 107.874895 268.077064 
L 116.802895 281.381064 
L 125.730895 261.655421 
L 134.658895 270.971866 
L 143.586895 275.035126 
L 152.514895 285.088302 
L 161.442895 272.857726 
L 170.370895 281.587712 
L 179.298895 281.896805 
L 188.226895 298.789141 
L 197.154895 289.398285 
L 206.082895 282.162791 
L 215.010895 300.603537 
L 223.938895 292.716746 
L 232.866895 297.726155 
L 241.794895 278.105706 
L 250.722895 308.017214 
L 259.650895 296.247883 
L 268.578895 289.223523 
L 277.506895 314.972931 
L 286.434895 316.042998 
L 295.362895 280.992469 
L 304.290895 311.48692 
L 313.218895 306.734513 
L 322.146895 367.268208 
L 331.074895 307.365874 
L 340.002895 305.160317 
L 348.930895 305.715792 
L 357.858895 312.867596 
L 366.786895 344.617271 
L 375.714895 338.257775 
L 384.642895 327.044706 
L 393.570895 361.870531 
L 402.498895 331.45624 
L 411.426895 328.764458 
L 420.354895 334.85901 
L 429.282895 327.995899 
L 438.210895 345.710542 
L 447.138895 327.261691 
L 456.066895 343.64221 
L 464.994895 380.614448 
L 473.922895 340.200234 
L 482.850895 344.173638 
L 482.850895 123.53755 
L 482.850895 123.53755 
L 473.922895 92.839064 
L 464.994895 34.829146 
L 456.066895 170.109433 
L 447.138895 110.284477 
L 438.210895 95.72981 
L 429.282895 131.207531 
L 420.354895 144.836711 
L 411.426895 108.040138 
L 402.498895 97.272589 
L 393.570895 117.061049 
L 384.642895 150.780088 
L 375.714895 132.020895 
L 366.786895 116.397273 
L 357.858895 145.75668 
L 348.930895 136.021091 
L 340.002895 167.180198 
L 331.074895 187.645426 
L 322.146895 173.795027 
L 313.218895 168.843923 
L 304.290895 162.75229 
L 295.362895 143.10782 
L 286.434895 136.610901 
L 277.506895 167.624836 
L 268.578895 103.661766 
L 259.650895 184.73751 
L 250.722895 190.998812 
L 241.794895 191.492281 
L 232.866895 160.057519 
L 223.938895 192.855124 
L 215.010895 206.724928 
L 206.082895 212.764021 
L 197.154895 192.490367 
L 188.226895 193.778925 
L 179.298895 187.587064 
L 170.370895 162.238076 
L 161.442895 194.055236 
L 152.514895 202.836757 
L 143.586895 210.044867 
L 134.658895 213.450371 
L 125.730895 199.386461 
L 116.802895 224.585621 
L 107.874895 217.685898 
L 98.946895 207.881831 
L 90.018895 214.988085 
L 81.090895 227.783673 
L 72.162895 223.865823 
L 63.234895 226.52671 
L 54.306895 223.624771 
L 45.378895 225.539224 
L 40.914895 227.819626 
z
" clip-path="url(#pf391a54a96)" style="fill: #f57d15; fill-opacity: 0.5; stroke: #f57d15; stroke-opacity: 0.5"/>
   </g>
   <g id="PolyCollection_2">
    <defs>
     <path id="mc187d350a4" d="M 40.914895 -98.571965 
L 40.914895 -74.50215 
L 45.378895 -73.645302 
L 54.306895 -72.135469 
L 63.234895 -73.678149 
L 72.162895 -72.255818 
L 81.090895 -71.32105 
L 90.018895 -72.549011 
L 98.946895 -72.587435 
L 107.874895 -70.776167 
L 116.802895 -63.309225 
L 125.730895 -79.967076 
L 134.658895 -67.492662 
L 143.586895 -63.130215 
L 152.514895 -54.787659 
L 161.442895 -75.748888 
L 170.370895 -56.822273 
L 179.298895 -64.343467 
L 188.226895 -46.689905 
L 197.154895 -51.992888 
L 206.082895 -56.728062 
L 215.010895 -46.266457 
L 223.938895 -48.129528 
L 232.866895 -46.746217 
L 241.794895 -62.333567 
L 250.722895 -37.103849 
L 259.650895 -50.964546 
L 268.578895 -54.16739 
L 277.506895 -28.398525 
L 286.434895 -35.537137 
L 295.362895 -72.51739 
L 304.290895 -53.164567 
L 313.218895 -46.06893 
L 322.146895 -19.776728 
L 331.074895 -45.129604 
L 340.002895 -51.112775 
L 348.930895 -47.752464 
L 357.858895 -30.901454 
L 366.786895 -22.18777 
L 375.714895 -16.383444 
L 384.642895 -25.429021 
L 393.570895 -6.560783 
L 402.498895 -15.975272 
L 411.426895 -27.246568 
L 420.354895 -23.003258 
L 429.282895 -18.990711 
L 438.210895 -10.242775 
L 447.138895 -41.145409 
L 456.066895 -7.048007 
L 464.994895 9.671351 
L 473.922895 -36.860551 
L 482.850895 -11.390839 
L 482.850895 -171.829992 
L 482.850895 -171.829992 
L 473.922895 -219.224442 
L 464.994895 -256.351577 
L 456.066895 -126.725823 
L 447.138895 -189.02114 
L 438.210895 -203.605816 
L 429.282895 -151.204476 
L 420.354895 -146.633293 
L 411.426895 -167.176445 
L 402.498895 -195.668035 
L 393.570895 -171.302944 
L 384.642895 -154.439277 
L 375.714895 -167.174065 
L 366.786895 -161.594185 
L 357.858895 -173.472276 
L 348.930895 -166.887584 
L 340.002895 -145.231728 
L 331.074895 -127.221634 
L 322.146895 -140.354257 
L 313.218895 -126.926962 
L 304.290895 -151.23273 
L 295.362895 -164.262366 
L 286.434895 -173.075887 
L 277.506895 -142.259977 
L 268.578895 -186.873928 
L 259.650895 -130.136589 
L 250.722895 -117.928362 
L 241.794895 -121.713521 
L 232.866895 -151.054694 
L 223.938895 -126.651404 
L 215.010895 -105.890291 
L 206.082895 -100.836229 
L 197.154895 -122.150131 
L 188.226895 -120.277457 
L 179.298895 -124.866877 
L 170.370895 -145.4807 
L 161.442895 -122.465091 
L 152.514895 -116.978428 
L 143.586895 -109.177932 
L 134.658895 -109.806131 
L 125.730895 -121.471262 
L 116.802895 -97.150498 
L 107.874895 -106.471608 
L 98.946895 -113.8339 
L 90.018895 -103.746757 
L 81.090895 -100.209238 
L 72.162895 -98.75168 
L 63.234895 -100.979933 
L 54.306895 -99.404112 
L 45.378895 -99.657886 
L 40.914895 -98.571965 
z
" style="stroke: #9f2a63; stroke-opacity: 0.6"/>
    </defs>
    <g clip-path="url(#pf391a54a96)">
     <use xlink:href="#mc187d350a4" x="0" y="331.325562" style="fill: #9f2a63; fill-opacity: 0.6; stroke: #9f2a63; stroke-opacity: 0.6"/>
    </g>
   </g>
   <g id="PolyCollection_3">
    <defs>
     <path id="m8dede1eeef" d="M 40.914895 -92.650617 
L 40.914895 -80.191246 
L 45.378895 -80.187265 
L 54.306895 -78.948908 
L 63.234895 -79.302561 
L 72.162895 -79.345006 
L 81.090895 -77.819441 
L 90.018895 -80.493993 
L 98.946895 -80.511258 
L 107.874895 -79.252304 
L 116.802895 -70.919572 
L 125.730895 -90.003316 
L 134.658895 -80.223916 
L 143.586895 -70.291532 
L 152.514895 -69.40425 
L 161.442895 -86.537773 
L 170.370895 -65.854113 
L 179.298895 -74.855204 
L 188.226895 -58.322358 
L 197.154895 -64.408752 
L 206.082895 -66.564809 
L 215.010895 -60.650269 
L 223.938895 -58.886526 
L 232.866895 -72.348621 
L 241.794895 -73.167816 
L 250.722895 -56.462369 
L 259.650895 -63.481767 
L 268.578895 -74.923475 
L 277.506895 -40.889328 
L 286.434895 -61.307758 
L 295.362895 -87.686757 
L 304.290895 -76.382679 
L 313.218895 -60.983312 
L 322.146895 -63.377988 
L 331.074895 -68.19149 
L 340.002895 -67.772521 
L 348.930895 -72.198561 
L 357.858895 -49.297749 
L 366.786895 -48.905581 
L 375.714895 -42.72638 
L 384.642895 -53.497657 
L 393.570895 -46.865158 
L 402.498895 -44.16822 
L 411.426895 -52.743904 
L 420.354895 -56.873427 
L 429.282895 -40.547472 
L 438.210895 -36.822201 
L 447.138895 -64.593614 
L 456.066895 -48.150378 
L 464.994895 -22.832399 
L 473.922895 -76.06515 
L 482.850895 -46.959493 
L 482.850895 -138.733882 
L 482.850895 -138.733882 
L 473.922895 -181.896184 
L 464.994895 -195.682406 
L 456.066895 -104.054626 
L 447.138895 -139.58942 
L 438.210895 -150.116833 
L 429.282895 -123.375581 
L 420.354895 -117.026545 
L 411.426895 -129.282756 
L 402.498895 -161.849394 
L 393.570895 -130.126588 
L 384.642895 -126.070136 
L 375.714895 -137.147499 
L 366.786895 -115.877748 
L 357.858895 -146.504093 
L 348.930895 -128.050811 
L 340.002895 -121.598576 
L 331.074895 -107.410486 
L 322.146895 -119.433522 
L 313.218895 -103.009667 
L 304.290895 -129.460147 
L 295.362895 -145.426241 
L 286.434895 -148.229039 
L 277.506895 -117.435515 
L 268.578895 -146.006543 
L 259.650895 -114.319109 
L 250.722895 -95.029679 
L 241.794895 -106.560568 
L 232.866895 -132.428133 
L 223.938895 -109.5065 
L 215.010895 -89.37731 
L 206.082895 -87.620365 
L 197.154895 -104.297318 
L 188.226895 -103.606064 
L 179.298895 -109.322629 
L 170.370895 -116.301291 
L 161.442895 -112.280765 
L 152.514895 -102.215431 
L 143.586895 -95.647698 
L 134.658895 -99.161144 
L 125.730895 -110.673962 
L 116.802895 -88.486048 
L 107.874895 -98.302891 
L 98.946895 -101.329315 
L 90.018895 -96.861959 
L 81.090895 -92.842357 
L 72.162895 -92.302634 
L 63.234895 -93.081517 
L 54.306895 -92.466596 
L 45.378895 -92.788464 
L 40.914895 -92.650617 
z
" style="stroke: #280b53; stroke-opacity: 0.6"/>
    </defs>
    <g clip-path="url(#pf391a54a96)">
     <use xlink:href="#m8dede1eeef" x="0" y="331.325562" style="fill: #280b53; fill-opacity: 0.6; stroke: #280b53; stroke-opacity: 0.6"/>
    </g>
   </g>
   <g id="line2d_27">
    <path d="M 40.914895 244.717439 
L 45.378895 244.714138 
L 54.306895 245.504415 
L 63.234895 244.963065 
L 72.162895 245.506425 
L 81.090895 246.100678 
L 90.018895 242.911814 
L 98.946895 240.726699 
L 107.874895 242.734945 
L 116.802895 251.471078 
L 125.730895 231.225223 
L 134.658895 241.562614 
L 143.586895 249.425573 
L 152.514895 246.040379 
L 161.442895 232.204223 
L 170.370895 239.272516 
L 179.298895 238.957481 
L 188.226895 251.320301 
L 197.154895 248.512524 
L 206.082895 254.109687 
L 215.010895 256.435909 
L 223.938895 251.72724 
L 232.866895 230.605365 
L 241.794895 241.624527 
L 250.722895 256.349807 
L 259.650895 241.690817 
L 268.578895 220.535503 
L 277.506895 258.125896 
L 286.434895 216.523683 
L 295.362895 214.568142 
L 304.290895 228.347893 
L 313.218895 249.698049 
L 322.146895 239.990501 
L 331.074895 243.261422 
L 340.002895 237.033975 
L 348.930895 230.868377 
L 357.858895 243.46199 
L 366.786895 251.326114 
L 375.714895 242.402182 
L 384.642895 241.658706 
L 393.570895 241.6896 
L 402.498895 226.940061 
L 411.426895 242.09042 
L 420.354895 244.2426 
L 429.282895 247.820714 
L 438.210895 238.72573 
L 447.138895 231.183748 
L 456.066895 255.515914 
L 464.994895 246.210548 
L 473.922895 206.509519 
L 482.850895 238.247421 
" clip-path="url(#pf391a54a96)" style="fill: none; stroke: #ff7f0e; stroke-width: 2; stroke-linecap: square"/>
   </g>
   <g id="line2d_28">
    <path d="M 36.450895 244.66109 
L 482.850895 244.66109 
" clip-path="url(#pf391a54a96)" style="fill: none; stroke-dasharray: 5.55,2.4; stroke-dashoffset: 0; stroke: #000000; stroke-width: 1.5"/>
   </g>
   <g id="patch_3">
    <path d="M 36.450895 288.55109 
L 36.450895 11.35109 
" style="fill: none; stroke: #000000; stroke-width: 0.8; stroke-linejoin: miter; stroke-linecap: square"/>
   </g>
   <g id="patch_4">
    <path d="M 482.850895 288.55109 
L 482.850895 11.35109 
" style="fill: none; stroke: #000000; stroke-width: 0.8; stroke-linejoin: miter; stroke-linecap: square"/>
   </g>
   <g id="patch_5">
    <path d="M 36.450895 288.55109 
L 482.850895 288.55109 
" style="fill: none; stroke: #000000; stroke-width: 0.8; stroke-linejoin: miter; stroke-linecap: square"/>
   </g>
   <g id="patch_6">
    <path d="M 36.450895 11.35109 
L 482.850895 11.35109 
" style="fill: none; stroke: #000000; stroke-width: 0.8; stroke-linejoin: miter; stroke-linecap: square"/>
   </g>
   <g id="legend_1">
    <g id="patch_7">
     <path d="M 44.850895 54.400281 
L 185.544637 54.400281 
Q 187.944637 54.400281 187.944637 52.000281 
L 187.944637 19.75109 
Q 187.944637 17.35109 185.544637 17.35109 
L 44.850895 17.35109 
Q 42.450895 17.35109 42.450895 19.75109 
L 42.450895 52.000281 
Q 42.450895 54.400281 44.850895 54.400281 
z
" style="fill: #ffffff; opacity: 0.8; stroke: #cccccc; stroke-linejoin: miter"/>
    </g>
    <g id="line2d_29">
     <path d="M 47.250895 26.35109 
L 59.250895 26.35109 
L 71.250895 26.35109 
" style="fill: none; stroke: #ff7f0e; stroke-width: 2; stroke-linecap: square"/>
    </g>
    <g id="text_16">
     <!-- Mean -->
     <g transform="translate(80.850895 30.55109)scale(0.12 -0.12)">
      <defs>
       <path id="CMR17-4d" d="M 1338 4249 
C 1299 4345 1293 4352 1158 4352 
L 339 4352 
L 339 4185 
C 781 4185 851 4185 851 3898 
L 851 624 
C 851 465 851 166 339 166 
L 339 0 
C 486 12 755 12 915 12 
C 1075 12 1344 12 1491 0 
L 1491 166 
C 979 166 979 465 979 624 
L 979 4159 
L 986 4159 
L 2490 102 
C 2515 38 2528 0 2579 0 
C 2630 0 2643 38 2669 102 
L 4186 4191 
L 4192 4191 
L 4192 453 
C 4192 166 4122 166 3680 166 
L 3680 0 
C 3853 12 4198 12 4384 12 
C 4570 12 4922 12 5094 0 
L 5094 166 
C 4653 166 4582 166 4582 453 
L 4582 3898 
C 4582 4185 4653 4185 5094 4185 
L 5094 4352 
L 4282 4352 
C 4147 4352 4141 4345 4102 4249 
L 2720 516 
L 1338 4249 
z
" transform="scale(0.015625)"/>
      </defs>
      <use xlink:href="#CMR17-4d" transform="scale(0.996264)"/>
      <use xlink:href="#CMR17-65" transform="translate(84.686941 0)scale(0.996264)"/>
      <use xlink:href="#CMR17-61" transform="translate(125.172601 0)scale(0.996264)"/>
      <use xlink:href="#CMR17-6e" transform="translate(170.863078 0)scale(0.996264)"/>
     </g>
    </g>
    <g id="patch_8">
     <path d="M 47.250895 47.275686 
L 71.250895 47.275686 
L 71.250895 38.875686 
L 47.250895 38.875686 
z
" style="fill: #f57d15; fill-opacity: 0.5; stroke: #f57d15; stroke-opacity: 0.5; stroke-linejoin: miter"/>
    </g>
    <g id="text_17">
     <!-- 3 $\sigma$ -->
     <g transform="translate(80.850895 47.275686)scale(0.12 -0.12)">
      <defs>
       <path id="CMMI12-1b" d="M 3251 2406 
C 3334 2406 3546 2406 3546 2611 
C 3546 2752 3424 2752 3309 2752 
L 1894 2752 
C 934 2752 243 1685 243 932 
C 243 389 595 -64 1171 -64 
C 1926 -64 2752 746 2752 1704 
C 2752 1953 2694 2195 2541 2406 
L 3251 2406 
z
M 1178 64 
C 851 64 614 312 614 753 
C 614 1136 845 2406 1786 2406 
C 2061 2406 2368 2272 2368 1780 
C 2368 1557 2266 1021 2042 651 
C 1811 274 1466 64 1178 64 
z
" transform="scale(0.015625)"/>
      </defs>
      <use xlink:href="#CMR17-33" transform="scale(0.996264)"/>
      <use xlink:href="#CMMI12-1b" transform="translate(75.766443 0)scale(0.996264)"/>
     </g>
    </g>
    <g id="patch_9">
     <path d="M 133.136198 30.55109 
L 157.136198 30.55109 
L 157.136198 22.15109 
L 133.136198 22.15109 
z
" style="fill: #9f2a63; fill-opacity: 0.6; stroke: #9f2a63; stroke-opacity: 0.6; stroke-linejoin: miter"/>
    </g>
    <g id="text_18">
     <!-- 2 $\sigma$ -->
     <g transform="translate(166.736198 30.55109)scale(0.12 -0.12)">
      <use xlink:href="#CMR17-32" transform="scale(0.996264)"/>
      <use xlink:href="#CMMI12-1b" transform="translate(75.766443 0)scale(0.996264)"/>
     </g>
    </g>
    <g id="patch_10">
     <path d="M 133.136198 47.275686 
L 157.136198 47.275686 
L 157.136198 38.875686 
L 133.136198 38.875686 
z
" style="fill: #280b53; fill-opacity: 0.6; stroke: #280b53; stroke-opacity: 0.6; stroke-linejoin: miter"/>
    </g>
    <g id="text_19">
     <!-- 1 $\sigma$ -->
     <g transform="translate(166.736198 47.275686)scale(0.12 -0.12)">
      <use xlink:href="#CMR17-31" transform="scale(0.996264)"/>
      <use xlink:href="#CMMI12-1b" transform="translate(75.766443 0)scale(0.996264)"/>
     </g>
    </g>
   </g>
  </g>
  <g id="text_20">
   <!-- True pinch -->
   <g transform="translate(488.610895 248.95109)scale(0.12 -0.12)">
    <defs>
     <path id="CMR17-54" d="M 3981 4332 
L 288 4332 
L 179 2924 
L 294 2924 
C 378 3981 467 4166 1453 4166 
C 1568 4166 1754 4166 1805 4159 
C 1926 4140 1926 4064 1926 3917 
L 1926 465 
C 1926 236 1907 166 1376 166 
L 1197 166 
L 1197 0 
C 1504 6 1824 12 2138 12 
C 2451 12 2771 6 3078 0 
L 3078 166 
L 2899 166 
C 2368 166 2349 236 2349 465 
L 2349 3917 
C 2349 4057 2349 4134 2464 4159 
C 2515 4166 2701 4166 2816 4166 
C 3795 4166 3891 3981 3974 2924 
L 4090 2924 
L 3981 4332 
z
" transform="scale(0.015625)"/>
     <path id="CMR17-72" d="M 960 1517 
C 960 2134 1222 2713 1702 2713 
C 1747 2713 1792 2707 1837 2687 
C 1837 2687 1696 2642 1696 2475 
C 1696 2321 1818 2257 1914 2257 
C 1990 2257 2131 2302 2131 2482 
C 2131 2687 1926 2816 1709 2816 
C 1222 2816 1011 2340 947 2115 
L 941 2115 
L 941 2816 
L 198 2745 
L 198 2578 
C 576 2578 634 2540 634 2231 
L 634 443 
C 634 198 608 166 198 166 
L 198 0 
C 352 12 646 12 813 12 
C 998 12 1325 12 1498 0 
L 1498 166 
C 1037 166 960 166 960 455 
L 960 1517 
z
" transform="scale(0.015625)"/>
     <path id="CMR17-75" d="M 1882 2745 
L 1882 2579 
C 2259 2579 2317 2540 2317 2229 
L 2317 1053 
C 2317 510 2029 38 1555 38 
C 1030 38 986 355 986 691 
L 986 2816 
L 211 2745 
L 211 2579 
C 467 2579 640 2579 646 2320 
L 646 1079 
C 646 646 646 368 813 187 
C 896 103 1056 -64 1517 -64 
C 2061 -64 2272 400 2323 536 
L 2330 536 
L 2330 -64 
L 3091 -13 
L 3091 154 
C 2714 154 2656 193 2656 503 
L 2656 2816 
L 1882 2745 
z
" transform="scale(0.015625)"/>
    </defs>
    <use xlink:href="#CMR17-54" transform="scale(0.996264)"/>
    <use xlink:href="#CMR17-72" transform="translate(58.702625 0)scale(0.996264)"/>
    <use xlink:href="#CMR17-75" transform="translate(93.983393 0)scale(0.996264)"/>
    <use xlink:href="#CMR17-65" transform="translate(144.878763 0)scale(0.996264)"/>
    <use xlink:href="#CMR17-70" transform="translate(215.44039 0)scale(0.996264)"/>
    <use xlink:href="#CMR17-69" transform="translate(266.335759 0)scale(0.996264)"/>
    <use xlink:href="#CMR17-6e" transform="translate(291.206818 0)scale(0.996264)"/>
    <use xlink:href="#CMR17-63" transform="translate(342.102188 0)scale(0.996264)"/>
    <use xlink:href="#CMR17-68" transform="translate(379.985394 0)scale(0.996264)"/>
   </g>
  </g>
 </g>
 <defs>
  <clipPath id="pf391a54a96">
   <rect x="36.450895" y="11.35109" width="446.4" height="277.2"/>
  </clipPath>
 </defs>
</svg>
